G75*
G70*
%OFA0B0*%
%FSLAX25Y25*%
%IPPOS*%
%LPD*%
%AMOC8*
5,1,8,0,0,1.08239X$1,22.5*
%
%ADD10R,0.11810X0.03940*%
%ADD11R,0.01180X0.02360*%
%ADD12R,0.06000X0.03000*%
%ADD13R,0.01970X0.01970*%
%ADD14R,0.03940X0.04330*%
%ADD15R,0.02760X0.01380*%
%ADD16R,0.01970X0.02360*%
%ADD18R,0.00800X0.01900*%
%ADD19R,0.07090X0.06300*%
%ADD20R,0.02480X0.03270*%
%ADD21R,0.01180X0.03150*%
%ADD22R,0.05710X0.03150*%
%ADD23R,0.04720X0.05510*%
%ADD24R,0.03940X0.11810*%
%ADD26R,0.00790X0.03940*%
%ADD27R,0.08270X0.07870*%
%ADD28R,0.03270X0.02480*%
%ADD30R,0.03150X0.03150*%
%ADD32R,0.03000X0.06000*%
%ADD34R,0.03150X0.06570*%
%ADD35R,0.02010X0.03150*%
%ADD36R,0.04720X0.02170*%
%ADD37R,0.04330X0.03940*%
%ADD38R,0.02170X0.04720*%
%ADD39R,0.02360X0.01970*%
%ADD40R,0.03940X0.00790*%
%ADD41R,0.04720X0.09840*%
%ADD42R,0.03150X0.01180*%
%ADD43R,0.01900X0.00800*%
%ADD44R,0.08700X0.02400*%
%ADD45R,0.01380X0.02760*%
%ADD46R,0.01570X0.06300*%
%ADD48R,0.05510X0.04720*%
%ADD49R,0.06570X0.03150*%
%ADD50C,0.00250*%
%ADD53R,0.05120X0.02760*%
%ADD56R,0.09450X0.09450*%
%ADD57R,0.07870X0.08270*%
%ADD58R,0.03150X0.09840*%
%ADD59R,0.16540X0.17720*%
%ADD62R,0.02360X0.03540*%
%ADD63R,0.03150X0.03540*%
%ADD64R,0.02760X0.05120*%
%ADD67R,0.07090X0.05510*%
%ADD68R,0.05510X0.07480*%
%ADD69R,0.03150X0.05910*%
%ADD70R,0.06000X0.16000*%
%ADD71R,0.03000X0.08800*%
%ADD72R,0.07240X0.07200*%
%ADD73R,0.14170X0.08660*%
%ADD74R,0.03940X0.18110*%
%ADD75R,0.06500X0.09370*%
%ADD76R,0.03150X0.03940*%
%ADD77R,0.05910X0.02760*%
%ADD78R,0.03540X0.02360*%
%ADD79R,0.06300X0.13390*%
%ADD80R,0.03540X0.03150*%
%ADD81R,0.06300X0.07090*%
%ADD82R,0.06300X0.01570*%
%ADD83R,0.02360X0.01180*%
%ADD84R,0.09840X0.03150*%
%ADD85R,0.03150X0.05710*%
%ADD86R,0.03150X0.02010*%
%ADD87R,0.09840X0.04720*%
%ADD88R,0.17720X0.16540*%
%ADD89R,0.02400X0.08700*%
X0160000Y0210000D02*
D32*
G01*
X0220900Y0400040D03*
G01*
X0205900Y0400040D03*
G01*
X0205900Y0380040D03*
G01*
X0220900Y0380040D03*
D12*
G01*
X0237500Y0372440D03*
G01*
X0237500Y0357440D03*
G01*
X0257500Y0357440D03*
G01*
X0257500Y0372440D03*
D70*
G01*
X0285200Y0435440D03*
G01*
X0305200Y0435440D03*
D67*
G01*
X0228900Y0406940D03*
G01*
X0206500Y0406940D03*
D68*
G01*
X0200200Y0458640D03*
G01*
X0252000Y0462640D03*
D69*
G01*
X0233600Y0447440D03*
G01*
X0229300Y0445940D03*
G01*
X0225000Y0447440D03*
G01*
X0220600Y0448240D03*
G01*
X0216300Y0447440D03*
G01*
X0212000Y0448240D03*
G01*
X0207600Y0447440D03*
G01*
X0203300Y0447440D03*
D30*
G01*
X0269100Y0313440D03*
G01*
X0275000Y0313440D03*
D14*
G01*
X0279300Y0311240D03*
G01*
X0279300Y0304640D03*
G01*
X0236200Y0311040D03*
G01*
X0236200Y0317740D03*
D57*
G01*
X0246200Y0322740D03*
G01*
X0246200Y0304040D03*
G01*
X0246200Y0285340D03*
D27*
G01*
X0232400Y0276440D03*
G01*
X0220600Y0276440D03*
G01*
X0208800Y0276440D03*
G01*
X0197000Y0276440D03*
G01*
X0185200Y0274640D03*
G01*
X0197000Y0331540D03*
G01*
X0208800Y0331540D03*
G01*
X0220600Y0331540D03*
G01*
X0232400Y0331540D03*
G01*
X0185100Y0333240D03*
D71*
G01*
X0256100Y0282740D03*
G01*
X0261100Y0282740D03*
G01*
X0266100Y0282740D03*
G01*
X0271100Y0282740D03*
G01*
X0276100Y0282740D03*
D73*
G01*
X0265700Y0307140D03*
D72*
G01*
X0199200Y0364040D03*
G01*
X0199200Y0384140D03*
G01*
X0165300Y0384140D03*
G01*
X0165300Y0364040D03*
D75*
G01*
X0180500Y0396940D03*
D50*
G01*
X0176000Y0397240D02*
G01*
X0176000Y0396540D01*
G01*
X0176000Y0396540D02*
G01*
X0172700Y0396540D01*
G01*
X0172700Y0396540D02*
G01*
X0172700Y0397240D01*
G01*
X0172700Y0397240D02*
G01*
X0176000Y0397240D01*
G01*
X0175800Y0397240D02*
G01*
X0175800Y0396540D01*
G01*
X0175500Y0396540D02*
G01*
X0175500Y0397240D01*
G01*
X0175300Y0397240D02*
G01*
X0175300Y0396540D01*
G01*
X0175100Y0396540D02*
G01*
X0175100Y0397240D01*
G01*
X0174800Y0397240D02*
G01*
X0174800Y0396540D01*
G01*
X0174600Y0396540D02*
G01*
X0174600Y0397240D01*
G01*
X0174300Y0397240D02*
G01*
X0174300Y0396540D01*
G01*
X0174100Y0396540D02*
G01*
X0174100Y0397240D01*
G01*
X0173900Y0397240D02*
G01*
X0173900Y0396540D01*
G01*
X0173600Y0396540D02*
G01*
X0173600Y0397240D01*
G01*
X0173400Y0397240D02*
G01*
X0173400Y0396540D01*
G01*
X0173100Y0396540D02*
G01*
X0173100Y0397240D01*
G01*
X0172900Y0397240D02*
G01*
X0172900Y0396540D01*
G01*
X0176000Y0395340D02*
G01*
X0176000Y0394540D01*
G01*
X0176000Y0394540D02*
G01*
X0172700Y0394540D01*
G01*
X0172700Y0394540D02*
G01*
X0172700Y0395340D01*
G01*
X0172700Y0395340D02*
G01*
X0176000Y0395340D01*
G01*
X0175800Y0395340D02*
G01*
X0175800Y0394540D01*
G01*
X0175500Y0394540D02*
G01*
X0175500Y0395340D01*
G01*
X0175300Y0395340D02*
G01*
X0175300Y0394540D01*
G01*
X0175100Y0394540D02*
G01*
X0175100Y0395340D01*
G01*
X0174800Y0395340D02*
G01*
X0174800Y0394540D01*
G01*
X0174600Y0394540D02*
G01*
X0174600Y0395340D01*
G01*
X0174300Y0395340D02*
G01*
X0174300Y0394540D01*
G01*
X0174100Y0394540D02*
G01*
X0174100Y0395340D01*
G01*
X0173900Y0395340D02*
G01*
X0173900Y0394540D01*
G01*
X0173600Y0394540D02*
G01*
X0173600Y0395340D01*
G01*
X0173400Y0395340D02*
G01*
X0173400Y0394540D01*
G01*
X0173100Y0394540D02*
G01*
X0173100Y0395340D01*
G01*
X0172900Y0395340D02*
G01*
X0172900Y0394540D01*
G01*
X0176000Y0393340D02*
G01*
X0176000Y0392640D01*
G01*
X0176000Y0392640D02*
G01*
X0172700Y0392640D01*
G01*
X0172700Y0392640D02*
G01*
X0172700Y0393340D01*
G01*
X0172700Y0393340D02*
G01*
X0176000Y0393340D01*
G01*
X0175800Y0393340D02*
G01*
X0175800Y0392640D01*
G01*
X0175500Y0392640D02*
G01*
X0175500Y0393340D01*
G01*
X0175300Y0393340D02*
G01*
X0175300Y0392640D01*
G01*
X0175100Y0392640D02*
G01*
X0175100Y0393340D01*
G01*
X0174800Y0393340D02*
G01*
X0174800Y0392640D01*
G01*
X0174600Y0392640D02*
G01*
X0174600Y0393340D01*
G01*
X0174300Y0393340D02*
G01*
X0174300Y0392640D01*
G01*
X0174100Y0392640D02*
G01*
X0174100Y0393340D01*
G01*
X0173900Y0393340D02*
G01*
X0173900Y0392640D01*
G01*
X0173600Y0392640D02*
G01*
X0173600Y0393340D01*
G01*
X0173400Y0393340D02*
G01*
X0173400Y0392640D01*
G01*
X0173100Y0392640D02*
G01*
X0173100Y0393340D01*
G01*
X0172900Y0393340D02*
G01*
X0172900Y0392640D01*
G01*
X0176000Y0398540D02*
G01*
X0176000Y0399240D01*
G01*
X0176000Y0398540D02*
G01*
X0172700Y0398540D01*
G01*
X0172700Y0398540D02*
G01*
X0172700Y0399240D01*
G01*
X0172700Y0399240D02*
G01*
X0176000Y0399240D01*
G01*
X0175800Y0399240D02*
G01*
X0175800Y0398540D01*
G01*
X0175500Y0398540D02*
G01*
X0175500Y0399240D01*
G01*
X0175300Y0399240D02*
G01*
X0175300Y0398540D01*
G01*
X0175100Y0398540D02*
G01*
X0175100Y0399240D01*
G01*
X0174800Y0399240D02*
G01*
X0174800Y0398540D01*
G01*
X0174600Y0398540D02*
G01*
X0174600Y0399240D01*
G01*
X0174300Y0399240D02*
G01*
X0174300Y0398540D01*
G01*
X0174100Y0398540D02*
G01*
X0174100Y0399240D01*
G01*
X0173900Y0399240D02*
G01*
X0173900Y0398540D01*
G01*
X0173600Y0398540D02*
G01*
X0173600Y0399240D01*
G01*
X0173400Y0399240D02*
G01*
X0173400Y0398540D01*
G01*
X0173100Y0398540D02*
G01*
X0173100Y0399240D01*
G01*
X0172900Y0399240D02*
G01*
X0172900Y0398540D01*
G01*
X0176000Y0400440D02*
G01*
X0176000Y0401240D01*
G01*
X0176000Y0400440D02*
G01*
X0172700Y0400440D01*
G01*
X0172700Y0400440D02*
G01*
X0172700Y0401240D01*
G01*
X0172700Y0401240D02*
G01*
X0176000Y0401240D01*
G01*
X0175800Y0401240D02*
G01*
X0175800Y0400440D01*
G01*
X0175500Y0400440D02*
G01*
X0175500Y0401240D01*
G01*
X0175300Y0401240D02*
G01*
X0175300Y0400440D01*
G01*
X0175100Y0400440D02*
G01*
X0175100Y0401240D01*
G01*
X0174800Y0401240D02*
G01*
X0174800Y0400440D01*
G01*
X0174600Y0400440D02*
G01*
X0174600Y0401240D01*
G01*
X0174300Y0401240D02*
G01*
X0174300Y0400440D01*
G01*
X0174100Y0400440D02*
G01*
X0174100Y0401240D01*
G01*
X0173900Y0401240D02*
G01*
X0173900Y0400440D01*
G01*
X0173600Y0400440D02*
G01*
X0173600Y0401240D01*
G01*
X0173400Y0401240D02*
G01*
X0173400Y0400440D01*
G01*
X0173100Y0400440D02*
G01*
X0173100Y0401240D01*
G01*
X0172900Y0401240D02*
G01*
X0172900Y0400440D01*
G01*
X0188200Y0400440D02*
G01*
X0188200Y0401240D01*
G01*
X0188200Y0400440D02*
G01*
X0184900Y0400440D01*
G01*
X0184900Y0400440D02*
G01*
X0184900Y0401240D01*
G01*
X0184900Y0401240D02*
G01*
X0188200Y0401240D01*
G01*
X0188000Y0401240D02*
G01*
X0188000Y0400440D01*
G01*
X0187700Y0400440D02*
G01*
X0187700Y0401240D01*
G01*
X0187500Y0401240D02*
G01*
X0187500Y0400440D01*
G01*
X0187300Y0400440D02*
G01*
X0187300Y0401240D01*
G01*
X0187000Y0401240D02*
G01*
X0187000Y0400440D01*
G01*
X0186800Y0400440D02*
G01*
X0186800Y0401240D01*
G01*
X0186500Y0401240D02*
G01*
X0186500Y0400440D01*
G01*
X0186300Y0400440D02*
G01*
X0186300Y0401240D01*
G01*
X0186100Y0401240D02*
G01*
X0186100Y0400440D01*
G01*
X0185800Y0400440D02*
G01*
X0185800Y0401240D01*
G01*
X0185600Y0401240D02*
G01*
X0185600Y0400440D01*
G01*
X0185300Y0400440D02*
G01*
X0185300Y0401240D01*
G01*
X0185100Y0401240D02*
G01*
X0185100Y0400440D01*
G01*
X0188200Y0399240D02*
G01*
X0188200Y0398540D01*
G01*
X0188200Y0398540D02*
G01*
X0184900Y0398540D01*
G01*
X0184900Y0398540D02*
G01*
X0184900Y0399240D01*
G01*
X0184900Y0399240D02*
G01*
X0188200Y0399240D01*
G01*
X0188000Y0399240D02*
G01*
X0188000Y0398540D01*
G01*
X0187700Y0398540D02*
G01*
X0187700Y0399240D01*
G01*
X0187500Y0399240D02*
G01*
X0187500Y0398540D01*
G01*
X0187300Y0398540D02*
G01*
X0187300Y0399240D01*
G01*
X0187000Y0399240D02*
G01*
X0187000Y0398540D01*
G01*
X0186800Y0398540D02*
G01*
X0186800Y0399240D01*
G01*
X0186500Y0399240D02*
G01*
X0186500Y0398540D01*
G01*
X0186300Y0398540D02*
G01*
X0186300Y0399240D01*
G01*
X0186100Y0399240D02*
G01*
X0186100Y0398540D01*
G01*
X0185800Y0398540D02*
G01*
X0185800Y0399240D01*
G01*
X0185600Y0399240D02*
G01*
X0185600Y0398540D01*
G01*
X0185300Y0398540D02*
G01*
X0185300Y0399240D01*
G01*
X0185100Y0399240D02*
G01*
X0185100Y0398540D01*
G01*
X0188200Y0397240D02*
G01*
X0188200Y0396540D01*
G01*
X0188200Y0396540D02*
G01*
X0184900Y0396540D01*
G01*
X0184900Y0396540D02*
G01*
X0184900Y0397240D01*
G01*
X0184900Y0397240D02*
G01*
X0188200Y0397240D01*
G01*
X0188000Y0397240D02*
G01*
X0188000Y0396540D01*
G01*
X0187700Y0396540D02*
G01*
X0187700Y0397240D01*
G01*
X0187500Y0397240D02*
G01*
X0187500Y0396540D01*
G01*
X0187300Y0396540D02*
G01*
X0187300Y0397240D01*
G01*
X0187000Y0397240D02*
G01*
X0187000Y0396540D01*
G01*
X0186800Y0396540D02*
G01*
X0186800Y0397240D01*
G01*
X0186500Y0397240D02*
G01*
X0186500Y0396540D01*
G01*
X0186300Y0396540D02*
G01*
X0186300Y0397240D01*
G01*
X0186100Y0397240D02*
G01*
X0186100Y0396540D01*
G01*
X0185800Y0396540D02*
G01*
X0185800Y0397240D01*
G01*
X0185600Y0397240D02*
G01*
X0185600Y0396540D01*
G01*
X0185300Y0396540D02*
G01*
X0185300Y0397240D01*
G01*
X0185100Y0397240D02*
G01*
X0185100Y0396540D01*
G01*
X0188200Y0395340D02*
G01*
X0188200Y0394540D01*
G01*
X0188200Y0394540D02*
G01*
X0184900Y0394540D01*
G01*
X0184900Y0394540D02*
G01*
X0184900Y0395340D01*
G01*
X0184900Y0395340D02*
G01*
X0188200Y0395340D01*
G01*
X0188000Y0395340D02*
G01*
X0188000Y0394540D01*
G01*
X0187700Y0394540D02*
G01*
X0187700Y0395340D01*
G01*
X0187500Y0395340D02*
G01*
X0187500Y0394540D01*
G01*
X0187300Y0394540D02*
G01*
X0187300Y0395340D01*
G01*
X0187000Y0395340D02*
G01*
X0187000Y0394540D01*
G01*
X0186800Y0394540D02*
G01*
X0186800Y0395340D01*
G01*
X0186500Y0395340D02*
G01*
X0186500Y0394540D01*
G01*
X0186300Y0394540D02*
G01*
X0186300Y0395340D01*
G01*
X0186100Y0395340D02*
G01*
X0186100Y0394540D01*
G01*
X0185800Y0394540D02*
G01*
X0185800Y0395340D01*
G01*
X0185600Y0395340D02*
G01*
X0185600Y0394540D01*
G01*
X0185300Y0394540D02*
G01*
X0185300Y0395340D01*
G01*
X0185100Y0395340D02*
G01*
X0185100Y0394540D01*
G01*
X0188200Y0393340D02*
G01*
X0188200Y0392640D01*
G01*
X0188200Y0392640D02*
G01*
X0184900Y0392640D01*
G01*
X0184900Y0392640D02*
G01*
X0184900Y0393340D01*
G01*
X0184900Y0393340D02*
G01*
X0188200Y0393340D01*
G01*
X0188000Y0393340D02*
G01*
X0188000Y0392640D01*
G01*
X0187700Y0392640D02*
G01*
X0187700Y0393340D01*
G01*
X0187500Y0393340D02*
G01*
X0187500Y0392640D01*
G01*
X0187300Y0392640D02*
G01*
X0187300Y0393340D01*
G01*
X0187000Y0393340D02*
G01*
X0187000Y0392640D01*
G01*
X0186800Y0392640D02*
G01*
X0186800Y0393340D01*
G01*
X0186500Y0393340D02*
G01*
X0186500Y0392640D01*
G01*
X0186300Y0392640D02*
G01*
X0186300Y0393340D01*
G01*
X0186100Y0393340D02*
G01*
X0186100Y0392640D01*
G01*
X0185800Y0392640D02*
G01*
X0185800Y0393340D01*
G01*
X0185600Y0393340D02*
G01*
X0185600Y0392640D01*
G01*
X0185300Y0392640D02*
G01*
X0185300Y0393340D01*
G01*
X0185100Y0393340D02*
G01*
X0185100Y0392640D01*
D78*
G01*
X0169400Y0396140D03*
G01*
X0169400Y0402040D03*
D74*
G01*
X0284000Y0274640D03*
G01*
X0291900Y0274640D03*
D79*
G01*
X0301300Y0254240D03*
G01*
X0274600Y0254240D03*
D77*
G01*
X0296800Y0289640D03*
G01*
X0296800Y0295540D03*
G01*
X0296800Y0307340D03*
D76*
G01*
X0299400Y0312840D03*
G01*
X0308000Y0312840D03*
G01*
X0308000Y0284140D03*
G01*
X0299400Y0284140D03*
X0160000Y0504980D02*
D14*
G01*
X0392440Y0578160D03*
G01*
X0392440Y0584860D03*
G01*
X0367540Y0603960D03*
G01*
X0367540Y0610660D03*
G01*
X0356140Y0608960D03*
G01*
X0356140Y0602260D03*
G01*
X0357540Y0627060D03*
G01*
X0357540Y0633760D03*
G01*
X0332540Y0648260D03*
G01*
X0332540Y0654960D03*
G01*
X0315840Y0634760D03*
G01*
X0315840Y0628160D03*
G01*
X0315640Y0622960D03*
G01*
X0315640Y0616260D03*
G01*
X0306340Y0617960D03*
G01*
X0306340Y0624660D03*
G01*
X0277440Y0584860D03*
G01*
X0277440Y0578260D03*
G01*
X0261840Y0584160D03*
G01*
X0261840Y0590860D03*
G01*
X0240840Y0605560D03*
G01*
X0240840Y0612260D03*
G01*
X0243140Y0618760D03*
G01*
X0243140Y0625460D03*
G01*
X0220540Y0650260D03*
G01*
X0220540Y0656960D03*
G01*
X0221740Y0583960D03*
G01*
X0221740Y0577260D03*
G01*
X0226640Y0565860D03*
G01*
X0226640Y0559160D03*
G01*
X0208540Y0549860D03*
G01*
X0208540Y0543160D03*
G01*
X0245540Y0545360D03*
G01*
X0245540Y0552060D03*
G01*
X0253640Y0552060D03*
G01*
X0253640Y0545360D03*
G01*
X0289240Y0552960D03*
G01*
X0289240Y0559760D03*
G01*
X0317140Y0524460D03*
G01*
X0317140Y0517760D03*
G01*
X0296940Y0520160D03*
G01*
X0296940Y0513460D03*
G01*
X0413640Y0609860D03*
G01*
X0413640Y0616560D03*
D37*
G01*
X0407040Y0611260D03*
G01*
X0400340Y0611260D03*
G01*
X0392940Y0610260D03*
G01*
X0386240Y0610260D03*
G01*
X0381140Y0610060D03*
G01*
X0374440Y0610060D03*
G01*
X0375040Y0619560D03*
G01*
X0369540Y0620360D03*
G01*
X0362840Y0620360D03*
G01*
X0357540Y0615860D03*
G01*
X0350840Y0615860D03*
G01*
X0345540Y0615860D03*
G01*
X0338840Y0615860D03*
G01*
X0333740Y0612660D03*
G01*
X0327040Y0612660D03*
G01*
X0321940Y0604560D03*
G01*
X0315240Y0604560D03*
G01*
X0309540Y0605360D03*
G01*
X0302840Y0605360D03*
G01*
X0293740Y0602260D03*
G01*
X0287040Y0602260D03*
G01*
X0287840Y0610260D03*
G01*
X0281140Y0610260D03*
G01*
X0281140Y0619160D03*
G01*
X0287840Y0619160D03*
G01*
X0293040Y0618760D03*
G01*
X0299740Y0618760D03*
G01*
X0301640Y0597260D03*
G01*
X0308340Y0597260D03*
G01*
X0311240Y0578460D03*
G01*
X0304640Y0578460D03*
G01*
X0320340Y0558960D03*
G01*
X0327040Y0558960D03*
G01*
X0309540Y0555560D03*
G01*
X0302840Y0555560D03*
G01*
X0297540Y0546360D03*
G01*
X0290840Y0546360D03*
G01*
X0281340Y0536660D03*
G01*
X0274640Y0536660D03*
G01*
X0267340Y0518160D03*
G01*
X0260740Y0518160D03*
G01*
X0260740Y0510060D03*
G01*
X0267340Y0510060D03*
G01*
X0296340Y0526860D03*
G01*
X0303040Y0526860D03*
G01*
X0313240Y0541360D03*
G01*
X0319940Y0541360D03*
G01*
X0281940Y0561260D03*
G01*
X0275240Y0561260D03*
G01*
X0265840Y0564660D03*
G01*
X0259140Y0564660D03*
G01*
X0252640Y0538660D03*
G01*
X0245940Y0538660D03*
G01*
X0224240Y0537260D03*
G01*
X0217540Y0537260D03*
G01*
X0200240Y0557760D03*
G01*
X0193540Y0557760D03*
G01*
X0234740Y0596560D03*
G01*
X0241440Y0596560D03*
G01*
X0227840Y0605360D03*
G01*
X0221140Y0605360D03*
G01*
X0221140Y0615260D03*
G01*
X0227840Y0615260D03*
G01*
X0227840Y0626060D03*
G01*
X0221140Y0626060D03*
G01*
X0219740Y0634360D03*
G01*
X0226440Y0634360D03*
G01*
X0200440Y0657760D03*
G01*
X0193740Y0657760D03*
G01*
X0278440Y0649260D03*
G01*
X0285140Y0649260D03*
G01*
X0285740Y0657360D03*
G01*
X0279040Y0657360D03*
G01*
X0305140Y0645160D03*
G01*
X0311840Y0645160D03*
G01*
X0318940Y0649460D03*
G01*
X0325640Y0649460D03*
G01*
X0325640Y0657560D03*
G01*
X0318940Y0657560D03*
G01*
X0319340Y0641360D03*
G01*
X0326040Y0641360D03*
G01*
X0343940Y0633560D03*
G01*
X0350640Y0633560D03*
G01*
X0350840Y0624060D03*
G01*
X0344140Y0624060D03*
G01*
X0381740Y0619560D03*
G01*
X0379240Y0582960D03*
G01*
X0385840Y0582960D03*
G01*
X0385840Y0574860D03*
G01*
X0379240Y0574860D03*
G01*
X0372940Y0576060D03*
G01*
X0366240Y0576060D03*
G01*
X0367740Y0566960D03*
G01*
X0361040Y0566960D03*
G01*
X0403240Y0572260D03*
G01*
X0409940Y0572260D03*
G01*
X0408140Y0582560D03*
G01*
X0401440Y0582560D03*
G01*
X0383540Y0658360D03*
G01*
X0376840Y0658360D03*
D13*
G01*
X0330340Y0533560D03*
D43*
G01*
X0337640Y0533560D03*
G01*
X0337640Y0531560D03*
G01*
X0337640Y0529560D03*
G01*
X0337640Y0535460D03*
G01*
X0337640Y0537460D03*
G01*
X0323040Y0537460D03*
G01*
X0323040Y0535460D03*
G01*
X0323040Y0533560D03*
G01*
X0323040Y0531560D03*
G01*
X0323040Y0529560D03*
D18*
G01*
X0326440Y0526260D03*
G01*
X0328440Y0526260D03*
G01*
X0330340Y0526260D03*
G01*
X0332340Y0526260D03*
G01*
X0334340Y0526260D03*
G01*
X0334340Y0540860D03*
G01*
X0332340Y0540860D03*
G01*
X0330340Y0540860D03*
G01*
X0328440Y0540860D03*
G01*
X0326440Y0540860D03*
D62*
G01*
X0317040Y0534360D03*
G01*
X0311040Y0534360D03*
G01*
X0341240Y0528060D03*
G01*
X0347140Y0528060D03*
G01*
X0353440Y0524060D03*
G01*
X0359340Y0524060D03*
G01*
X0347140Y0521960D03*
G01*
X0341240Y0521960D03*
D39*
G01*
X0352640Y0519160D03*
G01*
X0352640Y0515260D03*
G01*
X0356740Y0515260D03*
G01*
X0356740Y0519160D03*
G01*
X0368540Y0521160D03*
G01*
X0368540Y0525060D03*
G01*
X0374640Y0523060D03*
G01*
X0374640Y0527060D03*
G01*
X0370740Y0538060D03*
G01*
X0370740Y0541960D03*
G01*
X0346540Y0538260D03*
G01*
X0346540Y0534360D03*
G01*
X0342340Y0534360D03*
G01*
X0342340Y0538260D03*
G01*
X0368540Y0516960D03*
G01*
X0368540Y0513060D03*
D16*
G01*
X0364640Y0515660D03*
G01*
X0360740Y0515660D03*
G01*
X0348640Y0516560D03*
G01*
X0344740Y0516560D03*
G01*
X0355140Y0529960D03*
G01*
X0359140Y0529960D03*
G01*
X0365040Y0529160D03*
G01*
X0368940Y0529160D03*
G01*
X0370540Y0534160D03*
G01*
X0374440Y0534160D03*
G01*
X0354440Y0534160D03*
G01*
X0350440Y0534160D03*
G01*
X0350440Y0538260D03*
G01*
X0354440Y0538260D03*
D24*
G01*
X0198840Y0520560D03*
G01*
X0191040Y0520560D03*
D10*
G01*
X0220340Y0519160D03*
G01*
X0220340Y0527060D03*
D35*
G01*
X0210940Y0527660D03*
G01*
X0207140Y0527660D03*
G01*
X0203440Y0527660D03*
G01*
X0203440Y0537860D03*
G01*
X0207140Y0537860D03*
G01*
X0210940Y0537860D03*
D56*
G01*
X0234940Y0533760D03*
G01*
X0234940Y0516360D03*
G01*
X0393340Y0627260D03*
G01*
X0410740Y0627260D03*
D40*
G01*
X0358740Y0596360D03*
G01*
X0358740Y0594360D03*
G01*
X0358740Y0592360D03*
G01*
X0358740Y0590360D03*
G01*
X0358740Y0588460D03*
G01*
X0358740Y0586460D03*
G01*
X0358740Y0584460D03*
G01*
X0358740Y0582560D03*
G01*
X0358740Y0580560D03*
G01*
X0358740Y0578560D03*
G01*
X0358740Y0576660D03*
G01*
X0358740Y0574660D03*
G01*
X0323240Y0574660D03*
G01*
X0323240Y0576660D03*
G01*
X0323240Y0578560D03*
G01*
X0323240Y0580560D03*
G01*
X0323240Y0582560D03*
G01*
X0323240Y0584460D03*
G01*
X0323240Y0586460D03*
G01*
X0323240Y0588460D03*
G01*
X0323240Y0590360D03*
G01*
X0323240Y0592360D03*
G01*
X0323240Y0594360D03*
G01*
X0323240Y0596360D03*
D26*
G01*
X0330140Y0603160D03*
G01*
X0332140Y0603160D03*
G01*
X0334140Y0603160D03*
G01*
X0336040Y0603160D03*
G01*
X0338040Y0603160D03*
G01*
X0340040Y0603160D03*
G01*
X0341940Y0603160D03*
G01*
X0343940Y0603160D03*
G01*
X0345940Y0603160D03*
G01*
X0347840Y0603160D03*
G01*
X0349840Y0603160D03*
G01*
X0351840Y0603160D03*
G01*
X0351840Y0567760D03*
G01*
X0349840Y0567760D03*
G01*
X0347840Y0567760D03*
G01*
X0345940Y0567760D03*
G01*
X0343940Y0567760D03*
G01*
X0341940Y0567760D03*
G01*
X0340040Y0567760D03*
G01*
X0338040Y0567760D03*
G01*
X0336040Y0567760D03*
G01*
X0334140Y0567760D03*
G01*
X0332140Y0567760D03*
G01*
X0330140Y0567760D03*
D36*
G01*
X0287240Y0530560D03*
G01*
X0287240Y0523060D03*
G01*
X0277040Y0523060D03*
G01*
X0277040Y0526860D03*
G01*
X0277040Y0530560D03*
G01*
X0303440Y0651060D03*
G01*
X0303440Y0654760D03*
G01*
X0303440Y0658560D03*
G01*
X0313640Y0658560D03*
G01*
X0313640Y0651060D03*
D38*
G01*
X0269740Y0541560D03*
G01*
X0262240Y0541560D03*
G01*
X0262240Y0531360D03*
G01*
X0266040Y0531360D03*
G01*
X0269740Y0531360D03*
D41*
G01*
X0275440Y0514460D03*
G01*
X0288440Y0514460D03*
G01*
X0275040Y0550060D03*
G01*
X0262040Y0550060D03*
G01*
X0236240Y0547460D03*
G01*
X0223340Y0547460D03*
D22*
G01*
X0372740Y0580960D03*
G01*
X0372740Y0587260D03*
D28*
G01*
X0269940Y0587660D03*
G01*
X0269940Y0578560D03*
G01*
X0234340Y0612260D03*
G01*
X0234340Y0621360D03*
G01*
X0234340Y0625260D03*
G01*
X0234340Y0634360D03*
D46*
G01*
X0234840Y0587360D03*
G01*
X0237440Y0587360D03*
G01*
X0239940Y0587360D03*
G01*
X0242540Y0587360D03*
G01*
X0245140Y0587360D03*
G01*
X0247640Y0587360D03*
G01*
X0250240Y0587360D03*
G01*
X0232340Y0587360D03*
G01*
X0232340Y0564160D03*
G01*
X0234840Y0564160D03*
G01*
X0237440Y0564160D03*
G01*
X0239940Y0564160D03*
G01*
X0242540Y0564160D03*
G01*
X0245140Y0564160D03*
G01*
X0247640Y0564160D03*
G01*
X0250240Y0564160D03*
D20*
G01*
X0229640Y0595560D03*
G01*
X0220540Y0595560D03*
G01*
X0219540Y0644560D03*
G01*
X0228640Y0644560D03*
D44*
G01*
X0389540Y0605960D03*
G01*
X0389540Y0600960D03*
G01*
X0389540Y0595960D03*
G01*
X0389540Y0590960D03*
G01*
X0410140Y0590960D03*
G01*
X0410140Y0595960D03*
G01*
X0410140Y0600960D03*
G01*
X0410140Y0605960D03*
D11*
G01*
X0365040Y0540960D03*
G01*
X0362440Y0540960D03*
G01*
X0359940Y0540960D03*
G01*
X0359940Y0533560D03*
G01*
X0362440Y0533560D03*
G01*
X0365040Y0533560D03*
D48*
G01*
X0334740Y0520360D03*
G01*
X0334740Y0514060D03*
G01*
X0326040Y0514060D03*
G01*
X0326040Y0520360D03*
D19*
G01*
X0192540Y0535860D03*
G01*
X0192540Y0546960D03*
D23*
G01*
X0374040Y0593560D03*
G01*
X0380340Y0593560D03*
G01*
X0380340Y0602260D03*
G01*
X0374040Y0602260D03*
D63*
G01*
X0375040Y0645960D03*
G01*
X0382540Y0645960D03*
G01*
X0378840Y0654160D03*
G01*
X0298440Y0657160D03*
G01*
X0291040Y0657160D03*
G01*
X0294740Y0648860D03*
D49*
G01*
X0339940Y0648260D03*
G01*
X0339940Y0653260D03*
G01*
X0339940Y0643260D03*
G01*
X0356240Y0643260D03*
G01*
X0356240Y0648260D03*
G01*
X0356240Y0653260D03*
D58*
G01*
X0348140Y0641760D03*
D34*
G01*
X0348140Y0656460D03*
D42*
G01*
X0337440Y0632360D03*
G01*
X0337440Y0630360D03*
G01*
X0337440Y0628460D03*
G01*
X0337440Y0626460D03*
G01*
X0337440Y0624460D03*
G01*
X0337440Y0622460D03*
G01*
X0321740Y0622460D03*
G01*
X0321740Y0624460D03*
G01*
X0321740Y0626460D03*
G01*
X0321740Y0628460D03*
G01*
X0321740Y0630360D03*
G01*
X0321740Y0632360D03*
D21*
G01*
X0324640Y0635260D03*
G01*
X0326640Y0635260D03*
G01*
X0328640Y0635260D03*
G01*
X0330540Y0635260D03*
G01*
X0332540Y0635260D03*
G01*
X0334540Y0635260D03*
G01*
X0334540Y0619560D03*
G01*
X0332540Y0619560D03*
G01*
X0330540Y0619560D03*
G01*
X0328640Y0619560D03*
G01*
X0326640Y0619560D03*
G01*
X0324640Y0619560D03*
D15*
G01*
X0301440Y0627060D03*
G01*
X0301440Y0629160D03*
G01*
X0301440Y0631360D03*
G01*
X0301440Y0633560D03*
G01*
X0301440Y0635660D03*
G01*
X0301440Y0637860D03*
G01*
X0301440Y0640060D03*
G01*
X0283340Y0640060D03*
G01*
X0283340Y0637860D03*
G01*
X0283340Y0635660D03*
G01*
X0283340Y0633560D03*
G01*
X0283340Y0631360D03*
G01*
X0283340Y0629160D03*
G01*
X0283340Y0627060D03*
D45*
G01*
X0285840Y0624460D03*
G01*
X0288040Y0624460D03*
G01*
X0290240Y0624460D03*
G01*
X0292340Y0624460D03*
G01*
X0294540Y0624460D03*
G01*
X0296740Y0624460D03*
G01*
X0298840Y0624460D03*
G01*
X0298840Y0642560D03*
G01*
X0296740Y0642560D03*
G01*
X0294540Y0642560D03*
G01*
X0292340Y0642560D03*
G01*
X0290240Y0642560D03*
G01*
X0288040Y0642560D03*
G01*
X0285840Y0642560D03*
D59*
G01*
X0395840Y0651860D03*
D53*
G01*
X0410840Y0649360D03*
G01*
X0410840Y0644360D03*
G01*
X0410840Y0654360D03*
G01*
X0410840Y0659360D03*
D64*
G01*
X0211340Y0518960D03*
G01*
X0203740Y0518960D03*
X0454980Y0210000D02*
D14*
G01*
X0687420Y0283180D03*
G01*
X0687420Y0289880D03*
G01*
X0662520Y0308980D03*
G01*
X0662520Y0315680D03*
G01*
X0651120Y0313980D03*
G01*
X0651120Y0307280D03*
G01*
X0652520Y0332080D03*
G01*
X0652520Y0338780D03*
G01*
X0627520Y0353280D03*
G01*
X0627520Y0359980D03*
G01*
X0610820Y0339780D03*
G01*
X0610820Y0333180D03*
G01*
X0610620Y0327980D03*
G01*
X0610620Y0321280D03*
G01*
X0601320Y0322980D03*
G01*
X0601320Y0329680D03*
G01*
X0572420Y0289880D03*
G01*
X0572420Y0283280D03*
G01*
X0556820Y0289180D03*
G01*
X0556820Y0295880D03*
G01*
X0535820Y0310580D03*
G01*
X0535820Y0317280D03*
G01*
X0538120Y0323780D03*
G01*
X0538120Y0330480D03*
G01*
X0515520Y0355280D03*
G01*
X0515520Y0361980D03*
G01*
X0516720Y0288980D03*
G01*
X0516720Y0282280D03*
G01*
X0521620Y0270880D03*
G01*
X0521620Y0264180D03*
G01*
X0503520Y0254880D03*
G01*
X0503520Y0248180D03*
G01*
X0540520Y0250380D03*
G01*
X0540520Y0257080D03*
G01*
X0548620Y0257080D03*
G01*
X0548620Y0250380D03*
G01*
X0584220Y0257980D03*
G01*
X0584220Y0264780D03*
G01*
X0612120Y0229480D03*
G01*
X0612120Y0222780D03*
G01*
X0591920Y0225180D03*
G01*
X0591920Y0218480D03*
G01*
X0708620Y0314880D03*
G01*
X0708620Y0321580D03*
D37*
G01*
X0702020Y0316280D03*
G01*
X0695320Y0316280D03*
G01*
X0687920Y0315280D03*
G01*
X0681220Y0315280D03*
G01*
X0676120Y0315080D03*
G01*
X0669420Y0315080D03*
G01*
X0670020Y0324580D03*
G01*
X0664520Y0325380D03*
G01*
X0657820Y0325380D03*
G01*
X0652520Y0320880D03*
G01*
X0645820Y0320880D03*
G01*
X0640520Y0320880D03*
G01*
X0633820Y0320880D03*
G01*
X0628720Y0317680D03*
G01*
X0622020Y0317680D03*
G01*
X0616920Y0309580D03*
G01*
X0610220Y0309580D03*
G01*
X0604520Y0310380D03*
G01*
X0597820Y0310380D03*
G01*
X0588720Y0307280D03*
G01*
X0582020Y0307280D03*
G01*
X0582820Y0315280D03*
G01*
X0576120Y0315280D03*
G01*
X0576120Y0324180D03*
G01*
X0582820Y0324180D03*
G01*
X0588020Y0323780D03*
G01*
X0594720Y0323780D03*
G01*
X0596620Y0302280D03*
G01*
X0603320Y0302280D03*
G01*
X0606220Y0283480D03*
G01*
X0599620Y0283480D03*
G01*
X0615320Y0263980D03*
G01*
X0622020Y0263980D03*
G01*
X0604520Y0260580D03*
G01*
X0597820Y0260580D03*
G01*
X0592520Y0251380D03*
G01*
X0585820Y0251380D03*
G01*
X0576320Y0241680D03*
G01*
X0569620Y0241680D03*
G01*
X0562320Y0223180D03*
G01*
X0555720Y0223180D03*
G01*
X0555720Y0215080D03*
G01*
X0562320Y0215080D03*
G01*
X0591320Y0231880D03*
G01*
X0598020Y0231880D03*
G01*
X0608220Y0246380D03*
G01*
X0614920Y0246380D03*
G01*
X0576920Y0266280D03*
G01*
X0570220Y0266280D03*
G01*
X0560820Y0269680D03*
G01*
X0554120Y0269680D03*
G01*
X0547620Y0243680D03*
G01*
X0540920Y0243680D03*
G01*
X0519220Y0242280D03*
G01*
X0512520Y0242280D03*
G01*
X0495220Y0262780D03*
G01*
X0488520Y0262780D03*
G01*
X0529720Y0301580D03*
G01*
X0536420Y0301580D03*
G01*
X0522820Y0310380D03*
G01*
X0516120Y0310380D03*
G01*
X0516120Y0320280D03*
G01*
X0522820Y0320280D03*
G01*
X0522820Y0331080D03*
G01*
X0516120Y0331080D03*
G01*
X0514720Y0339380D03*
G01*
X0521420Y0339380D03*
G01*
X0495420Y0362780D03*
G01*
X0488720Y0362780D03*
G01*
X0573420Y0354280D03*
G01*
X0580120Y0354280D03*
G01*
X0580720Y0362380D03*
G01*
X0574020Y0362380D03*
G01*
X0600120Y0350180D03*
G01*
X0606820Y0350180D03*
G01*
X0613920Y0354480D03*
G01*
X0620620Y0354480D03*
G01*
X0620620Y0362580D03*
G01*
X0613920Y0362580D03*
G01*
X0614320Y0346380D03*
G01*
X0621020Y0346380D03*
G01*
X0638920Y0338580D03*
G01*
X0645620Y0338580D03*
G01*
X0645820Y0329080D03*
G01*
X0639120Y0329080D03*
G01*
X0676720Y0324580D03*
G01*
X0674220Y0287980D03*
G01*
X0680820Y0287980D03*
G01*
X0680820Y0279880D03*
G01*
X0674220Y0279880D03*
G01*
X0667920Y0281080D03*
G01*
X0661220Y0281080D03*
G01*
X0662720Y0271980D03*
G01*
X0656020Y0271980D03*
G01*
X0698220Y0277280D03*
G01*
X0704920Y0277280D03*
G01*
X0703120Y0287580D03*
G01*
X0696420Y0287580D03*
G01*
X0678520Y0363380D03*
G01*
X0671820Y0363380D03*
D13*
G01*
X0625320Y0238580D03*
D43*
G01*
X0632620Y0238580D03*
G01*
X0632620Y0236580D03*
G01*
X0632620Y0234580D03*
G01*
X0632620Y0240480D03*
G01*
X0632620Y0242480D03*
G01*
X0618020Y0242480D03*
G01*
X0618020Y0240480D03*
G01*
X0618020Y0238580D03*
G01*
X0618020Y0236580D03*
G01*
X0618020Y0234580D03*
D18*
G01*
X0621420Y0231280D03*
G01*
X0623420Y0231280D03*
G01*
X0625320Y0231280D03*
G01*
X0627320Y0231280D03*
G01*
X0629320Y0231280D03*
G01*
X0629320Y0245880D03*
G01*
X0627320Y0245880D03*
G01*
X0625320Y0245880D03*
G01*
X0623420Y0245880D03*
G01*
X0621420Y0245880D03*
D62*
G01*
X0612020Y0239380D03*
G01*
X0606020Y0239380D03*
G01*
X0636220Y0233080D03*
G01*
X0642120Y0233080D03*
G01*
X0648420Y0229080D03*
G01*
X0654320Y0229080D03*
G01*
X0642120Y0226980D03*
G01*
X0636220Y0226980D03*
D39*
G01*
X0647620Y0224180D03*
G01*
X0647620Y0220280D03*
G01*
X0651720Y0220280D03*
G01*
X0651720Y0224180D03*
G01*
X0663520Y0226180D03*
G01*
X0663520Y0230080D03*
G01*
X0669620Y0228080D03*
G01*
X0669620Y0232080D03*
G01*
X0665720Y0243080D03*
G01*
X0665720Y0246980D03*
G01*
X0641520Y0243280D03*
G01*
X0641520Y0239380D03*
G01*
X0637320Y0239380D03*
G01*
X0637320Y0243280D03*
G01*
X0663520Y0221980D03*
G01*
X0663520Y0218080D03*
D16*
G01*
X0659620Y0220680D03*
G01*
X0655720Y0220680D03*
G01*
X0643620Y0221580D03*
G01*
X0639720Y0221580D03*
G01*
X0650120Y0234980D03*
G01*
X0654120Y0234980D03*
G01*
X0660020Y0234180D03*
G01*
X0663920Y0234180D03*
G01*
X0665520Y0239180D03*
G01*
X0669420Y0239180D03*
G01*
X0649420Y0239180D03*
G01*
X0645420Y0239180D03*
G01*
X0645420Y0243280D03*
G01*
X0649420Y0243280D03*
D24*
G01*
X0493820Y0225580D03*
G01*
X0486020Y0225580D03*
D10*
G01*
X0515320Y0224180D03*
G01*
X0515320Y0232080D03*
D35*
G01*
X0505920Y0232680D03*
G01*
X0502120Y0232680D03*
G01*
X0498420Y0232680D03*
G01*
X0498420Y0242880D03*
G01*
X0502120Y0242880D03*
G01*
X0505920Y0242880D03*
D56*
G01*
X0529920Y0238780D03*
G01*
X0529920Y0221380D03*
G01*
X0688320Y0332280D03*
G01*
X0705720Y0332280D03*
D40*
G01*
X0653720Y0301380D03*
G01*
X0653720Y0299380D03*
G01*
X0653720Y0297380D03*
G01*
X0653720Y0295380D03*
G01*
X0653720Y0293480D03*
G01*
X0653720Y0291480D03*
G01*
X0653720Y0289480D03*
G01*
X0653720Y0287580D03*
G01*
X0653720Y0285580D03*
G01*
X0653720Y0283580D03*
G01*
X0653720Y0281680D03*
G01*
X0653720Y0279680D03*
G01*
X0618220Y0279680D03*
G01*
X0618220Y0281680D03*
G01*
X0618220Y0283580D03*
G01*
X0618220Y0285580D03*
G01*
X0618220Y0287580D03*
G01*
X0618220Y0289480D03*
G01*
X0618220Y0291480D03*
G01*
X0618220Y0293480D03*
G01*
X0618220Y0295380D03*
G01*
X0618220Y0297380D03*
G01*
X0618220Y0299380D03*
G01*
X0618220Y0301380D03*
D26*
G01*
X0625120Y0308180D03*
G01*
X0627120Y0308180D03*
G01*
X0629120Y0308180D03*
G01*
X0631020Y0308180D03*
G01*
X0633020Y0308180D03*
G01*
X0635020Y0308180D03*
G01*
X0636920Y0308180D03*
G01*
X0638920Y0308180D03*
G01*
X0640920Y0308180D03*
G01*
X0642820Y0308180D03*
G01*
X0644820Y0308180D03*
G01*
X0646820Y0308180D03*
G01*
X0646820Y0272780D03*
G01*
X0644820Y0272780D03*
G01*
X0642820Y0272780D03*
G01*
X0640920Y0272780D03*
G01*
X0638920Y0272780D03*
G01*
X0636920Y0272780D03*
G01*
X0635020Y0272780D03*
G01*
X0633020Y0272780D03*
G01*
X0631020Y0272780D03*
G01*
X0629120Y0272780D03*
G01*
X0627120Y0272780D03*
G01*
X0625120Y0272780D03*
D36*
G01*
X0582220Y0235580D03*
G01*
X0582220Y0228080D03*
G01*
X0572020Y0228080D03*
G01*
X0572020Y0231880D03*
G01*
X0572020Y0235580D03*
G01*
X0598420Y0356080D03*
G01*
X0598420Y0359780D03*
G01*
X0598420Y0363580D03*
G01*
X0608620Y0363580D03*
G01*
X0608620Y0356080D03*
D38*
G01*
X0564720Y0246580D03*
G01*
X0557220Y0246580D03*
G01*
X0557220Y0236380D03*
G01*
X0561020Y0236380D03*
G01*
X0564720Y0236380D03*
D41*
G01*
X0570420Y0219480D03*
G01*
X0583420Y0219480D03*
G01*
X0570020Y0255080D03*
G01*
X0557020Y0255080D03*
G01*
X0531220Y0252480D03*
G01*
X0518320Y0252480D03*
D22*
G01*
X0667720Y0285980D03*
G01*
X0667720Y0292280D03*
D28*
G01*
X0564920Y0292680D03*
G01*
X0564920Y0283580D03*
G01*
X0529320Y0317280D03*
G01*
X0529320Y0326380D03*
G01*
X0529320Y0330280D03*
G01*
X0529320Y0339380D03*
D46*
G01*
X0529820Y0292380D03*
G01*
X0532420Y0292380D03*
G01*
X0534920Y0292380D03*
G01*
X0537520Y0292380D03*
G01*
X0540120Y0292380D03*
G01*
X0542620Y0292380D03*
G01*
X0545220Y0292380D03*
G01*
X0527320Y0292380D03*
G01*
X0527320Y0269180D03*
G01*
X0529820Y0269180D03*
G01*
X0532420Y0269180D03*
G01*
X0534920Y0269180D03*
G01*
X0537520Y0269180D03*
G01*
X0540120Y0269180D03*
G01*
X0542620Y0269180D03*
G01*
X0545220Y0269180D03*
D20*
G01*
X0524620Y0300580D03*
G01*
X0515520Y0300580D03*
G01*
X0514520Y0349580D03*
G01*
X0523620Y0349580D03*
D44*
G01*
X0684520Y0310980D03*
G01*
X0684520Y0305980D03*
G01*
X0684520Y0300980D03*
G01*
X0684520Y0295980D03*
G01*
X0705120Y0295980D03*
G01*
X0705120Y0300980D03*
G01*
X0705120Y0305980D03*
G01*
X0705120Y0310980D03*
D11*
G01*
X0660020Y0245980D03*
G01*
X0657420Y0245980D03*
G01*
X0654920Y0245980D03*
G01*
X0654920Y0238580D03*
G01*
X0657420Y0238580D03*
G01*
X0660020Y0238580D03*
D48*
G01*
X0629720Y0225380D03*
G01*
X0629720Y0219080D03*
G01*
X0621020Y0219080D03*
G01*
X0621020Y0225380D03*
D19*
G01*
X0487520Y0240880D03*
G01*
X0487520Y0251980D03*
D23*
G01*
X0669020Y0298580D03*
G01*
X0675320Y0298580D03*
G01*
X0675320Y0307280D03*
G01*
X0669020Y0307280D03*
D63*
G01*
X0670020Y0350980D03*
G01*
X0677520Y0350980D03*
G01*
X0673820Y0359180D03*
G01*
X0593420Y0362180D03*
G01*
X0586020Y0362180D03*
G01*
X0589720Y0353880D03*
D49*
G01*
X0634920Y0353280D03*
G01*
X0634920Y0358280D03*
G01*
X0634920Y0348280D03*
G01*
X0651220Y0348280D03*
G01*
X0651220Y0353280D03*
G01*
X0651220Y0358280D03*
D58*
G01*
X0643120Y0346780D03*
D34*
G01*
X0643120Y0361480D03*
D42*
G01*
X0632420Y0337380D03*
G01*
X0632420Y0335380D03*
G01*
X0632420Y0333480D03*
G01*
X0632420Y0331480D03*
G01*
X0632420Y0329480D03*
G01*
X0632420Y0327480D03*
G01*
X0616720Y0327480D03*
G01*
X0616720Y0329480D03*
G01*
X0616720Y0331480D03*
G01*
X0616720Y0333480D03*
G01*
X0616720Y0335380D03*
G01*
X0616720Y0337380D03*
D21*
G01*
X0619620Y0340280D03*
G01*
X0621620Y0340280D03*
G01*
X0623620Y0340280D03*
G01*
X0625520Y0340280D03*
G01*
X0627520Y0340280D03*
G01*
X0629520Y0340280D03*
G01*
X0629520Y0324580D03*
G01*
X0627520Y0324580D03*
G01*
X0625520Y0324580D03*
G01*
X0623620Y0324580D03*
G01*
X0621620Y0324580D03*
G01*
X0619620Y0324580D03*
D15*
G01*
X0596420Y0332080D03*
G01*
X0596420Y0334180D03*
G01*
X0596420Y0336380D03*
G01*
X0596420Y0338580D03*
G01*
X0596420Y0340680D03*
G01*
X0596420Y0342880D03*
G01*
X0596420Y0345080D03*
G01*
X0578320Y0345080D03*
G01*
X0578320Y0342880D03*
G01*
X0578320Y0340680D03*
G01*
X0578320Y0338580D03*
G01*
X0578320Y0336380D03*
G01*
X0578320Y0334180D03*
G01*
X0578320Y0332080D03*
D45*
G01*
X0580820Y0329480D03*
G01*
X0583020Y0329480D03*
G01*
X0585220Y0329480D03*
G01*
X0587320Y0329480D03*
G01*
X0589520Y0329480D03*
G01*
X0591720Y0329480D03*
G01*
X0593820Y0329480D03*
G01*
X0593820Y0347580D03*
G01*
X0591720Y0347580D03*
G01*
X0589520Y0347580D03*
G01*
X0587320Y0347580D03*
G01*
X0585220Y0347580D03*
G01*
X0583020Y0347580D03*
G01*
X0580820Y0347580D03*
D59*
G01*
X0690820Y0356880D03*
D53*
G01*
X0705820Y0354380D03*
G01*
X0705820Y0349380D03*
G01*
X0705820Y0359380D03*
G01*
X0705820Y0364380D03*
D64*
G01*
X0506320Y0223980D03*
G01*
X0498720Y0223980D03*
X0454980Y0379980D02*
D37*
G01*
X0539280Y0612420D03*
G01*
X0532580Y0612420D03*
G01*
X0513480Y0587520D03*
G01*
X0506780Y0587520D03*
G01*
X0508480Y0576120D03*
G01*
X0515180Y0576120D03*
G01*
X0490380Y0577520D03*
G01*
X0483680Y0577520D03*
G01*
X0469180Y0552520D03*
G01*
X0462480Y0552520D03*
G01*
X0482680Y0535820D03*
G01*
X0489280Y0535820D03*
G01*
X0494480Y0535620D03*
G01*
X0501180Y0535620D03*
G01*
X0499480Y0526320D03*
G01*
X0492780Y0526320D03*
G01*
X0532580Y0497420D03*
G01*
X0539180Y0497420D03*
G01*
X0533280Y0481820D03*
G01*
X0526580Y0481820D03*
G01*
X0511880Y0460820D03*
G01*
X0505180Y0460820D03*
G01*
X0498680Y0463120D03*
G01*
X0491980Y0463120D03*
G01*
X0467180Y0440520D03*
G01*
X0460480Y0440520D03*
G01*
X0533480Y0441720D03*
G01*
X0540180Y0441720D03*
G01*
X0551580Y0446620D03*
G01*
X0558280Y0446620D03*
G01*
X0567580Y0428520D03*
G01*
X0574280Y0428520D03*
G01*
X0572080Y0465520D03*
G01*
X0565380Y0465520D03*
G01*
X0565380Y0473620D03*
G01*
X0572080Y0473620D03*
G01*
X0564480Y0509220D03*
G01*
X0557680Y0509220D03*
G01*
X0592980Y0537120D03*
G01*
X0599680Y0537120D03*
G01*
X0597280Y0516920D03*
G01*
X0603980Y0516920D03*
G01*
X0507580Y0633620D03*
G01*
X0500880Y0633620D03*
D14*
G01*
X0506180Y0627020D03*
G01*
X0506180Y0620320D03*
G01*
X0507180Y0612920D03*
G01*
X0507180Y0606220D03*
G01*
X0507380Y0601120D03*
G01*
X0507380Y0594420D03*
G01*
X0497880Y0595020D03*
G01*
X0497080Y0589520D03*
G01*
X0497080Y0582820D03*
G01*
X0501580Y0577520D03*
G01*
X0501580Y0570820D03*
G01*
X0501580Y0565520D03*
G01*
X0501580Y0558820D03*
G01*
X0504780Y0553720D03*
G01*
X0504780Y0547020D03*
G01*
X0512880Y0541920D03*
G01*
X0512880Y0535220D03*
G01*
X0512080Y0529520D03*
G01*
X0512080Y0522820D03*
G01*
X0515180Y0513720D03*
G01*
X0515180Y0507020D03*
G01*
X0507180Y0507820D03*
G01*
X0507180Y0501120D03*
G01*
X0498280Y0501120D03*
G01*
X0498280Y0507820D03*
G01*
X0498680Y0513020D03*
G01*
X0498680Y0519720D03*
G01*
X0520180Y0521620D03*
G01*
X0520180Y0528320D03*
G01*
X0538980Y0531220D03*
G01*
X0538980Y0524620D03*
G01*
X0558480Y0540320D03*
G01*
X0558480Y0547020D03*
G01*
X0561880Y0529520D03*
G01*
X0561880Y0522820D03*
G01*
X0571080Y0517520D03*
G01*
X0571080Y0510820D03*
G01*
X0580780Y0501320D03*
G01*
X0580780Y0494620D03*
G01*
X0599280Y0487320D03*
G01*
X0599280Y0480720D03*
G01*
X0607380Y0480720D03*
G01*
X0607380Y0487320D03*
G01*
X0590580Y0516320D03*
G01*
X0590580Y0523020D03*
G01*
X0576080Y0533220D03*
G01*
X0576080Y0539920D03*
G01*
X0556180Y0501920D03*
G01*
X0556180Y0495220D03*
G01*
X0552780Y0485820D03*
G01*
X0552780Y0479120D03*
G01*
X0578780Y0472620D03*
G01*
X0578780Y0465920D03*
G01*
X0580180Y0444220D03*
G01*
X0580180Y0437520D03*
G01*
X0559680Y0420220D03*
G01*
X0559680Y0413520D03*
G01*
X0520880Y0454720D03*
G01*
X0520880Y0461420D03*
G01*
X0512080Y0447820D03*
G01*
X0512080Y0441120D03*
G01*
X0502180Y0441120D03*
G01*
X0502180Y0447820D03*
G01*
X0491380Y0447820D03*
G01*
X0491380Y0441120D03*
G01*
X0483080Y0439720D03*
G01*
X0483080Y0446420D03*
G01*
X0459680Y0420420D03*
G01*
X0459680Y0413720D03*
G01*
X0468180Y0498420D03*
G01*
X0468180Y0505120D03*
G01*
X0460080Y0505720D03*
G01*
X0460080Y0499020D03*
G01*
X0472280Y0525120D03*
G01*
X0472280Y0531820D03*
G01*
X0467980Y0538920D03*
G01*
X0467980Y0545620D03*
G01*
X0459880Y0545620D03*
G01*
X0459880Y0538920D03*
G01*
X0476080Y0539320D03*
G01*
X0476080Y0546020D03*
G01*
X0483880Y0563920D03*
G01*
X0483880Y0570620D03*
G01*
X0493380Y0570820D03*
G01*
X0493380Y0564120D03*
G01*
X0497880Y0601720D03*
G01*
X0534480Y0599220D03*
G01*
X0534480Y0605820D03*
G01*
X0542580Y0605820D03*
G01*
X0542580Y0599220D03*
G01*
X0541380Y0592920D03*
G01*
X0541380Y0586220D03*
G01*
X0550480Y0587720D03*
G01*
X0550480Y0581020D03*
G01*
X0545180Y0623220D03*
G01*
X0545180Y0629920D03*
G01*
X0534880Y0628120D03*
G01*
X0534880Y0621420D03*
G01*
X0459080Y0603520D03*
G01*
X0459080Y0596820D03*
D13*
G01*
X0583880Y0550320D03*
D18*
G01*
X0583880Y0557620D03*
G01*
X0585880Y0557620D03*
G01*
X0587880Y0557620D03*
G01*
X0581980Y0557620D03*
G01*
X0579980Y0557620D03*
G01*
X0579980Y0543020D03*
G01*
X0581980Y0543020D03*
G01*
X0583880Y0543020D03*
G01*
X0585880Y0543020D03*
G01*
X0587880Y0543020D03*
D43*
G01*
X0591180Y0546420D03*
G01*
X0591180Y0548420D03*
G01*
X0591180Y0550320D03*
G01*
X0591180Y0552320D03*
G01*
X0591180Y0554320D03*
G01*
X0576580Y0554320D03*
G01*
X0576580Y0552320D03*
G01*
X0576580Y0550320D03*
G01*
X0576580Y0548420D03*
G01*
X0576580Y0546420D03*
D78*
G01*
X0583080Y0537020D03*
G01*
X0583080Y0531020D03*
G01*
X0589380Y0561220D03*
G01*
X0589380Y0567120D03*
G01*
X0593380Y0573420D03*
G01*
X0593380Y0579320D03*
G01*
X0595480Y0567120D03*
G01*
X0595480Y0561220D03*
D16*
G01*
X0598280Y0572620D03*
G01*
X0602180Y0572620D03*
G01*
X0602180Y0576720D03*
G01*
X0598280Y0576720D03*
G01*
X0596280Y0588520D03*
G01*
X0592380Y0588520D03*
G01*
X0594380Y0594620D03*
G01*
X0590380Y0594620D03*
G01*
X0579380Y0590720D03*
G01*
X0575480Y0590720D03*
G01*
X0579180Y0566520D03*
G01*
X0583080Y0566520D03*
G01*
X0583080Y0562320D03*
G01*
X0579180Y0562320D03*
G01*
X0600480Y0588520D03*
G01*
X0604380Y0588520D03*
D39*
G01*
X0601780Y0584620D03*
G01*
X0601780Y0580720D03*
G01*
X0600880Y0568620D03*
G01*
X0600880Y0564720D03*
G01*
X0587480Y0575120D03*
G01*
X0587480Y0579120D03*
G01*
X0588280Y0585020D03*
G01*
X0588280Y0588920D03*
G01*
X0583280Y0590520D03*
G01*
X0583280Y0594420D03*
G01*
X0583280Y0574420D03*
G01*
X0583280Y0570420D03*
G01*
X0579180Y0570420D03*
G01*
X0579180Y0574420D03*
D10*
G01*
X0596880Y0418820D03*
G01*
X0596880Y0411020D03*
D24*
G01*
X0598280Y0440320D03*
G01*
X0590380Y0440320D03*
D86*
G01*
X0589780Y0430920D03*
G01*
X0589780Y0427120D03*
G01*
X0589780Y0423420D03*
G01*
X0579580Y0423420D03*
G01*
X0579580Y0427120D03*
G01*
X0579580Y0430920D03*
D56*
G01*
X0583680Y0454920D03*
G01*
X0601080Y0454920D03*
G01*
X0490180Y0613320D03*
G01*
X0490180Y0630720D03*
D26*
G01*
X0521080Y0578720D03*
G01*
X0523080Y0578720D03*
G01*
X0525080Y0578720D03*
G01*
X0527080Y0578720D03*
G01*
X0528980Y0578720D03*
G01*
X0530980Y0578720D03*
G01*
X0532980Y0578720D03*
G01*
X0534880Y0578720D03*
G01*
X0536880Y0578720D03*
G01*
X0538880Y0578720D03*
G01*
X0540780Y0578720D03*
G01*
X0542780Y0578720D03*
G01*
X0542780Y0543220D03*
G01*
X0540780Y0543220D03*
G01*
X0538880Y0543220D03*
G01*
X0536880Y0543220D03*
G01*
X0534880Y0543220D03*
G01*
X0532980Y0543220D03*
G01*
X0530980Y0543220D03*
G01*
X0528980Y0543220D03*
G01*
X0527080Y0543220D03*
G01*
X0525080Y0543220D03*
G01*
X0523080Y0543220D03*
G01*
X0521080Y0543220D03*
D40*
G01*
X0514280Y0550120D03*
G01*
X0514280Y0552120D03*
G01*
X0514280Y0554120D03*
G01*
X0514280Y0556020D03*
G01*
X0514280Y0558020D03*
G01*
X0514280Y0560020D03*
G01*
X0514280Y0561920D03*
G01*
X0514280Y0563920D03*
G01*
X0514280Y0565920D03*
G01*
X0514280Y0567820D03*
G01*
X0514280Y0569820D03*
G01*
X0514280Y0571820D03*
G01*
X0549680Y0571820D03*
G01*
X0549680Y0569820D03*
G01*
X0549680Y0567820D03*
G01*
X0549680Y0565920D03*
G01*
X0549680Y0563920D03*
G01*
X0549680Y0561920D03*
G01*
X0549680Y0560020D03*
G01*
X0549680Y0558020D03*
G01*
X0549680Y0556020D03*
G01*
X0549680Y0554120D03*
G01*
X0549680Y0552120D03*
G01*
X0549680Y0550120D03*
D38*
G01*
X0586880Y0507220D03*
G01*
X0594380Y0507220D03*
G01*
X0594380Y0497020D03*
G01*
X0590580Y0497020D03*
G01*
X0586880Y0497020D03*
G01*
X0466380Y0523420D03*
G01*
X0462680Y0523420D03*
G01*
X0458880Y0523420D03*
G01*
X0458880Y0533620D03*
G01*
X0466380Y0533620D03*
D36*
G01*
X0575880Y0489720D03*
G01*
X0575880Y0482220D03*
G01*
X0586080Y0482220D03*
G01*
X0586080Y0486020D03*
G01*
X0586080Y0489720D03*
D87*
G01*
X0602980Y0495420D03*
G01*
X0602980Y0508420D03*
G01*
X0567380Y0495020D03*
G01*
X0567380Y0482020D03*
G01*
X0569980Y0456220D03*
G01*
X0569980Y0443320D03*
D85*
G01*
X0536480Y0592720D03*
G01*
X0530180Y0592720D03*
D20*
G01*
X0529780Y0489920D03*
G01*
X0538880Y0489920D03*
G01*
X0505180Y0454320D03*
G01*
X0496080Y0454320D03*
G01*
X0492180Y0454320D03*
G01*
X0483080Y0454320D03*
D82*
G01*
X0530080Y0454820D03*
G01*
X0530080Y0457420D03*
G01*
X0530080Y0459920D03*
G01*
X0530080Y0462520D03*
G01*
X0530080Y0465120D03*
G01*
X0530080Y0467620D03*
G01*
X0530080Y0470220D03*
G01*
X0530080Y0452320D03*
G01*
X0553280Y0452320D03*
G01*
X0553280Y0454820D03*
G01*
X0553280Y0457420D03*
G01*
X0553280Y0459920D03*
G01*
X0553280Y0462520D03*
G01*
X0553280Y0465120D03*
G01*
X0553280Y0467620D03*
G01*
X0553280Y0470220D03*
D28*
G01*
X0521880Y0449620D03*
G01*
X0521880Y0440520D03*
G01*
X0472880Y0439520D03*
G01*
X0472880Y0448620D03*
D89*
G01*
X0511480Y0609520D03*
G01*
X0516480Y0609520D03*
G01*
X0521480Y0609520D03*
G01*
X0526480Y0609520D03*
G01*
X0526480Y0630120D03*
G01*
X0521480Y0630120D03*
G01*
X0516480Y0630120D03*
G01*
X0511480Y0630120D03*
D83*
G01*
X0576480Y0585020D03*
G01*
X0576480Y0582420D03*
G01*
X0576480Y0579920D03*
G01*
X0583880Y0579920D03*
G01*
X0583880Y0582420D03*
G01*
X0583880Y0585020D03*
D23*
G01*
X0597080Y0554720D03*
G01*
X0603380Y0554720D03*
G01*
X0603380Y0546020D03*
G01*
X0597080Y0546020D03*
D81*
G01*
X0581580Y0412520D03*
G01*
X0570480Y0412520D03*
D48*
G01*
X0523880Y0594020D03*
G01*
X0523880Y0600320D03*
G01*
X0515180Y0600320D03*
G01*
X0515180Y0594020D03*
D80*
G01*
X0471480Y0595020D03*
G01*
X0471480Y0602520D03*
G01*
X0463280Y0598820D03*
G01*
X0460280Y0518420D03*
G01*
X0460280Y0511020D03*
G01*
X0468580Y0514720D03*
D34*
G01*
X0469180Y0559920D03*
G01*
X0464180Y0559920D03*
G01*
X0474180Y0559920D03*
G01*
X0474180Y0576220D03*
G01*
X0469180Y0576220D03*
G01*
X0464180Y0576220D03*
D84*
G01*
X0475680Y0568120D03*
D49*
G01*
X0460980Y0568120D03*
D21*
G01*
X0485080Y0557420D03*
G01*
X0487080Y0557420D03*
G01*
X0488980Y0557420D03*
G01*
X0490980Y0557420D03*
G01*
X0492980Y0557420D03*
G01*
X0494980Y0557420D03*
G01*
X0494980Y0541720D03*
G01*
X0492980Y0541720D03*
G01*
X0490980Y0541720D03*
G01*
X0488980Y0541720D03*
G01*
X0487080Y0541720D03*
G01*
X0485080Y0541720D03*
D42*
G01*
X0482180Y0544620D03*
G01*
X0482180Y0546620D03*
G01*
X0482180Y0548620D03*
G01*
X0482180Y0550520D03*
G01*
X0482180Y0552520D03*
G01*
X0482180Y0554520D03*
G01*
X0497880Y0554520D03*
G01*
X0497880Y0552520D03*
G01*
X0497880Y0550520D03*
G01*
X0497880Y0548620D03*
G01*
X0497880Y0546620D03*
G01*
X0497880Y0544620D03*
D45*
G01*
X0490380Y0521420D03*
G01*
X0488280Y0521420D03*
G01*
X0486080Y0521420D03*
G01*
X0483880Y0521420D03*
G01*
X0481780Y0521420D03*
G01*
X0479580Y0521420D03*
G01*
X0477380Y0521420D03*
G01*
X0477380Y0503320D03*
G01*
X0479580Y0503320D03*
G01*
X0481780Y0503320D03*
G01*
X0483880Y0503320D03*
G01*
X0486080Y0503320D03*
G01*
X0488280Y0503320D03*
G01*
X0490380Y0503320D03*
D15*
G01*
X0492980Y0505820D03*
G01*
X0492980Y0508020D03*
G01*
X0492980Y0510220D03*
G01*
X0492980Y0512320D03*
G01*
X0492980Y0514520D03*
G01*
X0492980Y0516720D03*
G01*
X0492980Y0518820D03*
G01*
X0474880Y0518820D03*
G01*
X0474880Y0516720D03*
G01*
X0474880Y0514520D03*
G01*
X0474880Y0512320D03*
G01*
X0474880Y0510220D03*
G01*
X0474880Y0508020D03*
G01*
X0474880Y0505820D03*
D88*
G01*
X0465580Y0615820D03*
D64*
G01*
X0468080Y0630820D03*
G01*
X0473080Y0630820D03*
G01*
X0463080Y0630820D03*
G01*
X0458080Y0630820D03*
D53*
G01*
X0598480Y0431320D03*
G01*
X0598480Y0423720D03*
M02*
