%
T01C0.012000
X27909Y37407
X28480Y36463
X30193Y42368
X29760Y38687
X29268Y40006
X29543Y40006
X30016Y41226
X29090Y39671
X28677Y35754
X30803Y35301
X30803Y36620
X31039Y37112
X30350Y42585
X30527Y42388
X31000Y43214
X28047Y42919
X27732Y42919
X27083Y39809
X31059Y36187
X27437Y38254
X27437Y38549
X27437Y38844
X27437Y39120
X27437Y39415
X27437Y39711
X27437Y40025
X27437Y40321
X27437Y40616
X27437Y37978
X27437Y37683
X27437Y37368
X27437Y37033
X27437Y36738
X27437Y35793
X27732Y35754
X28047Y35754
X30882Y35754
X31177Y35754
X31512Y35754
X28362Y35754
X27437Y36108
X27437Y36423
X27437Y42644
X27437Y42348
X27437Y40911
X27437Y41187
X27437Y41482
X27437Y41777
X27437Y42053
X28027Y27978
X28953Y26305
X28047Y26955
X23756Y34081
X27437Y42919
X27437Y43214
X27437Y43510
X28047Y44100
X27752Y44100
X27437Y43805
X27437Y44100
X28539Y37840
X30271Y35754
X28480Y40951
X27083Y38254
X28047Y43805
X27083Y41620
X28047Y43214
X28047Y43510
X20862Y43588
X20803Y42191
X23146Y46659
X24327Y43667
X23027Y28274
X25350Y29376
X28775Y30596
X31512Y38234
X31512Y38529
X31512Y38825
X31512Y39100
X31512Y39396
X31512Y39691
X31512Y40006
X31512Y40301
X31512Y40596
X31512Y37959
X31512Y37663
X31512Y37348
X31512Y37014
X31512Y36718
X31512Y36088
X31512Y36403
X31512Y42624
X31512Y42329
X31512Y40892
X31512Y41167
X31512Y41463
X31512Y41758
X31512Y42033
X31512Y42900
X31512Y43195
X31512Y43490
X31512Y43785
X31295Y44002
X29681Y41226
X31000Y44100
X31000Y43805
X30764Y42250
X31039Y42250
X31000Y42919
X31000Y43510
X31020Y38963
X30724Y38963
X24484Y45872
X24996Y41128
X26531Y33411
X23224Y41266
X22811Y35025
X24819Y29494
X24622Y27821
X22338Y30163
X23795Y26777
X24287Y31541
X25705Y30498
X21531Y38963
X28657Y31463
X31512Y35301
X31216Y34947
X29878Y31640
X26531Y32998
X27122Y33293
X27870Y33254
X27516Y33254
X28047Y32545
X25567Y42427
X31492Y30557
X31177Y32171
X30901Y30006
X30901Y30557
X31492Y30006
X31492Y29376
X31492Y28726
X31492Y28096
X31472Y32644
X29543Y33195
X30901Y27525
X26905Y25577
X30901Y29376
X30724Y25754
X28047Y27703
X31453Y24809
X31020Y24809
X30606Y23667
X31453Y23667
X31020Y24238
X31453Y24238
X29779Y23667
X26945Y25025
X27201Y23648
X28342Y23648
X28894Y25419
X28834Y29415
X31472Y32171
X31453Y33136
X31216Y34435
X31157Y35301
X27083Y36216
X27083Y36837
X27083Y37506
X27083Y38963
X27083Y40675
X27083Y42545
X27083Y43549
X27083Y44553
X27083Y45557
X27083Y46443
X22575Y34711
X20705Y45242
X20842Y46699
X23362Y42762
X20350Y46699
X21630Y46679
X22378Y46679
X24819Y46758
X25665Y46561
X26197Y46561
X25783Y45616
X23874Y46640
X18500Y32191
X18500Y31561
X16315Y26463
X16334Y23667
X26453Y23648
X24425Y26758
X22712Y26679
X25232Y23628
X23972Y23648
X22693Y23648
X21472Y23648
X20232Y23628
X19012Y23628
X17732Y23628
X18677Y29435
X19071Y29730
X16866Y27860
X21334Y25774
X24149Y29514
X26275Y26817
X30567Y35754
X20842Y42781
X22004Y41325
X30449Y35301
X28539Y38096
X25409Y43608
X25390Y44671
X19425Y39120
X18401Y40951
X17890Y33116
X20646Y38510
X17712Y37506
X20705Y35340
X20646Y33805
X20173Y39809
X20094Y40793
X19917Y41679
X16256Y38923
X16287Y40557
X16807Y35774
X16453Y34455
X16886Y46640
X21472Y41325
X17732Y36581
X17614Y34848
X24937Y40124
X24484Y38707
X24346Y40439
X24012Y35025
X28618Y38392
X28874Y38392
X29130Y38392
X16275Y41423
X17319Y46640
X19012Y43018
X19031Y42053
X27673Y29140
X28027Y29140
X29090Y25833
X29957Y30419
X28382Y30596
X16886Y33214
X23047Y31837
X22850Y40222
X16649Y39514
X21197Y39829
X20646Y36876
X17811Y38529
X18520Y39041
X18657Y37270
X18756Y36108
X17831Y37998
X18697Y35616
X20547Y36167
X19209Y39592
X24720Y38510
X25941Y35439
X21571Y42092
X23027Y39100
X23126Y36088
X26590Y34868
X21551Y45203
X23401Y39455
X23244Y36738
X22417Y45203
X26246Y35951
X22791Y39415
X20823Y44297
X23077Y36463
X26354Y35124
X23972Y35360
X26590Y34317
X23756Y38195
X25921Y31974
X22575Y38943
X22850Y45065
X26433Y31344
X22437Y34218
X26925Y29199
X28146Y25340
X29405Y24002
X29169Y24474
X29405Y24317
X29169Y24159
X29169Y29376
X25232Y30636
X22004Y45380
X25114Y42447
X22831Y35714
X27496Y33707
X26039Y34474
X24799Y37033
X26295Y32073
X24917Y33254
X30055Y31935
X28608Y31846
X21157Y30104
X20331Y28825
X23086Y30360
X22201Y28726
X23401Y30340
X22043Y28234
X25980Y36896
X25035Y37506
X24445Y37762
X22476Y38648
X22476Y38333
X25134Y38175
X25803Y44947
X25606Y43313
X21551Y30045
X21334Y29514
X23716Y30340
X22023Y29474
X24012Y30281
X22968Y28608
X22890Y30085
X21334Y26974
X24523Y39159
X22653Y33923
X23913Y33155
X24878Y27604
X22988Y32270
X19740Y30203
X20842Y30518
X22752Y30990
X22811Y34494
X24012Y38451
X26728Y28943
X26807Y26246
X27555Y26305
X26768Y27545
X24740Y39868
X21748Y37585
X24740Y39455
X21827Y34848
X19209Y35577
X20882Y37289
X24149Y36876
X26138Y36246
X29149Y35144
X30134Y35104
X22594Y37821
X17732Y34022
X19957Y35203
X20764Y34947
X16453Y46581
X20390Y43510
X20764Y41837
X19897Y41167
X18913Y41344
X25606Y27329
X25134Y26915
X16905Y36955
X18510Y36984
X29720Y29927
X32407Y54337
X31463Y53766
X37368Y52053
X33687Y52486
X35006Y52978
X35006Y52703
X36226Y52230
X34671Y53156
X30754Y53569
X30301Y51443
X31620Y51443
X32112Y51207
X37585Y51896
X37388Y51719
X38214Y51246
X37919Y54199
X37919Y54514
X34809Y55163
X31187Y51187
X33254Y54809
X33549Y54809
X33844Y54809
X34120Y54809
X34415Y54809
X34711Y54809
X35025Y54809
X35321Y54809
X35616Y54809
X32978Y54809
X32683Y54809
X32368Y54809
X32033Y54809
X31738Y54809
X30793Y54809
X30754Y54514
X30754Y54199
X30754Y51364
X30754Y51069
X30754Y50734
X30754Y53884
X31108Y54809
X31423Y54809
X37644Y54809
X37348Y54809
X35911Y54809
X36187Y54809
X36482Y54809
X36777Y54809
X37053Y54809
X22978Y54219
X21305Y53293
X21955Y54199
X29081Y58490
X37919Y54809
X38214Y54809
X38510Y54809
X39100Y54199
X39100Y54494
X38805Y54809
X39100Y54809
X32840Y53707
X30754Y51975
X35951Y53766
X33254Y55163
X38805Y54199
X36620Y55163
X38214Y54199
X38510Y54199
X38588Y61384
X37191Y61443
X41659Y59100
X38667Y57919
X23274Y59219
X24376Y56896
X25596Y53471
X33234Y50734
X33529Y50734
X33825Y50734
X34100Y50734
X34396Y50734
X34691Y50734
X35006Y50734
X35301Y50734
X35596Y50734
X32959Y50734
X32663Y50734
X32348Y50734
X32014Y50734
X31718Y50734
X31088Y50734
X31403Y50734
X37624Y50734
X37329Y50734
X35892Y50734
X36167Y50734
X36463Y50734
X36758Y50734
X37033Y50734
X37900Y50734
X38195Y50734
X38490Y50734
X38785Y50734
X39002Y50951
X36226Y52565
X39100Y51246
X38805Y51246
X37250Y51482
X37250Y51207
X37919Y51246
X38510Y51246
X33963Y51226
X33963Y51522
X40872Y57762
X36128Y57250
X28411Y55715
X36266Y59022
X30025Y59435
X24494Y57427
X22821Y57624
X25163Y59908
X21777Y58451
X26541Y57959
X25498Y56541
X33963Y60715
X26463Y53589
X30301Y50734
X29947Y51030
X26640Y52368
X27998Y55715
X28293Y55124
X28254Y54376
X28254Y54730
X27545Y54199
X37427Y56679
X25557Y50754
X27171Y51069
X25006Y51345
X25557Y51345
X25006Y50754
X24376Y50754
X23726Y50754
X23096Y50754
X27644Y50774
X28195Y52703
X22525Y51345
X20577Y55341
X24376Y51345
X20754Y51522
X22703Y54199
X19809Y50793
X19809Y51226
X18667Y51640
X18667Y50793
X19238Y51226
X19238Y50793
X18667Y52467
X20025Y55301
X18648Y55045
X18648Y53904
X20419Y53352
X24415Y53412
X27171Y50774
X28136Y50793
X29435Y51030
X30301Y51089
X31216Y55163
X31837Y55163
X32506Y55163
X33963Y55163
X35675Y55163
X37545Y55163
X38549Y55163
X39553Y55163
X40557Y55163
X41443Y55163
X29711Y59671
X40242Y61541
X41699Y61404
X37762Y58884
X41699Y61896
X41679Y60616
X41679Y59868
X41758Y57427
X41561Y56581
X41561Y56049
X40616Y56463
X41640Y58372
X27191Y63746
X26561Y63746
X21463Y65931
X18667Y65912
X18648Y55793
X21758Y57821
X21679Y59534
X18628Y57014
X18648Y58274
X18648Y59553
X18648Y60774
X18628Y62014
X18628Y63234
X18628Y64514
X24435Y63569
X24730Y63175
X22860Y65380
X20774Y60912
X24514Y58097
X21817Y55971
X30754Y51679
X37781Y61404
X36325Y60242
X30301Y51797
X33096Y53707
X38608Y56837
X39671Y56856
X34120Y62821
X35951Y63845
X28116Y64356
X33510Y61600
X32506Y64534
X30340Y61541
X28805Y61600
X34809Y62073
X35793Y62152
X36679Y62329
X33923Y65990
X35557Y65959
X30774Y65439
X29455Y65793
X41640Y65360
X36325Y60774
X31581Y64514
X29848Y64632
X35124Y57309
X33707Y57762
X35439Y57900
X30025Y58234
X33392Y53628
X33392Y53372
X33392Y53116
X36423Y65971
X41640Y64927
X38018Y63234
X37053Y63215
X24140Y54573
X24140Y54219
X20833Y53156
X25419Y52289
X25596Y53864
X28214Y65360
X26837Y59199
X35222Y59396
X34514Y65597
X34829Y61049
X31876Y61600
X33529Y64435
X34041Y63726
X32270Y63589
X31108Y63490
X32998Y64415
X30616Y63549
X31167Y61699
X34592Y63037
X33510Y57526
X30439Y56305
X37092Y60675
X34100Y59219
X31088Y59120
X29868Y55656
X40203Y60695
X34455Y58845
X31738Y59002
X40203Y59829
X30951Y56000
X34415Y59455
X39297Y61423
X31463Y59169
X30124Y55892
X30360Y58274
X29317Y55656
X33195Y58490
X26974Y56325
X33943Y59671
X40065Y59396
X26344Y55813
X29218Y59809
X24199Y55321
X20340Y54100
X19002Y52841
X19474Y53077
X19317Y52841
X19159Y53077
X24376Y53077
X25636Y57014
X40380Y60242
X37447Y57132
X30714Y59415
X28707Y54750
X29474Y56207
X32033Y57447
X27073Y55951
X28254Y57329
X26935Y52191
X26846Y53638
X25104Y61089
X23825Y61915
X25360Y59160
X23726Y60045
X25340Y58845
X23234Y60203
X31896Y56266
X32506Y57211
X32762Y57801
X33648Y59770
X33333Y59770
X33175Y57112
X39947Y56443
X38313Y56640
X25045Y60695
X24514Y60912
X25340Y58530
X24474Y60223
X25281Y58234
X23608Y59278
X25085Y59356
X21974Y60912
X34159Y57723
X28923Y59593
X28155Y58333
X22604Y57368
X27270Y59258
X25203Y62506
X25518Y61404
X25990Y59494
X29494Y59435
X33451Y58234
X23943Y55518
X21246Y55439
X21305Y54691
X22545Y55478
X34868Y57506
X32585Y60498
X34455Y57506
X29848Y60419
X30577Y63037
X32289Y61364
X31876Y58097
X31246Y56108
X30144Y53097
X30104Y52112
X32821Y59652
X29022Y64514
X30203Y62289
X29947Y61482
X41581Y65793
X38510Y61856
X36837Y61482
X36167Y62349
X36344Y63333
X22329Y56640
X21915Y57112
X31955Y65341
X31984Y63736
X24927Y52526
X61905Y24839
X60961Y24268
X66866Y22555
X63185Y22988
X64504Y23480
X64504Y23205
X65724Y22732
X64169Y23658
X60252Y24071
X59799Y21945
X61118Y21945
X61610Y21709
X67083Y22398
X66886Y22221
X67712Y21748
X67417Y24701
X67417Y25016
X64307Y25665
X60685Y21689
X62752Y25311
X63047Y25311
X63342Y25311
X63618Y25311
X63913Y25311
X64209Y25311
X64523Y25311
X64819Y25311
X65114Y25311
X62476Y25311
X62181Y25311
X61866Y25311
X61531Y25311
X61236Y25311
X60291Y25311
X60252Y25016
X60252Y24701
X60252Y21866
X60252Y21571
X60252Y21236
X60252Y24386
X60606Y25311
X60921Y25311
X67142Y25311
X66846Y25311
X65409Y25311
X65685Y25311
X65980Y25311
X66275Y25311
X66551Y25311
X52476Y24721
X50803Y23795
X51453Y24701
X58579Y28992
X67417Y25311
X67712Y25311
X68008Y25311
X68598Y24701
X68598Y24996
X68303Y25311
X68598Y25311
X62338Y24209
X60252Y22477
X65449Y24268
X62752Y25665
X68303Y24701
X66118Y25665
X67712Y24701
X68008Y24701
X68086Y31886
X66689Y31945
X71157Y29602
X68165Y28421
X52772Y29721
X53874Y27398
X55094Y23973
X62732Y21236
X63027Y21236
X63323Y21236
X63598Y21236
X63894Y21236
X64189Y21236
X64504Y21236
X64799Y21236
X65094Y21236
X62457Y21236
X62161Y21236
X61846Y21236
X61512Y21236
X61216Y21236
X60586Y21236
X60901Y21236
X67122Y21236
X66827Y21236
X65390Y21236
X65665Y21236
X65961Y21236
X66256Y21236
X66531Y21236
X67398Y21236
X67693Y21236
X67988Y21236
X68283Y21236
X68500Y21453
X65724Y23067
X68598Y21748
X68303Y21748
X66748Y21984
X66748Y21709
X67417Y21748
X68008Y21748
X63461Y21728
X63461Y22024
X70370Y28264
X65626Y27752
X57909Y26217
X65764Y29524
X59523Y29937
X53992Y27929
X52319Y28126
X54661Y30410
X51275Y28953
X56039Y28461
X54996Y27043
X63461Y31217
X55961Y24091
X59799Y21236
X59445Y21532
X56138Y22870
X57496Y26217
X57791Y25626
X57752Y24878
X57752Y25232
X57043Y24701
X66925Y27181
X55055Y21256
X56669Y21571
X54504Y21847
X55055Y21847
X54504Y21256
X53874Y21256
X53224Y21256
X52594Y21256
X57142Y21276
X57693Y23205
X52023Y21847
X50075Y25843
X53874Y21847
X50252Y22024
X52201Y24701
X49307Y21295
X49307Y21728
X48165Y22142
X48165Y21295
X48736Y21728
X48736Y21295
X48165Y22969
X49523Y25803
X48146Y25547
X48146Y24406
X49917Y23854
X53913Y23914
X56669Y21276
X57634Y21295
X58933Y21532
X59799Y21591
X60714Y25665
X61335Y25665
X62004Y25665
X63461Y25665
X65173Y25665
X67043Y25665
X68047Y25665
X69051Y25665
X70055Y25665
X70941Y25665
X59209Y30173
X69740Y32043
X71197Y31906
X67260Y29386
X71197Y32398
X71177Y31118
X71177Y30370
X71256Y27929
X71059Y27083
X71059Y26551
X70114Y26965
X71138Y28874
X56689Y34248
X56059Y34248
X50961Y36433
X48165Y36414
X48146Y26295
X51256Y28323
X51177Y30036
X48126Y27516
X48146Y28776
X48146Y30055
X48146Y31276
X48126Y32516
X48126Y33736
X48126Y35016
X53933Y34071
X54228Y33677
X52358Y35882
X50272Y31414
X54012Y28599
X51315Y26473
X60252Y22181
X67279Y31906
X65823Y30744
X59799Y22299
X62594Y24209
X68106Y27339
X69169Y27358
X63618Y33323
X65449Y34347
X57614Y34858
X63008Y32102
X62004Y35036
X59838Y32043
X58303Y32102
X64307Y32575
X65291Y32654
X66177Y32831
X63421Y36492
X65055Y36461
X60272Y35941
X58953Y36295
X71138Y35862
X65823Y31276
X61079Y35016
X59346Y35134
X64622Y27811
X63205Y28264
X64937Y28402
X59523Y28736
X62890Y24130
X62890Y23874
X62890Y23618
X65921Y36473
X71138Y35429
X67516Y33736
X66551Y33717
X53638Y25075
X53638Y24721
X50331Y23658
X54917Y22791
X55094Y24366
X57712Y35862
X56335Y29701
X64720Y29898
X64012Y36099
X64327Y31551
X61374Y32102
X63027Y34937
X63539Y34228
X61768Y34091
X60606Y33992
X62496Y34917
X60114Y34051
X60665Y32201
X64090Y33539
X63008Y28028
X59937Y26807
X66590Y31177
X63598Y29721
X60586Y29622
X59366Y26158
X69701Y31197
X63953Y29347
X61236Y29504
X69701Y30331
X60449Y26502
X63913Y29957
X68795Y31925
X60961Y29671
X59622Y26394
X59858Y28776
X58815Y26158
X62693Y28992
X56472Y26827
X63441Y30173
X69563Y29898
X55842Y26315
X58716Y30311
X53697Y25823
X49838Y24602
X48500Y23343
X48972Y23579
X48815Y23343
X48657Y23579
X53874Y23579
X55134Y27516
X69878Y30744
X66945Y27634
X60212Y29917
X58205Y25252
X58972Y26709
X61531Y27949
X56571Y26453
X57752Y27831
X56433Y22693
X56344Y24140
X54602Y31591
X53323Y32417
X54858Y29662
X53224Y30547
X54838Y29347
X52732Y30705
X61394Y26768
X62004Y27713
X62260Y28303
X63146Y30272
X62831Y30272
X62673Y27614
X69445Y26945
X67811Y27142
X54543Y31197
X54012Y31414
X54838Y29032
X53972Y30725
X54779Y28736
X53106Y29780
X54583Y29858
X51472Y31414
X63657Y28225
X58421Y30095
X57653Y28835
X52102Y27870
X56768Y29760
X54701Y33008
X55016Y31906
X55488Y29996
X58992Y29937
X62949Y28736
X53441Y26020
X50744Y25941
X50803Y25193
X52043Y25980
X64366Y28008
X62083Y31000
X63953Y28008
X59346Y30921
X60075Y33539
X61787Y31866
X61374Y28599
X60744Y26610
X59642Y23599
X59602Y22614
X62319Y30154
X58520Y35016
X59701Y32791
X59445Y31984
X71079Y36295
X68008Y32358
X66335Y31984
X65665Y32851
X65842Y33835
X51827Y27142
X51413Y27614
X61453Y35843
X61482Y34238
X54425Y23028
X57407Y54405
X57978Y53461
X59691Y59366
X59258Y55685
X58766Y57004
X59041Y57004
X59514Y58224
X58588Y56669
X58175Y52752
X60301Y52299
X60301Y53618
X60537Y54110
X59848Y59583
X60025Y59386
X60498Y60212
X57545Y59917
X57230Y59917
X56581Y56807
X60557Y53185
X56935Y55252
X56935Y55547
X56935Y55842
X56935Y56118
X56935Y56413
X56935Y56709
X56935Y57023
X56935Y57319
X56935Y57614
X56935Y54976
X56935Y54681
X56935Y54366
X56935Y54031
X56935Y53736
X56935Y52791
X57230Y52752
X57545Y52752
X60380Y52752
X60675Y52752
X61010Y52752
X57860Y52752
X56935Y53106
X56935Y53421
X56935Y59642
X56935Y59346
X56935Y57909
X56935Y58185
X56935Y58480
X56935Y58775
X56935Y59051
X57525Y44976
X58451Y43303
X57545Y43953
X53254Y51079
X56935Y59917
X56935Y60212
X56935Y60508
X57545Y61098
X57250Y61098
X56935Y60803
X56935Y61098
X58037Y54838
X59769Y52752
X57978Y57949
X56581Y55252
X57545Y60803
X56581Y58618
X57545Y60212
X57545Y60508
X50360Y60586
X50301Y59189
X52644Y63657
X53825Y60665
X52525Y45272
X54848Y46374
X58273Y47594
X61010Y55232
X61010Y55527
X61010Y55823
X61010Y56098
X61010Y56394
X61010Y56689
X61010Y57004
X61010Y57299
X61010Y57594
X61010Y54957
X61010Y54661
X61010Y54346
X61010Y54012
X61010Y53716
X61010Y53086
X61010Y53401
X61010Y59622
X61010Y59327
X61010Y57890
X61010Y58165
X61010Y58461
X61010Y58756
X61010Y59031
X61010Y59898
X61010Y60193
X61010Y60488
X61010Y60783
X60793Y61000
X59179Y58224
X60498Y61098
X60498Y60803
X60262Y59248
X60537Y59248
X60498Y59917
X60498Y60508
X60518Y55961
X60222Y55961
X53982Y62870
X54494Y58126
X56029Y50409
X52722Y58264
X52309Y52023
X54317Y46492
X54120Y44819
X51836Y47161
X53293Y43775
X53785Y48539
X55203Y47496
X51029Y55961
X58155Y48461
X61010Y52299
X60714Y51945
X59376Y48638
X56029Y49996
X56620Y50291
X57368Y50252
X57014Y50252
X57545Y49543
X55065Y59425
X60990Y47555
X60675Y49169
X60399Y47004
X60399Y47555
X60990Y47004
X60990Y46374
X60990Y45724
X60990Y45094
X60970Y49642
X59041Y50193
X60399Y44523
X56403Y42575
X60399Y46374
X60222Y42752
X57545Y44701
X60951Y41807
X60518Y41807
X60104Y40665
X60951Y40665
X60518Y41236
X60951Y41236
X59277Y40665
X56443Y42023
X56699Y40646
X57840Y40646
X58392Y42417
X58332Y46413
X60970Y49169
X60951Y50134
X60714Y51433
X60655Y52299
X56581Y53214
X56581Y53835
X56581Y54504
X56581Y55961
X56581Y57673
X56581Y59543
X56581Y60547
X56581Y61551
X56581Y62555
X56581Y63441
X52073Y51709
X50203Y62240
X50340Y63697
X52860Y59760
X49848Y63697
X51128Y63677
X51876Y63677
X54317Y63756
X55163Y63559
X55695Y63559
X55281Y62614
X53372Y63638
X47998Y49189
X47998Y48559
X45813Y43461
X45832Y40665
X55951Y40646
X53923Y43756
X52210Y43677
X54730Y40626
X53470Y40646
X52191Y40646
X50970Y40646
X49730Y40626
X48510Y40626
X47230Y40626
X48175Y46433
X48569Y46728
X46364Y44858
X50832Y42772
X53647Y46512
X55773Y43815
X60065Y52752
X50340Y59779
X51502Y58323
X59947Y52299
X58037Y55094
X54907Y60606
X54888Y61669
X48923Y56118
X47899Y57949
X47388Y50114
X50144Y55508
X47210Y54504
X50203Y52338
X50144Y50803
X49671Y56807
X49592Y57791
X49415Y58677
X45754Y55921
X45785Y57555
X46305Y52772
X45951Y51453
X46384Y63638
X50970Y58323
X47230Y53579
X47112Y51846
X54435Y57122
X53982Y55705
X53844Y57437
X53510Y52023
X58116Y55390
X58372Y55390
X58628Y55390
X45773Y58421
X46817Y63638
X48510Y60016
X48529Y59051
X57171Y46138
X57525Y46138
X58588Y42831
X59455Y47417
X57880Y47594
X46384Y50212
X52545Y48835
X52348Y57220
X46147Y56512
X50695Y56827
X50144Y53874
X47309Y55527
X48018Y56039
X48155Y54268
X48254Y53106
X47329Y54996
X48195Y52614
X50045Y53165
X48707Y56590
X54218Y55508
X55439Y52437
X51069Y59090
X52525Y56098
X52624Y53086
X56088Y51866
X51049Y62201
X52899Y56453
X52742Y53736
X51915Y62201
X55744Y52949
X52289Y56413
X50321Y61295
X52575Y53461
X55852Y52122
X53470Y52358
X56088Y51315
X53254Y55193
X55419Y48972
X52073Y55941
X52348Y62063
X55931Y48342
X51935Y51216
X56423Y46197
X57644Y42338
X58903Y41000
X58667Y41472
X58903Y41315
X58667Y41157
X58667Y46374
X54730Y47634
X51502Y62378
X54612Y59445
X52329Y52712
X56994Y50705
X55537Y51472
X54297Y54031
X55793Y49071
X54415Y50252
X59553Y48933
X58106Y48844
X50655Y47102
X49829Y45823
X52584Y47358
X51699Y45724
X52899Y47338
X51541Y45232
X55478Y53894
X54533Y54504
X53943Y54760
X51974Y55646
X51974Y55331
X54632Y55173
X55301Y61945
X55104Y60311
X51049Y47043
X50832Y46512
X53214Y47338
X51521Y46472
X53510Y47279
X52466Y45606
X52388Y47083
X50832Y43972
X54021Y56157
X52151Y50921
X53411Y50153
X54376Y44602
X52486Y49268
X49238Y47201
X50340Y47516
X52250Y47988
X52309Y51492
X53510Y55449
X56226Y45941
X56305Y43244
X57053Y43303
X56266Y44543
X54238Y56866
X51246Y54583
X54238Y56453
X51325Y51846
X48707Y52575
X50380Y54287
X53647Y53874
X55636Y53244
X58647Y52142
X59632Y52102
X52092Y54819
X47230Y51020
X49455Y52201
X50262Y51945
X45951Y63579
X49888Y60508
X50262Y58835
X49395Y58165
X48411Y58342
X55104Y44327
X54632Y43913
X46403Y53953
X48008Y53982
X59218Y46925
T02C0.025600
X16917Y41915
X18311Y41915
X19504Y41775
X19504Y41275
X19504Y42275
X19504Y42775
X19504Y43275
X36915Y65329
X36915Y63935
X36775Y62742
X36275Y62742
X37275Y62742
X37775Y62742
X38275Y62742
X66413Y35831
X66413Y34437
X66273Y33244
X65773Y33244
X66773Y33244
X67273Y33244
X67773Y33244
X46415Y58913
X47809Y58913
X49002Y58773
X49002Y58273
X49002Y59273
X49002Y59773
X49002Y60273
T03C0.033450
X30370Y30439
X30370Y29258
X21157Y34439
X21157Y35226
X21157Y36014
X21157Y36801
X26256Y38277
X26256Y39065
X26256Y39852
X26256Y40640
X25439Y51876
X24258Y51876
X29439Y61089
X30226Y61089
X31014Y61089
X31801Y61089
X33277Y55990
X34065Y55990
X34852Y55990
X35640Y55990
X54937Y22378
X53756Y22378
X58937Y31591
X59724Y31591
X60512Y31591
X61299Y31591
X62775Y26492
X63563Y26492
X64350Y26492
X65138Y26492
X59868Y47437
X59868Y46256
X50655Y51437
X50655Y52224
X50655Y53012
X50655Y53799
X55754Y55275
X55754Y56063
X55754Y56850
X55754Y57638
T04C0.039500
X24476Y34415
X28476Y34415
X18224Y38411
X18224Y36403
X17100Y24212
X17100Y25212
X17100Y26212
X18349Y24212
X18349Y25212
X18349Y26212
X19597Y24212
X19597Y25212
X19597Y26212
X20846Y24212
X20846Y25212
X20846Y26212
X22094Y24212
X22094Y25212
X22094Y26212
X23343Y24212
X23343Y25212
X23343Y26212
X24591Y24212
X24591Y25212
X24591Y26212
X25840Y24212
X25840Y25212
X25840Y26212
X19390Y31218
X19390Y32218
X20390Y31218
X20390Y32218
X21390Y31218
X21390Y32218
X26630Y42065
X26630Y43065
X26630Y44065
X26630Y45065
X26630Y46065
X29415Y57770
X29415Y53770
X33411Y64022
X31403Y64022
X19212Y65146
X20212Y65146
X21212Y65146
X19212Y63897
X20212Y63897
X21212Y63897
X19212Y62649
X20212Y62649
X21212Y62649
X19212Y61400
X20212Y61400
X21212Y61400
X19212Y60152
X20212Y60152
X21212Y60152
X19212Y58903
X20212Y58903
X21212Y58903
X19212Y57655
X20212Y57655
X21212Y57655
X19212Y56406
X20212Y56406
X21212Y56406
X26218Y62856
X27218Y62856
X26218Y61856
X27218Y61856
X26218Y60856
X27218Y60856
X37065Y55616
X38065Y55616
X39065Y55616
X40065Y55616
X41065Y55616
X58913Y28272
X58913Y24272
X62909Y34524
X60901Y34524
X48710Y35648
X49710Y35648
X50710Y35648
X48710Y34399
X49710Y34399
X50710Y34399
X48710Y33151
X49710Y33151
X50710Y33151
X48710Y31902
X49710Y31902
X50710Y31902
X48710Y30654
X49710Y30654
X50710Y30654
X48710Y29405
X49710Y29405
X50710Y29405
X48710Y28157
X49710Y28157
X50710Y28157
X48710Y26908
X49710Y26908
X50710Y26908
X55716Y33358
X56716Y33358
X55716Y32358
X56716Y32358
X55716Y31358
X56716Y31358
X66563Y26118
X67563Y26118
X68563Y26118
X69563Y26118
X70563Y26118
X53974Y51413
X57974Y51413
X47722Y55409
X47722Y53401
X46598Y41210
X46598Y42210
X46598Y43210
X47847Y41210
X47847Y42210
X47847Y43210
X49095Y41210
X49095Y42210
X49095Y43210
X50344Y41210
X50344Y42210
X50344Y43210
X51592Y41210
X51592Y42210
X51592Y43210
X52841Y41210
X52841Y42210
X52841Y43210
X54089Y41210
X54089Y42210
X54089Y43210
X55338Y41210
X55338Y42210
X55338Y43210
X48888Y48216
X48888Y49216
X49888Y48216
X49888Y49216
X50888Y48216
X50888Y49216
X56128Y59063
X56128Y60063
X56128Y61063
X56128Y62063
X56128Y63063
T05C0.043300
X18441Y46124
X18441Y45124
X18441Y44124
X41124Y63805
X40124Y63805
X39124Y63805
X70622Y34307
X69622Y34307
X68622Y34307
X47939Y63122
X47939Y62122
X47939Y61122
T06C0.118100
X25941Y47919
X17319Y47919
X17338Y22329
X30429Y22329
X42919Y56305
X42919Y64927
X17329Y64908
X17329Y51817
X72417Y26807
X72417Y35429
X46827Y35410
X46827Y22319
X55439Y64917
X46817Y64917
X46836Y39327
X59927Y39327
M30
