G04 This is an RS-274x file exported by *
G04 gerbv version 2.4.0 *
G04 More information is available about gerbv at *
G04 http://gerbv.gpleda.org/ *
G04 --End of header info--*
%MOIN*%
%FSLAX23Y23*%
%IPPOS*%
G04 --Define apertures--*
%ADD10C,0.0000*%
%ADD11R,0.0394X0.0433*%
%ADD12R,0.0433X0.0394*%
%ADD13R,0.0197X0.0197*%
%ADD14R,0.0190X0.0080*%
%ADD15R,0.0080X0.0190*%
%ADD16R,0.0236X0.0354*%
%ADD17R,0.0236X0.0197*%
%ADD18R,0.0197X0.0236*%
%ADD19R,0.0394X0.1181*%
%ADD20R,0.1181X0.0394*%
%ADD21R,0.0201X0.0315*%
%ADD22R,0.0945X0.0945*%
%ADD23R,0.0394X0.0079*%
%ADD24R,0.0079X0.0394*%
%ADD25R,0.0472X0.0217*%
%ADD26R,0.0217X0.0472*%
%ADD27R,0.0472X0.0984*%
%ADD28R,0.0571X0.0315*%
%ADD29R,0.0327X0.0248*%
%ADD30R,0.0157X0.0630*%
%ADD31R,0.0248X0.0327*%
%ADD32R,0.0870X0.0240*%
%ADD33R,0.0118X0.0236*%
%ADD34R,0.0551X0.0472*%
%ADD35R,0.0709X0.0630*%
%ADD36R,0.0472X0.0551*%
%ADD37R,0.0315X0.0354*%
%ADD38R,0.0657X0.0315*%
%ADD39R,0.0315X0.0984*%
%ADD40R,0.0315X0.0657*%
%ADD41R,0.0315X0.0118*%
%ADD42R,0.0118X0.0315*%
%ADD43R,0.0276X0.0138*%
%ADD44R,0.0138X0.0276*%
%ADD45R,0.1654X0.1772*%
%ADD46R,0.0512X0.0276*%
%ADD47R,0.0276X0.0512*%
G04 --Start main section--*
G54D11*
G01X02335Y00759D03*
G01X02335Y00826D03*
G01X02086Y01017D03*
G01X02086Y01084D03*
G01X01972Y01067D03*
G01X01972Y01000D03*
G01X01986Y01248D03*
G01X01986Y01315D03*
G01X01736Y01460D03*
G01X01736Y01527D03*
G01X01569Y01325D03*
G01X01569Y01259D03*
G01X01567Y01207D03*
G01X01567Y01140D03*
G01X01474Y01157D03*
G01X01474Y01224D03*
G01X01185Y00826D03*
G01X01185Y00760D03*
G01X01029Y00819D03*
G01X01029Y00886D03*
G01X00819Y01033D03*
G01X00819Y01100D03*
G01X00842Y01165D03*
G01X00842Y01232D03*
G01X00616Y01480D03*
G01X00616Y01547D03*
G01X00628Y00817D03*
G01X00628Y00750D03*
G01X00677Y00636D03*
G01X00677Y00569D03*
G01X00496Y00476D03*
G01X00496Y00409D03*
G01X00866Y00431D03*
G01X00866Y00498D03*
G01X00947Y00498D03*
G01X00947Y00431D03*
G01X01303Y00507D03*
G01X01303Y00575D03*
G01X01582Y00222D03*
G01X01582Y00155D03*
G01X01380Y00179D03*
G01X01380Y00112D03*
G01X02547Y01076D03*
G01X02547Y01143D03*
G54D12*
G01X02481Y01090D03*
G01X02414Y01090D03*
G01X02340Y01080D03*
G01X02273Y01080D03*
G01X02222Y01078D03*
G01X02155Y01078D03*
G01X02161Y01173D03*
G01X02106Y01181D03*
G01X02039Y01181D03*
G01X01986Y01136D03*
G01X01919Y01136D03*
G01X01866Y01136D03*
G01X01799Y01136D03*
G01X01748Y01104D03*
G01X01681Y01104D03*
G01X01630Y01023D03*
G01X01563Y01023D03*
G01X01506Y01031D03*
G01X01439Y01031D03*
G01X01348Y01000D03*
G01X01281Y01000D03*
G01X01289Y01080D03*
G01X01222Y01080D03*
G01X01222Y01169D03*
G01X01289Y01169D03*
G01X01341Y01165D03*
G01X01408Y01165D03*
G01X01427Y00950D03*
G01X01494Y00950D03*
G01X01523Y00762D03*
G01X01457Y00762D03*
G01X01614Y00567D03*
G01X01681Y00567D03*
G01X01506Y00533D03*
G01X01439Y00533D03*
G01X01386Y00441D03*
G01X01319Y00441D03*
G01X01224Y00344D03*
G01X01157Y00344D03*
G01X01084Y00159D03*
G01X01018Y00159D03*
G01X01018Y00078D03*
G01X01084Y00078D03*
G01X01374Y00246D03*
G01X01441Y00246D03*
G01X01543Y00391D03*
G01X01610Y00391D03*
G01X01230Y00590D03*
G01X01163Y00590D03*
G01X01069Y00624D03*
G01X01002Y00624D03*
G01X00937Y00364D03*
G01X00870Y00364D03*
G01X00653Y00350D03*
G01X00586Y00350D03*
G01X00413Y00555D03*
G01X00346Y00555D03*
G01X00758Y00943D03*
G01X00825Y00943D03*
G01X00689Y01031D03*
G01X00622Y01031D03*
G01X00622Y01130D03*
G01X00689Y01130D03*
G01X00689Y01238D03*
G01X00622Y01238D03*
G01X00608Y01321D03*
G01X00675Y01321D03*
G01X00415Y01555D03*
G01X00348Y01555D03*
G01X01195Y01470D03*
G01X01262Y01470D03*
G01X01268Y01551D03*
G01X01201Y01551D03*
G01X01462Y01429D03*
G01X01529Y01429D03*
G01X01600Y01472D03*
G01X01667Y01472D03*
G01X01667Y01553D03*
G01X01600Y01553D03*
G01X01604Y01391D03*
G01X01671Y01391D03*
G01X01850Y01313D03*
G01X01917Y01313D03*
G01X01919Y01218D03*
G01X01852Y01218D03*
G01X02228Y01173D03*
G01X02203Y00807D03*
G01X02269Y00807D03*
G01X02269Y00726D03*
G01X02203Y00726D03*
G01X02140Y00738D03*
G01X02073Y00738D03*
G01X02088Y00647D03*
G01X02021Y00647D03*
G01X02443Y00700D03*
G01X02510Y00700D03*
G01X02492Y00803D03*
G01X02425Y00803D03*
G01X02246Y01561D03*
G01X02179Y01561D03*
G54D13*
G01X01714Y00313D03*
G54D14*
G01X01787Y00313D03*
G01X01787Y00293D03*
G01X01787Y00273D03*
G01X01787Y00332D03*
G01X01787Y00352D03*
G01X01641Y00352D03*
G01X01641Y00332D03*
G01X01641Y00313D03*
G01X01641Y00293D03*
G01X01641Y00273D03*
G54D15*
G01X01675Y00240D03*
G01X01695Y00240D03*
G01X01714Y00240D03*
G01X01734Y00240D03*
G01X01754Y00240D03*
G01X01754Y00386D03*
G01X01734Y00386D03*
G01X01714Y00386D03*
G01X01695Y00386D03*
G01X01675Y00386D03*
G54D16*
G01X01581Y00321D03*
G01X01521Y00321D03*
G01X01823Y00258D03*
G01X01882Y00258D03*
G01X01945Y00218D03*
G01X02004Y00218D03*
G01X01882Y00197D03*
G01X01823Y00197D03*
G54D17*
G01X01937Y00169D03*
G01X01937Y00130D03*
G01X01978Y00130D03*
G01X01978Y00169D03*
G01X02096Y00189D03*
G01X02096Y00228D03*
G01X02157Y00208D03*
G01X02157Y00248D03*
G01X02118Y00358D03*
G01X02118Y00397D03*
G01X01876Y00360D03*
G01X01876Y00321D03*
G01X01834Y00321D03*
G01X01834Y00360D03*
G01X02096Y00147D03*
G01X02096Y00108D03*
G54D18*
G01X02057Y00134D03*
G01X02018Y00134D03*
G01X01897Y00143D03*
G01X01858Y00143D03*
G01X01962Y00277D03*
G01X02002Y00277D03*
G01X02061Y00269D03*
G01X02100Y00269D03*
G01X02116Y00319D03*
G01X02155Y00319D03*
G01X01955Y00319D03*
G01X01915Y00319D03*
G01X01915Y00360D03*
G01X01955Y00360D03*
G54D19*
G01X00399Y00183D03*
G01X00321Y00183D03*
G54D20*
G01X00614Y00169D03*
G01X00614Y00248D03*
G54D21*
G01X00520Y00254D03*
G01X00482Y00254D03*
G01X00445Y00254D03*
G01X00445Y00356D03*
G01X00482Y00356D03*
G01X00520Y00356D03*
G54D22*
G01X00760Y00315D03*
G01X00760Y00141D03*
G01X02344Y01250D03*
G01X02518Y01250D03*
G54D23*
G01X01998Y00941D03*
G01X01998Y00921D03*
G01X01998Y00901D03*
G01X01998Y00881D03*
G01X01998Y00862D03*
G01X01998Y00842D03*
G01X01998Y00822D03*
G01X01998Y00803D03*
G01X01998Y00783D03*
G01X01998Y00763D03*
G01X01998Y00744D03*
G01X01998Y00724D03*
G01X01643Y00724D03*
G01X01643Y00744D03*
G01X01643Y00763D03*
G01X01643Y00783D03*
G01X01643Y00803D03*
G01X01643Y00822D03*
G01X01643Y00842D03*
G01X01643Y00862D03*
G01X01643Y00881D03*
G01X01643Y00901D03*
G01X01643Y00921D03*
G01X01643Y00941D03*
G54D24*
G01X01712Y01009D03*
G01X01732Y01009D03*
G01X01752Y01009D03*
G01X01771Y01009D03*
G01X01791Y01009D03*
G01X01811Y01009D03*
G01X01830Y01009D03*
G01X01850Y01009D03*
G01X01870Y01009D03*
G01X01889Y01009D03*
G01X01909Y01009D03*
G01X01929Y01009D03*
G01X01929Y00655D03*
G01X01909Y00655D03*
G01X01889Y00655D03*
G01X01870Y00655D03*
G01X01850Y00655D03*
G01X01830Y00655D03*
G01X01811Y00655D03*
G01X01791Y00655D03*
G01X01771Y00655D03*
G01X01752Y00655D03*
G01X01732Y00655D03*
G01X01712Y00655D03*
G54D25*
G01X01283Y00283D03*
G01X01283Y00208D03*
G01X01181Y00208D03*
G01X01181Y00246D03*
G01X01181Y00283D03*
G01X01445Y01488D03*
G01X01445Y01525D03*
G01X01445Y01563D03*
G01X01547Y01563D03*
G01X01547Y01488D03*
G54D26*
G01X01108Y00393D03*
G01X01033Y00393D03*
G01X01033Y00291D03*
G01X01071Y00291D03*
G01X01108Y00291D03*
G54D27*
G01X01165Y00122D03*
G01X01295Y00122D03*
G01X01161Y00478D03*
G01X01031Y00478D03*
G01X00773Y00452D03*
G01X00644Y00452D03*
G54D28*
G01X02138Y00787D03*
G01X02138Y00850D03*
G54D29*
G01X01110Y00854D03*
G01X01110Y00763D03*
G01X00754Y01100D03*
G01X00754Y01191D03*
G01X00754Y01230D03*
G01X00754Y01321D03*
G54D30*
G01X00759Y00851D03*
G01X00785Y00851D03*
G01X00810Y00851D03*
G01X00836Y00851D03*
G01X00862Y00851D03*
G01X00887Y00851D03*
G01X00913Y00851D03*
G01X00734Y00851D03*
G01X00734Y00619D03*
G01X00759Y00619D03*
G01X00785Y00619D03*
G01X00810Y00619D03*
G01X00836Y00619D03*
G01X00862Y00619D03*
G01X00887Y00619D03*
G01X00913Y00619D03*
G54D31*
G01X00707Y00933D03*
G01X00616Y00933D03*
G01X00606Y01423D03*
G01X00697Y01423D03*
G54D32*
G01X02306Y01037D03*
G01X02306Y00987D03*
G01X02306Y00937D03*
G01X02306Y00887D03*
G01X02512Y00887D03*
G01X02512Y00937D03*
G01X02512Y00987D03*
G01X02512Y01037D03*
G54D33*
G01X02061Y00387D03*
G01X02035Y00387D03*
G01X02010Y00387D03*
G01X02010Y00313D03*
G01X02035Y00313D03*
G01X02061Y00313D03*
G54D34*
G01X01758Y00181D03*
G01X01758Y00118D03*
G01X01671Y00118D03*
G01X01671Y00181D03*
G54D35*
G01X00336Y00336D03*
G01X00336Y00447D03*
G54D36*
G01X02151Y00913D03*
G01X02214Y00913D03*
G01X02214Y01000D03*
G01X02151Y01000D03*
G54D37*
G01X02161Y01437D03*
G01X02236Y01437D03*
G01X02199Y01519D03*
G01X01395Y01549D03*
G01X01321Y01549D03*
G01X01358Y01466D03*
G54D38*
G01X01810Y01460D03*
G01X01810Y01510D03*
G01X01810Y01410D03*
G01X01973Y01410D03*
G01X01973Y01460D03*
G01X01973Y01510D03*
G54D39*
G01X01892Y01395D03*
G54D40*
G01X01892Y01542D03*
G54D41*
G01X01785Y01301D03*
G01X01785Y01281D03*
G01X01785Y01262D03*
G01X01785Y01242D03*
G01X01785Y01222D03*
G01X01785Y01202D03*
G01X01628Y01202D03*
G01X01628Y01222D03*
G01X01628Y01242D03*
G01X01628Y01262D03*
G01X01628Y01281D03*
G01X01628Y01301D03*
G54D42*
G01X01657Y01330D03*
G01X01677Y01330D03*
G01X01697Y01330D03*
G01X01716Y01330D03*
G01X01736Y01330D03*
G01X01756Y01330D03*
G01X01756Y01173D03*
G01X01736Y01173D03*
G01X01716Y01173D03*
G01X01697Y01173D03*
G01X01677Y01173D03*
G01X01657Y01173D03*
G54D43*
G01X01425Y01248D03*
G01X01425Y01269D03*
G01X01425Y01291D03*
G01X01425Y01313D03*
G01X01425Y01334D03*
G01X01425Y01356D03*
G01X01425Y01378D03*
G01X01244Y01378D03*
G01X01244Y01356D03*
G01X01244Y01334D03*
G01X01244Y01313D03*
G01X01244Y01291D03*
G01X01244Y01269D03*
G01X01244Y01248D03*
G54D44*
G01X01269Y01222D03*
G01X01291Y01222D03*
G01X01313Y01222D03*
G01X01334Y01222D03*
G01X01356Y01222D03*
G01X01378Y01222D03*
G01X01399Y01222D03*
G01X01399Y01403D03*
G01X01378Y01403D03*
G01X01356Y01403D03*
G01X01334Y01403D03*
G01X01313Y01403D03*
G01X01291Y01403D03*
G01X01269Y01403D03*
G54D45*
G01X02369Y01496D03*
G54D46*
G01X02519Y01471D03*
G01X02519Y01421D03*
G01X02519Y01521D03*
G01X02519Y01571D03*
G54D47*
G01X00524Y00167D03*
G01X00448Y00167D03*
M02*
