G75*
G70*
%OFA0B0*%
%FSLAX24Y24*%
%IPPOS*%
%LPD*%
%AMOC8*
5,1,8,0,0,1.08239X$1,22.5*
%
%ADD10C,0.0080*%
%ADD11C,0.0160*%
%ADD12C,0.0120*%
%ADD13R,0.0180X0.0300*%
%ADD14C,0.0090*%
%ADD15C,0.0130*%
D10*
X000766Y001591D02*
X000768Y001642D01*
X000774Y001693D01*
X000784Y001743D01*
X000797Y001793D01*
X000815Y001841D01*
X000835Y001888D01*
X000860Y001933D01*
X000888Y001976D01*
X000919Y002017D01*
X000953Y002055D01*
X000990Y002090D01*
X001029Y002123D01*
X001071Y002153D01*
X001115Y002179D01*
X001161Y002201D01*
X001209Y002221D01*
X001258Y002236D01*
X001308Y002248D01*
X001358Y002256D01*
X001409Y002260D01*
X001461Y002260D01*
X001512Y002256D01*
X001562Y002248D01*
X001612Y002236D01*
X001661Y002221D01*
X001709Y002201D01*
X001755Y002179D01*
X001799Y002153D01*
X001841Y002123D01*
X001880Y002090D01*
X001917Y002055D01*
X001951Y002017D01*
X001982Y001976D01*
X002010Y001933D01*
X002035Y001888D01*
X002055Y001841D01*
X002073Y001793D01*
X002086Y001743D01*
X002096Y001693D01*
X002102Y001642D01*
X002104Y001591D01*
X002102Y001540D01*
X002096Y001489D01*
X002086Y001439D01*
X002073Y001389D01*
X002055Y001341D01*
X002035Y001294D01*
X002010Y001249D01*
X001982Y001206D01*
X001951Y001165D01*
X001917Y001127D01*
X001880Y001092D01*
X001841Y001059D01*
X001799Y001029D01*
X001755Y001003D01*
X001709Y000981D01*
X001661Y000961D01*
X001612Y000946D01*
X001562Y000934D01*
X001512Y000926D01*
X001461Y000922D01*
X001409Y000922D01*
X001358Y000926D01*
X001308Y000934D01*
X001258Y000946D01*
X001209Y000961D01*
X001161Y000981D01*
X001115Y001003D01*
X001071Y001029D01*
X001029Y001059D01*
X000990Y001092D01*
X000953Y001127D01*
X000919Y001165D01*
X000888Y001206D01*
X000860Y001249D01*
X000835Y001294D01*
X000815Y001341D01*
X000797Y001389D01*
X000784Y001439D01*
X000774Y001489D01*
X000768Y001540D01*
X000766Y001591D01*
X000254Y001591D02*
X000256Y001660D01*
X000262Y001728D01*
X000272Y001796D01*
X000286Y001863D01*
X000304Y001930D01*
X000325Y001995D01*
X000351Y002059D01*
X000380Y002121D01*
X000412Y002181D01*
X000448Y002240D01*
X000488Y002296D01*
X000530Y002350D01*
X000576Y002401D01*
X000625Y002450D01*
X000676Y002496D01*
X000730Y002538D01*
X000786Y002578D01*
X000844Y002614D01*
X000905Y002646D01*
X000967Y002675D01*
X001031Y002701D01*
X001096Y002722D01*
X001163Y002740D01*
X001230Y002754D01*
X001298Y002764D01*
X001366Y002770D01*
X001435Y002772D01*
X001504Y002770D01*
X001572Y002764D01*
X001640Y002754D01*
X001707Y002740D01*
X001774Y002722D01*
X001839Y002701D01*
X001903Y002675D01*
X001965Y002646D01*
X002025Y002614D01*
X002084Y002578D01*
X002140Y002538D01*
X002194Y002496D01*
X002245Y002450D01*
X002294Y002401D01*
X002340Y002350D01*
X002382Y002296D01*
X002422Y002240D01*
X002458Y002182D01*
X002490Y002121D01*
X002519Y002059D01*
X002545Y001995D01*
X002566Y001930D01*
X002584Y001863D01*
X002598Y001796D01*
X002608Y001728D01*
X002614Y001660D01*
X002616Y001591D01*
X002614Y001522D01*
X002608Y001454D01*
X002598Y001386D01*
X002584Y001319D01*
X002566Y001252D01*
X002545Y001187D01*
X002519Y001123D01*
X002490Y001061D01*
X002458Y001000D01*
X002422Y000942D01*
X002382Y000886D01*
X002340Y000832D01*
X002294Y000781D01*
X002245Y000732D01*
X002194Y000686D01*
X002140Y000644D01*
X002084Y000604D01*
X002026Y000568D01*
X001965Y000536D01*
X001903Y000507D01*
X001839Y000481D01*
X001774Y000460D01*
X001707Y000442D01*
X001640Y000428D01*
X001572Y000418D01*
X001504Y000412D01*
X001435Y000410D01*
X001366Y000412D01*
X001298Y000418D01*
X001230Y000428D01*
X001163Y000442D01*
X001096Y000460D01*
X001031Y000481D01*
X000967Y000507D01*
X000905Y000536D01*
X000844Y000568D01*
X000786Y000604D01*
X000730Y000644D01*
X000676Y000686D01*
X000625Y000732D01*
X000576Y000781D01*
X000530Y000832D01*
X000488Y000886D01*
X000448Y000942D01*
X000412Y001000D01*
X000380Y001061D01*
X000351Y001123D01*
X000325Y001187D01*
X000304Y001252D01*
X000286Y001319D01*
X000272Y001386D01*
X000262Y001454D01*
X000256Y001522D01*
X000254Y001591D01*
X002916Y002211D02*
X003336Y002211D01*
X003336Y002421D01*
X003266Y002491D01*
X003126Y002491D01*
X003056Y002421D01*
X003056Y002211D01*
X002986Y002671D02*
X002916Y002741D01*
X002916Y002881D01*
X002986Y002952D01*
X003266Y002952D01*
X003336Y002881D01*
X003336Y002741D01*
X003266Y002671D01*
X002986Y002671D01*
X002916Y003132D02*
X003056Y003272D01*
X002916Y003412D01*
X003336Y003412D01*
X003336Y003592D02*
X002916Y003592D01*
X002916Y003872D01*
X002916Y004052D02*
X003336Y004052D01*
X003336Y004263D01*
X003266Y004333D01*
X003126Y004333D01*
X003056Y004263D01*
X003056Y004052D01*
X003056Y004193D02*
X002916Y004333D01*
X003336Y003872D02*
X003336Y003592D01*
X003522Y003578D02*
X003562Y003618D01*
X003602Y003618D01*
X003642Y003578D01*
X003642Y003458D01*
X003562Y003458D01*
X003522Y003498D01*
X003522Y003578D01*
X003642Y003458D02*
X003722Y003538D01*
X003762Y003618D01*
X003762Y003753D02*
X003602Y003753D01*
X003522Y003833D01*
X003602Y003913D01*
X003762Y003913D01*
X003762Y004047D02*
X003762Y004168D01*
X003722Y004208D01*
X003562Y004208D01*
X003522Y004168D01*
X003522Y004047D01*
X003762Y004047D01*
X003722Y004342D02*
X003562Y004342D01*
X003522Y004382D01*
X003522Y004462D01*
X003562Y004502D01*
X003722Y004502D02*
X003762Y004462D01*
X003762Y004382D01*
X003722Y004342D01*
X003875Y004879D02*
X003893Y004877D01*
X003910Y004878D01*
X003927Y004882D01*
X003943Y004889D01*
X003958Y004899D01*
X003970Y004911D01*
X003980Y004925D01*
X003988Y004941D01*
X003993Y004957D01*
X003994Y004957D02*
X003994Y005587D01*
X003993Y005587D02*
X003988Y005603D01*
X003980Y005619D01*
X003970Y005633D01*
X003958Y005645D01*
X003943Y005655D01*
X003927Y005662D01*
X003910Y005666D01*
X003893Y005667D01*
X003875Y005665D01*
X004068Y005680D02*
X003818Y005930D01*
X003568Y005680D01*
X003068Y005680D01*
X002818Y005930D01*
X002818Y006430D01*
X003068Y006680D01*
X003568Y006680D01*
X003818Y006430D01*
X004068Y006680D01*
X004568Y006680D01*
X004818Y006430D01*
X005068Y006680D01*
X005568Y006680D01*
X005818Y006430D01*
X005818Y005930D01*
X005568Y005680D01*
X005068Y005680D01*
X004818Y005930D01*
X004568Y005680D01*
X004068Y005680D01*
X004136Y005580D02*
X004216Y005580D01*
X004256Y005540D01*
X004256Y005380D01*
X004216Y005340D01*
X004136Y005340D01*
X004096Y005380D01*
X004096Y005460D01*
X004176Y005460D01*
X004096Y005540D02*
X004136Y005580D01*
X004390Y005540D02*
X004390Y005460D01*
X004430Y005420D01*
X004551Y005420D01*
X004551Y005340D02*
X004551Y005580D01*
X004430Y005580D01*
X004390Y005540D01*
X004471Y005420D02*
X004390Y005340D01*
X004430Y005206D02*
X004590Y005206D01*
X004590Y004966D01*
X004430Y004966D01*
X004295Y004966D02*
X004135Y004966D01*
X004295Y004966D02*
X004295Y005206D01*
X004510Y005086D02*
X004590Y005086D01*
X004724Y005046D02*
X004724Y005006D01*
X004764Y004966D01*
X004845Y004966D01*
X004885Y005006D01*
X004845Y005086D02*
X004764Y005086D01*
X004724Y005046D01*
X004724Y005166D02*
X004764Y005206D01*
X004845Y005206D01*
X004885Y005166D01*
X004885Y005126D01*
X004845Y005086D01*
X004765Y005340D02*
X004685Y005420D01*
X004685Y005580D01*
X004845Y005580D02*
X004845Y005420D01*
X004765Y005340D01*
X004980Y005380D02*
X004980Y005420D01*
X005020Y005460D01*
X005100Y005460D01*
X005140Y005500D01*
X005140Y005540D01*
X005100Y005580D01*
X005020Y005580D01*
X004980Y005540D01*
X004980Y005380D02*
X005020Y005340D01*
X005100Y005340D01*
X005140Y005380D01*
X005354Y005206D02*
X005314Y005166D01*
X005314Y005086D01*
X005354Y005046D01*
X005474Y005046D01*
X005394Y005046D02*
X005314Y004966D01*
X005474Y004966D02*
X005474Y005206D01*
X005354Y005206D01*
X005569Y005340D02*
X005569Y005580D01*
X005729Y005580D02*
X005569Y005340D01*
X005608Y005206D02*
X005608Y004966D01*
X005688Y005046D01*
X005769Y004966D01*
X005769Y005206D01*
X005729Y005340D02*
X005729Y005580D01*
X005864Y005580D02*
X006024Y005580D01*
X006024Y005340D01*
X005864Y005340D01*
X005944Y005460D02*
X006024Y005460D01*
X006081Y005371D02*
X006079Y005353D01*
X006080Y005336D01*
X006084Y005319D01*
X006091Y005303D01*
X006101Y005288D01*
X006113Y005276D01*
X006127Y005266D01*
X006143Y005258D01*
X006159Y005253D01*
X006159Y005252D02*
X006789Y005252D01*
X006789Y005253D02*
X006805Y005258D01*
X006821Y005266D01*
X006835Y005276D01*
X006847Y005288D01*
X006857Y005303D01*
X006864Y005319D01*
X006868Y005336D01*
X006869Y005353D01*
X006867Y005371D01*
X006867Y005921D02*
X006869Y005939D01*
X006868Y005956D01*
X006864Y005973D01*
X006857Y005989D01*
X006847Y006004D01*
X006835Y006016D01*
X006821Y006026D01*
X006805Y006034D01*
X006789Y006039D01*
X006789Y006040D02*
X006159Y006040D01*
X006159Y006039D02*
X006143Y006034D01*
X006127Y006026D01*
X006113Y006016D01*
X006101Y006004D01*
X006091Y005989D01*
X006084Y005973D01*
X006080Y005956D01*
X006079Y005939D01*
X006081Y005921D01*
X005979Y006100D02*
X005979Y006420D01*
X006139Y006260D01*
X005925Y006260D01*
X005865Y006552D02*
X005865Y006973D01*
X006005Y006973D02*
X005725Y006973D01*
X005568Y006929D02*
X005818Y007179D01*
X005818Y007679D01*
X005568Y007929D01*
X005068Y007929D01*
X004818Y007679D01*
X004568Y007929D01*
X004068Y007929D01*
X003818Y007679D01*
X003568Y007929D01*
X003068Y007929D01*
X002818Y007679D01*
X002818Y007179D01*
X003068Y006929D01*
X003568Y006929D01*
X003818Y007179D01*
X004068Y006929D01*
X004568Y006929D01*
X004818Y007179D01*
X005068Y006929D01*
X005568Y006929D01*
X005960Y007328D02*
X006014Y007275D01*
X006120Y007275D01*
X006174Y007328D01*
X006067Y007435D02*
X006014Y007435D01*
X005960Y007382D01*
X005960Y007328D01*
X006014Y007435D02*
X005960Y007488D01*
X005960Y007542D01*
X006014Y007595D01*
X006120Y007595D01*
X006174Y007542D01*
X006186Y006973D02*
X006186Y006622D01*
X006256Y006552D01*
X006396Y006552D01*
X006466Y006622D01*
X006466Y006973D01*
X006592Y007074D02*
X006592Y008067D01*
X006174Y008543D02*
X005960Y008756D01*
X005960Y008810D01*
X006014Y008863D01*
X006120Y008863D01*
X006174Y008810D01*
X006174Y008543D02*
X005960Y008543D01*
X005818Y008427D02*
X005818Y008927D01*
X005568Y009177D01*
X005068Y009177D01*
X004818Y008927D01*
X004568Y009177D01*
X004068Y009177D01*
X003818Y008927D01*
X003568Y009177D01*
X003068Y009177D01*
X002818Y008927D01*
X002818Y008427D01*
X003068Y008177D01*
X003568Y008177D01*
X003818Y008427D01*
X004068Y008177D01*
X004568Y008177D01*
X004818Y008427D01*
X005068Y008177D01*
X005568Y008177D01*
X005818Y008427D01*
X005568Y009426D02*
X005068Y009426D01*
X004818Y009676D01*
X004568Y009426D01*
X004068Y009426D01*
X003818Y009676D01*
X003568Y009426D01*
X003068Y009426D01*
X002818Y009676D01*
X002818Y010176D01*
X003068Y010426D01*
X003568Y010426D01*
X003818Y010176D01*
X004068Y010426D01*
X004568Y010426D01*
X004818Y010176D01*
X005068Y010426D01*
X005568Y010426D01*
X005818Y010176D01*
X005818Y009676D01*
X005568Y009426D01*
X005960Y009772D02*
X006174Y009772D01*
X006067Y009772D02*
X006067Y010092D01*
X006174Y009985D01*
X005568Y010674D02*
X005068Y010674D01*
X004818Y010924D01*
X004568Y010674D01*
X004068Y010674D01*
X003818Y010924D01*
X003568Y010674D01*
X003068Y010674D01*
X002818Y010924D01*
X002818Y011424D01*
X003068Y011674D01*
X003568Y011674D01*
X003818Y011424D01*
X004068Y011674D01*
X004568Y011674D01*
X004818Y011424D01*
X005068Y011674D01*
X005568Y011674D01*
X005818Y011424D01*
X005818Y010924D01*
X005568Y010674D01*
X006014Y011020D02*
X006014Y011341D01*
X006174Y011180D01*
X005960Y011180D01*
X005568Y011923D02*
X005068Y011923D01*
X004818Y012173D01*
X004568Y011923D01*
X004068Y011923D01*
X003818Y012173D01*
X003568Y011923D01*
X003068Y011923D01*
X002818Y012173D01*
X002818Y012673D01*
X003068Y012923D01*
X003568Y012923D01*
X003818Y012673D01*
X004068Y012923D01*
X004568Y012923D01*
X004818Y012673D01*
X005068Y012923D01*
X005568Y012923D01*
X005818Y012673D01*
X005818Y012173D01*
X005568Y011923D01*
X005960Y012342D02*
X006014Y012289D01*
X006120Y012289D01*
X006174Y012342D01*
X006067Y012449D02*
X006014Y012449D01*
X005960Y012395D01*
X005960Y012342D01*
X006014Y012449D02*
X005960Y012502D01*
X005960Y012555D01*
X006014Y012609D01*
X006120Y012609D01*
X006174Y012555D01*
X005568Y013171D02*
X005068Y013171D01*
X004818Y013421D01*
X004568Y013171D01*
X004068Y013171D01*
X003818Y013421D01*
X003568Y013171D01*
X003068Y013171D01*
X002818Y013421D01*
X002818Y013921D01*
X003068Y014171D01*
X003568Y014171D01*
X003818Y013921D01*
X004068Y014171D01*
X004568Y014171D01*
X004818Y013921D01*
X005068Y014171D01*
X005568Y014171D01*
X005818Y013921D01*
X005818Y013421D01*
X005568Y013171D01*
X005904Y013479D02*
X006118Y013479D01*
X005904Y013692D01*
X005904Y013745D01*
X005958Y013799D01*
X006064Y013799D01*
X006118Y013745D01*
X006194Y014107D02*
X005834Y014107D01*
X006194Y014107D02*
X006334Y014247D01*
X006334Y014352D01*
X006454Y014352D01*
X006454Y014517D01*
X005839Y014517D01*
X005818Y014670D02*
X005818Y015170D01*
X005568Y015420D01*
X005068Y015420D01*
X004818Y015170D01*
X004568Y015420D01*
X004068Y015420D01*
X003818Y015170D01*
X003568Y015420D01*
X003068Y015420D01*
X002818Y015170D01*
X002818Y014670D01*
X003068Y014420D01*
X003568Y014420D01*
X003818Y014670D01*
X004068Y014420D01*
X004568Y014420D01*
X004818Y014670D01*
X005068Y014420D01*
X005568Y014420D01*
X005818Y014670D01*
X005963Y014769D02*
X006177Y014769D01*
X006070Y014769D02*
X006070Y015090D01*
X006177Y014983D01*
X005701Y015508D02*
X005701Y015928D01*
X005491Y015928D01*
X005421Y015858D01*
X005421Y015718D01*
X005491Y015648D01*
X005701Y015648D01*
X005241Y015508D02*
X005100Y015648D01*
X004960Y015508D01*
X004960Y015928D01*
X004780Y015928D02*
X004780Y015508D01*
X004500Y015508D02*
X004500Y015928D01*
X004640Y015788D01*
X004780Y015928D01*
X005241Y015928D02*
X005241Y015508D01*
X003859Y015508D02*
X003719Y015508D01*
X003789Y015508D02*
X003789Y015928D01*
X003859Y015928D02*
X003719Y015928D01*
X003553Y015928D02*
X003553Y015508D01*
X003272Y015508D02*
X003272Y015928D01*
X003553Y015928D02*
X003272Y015508D01*
X000766Y014682D02*
X000768Y014733D01*
X000774Y014784D01*
X000784Y014834D01*
X000797Y014884D01*
X000815Y014932D01*
X000835Y014979D01*
X000860Y015024D01*
X000888Y015067D01*
X000919Y015108D01*
X000953Y015146D01*
X000990Y015181D01*
X001029Y015214D01*
X001071Y015244D01*
X001115Y015270D01*
X001161Y015292D01*
X001209Y015312D01*
X001258Y015327D01*
X001308Y015339D01*
X001358Y015347D01*
X001409Y015351D01*
X001461Y015351D01*
X001512Y015347D01*
X001562Y015339D01*
X001612Y015327D01*
X001661Y015312D01*
X001709Y015292D01*
X001755Y015270D01*
X001799Y015244D01*
X001841Y015214D01*
X001880Y015181D01*
X001917Y015146D01*
X001951Y015108D01*
X001982Y015067D01*
X002010Y015024D01*
X002035Y014979D01*
X002055Y014932D01*
X002073Y014884D01*
X002086Y014834D01*
X002096Y014784D01*
X002102Y014733D01*
X002104Y014682D01*
X002102Y014631D01*
X002096Y014580D01*
X002086Y014530D01*
X002073Y014480D01*
X002055Y014432D01*
X002035Y014385D01*
X002010Y014340D01*
X001982Y014297D01*
X001951Y014256D01*
X001917Y014218D01*
X001880Y014183D01*
X001841Y014150D01*
X001799Y014120D01*
X001755Y014094D01*
X001709Y014072D01*
X001661Y014052D01*
X001612Y014037D01*
X001562Y014025D01*
X001512Y014017D01*
X001461Y014013D01*
X001409Y014013D01*
X001358Y014017D01*
X001308Y014025D01*
X001258Y014037D01*
X001209Y014052D01*
X001161Y014072D01*
X001115Y014094D01*
X001071Y014120D01*
X001029Y014150D01*
X000990Y014183D01*
X000953Y014218D01*
X000919Y014256D01*
X000888Y014297D01*
X000860Y014340D01*
X000835Y014385D01*
X000815Y014432D01*
X000797Y014480D01*
X000784Y014530D01*
X000774Y014580D01*
X000768Y014631D01*
X000766Y014682D01*
X000254Y014682D02*
X000256Y014751D01*
X000262Y014819D01*
X000272Y014887D01*
X000286Y014954D01*
X000304Y015021D01*
X000325Y015086D01*
X000351Y015150D01*
X000380Y015212D01*
X000412Y015272D01*
X000448Y015331D01*
X000488Y015387D01*
X000530Y015441D01*
X000576Y015492D01*
X000625Y015541D01*
X000676Y015587D01*
X000730Y015629D01*
X000786Y015669D01*
X000844Y015705D01*
X000905Y015737D01*
X000967Y015766D01*
X001031Y015792D01*
X001096Y015813D01*
X001163Y015831D01*
X001230Y015845D01*
X001298Y015855D01*
X001366Y015861D01*
X001435Y015863D01*
X001504Y015861D01*
X001572Y015855D01*
X001640Y015845D01*
X001707Y015831D01*
X001774Y015813D01*
X001839Y015792D01*
X001903Y015766D01*
X001965Y015737D01*
X002025Y015705D01*
X002084Y015669D01*
X002140Y015629D01*
X002194Y015587D01*
X002245Y015541D01*
X002294Y015492D01*
X002340Y015441D01*
X002382Y015387D01*
X002422Y015331D01*
X002458Y015273D01*
X002490Y015212D01*
X002519Y015150D01*
X002545Y015086D01*
X002566Y015021D01*
X002584Y014954D01*
X002598Y014887D01*
X002608Y014819D01*
X002614Y014751D01*
X002616Y014682D01*
X002614Y014613D01*
X002608Y014545D01*
X002598Y014477D01*
X002584Y014410D01*
X002566Y014343D01*
X002545Y014278D01*
X002519Y014214D01*
X002490Y014152D01*
X002458Y014091D01*
X002422Y014033D01*
X002382Y013977D01*
X002340Y013923D01*
X002294Y013872D01*
X002245Y013823D01*
X002194Y013777D01*
X002140Y013735D01*
X002084Y013695D01*
X002026Y013659D01*
X001965Y013627D01*
X001903Y013598D01*
X001839Y013572D01*
X001774Y013551D01*
X001707Y013533D01*
X001640Y013519D01*
X001572Y013509D01*
X001504Y013503D01*
X001435Y013501D01*
X001366Y013503D01*
X001298Y013509D01*
X001230Y013519D01*
X001163Y013533D01*
X001096Y013551D01*
X001031Y013572D01*
X000967Y013598D01*
X000905Y013627D01*
X000844Y013659D01*
X000786Y013695D01*
X000730Y013735D01*
X000676Y013777D01*
X000625Y013823D01*
X000576Y013872D01*
X000530Y013923D01*
X000488Y013977D01*
X000448Y014033D01*
X000412Y014091D01*
X000380Y014152D01*
X000351Y014214D01*
X000325Y014278D01*
X000304Y014343D01*
X000286Y014410D01*
X000272Y014477D01*
X000262Y014545D01*
X000256Y014613D01*
X000254Y014682D01*
X006631Y014091D02*
X006631Y015666D01*
X007301Y015666D01*
X007314Y015961D02*
X007313Y013815D01*
X007313Y013756D01*
X008624Y013757D01*
X008639Y013756D01*
X008295Y013347D02*
X008255Y013347D01*
X008215Y013306D01*
X008175Y013347D01*
X008135Y013347D01*
X008095Y013306D01*
X008095Y013226D01*
X008135Y013186D01*
X008215Y013266D02*
X008215Y013306D01*
X008295Y013347D02*
X008335Y013306D01*
X008335Y013226D01*
X008295Y013186D01*
X008295Y013052D02*
X008135Y012892D01*
X008095Y012932D01*
X008095Y013012D01*
X008135Y013052D01*
X008295Y013052D01*
X008335Y013012D01*
X008335Y012932D01*
X008295Y012892D01*
X008135Y012892D01*
X008095Y012757D02*
X008255Y012757D01*
X008335Y012677D01*
X008255Y012597D01*
X008095Y012597D01*
X008215Y012597D02*
X008215Y012757D01*
X008175Y012463D02*
X008135Y012463D01*
X008095Y012423D01*
X008095Y012342D01*
X008135Y012302D01*
X008215Y012342D02*
X008215Y012423D01*
X008175Y012463D01*
X008295Y012463D02*
X008335Y012423D01*
X008335Y012342D01*
X008295Y012302D01*
X008255Y012302D01*
X008215Y012342D01*
X008335Y012168D02*
X008335Y012008D01*
X008095Y012008D01*
X008215Y012008D02*
X008215Y012088D01*
X008335Y011579D02*
X008095Y011579D01*
X008095Y011419D02*
X008335Y011419D01*
X008255Y011499D01*
X008335Y011579D01*
X008295Y011284D02*
X008135Y011284D01*
X008095Y011244D01*
X008095Y011164D01*
X008135Y011124D01*
X008295Y011124D01*
X008335Y011164D01*
X008335Y011244D01*
X008295Y011284D01*
X008295Y010989D02*
X008335Y010949D01*
X008335Y010869D01*
X008295Y010829D01*
X008135Y010829D01*
X008095Y010869D01*
X008095Y010949D01*
X008135Y010989D01*
X008095Y010695D02*
X008095Y010535D01*
X008335Y010535D01*
X008255Y010400D02*
X008095Y010400D01*
X008215Y010400D02*
X008215Y010240D01*
X008255Y010240D02*
X008095Y010240D01*
X008255Y010240D02*
X008335Y010320D01*
X008255Y010400D01*
X008335Y010105D02*
X008335Y009945D01*
X008095Y009945D01*
X008215Y009945D02*
X008215Y010025D01*
X008265Y009741D02*
X008049Y009741D01*
X008029Y009741D02*
X007281Y009741D01*
X007281Y008028D01*
X008265Y008028D01*
X008265Y009741D01*
X008915Y009741D01*
X009131Y009957D01*
X010667Y009957D01*
X010824Y010115D01*
X010922Y009679D02*
X010712Y009679D01*
X010641Y009609D01*
X010641Y009469D01*
X010712Y009399D01*
X010922Y009399D01*
X010922Y009259D02*
X010922Y009679D01*
X011102Y009609D02*
X011172Y009679D01*
X011312Y009679D01*
X011382Y009609D01*
X011382Y009329D01*
X011312Y009259D01*
X011172Y009259D01*
X011102Y009329D01*
X011102Y009469D01*
X011242Y009469D01*
X010720Y008943D02*
X010760Y008903D01*
X010760Y008743D01*
X010720Y008703D01*
X010640Y008703D01*
X010600Y008743D01*
X010466Y008743D02*
X010426Y008703D01*
X010346Y008703D01*
X010306Y008743D01*
X010306Y008783D01*
X010346Y008823D01*
X010386Y008823D01*
X010346Y008823D02*
X010306Y008863D01*
X010306Y008903D01*
X010346Y008943D01*
X010426Y008943D01*
X010466Y008903D01*
X010600Y008903D02*
X010640Y008943D01*
X010720Y008943D01*
X010391Y009259D02*
X010461Y009329D01*
X010391Y009259D02*
X010251Y009259D01*
X010181Y009329D01*
X010181Y009399D01*
X010251Y009469D01*
X010391Y009469D01*
X010461Y009539D01*
X010461Y009609D01*
X010391Y009679D01*
X010251Y009679D01*
X010181Y009609D01*
X010074Y010130D02*
X011574Y010130D01*
X011824Y010380D01*
X011824Y010880D01*
X011574Y011130D01*
X010074Y011130D01*
X009824Y010880D01*
X009824Y010380D01*
X010074Y010130D01*
X009407Y009741D02*
X008915Y009741D01*
X008913Y009555D02*
X008753Y009314D01*
X008753Y009555D01*
X008619Y009555D02*
X008499Y009555D01*
X008459Y009515D01*
X008459Y009354D01*
X008499Y009314D01*
X008619Y009314D01*
X008619Y009555D01*
X008913Y009555D02*
X008913Y009314D01*
X009048Y009354D02*
X009048Y009435D01*
X009128Y009435D01*
X009208Y009515D02*
X009208Y009354D01*
X009168Y009314D01*
X009088Y009314D01*
X009048Y009354D01*
X009048Y009515D02*
X009088Y009555D01*
X009168Y009555D01*
X009208Y009515D01*
X009407Y009741D02*
X009407Y008028D01*
X008265Y008028D01*
X008105Y008212D02*
X008145Y008252D01*
X008105Y008212D02*
X008025Y008212D01*
X007985Y008252D01*
X007985Y008292D01*
X008025Y008332D01*
X008065Y008332D01*
X008025Y008332D02*
X007985Y008372D01*
X007985Y008412D01*
X008025Y008452D01*
X008105Y008452D01*
X008145Y008412D01*
X007850Y008452D02*
X007850Y008292D01*
X007770Y008212D01*
X007690Y008292D01*
X007690Y008452D01*
X007556Y008412D02*
X007516Y008452D01*
X007436Y008452D01*
X007396Y008412D01*
X007396Y008372D01*
X007436Y008332D01*
X007396Y008292D01*
X007396Y008252D01*
X007436Y008212D01*
X007516Y008212D01*
X007556Y008252D01*
X007476Y008332D02*
X007436Y008332D01*
X007301Y008599D02*
X009387Y008599D01*
X009208Y008763D02*
X009088Y008763D01*
X009048Y008803D01*
X009048Y008843D01*
X009088Y008883D01*
X009208Y008883D01*
X009208Y008763D02*
X009208Y009004D01*
X009088Y009004D01*
X009048Y008963D01*
X009048Y008923D01*
X009088Y008883D01*
X008913Y008883D02*
X008753Y008883D01*
X008753Y008923D02*
X008753Y008763D01*
X008913Y008763D02*
X008913Y008923D01*
X008833Y009004D01*
X008753Y008923D01*
X008619Y009004D02*
X008459Y009004D01*
X008539Y009004D02*
X008539Y008763D01*
X008616Y008452D02*
X008616Y008212D01*
X008776Y008212D02*
X008776Y008452D01*
X008696Y008372D01*
X008616Y008452D01*
X008911Y008452D02*
X009071Y008452D01*
X008991Y008452D02*
X008991Y008212D01*
X008007Y008763D02*
X008007Y009004D01*
X008087Y009004D02*
X007926Y009004D01*
X007792Y009004D02*
X007632Y008763D01*
X007792Y008763D02*
X007632Y009004D01*
X007553Y009314D02*
X007713Y009555D01*
X007848Y009515D02*
X007888Y009555D01*
X008008Y009555D01*
X008008Y009314D01*
X008008Y009395D02*
X007888Y009395D01*
X007848Y009435D01*
X007848Y009515D01*
X007928Y009395D02*
X007848Y009314D01*
X007713Y009314D02*
X007553Y009555D01*
X007301Y009150D02*
X009387Y009150D01*
X010011Y008903D02*
X010011Y008863D01*
X010051Y008823D01*
X010131Y008823D01*
X010171Y008863D01*
X010171Y008903D01*
X010131Y008943D01*
X010051Y008943D01*
X010011Y008903D01*
X010051Y008823D02*
X010011Y008783D01*
X010011Y008743D01*
X010051Y008703D01*
X010131Y008703D01*
X010171Y008743D01*
X010171Y008783D01*
X010131Y008823D01*
X010549Y008414D02*
X010549Y008390D01*
X011986Y007134D02*
X012419Y007134D01*
X012419Y008067D01*
X012525Y008044D02*
X012525Y006374D01*
X012348Y006653D02*
X012268Y006653D01*
X012227Y006693D01*
X012227Y006894D01*
X012388Y006894D02*
X012388Y006693D01*
X012348Y006653D01*
X012093Y006653D02*
X011973Y006653D01*
X011933Y006693D01*
X011973Y006733D01*
X012053Y006733D01*
X012093Y006773D01*
X012053Y006813D01*
X011933Y006813D01*
X011798Y006773D02*
X011758Y006813D01*
X011678Y006813D01*
X011638Y006773D01*
X011638Y006733D01*
X011798Y006733D01*
X011798Y006693D02*
X011798Y006773D01*
X011798Y006693D02*
X011758Y006653D01*
X011678Y006653D01*
X011558Y006557D02*
X011518Y006557D01*
X011518Y006317D01*
X011558Y006317D02*
X011478Y006317D01*
X011361Y006317D02*
X011281Y006317D01*
X011321Y006317D02*
X011321Y006557D01*
X011361Y006557D01*
X011209Y006693D02*
X011169Y006653D01*
X011089Y006653D01*
X011049Y006693D01*
X011049Y006733D01*
X011089Y006773D01*
X011129Y006773D01*
X011089Y006773D02*
X011049Y006813D01*
X011049Y006854D01*
X011089Y006894D01*
X011169Y006894D01*
X011209Y006854D01*
X010914Y006894D02*
X010914Y006733D01*
X010834Y006653D01*
X010754Y006733D01*
X010754Y006894D01*
X011005Y006477D02*
X011125Y006477D01*
X011165Y006437D01*
X011125Y006397D01*
X011045Y006397D01*
X011005Y006357D01*
X011045Y006317D01*
X011165Y006317D01*
X011102Y006020D02*
X010982Y006020D01*
X010942Y005980D01*
X010942Y005900D01*
X010982Y005860D01*
X011102Y005860D01*
X011102Y005780D02*
X011102Y006020D01*
X011102Y005686D02*
X011102Y005445D01*
X010942Y005445D01*
X010807Y005445D02*
X010807Y005686D01*
X010647Y005686D01*
X010647Y005780D02*
X010647Y006020D01*
X010513Y006020D02*
X010513Y005780D01*
X010513Y005860D02*
X010392Y005860D01*
X010352Y005900D01*
X010352Y005980D01*
X010392Y006020D01*
X010513Y006020D01*
X010432Y005860D02*
X010352Y005780D01*
X010392Y005686D02*
X010513Y005686D01*
X010513Y005445D01*
X010392Y005445D01*
X010352Y005485D01*
X010352Y005646D01*
X010392Y005686D01*
X010647Y005780D02*
X010727Y005860D01*
X010807Y005780D01*
X010807Y006020D01*
X010807Y005566D02*
X010727Y005566D01*
X010807Y005445D02*
X010647Y005445D01*
X010631Y004886D02*
X010450Y004886D01*
X010358Y004764D01*
X010269Y004886D02*
X010450Y004886D01*
X010460Y004880D02*
X010536Y004764D01*
X010170Y004632D02*
X010170Y004392D01*
X010170Y004472D02*
X010050Y004472D01*
X010010Y004512D01*
X010010Y004592D01*
X010050Y004632D01*
X010170Y004632D01*
X010090Y004472D02*
X010010Y004392D01*
X009875Y004392D02*
X009715Y004392D01*
X009795Y004392D02*
X009795Y004632D01*
X009875Y004552D01*
X009581Y004512D02*
X009460Y004632D01*
X009460Y004392D01*
X009420Y004512D02*
X009581Y004512D01*
X009250Y004159D02*
X009250Y006739D01*
X007950Y006739D01*
X007950Y004159D01*
X009250Y004159D01*
X009100Y004316D02*
X009100Y004436D01*
X009060Y004476D01*
X008980Y004476D01*
X008940Y004436D01*
X008940Y004316D01*
X008860Y004316D02*
X009100Y004316D01*
X008940Y004396D02*
X008860Y004476D01*
X008860Y004611D02*
X008860Y004771D01*
X008900Y004906D02*
X008860Y004946D01*
X008860Y005026D01*
X008900Y005066D01*
X008980Y005066D01*
X008980Y004986D01*
X009060Y005066D02*
X009100Y005026D01*
X009100Y004946D01*
X009060Y004906D01*
X008900Y004906D01*
X008980Y004691D02*
X008980Y004611D01*
X009100Y004611D02*
X008860Y004611D01*
X009100Y004611D02*
X009100Y004771D01*
X009020Y005200D02*
X009100Y005280D01*
X008860Y005280D01*
X008860Y005200D02*
X008860Y005360D01*
X008900Y005495D02*
X009060Y005655D01*
X008900Y005655D01*
X008860Y005615D01*
X008860Y005535D01*
X008900Y005495D01*
X009060Y005495D01*
X009100Y005535D01*
X009100Y005615D01*
X009060Y005655D01*
X008980Y005789D02*
X008980Y005950D01*
X008860Y005910D02*
X009100Y005910D01*
X008980Y005789D01*
X008900Y006084D02*
X008860Y006124D01*
X008860Y006204D01*
X008900Y006244D01*
X008980Y006244D01*
X008980Y006164D01*
X009060Y006084D02*
X008900Y006084D01*
X009060Y006084D02*
X009100Y006124D01*
X009100Y006204D01*
X009060Y006244D01*
X009020Y006379D02*
X009100Y006459D01*
X009020Y006539D01*
X008860Y006539D01*
X008980Y006539D02*
X008980Y006379D01*
X009020Y006379D02*
X008860Y006379D01*
X008726Y006383D02*
X008726Y006543D01*
X008646Y006503D02*
X008606Y006543D01*
X008526Y006543D01*
X008486Y006503D01*
X008486Y006423D01*
X008526Y006383D01*
X008606Y006383D02*
X008646Y006463D01*
X008646Y006503D01*
X008606Y006383D02*
X008726Y006383D01*
X008606Y006248D02*
X008606Y006088D01*
X009391Y006464D02*
X009391Y006544D01*
X009431Y006584D01*
X009632Y006584D01*
X009632Y006719D02*
X009632Y006879D01*
X009592Y006879D01*
X009431Y006719D01*
X009391Y006719D01*
X009391Y006464D02*
X009431Y006424D01*
X009632Y006424D01*
X011692Y006437D02*
X011692Y006397D01*
X011852Y006397D01*
X011852Y006357D02*
X011852Y006437D01*
X011812Y006477D01*
X011732Y006477D01*
X011692Y006437D01*
X011732Y006317D02*
X011812Y006317D01*
X011852Y006357D01*
X011987Y006317D02*
X012107Y006317D01*
X012147Y006357D01*
X012147Y006437D01*
X012107Y006477D01*
X011987Y006477D01*
X012381Y005285D02*
X012341Y005245D01*
X012341Y005165D01*
X012381Y005125D01*
X012501Y005125D01*
X012501Y005045D02*
X012501Y005285D01*
X012381Y005285D01*
X012635Y005285D02*
X012635Y005125D01*
X012755Y005125D01*
X012795Y005165D01*
X012795Y005285D01*
X012921Y005285D02*
X013041Y005205D01*
X012921Y005125D01*
X013041Y005125D02*
X013041Y005365D01*
X013175Y005285D02*
X013296Y005285D01*
X013336Y005245D01*
X013336Y005165D01*
X013296Y005125D01*
X013175Y005125D01*
X013177Y004872D02*
X013137Y004832D01*
X013097Y004872D01*
X013057Y004832D01*
X013057Y004712D01*
X013137Y004712D02*
X013137Y004832D01*
X013177Y004872D02*
X013217Y004872D01*
X013217Y004712D01*
X013352Y004712D02*
X013352Y004872D01*
X013512Y004872D02*
X013512Y004752D01*
X013472Y004712D01*
X013352Y004712D01*
X013628Y004672D02*
X013628Y004872D01*
X013628Y004952D02*
X013628Y004992D01*
X013590Y005125D02*
X013630Y005165D01*
X013590Y005205D01*
X013470Y005205D01*
X013470Y005245D02*
X013470Y005125D01*
X013590Y005125D01*
X013590Y005285D02*
X013510Y005285D01*
X013470Y005245D01*
X013765Y005205D02*
X013765Y005165D01*
X013805Y005125D01*
X013925Y005125D01*
X013925Y005365D01*
X013805Y005365D01*
X013765Y005325D01*
X013765Y005285D01*
X013805Y005245D01*
X013925Y005245D01*
X013805Y005245D02*
X013765Y005205D01*
X014137Y004832D02*
X014137Y004792D01*
X014297Y004792D01*
X014297Y004832D02*
X014257Y004872D01*
X014177Y004872D01*
X014137Y004832D01*
X014177Y004712D02*
X014257Y004712D01*
X014297Y004752D01*
X014297Y004832D01*
X014432Y004872D02*
X014552Y004872D01*
X014592Y004832D01*
X014552Y004792D01*
X014472Y004792D01*
X014432Y004752D01*
X014472Y004712D01*
X014592Y004712D01*
X014727Y004712D02*
X014727Y004872D01*
X014887Y004872D02*
X014887Y004752D01*
X014847Y004712D01*
X014727Y004712D01*
X015003Y004712D02*
X015083Y004792D01*
X015083Y004872D01*
X015003Y004952D01*
X014907Y005125D02*
X014907Y005285D01*
X014827Y005365D01*
X014747Y005285D01*
X014747Y005125D01*
X014747Y005245D02*
X014907Y005245D01*
X014612Y005125D02*
X014532Y005125D01*
X014572Y005125D02*
X014572Y005365D01*
X014612Y005365D01*
X014416Y005285D02*
X014336Y005285D01*
X014376Y005325D02*
X014376Y005165D01*
X014336Y005125D01*
X013708Y004632D02*
X013668Y004632D01*
X013628Y004672D01*
X012922Y004712D02*
X012802Y004712D01*
X012762Y004752D01*
X012762Y004832D01*
X012802Y004872D01*
X012922Y004872D01*
X012922Y004632D01*
X012628Y004752D02*
X012628Y004832D01*
X012588Y004872D01*
X012508Y004872D01*
X012468Y004832D01*
X012468Y004792D01*
X012628Y004792D01*
X012628Y004752D02*
X012588Y004712D01*
X012508Y004712D01*
X012333Y004712D02*
X012333Y004872D01*
X012253Y004872D02*
X012213Y004872D01*
X012253Y004872D02*
X012333Y004792D01*
X012088Y004712D02*
X012008Y004792D01*
X012008Y004872D01*
X012088Y004952D01*
X010706Y003776D02*
X009466Y003776D01*
X009565Y003678D01*
X009466Y003776D02*
X009072Y003776D01*
X008974Y003678D01*
X008877Y003728D02*
X008837Y003688D01*
X008757Y003688D01*
X008717Y003728D01*
X008717Y003768D01*
X008757Y003808D01*
X008797Y003808D01*
X008757Y003808D02*
X008717Y003848D01*
X008717Y003888D01*
X008757Y003928D01*
X008837Y003928D01*
X008877Y003888D01*
X008583Y003928D02*
X008583Y003768D01*
X008503Y003688D01*
X008423Y003768D01*
X008423Y003928D01*
X008288Y003888D02*
X008248Y003928D01*
X008168Y003928D01*
X008128Y003888D01*
X008288Y003728D01*
X008248Y003688D01*
X008168Y003688D01*
X008128Y003728D01*
X008128Y003888D01*
X008288Y003888D02*
X008288Y003728D01*
X008709Y003460D02*
X008749Y003500D01*
X008789Y003500D01*
X008829Y003460D01*
X008829Y003340D01*
X008749Y003340D01*
X008709Y003380D01*
X008709Y003460D01*
X008829Y003340D02*
X008909Y003420D01*
X008949Y003500D01*
X008949Y003205D02*
X008949Y003045D01*
X008829Y003045D01*
X008869Y003125D01*
X008869Y003165D01*
X008829Y003205D01*
X008749Y003205D01*
X008709Y003165D01*
X008709Y003085D01*
X008749Y003045D01*
X008749Y002911D02*
X008709Y002871D01*
X008709Y002791D01*
X008749Y002751D01*
X008909Y002751D01*
X008949Y002791D01*
X008949Y002871D01*
X008909Y002911D01*
X009257Y003087D02*
X009281Y003087D01*
X009615Y002158D02*
X008886Y002158D01*
X008434Y002158D02*
X008296Y002158D01*
X007639Y001838D02*
X007639Y001464D01*
X007804Y001135D02*
X010107Y001135D01*
X010234Y000922D02*
X010037Y000725D01*
X010234Y000528D01*
X010391Y000725D02*
X010037Y000725D01*
X010277Y001464D02*
X010277Y001838D01*
X011415Y002828D02*
X011415Y002988D01*
X011576Y002828D01*
X011536Y002788D01*
X011456Y002788D01*
X011415Y002828D01*
X011415Y002988D02*
X011456Y003028D01*
X011536Y003028D01*
X011576Y002988D01*
X011576Y002828D01*
X011710Y002828D02*
X011710Y002988D01*
X011870Y002828D01*
X011830Y002788D01*
X011750Y002788D01*
X011710Y002828D01*
X011710Y002988D02*
X011750Y003028D01*
X011830Y003028D01*
X011870Y002988D01*
X011870Y002828D01*
X012005Y002828D02*
X012005Y002908D01*
X012045Y002948D01*
X012085Y002948D01*
X012165Y002908D01*
X012165Y003028D01*
X012005Y003028D01*
X012005Y002828D02*
X012045Y002788D01*
X012125Y002788D01*
X012165Y002828D01*
X012594Y002908D02*
X012754Y002908D01*
X013183Y002788D02*
X013343Y002788D01*
X013343Y003028D01*
X013183Y003028D01*
X013263Y002908D02*
X013343Y002908D01*
X013478Y002788D02*
X013478Y003028D01*
X013638Y003028D02*
X013478Y002788D01*
X013638Y002788D02*
X013638Y003028D01*
X013773Y002988D02*
X013773Y002828D01*
X013813Y002788D01*
X013893Y002788D01*
X013933Y002828D01*
X013933Y002988D01*
X013893Y003028D01*
X013813Y003028D01*
X013773Y002988D01*
X014067Y003028D02*
X014227Y003028D01*
X014147Y003028D02*
X014147Y002788D01*
X014362Y002828D02*
X014362Y002868D01*
X014402Y002908D01*
X014482Y002908D01*
X014522Y002948D01*
X014522Y002988D01*
X014482Y003028D01*
X014402Y003028D01*
X014362Y002988D01*
X014362Y002828D02*
X014402Y002788D01*
X014482Y002788D01*
X014522Y002828D01*
X014657Y002988D02*
X014657Y003028D01*
X014657Y002988D02*
X014737Y002908D01*
X014737Y002788D01*
X014737Y002908D02*
X014817Y002988D01*
X014817Y003028D01*
X014951Y003028D02*
X015111Y003028D01*
X015111Y002788D01*
X014951Y002788D01*
X015031Y002908D02*
X015111Y002908D01*
X015246Y002788D02*
X015366Y002908D01*
X015406Y002868D02*
X015246Y003028D01*
X015406Y003028D02*
X015406Y002788D01*
X016599Y001862D02*
X016599Y001842D01*
X017024Y001842D01*
X017024Y002567D01*
X016999Y002567D01*
X016999Y001862D01*
X016599Y001862D01*
X016599Y001843D02*
X017024Y001843D01*
X017024Y001922D02*
X016999Y001922D01*
X016999Y002000D02*
X017024Y002000D01*
X017024Y002079D02*
X016999Y002079D01*
X016999Y002157D02*
X017024Y002157D01*
X017024Y002236D02*
X016999Y002236D01*
X016999Y002314D02*
X017024Y002314D01*
X017024Y002393D02*
X016999Y002393D01*
X016999Y002471D02*
X017024Y002471D01*
X017024Y002550D02*
X016999Y002550D01*
X017174Y002567D02*
X017419Y002227D01*
X017419Y001862D01*
X017419Y001842D01*
X017454Y001842D01*
X017454Y002217D01*
X017694Y002567D01*
X017669Y002567D01*
X017444Y002247D01*
X017214Y002567D01*
X017174Y002567D01*
X017186Y002550D02*
X017226Y002550D01*
X017243Y002471D02*
X017283Y002471D01*
X017299Y002393D02*
X017339Y002393D01*
X017356Y002314D02*
X017396Y002314D01*
X017413Y002236D02*
X017467Y002236D01*
X017454Y002157D02*
X017419Y002157D01*
X017419Y002079D02*
X017454Y002079D01*
X017454Y002000D02*
X017419Y002000D01*
X017419Y001922D02*
X017454Y001922D01*
X017454Y001843D02*
X017419Y001843D01*
X017491Y002314D02*
X017520Y002314D01*
X017546Y002393D02*
X017574Y002393D01*
X017602Y002471D02*
X017628Y002471D01*
X017657Y002550D02*
X017682Y002550D01*
X017844Y002552D02*
X017844Y002567D01*
X018439Y002567D01*
X018439Y002552D01*
X018159Y002552D01*
X018159Y001842D01*
X018129Y001842D01*
X018129Y002552D01*
X017844Y002552D01*
X018129Y002550D02*
X018159Y002550D01*
X018159Y002471D02*
X018129Y002471D01*
X018129Y002393D02*
X018159Y002393D01*
X018159Y002314D02*
X018129Y002314D01*
X018129Y002236D02*
X018159Y002236D01*
X018159Y002157D02*
X018129Y002157D01*
X018129Y002079D02*
X018159Y002079D01*
X018159Y002000D02*
X018129Y002000D01*
X018129Y001922D02*
X018159Y001922D01*
X018159Y001843D02*
X018129Y001843D01*
X018664Y001897D02*
X018664Y001902D01*
X018664Y001897D01*
X018664Y001917D01*
X018689Y001897D01*
X018734Y001877D01*
X018789Y001862D01*
X018879Y001862D01*
X018954Y001872D01*
X019004Y001912D01*
X019054Y001972D01*
X019089Y002042D01*
X019099Y002127D01*
X019099Y002217D01*
X019079Y002312D01*
X018999Y002402D01*
X018904Y002432D01*
X018799Y002427D01*
X018744Y002407D01*
X018674Y002372D01*
X018674Y002392D01*
X018704Y002412D01*
X018754Y002427D01*
X018794Y002437D01*
X018854Y002437D01*
X018914Y002437D01*
X018964Y002427D01*
X019004Y002407D01*
X019064Y002352D01*
X019099Y002292D01*
X019119Y002207D01*
X019124Y002142D01*
X019119Y002067D01*
X019084Y001967D01*
X019024Y001902D01*
X018969Y001867D01*
X018904Y001857D01*
X018829Y001857D01*
X018764Y001857D01*
X018734Y001862D01*
X018694Y001877D01*
X018664Y001897D01*
X019012Y001922D02*
X019042Y001922D01*
X019068Y002000D02*
X019095Y002000D01*
X019093Y002079D02*
X019120Y002079D01*
X019123Y002157D02*
X019099Y002157D01*
X019095Y002236D02*
X019112Y002236D01*
X019086Y002314D02*
X019077Y002314D01*
X019020Y002393D02*
X019007Y002393D01*
X018959Y002562D02*
X018899Y002542D01*
X018729Y002527D01*
X018624Y002482D01*
X018579Y002447D01*
X018574Y002517D01*
X018534Y002552D01*
X018584Y002582D01*
X018599Y002642D01*
X018609Y002687D01*
X018564Y002767D01*
X018494Y002817D01*
X018434Y002862D01*
X018374Y002882D01*
X018294Y002937D01*
X018169Y002972D01*
X018039Y002977D01*
X017939Y003042D01*
X017869Y003052D01*
X017739Y003052D01*
X017684Y003022D01*
X017639Y003082D01*
X017544Y003112D01*
X017434Y003102D01*
X017299Y003112D01*
X017184Y003127D01*
X017054Y003137D01*
X016954Y003137D01*
X016924Y003167D01*
X017049Y003212D01*
X017164Y003212D01*
X017254Y003242D01*
X017559Y003242D01*
X017589Y003247D01*
X017634Y003242D01*
X017694Y003237D01*
X017719Y003222D01*
X017764Y003222D01*
X017794Y003227D01*
X017889Y003212D01*
X017939Y003202D01*
X018014Y003192D01*
X018104Y003182D01*
X018179Y003162D01*
X018269Y003132D01*
X018369Y003117D01*
X018489Y003072D01*
X018589Y003012D01*
X018669Y002947D01*
X018779Y002862D01*
X018849Y002802D01*
X018929Y002762D01*
X018989Y002747D01*
X019094Y002747D01*
X019154Y002782D01*
X019184Y002817D01*
X019189Y002877D01*
X019179Y002937D01*
X019149Y002997D01*
X019094Y003082D01*
X019219Y003012D01*
X019279Y002972D01*
X019324Y002967D01*
X019384Y002947D01*
X019439Y002917D01*
X019494Y002917D01*
X019569Y002947D01*
X019679Y003007D01*
X019779Y003057D01*
X019869Y003122D01*
X019934Y003172D01*
X019979Y003167D01*
X020044Y003167D01*
X020174Y003177D01*
X020224Y003177D01*
X020279Y003182D01*
X020464Y003192D01*
X020549Y003182D01*
X020644Y003147D01*
X020694Y003122D01*
X020469Y003112D01*
X020264Y003082D01*
X020104Y003022D01*
X019949Y002947D01*
X019789Y002852D01*
X019669Y002787D01*
X019664Y002732D01*
X019614Y002752D01*
X019484Y002717D01*
X019384Y002682D01*
X019359Y002762D01*
X019399Y002812D01*
X019404Y002852D01*
X019394Y002892D01*
X019349Y002932D01*
X019269Y002927D01*
X019234Y002877D01*
X019239Y002822D01*
X019264Y002777D01*
X019334Y002762D01*
X019354Y002672D01*
X019244Y002642D01*
X019059Y002592D01*
X018959Y002562D01*
X018922Y002550D02*
X018536Y002550D01*
X018577Y002471D02*
X018610Y002471D01*
X018675Y002393D02*
X018715Y002393D01*
X018595Y002628D02*
X019193Y002628D01*
X019157Y002786D02*
X019259Y002786D01*
X019235Y002864D02*
X019188Y002864D01*
X019176Y002943D02*
X019392Y002943D01*
X019401Y002864D02*
X019809Y002864D01*
X019941Y002943D02*
X019558Y002943D01*
X019707Y003021D02*
X020102Y003021D01*
X020236Y003178D02*
X020559Y003178D01*
X020384Y003100D02*
X019838Y003100D01*
X019669Y002786D02*
X019378Y002786D01*
X019376Y002707D02*
X019455Y002707D01*
X019346Y002707D02*
X018598Y002707D01*
X018538Y002786D02*
X018882Y002786D01*
X018776Y002864D02*
X018428Y002864D01*
X018274Y002943D02*
X018675Y002943D01*
X018574Y003021D02*
X017971Y003021D01*
X018119Y003178D02*
X016955Y003178D01*
X016911Y003738D02*
X017024Y003851D01*
X016968Y003795D02*
X016798Y003965D01*
X016911Y003965D01*
X016950Y004116D02*
X017233Y004060D01*
X017120Y003947D02*
X017063Y004230D01*
X017158Y004325D02*
X017271Y004438D01*
X017215Y004381D02*
X017385Y004212D01*
X017585Y003965D02*
X017755Y003795D01*
X017812Y003851D02*
X017699Y003738D01*
X017699Y003965D02*
X017585Y003965D01*
X017737Y004116D02*
X018020Y004060D01*
X018115Y004155D02*
X018115Y004268D01*
X018087Y004240D02*
X018172Y004325D01*
X018229Y004268D02*
X018059Y004438D01*
X017974Y004353D01*
X017974Y004296D01*
X018030Y004240D01*
X018087Y004240D01*
X017850Y004230D02*
X017907Y003947D01*
X018345Y003936D02*
X018429Y004021D01*
X018599Y003851D01*
X018514Y003767D01*
X018458Y003766D01*
X018345Y003880D01*
X018345Y003936D01*
X018525Y004116D02*
X018694Y003947D01*
X018638Y004230D01*
X018808Y004060D01*
X018874Y004183D02*
X018818Y004240D01*
X018874Y004296D01*
X018874Y004183D02*
X018931Y004183D01*
X018988Y004240D01*
X018988Y004296D01*
X018874Y004410D01*
X018818Y004410D01*
X018761Y004353D01*
X018761Y004296D01*
X019132Y003936D02*
X019132Y003880D01*
X019160Y003851D01*
X019217Y003851D01*
X019217Y003795D01*
X019245Y003766D01*
X019302Y003767D01*
X019358Y003823D01*
X019358Y003880D01*
X019245Y003880D02*
X019217Y003851D01*
X019132Y003936D02*
X019189Y003993D01*
X019245Y003993D01*
X019312Y004116D02*
X019425Y004003D01*
X019538Y004003D01*
X019538Y004116D01*
X019425Y004230D01*
X019549Y004296D02*
X019577Y004268D01*
X019634Y004268D01*
X019634Y004211D01*
X019662Y004183D01*
X019718Y004183D01*
X019775Y004240D01*
X019775Y004296D01*
X019662Y004296D02*
X019634Y004268D01*
X019549Y004296D02*
X019549Y004353D01*
X019605Y004410D01*
X019662Y004410D01*
X020533Y004642D02*
X020533Y006453D01*
X016588Y006453D01*
X016588Y004642D01*
X020533Y004642D01*
X020639Y004210D02*
X025691Y004210D01*
X025691Y006508D01*
X025171Y006508D02*
X025171Y006107D01*
X021178Y006107D01*
X021178Y006548D01*
X020639Y006548D01*
X020639Y004210D01*
X020982Y003619D02*
X020982Y003323D01*
X021061Y003323D01*
X020982Y003323D02*
X020982Y002693D01*
X021061Y002693D01*
X020982Y002693D02*
X020982Y001650D01*
X020923Y001650D01*
X020923Y001374D01*
X021021Y001374D01*
X020923Y001374D02*
X020923Y000725D01*
X021061Y000725D01*
X021197Y000747D02*
X021197Y000667D01*
X021237Y000627D01*
X021317Y000627D01*
X021357Y000667D01*
X021357Y000747D02*
X021277Y000787D01*
X021237Y000787D01*
X021197Y000747D01*
X021197Y000867D02*
X021357Y000867D01*
X021357Y000747D01*
X021492Y000627D02*
X021652Y000627D01*
X021572Y000627D02*
X021572Y000867D01*
X021652Y000787D01*
X021786Y000787D02*
X021786Y000627D01*
X021786Y000747D02*
X021946Y000747D01*
X021946Y000787D02*
X021946Y000627D01*
X021946Y000787D02*
X021866Y000867D01*
X021786Y000787D01*
X022081Y000747D02*
X022121Y000707D01*
X022241Y000707D01*
X022241Y000627D02*
X022241Y000867D01*
X022121Y000867D01*
X022081Y000827D01*
X022081Y000747D01*
X021788Y001257D02*
X021668Y001257D01*
X021628Y001297D01*
X021628Y001337D01*
X021668Y001377D01*
X021788Y001377D01*
X021668Y001377D02*
X021628Y001417D01*
X021628Y001457D01*
X021668Y001497D01*
X021788Y001497D01*
X021788Y001257D01*
X021494Y001257D02*
X021334Y001257D01*
X021414Y001257D02*
X021414Y001497D01*
X021494Y001417D01*
X021199Y001417D02*
X021119Y001497D01*
X021119Y001257D01*
X021199Y001257D02*
X021039Y001257D01*
X020633Y000993D02*
X020513Y000993D01*
X020473Y000953D01*
X020473Y000913D01*
X020513Y000873D01*
X020633Y000873D01*
X020633Y000753D02*
X020633Y000993D01*
X020513Y000873D02*
X020473Y000833D01*
X020473Y000793D01*
X020513Y000753D01*
X020633Y000753D01*
X020338Y000793D02*
X020298Y000753D01*
X020218Y000753D01*
X020178Y000793D01*
X020178Y000873D01*
X020218Y000913D01*
X020298Y000913D01*
X020338Y000873D01*
X020338Y000793D01*
X020044Y000793D02*
X020004Y000753D01*
X019883Y000753D01*
X019883Y000873D01*
X019923Y000913D01*
X020004Y000913D01*
X020004Y000833D02*
X019883Y000833D01*
X020004Y000833D02*
X020044Y000793D01*
X019749Y000753D02*
X019749Y000913D01*
X019749Y000833D02*
X019669Y000913D01*
X019629Y000913D01*
X019503Y000873D02*
X019463Y000913D01*
X019343Y000913D01*
X019343Y000993D02*
X019343Y000753D01*
X019463Y000753D01*
X019503Y000793D01*
X019503Y000873D01*
X018914Y000833D02*
X018794Y000833D01*
X018754Y000873D01*
X018754Y000953D01*
X018794Y000993D01*
X018914Y000993D01*
X018914Y000753D01*
X018834Y000833D02*
X018754Y000753D01*
X018619Y000793D02*
X018579Y000753D01*
X018499Y000753D01*
X018459Y000833D02*
X018619Y000833D01*
X018619Y000793D02*
X018619Y000873D01*
X018579Y000913D01*
X018499Y000913D01*
X018459Y000873D01*
X018459Y000833D01*
X018325Y000913D02*
X018245Y000753D01*
X018165Y000913D01*
X018030Y000913D02*
X017950Y000993D01*
X017950Y000753D01*
X018030Y000753D02*
X017870Y000753D01*
X017736Y000753D02*
X017696Y000753D01*
X017696Y000793D01*
X017736Y000793D01*
X017736Y000753D01*
X017588Y000793D02*
X017428Y000953D01*
X017428Y000793D01*
X017468Y000753D01*
X017548Y000753D01*
X017588Y000793D01*
X017588Y000953D01*
X017548Y000993D01*
X017468Y000993D01*
X017428Y000953D01*
X016999Y000873D02*
X016839Y000873D01*
X016410Y000953D02*
X016370Y000993D01*
X016290Y000993D01*
X016249Y000953D01*
X016249Y000913D01*
X016410Y000753D01*
X016249Y000753D01*
X016115Y000793D02*
X015955Y000953D01*
X015955Y000793D01*
X015995Y000753D01*
X016075Y000753D01*
X016115Y000793D01*
X016115Y000953D01*
X016075Y000993D01*
X015995Y000993D01*
X015955Y000953D01*
X015820Y000913D02*
X015740Y000993D01*
X015740Y000753D01*
X015820Y000753D02*
X015660Y000753D01*
X015526Y000793D02*
X015366Y000953D01*
X015366Y000793D01*
X015406Y000753D01*
X015486Y000753D01*
X015526Y000793D01*
X015526Y000953D01*
X015486Y000993D01*
X015406Y000993D01*
X015366Y000953D01*
X017583Y003100D02*
X018415Y003100D01*
X019133Y003021D02*
X019203Y003021D01*
X019534Y002572D02*
X019614Y002572D01*
X019899Y001842D01*
X019864Y001842D01*
X019784Y002042D01*
X019524Y002042D01*
X019524Y002072D01*
X019779Y002072D01*
X019594Y002552D01*
X019554Y002552D01*
X019369Y002072D01*
X019529Y002072D01*
X019529Y002042D01*
X019364Y002042D01*
X019289Y001842D01*
X019249Y001842D01*
X019534Y002572D01*
X019525Y002550D02*
X019553Y002550D01*
X019595Y002550D02*
X019623Y002550D01*
X019625Y002471D02*
X019653Y002471D01*
X019655Y002393D02*
X019684Y002393D01*
X019686Y002314D02*
X019715Y002314D01*
X019716Y002236D02*
X019745Y002236D01*
X019746Y002157D02*
X019776Y002157D01*
X019776Y002079D02*
X019807Y002079D01*
X019801Y002000D02*
X019837Y002000D01*
X019832Y001922D02*
X019868Y001922D01*
X019864Y001843D02*
X019899Y001843D01*
X020078Y002000D02*
X020132Y002000D01*
X020144Y001987D02*
X020224Y001932D01*
X020289Y001907D01*
X020384Y001892D01*
X020469Y001887D01*
X020634Y001887D01*
X020634Y001942D01*
X020659Y001942D01*
X020659Y001852D01*
X020514Y001852D01*
X020364Y001857D01*
X020224Y001887D01*
X020124Y001947D01*
X020054Y002027D01*
X020019Y002107D01*
X020009Y002197D01*
X020009Y002337D01*
X020019Y002402D01*
X020049Y002477D01*
X020089Y002537D01*
X020154Y002592D01*
X020214Y002622D01*
X020284Y002647D01*
X020364Y002657D01*
X020454Y002662D01*
X020659Y002662D01*
X020659Y001937D01*
X020624Y001937D01*
X020624Y002632D01*
X020419Y002632D01*
X020304Y002627D01*
X020204Y002587D01*
X020119Y002517D01*
X020074Y002437D01*
X020049Y002327D01*
X020049Y002152D01*
X020099Y002037D01*
X020144Y001987D01*
X020167Y001922D02*
X020251Y001922D01*
X020081Y002079D02*
X020031Y002079D01*
X020013Y002157D02*
X020049Y002157D01*
X020049Y002236D02*
X020009Y002236D01*
X020009Y002314D02*
X020049Y002314D01*
X020064Y002393D02*
X020017Y002393D01*
X020047Y002471D02*
X020093Y002471D01*
X020104Y002550D02*
X020159Y002550D01*
X020232Y002628D02*
X020334Y002628D01*
X020624Y002628D02*
X020659Y002628D01*
X020659Y002550D02*
X020624Y002550D01*
X020624Y002471D02*
X020659Y002471D01*
X020659Y002393D02*
X020624Y002393D01*
X020624Y002314D02*
X020659Y002314D01*
X020659Y002236D02*
X020624Y002236D01*
X020624Y002157D02*
X020659Y002157D01*
X020659Y002079D02*
X020624Y002079D01*
X020624Y002000D02*
X020659Y002000D01*
X020659Y001922D02*
X020634Y001922D01*
X021002Y002004D02*
X021061Y002004D01*
X021197Y001947D02*
X021237Y001907D01*
X021317Y001907D01*
X021357Y001947D01*
X021197Y002107D01*
X021197Y001947D01*
X021197Y002107D02*
X021237Y002147D01*
X021317Y002147D01*
X021357Y002107D01*
X021357Y001947D01*
X021492Y001907D02*
X021652Y001907D01*
X021572Y001907D02*
X021572Y002147D01*
X021652Y002067D01*
X021786Y002067D02*
X021826Y002027D01*
X021946Y002027D01*
X021826Y002027D02*
X021786Y001987D01*
X021786Y001947D01*
X021826Y001907D01*
X021946Y001907D01*
X021946Y002147D01*
X021826Y002147D01*
X021786Y002107D01*
X021786Y002067D01*
X022081Y002107D02*
X022081Y002027D01*
X022121Y001987D01*
X022241Y001987D01*
X022241Y001907D02*
X022241Y002147D01*
X022121Y002147D01*
X022081Y002107D01*
X022200Y002438D02*
X022360Y002438D01*
X022200Y002598D01*
X022360Y002598D01*
X022495Y002558D02*
X022495Y002438D01*
X022495Y002558D02*
X022535Y002598D01*
X022615Y002598D01*
X022655Y002558D01*
X022655Y002678D02*
X022655Y002438D01*
X022790Y002438D02*
X022790Y002678D01*
X022870Y002598D01*
X022950Y002678D01*
X022950Y002438D01*
X023265Y002497D02*
X022990Y002772D01*
X022281Y002772D01*
X022221Y002871D02*
X022221Y003111D01*
X022341Y002991D01*
X022181Y002991D01*
X022475Y002951D02*
X022475Y002911D01*
X022515Y002871D01*
X022595Y002871D01*
X022635Y002911D01*
X022555Y002991D02*
X022515Y002991D01*
X022475Y002951D01*
X022515Y002991D02*
X022475Y003031D01*
X022475Y003071D01*
X022515Y003111D01*
X022595Y003111D01*
X022635Y003071D01*
X022770Y002991D02*
X022930Y002991D01*
X022810Y003111D01*
X022810Y002871D01*
X022990Y002772D02*
X023265Y002772D01*
X023265Y002497D01*
X023265Y002772D02*
X023265Y003048D01*
X022990Y002772D01*
X021774Y002792D02*
X021734Y002752D01*
X021694Y002752D01*
X021654Y002792D01*
X021654Y002873D01*
X021614Y002913D01*
X021574Y002913D01*
X021534Y002873D01*
X021534Y002792D01*
X021574Y002752D01*
X021534Y002618D02*
X021614Y002538D01*
X021614Y002578D02*
X021614Y002458D01*
X021534Y002458D02*
X021774Y002458D01*
X021774Y002578D01*
X021734Y002618D01*
X021654Y002618D01*
X021614Y002578D01*
X021355Y002576D02*
X021235Y002576D01*
X021195Y002616D01*
X021195Y002656D01*
X021235Y002696D01*
X021355Y002696D01*
X021235Y002696D02*
X021195Y002736D01*
X021195Y002776D01*
X021235Y002816D01*
X021355Y002816D01*
X021355Y002576D01*
X021774Y002792D02*
X021774Y002873D01*
X021734Y002913D01*
X021654Y003047D02*
X021654Y003207D01*
X021774Y003167D02*
X021654Y003047D01*
X021534Y003167D02*
X021774Y003167D01*
X021734Y003342D02*
X021694Y003342D01*
X021654Y003382D01*
X021654Y003462D01*
X021614Y003502D01*
X021574Y003502D01*
X021534Y003462D01*
X021534Y003382D01*
X021574Y003342D01*
X021614Y003342D01*
X021654Y003382D01*
X021654Y003462D02*
X021694Y003502D01*
X021734Y003502D01*
X021774Y003462D01*
X021774Y003382D01*
X021734Y003342D01*
X021374Y003341D02*
X021294Y003421D01*
X021214Y003341D01*
X021214Y003181D01*
X021214Y003301D02*
X021374Y003301D01*
X021374Y003341D02*
X021374Y003181D01*
X021574Y003636D02*
X021534Y003676D01*
X021534Y003756D01*
X021574Y003796D01*
X021654Y003796D01*
X021694Y003756D01*
X021694Y003716D01*
X021654Y003636D01*
X021774Y003636D01*
X021774Y003796D01*
X021553Y004189D02*
X020982Y003619D01*
X019523Y002471D02*
X019495Y002471D01*
X019493Y002393D02*
X019464Y002393D01*
X019462Y002314D02*
X019433Y002314D01*
X019432Y002236D02*
X019403Y002236D01*
X019402Y002157D02*
X019372Y002157D01*
X019371Y002079D02*
X019341Y002079D01*
X019348Y002000D02*
X019311Y002000D01*
X019319Y001922D02*
X019280Y001922D01*
X019289Y001843D02*
X019249Y001843D01*
X016548Y004898D02*
X016416Y004806D01*
X016361Y004816D01*
X016315Y004881D01*
X016325Y004937D01*
X016280Y005070D02*
X016211Y005169D01*
X016221Y005224D01*
X016287Y005270D01*
X016343Y005260D01*
X016411Y005162D01*
X016215Y005024D01*
X016234Y005136D02*
X016123Y005155D01*
X016046Y005266D02*
X015954Y005397D01*
X016000Y005331D02*
X016197Y005469D01*
X016177Y005357D01*
X016041Y005622D02*
X016051Y005677D01*
X016005Y005743D01*
X015949Y005753D01*
X015916Y005730D01*
X015877Y005507D01*
X015785Y005638D01*
X015708Y005748D02*
X015616Y005879D01*
X015662Y005814D02*
X015859Y005952D01*
X015839Y005840D01*
X015637Y006059D02*
X015568Y006157D01*
X015512Y006167D01*
X015480Y006144D01*
X015470Y006088D01*
X015516Y006022D01*
X015572Y006013D01*
X015637Y006059D01*
X015657Y006170D01*
X015644Y006259D01*
X016088Y006272D02*
X015112Y006272D01*
X014525Y006374D02*
X014525Y008044D01*
X012525Y008044D01*
X013797Y008126D02*
X014427Y008126D01*
X014427Y008127D02*
X014443Y008132D01*
X014459Y008140D01*
X014473Y008150D01*
X014485Y008162D01*
X014495Y008177D01*
X014502Y008193D01*
X014506Y008210D01*
X014507Y008227D01*
X014505Y008245D01*
X014646Y008706D02*
X014646Y008946D01*
X014806Y008946D02*
X014646Y008706D01*
X014806Y008706D02*
X014806Y008946D01*
X014941Y008946D02*
X015101Y008946D01*
X015101Y008706D01*
X014941Y008706D01*
X015021Y008826D02*
X015101Y008826D01*
X014927Y009131D02*
X014927Y009552D01*
X014717Y009552D01*
X014646Y009482D01*
X014646Y009342D01*
X014717Y009272D01*
X014927Y009272D01*
X015107Y009342D02*
X015387Y009342D01*
X015567Y009131D02*
X015847Y009131D01*
X015707Y009131D02*
X015707Y009552D01*
X015847Y009412D01*
X016028Y009482D02*
X016098Y009552D01*
X016238Y009552D01*
X016308Y009482D01*
X016308Y009202D01*
X016238Y009131D01*
X016098Y009131D01*
X016028Y009202D01*
X015985Y008946D02*
X015825Y008946D01*
X015905Y008946D02*
X015905Y008706D01*
X016120Y008706D02*
X016200Y008786D01*
X016160Y008786D02*
X016280Y008786D01*
X016280Y008706D02*
X016280Y008946D01*
X016160Y008946D01*
X016120Y008906D01*
X016120Y008826D01*
X016160Y008786D01*
X015690Y008746D02*
X015650Y008706D01*
X015570Y008706D01*
X015530Y008746D01*
X015530Y008906D02*
X015570Y008946D01*
X015650Y008946D01*
X015690Y008906D01*
X015690Y008746D01*
X016088Y008272D02*
X015100Y008272D01*
X014600Y007878D02*
X014600Y006666D01*
X015100Y007272D02*
X015102Y007316D01*
X015108Y007360D01*
X015118Y007403D01*
X015131Y007445D01*
X015148Y007486D01*
X015169Y007525D01*
X015193Y007562D01*
X015220Y007597D01*
X015250Y007629D01*
X015283Y007659D01*
X015319Y007685D01*
X015356Y007709D01*
X015396Y007728D01*
X015437Y007745D01*
X015480Y007757D01*
X015523Y007766D01*
X015567Y007771D01*
X015611Y007772D01*
X015655Y007769D01*
X015699Y007762D01*
X015742Y007751D01*
X015784Y007737D01*
X015824Y007719D01*
X015863Y007697D01*
X015899Y007673D01*
X015933Y007645D01*
X015965Y007614D01*
X015994Y007580D01*
X016020Y007544D01*
X016042Y007506D01*
X016061Y007466D01*
X016076Y007424D01*
X016088Y007382D01*
X016096Y007338D01*
X016100Y007294D01*
X016100Y007250D01*
X016096Y007206D01*
X016088Y007162D01*
X016076Y007120D01*
X016061Y007078D01*
X016042Y007038D01*
X016020Y007000D01*
X015994Y006964D01*
X015965Y006930D01*
X015933Y006899D01*
X015899Y006871D01*
X015863Y006847D01*
X015824Y006825D01*
X015784Y006807D01*
X015742Y006793D01*
X015699Y006782D01*
X015655Y006775D01*
X015611Y006772D01*
X015567Y006773D01*
X015523Y006778D01*
X015480Y006787D01*
X015437Y006799D01*
X015396Y006816D01*
X015356Y006835D01*
X015319Y006859D01*
X015283Y006885D01*
X015250Y006915D01*
X015220Y006947D01*
X015193Y006982D01*
X015169Y007019D01*
X015148Y007058D01*
X015131Y007099D01*
X015118Y007141D01*
X015108Y007184D01*
X015102Y007228D01*
X015100Y007272D01*
X013797Y008127D02*
X013781Y008132D01*
X013765Y008140D01*
X013751Y008150D01*
X013739Y008162D01*
X013729Y008177D01*
X013722Y008193D01*
X013718Y008210D01*
X013717Y008227D01*
X013719Y008245D01*
X013719Y008795D02*
X013717Y008813D01*
X013718Y008830D01*
X013722Y008847D01*
X013729Y008863D01*
X013739Y008878D01*
X013751Y008890D01*
X013765Y008900D01*
X013781Y008908D01*
X013797Y008913D01*
X013797Y008914D02*
X014427Y008914D01*
X014427Y008913D02*
X014443Y008908D01*
X014459Y008900D01*
X014473Y008890D01*
X014485Y008878D01*
X014495Y008863D01*
X014502Y008847D01*
X014506Y008830D01*
X014507Y008813D01*
X014505Y008795D01*
X014466Y009131D02*
X014186Y009131D01*
X014006Y009131D02*
X014006Y009552D01*
X013796Y009552D01*
X013726Y009482D01*
X013726Y009342D01*
X013796Y009272D01*
X014006Y009272D01*
X013866Y009272D02*
X013726Y009131D01*
X013546Y009131D02*
X013406Y009131D01*
X013476Y009131D02*
X013476Y009552D01*
X013546Y009552D02*
X013406Y009552D01*
X013239Y009552D02*
X012959Y009552D01*
X013099Y009342D02*
X013239Y009342D01*
X013239Y009552D02*
X013239Y009131D01*
X012750Y009741D02*
X012750Y011552D01*
X016694Y011552D01*
X016694Y009741D01*
X012750Y009741D01*
X014186Y009552D02*
X014466Y009552D01*
X014466Y009131D01*
X014466Y009342D02*
X014326Y009342D01*
X016488Y009412D02*
X016488Y009482D01*
X016558Y009552D01*
X016698Y009552D01*
X016768Y009482D01*
X016935Y009552D02*
X017075Y009552D01*
X017005Y009552D02*
X017005Y009131D01*
X017075Y009131D02*
X016935Y009131D01*
X016768Y009131D02*
X016488Y009412D01*
X016488Y009131D02*
X016768Y009131D01*
X017506Y009678D02*
X018718Y009678D01*
X018702Y009544D02*
X018782Y009544D01*
X018822Y009504D01*
X018822Y009464D01*
X018782Y009424D01*
X018702Y009424D01*
X018662Y009384D01*
X018662Y009344D01*
X018702Y009304D01*
X018782Y009304D01*
X018822Y009344D01*
X018957Y009304D02*
X019117Y009304D01*
X019117Y009544D01*
X018957Y009544D01*
X019037Y009424D02*
X019117Y009424D01*
X019251Y009424D02*
X019291Y009384D01*
X019412Y009384D01*
X019412Y009304D02*
X019412Y009544D01*
X019291Y009544D01*
X019251Y009504D01*
X019251Y009424D01*
X019332Y009384D02*
X019251Y009304D01*
X019228Y008976D02*
X019188Y008976D01*
X019148Y008936D01*
X019148Y008856D01*
X019188Y008816D01*
X019268Y008896D02*
X019268Y008936D01*
X019228Y008976D01*
X019268Y008936D02*
X019308Y008976D01*
X019349Y008976D01*
X019389Y008936D01*
X019389Y008856D01*
X019349Y008816D01*
X019389Y008681D02*
X019188Y008681D01*
X019148Y008641D01*
X019148Y008561D01*
X019188Y008521D01*
X019389Y008521D01*
X019640Y008595D02*
X019640Y006666D01*
X024837Y006666D01*
X024958Y006552D02*
X021178Y006548D01*
X022131Y007134D02*
X022211Y007054D01*
X022291Y007054D01*
X022371Y007134D01*
X022331Y007251D02*
X022371Y007291D01*
X022371Y007371D01*
X022331Y007411D01*
X022291Y007411D01*
X022251Y007371D01*
X022211Y007411D01*
X022171Y007411D01*
X022131Y007371D01*
X022131Y007291D01*
X022171Y007251D01*
X022251Y007331D02*
X022251Y007371D01*
X022131Y007545D02*
X022371Y007545D01*
X022291Y007625D01*
X022371Y007705D01*
X022131Y007705D01*
X022251Y007840D02*
X022251Y008000D01*
X022331Y008135D02*
X022371Y008175D01*
X022371Y008255D01*
X022331Y008295D01*
X022291Y008295D01*
X022131Y008135D01*
X022131Y008295D01*
X022171Y008429D02*
X022131Y008469D01*
X022131Y008549D01*
X022171Y008589D01*
X022331Y008589D01*
X022371Y008549D01*
X022371Y008469D01*
X022331Y008429D01*
X022291Y008429D01*
X022251Y008469D01*
X022251Y008589D01*
X022331Y008724D02*
X022371Y008764D01*
X022371Y008844D01*
X022331Y008884D01*
X022171Y008724D01*
X022131Y008764D01*
X022131Y008844D01*
X022171Y008884D01*
X022331Y008884D01*
X022331Y009019D02*
X022291Y009019D01*
X022251Y009059D01*
X022251Y009139D01*
X022211Y009179D01*
X022171Y009179D01*
X022131Y009139D01*
X022131Y009059D01*
X022171Y009019D01*
X022211Y009019D01*
X022251Y009059D01*
X022251Y009139D02*
X022291Y009179D01*
X022331Y009179D01*
X022371Y009139D01*
X022371Y009059D01*
X022331Y009019D01*
X022251Y009313D02*
X022251Y009473D01*
X022171Y009608D02*
X022331Y009608D01*
X022371Y009648D01*
X022371Y009728D01*
X022331Y009768D01*
X022171Y009608D01*
X022131Y009648D01*
X022131Y009728D01*
X022171Y009768D01*
X022331Y009768D01*
X022371Y009903D02*
X022251Y009903D01*
X022291Y009983D01*
X022291Y010023D01*
X022251Y010063D01*
X022171Y010063D01*
X022131Y010023D01*
X022131Y009943D01*
X022171Y009903D01*
X022371Y009903D02*
X022371Y010063D01*
X022371Y010197D02*
X022131Y010197D01*
X022211Y010277D01*
X022131Y010357D01*
X022371Y010357D01*
X022371Y010492D02*
X022371Y010612D01*
X022331Y010652D01*
X022291Y010652D01*
X022251Y010612D01*
X022251Y010492D01*
X022131Y010492D02*
X022371Y010492D01*
X022251Y010612D02*
X022211Y010652D01*
X022171Y010652D01*
X022131Y010612D01*
X022131Y010492D01*
X022251Y010786D02*
X022251Y010947D01*
X022131Y011081D02*
X022371Y011081D01*
X022291Y011161D01*
X022371Y011241D01*
X022131Y011241D01*
X022171Y011376D02*
X022131Y011416D01*
X022131Y011496D01*
X022171Y011536D01*
X022251Y011536D01*
X022251Y011456D01*
X022331Y011536D02*
X022371Y011496D01*
X022371Y011416D01*
X022331Y011376D01*
X022171Y011376D01*
X022131Y011670D02*
X022211Y011750D01*
X022291Y011750D01*
X022371Y011670D01*
X022612Y012266D02*
X020131Y012266D01*
X020006Y012391D01*
X020006Y012641D01*
X020131Y012766D01*
X022612Y012766D01*
X022309Y013056D02*
X022139Y013226D01*
X022252Y013226D01*
X022319Y013350D02*
X022319Y013406D01*
X022375Y013463D01*
X022432Y013463D01*
X022545Y013350D01*
X022545Y013293D01*
X022489Y013236D01*
X022432Y013236D01*
X022365Y013113D02*
X022252Y013000D01*
X022157Y012905D02*
X022044Y012791D01*
X022100Y012848D02*
X021930Y013018D01*
X022044Y013018D01*
X021858Y013389D02*
X021818Y013389D01*
X021778Y013429D01*
X021778Y013509D01*
X021738Y013549D01*
X021698Y013549D01*
X021658Y013509D01*
X021658Y013429D01*
X021698Y013389D01*
X021738Y013389D01*
X021778Y013429D01*
X021778Y013509D02*
X021818Y013549D01*
X021858Y013549D01*
X021898Y013509D01*
X021898Y013429D01*
X021858Y013389D01*
X021898Y013684D02*
X021818Y013764D01*
X021898Y013844D01*
X021658Y013844D01*
X021658Y013979D02*
X021898Y013979D01*
X021818Y014059D01*
X021898Y014139D01*
X021658Y014139D01*
X021778Y014273D02*
X021778Y014433D01*
X021858Y014568D02*
X021698Y014568D01*
X021658Y014608D01*
X021658Y014688D01*
X021698Y014728D01*
X021658Y014863D02*
X021818Y014863D01*
X021898Y014943D01*
X021818Y015023D01*
X021658Y015023D01*
X021778Y015023D02*
X021778Y014863D01*
X021858Y014728D02*
X021898Y014688D01*
X021898Y014608D01*
X021858Y014568D01*
X021898Y015157D02*
X021898Y015277D01*
X021858Y015317D01*
X021778Y015317D01*
X021738Y015277D01*
X021738Y015157D01*
X021658Y015157D02*
X021898Y015157D01*
X022616Y014878D02*
X025844Y014878D01*
X025844Y012280D01*
X022616Y012280D01*
X022616Y014878D01*
X023035Y015130D02*
X023142Y015236D01*
X023355Y015236D01*
X023355Y015023D02*
X023142Y015023D01*
X023035Y015130D01*
X023195Y015391D02*
X023195Y015605D01*
X023247Y015692D02*
X023407Y015853D01*
X023542Y015813D02*
X023542Y015692D01*
X023662Y015692D01*
X023702Y015732D01*
X023662Y015772D01*
X023542Y015772D01*
X023542Y015813D02*
X023582Y015853D01*
X023662Y015853D01*
X023836Y015933D02*
X023836Y015692D01*
X023997Y015692D02*
X023997Y015933D01*
X023917Y015853D01*
X023836Y015933D01*
X024092Y015605D02*
X024039Y015551D01*
X024039Y015444D01*
X024092Y015391D01*
X024306Y015391D01*
X024359Y015444D01*
X024359Y015551D01*
X024306Y015605D01*
X024426Y015692D02*
X024426Y015853D01*
X024506Y015933D01*
X024586Y015853D01*
X024586Y015692D01*
X024586Y015813D02*
X024426Y015813D01*
X024720Y015772D02*
X024760Y015813D01*
X024881Y015813D01*
X024881Y015732D01*
X024841Y015692D01*
X024760Y015692D01*
X024720Y015732D01*
X024720Y015772D01*
X024801Y015893D02*
X024720Y015933D01*
X024801Y015893D02*
X024881Y015813D01*
X025043Y015745D02*
X025043Y015906D01*
X025096Y015959D01*
X025310Y015959D01*
X025363Y015906D01*
X025363Y015745D01*
X025043Y015745D01*
X025043Y015591D02*
X025363Y015591D01*
X025363Y015377D02*
X025043Y015591D01*
X025043Y015377D02*
X025363Y015377D01*
X025310Y015222D02*
X025363Y015169D01*
X025363Y015062D01*
X025310Y015009D01*
X025096Y015009D01*
X025043Y015062D01*
X025043Y015169D01*
X025096Y015222D01*
X025203Y015222D01*
X025203Y015116D01*
X024359Y015076D02*
X024306Y015023D01*
X024092Y015023D01*
X024039Y015076D01*
X024039Y015183D01*
X024092Y015236D01*
X024306Y015236D01*
X024359Y015183D01*
X024359Y015076D01*
X023407Y015692D02*
X023247Y015853D01*
X023302Y015498D02*
X023088Y015498D01*
X021898Y013684D02*
X021658Y013684D01*
X019446Y014406D02*
X019448Y014485D01*
X019454Y014564D01*
X019464Y014643D01*
X019478Y014721D01*
X019495Y014798D01*
X019517Y014874D01*
X019542Y014949D01*
X019572Y015022D01*
X019604Y015094D01*
X019641Y015165D01*
X019681Y015233D01*
X019724Y015299D01*
X019770Y015363D01*
X019820Y015425D01*
X019873Y015484D01*
X019928Y015540D01*
X019987Y015594D01*
X020048Y015644D01*
X020111Y015692D01*
X020177Y015736D01*
X020245Y015777D01*
X020315Y015814D01*
X020386Y015848D01*
X020460Y015878D01*
X020534Y015904D01*
X020610Y015926D01*
X020687Y015945D01*
X020765Y015960D01*
X020843Y015971D01*
X020922Y015978D01*
X021001Y015981D01*
X021080Y015980D01*
X021159Y015975D01*
X021238Y015966D01*
X021316Y015953D01*
X021393Y015936D01*
X021470Y015916D01*
X021545Y015891D01*
X021619Y015863D01*
X021692Y015831D01*
X021762Y015796D01*
X021831Y015757D01*
X021898Y015714D01*
X021963Y015668D01*
X022025Y015620D01*
X022085Y015568D01*
X022142Y015513D01*
X022196Y015455D01*
X022247Y015395D01*
X022295Y015332D01*
X022340Y015267D01*
X022382Y015199D01*
X022420Y015130D01*
X022454Y015059D01*
X022485Y014986D01*
X022513Y014911D01*
X022536Y014836D01*
X022556Y014759D01*
X022572Y014682D01*
X022584Y014603D01*
X022592Y014525D01*
X022596Y014446D01*
X022596Y014366D01*
X022592Y014287D01*
X022584Y014209D01*
X022572Y014130D01*
X022556Y014053D01*
X022536Y013976D01*
X022513Y013901D01*
X022485Y013826D01*
X022454Y013753D01*
X022420Y013682D01*
X022382Y013613D01*
X022340Y013545D01*
X022295Y013480D01*
X022247Y013417D01*
X022196Y013357D01*
X022142Y013299D01*
X022085Y013244D01*
X022025Y013192D01*
X021963Y013144D01*
X021898Y013098D01*
X021831Y013055D01*
X021762Y013016D01*
X021692Y012981D01*
X021619Y012949D01*
X021545Y012921D01*
X021470Y012896D01*
X021393Y012876D01*
X021316Y012859D01*
X021238Y012846D01*
X021159Y012837D01*
X021080Y012832D01*
X021001Y012831D01*
X020922Y012834D01*
X020843Y012841D01*
X020765Y012852D01*
X020687Y012867D01*
X020610Y012886D01*
X020534Y012908D01*
X020460Y012934D01*
X020386Y012964D01*
X020315Y012998D01*
X020245Y013035D01*
X020177Y013076D01*
X020111Y013120D01*
X020048Y013168D01*
X019987Y013218D01*
X019928Y013272D01*
X019873Y013328D01*
X019820Y013387D01*
X019770Y013449D01*
X019724Y013513D01*
X019681Y013579D01*
X019641Y013647D01*
X019604Y013718D01*
X019572Y013790D01*
X019542Y013863D01*
X019517Y013938D01*
X019495Y014014D01*
X019478Y014091D01*
X019464Y014169D01*
X019454Y014248D01*
X019448Y014327D01*
X019446Y014406D01*
X019387Y014524D02*
X019387Y013422D01*
X019407Y013107D02*
X019092Y013107D01*
X019092Y012969D01*
X018961Y012962D02*
X018961Y012802D01*
X018961Y012882D02*
X019202Y012882D01*
X019121Y012802D01*
X019202Y012667D02*
X019041Y012507D01*
X019081Y012547D02*
X018961Y012667D01*
X018867Y012686D02*
X018827Y012726D01*
X018667Y012726D01*
X018627Y012686D01*
X018627Y012606D01*
X018667Y012566D01*
X018827Y012566D01*
X018867Y012606D01*
X018867Y012686D01*
X018787Y012861D02*
X018867Y012941D01*
X018627Y012941D01*
X018627Y012861D02*
X018627Y013021D01*
X018797Y013048D02*
X018797Y013107D01*
X018443Y013107D01*
X018443Y012930D01*
X018312Y012883D02*
X018312Y012723D01*
X018312Y012803D02*
X018552Y012803D01*
X018472Y012723D01*
X018472Y012588D02*
X018312Y012588D01*
X018432Y012588D02*
X018432Y012428D01*
X018472Y012428D02*
X018552Y012508D01*
X018472Y012588D01*
X018472Y012428D02*
X018312Y012428D01*
X018217Y012409D02*
X018217Y012489D01*
X018177Y012529D01*
X018017Y012369D01*
X017977Y012409D01*
X017977Y012489D01*
X018017Y012529D01*
X018177Y012529D01*
X018217Y012409D02*
X018177Y012369D01*
X018017Y012369D01*
X017977Y012234D02*
X018137Y012234D01*
X018217Y012154D01*
X018137Y012074D01*
X017977Y012074D01*
X018097Y012074D02*
X018097Y012234D01*
X018312Y012134D02*
X018552Y012134D01*
X018552Y012254D01*
X018512Y012294D01*
X018432Y012294D01*
X018392Y012254D01*
X018392Y012134D01*
X018627Y012115D02*
X018867Y012115D01*
X018867Y012075D02*
X018867Y012155D01*
X018827Y012271D02*
X018787Y012271D01*
X018747Y012311D01*
X018747Y012392D01*
X018707Y012432D01*
X018667Y012432D01*
X018627Y012392D01*
X018627Y012311D01*
X018667Y012271D01*
X018627Y012155D02*
X018627Y012075D01*
X018627Y011941D02*
X018867Y011941D01*
X018787Y011860D01*
X018867Y011780D01*
X018627Y011780D01*
X018718Y011678D02*
X017506Y011678D01*
X017977Y011779D02*
X018217Y011779D01*
X018217Y011899D01*
X018177Y011939D01*
X018097Y011939D01*
X018057Y011899D01*
X018057Y011779D01*
X017950Y012575D02*
X017950Y015016D01*
X015076Y015016D01*
X015076Y014189D01*
X013580Y014189D01*
X013580Y013402D01*
X015076Y013402D01*
X015076Y012575D01*
X017950Y012575D01*
X018147Y012674D02*
X018147Y013107D01*
X018443Y013107D01*
X018797Y013107D02*
X019092Y013107D01*
X019296Y013041D02*
X019296Y012880D01*
X019296Y012960D02*
X019536Y012960D01*
X019456Y012880D01*
X019536Y012764D02*
X019536Y012684D01*
X019536Y012724D02*
X019296Y012724D01*
X019296Y012684D02*
X019296Y012764D01*
X019336Y012549D02*
X019296Y012509D01*
X019296Y012429D01*
X019336Y012389D01*
X019416Y012429D02*
X019416Y012509D01*
X019376Y012549D01*
X019336Y012549D01*
X019202Y012507D02*
X018961Y012507D01*
X019001Y012373D02*
X018961Y012333D01*
X018961Y012252D01*
X019001Y012212D01*
X019161Y012212D01*
X019202Y012252D01*
X019202Y012333D01*
X019161Y012373D01*
X019296Y012215D02*
X019336Y012255D01*
X019496Y012255D01*
X019536Y012215D01*
X019536Y012135D01*
X019496Y012095D01*
X019336Y012095D01*
X019296Y012135D01*
X019296Y012215D01*
X019161Y012078D02*
X019202Y012038D01*
X019202Y011958D01*
X019161Y011918D01*
X019121Y011918D01*
X019081Y011958D01*
X019081Y012038D01*
X019041Y012078D01*
X019001Y012078D01*
X018961Y012038D01*
X018961Y011958D01*
X019001Y011918D01*
X019296Y011960D02*
X019536Y011960D01*
X019456Y011880D01*
X019536Y011800D01*
X019296Y011800D01*
X019640Y011902D02*
X019640Y012178D01*
X024404Y012178D01*
X024994Y011548D02*
X024994Y008241D01*
X024997Y008203D01*
X025003Y008165D01*
X025013Y008128D01*
X025027Y008092D01*
X025043Y008057D01*
X025063Y008025D01*
X025086Y007994D01*
X025112Y007965D01*
X025141Y007939D01*
X025172Y007916D01*
X025204Y007896D01*
X025239Y007880D01*
X025275Y007866D01*
X025312Y007856D01*
X025350Y007850D01*
X025388Y007847D01*
X025420Y007848D01*
X025451Y007844D01*
X025482Y007837D01*
X025512Y007826D01*
X025540Y007812D01*
X025566Y007794D01*
X025590Y007773D01*
X025611Y007749D01*
X025629Y007723D01*
X025643Y007695D01*
X025654Y007665D01*
X025661Y007634D01*
X025665Y007603D01*
X025664Y007571D01*
X025663Y007572D02*
X025663Y007257D01*
X026356Y006079D02*
X026358Y006130D01*
X026364Y006181D01*
X026374Y006231D01*
X026387Y006281D01*
X026405Y006329D01*
X026425Y006376D01*
X026450Y006421D01*
X026478Y006464D01*
X026509Y006505D01*
X026543Y006543D01*
X026580Y006578D01*
X026619Y006611D01*
X026661Y006641D01*
X026705Y006667D01*
X026751Y006689D01*
X026799Y006709D01*
X026848Y006724D01*
X026898Y006736D01*
X026948Y006744D01*
X026999Y006748D01*
X027051Y006748D01*
X027102Y006744D01*
X027152Y006736D01*
X027202Y006724D01*
X027251Y006709D01*
X027299Y006689D01*
X027345Y006667D01*
X027389Y006641D01*
X027431Y006611D01*
X027470Y006578D01*
X027507Y006543D01*
X027541Y006505D01*
X027572Y006464D01*
X027600Y006421D01*
X027625Y006376D01*
X027645Y006329D01*
X027663Y006281D01*
X027676Y006231D01*
X027686Y006181D01*
X027692Y006130D01*
X027694Y006079D01*
X027692Y006028D01*
X027686Y005977D01*
X027676Y005927D01*
X027663Y005877D01*
X027645Y005829D01*
X027625Y005782D01*
X027600Y005737D01*
X027572Y005694D01*
X027541Y005653D01*
X027507Y005615D01*
X027470Y005580D01*
X027431Y005547D01*
X027389Y005517D01*
X027345Y005491D01*
X027299Y005469D01*
X027251Y005449D01*
X027202Y005434D01*
X027152Y005422D01*
X027102Y005414D01*
X027051Y005410D01*
X026999Y005410D01*
X026948Y005414D01*
X026898Y005422D01*
X026848Y005434D01*
X026799Y005449D01*
X026751Y005469D01*
X026705Y005491D01*
X026661Y005517D01*
X026619Y005547D01*
X026580Y005580D01*
X026543Y005615D01*
X026509Y005653D01*
X026478Y005694D01*
X026450Y005737D01*
X026425Y005782D01*
X026405Y005829D01*
X026387Y005877D01*
X026374Y005927D01*
X026364Y005977D01*
X026358Y006028D01*
X026356Y006079D01*
X025844Y006079D02*
X025846Y006148D01*
X025852Y006216D01*
X025862Y006284D01*
X025876Y006351D01*
X025894Y006418D01*
X025915Y006483D01*
X025941Y006547D01*
X025970Y006609D01*
X026002Y006669D01*
X026038Y006728D01*
X026078Y006784D01*
X026120Y006838D01*
X026166Y006889D01*
X026215Y006938D01*
X026266Y006984D01*
X026320Y007026D01*
X026376Y007066D01*
X026434Y007102D01*
X026495Y007134D01*
X026557Y007163D01*
X026621Y007189D01*
X026686Y007210D01*
X026753Y007228D01*
X026820Y007242D01*
X026888Y007252D01*
X026956Y007258D01*
X027025Y007260D01*
X027094Y007258D01*
X027162Y007252D01*
X027230Y007242D01*
X027297Y007228D01*
X027364Y007210D01*
X027429Y007189D01*
X027493Y007163D01*
X027555Y007134D01*
X027615Y007102D01*
X027674Y007066D01*
X027730Y007026D01*
X027784Y006984D01*
X027835Y006938D01*
X027884Y006889D01*
X027930Y006838D01*
X027972Y006784D01*
X028012Y006728D01*
X028048Y006670D01*
X028080Y006609D01*
X028109Y006547D01*
X028135Y006483D01*
X028156Y006418D01*
X028174Y006351D01*
X028188Y006284D01*
X028198Y006216D01*
X028204Y006148D01*
X028206Y006079D01*
X028204Y006010D01*
X028198Y005942D01*
X028188Y005874D01*
X028174Y005807D01*
X028156Y005740D01*
X028135Y005675D01*
X028109Y005611D01*
X028080Y005549D01*
X028048Y005488D01*
X028012Y005430D01*
X027972Y005374D01*
X027930Y005320D01*
X027884Y005269D01*
X027835Y005220D01*
X027784Y005174D01*
X027730Y005132D01*
X027674Y005092D01*
X027616Y005056D01*
X027555Y005024D01*
X027493Y004995D01*
X027429Y004969D01*
X027364Y004948D01*
X027297Y004930D01*
X027230Y004916D01*
X027162Y004906D01*
X027094Y004900D01*
X027025Y004898D01*
X026956Y004900D01*
X026888Y004906D01*
X026820Y004916D01*
X026753Y004930D01*
X026686Y004948D01*
X026621Y004969D01*
X026557Y004995D01*
X026495Y005024D01*
X026434Y005056D01*
X026376Y005092D01*
X026320Y005132D01*
X026266Y005174D01*
X026215Y005220D01*
X026166Y005269D01*
X026120Y005320D01*
X026078Y005374D01*
X026038Y005430D01*
X026002Y005488D01*
X025970Y005549D01*
X025941Y005611D01*
X025915Y005675D01*
X025894Y005740D01*
X025876Y005807D01*
X025862Y005874D01*
X025852Y005942D01*
X025846Y006010D01*
X025844Y006079D01*
X022922Y008483D02*
X022722Y008483D01*
X022682Y008523D01*
X022682Y008603D01*
X022722Y008643D01*
X022922Y008643D01*
X022882Y008778D02*
X022842Y008778D01*
X022802Y008818D01*
X022802Y008898D01*
X022762Y008938D01*
X022722Y008938D01*
X022682Y008898D01*
X022682Y008818D01*
X022722Y008778D01*
X022882Y008778D02*
X022922Y008818D01*
X022922Y008898D01*
X022882Y008938D01*
X022922Y009072D02*
X022682Y009072D01*
X022682Y009192D01*
X022722Y009232D01*
X022882Y009232D01*
X022922Y009192D01*
X022922Y009072D01*
X022331Y008724D02*
X022171Y008724D01*
X019640Y009658D02*
X019640Y010839D01*
X019112Y011166D02*
X019112Y010189D01*
X018702Y009544D02*
X018662Y009504D01*
X018528Y009544D02*
X018528Y009304D01*
X018368Y009304D01*
X018448Y009424D02*
X018528Y009424D01*
X018528Y009544D02*
X018368Y009544D01*
X018233Y009544D02*
X018073Y009544D01*
X018153Y009544D02*
X018153Y009304D01*
X017112Y010178D02*
X017112Y011166D01*
X016542Y011696D02*
X016485Y011696D01*
X016429Y011752D01*
X016428Y011809D01*
X016457Y011837D01*
X016513Y011837D01*
X016570Y011780D01*
X016627Y011780D01*
X016655Y011809D01*
X016655Y011865D01*
X016598Y011922D01*
X016542Y011922D01*
X016475Y012045D02*
X016390Y012130D01*
X016333Y012130D01*
X016220Y012017D01*
X016220Y011960D01*
X016305Y011876D01*
X016475Y012045D01*
X016210Y012197D02*
X016210Y012310D01*
X016097Y012310D01*
X015984Y012197D01*
X016068Y012282D02*
X016182Y012169D01*
X016210Y012197D02*
X016097Y012084D01*
X015080Y011865D02*
X015080Y011809D01*
X015052Y011780D01*
X014995Y011780D01*
X014939Y011837D01*
X014882Y011837D01*
X014854Y011809D01*
X014854Y011752D01*
X014910Y011696D01*
X014967Y011696D01*
X015080Y011865D02*
X015024Y011922D01*
X014967Y011922D01*
X014872Y012017D02*
X014759Y011904D01*
X014702Y011904D01*
X014645Y011960D01*
X014645Y012017D01*
X014522Y012084D02*
X014409Y012197D01*
X014522Y012084D02*
X014692Y012254D01*
X014759Y012130D02*
X014815Y012130D01*
X014872Y012074D01*
X014872Y012017D01*
X014234Y011865D02*
X014234Y011809D01*
X014234Y011865D02*
X014177Y011922D01*
X014120Y011922D01*
X014092Y011894D01*
X014092Y011837D01*
X014036Y011837D01*
X014007Y011809D01*
X014007Y011752D01*
X014064Y011696D01*
X014120Y011696D01*
X014120Y011809D02*
X014092Y011837D01*
X013940Y011932D02*
X014054Y012045D01*
X013940Y011932D02*
X013827Y011932D01*
X013827Y012045D01*
X013940Y012159D01*
X013817Y012225D02*
X013817Y012282D01*
X013760Y012339D01*
X013704Y012339D01*
X013676Y012310D01*
X013676Y012254D01*
X013619Y012254D01*
X013591Y012225D01*
X013591Y012169D01*
X013647Y012112D01*
X013704Y012112D01*
X013704Y012225D02*
X013676Y012254D01*
X013370Y011922D02*
X013427Y011865D01*
X013427Y011809D01*
X013313Y011696D01*
X013257Y011696D01*
X013200Y011752D01*
X013200Y011809D01*
X013257Y011865D01*
X013313Y011809D01*
X013313Y011922D02*
X013370Y011922D01*
X013247Y012045D02*
X012964Y011989D01*
X013133Y012159D01*
X013038Y012254D02*
X012868Y012084D01*
X012784Y012169D01*
X012784Y012225D01*
X012897Y012339D01*
X012953Y012339D01*
X013038Y012254D01*
X013167Y012497D02*
X013324Y012654D01*
X013089Y012575D02*
X013091Y012600D01*
X013097Y012624D01*
X013106Y012646D01*
X013119Y012667D01*
X013135Y012686D01*
X013154Y012702D01*
X013175Y012715D01*
X013197Y012724D01*
X013221Y012730D01*
X013246Y012732D01*
X013271Y012730D01*
X013295Y012724D01*
X013317Y012715D01*
X013338Y012702D01*
X013357Y012686D01*
X013373Y012667D01*
X013386Y012646D01*
X013395Y012624D01*
X013401Y012600D01*
X013403Y012575D01*
X013401Y012550D01*
X013395Y012526D01*
X013386Y012504D01*
X013373Y012483D01*
X013357Y012464D01*
X013338Y012448D01*
X013317Y012435D01*
X013295Y012426D01*
X013271Y012420D01*
X013246Y012418D01*
X013221Y012420D01*
X013197Y012426D01*
X013175Y012435D01*
X013154Y012448D01*
X013135Y012464D01*
X013119Y012483D01*
X013106Y012504D01*
X013097Y012526D01*
X013091Y012550D01*
X013089Y012575D01*
X013167Y012654D02*
X013324Y012497D01*
X013344Y012220D02*
X013380Y012233D01*
X013414Y012249D01*
X013447Y012269D01*
X013477Y012292D01*
X013505Y012318D01*
X013530Y012347D01*
X013552Y012378D01*
X013571Y012411D01*
X013586Y012446D01*
X013597Y012482D01*
X013605Y012520D01*
X013609Y012558D01*
X013608Y012596D01*
X013604Y012634D01*
X013596Y012671D01*
X013585Y012707D01*
X013569Y012742D01*
X013550Y012775D01*
X013528Y012806D01*
X013503Y012834D01*
X013475Y012860D01*
X013444Y012883D01*
X013411Y012902D01*
X013377Y012918D01*
X013341Y012931D01*
X013304Y012939D01*
X013266Y012944D01*
X013228Y012945D01*
X013190Y012942D01*
X013153Y012935D01*
X013116Y012924D01*
X013081Y012909D01*
X013047Y012891D01*
X013016Y012870D01*
X012987Y012846D01*
X012960Y012818D01*
X012937Y012788D01*
X012916Y012756D01*
X012899Y012722D01*
X012886Y012686D01*
X012877Y012649D01*
X012871Y012612D01*
X012869Y012574D01*
X012871Y012536D01*
X012872Y012536D02*
X012754Y012654D01*
X012872Y012536D02*
X012990Y012654D01*
X012952Y013029D02*
X012912Y013069D01*
X012952Y013109D01*
X013032Y013109D01*
X013072Y013149D01*
X013032Y013189D01*
X012912Y013189D01*
X012952Y013029D02*
X013072Y013029D01*
X013206Y013109D02*
X013206Y013149D01*
X013246Y013189D01*
X013327Y013189D01*
X013367Y013149D01*
X013367Y013069D01*
X013327Y013029D01*
X013246Y013029D01*
X013206Y013109D02*
X013367Y013109D01*
X013501Y013189D02*
X013661Y013029D01*
X013796Y013029D02*
X013796Y013189D01*
X013876Y013269D01*
X013956Y013189D01*
X013956Y013029D01*
X013956Y013149D02*
X013796Y013149D01*
X013661Y013189D02*
X013501Y013029D01*
X013895Y012693D02*
X014328Y012693D01*
X014112Y012477D02*
X014112Y012910D01*
X014367Y013029D02*
X014447Y013029D01*
X014407Y013029D02*
X014407Y013269D01*
X014447Y013269D01*
X014603Y013269D02*
X014603Y013029D01*
X014643Y013029D02*
X014563Y013029D01*
X014778Y013029D02*
X014778Y013189D01*
X014858Y013269D01*
X014938Y013189D01*
X014938Y013029D01*
X014938Y013149D02*
X014778Y013149D01*
X014643Y013269D02*
X014603Y013269D01*
X015076Y013402D02*
X015076Y014189D01*
X015316Y014525D02*
X015316Y014765D01*
X015396Y014765D02*
X015236Y014765D01*
X015530Y014765D02*
X015530Y014525D01*
X015690Y014525D02*
X015690Y014765D01*
X015610Y014685D01*
X015530Y014765D01*
X015825Y014725D02*
X015865Y014765D01*
X015945Y014765D01*
X015985Y014725D01*
X015985Y014685D01*
X015945Y014645D01*
X015865Y014645D01*
X015825Y014605D01*
X015825Y014565D01*
X015865Y014525D01*
X015945Y014525D01*
X015985Y014565D01*
X016120Y014525D02*
X016280Y014525D01*
X016200Y014525D02*
X016200Y014765D01*
X016280Y014685D01*
X016414Y014725D02*
X016574Y014565D01*
X016534Y014525D01*
X016454Y014525D01*
X016414Y014565D01*
X016414Y014725D01*
X016454Y014765D01*
X016534Y014765D01*
X016574Y014725D01*
X016574Y014565D01*
X016709Y014565D02*
X016749Y014525D01*
X016829Y014525D01*
X016869Y014565D01*
X016869Y014725D01*
X016829Y014765D01*
X016749Y014765D01*
X016709Y014725D01*
X017004Y014725D02*
X017004Y014645D01*
X017044Y014605D01*
X017164Y014605D01*
X017164Y014525D02*
X017164Y014765D01*
X017044Y014765D01*
X017004Y014725D01*
X017298Y014765D02*
X017378Y014725D01*
X017458Y014645D01*
X017338Y014645D01*
X017298Y014605D01*
X017298Y014565D01*
X017338Y014525D01*
X017418Y014525D01*
X017458Y014565D01*
X017458Y014645D01*
X017593Y014685D02*
X017593Y014725D01*
X017633Y014765D01*
X017713Y014765D01*
X017753Y014725D01*
X017593Y014685D02*
X017753Y014525D01*
X017593Y014525D01*
X018044Y014645D02*
X018044Y014725D01*
X018084Y014765D01*
X018285Y014765D01*
X018245Y014899D02*
X018205Y014899D01*
X018164Y014939D01*
X018164Y015059D01*
X018084Y015059D02*
X018245Y015059D01*
X018285Y015019D01*
X018285Y014939D01*
X018245Y014899D01*
X018084Y014899D02*
X018044Y014939D01*
X018044Y015019D01*
X018084Y015059D01*
X018203Y015327D02*
X018283Y015327D01*
X018323Y015367D01*
X018323Y015447D02*
X018243Y015487D01*
X018203Y015487D01*
X018163Y015447D01*
X018163Y015367D01*
X018203Y015327D01*
X018323Y015447D02*
X018323Y015567D01*
X018163Y015567D01*
X018131Y015666D02*
X017971Y015666D01*
X018051Y015666D02*
X018051Y015907D01*
X018131Y015827D01*
X018265Y015827D02*
X018305Y015787D01*
X018385Y015787D01*
X018425Y015827D01*
X018425Y015867D01*
X018385Y015907D01*
X018305Y015907D01*
X018265Y015867D01*
X018265Y015827D01*
X018305Y015787D02*
X018265Y015746D01*
X018265Y015706D01*
X018305Y015666D01*
X018385Y015666D01*
X018425Y015706D01*
X018425Y015746D01*
X018385Y015787D01*
X018560Y015787D02*
X018720Y015787D01*
X018600Y015907D01*
X018600Y015666D01*
X018498Y015567D02*
X018618Y015447D01*
X018458Y015447D01*
X018498Y015327D02*
X018498Y015567D01*
X018752Y015527D02*
X018792Y015567D01*
X018872Y015567D01*
X018912Y015527D01*
X018912Y015367D01*
X018872Y015327D01*
X018792Y015327D01*
X018752Y015367D01*
X018855Y015666D02*
X019015Y015666D01*
X018855Y015827D01*
X018855Y015867D01*
X018895Y015907D01*
X018975Y015907D01*
X019015Y015867D01*
X019149Y015867D02*
X019189Y015907D01*
X019269Y015907D01*
X019309Y015867D01*
X019309Y015706D01*
X019269Y015666D01*
X019189Y015666D01*
X019149Y015706D01*
X019444Y015907D02*
X019604Y015907D01*
X019524Y015907D02*
X019524Y015666D01*
X019738Y015666D02*
X019899Y015666D01*
X019899Y015907D01*
X020423Y015353D02*
X020423Y014853D01*
X019446Y014406D02*
X019448Y014485D01*
X019454Y014564D01*
X019464Y014643D01*
X019478Y014721D01*
X019495Y014798D01*
X019517Y014874D01*
X019542Y014949D01*
X019572Y015022D01*
X019604Y015094D01*
X019641Y015165D01*
X019681Y015233D01*
X019724Y015299D01*
X019770Y015363D01*
X019820Y015425D01*
X019873Y015484D01*
X019928Y015540D01*
X019987Y015594D01*
X020048Y015644D01*
X020111Y015692D01*
X020177Y015736D01*
X020245Y015777D01*
X020315Y015814D01*
X020386Y015848D01*
X020460Y015878D01*
X020534Y015904D01*
X020610Y015926D01*
X020687Y015945D01*
X020765Y015960D01*
X020843Y015971D01*
X020922Y015978D01*
X021001Y015981D01*
X021080Y015980D01*
X021159Y015975D01*
X021238Y015966D01*
X021316Y015953D01*
X021393Y015936D01*
X021470Y015916D01*
X021545Y015891D01*
X021619Y015863D01*
X021692Y015831D01*
X021762Y015796D01*
X021831Y015757D01*
X021898Y015714D01*
X021963Y015668D01*
X022025Y015620D01*
X022085Y015568D01*
X022142Y015513D01*
X022196Y015455D01*
X022247Y015395D01*
X022295Y015332D01*
X022340Y015267D01*
X022382Y015199D01*
X022420Y015130D01*
X022454Y015059D01*
X022485Y014986D01*
X022513Y014911D01*
X022536Y014836D01*
X022556Y014759D01*
X022572Y014682D01*
X022584Y014603D01*
X022592Y014525D01*
X022596Y014446D01*
X022596Y014366D01*
X022592Y014287D01*
X022584Y014209D01*
X022572Y014130D01*
X022556Y014053D01*
X022536Y013976D01*
X022513Y013901D01*
X022485Y013826D01*
X022454Y013753D01*
X022420Y013682D01*
X022382Y013613D01*
X022340Y013545D01*
X022295Y013480D01*
X022247Y013417D01*
X022196Y013357D01*
X022142Y013299D01*
X022085Y013244D01*
X022025Y013192D01*
X021963Y013144D01*
X021898Y013098D01*
X021831Y013055D01*
X021762Y013016D01*
X021692Y012981D01*
X021619Y012949D01*
X021545Y012921D01*
X021470Y012896D01*
X021393Y012876D01*
X021316Y012859D01*
X021238Y012846D01*
X021159Y012837D01*
X021080Y012832D01*
X021001Y012831D01*
X020922Y012834D01*
X020843Y012841D01*
X020765Y012852D01*
X020687Y012867D01*
X020610Y012886D01*
X020534Y012908D01*
X020460Y012934D01*
X020386Y012964D01*
X020315Y012998D01*
X020245Y013035D01*
X020177Y013076D01*
X020111Y013120D01*
X020048Y013168D01*
X019987Y013218D01*
X019928Y013272D01*
X019873Y013328D01*
X019820Y013387D01*
X019770Y013449D01*
X019724Y013513D01*
X019681Y013579D01*
X019641Y013647D01*
X019604Y013718D01*
X019572Y013790D01*
X019542Y013863D01*
X019517Y013938D01*
X019495Y014014D01*
X019478Y014091D01*
X019464Y014169D01*
X019454Y014248D01*
X019448Y014327D01*
X019446Y014406D01*
X019013Y015063D02*
X019013Y015087D01*
X018285Y014605D02*
X018084Y014605D01*
X018044Y014645D01*
X018206Y014485D02*
X018206Y013441D01*
X018206Y014485D02*
X018246Y014524D01*
X016828Y015214D02*
X016788Y015174D01*
X016708Y015174D01*
X016668Y015214D01*
X016668Y015415D01*
X016533Y015374D02*
X016533Y015334D01*
X016493Y015294D01*
X016413Y015294D01*
X016373Y015254D01*
X016373Y015214D01*
X016413Y015174D01*
X016493Y015174D01*
X016533Y015214D01*
X016533Y015254D01*
X016493Y015294D01*
X016413Y015294D02*
X016373Y015334D01*
X016373Y015374D01*
X016413Y015415D01*
X016493Y015415D01*
X016533Y015374D01*
X016828Y015415D02*
X016828Y015214D01*
X014521Y014642D02*
X014521Y014322D01*
X014521Y014428D02*
X014361Y014428D01*
X014308Y014482D01*
X014308Y014588D01*
X014361Y014642D01*
X014521Y014642D01*
X014153Y014535D02*
X014100Y014535D01*
X014100Y014322D01*
X014153Y014322D02*
X014046Y014322D01*
X013854Y014375D02*
X013854Y014588D01*
X013801Y014535D02*
X013908Y014535D01*
X013854Y014375D02*
X013801Y014322D01*
X013662Y014375D02*
X013609Y014322D01*
X013502Y014322D01*
X013449Y014375D01*
X013449Y014482D01*
X013502Y014535D01*
X013609Y014535D01*
X013662Y014482D01*
X013662Y014375D01*
X014100Y014642D02*
X014100Y014695D01*
X014131Y014918D02*
X014250Y015036D01*
X014131Y015154D01*
X014250Y015036D02*
X013856Y015036D01*
X013757Y014918D02*
X013597Y015159D01*
X013757Y015159D02*
X013597Y014918D01*
X013285Y015213D02*
X013285Y015607D01*
X013167Y015489D01*
X013147Y015336D02*
X013147Y015296D01*
X013067Y015216D01*
X013067Y015096D01*
X013067Y015216D02*
X012986Y015296D01*
X012986Y015336D01*
X013285Y015607D02*
X013403Y015489D01*
X013656Y015430D02*
X013816Y015430D01*
X013816Y015470D01*
X013656Y015630D01*
X013656Y015670D01*
X013816Y015670D01*
X013994Y015686D02*
X014151Y015528D01*
X013915Y015607D02*
X013917Y015632D01*
X013923Y015656D01*
X013932Y015678D01*
X013945Y015699D01*
X013961Y015718D01*
X013980Y015734D01*
X014001Y015747D01*
X014023Y015756D01*
X014047Y015762D01*
X014072Y015764D01*
X014097Y015762D01*
X014121Y015756D01*
X014143Y015747D01*
X014164Y015734D01*
X014183Y015718D01*
X014199Y015699D01*
X014212Y015678D01*
X014221Y015656D01*
X014227Y015632D01*
X014229Y015607D01*
X014227Y015582D01*
X014221Y015558D01*
X014212Y015536D01*
X014199Y015515D01*
X014183Y015496D01*
X014164Y015480D01*
X014143Y015467D01*
X014121Y015458D01*
X014097Y015452D01*
X014072Y015450D01*
X014047Y015452D01*
X014023Y015458D01*
X014001Y015467D01*
X013980Y015480D01*
X013961Y015496D01*
X013945Y015515D01*
X013932Y015536D01*
X013923Y015558D01*
X013917Y015582D01*
X013915Y015607D01*
X013994Y015528D02*
X014151Y015686D01*
X013240Y014588D02*
X013240Y014375D01*
X013187Y014322D01*
X013187Y014535D02*
X013294Y014535D01*
X012380Y014091D02*
X012380Y015666D01*
X011710Y015666D01*
X011703Y015934D02*
X011702Y013756D01*
X010391Y013756D01*
X010074Y013130D02*
X011574Y013130D01*
X011824Y012880D01*
X011824Y012380D01*
X011574Y012130D01*
X010074Y012130D01*
X009824Y011880D01*
X009824Y011380D01*
X010074Y011130D01*
X010074Y012130D02*
X009824Y012380D01*
X009824Y012880D01*
X010074Y013130D01*
X010391Y013756D02*
X010385Y013698D01*
X010375Y013640D01*
X010362Y013583D01*
X010344Y013527D01*
X010323Y013473D01*
X010298Y013419D01*
X010270Y013368D01*
X010239Y013319D01*
X010204Y013271D01*
X010166Y013227D01*
X010125Y013185D01*
X010082Y013145D01*
X010035Y013109D01*
X009987Y013076D01*
X009937Y013046D01*
X009884Y013019D01*
X009830Y012997D01*
X009775Y012977D01*
X009718Y012962D01*
X009661Y012950D01*
X009603Y012942D01*
X009544Y012938D01*
X009486Y012938D01*
X009427Y012942D01*
X009369Y012950D01*
X009312Y012962D01*
X009255Y012977D01*
X009200Y012997D01*
X009146Y013019D01*
X009093Y013046D01*
X009043Y013076D01*
X008995Y013109D01*
X008948Y013145D01*
X008905Y013185D01*
X008864Y013227D01*
X008826Y013271D01*
X008791Y013319D01*
X008760Y013368D01*
X008732Y013419D01*
X008707Y013473D01*
X008686Y013527D01*
X008668Y013583D01*
X008655Y013640D01*
X008645Y013698D01*
X008639Y013756D01*
X011574Y012130D02*
X011824Y011880D01*
X011824Y011380D01*
X011574Y011130D01*
X013077Y011876D02*
X013247Y012045D01*
X016878Y008186D02*
X016878Y007946D01*
X016718Y007946D01*
X016600Y007878D02*
X016600Y006666D01*
X017201Y006831D02*
X017201Y006971D01*
X017341Y006971D01*
X017481Y007111D02*
X017481Y006831D01*
X017411Y006760D01*
X017271Y006760D01*
X017201Y006831D01*
X017201Y007111D02*
X017271Y007181D01*
X017411Y007181D01*
X017481Y007111D01*
X017661Y007181D02*
X017661Y006831D01*
X017731Y006760D01*
X017871Y006760D01*
X017941Y006831D01*
X017941Y007181D01*
X018121Y007111D02*
X018121Y007041D01*
X018191Y006971D01*
X018402Y006971D01*
X018402Y007181D02*
X018191Y007181D01*
X018121Y007111D01*
X018191Y006971D02*
X018121Y006901D01*
X018121Y006831D01*
X018191Y006760D01*
X018402Y006760D01*
X018402Y007181D01*
X018582Y007181D02*
X018862Y007181D01*
X018862Y006760D01*
X018582Y006760D01*
X018722Y006971D02*
X018862Y006971D01*
X019042Y007111D02*
X019112Y007181D01*
X019322Y007181D01*
X019322Y006760D01*
X019112Y006760D01*
X019042Y006831D01*
X019042Y007111D01*
X018941Y007946D02*
X018821Y007946D01*
X018780Y007986D01*
X018780Y008026D01*
X018821Y008066D01*
X018941Y008066D01*
X018941Y008186D02*
X018821Y008186D01*
X018780Y008146D01*
X018780Y008106D01*
X018821Y008066D01*
X018941Y007946D02*
X018941Y008186D01*
X018646Y008146D02*
X018646Y007986D01*
X018606Y007946D01*
X018526Y007946D01*
X018486Y007986D01*
X018486Y008146D01*
X018526Y008186D01*
X018606Y008186D01*
X018646Y008146D01*
X018351Y008146D02*
X018351Y007986D01*
X018311Y007946D01*
X018231Y007946D01*
X018191Y007986D01*
X018191Y008146D01*
X018231Y008186D01*
X018311Y008186D01*
X018351Y008146D01*
X018057Y008186D02*
X017897Y008186D01*
X017977Y008186D02*
X017977Y007946D01*
X017467Y007986D02*
X017427Y007946D01*
X017347Y007946D01*
X017307Y007986D01*
X017307Y008026D01*
X017347Y008066D01*
X017427Y008066D01*
X017467Y008106D01*
X017467Y008146D01*
X017427Y008186D01*
X017347Y008186D01*
X017307Y008146D01*
X017173Y008186D02*
X017173Y007946D01*
X017013Y007946D01*
X017093Y008066D02*
X017173Y008066D01*
X017173Y008186D02*
X017013Y008186D01*
X017612Y010678D02*
X017614Y010722D01*
X017620Y010766D01*
X017630Y010809D01*
X017643Y010851D01*
X017660Y010892D01*
X017681Y010931D01*
X017705Y010968D01*
X017732Y011003D01*
X017762Y011035D01*
X017795Y011065D01*
X017831Y011091D01*
X017868Y011115D01*
X017908Y011134D01*
X017949Y011151D01*
X017992Y011163D01*
X018035Y011172D01*
X018079Y011177D01*
X018123Y011178D01*
X018167Y011175D01*
X018211Y011168D01*
X018254Y011157D01*
X018296Y011143D01*
X018336Y011125D01*
X018375Y011103D01*
X018411Y011079D01*
X018445Y011051D01*
X018477Y011020D01*
X018506Y010986D01*
X018532Y010950D01*
X018554Y010912D01*
X018573Y010872D01*
X018588Y010830D01*
X018600Y010788D01*
X018608Y010744D01*
X018612Y010700D01*
X018612Y010656D01*
X018608Y010612D01*
X018600Y010568D01*
X018588Y010526D01*
X018573Y010484D01*
X018554Y010444D01*
X018532Y010406D01*
X018506Y010370D01*
X018477Y010336D01*
X018445Y010305D01*
X018411Y010277D01*
X018375Y010253D01*
X018336Y010231D01*
X018296Y010213D01*
X018254Y010199D01*
X018211Y010188D01*
X018167Y010181D01*
X018123Y010178D01*
X018079Y010179D01*
X018035Y010184D01*
X017992Y010193D01*
X017949Y010205D01*
X017908Y010222D01*
X017868Y010241D01*
X017831Y010265D01*
X017795Y010291D01*
X017762Y010321D01*
X017732Y010353D01*
X017705Y010388D01*
X017681Y010425D01*
X017660Y010464D01*
X017643Y010505D01*
X017630Y010547D01*
X017620Y010590D01*
X017614Y010634D01*
X017612Y010678D01*
X018827Y012271D02*
X018867Y012311D01*
X018867Y012392D01*
X018827Y012432D01*
X019416Y012429D02*
X019456Y012389D01*
X019496Y012389D01*
X019536Y012429D01*
X019536Y012509D01*
X019496Y012549D01*
X019781Y012516D02*
X019781Y012910D01*
X019584Y013107D01*
X019407Y013107D01*
X019407Y013048D01*
X019781Y012516D02*
X019998Y012516D01*
X013521Y007004D02*
X013521Y006591D01*
X010706Y003776D01*
X010525Y003544D02*
X010529Y003691D01*
X010539Y003838D01*
X010557Y003984D01*
X010583Y004129D01*
X010615Y004273D01*
X010654Y004415D01*
X010700Y004555D01*
X010753Y004692D01*
X010813Y004827D01*
X010879Y004958D01*
X010952Y005086D01*
X011031Y005211D01*
X011115Y005331D01*
X011206Y005447D01*
X011302Y005559D01*
X011404Y005665D01*
X011510Y005767D01*
X011622Y005863D01*
X011738Y005954D01*
X011858Y006038D01*
X011983Y006117D01*
X012111Y006190D01*
X012242Y006256D01*
X012377Y006316D01*
X012514Y006369D01*
X012654Y006415D01*
X012796Y006454D01*
X012940Y006486D01*
X013085Y006512D01*
X013231Y006530D01*
X013378Y006540D01*
X013525Y006544D01*
X013672Y006540D01*
X013819Y006530D01*
X013965Y006512D01*
X014110Y006486D01*
X014254Y006454D01*
X014396Y006415D01*
X014536Y006369D01*
X014673Y006316D01*
X014808Y006256D01*
X014939Y006190D01*
X015067Y006117D01*
X015192Y006038D01*
X015312Y005954D01*
X015428Y005863D01*
X015540Y005767D01*
X015646Y005665D01*
X015748Y005559D01*
X015844Y005447D01*
X015935Y005331D01*
X016019Y005211D01*
X016098Y005086D01*
X016171Y004958D01*
X016237Y004827D01*
X016297Y004692D01*
X016350Y004555D01*
X016396Y004415D01*
X016435Y004273D01*
X016467Y004129D01*
X016493Y003984D01*
X016511Y003838D01*
X016521Y003691D01*
X016525Y003544D01*
X016521Y003397D01*
X016511Y003250D01*
X016493Y003104D01*
X016467Y002959D01*
X016435Y002815D01*
X016396Y002673D01*
X016350Y002533D01*
X016297Y002396D01*
X016237Y002261D01*
X016171Y002130D01*
X016098Y002002D01*
X016019Y001877D01*
X015935Y001757D01*
X015844Y001641D01*
X015748Y001529D01*
X015646Y001423D01*
X015540Y001321D01*
X015428Y001225D01*
X015312Y001134D01*
X015192Y001050D01*
X015067Y000971D01*
X014939Y000898D01*
X014808Y000832D01*
X014673Y000772D01*
X014536Y000719D01*
X014396Y000673D01*
X014254Y000634D01*
X014110Y000602D01*
X013965Y000576D01*
X013819Y000558D01*
X013672Y000548D01*
X013525Y000544D01*
X013378Y000548D01*
X013231Y000558D01*
X013085Y000576D01*
X012940Y000602D01*
X012796Y000634D01*
X012654Y000673D01*
X012514Y000719D01*
X012377Y000772D01*
X012242Y000832D01*
X012111Y000898D01*
X011983Y000971D01*
X011858Y001050D01*
X011738Y001134D01*
X011622Y001225D01*
X011510Y001321D01*
X011404Y001423D01*
X011302Y001529D01*
X011206Y001641D01*
X011115Y001757D01*
X011031Y001877D01*
X010952Y002002D01*
X010879Y002130D01*
X010813Y002261D01*
X010753Y002396D01*
X010700Y002533D01*
X010654Y002673D01*
X010615Y002815D01*
X010583Y002959D01*
X010557Y003104D01*
X010539Y003250D01*
X010529Y003397D01*
X010525Y003544D01*
X006926Y006622D02*
X006856Y006552D01*
X006716Y006552D01*
X006646Y006622D01*
X006646Y006903D01*
X006716Y006973D01*
X006856Y006973D01*
X006926Y006903D01*
X006926Y006622D01*
X007055Y007074D02*
X006621Y007074D01*
X006063Y005206D02*
X005943Y005206D01*
X005903Y005166D01*
X005903Y005086D01*
X005943Y005046D01*
X006063Y005046D01*
X006063Y004966D02*
X006063Y005206D01*
X006553Y004249D02*
X006553Y004091D01*
X006553Y002437D02*
X006553Y002162D01*
X006415Y002300D02*
X006691Y002300D01*
X003762Y001909D02*
X003762Y001829D01*
X003722Y001789D01*
X003762Y001909D02*
X003722Y001949D01*
X003682Y001949D01*
X003522Y001789D01*
X003522Y001949D01*
X003682Y002378D02*
X003682Y002458D01*
X003722Y002418D02*
X003562Y002418D01*
X003522Y002458D01*
X003562Y002574D02*
X003522Y002614D01*
X003522Y002694D01*
X003562Y002734D01*
X003642Y002734D01*
X003682Y002694D01*
X003682Y002614D01*
X003642Y002574D01*
X003562Y002574D01*
X003522Y003164D02*
X003522Y003324D01*
X003522Y003244D02*
X003762Y003244D01*
X003682Y003164D01*
X003336Y003132D02*
X002916Y003132D01*
X003126Y003592D02*
X003126Y003732D01*
X003206Y004957D02*
X003206Y005587D01*
X003207Y005587D02*
X003213Y005605D01*
X003222Y005623D01*
X003234Y005638D01*
X003250Y005650D01*
X003267Y005659D01*
X003286Y005665D01*
X003305Y005667D01*
X003325Y005665D01*
X003207Y004957D02*
X003213Y004939D01*
X003222Y004921D01*
X003234Y004906D01*
X003250Y004894D01*
X003267Y004885D01*
X003286Y004879D01*
X003305Y004877D01*
X003325Y004879D01*
X016456Y005029D02*
X016512Y005019D01*
X016557Y004953D01*
X016548Y004898D01*
X026356Y014701D02*
X026358Y014752D01*
X026364Y014803D01*
X026374Y014853D01*
X026387Y014903D01*
X026405Y014951D01*
X026425Y014998D01*
X026450Y015043D01*
X026478Y015086D01*
X026509Y015127D01*
X026543Y015165D01*
X026580Y015200D01*
X026619Y015233D01*
X026661Y015263D01*
X026705Y015289D01*
X026751Y015311D01*
X026799Y015331D01*
X026848Y015346D01*
X026898Y015358D01*
X026948Y015366D01*
X026999Y015370D01*
X027051Y015370D01*
X027102Y015366D01*
X027152Y015358D01*
X027202Y015346D01*
X027251Y015331D01*
X027299Y015311D01*
X027345Y015289D01*
X027389Y015263D01*
X027431Y015233D01*
X027470Y015200D01*
X027507Y015165D01*
X027541Y015127D01*
X027572Y015086D01*
X027600Y015043D01*
X027625Y014998D01*
X027645Y014951D01*
X027663Y014903D01*
X027676Y014853D01*
X027686Y014803D01*
X027692Y014752D01*
X027694Y014701D01*
X027692Y014650D01*
X027686Y014599D01*
X027676Y014549D01*
X027663Y014499D01*
X027645Y014451D01*
X027625Y014404D01*
X027600Y014359D01*
X027572Y014316D01*
X027541Y014275D01*
X027507Y014237D01*
X027470Y014202D01*
X027431Y014169D01*
X027389Y014139D01*
X027345Y014113D01*
X027299Y014091D01*
X027251Y014071D01*
X027202Y014056D01*
X027152Y014044D01*
X027102Y014036D01*
X027051Y014032D01*
X026999Y014032D01*
X026948Y014036D01*
X026898Y014044D01*
X026848Y014056D01*
X026799Y014071D01*
X026751Y014091D01*
X026705Y014113D01*
X026661Y014139D01*
X026619Y014169D01*
X026580Y014202D01*
X026543Y014237D01*
X026509Y014275D01*
X026478Y014316D01*
X026450Y014359D01*
X026425Y014404D01*
X026405Y014451D01*
X026387Y014499D01*
X026374Y014549D01*
X026364Y014599D01*
X026358Y014650D01*
X026356Y014701D01*
X025844Y014701D02*
X025846Y014770D01*
X025852Y014838D01*
X025862Y014906D01*
X025876Y014973D01*
X025894Y015040D01*
X025915Y015105D01*
X025941Y015169D01*
X025970Y015231D01*
X026002Y015291D01*
X026038Y015350D01*
X026078Y015406D01*
X026120Y015460D01*
X026166Y015511D01*
X026215Y015560D01*
X026266Y015606D01*
X026320Y015648D01*
X026376Y015688D01*
X026434Y015724D01*
X026495Y015756D01*
X026557Y015785D01*
X026621Y015811D01*
X026686Y015832D01*
X026753Y015850D01*
X026820Y015864D01*
X026888Y015874D01*
X026956Y015880D01*
X027025Y015882D01*
X027094Y015880D01*
X027162Y015874D01*
X027230Y015864D01*
X027297Y015850D01*
X027364Y015832D01*
X027429Y015811D01*
X027493Y015785D01*
X027555Y015756D01*
X027615Y015724D01*
X027674Y015688D01*
X027730Y015648D01*
X027784Y015606D01*
X027835Y015560D01*
X027884Y015511D01*
X027930Y015460D01*
X027972Y015406D01*
X028012Y015350D01*
X028048Y015292D01*
X028080Y015231D01*
X028109Y015169D01*
X028135Y015105D01*
X028156Y015040D01*
X028174Y014973D01*
X028188Y014906D01*
X028198Y014838D01*
X028204Y014770D01*
X028206Y014701D01*
X028204Y014632D01*
X028198Y014564D01*
X028188Y014496D01*
X028174Y014429D01*
X028156Y014362D01*
X028135Y014297D01*
X028109Y014233D01*
X028080Y014171D01*
X028048Y014110D01*
X028012Y014052D01*
X027972Y013996D01*
X027930Y013942D01*
X027884Y013891D01*
X027835Y013842D01*
X027784Y013796D01*
X027730Y013754D01*
X027674Y013714D01*
X027616Y013678D01*
X027555Y013646D01*
X027493Y013617D01*
X027429Y013591D01*
X027364Y013570D01*
X027297Y013552D01*
X027230Y013538D01*
X027162Y013528D01*
X027094Y013522D01*
X027025Y013520D01*
X026956Y013522D01*
X026888Y013528D01*
X026820Y013538D01*
X026753Y013552D01*
X026686Y013570D01*
X026621Y013591D01*
X026557Y013617D01*
X026495Y013646D01*
X026434Y013678D01*
X026376Y013714D01*
X026320Y013754D01*
X026266Y013796D01*
X026215Y013842D01*
X026166Y013891D01*
X026120Y013942D01*
X026078Y013996D01*
X026038Y014052D01*
X026002Y014110D01*
X025970Y014171D01*
X025941Y014233D01*
X025915Y014297D01*
X025894Y014362D01*
X025876Y014429D01*
X025862Y014496D01*
X025852Y014564D01*
X025846Y014632D01*
X025844Y014701D01*
D11*
X006848Y004800D02*
X005372Y004800D01*
X005903Y004485D02*
X005903Y003993D01*
X005903Y004485D02*
X006848Y004485D01*
X005903Y003264D02*
X005903Y003186D01*
X005903Y002457D02*
X005903Y001965D01*
X006887Y001965D01*
X006887Y001650D01*
X005372Y001650D01*
X003935Y002378D02*
X003935Y004071D01*
D12*
X006848Y004485D02*
X006868Y004485D01*
X006868Y004800D01*
X006848Y004800D01*
D13*
X009899Y004091D03*
D14*
X010537Y000958D02*
X010537Y000388D01*
X010918Y000958D01*
X010918Y000388D01*
X011145Y000483D02*
X011145Y000863D01*
X011240Y000958D01*
X011430Y000958D01*
X011525Y000863D01*
X011525Y000483D01*
X011430Y000388D01*
X011240Y000388D01*
X011145Y000483D01*
D15*
X009988Y002713D02*
X009988Y003186D01*
X010215Y002831D02*
X010249Y002854D01*
X010280Y002880D01*
X010309Y002909D01*
X010335Y002940D01*
X010359Y002974D01*
X010378Y003010D01*
X010395Y003048D01*
X010407Y003087D01*
X010416Y003127D01*
X010422Y003167D01*
X010423Y003208D01*
X010420Y003249D01*
X010414Y003290D01*
X010404Y003330D01*
X010390Y003368D01*
X010373Y003405D01*
X010352Y003441D01*
X010328Y003474D01*
X010301Y003505D01*
X010271Y003533D01*
X010238Y003558D01*
X010204Y003580D01*
X010167Y003598D01*
X010129Y003614D01*
X010090Y003625D01*
X010049Y003633D01*
X010009Y003637D01*
X009967Y003637D01*
X009927Y003633D01*
X009886Y003625D01*
X009847Y003614D01*
X009809Y003598D01*
X009772Y003580D01*
X009738Y003558D01*
X009705Y003533D01*
X009675Y003505D01*
X009648Y003474D01*
X009624Y003441D01*
X009603Y003405D01*
X009586Y003368D01*
X009572Y003330D01*
X009562Y003290D01*
X009556Y003249D01*
X009553Y003208D01*
X009554Y003167D01*
X009560Y003127D01*
X009569Y003087D01*
X009581Y003048D01*
X009598Y003010D01*
X009617Y002974D01*
X009641Y002940D01*
X009667Y002909D01*
X009696Y002880D01*
X009727Y002854D01*
X009761Y002831D01*
M02*
