G75*
G70*
%OFA0B0*%
%FSLAX24Y24*%
%IPPOS*%
%LPD*%
%AMOC8*
5,1,8,0,0,1.08239X$1,22.5*
%
%ADD10R,0.0600X0.0300*%
%ADD11R,0.0300X0.0600*%
%ADD12R,0.1600X0.0600*%
%ADD13R,0.0551X0.0709*%
%ADD14R,0.0748X0.0551*%
%ADD15R,0.0591X0.0315*%
%ADD16R,0.0315X0.0315*%
%ADD17R,0.0433X0.0394*%
%ADD18R,0.0250X0.0500*%
%ADD19C,0.0740*%
%ADD20R,0.0500X0.0250*%
%ADD21R,0.0827X0.0787*%
%ADD22R,0.0787X0.0827*%
%ADD23C,0.0669*%
%ADD24C,0.0515*%
%ADD25C,0.0650*%
%ADD26C,0.0787*%
%ADD27C,0.0436*%
%ADD28R,0.0880X0.0300*%
%ADD29R,0.0866X0.1417*%
%ADD30R,0.0720X0.0724*%
%ADD31R,0.0937X0.0650*%
%ADD32C,0.0025*%
%ADD33R,0.0236X0.0354*%
%ADD34R,0.1811X0.0394*%
%ADD35R,0.1339X0.0630*%
%ADD36R,0.0276X0.0591*%
%ADD37R,0.0394X0.0315*%
%ADD38R,0.0394X0.0433*%
%ADD39C,0.0240*%
%ADD40C,0.0080*%
%ADD41C,0.0787*%
%ADD42C,0.0070*%
%ADD43C,0.0080*%
%ADD44C,0.0160*%
%ADD45C,0.0240*%
%ADD46C,0.0320*%
%ADD47C,0.0120*%
%ADD48C,0.0100*%
%ADD49C,0.0560*%
%ADD50C,0.0060*%
D10*
X017112Y009928D03*
X017112Y011428D03*
X019112Y011428D03*
X019112Y009928D03*
D11*
X016350Y008272D03*
X014850Y008272D03*
X014850Y006272D03*
X016350Y006272D03*
D12*
X022650Y003501D03*
X022650Y001501D03*
D13*
X019797Y009127D03*
X019797Y011371D03*
D14*
X024974Y012001D03*
X025368Y006824D03*
D15*
X023852Y008658D03*
X023695Y009091D03*
X023852Y009524D03*
X023931Y009957D03*
X023852Y010391D03*
X023931Y010824D03*
X023852Y011257D03*
X023852Y011690D03*
D16*
X010450Y005115D03*
X010450Y004524D03*
D17*
X010234Y004091D03*
X009565Y004091D03*
X010214Y008402D03*
X010883Y008402D03*
D18*
X013935Y008520D03*
X014289Y008520D03*
X006651Y005646D03*
X006297Y005646D03*
D19*
X005318Y006180D03*
X004318Y006180D03*
X003318Y006180D03*
X003318Y007429D03*
X004318Y007429D03*
X005318Y007429D03*
X005318Y008677D03*
X004318Y008677D03*
X003318Y008677D03*
X003318Y009926D03*
X004318Y009926D03*
X005318Y009926D03*
X005318Y011174D03*
X004318Y011174D03*
X003318Y011174D03*
X003318Y012423D03*
X004318Y012423D03*
X005318Y012423D03*
X005318Y013671D03*
X004318Y013671D03*
X003318Y013671D03*
X003318Y014920D03*
X004318Y014920D03*
X005318Y014920D03*
X021171Y005390D03*
X022171Y005390D03*
X023171Y005390D03*
X024171Y005390D03*
X025171Y005390D03*
D20*
X003600Y005449D03*
X003600Y005095D03*
D21*
X007635Y007398D03*
X009506Y007398D03*
X011376Y007398D03*
D22*
X012261Y008776D03*
X012261Y009957D03*
X012261Y011138D03*
X012261Y012319D03*
X012431Y013510D03*
X006750Y012319D03*
X006750Y011138D03*
X006750Y009957D03*
X006750Y008776D03*
X006571Y013500D03*
D23*
X010324Y012630D03*
X011324Y012630D03*
X011324Y011630D03*
X010324Y011630D03*
X010324Y010630D03*
X011324Y010630D03*
D24*
X013545Y010863D03*
X014332Y010863D03*
X015120Y010863D03*
X015907Y010863D03*
X017383Y005764D03*
X018171Y005764D03*
X018958Y005764D03*
X019746Y005764D03*
D25*
X021021Y013709D03*
X021021Y015103D03*
D26*
X023230Y013579D03*
X024230Y013579D03*
X025230Y013579D03*
X013521Y007544D03*
X013521Y003544D03*
D27*
X020381Y012516D03*
X020881Y012516D03*
X021381Y012516D03*
X021881Y012516D03*
X022381Y012516D03*
D28*
X007380Y006410D03*
X007380Y005910D03*
X007380Y005410D03*
X007380Y004910D03*
X007380Y004410D03*
D29*
X009820Y005449D03*
D30*
X015509Y012103D03*
X017517Y012103D03*
X017517Y015489D03*
X015509Y015489D03*
D31*
X018797Y013973D03*
D32*
X018834Y014418D02*
X018760Y014418D01*
X018760Y014748D01*
X018834Y014748D01*
X018834Y014418D01*
X018834Y014442D02*
X018760Y014442D01*
X018760Y014466D02*
X018834Y014466D01*
X018834Y014490D02*
X018760Y014490D01*
X018760Y014514D02*
X018834Y014514D01*
X018834Y014538D02*
X018760Y014538D01*
X018760Y014562D02*
X018834Y014562D01*
X018834Y014586D02*
X018760Y014586D01*
X018760Y014610D02*
X018834Y014610D01*
X018834Y014634D02*
X018760Y014634D01*
X018760Y014658D02*
X018834Y014658D01*
X018834Y014682D02*
X018760Y014682D01*
X018760Y014706D02*
X018834Y014706D01*
X018834Y014730D02*
X018760Y014730D01*
X018637Y014418D02*
X018563Y014418D01*
X018563Y014748D01*
X018637Y014748D01*
X018637Y014418D01*
X018637Y014442D02*
X018563Y014442D01*
X018563Y014466D02*
X018637Y014466D01*
X018637Y014490D02*
X018563Y014490D01*
X018563Y014514D02*
X018637Y014514D01*
X018637Y014538D02*
X018563Y014538D01*
X018563Y014562D02*
X018637Y014562D01*
X018637Y014586D02*
X018563Y014586D01*
X018563Y014610D02*
X018637Y014610D01*
X018637Y014634D02*
X018563Y014634D01*
X018563Y014658D02*
X018637Y014658D01*
X018637Y014682D02*
X018563Y014682D01*
X018563Y014706D02*
X018637Y014706D01*
X018637Y014730D02*
X018563Y014730D01*
X018440Y014418D02*
X018366Y014418D01*
X018366Y014748D01*
X018440Y014748D01*
X018440Y014418D01*
X018440Y014442D02*
X018366Y014442D01*
X018366Y014466D02*
X018440Y014466D01*
X018440Y014490D02*
X018366Y014490D01*
X018366Y014514D02*
X018440Y014514D01*
X018440Y014538D02*
X018366Y014538D01*
X018366Y014562D02*
X018440Y014562D01*
X018440Y014586D02*
X018366Y014586D01*
X018366Y014610D02*
X018440Y014610D01*
X018440Y014634D02*
X018366Y014634D01*
X018366Y014658D02*
X018440Y014658D01*
X018440Y014682D02*
X018366Y014682D01*
X018366Y014706D02*
X018440Y014706D01*
X018440Y014730D02*
X018366Y014730D01*
X018957Y014418D02*
X019031Y014418D01*
X018957Y014418D02*
X018957Y014748D01*
X019031Y014748D01*
X019031Y014418D01*
X019031Y014442D02*
X018957Y014442D01*
X018957Y014466D02*
X019031Y014466D01*
X019031Y014490D02*
X018957Y014490D01*
X018957Y014514D02*
X019031Y014514D01*
X019031Y014538D02*
X018957Y014538D01*
X018957Y014562D02*
X019031Y014562D01*
X019031Y014586D02*
X018957Y014586D01*
X018957Y014610D02*
X019031Y014610D01*
X019031Y014634D02*
X018957Y014634D01*
X018957Y014658D02*
X019031Y014658D01*
X019031Y014682D02*
X018957Y014682D01*
X018957Y014706D02*
X019031Y014706D01*
X019031Y014730D02*
X018957Y014730D01*
X019154Y014418D02*
X019228Y014418D01*
X019154Y014418D02*
X019154Y014748D01*
X019228Y014748D01*
X019228Y014418D01*
X019228Y014442D02*
X019154Y014442D01*
X019154Y014466D02*
X019228Y014466D01*
X019228Y014490D02*
X019154Y014490D01*
X019154Y014514D02*
X019228Y014514D01*
X019228Y014538D02*
X019154Y014538D01*
X019154Y014562D02*
X019228Y014562D01*
X019228Y014586D02*
X019154Y014586D01*
X019154Y014610D02*
X019228Y014610D01*
X019228Y014634D02*
X019154Y014634D01*
X019154Y014658D02*
X019228Y014658D01*
X019228Y014682D02*
X019154Y014682D01*
X019154Y014706D02*
X019228Y014706D01*
X019228Y014730D02*
X019154Y014730D01*
X019154Y013198D02*
X019228Y013198D01*
X019154Y013198D02*
X019154Y013528D01*
X019228Y013528D01*
X019228Y013198D01*
X019228Y013222D02*
X019154Y013222D01*
X019154Y013246D02*
X019228Y013246D01*
X019228Y013270D02*
X019154Y013270D01*
X019154Y013294D02*
X019228Y013294D01*
X019228Y013318D02*
X019154Y013318D01*
X019154Y013342D02*
X019228Y013342D01*
X019228Y013366D02*
X019154Y013366D01*
X019154Y013390D02*
X019228Y013390D01*
X019228Y013414D02*
X019154Y013414D01*
X019154Y013438D02*
X019228Y013438D01*
X019228Y013462D02*
X019154Y013462D01*
X019154Y013486D02*
X019228Y013486D01*
X019228Y013510D02*
X019154Y013510D01*
X019031Y013198D02*
X018957Y013198D01*
X018957Y013528D01*
X019031Y013528D01*
X019031Y013198D01*
X019031Y013222D02*
X018957Y013222D01*
X018957Y013246D02*
X019031Y013246D01*
X019031Y013270D02*
X018957Y013270D01*
X018957Y013294D02*
X019031Y013294D01*
X019031Y013318D02*
X018957Y013318D01*
X018957Y013342D02*
X019031Y013342D01*
X019031Y013366D02*
X018957Y013366D01*
X018957Y013390D02*
X019031Y013390D01*
X019031Y013414D02*
X018957Y013414D01*
X018957Y013438D02*
X019031Y013438D01*
X019031Y013462D02*
X018957Y013462D01*
X018957Y013486D02*
X019031Y013486D01*
X019031Y013510D02*
X018957Y013510D01*
X018834Y013198D02*
X018760Y013198D01*
X018760Y013528D01*
X018834Y013528D01*
X018834Y013198D01*
X018834Y013222D02*
X018760Y013222D01*
X018760Y013246D02*
X018834Y013246D01*
X018834Y013270D02*
X018760Y013270D01*
X018760Y013294D02*
X018834Y013294D01*
X018834Y013318D02*
X018760Y013318D01*
X018760Y013342D02*
X018834Y013342D01*
X018834Y013366D02*
X018760Y013366D01*
X018760Y013390D02*
X018834Y013390D01*
X018834Y013414D02*
X018760Y013414D01*
X018760Y013438D02*
X018834Y013438D01*
X018834Y013462D02*
X018760Y013462D01*
X018760Y013486D02*
X018834Y013486D01*
X018834Y013510D02*
X018760Y013510D01*
X018637Y013198D02*
X018563Y013198D01*
X018563Y013528D01*
X018637Y013528D01*
X018637Y013198D01*
X018637Y013222D02*
X018563Y013222D01*
X018563Y013246D02*
X018637Y013246D01*
X018637Y013270D02*
X018563Y013270D01*
X018563Y013294D02*
X018637Y013294D01*
X018637Y013318D02*
X018563Y013318D01*
X018563Y013342D02*
X018637Y013342D01*
X018637Y013366D02*
X018563Y013366D01*
X018563Y013390D02*
X018637Y013390D01*
X018637Y013414D02*
X018563Y013414D01*
X018563Y013438D02*
X018637Y013438D01*
X018637Y013462D02*
X018563Y013462D01*
X018563Y013486D02*
X018637Y013486D01*
X018637Y013510D02*
X018563Y013510D01*
X018440Y013198D02*
X018366Y013198D01*
X018366Y013528D01*
X018440Y013528D01*
X018440Y013198D01*
X018440Y013222D02*
X018366Y013222D01*
X018366Y013246D02*
X018440Y013246D01*
X018440Y013270D02*
X018366Y013270D01*
X018366Y013294D02*
X018440Y013294D01*
X018440Y013318D02*
X018366Y013318D01*
X018366Y013342D02*
X018440Y013342D01*
X018440Y013366D02*
X018366Y013366D01*
X018366Y013390D02*
X018440Y013390D01*
X018440Y013414D02*
X018366Y013414D01*
X018366Y013438D02*
X018440Y013438D01*
X018440Y013462D02*
X018366Y013462D01*
X018366Y013486D02*
X018440Y013486D01*
X018440Y013510D02*
X018366Y013510D01*
D33*
X018718Y015075D03*
X019309Y015075D03*
D34*
X006572Y003619D03*
X006572Y002831D03*
D35*
X004525Y001886D03*
X004525Y004563D03*
D36*
X008069Y002339D03*
X008659Y002339D03*
X009840Y002339D03*
D37*
X010391Y002083D03*
X010391Y001217D03*
X007517Y001217D03*
X007517Y002083D03*
D38*
X009269Y002752D03*
X009269Y003422D03*
D39*
X009702Y003245D03*
X009702Y003638D03*
X010569Y003363D03*
X010952Y003412D03*
X011651Y003973D03*
X012360Y004150D03*
X012360Y004504D03*
X012399Y004898D03*
X012813Y004524D03*
X012517Y005489D03*
X012104Y005489D03*
X011179Y005725D03*
X011080Y006099D03*
X010450Y005587D03*
X009604Y006315D03*
X009742Y006788D03*
X008600Y007201D03*
X008482Y006670D03*
X008620Y007871D03*
X009387Y008008D03*
X009446Y008304D03*
X009446Y008619D03*
X009466Y008934D03*
X009191Y009130D03*
X009269Y009682D03*
X008580Y009997D03*
X009151Y010469D03*
X009210Y010863D03*
X009624Y011178D03*
X008620Y010686D03*
X007832Y009819D03*
X007340Y009977D03*
X007714Y009052D03*
X007380Y008993D03*
X005785Y009308D03*
X005883Y008225D03*
X005864Y007595D03*
X006021Y006886D03*
X006435Y006414D03*
X005923Y005745D03*
X005352Y005213D03*
X004683Y005115D03*
X004131Y005075D03*
X004446Y003874D03*
X004525Y003126D03*
X004939Y002930D03*
X005411Y003067D03*
X006061Y003973D03*
X006809Y003973D03*
X007084Y003993D03*
X008246Y003993D03*
X008246Y004347D03*
X008305Y005095D03*
X008049Y005292D03*
X006651Y005252D03*
X005411Y004465D03*
X003580Y002851D03*
X003423Y002615D03*
X003265Y002851D03*
X003108Y002615D03*
X002773Y002241D03*
X002773Y001414D03*
X003344Y001000D03*
X003344Y000567D03*
X002773Y000567D03*
X003915Y000567D03*
X003915Y001000D03*
X004860Y001296D03*
X006631Y001119D03*
X007202Y000528D03*
X007832Y000528D03*
X008482Y000528D03*
X008482Y001119D03*
X009112Y001119D03*
X009663Y001119D03*
X009663Y000528D03*
X009112Y000528D03*
X009525Y002063D03*
X009033Y002300D03*
X008482Y002851D03*
X008521Y003186D03*
X010746Y002142D03*
X011041Y001965D03*
X011277Y000843D03*
X011277Y000548D03*
X011750Y000548D03*
X012242Y000567D03*
X013541Y000804D03*
X014053Y000804D03*
X014407Y000863D03*
X014407Y001217D03*
X014407Y001571D03*
X014210Y001886D03*
X014860Y001749D03*
X014860Y001453D03*
X014860Y001138D03*
X014860Y000843D03*
X015293Y000961D03*
X015194Y000508D03*
X015509Y000508D03*
X015824Y000508D03*
X016120Y000508D03*
X016454Y000508D03*
X016769Y000508D03*
X017065Y000508D03*
X017340Y000508D03*
X017635Y000508D03*
X017931Y000508D03*
X018206Y000508D03*
X018502Y000508D03*
X018797Y000508D03*
X019112Y000508D03*
X019407Y000508D03*
X019702Y000508D03*
X019998Y000508D03*
X020273Y000508D03*
X020569Y000508D03*
X020864Y000508D03*
X021139Y000508D03*
X021435Y000508D03*
X021730Y000508D03*
X022006Y000508D03*
X022301Y000508D03*
X022596Y000508D03*
X022891Y000508D03*
X023108Y000725D03*
X023206Y001020D03*
X022911Y001020D03*
X022616Y001020D03*
X022320Y001020D03*
X022025Y001020D03*
X021356Y000981D03*
X021356Y001256D03*
X021494Y001493D03*
X021691Y001670D03*
X021474Y001827D03*
X020332Y002004D03*
X020332Y002339D03*
X019112Y002477D03*
X019112Y002752D03*
X018777Y002930D03*
X017793Y002260D03*
X017498Y002890D03*
X017498Y003146D03*
X017498Y003402D03*
X017202Y003481D03*
X016946Y003481D03*
X016513Y004111D03*
X016474Y004583D03*
X016789Y004583D03*
X017084Y004583D03*
X017360Y004583D03*
X017655Y004583D03*
X017950Y004583D03*
X018226Y004583D03*
X018521Y004583D03*
X018817Y004583D03*
X019131Y004583D03*
X019427Y004583D03*
X019722Y004583D03*
X020017Y004583D03*
X020293Y004583D03*
X020588Y004583D03*
X020883Y004583D03*
X021159Y004583D03*
X021454Y004583D03*
X021750Y004583D03*
X022025Y004583D03*
X022025Y004288D03*
X022025Y003973D03*
X022320Y003973D03*
X022616Y003973D03*
X022911Y003973D03*
X023206Y003973D03*
X023206Y004268D03*
X023206Y004583D03*
X022911Y004583D03*
X022616Y004583D03*
X022320Y004583D03*
X022655Y004937D03*
X021651Y004937D03*
X020726Y004937D03*
X019781Y004937D03*
X018915Y004937D03*
X018069Y004937D03*
X017360Y004937D03*
X016612Y004937D03*
X016139Y004583D03*
X015844Y004583D03*
X015529Y004583D03*
X015214Y004583D03*
X014899Y004583D03*
X014860Y004288D03*
X014860Y003973D03*
X014860Y003658D03*
X014860Y003343D03*
X015569Y003540D03*
X014250Y002871D03*
X012301Y002477D03*
X014407Y000508D03*
X014860Y000508D03*
X015726Y001217D03*
X016218Y000981D03*
X018069Y001000D03*
X018069Y001296D03*
X020057Y003540D03*
X022419Y006414D03*
X022714Y006611D03*
X023777Y006630D03*
X024053Y006217D03*
X024722Y006237D03*
X025667Y006355D03*
X025667Y005823D03*
X025549Y004937D03*
X024663Y004937D03*
X023659Y004937D03*
X021533Y006453D03*
X021553Y006906D03*
X020234Y007024D03*
X019545Y007674D03*
X019230Y007083D03*
X018974Y007280D03*
X018561Y007280D03*
X018265Y007497D03*
X017813Y007536D03*
X017616Y007300D03*
X017281Y006886D03*
X016612Y006985D03*
X016139Y007221D03*
X015982Y007871D03*
X016868Y007575D03*
X017557Y008008D03*
X017301Y008264D03*
X018206Y008993D03*
X018521Y009229D03*
X018049Y009445D03*
X017754Y009544D03*
X017439Y009544D03*
X016927Y009426D03*
X016691Y010272D03*
X016395Y011138D03*
X015982Y011374D03*
X015273Y011473D03*
X014446Y011315D03*
X014053Y011256D03*
X014309Y012063D03*
X014683Y012811D03*
X014722Y013323D03*
X015214Y013264D03*
X016090Y013510D03*
X016376Y013363D03*
X016612Y014308D03*
X017104Y014189D03*
X017635Y014209D03*
X018147Y013500D03*
X018698Y012811D03*
X018226Y012595D03*
X018915Y011847D03*
X019899Y011926D03*
X020273Y012123D03*
X020785Y012103D03*
X021159Y012989D03*
X020450Y013107D03*
X020057Y013619D03*
X022124Y013008D03*
X022616Y011630D03*
X022694Y011158D03*
X023403Y011197D03*
X024348Y011315D03*
X024309Y010469D03*
X024486Y010016D03*
X024309Y009603D03*
X024171Y009170D03*
X025765Y008874D03*
X025746Y008146D03*
X024978Y007536D03*
X025864Y007201D03*
X025785Y009642D03*
X025785Y010390D03*
X025805Y011178D03*
X025805Y011670D03*
X025746Y014701D03*
X025746Y015134D03*
X025687Y015567D03*
X021887Y011178D03*
X021297Y011217D03*
X020943Y011256D03*
X020431Y010548D03*
X020431Y010016D03*
X021198Y010449D03*
X020372Y008796D03*
X019328Y009170D03*
X018561Y008619D03*
X018069Y010489D03*
X018935Y010823D03*
X017616Y011374D03*
X014820Y009189D03*
X015194Y008894D03*
X015569Y008943D03*
X015844Y008776D03*
X014466Y008048D03*
X014131Y008008D03*
X013187Y008264D03*
X012261Y008107D03*
X012360Y007103D03*
X013580Y005981D03*
X013423Y005430D03*
X013974Y005430D03*
X014230Y005666D03*
X014545Y006079D03*
X015057Y005774D03*
X015352Y005882D03*
X016002Y006040D03*
X015943Y004937D03*
X015322Y004937D03*
X010943Y008973D03*
X011376Y009032D03*
X010096Y009268D03*
X010647Y007733D03*
X013029Y009367D03*
X013324Y009583D03*
X013600Y009209D03*
X013817Y009445D03*
X014131Y009209D03*
X013954Y010193D03*
X012911Y011374D03*
X011297Y013520D03*
X010667Y013520D03*
X012222Y014130D03*
X013128Y014288D03*
X013954Y014406D03*
X014880Y015213D03*
X016061Y015115D03*
X015687Y014288D03*
X013561Y015567D03*
X012320Y015134D03*
X009309Y012280D03*
X008836Y012949D03*
X008541Y013343D03*
X007931Y011689D03*
X006080Y010686D03*
X004880Y010686D03*
X002754Y010548D03*
X002734Y011788D03*
X002734Y013008D03*
X002734Y014288D03*
X002773Y015686D03*
X005569Y015705D03*
X006966Y015154D03*
X002754Y009327D03*
X002754Y008048D03*
X002734Y006788D03*
X002754Y005567D03*
X002754Y004819D03*
X002754Y003678D03*
X006710Y007142D03*
X006927Y007398D03*
X018029Y015764D03*
X018620Y015371D03*
X019663Y015733D03*
X020529Y015745D03*
X021868Y008658D03*
X022773Y007693D03*
D40*
X002458Y002790D02*
X002458Y000412D01*
X003936Y000412D01*
X004641Y001118D01*
X004723Y001199D01*
X006298Y001199D01*
X006414Y001199D01*
X007201Y000412D01*
X014624Y000412D01*
X014624Y005111D01*
X014380Y005111D01*
X014203Y004934D01*
X014021Y004934D01*
X013612Y004934D01*
X013598Y004934D01*
X013588Y004925D01*
X013531Y004932D01*
X013073Y004473D01*
X013073Y004472D01*
X013033Y004377D01*
X012960Y004304D01*
X012864Y004264D01*
X012761Y004264D01*
X012665Y004304D01*
X012592Y004377D01*
X012553Y004472D01*
X012553Y004576D01*
X012592Y004671D01*
X012665Y004744D01*
X012761Y004784D01*
X012761Y004784D01*
X013190Y005213D01*
X010701Y005213D01*
X010697Y005211D01*
X010693Y005213D01*
X008537Y005213D01*
X008565Y005147D01*
X008565Y005089D01*
X009258Y004396D01*
X009290Y004428D01*
X009839Y004428D01*
X009899Y004368D01*
X009959Y004428D01*
X010153Y004428D01*
X010153Y004740D01*
X010235Y004822D01*
X010666Y004822D01*
X010748Y004740D01*
X010748Y004309D01*
X010666Y004227D01*
X010598Y004227D01*
X010591Y004191D01*
X010591Y004135D01*
X010590Y004134D01*
X010590Y003836D01*
X010508Y003754D01*
X009959Y003754D01*
X009899Y003814D01*
X009839Y003754D01*
X009548Y003754D01*
X009606Y003696D01*
X009606Y003147D01*
X009524Y003065D01*
X009148Y003065D01*
X009115Y003032D01*
X009115Y002547D01*
X009180Y002520D01*
X009253Y002447D01*
X009293Y002351D01*
X009293Y002248D01*
X009253Y002152D01*
X009180Y002079D01*
X009085Y002040D01*
X008981Y002040D01*
X008937Y002058D01*
X008937Y001986D01*
X008855Y001904D01*
X008559Y001904D01*
X008633Y001830D01*
X008681Y001713D01*
X008681Y001587D01*
X008633Y001470D01*
X008543Y001381D01*
X008427Y001333D01*
X008301Y001333D01*
X008184Y001381D01*
X008095Y001470D01*
X008047Y001587D01*
X008047Y001713D01*
X008095Y001830D01*
X008169Y001904D01*
X007873Y001904D01*
X007791Y001986D01*
X007791Y002362D01*
X007597Y002556D01*
X007536Y002494D01*
X005609Y002494D01*
X005527Y002576D01*
X005527Y003086D01*
X005609Y003168D01*
X007312Y003168D01*
X007493Y003349D01*
X007493Y003947D01*
X007330Y004110D01*
X006307Y004110D01*
X006297Y004106D01*
X006254Y004106D01*
X006212Y004101D01*
X006195Y004106D01*
X006047Y004106D01*
X005397Y003456D01*
X005356Y003415D01*
X005356Y003415D01*
X005356Y003414D01*
X005336Y003395D01*
X005226Y003349D01*
X005106Y003349D01*
X005059Y003369D01*
X004368Y003367D01*
X004368Y003367D01*
X004186Y003367D01*
X003968Y003149D01*
X003880Y002812D01*
X003880Y002791D01*
X003869Y002763D01*
X003863Y002734D01*
X003858Y002726D01*
X003856Y002717D01*
X003843Y002700D01*
X003835Y002681D01*
X003813Y002660D01*
X003689Y002473D01*
X003677Y002445D01*
X003656Y002424D01*
X003639Y002399D01*
X003614Y002382D01*
X003593Y002360D01*
X003565Y002349D01*
X003540Y002332D01*
X003510Y002326D01*
X003483Y002315D01*
X003452Y002315D01*
X003423Y002309D01*
X003393Y002315D01*
X003048Y002315D01*
X002938Y002360D01*
X002918Y002380D01*
X002881Y002418D01*
X002842Y002453D01*
X002839Y002459D01*
X002834Y002464D01*
X002814Y002513D01*
X002791Y002561D01*
X002791Y002568D01*
X002788Y002575D01*
X002788Y002627D01*
X002786Y002680D01*
X002788Y002687D01*
X002788Y002694D01*
X002808Y002743D01*
X002826Y002792D01*
X002831Y002798D01*
X002834Y002804D01*
X002871Y002842D01*
X003441Y003467D01*
X003444Y003474D01*
X003472Y003501D01*
X003495Y003532D01*
X003507Y003539D01*
X003517Y003550D01*
X003523Y003553D01*
X003658Y003687D01*
X003450Y003896D01*
X003450Y003896D01*
X003365Y003980D01*
X003320Y004090D01*
X003320Y004752D01*
X003300Y004799D01*
X003300Y004830D01*
X003292Y004830D01*
X003210Y004912D01*
X003210Y005213D01*
X002559Y005213D01*
X002559Y002988D01*
X002559Y002872D01*
X002477Y002790D01*
X002458Y002790D01*
X002458Y002786D02*
X002824Y002786D01*
X002794Y002707D02*
X002458Y002707D01*
X002458Y002628D02*
X002788Y002628D01*
X002796Y002550D02*
X002458Y002550D01*
X002458Y002471D02*
X002831Y002471D01*
X002905Y002393D02*
X002458Y002393D01*
X002458Y002314D02*
X003395Y002314D01*
X003451Y002314D02*
X007791Y002314D01*
X007791Y002236D02*
X002458Y002236D01*
X002458Y002157D02*
X007791Y002157D01*
X007791Y002079D02*
X002458Y002079D01*
X002458Y002000D02*
X007791Y002000D01*
X007855Y001922D02*
X002458Y001922D01*
X002458Y001843D02*
X008108Y001843D01*
X008068Y001764D02*
X002458Y001764D01*
X002458Y001686D02*
X008047Y001686D01*
X008047Y001607D02*
X002458Y001607D01*
X002458Y001529D02*
X008071Y001529D01*
X008115Y001450D02*
X002458Y001450D01*
X002458Y001372D02*
X008207Y001372D01*
X008521Y001372D02*
X009388Y001372D01*
X009365Y001381D02*
X009482Y001333D01*
X009608Y001333D01*
X009725Y001381D01*
X009814Y001470D01*
X009862Y001587D01*
X009862Y001713D01*
X009814Y001830D01*
X009725Y001919D01*
X009608Y001967D01*
X009482Y001967D01*
X009365Y001919D01*
X009276Y001830D01*
X009228Y001713D01*
X009228Y001587D01*
X009276Y001470D01*
X009365Y001381D01*
X009296Y001450D02*
X008613Y001450D01*
X008657Y001529D02*
X009252Y001529D01*
X009228Y001607D02*
X008681Y001607D01*
X008681Y001686D02*
X009228Y001686D01*
X009249Y001764D02*
X008660Y001764D01*
X008619Y001843D02*
X009289Y001843D01*
X009371Y001922D02*
X008873Y001922D01*
X008937Y002000D02*
X010781Y002000D01*
X010781Y002017D02*
X010781Y001913D01*
X010821Y001818D01*
X010894Y001745D01*
X010989Y001705D01*
X011093Y001705D01*
X011188Y001745D01*
X011261Y001818D01*
X011301Y001913D01*
X011301Y002017D01*
X011261Y002112D01*
X011221Y002153D01*
X011221Y003249D01*
X011221Y003398D01*
X011212Y003406D01*
X011212Y003464D01*
X011173Y003559D01*
X011100Y003632D01*
X011004Y003672D01*
X010901Y003672D01*
X010805Y003632D01*
X010732Y003559D01*
X010692Y003464D01*
X010692Y003360D01*
X010732Y003265D01*
X010805Y003191D01*
X010861Y003168D01*
X010861Y002153D01*
X010821Y002112D01*
X010781Y002017D01*
X010807Y002079D02*
X009179Y002079D01*
X009255Y002157D02*
X010861Y002157D01*
X010861Y002236D02*
X009288Y002236D01*
X009293Y002314D02*
X010861Y002314D01*
X010861Y002393D02*
X009276Y002393D01*
X009229Y002471D02*
X010861Y002471D01*
X010861Y002550D02*
X009115Y002550D01*
X009115Y002628D02*
X010861Y002628D01*
X010861Y002707D02*
X009115Y002707D01*
X009115Y002786D02*
X010861Y002786D01*
X010861Y002864D02*
X009115Y002864D01*
X009115Y002943D02*
X010861Y002943D01*
X010861Y003021D02*
X009115Y003021D01*
X008935Y003107D02*
X009092Y003264D01*
X009112Y003264D01*
X009269Y003422D01*
X008935Y003402D02*
X008777Y003245D01*
X008777Y002674D01*
X008659Y002556D01*
X008659Y002339D01*
X008935Y002437D02*
X008935Y003107D01*
X008935Y003402D02*
X008935Y004229D01*
X008326Y004837D01*
X008187Y004837D01*
X008029Y004997D01*
X008029Y005272D01*
X008049Y005292D01*
X008281Y005390D02*
X008262Y005435D01*
X008192Y005505D01*
X008099Y005544D01*
X007999Y005544D01*
X007906Y005505D01*
X007835Y005435D01*
X007817Y005390D01*
X006908Y005390D01*
X006908Y005628D01*
X007875Y005628D01*
X007952Y005705D01*
X007952Y006115D01*
X007907Y006160D01*
X007952Y006205D01*
X007952Y006615D01*
X007875Y006692D01*
X006885Y006692D01*
X006819Y006625D01*
X006801Y006625D01*
X006604Y006822D01*
X006462Y006822D01*
X006388Y006822D01*
X006273Y006937D01*
X006235Y007029D01*
X006164Y007100D01*
X006071Y007138D01*
X005971Y007138D01*
X005879Y007100D01*
X005808Y007029D01*
X005769Y006936D01*
X005769Y006836D01*
X005808Y006744D01*
X005879Y006673D01*
X005971Y006634D01*
X006058Y006634D01*
X006026Y006603D01*
X006026Y006461D01*
X006026Y006224D01*
X006046Y006205D01*
X006046Y005957D01*
X006040Y005951D01*
X006040Y005750D01*
X006036Y005728D01*
X006040Y005722D01*
X006040Y005440D01*
X005758Y005731D01*
X005757Y005733D01*
X005718Y005772D01*
X005679Y005812D01*
X005676Y005813D01*
X005675Y005815D01*
X005666Y005818D01*
X005744Y005896D01*
X005820Y006080D01*
X005820Y006280D01*
X005744Y006464D01*
X005603Y006606D01*
X005418Y006682D01*
X005219Y006682D01*
X005034Y006606D01*
X004893Y006464D01*
X004818Y006285D01*
X004781Y006375D01*
X004781Y007234D01*
X004818Y007324D01*
X004893Y007144D01*
X005034Y007003D01*
X005219Y006927D01*
X005418Y006927D01*
X005603Y007003D01*
X005744Y007144D01*
X005820Y007329D01*
X005820Y007529D01*
X005744Y007713D01*
X005699Y007758D01*
X005812Y007758D01*
X006458Y007112D01*
X006458Y007092D01*
X006497Y006999D01*
X006567Y006929D01*
X006660Y006890D01*
X006760Y006890D01*
X006853Y006929D01*
X006924Y006999D01*
X006962Y007092D01*
X006962Y007192D01*
X006924Y007285D01*
X006853Y007356D01*
X006760Y007394D01*
X006662Y007394D01*
X005955Y008102D01*
X005812Y008102D01*
X004781Y008102D01*
X004781Y008483D01*
X004818Y008573D01*
X004893Y008393D01*
X005034Y008252D01*
X005219Y008175D01*
X005418Y008175D01*
X005603Y008252D01*
X005744Y008393D01*
X005820Y008577D01*
X005820Y008777D01*
X005744Y008961D01*
X005603Y009103D01*
X005418Y009179D01*
X005219Y009179D01*
X005034Y009103D01*
X004893Y008961D01*
X004818Y008782D01*
X004781Y008872D01*
X004781Y009731D01*
X004818Y009821D01*
X004893Y009641D01*
X005034Y009500D01*
X005219Y009424D01*
X005418Y009424D01*
X005603Y009500D01*
X005744Y009641D01*
X005820Y009826D01*
X005820Y010026D01*
X005744Y010210D01*
X005603Y010351D01*
X005418Y010428D01*
X005219Y010428D01*
X005034Y010351D01*
X004893Y010210D01*
X004818Y010030D01*
X004781Y010120D01*
X004781Y010980D01*
X004818Y011070D01*
X004893Y010890D01*
X005034Y010749D01*
X005219Y010672D01*
X005418Y010672D01*
X005603Y010749D01*
X005744Y010890D01*
X005820Y011074D01*
X005820Y011274D01*
X005744Y011459D01*
X005603Y011600D01*
X005418Y011676D01*
X005219Y011676D01*
X005034Y011600D01*
X004893Y011459D01*
X004818Y011279D01*
X004781Y011369D01*
X004781Y012228D01*
X004818Y012318D01*
X004893Y012138D01*
X005034Y011997D01*
X005219Y011921D01*
X005418Y011921D01*
X005603Y011997D01*
X005744Y012138D01*
X005820Y012323D01*
X005820Y012523D01*
X005744Y012707D01*
X005603Y012848D01*
X005418Y012925D01*
X005219Y012925D01*
X005034Y012848D01*
X004893Y012707D01*
X004818Y012527D01*
X004781Y012617D01*
X004781Y013476D01*
X004818Y013567D01*
X004893Y013387D01*
X005034Y013246D01*
X005219Y013169D01*
X005418Y013169D01*
X005603Y013246D01*
X005744Y013387D01*
X005820Y013571D01*
X005820Y013771D01*
X005744Y013956D01*
X005603Y014097D01*
X005418Y014173D01*
X005219Y014173D01*
X005034Y014097D01*
X004893Y013956D01*
X004818Y013776D01*
X004781Y013866D01*
X004781Y014725D01*
X004818Y014815D01*
X004893Y014635D01*
X005034Y014494D01*
X005219Y014418D01*
X005418Y014418D01*
X005603Y014494D01*
X005744Y014635D01*
X005820Y014820D01*
X005820Y015020D01*
X005744Y015204D01*
X005603Y015345D01*
X005418Y015422D01*
X005219Y015422D01*
X005034Y015345D01*
X004893Y015204D01*
X004818Y015024D01*
X004781Y015114D01*
X004781Y015880D01*
X007233Y015880D01*
X007232Y013873D01*
X007232Y013873D01*
X007232Y013812D01*
X007232Y013758D01*
X007232Y013757D02*
X007232Y013757D01*
X007286Y013703D01*
X007096Y013703D01*
X007096Y013624D02*
X008552Y013624D01*
X008544Y013646D02*
X008661Y013326D01*
X008881Y013065D01*
X009176Y012896D01*
X009176Y012896D01*
X009512Y012838D01*
X009847Y012898D01*
X010049Y013015D01*
X009929Y012895D01*
X009900Y012826D01*
X009380Y012826D01*
X009364Y012842D01*
X009222Y012842D01*
X008759Y012842D01*
X008359Y013242D01*
X008308Y013292D01*
X008308Y013292D01*
X008308Y013292D01*
X008244Y013292D01*
X007096Y013294D01*
X007096Y013969D01*
X007019Y014046D01*
X006122Y014046D01*
X006045Y013969D01*
X006045Y013032D01*
X006122Y012955D01*
X006813Y012955D01*
X006817Y012950D01*
X006818Y012950D01*
X006883Y012950D01*
X008166Y012949D01*
X008516Y012599D01*
X008516Y012599D01*
X008616Y012498D01*
X009137Y012498D01*
X009137Y012464D01*
X009095Y012423D01*
X009057Y012330D01*
X009057Y012230D01*
X009095Y012137D01*
X009166Y012066D01*
X009259Y012028D01*
X009359Y012028D01*
X009451Y012066D01*
X009522Y012137D01*
X009561Y012230D01*
X009561Y012330D01*
X009522Y012423D01*
X009481Y012464D01*
X009481Y012482D01*
X009881Y012482D01*
X009929Y012366D01*
X010060Y012235D01*
X010232Y012164D01*
X010417Y012164D01*
X010589Y012235D01*
X010720Y012366D01*
X010791Y012538D01*
X010791Y012723D01*
X010720Y012895D01*
X010589Y013026D01*
X010417Y013097D01*
X010232Y013097D01*
X010089Y013038D01*
X010142Y013069D01*
X010360Y013330D01*
X010476Y013651D01*
X010476Y013675D01*
X011513Y013675D01*
X011513Y013126D01*
X011691Y012969D01*
X011678Y011937D01*
X011589Y012026D01*
X011417Y012097D01*
X011232Y012097D01*
X011060Y012026D01*
X010929Y011895D01*
X010858Y011723D01*
X010858Y011538D01*
X010929Y011366D01*
X011060Y011235D01*
X011232Y011164D01*
X011417Y011164D01*
X011589Y011235D01*
X011671Y011317D01*
X011671Y010944D01*
X011589Y011026D01*
X011417Y011097D01*
X011232Y011097D01*
X011060Y011026D01*
X010929Y010895D01*
X010858Y010723D01*
X010858Y010538D01*
X010929Y010366D01*
X011060Y010235D01*
X011232Y010164D01*
X011417Y010164D01*
X011510Y010202D01*
X011736Y009976D01*
X011736Y009734D01*
X011501Y009499D01*
X011400Y009398D01*
X011400Y009300D01*
X011384Y009284D01*
X011325Y009284D01*
X011233Y009246D01*
X011162Y009175D01*
X011124Y009082D01*
X011124Y008982D01*
X011162Y008889D01*
X011233Y008818D01*
X011325Y008780D01*
X011426Y008780D01*
X011518Y008818D01*
X011558Y008858D01*
X011558Y008355D01*
X011558Y008213D01*
X012208Y007563D01*
X012208Y007528D01*
X011932Y007253D01*
X011932Y007110D01*
X011932Y007001D01*
X011235Y006300D01*
X011223Y006312D01*
X011130Y006351D01*
X011030Y006351D01*
X010938Y006312D01*
X010867Y006242D01*
X010828Y006149D01*
X010828Y006049D01*
X010867Y005956D01*
X010938Y005885D01*
X010970Y005872D01*
X010965Y005868D01*
X010927Y005775D01*
X010927Y005675D01*
X010932Y005661D01*
X010753Y005661D01*
X010678Y005696D01*
X010664Y005730D01*
X010593Y005801D01*
X010501Y005839D01*
X010400Y005839D01*
X010308Y005801D01*
X010237Y005730D01*
X010198Y005637D01*
X010198Y005537D01*
X010237Y005444D01*
X010308Y005373D01*
X010400Y005335D01*
X010448Y005335D01*
X010583Y005273D01*
X010618Y005237D01*
X010660Y005237D01*
X010697Y005220D01*
X010744Y005237D01*
X011214Y005237D01*
X011218Y005234D01*
X011301Y005237D01*
X011385Y005237D01*
X011388Y005241D01*
X011394Y005241D01*
X011450Y005302D01*
X011509Y005361D01*
X011509Y005367D01*
X011666Y005539D01*
X011725Y005598D01*
X011725Y005603D01*
X011729Y005607D01*
X011727Y005658D01*
X012847Y006779D01*
X012847Y006954D01*
X012847Y007881D01*
X013084Y008117D01*
X013084Y008293D01*
X013084Y008649D01*
X013321Y008886D01*
X013357Y008898D01*
X013381Y008946D01*
X013418Y008984D01*
X013418Y009021D01*
X013423Y009030D01*
X013457Y008996D01*
X013550Y008957D01*
X013650Y008957D01*
X013743Y008996D01*
X013814Y009066D01*
X013852Y009159D01*
X013852Y009259D01*
X013814Y009352D01*
X013743Y009423D01*
X013733Y009427D01*
X013733Y009504D01*
X013849Y009504D01*
X013942Y009411D01*
X014215Y009411D01*
X014215Y009356D01*
X014209Y009295D01*
X014215Y009287D01*
X014215Y009202D01*
X014117Y009103D01*
X014117Y008961D01*
X014117Y008902D01*
X014114Y008902D01*
X013755Y008902D01*
X013678Y008825D01*
X013678Y008215D01*
X013723Y008170D01*
X013723Y008029D01*
X013626Y008069D01*
X013417Y008069D01*
X013223Y007989D01*
X013076Y007842D01*
X012996Y007648D01*
X012996Y007439D01*
X013076Y007246D01*
X013223Y007098D01*
X013417Y007018D01*
X013626Y007018D01*
X013819Y007098D01*
X013967Y007246D01*
X014047Y007439D01*
X014047Y007648D01*
X013995Y007774D01*
X014067Y007847D01*
X014067Y007989D01*
X014067Y008138D01*
X014114Y008138D01*
X014231Y008138D01*
X014214Y008098D01*
X014214Y007998D01*
X014253Y007905D01*
X014323Y007834D01*
X014416Y007796D01*
X014452Y007760D01*
X014452Y007391D01*
X013529Y006468D01*
X013470Y006468D01*
X013369Y006367D01*
X013172Y006170D01*
X013172Y006028D01*
X013172Y005516D01*
X013182Y005506D01*
X013171Y005480D01*
X013171Y005379D01*
X013209Y005287D01*
X013242Y005254D01*
X013231Y005242D01*
X013123Y005134D01*
X009860Y005134D01*
X009761Y005390D01*
X008281Y005390D01*
X008241Y005456D02*
X010232Y005456D01*
X010199Y005535D02*
X008121Y005535D01*
X007976Y005535D02*
X006908Y005535D01*
X006908Y005613D02*
X010198Y005613D01*
X010221Y005692D02*
X007938Y005692D01*
X007952Y005770D02*
X010277Y005770D01*
X010624Y005770D02*
X010927Y005770D01*
X010927Y005692D02*
X010687Y005692D01*
X010957Y005849D02*
X007952Y005849D01*
X007952Y005927D02*
X010896Y005927D01*
X010846Y006006D02*
X007952Y006006D01*
X007952Y006084D02*
X010828Y006084D01*
X010834Y006163D02*
X007910Y006163D01*
X007952Y006241D02*
X010867Y006241D01*
X010956Y006320D02*
X007952Y006320D01*
X007952Y006399D02*
X011333Y006399D01*
X011411Y006477D02*
X007952Y006477D01*
X007952Y006556D02*
X009644Y006556D01*
X009599Y006574D02*
X009692Y006536D01*
X009792Y006536D01*
X009884Y006574D01*
X009955Y006645D01*
X009994Y006738D01*
X009994Y006838D01*
X009978Y006877D01*
X010051Y006950D01*
X010051Y007610D01*
X010336Y007870D01*
X010401Y007929D01*
X010402Y007930D01*
X010402Y007931D01*
X010406Y008018D01*
X010409Y008073D01*
X010485Y008073D01*
X010563Y008151D01*
X010563Y008654D01*
X010504Y008712D01*
X010504Y009828D01*
X010505Y009829D01*
X010504Y009898D01*
X010504Y009969D01*
X010503Y009970D01*
X010501Y010199D01*
X010589Y010235D01*
X010720Y010366D01*
X010791Y010538D01*
X010791Y010723D01*
X010720Y010895D01*
X010589Y011026D01*
X010417Y011097D01*
X010232Y011097D01*
X010060Y011026D01*
X009929Y010895D01*
X009858Y010723D01*
X009858Y010538D01*
X009929Y010366D01*
X010060Y010235D01*
X010157Y010195D01*
X010158Y010099D01*
X009796Y010461D01*
X009796Y010993D01*
X009837Y011035D01*
X009876Y011127D01*
X009876Y011228D01*
X009837Y011320D01*
X009766Y011391D01*
X009674Y011430D01*
X009573Y011430D01*
X009481Y011391D01*
X009410Y011320D01*
X009372Y011228D01*
X009372Y011127D01*
X009410Y011035D01*
X009452Y010993D01*
X009452Y010938D01*
X009424Y011005D01*
X009353Y011076D01*
X009260Y011115D01*
X009160Y011115D01*
X009148Y011109D01*
X008457Y011800D01*
X008356Y011901D01*
X008076Y011901D01*
X008073Y011903D01*
X007981Y011941D01*
X007881Y011941D01*
X007788Y011903D01*
X007717Y011832D01*
X007679Y011740D01*
X007679Y011639D01*
X007717Y011547D01*
X007788Y011476D01*
X007881Y011437D01*
X007981Y011437D01*
X008073Y011476D01*
X008144Y011547D01*
X008148Y011557D01*
X008214Y011557D01*
X008913Y010857D01*
X008804Y010857D01*
X008762Y010899D01*
X008670Y010937D01*
X008570Y010937D01*
X008477Y010899D01*
X008406Y010828D01*
X008368Y010736D01*
X008368Y010635D01*
X008406Y010543D01*
X008477Y010472D01*
X008570Y010434D01*
X008670Y010434D01*
X008762Y010472D01*
X008804Y010514D01*
X008863Y010514D01*
X008899Y010478D01*
X008899Y010419D01*
X008938Y010326D01*
X007628Y010326D01*
X007550Y010404D02*
X008905Y010404D01*
X008894Y010483D02*
X008773Y010483D01*
X008938Y010326D02*
X009008Y010255D01*
X009101Y010217D01*
X009201Y010217D01*
X009294Y010255D01*
X009365Y010326D01*
X009403Y010419D01*
X009403Y010519D01*
X009365Y010612D01*
X009335Y010642D01*
X009353Y010649D01*
X009424Y010720D01*
X009452Y010787D01*
X009452Y010461D01*
X009452Y010319D01*
X010003Y009768D01*
X010003Y009502D01*
X009953Y009482D01*
X009882Y009411D01*
X009844Y009318D01*
X009844Y009218D01*
X009882Y009125D01*
X009953Y009055D01*
X010046Y009016D01*
X010146Y009016D01*
X010160Y009022D01*
X010160Y008731D01*
X009943Y008731D01*
X009866Y008654D01*
X009866Y008151D01*
X009937Y008079D01*
X009766Y007924D01*
X009625Y007924D01*
X009639Y007958D01*
X009639Y008058D01*
X009615Y008116D01*
X009631Y008132D01*
X009636Y008132D01*
X009754Y008250D01*
X009855Y008350D01*
X009855Y008685D01*
X009874Y008705D01*
X009874Y008847D01*
X009874Y008980D01*
X009874Y009123D01*
X009616Y009381D01*
X009537Y009381D01*
X009481Y009438D01*
X009380Y009539D01*
X008907Y009539D01*
X008752Y009694D01*
X008752Y009812D01*
X008794Y009854D01*
X008832Y009946D01*
X008832Y010047D01*
X008794Y010139D01*
X008723Y010210D01*
X008630Y010248D01*
X008530Y010248D01*
X008438Y010210D01*
X008367Y010139D01*
X008328Y010047D01*
X008328Y009946D01*
X008367Y009854D01*
X008408Y009812D01*
X008408Y009801D01*
X008083Y010127D01*
X007982Y010228D01*
X007726Y010228D01*
X007275Y010679D01*
X007275Y011606D01*
X007198Y011684D01*
X006301Y011684D01*
X006224Y011606D01*
X006224Y010898D01*
X006223Y010899D01*
X006130Y010937D01*
X006030Y010937D01*
X005938Y010899D01*
X005867Y010828D01*
X005828Y010736D01*
X005828Y010635D01*
X005867Y010543D01*
X005938Y010472D01*
X006030Y010434D01*
X006089Y010434D01*
X006167Y010356D01*
X006224Y010356D01*
X006224Y009489D01*
X006301Y009412D01*
X007198Y009412D01*
X007275Y009489D01*
X007275Y009731D01*
X007290Y009725D01*
X007503Y009512D01*
X007604Y009411D01*
X007722Y009411D01*
X007909Y009224D01*
X007899Y009224D01*
X007857Y009265D01*
X007764Y009304D01*
X007664Y009304D01*
X007571Y009265D01*
X007501Y009194D01*
X007462Y009102D01*
X007462Y009001D01*
X007501Y008909D01*
X007571Y008838D01*
X007664Y008800D01*
X007764Y008800D01*
X007857Y008838D01*
X007899Y008880D01*
X007997Y008880D01*
X008995Y007882D01*
X008960Y007846D01*
X008960Y006950D01*
X009037Y006872D01*
X009504Y006872D01*
X009490Y006838D01*
X009490Y006738D01*
X009528Y006645D01*
X009599Y006574D01*
X009539Y006634D02*
X007932Y006634D01*
X007380Y006410D02*
X007337Y006453D01*
X006730Y006453D01*
X006533Y006650D01*
X006317Y006650D01*
X006080Y006886D01*
X006021Y006886D01*
X005788Y006791D02*
X004781Y006791D01*
X004781Y006713D02*
X005839Y006713D01*
X005769Y006870D02*
X004781Y006870D01*
X004781Y006948D02*
X005166Y006948D01*
X005010Y007027D02*
X004781Y007027D01*
X004781Y007105D02*
X004932Y007105D01*
X004876Y007184D02*
X004781Y007184D01*
X004793Y007262D02*
X004844Y007262D01*
X004328Y007419D02*
X004328Y007930D01*
X005883Y007930D01*
X006631Y007182D01*
X006671Y007182D01*
X006710Y007142D01*
X006485Y007027D02*
X006236Y007027D01*
X006268Y006948D02*
X006548Y006948D01*
X006635Y006791D02*
X009490Y006791D01*
X009500Y006713D02*
X006714Y006713D01*
X006792Y006634D02*
X006828Y006634D01*
X006435Y006414D02*
X006828Y006020D01*
X007065Y006020D01*
X007352Y005882D01*
X007380Y005910D01*
X006908Y005456D02*
X007857Y005456D01*
X008305Y005095D02*
X009289Y004111D01*
X009565Y004091D01*
X009574Y003728D02*
X014624Y003728D01*
X014624Y003649D02*
X011058Y003649D01*
X011161Y003571D02*
X014624Y003571D01*
X014624Y003492D02*
X011200Y003492D01*
X011212Y003414D02*
X014624Y003414D01*
X014624Y003335D02*
X011221Y003335D01*
X011221Y003257D02*
X014624Y003257D01*
X014624Y003178D02*
X011221Y003178D01*
X011221Y003100D02*
X014123Y003100D01*
X014102Y003091D02*
X014029Y003018D01*
X013990Y002922D01*
X013990Y002819D01*
X014029Y002723D01*
X014030Y002722D01*
X014030Y002074D01*
X013990Y002034D01*
X013950Y001938D01*
X013950Y001835D01*
X013990Y001739D01*
X014063Y001666D01*
X014159Y001626D01*
X014262Y001626D01*
X014357Y001666D01*
X014431Y001739D01*
X014470Y001835D01*
X014470Y001938D01*
X014431Y002034D01*
X014390Y002074D01*
X014390Y002647D01*
X014397Y002650D01*
X014470Y002723D01*
X014510Y002819D01*
X014510Y002922D01*
X014470Y003018D01*
X014397Y003091D01*
X014301Y003131D01*
X014198Y003131D01*
X014102Y003091D01*
X014033Y003021D02*
X011221Y003021D01*
X011221Y002943D02*
X013998Y002943D01*
X013990Y002864D02*
X011221Y002864D01*
X011221Y002786D02*
X014003Y002786D01*
X014030Y002707D02*
X011221Y002707D01*
X011221Y002628D02*
X014030Y002628D01*
X014030Y002550D02*
X011221Y002550D01*
X011221Y002471D02*
X014030Y002471D01*
X014030Y002393D02*
X011221Y002393D01*
X011221Y002314D02*
X014030Y002314D01*
X014030Y002236D02*
X011221Y002236D01*
X011221Y002157D02*
X014030Y002157D01*
X014030Y002079D02*
X011275Y002079D01*
X011301Y002000D02*
X013976Y002000D01*
X013950Y001922D02*
X011301Y001922D01*
X011272Y001843D02*
X013950Y001843D01*
X013979Y001764D02*
X011208Y001764D01*
X011041Y001965D02*
X011041Y003323D01*
X010952Y003412D01*
X010692Y003414D02*
X009606Y003414D01*
X009606Y003492D02*
X010704Y003492D01*
X010744Y003571D02*
X009606Y003571D01*
X009606Y003649D02*
X010847Y003649D01*
X010561Y003807D02*
X014624Y003807D01*
X014624Y003885D02*
X010590Y003885D01*
X010590Y003964D02*
X014624Y003964D01*
X014624Y004042D02*
X010590Y004042D01*
X010590Y004121D02*
X014624Y004121D01*
X014624Y004199D02*
X010593Y004199D01*
X010717Y004278D02*
X012728Y004278D01*
X012613Y004356D02*
X010748Y004356D01*
X010748Y004435D02*
X012568Y004435D01*
X012553Y004513D02*
X010748Y004513D01*
X010748Y004592D02*
X012559Y004592D01*
X012592Y004671D02*
X010748Y004671D01*
X010738Y004749D02*
X012676Y004749D01*
X012805Y004828D02*
X008827Y004828D01*
X008905Y004749D02*
X010162Y004749D01*
X010153Y004671D02*
X008984Y004671D01*
X009062Y004592D02*
X010153Y004592D01*
X010153Y004513D02*
X009141Y004513D01*
X009219Y004435D02*
X010153Y004435D01*
X010411Y004465D02*
X010411Y004209D01*
X010234Y004091D01*
X009907Y003807D02*
X009891Y003807D01*
X009606Y003335D02*
X010703Y003335D01*
X010740Y003257D02*
X009606Y003257D01*
X009606Y003178D02*
X010837Y003178D01*
X010861Y003100D02*
X009559Y003100D01*
X008755Y003477D02*
X008703Y003425D01*
X008597Y003319D01*
X008597Y003084D01*
X008534Y003111D01*
X008430Y003111D01*
X008335Y003071D01*
X008261Y002998D01*
X008222Y002903D01*
X008222Y002840D01*
X008159Y002774D01*
X007888Y002774D01*
X007827Y002835D01*
X008047Y003055D01*
X008093Y003165D01*
X008093Y003285D01*
X008093Y004131D01*
X008047Y004241D01*
X007963Y004326D01*
X007960Y004328D01*
X007960Y004618D01*
X007918Y004660D01*
X007960Y004702D01*
X007960Y004810D01*
X008007Y004763D01*
X008007Y004762D01*
X008057Y004712D01*
X008111Y004657D01*
X008112Y004657D01*
X008186Y004657D01*
X008252Y004657D01*
X008755Y004154D01*
X008755Y003477D01*
X008755Y003492D02*
X008093Y003492D01*
X008093Y003414D02*
X008692Y003414D01*
X008613Y003335D02*
X008093Y003335D01*
X008093Y003257D02*
X008597Y003257D01*
X008597Y003178D02*
X008093Y003178D01*
X008066Y003100D02*
X008403Y003100D01*
X008284Y003021D02*
X008013Y003021D01*
X007935Y002943D02*
X008239Y002943D01*
X008222Y002864D02*
X007856Y002864D01*
X007876Y002786D02*
X008169Y002786D01*
X008482Y002851D02*
X007990Y002339D01*
X008069Y002339D01*
X007576Y002831D01*
X007399Y002831D01*
X007322Y003178D02*
X003997Y003178D01*
X003955Y003100D02*
X005541Y003100D01*
X005527Y003021D02*
X003935Y003021D01*
X003914Y002943D02*
X005527Y002943D01*
X005527Y002864D02*
X003894Y002864D01*
X003878Y002786D02*
X005527Y002786D01*
X005527Y002707D02*
X003848Y002707D01*
X003793Y002628D02*
X005527Y002628D01*
X005553Y002550D02*
X003740Y002550D01*
X003688Y002471D02*
X007682Y002471D01*
X007760Y002393D02*
X003631Y002393D01*
X002963Y002943D02*
X002559Y002943D01*
X002559Y003021D02*
X003035Y003021D01*
X003107Y003100D02*
X002559Y003100D01*
X002559Y003178D02*
X003178Y003178D01*
X003250Y003257D02*
X002559Y003257D01*
X002559Y003335D02*
X003321Y003335D01*
X003393Y003414D02*
X002559Y003414D01*
X002559Y003492D02*
X003463Y003492D01*
X003541Y003571D02*
X002559Y003571D01*
X002559Y003649D02*
X003620Y003649D01*
X003617Y003728D02*
X002559Y003728D01*
X002559Y003807D02*
X003539Y003807D01*
X003460Y003885D02*
X002559Y003885D01*
X002559Y003964D02*
X003382Y003964D01*
X003340Y004042D02*
X002559Y004042D01*
X002559Y004121D02*
X003320Y004121D01*
X003320Y004199D02*
X002559Y004199D01*
X002559Y004278D02*
X003320Y004278D01*
X003320Y004356D02*
X002559Y004356D01*
X002559Y004435D02*
X003320Y004435D01*
X003320Y004513D02*
X002559Y004513D01*
X002559Y004592D02*
X003320Y004592D01*
X003320Y004671D02*
X002559Y004671D01*
X002559Y004749D02*
X003320Y004749D01*
X003300Y004828D02*
X002559Y004828D01*
X002559Y004906D02*
X003216Y004906D01*
X003210Y004985D02*
X002559Y004985D01*
X002559Y005063D02*
X003210Y005063D01*
X003210Y005106D02*
X002559Y005096D01*
X002559Y013421D01*
X002477Y013503D01*
X002458Y013503D01*
X002458Y015880D01*
X004624Y015880D01*
X004624Y015336D01*
X004607Y015352D01*
X004420Y015430D01*
X004217Y015430D01*
X004030Y015352D01*
X003886Y015209D01*
X003808Y015021D01*
X003808Y014818D01*
X003886Y014631D01*
X003898Y014618D01*
X003898Y013972D01*
X003886Y013960D01*
X003808Y013773D01*
X003808Y013570D01*
X003886Y013382D01*
X003898Y013370D01*
X003898Y012724D01*
X003886Y012712D01*
X003808Y012524D01*
X003808Y012321D01*
X003886Y012134D01*
X003898Y012121D01*
X003898Y011475D01*
X003886Y011463D01*
X003808Y011276D01*
X003808Y011073D01*
X003886Y010885D01*
X003898Y010873D01*
X003898Y010227D01*
X003886Y010215D01*
X003808Y010027D01*
X003808Y009824D01*
X003886Y009637D01*
X003908Y009614D01*
X003908Y008988D01*
X003886Y008966D01*
X003808Y008779D01*
X003808Y008576D01*
X003886Y008388D01*
X003889Y008386D01*
X003889Y007720D01*
X003886Y007718D01*
X003808Y007530D01*
X003808Y007327D01*
X003886Y007140D01*
X003898Y007127D01*
X003898Y006481D01*
X003886Y006469D01*
X003808Y006282D01*
X003808Y006094D01*
X003483Y005769D01*
X003461Y005714D01*
X003292Y005714D01*
X003210Y005632D01*
X003210Y005278D01*
X003210Y005106D01*
X003210Y005142D02*
X002559Y005142D01*
X003210Y005142D01*
X003210Y005220D02*
X002559Y005220D01*
X002559Y005299D02*
X003210Y005299D01*
X003210Y005377D02*
X002559Y005377D01*
X002559Y005456D02*
X003210Y005456D01*
X003210Y005535D02*
X002559Y005535D01*
X002559Y005613D02*
X003210Y005613D01*
X003269Y005692D02*
X002559Y005692D01*
X002559Y005770D02*
X003484Y005770D01*
X003563Y005849D02*
X002559Y005849D01*
X002559Y005927D02*
X003641Y005927D01*
X003720Y006006D02*
X002559Y006006D01*
X002559Y006084D02*
X003798Y006084D01*
X003808Y006163D02*
X002559Y006163D01*
X002559Y006241D02*
X003808Y006241D01*
X003824Y006320D02*
X002559Y006320D01*
X002559Y006399D02*
X003857Y006399D01*
X003894Y006477D02*
X002559Y006477D01*
X002559Y006556D02*
X003898Y006556D01*
X003898Y006634D02*
X002559Y006634D01*
X002559Y006713D02*
X003898Y006713D01*
X003898Y006791D02*
X002559Y006791D01*
X002559Y006870D02*
X003898Y006870D01*
X003898Y006948D02*
X002559Y006948D01*
X002559Y007027D02*
X003898Y007027D01*
X003898Y007105D02*
X002559Y007105D01*
X002559Y007184D02*
X003868Y007184D01*
X003835Y007262D02*
X002559Y007262D01*
X002559Y007341D02*
X003808Y007341D01*
X003808Y007420D02*
X002559Y007420D01*
X002559Y007498D02*
X003808Y007498D01*
X003828Y007577D02*
X002559Y007577D01*
X002559Y007655D02*
X003860Y007655D01*
X003889Y007734D02*
X002559Y007734D01*
X002559Y007812D02*
X003889Y007812D01*
X003889Y007891D02*
X002559Y007891D01*
X002559Y007969D02*
X003889Y007969D01*
X003889Y008048D02*
X002559Y008048D01*
X002559Y008126D02*
X003889Y008126D01*
X003889Y008205D02*
X002559Y008205D01*
X002559Y008284D02*
X003889Y008284D01*
X003889Y008362D02*
X002559Y008362D01*
X002559Y008441D02*
X003864Y008441D01*
X003832Y008519D02*
X002559Y008519D01*
X002559Y008598D02*
X003808Y008598D01*
X003808Y008676D02*
X002559Y008676D01*
X002559Y008755D02*
X003808Y008755D01*
X003831Y008833D02*
X002559Y008833D01*
X002559Y008912D02*
X003864Y008912D01*
X003908Y008990D02*
X002559Y008990D01*
X002559Y009069D02*
X003908Y009069D01*
X003908Y009148D02*
X002559Y009148D01*
X002559Y009226D02*
X003908Y009226D01*
X003908Y009305D02*
X002559Y009305D01*
X002559Y009383D02*
X003908Y009383D01*
X003908Y009462D02*
X002559Y009462D01*
X002559Y009540D02*
X003908Y009540D01*
X003904Y009619D02*
X002559Y009619D01*
X002559Y009697D02*
X003861Y009697D01*
X003828Y009776D02*
X002559Y009776D01*
X002559Y009854D02*
X003808Y009854D01*
X003808Y009933D02*
X002559Y009933D01*
X002559Y010011D02*
X003808Y010011D01*
X003835Y010090D02*
X002559Y010090D01*
X002559Y010169D02*
X003867Y010169D01*
X003898Y010247D02*
X002559Y010247D01*
X002559Y010326D02*
X003898Y010326D01*
X003898Y010404D02*
X002559Y010404D01*
X002559Y010483D02*
X003898Y010483D01*
X003898Y010561D02*
X002559Y010561D01*
X002559Y010640D02*
X003898Y010640D01*
X003898Y010718D02*
X002559Y010718D01*
X002559Y010797D02*
X003898Y010797D01*
X003896Y010875D02*
X002559Y010875D01*
X002559Y010954D02*
X003858Y010954D01*
X003825Y011033D02*
X002559Y011033D01*
X002559Y011111D02*
X003808Y011111D01*
X003808Y011190D02*
X002559Y011190D01*
X002559Y011268D02*
X003808Y011268D01*
X003838Y011347D02*
X002559Y011347D01*
X002559Y011425D02*
X003870Y011425D01*
X003898Y011504D02*
X002559Y011504D01*
X002559Y011582D02*
X003898Y011582D01*
X003898Y011661D02*
X002559Y011661D01*
X002559Y011739D02*
X003898Y011739D01*
X003898Y011818D02*
X002559Y011818D01*
X002559Y011897D02*
X003898Y011897D01*
X003898Y011975D02*
X002559Y011975D01*
X002559Y012054D02*
X003898Y012054D01*
X003888Y012132D02*
X002559Y012132D01*
X002559Y012211D02*
X003854Y012211D01*
X003822Y012289D02*
X002559Y012289D01*
X002559Y012368D02*
X003808Y012368D01*
X003808Y012446D02*
X002559Y012446D01*
X002559Y012525D02*
X003809Y012525D01*
X003841Y012603D02*
X002559Y012603D01*
X002559Y012682D02*
X003874Y012682D01*
X003898Y012761D02*
X002559Y012761D01*
X002559Y012839D02*
X003898Y012839D01*
X003898Y012918D02*
X002559Y012918D01*
X002559Y012996D02*
X003898Y012996D01*
X003898Y013075D02*
X002559Y013075D01*
X002559Y013153D02*
X003898Y013153D01*
X003898Y013232D02*
X002559Y013232D01*
X002559Y013310D02*
X003898Y013310D01*
X003883Y013389D02*
X002559Y013389D01*
X002512Y013467D02*
X003851Y013467D01*
X003818Y013546D02*
X002458Y013546D01*
X002458Y013624D02*
X003808Y013624D01*
X003808Y013703D02*
X002458Y013703D01*
X002458Y013782D02*
X003812Y013782D01*
X003845Y013860D02*
X002458Y013860D01*
X002458Y013939D02*
X003877Y013939D01*
X003898Y014017D02*
X002458Y014017D01*
X002458Y014096D02*
X003898Y014096D01*
X003898Y014174D02*
X002458Y014174D01*
X002458Y014253D02*
X003898Y014253D01*
X003898Y014331D02*
X002458Y014331D01*
X002458Y014410D02*
X003898Y014410D01*
X003898Y014488D02*
X002458Y014488D01*
X002458Y014567D02*
X003898Y014567D01*
X003880Y014646D02*
X002458Y014646D01*
X002458Y014724D02*
X003847Y014724D01*
X003815Y014803D02*
X002458Y014803D01*
X002458Y014881D02*
X003808Y014881D01*
X003808Y014960D02*
X002458Y014960D01*
X002458Y015038D02*
X003816Y015038D01*
X003848Y015117D02*
X002458Y015117D01*
X002458Y015195D02*
X003881Y015195D01*
X003951Y015274D02*
X002458Y015274D01*
X002458Y015352D02*
X004031Y015352D01*
X004606Y015352D02*
X004624Y015352D01*
X004624Y015431D02*
X002458Y015431D01*
X002458Y015510D02*
X004624Y015510D01*
X004624Y015588D02*
X002458Y015588D01*
X002458Y015667D02*
X004624Y015667D01*
X004624Y015745D02*
X002458Y015745D01*
X002458Y015824D02*
X004624Y015824D01*
X004781Y015824D02*
X007233Y015824D01*
X007233Y015745D02*
X004781Y015745D01*
X004781Y015667D02*
X007233Y015667D01*
X007233Y015588D02*
X004781Y015588D01*
X004781Y015510D02*
X007233Y015510D01*
X007233Y015431D02*
X004781Y015431D01*
X004781Y015352D02*
X005052Y015352D01*
X004963Y015274D02*
X004781Y015274D01*
X004781Y015195D02*
X004889Y015195D01*
X004857Y015117D02*
X004781Y015117D01*
X004813Y015038D02*
X004824Y015038D01*
X004813Y014803D02*
X004824Y014803D01*
X004856Y014724D02*
X004781Y014724D01*
X004781Y014646D02*
X004889Y014646D01*
X004961Y014567D02*
X004781Y014567D01*
X004781Y014488D02*
X005048Y014488D01*
X004781Y014410D02*
X007232Y014410D01*
X007232Y014488D02*
X005589Y014488D01*
X005676Y014567D02*
X007232Y014567D01*
X007232Y014646D02*
X005748Y014646D01*
X005781Y014724D02*
X007232Y014724D01*
X007232Y014803D02*
X005813Y014803D01*
X005820Y014881D02*
X007232Y014881D01*
X007233Y014960D02*
X005820Y014960D01*
X005813Y015038D02*
X007233Y015038D01*
X007233Y015117D02*
X005780Y015117D01*
X005748Y015195D02*
X007233Y015195D01*
X007233Y015274D02*
X005674Y015274D01*
X005585Y015352D02*
X007233Y015352D01*
X007232Y014331D02*
X004781Y014331D01*
X004781Y014253D02*
X007232Y014253D01*
X007232Y014174D02*
X004781Y014174D01*
X004781Y014096D02*
X005033Y014096D01*
X004955Y014017D02*
X004781Y014017D01*
X004781Y013939D02*
X004886Y013939D01*
X004853Y013860D02*
X004784Y013860D01*
X004816Y013782D02*
X004821Y013782D01*
X004810Y013546D02*
X004827Y013546D01*
X004859Y013467D02*
X004781Y013467D01*
X004781Y013389D02*
X004892Y013389D01*
X004969Y013310D02*
X004781Y013310D01*
X004781Y013232D02*
X005067Y013232D01*
X004781Y013153D02*
X006045Y013153D01*
X006045Y013075D02*
X004781Y013075D01*
X004781Y012996D02*
X006081Y012996D01*
X006045Y013232D02*
X005569Y013232D01*
X005667Y013310D02*
X006045Y013310D01*
X006045Y013389D02*
X005745Y013389D01*
X005777Y013467D02*
X006045Y013467D01*
X006045Y013546D02*
X005810Y013546D01*
X005820Y013624D02*
X006045Y013624D01*
X006045Y013703D02*
X005820Y013703D01*
X005816Y013782D02*
X006045Y013782D01*
X006045Y013860D02*
X005783Y013860D01*
X005751Y013939D02*
X006045Y013939D01*
X006094Y014017D02*
X005682Y014017D01*
X005604Y014096D02*
X007232Y014096D01*
X007232Y014017D02*
X007048Y014017D01*
X007096Y013939D02*
X007232Y013939D01*
X007232Y013860D02*
X007096Y013860D01*
X007096Y013782D02*
X007232Y013782D01*
X007232Y013758D02*
X007232Y013757D01*
X007286Y013703D02*
X007314Y013675D01*
X007321Y013675D01*
X007383Y013675D01*
X007430Y013675D01*
X007430Y013675D01*
X007445Y013675D01*
X007445Y013675D01*
X008544Y013676D01*
X008544Y013646D01*
X008544Y013646D01*
X008580Y013546D02*
X007096Y013546D01*
X007096Y013467D02*
X008609Y013467D01*
X008638Y013389D02*
X007096Y013389D01*
X007096Y013310D02*
X008674Y013310D01*
X008661Y013326D02*
X008661Y013326D01*
X008741Y013232D02*
X008369Y013232D01*
X008447Y013153D02*
X008807Y013153D01*
X008873Y013075D02*
X008526Y013075D01*
X008604Y012996D02*
X009001Y012996D01*
X008881Y013065D02*
X008881Y013065D01*
X008881Y013065D01*
X008683Y012918D02*
X009138Y012918D01*
X009367Y012839D02*
X009503Y012839D01*
X009512Y012838D02*
X009512Y012838D01*
X009521Y012839D02*
X009906Y012839D01*
X009882Y012918D02*
X009952Y012918D01*
X010017Y012996D02*
X010030Y012996D01*
X010142Y013069D02*
X010142Y013069D01*
X010147Y013075D02*
X010178Y013075D01*
X010212Y013153D02*
X011513Y013153D01*
X011513Y013232D02*
X010278Y013232D01*
X010344Y013310D02*
X011513Y013310D01*
X011513Y013389D02*
X010381Y013389D01*
X010360Y013330D02*
X010360Y013330D01*
X010410Y013467D02*
X011513Y013467D01*
X011513Y013546D02*
X010438Y013546D01*
X010466Y013624D02*
X011513Y013624D01*
X011671Y013624D02*
X011907Y013624D01*
X011907Y013546D02*
X011671Y013546D01*
X011671Y013467D02*
X011907Y013467D01*
X011907Y013389D02*
X011671Y013389D01*
X011671Y013310D02*
X011907Y013310D01*
X011907Y013232D02*
X011684Y013232D01*
X011671Y013245D02*
X011671Y013675D01*
X011682Y013675D01*
X011762Y013756D01*
X011764Y013757D01*
X011764Y013858D01*
X011764Y015877D01*
X011764Y015877D01*
X011764Y015880D01*
X015019Y015880D01*
X015019Y015073D01*
X015095Y014996D01*
X015839Y014996D01*
X015849Y014973D01*
X015919Y014903D01*
X016011Y014865D01*
X016110Y014865D01*
X016202Y014903D01*
X016273Y014973D01*
X016293Y015023D01*
X016541Y015023D01*
X016935Y014630D01*
X017076Y014630D01*
X018060Y014630D01*
X018160Y014729D01*
X018224Y014794D01*
X018224Y014359D01*
X018307Y014276D01*
X018499Y014276D01*
X018502Y014279D01*
X018504Y014276D01*
X018696Y014276D01*
X018779Y014359D01*
X018779Y014738D01*
X018784Y014744D01*
X018814Y014713D01*
X018814Y014359D01*
X018898Y014276D01*
X019090Y014276D01*
X019092Y014279D01*
X019095Y014276D01*
X019286Y014276D01*
X019370Y014359D01*
X019370Y014807D01*
X019286Y014890D01*
X019273Y014890D01*
X019237Y014932D01*
X019237Y015557D01*
X019141Y015654D01*
X018914Y015880D01*
X020194Y015880D01*
X020194Y013072D01*
X019967Y012844D01*
X019867Y012744D01*
X019867Y012429D01*
X019867Y012288D01*
X020023Y012132D01*
X018008Y012132D01*
X018008Y012054D02*
X020031Y012054D01*
X020023Y012073D02*
X020061Y011981D01*
X020132Y011911D01*
X020223Y011873D01*
X020323Y011873D01*
X020367Y011891D01*
X020509Y011749D01*
X020509Y010552D01*
X020449Y010491D01*
X020078Y010491D01*
X019683Y010887D01*
X020127Y010887D01*
X020203Y010963D01*
X020203Y011779D01*
X020127Y011855D01*
X019468Y011855D01*
X019392Y011779D01*
X019392Y011708D01*
X018758Y011708D01*
X018682Y011631D01*
X018682Y011224D01*
X018758Y011148D01*
X019198Y011148D01*
X019198Y010891D01*
X019297Y010791D01*
X019937Y010151D01*
X020078Y010151D01*
X020509Y010151D01*
X020509Y009918D01*
X020647Y009800D01*
X020647Y008934D01*
X020411Y008697D01*
X020182Y008697D01*
X020203Y008719D01*
X020203Y009535D01*
X020127Y009611D01*
X019468Y009611D01*
X019392Y009535D01*
X019392Y009524D01*
X019103Y009812D01*
X019099Y009812D01*
X019033Y009878D01*
X018954Y009878D01*
X018849Y009988D01*
X018849Y010084D01*
X019006Y010241D01*
X019006Y010382D01*
X019006Y010582D01*
X019076Y010611D01*
X019147Y010682D01*
X019185Y010774D01*
X019185Y010873D01*
X019147Y010965D01*
X019076Y011035D01*
X018984Y011073D01*
X018885Y011073D01*
X018793Y011035D01*
X018723Y010965D01*
X018685Y010873D01*
X018685Y010814D01*
X018666Y010795D01*
X018666Y010654D01*
X018666Y010382D01*
X018608Y010324D01*
X018566Y010281D01*
X018423Y010430D01*
X018423Y010725D01*
X017754Y010725D01*
X017754Y010292D01*
X016941Y010272D01*
X016941Y010322D01*
X016902Y010414D01*
X016832Y010484D01*
X016740Y010522D01*
X016641Y010522D01*
X016549Y010484D01*
X016479Y010414D01*
X016441Y010322D01*
X016441Y010222D01*
X016479Y010131D01*
X016521Y010089D01*
X016521Y010047D01*
X016474Y009997D01*
X016222Y009997D01*
X016034Y010185D01*
X015934Y010285D01*
X014596Y010285D01*
X014405Y010475D01*
X014409Y010475D01*
X014552Y010534D01*
X014661Y010643D01*
X014720Y010786D01*
X014720Y010940D01*
X014661Y011082D01*
X014552Y011191D01*
X014409Y011250D01*
X014303Y011250D01*
X014303Y011306D01*
X014265Y011398D01*
X014194Y011468D01*
X014102Y011506D01*
X014003Y011506D01*
X013911Y011468D01*
X013841Y011398D01*
X013803Y011306D01*
X013803Y011247D01*
X013784Y011228D01*
X013784Y010615D01*
X013884Y010516D01*
X013956Y010443D01*
X013905Y010443D01*
X013813Y010405D01*
X013742Y010335D01*
X013704Y010243D01*
X013704Y010144D01*
X013736Y010068D01*
X013275Y010068D01*
X013273Y010069D01*
X013205Y010068D01*
X013136Y010068D01*
X013135Y010067D01*
X013133Y010067D01*
X013085Y010017D01*
X013064Y009997D01*
X012785Y009997D01*
X012785Y010424D01*
X012709Y010501D01*
X012092Y010501D01*
X011998Y010595D01*
X012709Y010595D01*
X012785Y010671D01*
X012785Y011605D01*
X012709Y011682D01*
X011848Y011682D01*
X011848Y011776D01*
X012709Y011776D01*
X012785Y011852D01*
X012785Y012787D01*
X012709Y012863D01*
X011848Y012863D01*
X011848Y013067D01*
X011671Y013245D01*
X011762Y013153D02*
X011907Y013153D01*
X011907Y013075D02*
X011841Y013075D01*
X011907Y013043D02*
X011983Y012967D01*
X012878Y012967D01*
X012954Y013043D01*
X012954Y013978D01*
X012878Y014054D01*
X011983Y014054D01*
X011907Y013978D01*
X011907Y013043D01*
X011954Y012996D02*
X011848Y012996D01*
X011848Y012918D02*
X013214Y012918D01*
X013136Y012996D02*
X012907Y012996D01*
X012954Y013075D02*
X013057Y013075D01*
X012978Y013153D02*
X012954Y013153D01*
X012958Y013174D02*
X014059Y012073D01*
X014059Y012014D01*
X014097Y011922D01*
X014167Y011852D01*
X014259Y011813D01*
X014358Y011813D01*
X014450Y011852D01*
X014521Y011922D01*
X014559Y012014D01*
X014559Y012113D01*
X014521Y012205D01*
X014450Y012275D01*
X014358Y012313D01*
X014299Y012313D01*
X013298Y013315D01*
X013298Y014104D01*
X013339Y014146D01*
X013378Y014238D01*
X013378Y014338D01*
X013339Y014429D01*
X013269Y014500D01*
X013177Y014538D01*
X013078Y014538D01*
X012986Y014500D01*
X012916Y014429D01*
X012878Y014338D01*
X012878Y014238D01*
X012916Y014146D01*
X012958Y014104D01*
X012958Y013315D01*
X012958Y013174D01*
X012954Y013232D02*
X012958Y013232D01*
X012954Y013310D02*
X012958Y013310D01*
X012954Y013389D02*
X012958Y013389D01*
X012954Y013467D02*
X012958Y013467D01*
X012954Y013546D02*
X012958Y013546D01*
X012954Y013624D02*
X012958Y013624D01*
X012954Y013703D02*
X012958Y013703D01*
X012954Y013782D02*
X012958Y013782D01*
X012954Y013860D02*
X012958Y013860D01*
X012954Y013939D02*
X012958Y013939D01*
X012958Y014017D02*
X012915Y014017D01*
X012958Y014096D02*
X011764Y014096D01*
X011764Y014174D02*
X012904Y014174D01*
X012878Y014253D02*
X011764Y014253D01*
X011764Y014331D02*
X012878Y014331D01*
X012908Y014410D02*
X011764Y014410D01*
X011764Y014488D02*
X012975Y014488D01*
X013128Y014288D02*
X013128Y013245D01*
X014309Y012063D01*
X014543Y011975D02*
X015019Y011975D01*
X015019Y011897D02*
X014495Y011897D01*
X014369Y011818D02*
X015019Y011818D01*
X015019Y011739D02*
X011848Y011739D01*
X011679Y011975D02*
X011640Y011975D01*
X011680Y012054D02*
X011522Y012054D01*
X011680Y012132D02*
X009517Y012132D01*
X009553Y012211D02*
X010118Y012211D01*
X010006Y012289D02*
X009561Y012289D01*
X009545Y012368D02*
X009928Y012368D01*
X009896Y012446D02*
X009499Y012446D01*
X009309Y012280D02*
X009309Y012654D01*
X010301Y012654D01*
X010324Y012630D01*
X010753Y012446D02*
X011684Y012446D01*
X011683Y012368D02*
X010721Y012368D01*
X010643Y012289D02*
X011682Y012289D01*
X011681Y012211D02*
X010531Y012211D01*
X010522Y012054D02*
X011127Y012054D01*
X011009Y011975D02*
X010640Y011975D01*
X010589Y012026D02*
X010417Y012097D01*
X010232Y012097D01*
X010060Y012026D01*
X009929Y011895D01*
X009891Y011802D01*
X009220Y011802D01*
X008721Y012297D01*
X008666Y012351D01*
X008586Y012351D01*
X007275Y012347D01*
X007275Y012787D01*
X007198Y012865D01*
X006301Y012865D01*
X006224Y012787D01*
X006224Y011851D01*
X006301Y011774D01*
X007198Y011774D01*
X007275Y011851D01*
X007275Y012003D01*
X008525Y012007D01*
X009027Y011510D01*
X009078Y011458D01*
X009079Y011458D01*
X009150Y011458D01*
X009891Y011458D01*
X009929Y011366D01*
X010060Y011235D01*
X010232Y011164D01*
X010417Y011164D01*
X010589Y011235D01*
X010720Y011366D01*
X010791Y011538D01*
X010791Y011723D01*
X010720Y011895D01*
X010589Y012026D01*
X010718Y011897D02*
X010931Y011897D01*
X010897Y011818D02*
X010752Y011818D01*
X010784Y011739D02*
X010865Y011739D01*
X010858Y011661D02*
X010791Y011661D01*
X010791Y011582D02*
X010858Y011582D01*
X010872Y011504D02*
X010777Y011504D01*
X010744Y011425D02*
X010904Y011425D01*
X010948Y011347D02*
X010701Y011347D01*
X010622Y011268D02*
X011027Y011268D01*
X011169Y011190D02*
X010480Y011190D01*
X010573Y011033D02*
X011076Y011033D01*
X010988Y010954D02*
X010661Y010954D01*
X010728Y010875D02*
X010921Y010875D01*
X010888Y010797D02*
X010760Y010797D01*
X010791Y010718D02*
X010858Y010718D01*
X010858Y010640D02*
X010791Y010640D01*
X010791Y010561D02*
X010858Y010561D01*
X010880Y010483D02*
X010768Y010483D01*
X010736Y010404D02*
X010913Y010404D01*
X010969Y010326D02*
X010680Y010326D01*
X010601Y010247D02*
X011048Y010247D01*
X011220Y010169D02*
X010501Y010169D01*
X010502Y010090D02*
X011622Y010090D01*
X011700Y010011D02*
X010503Y010011D01*
X010504Y009933D02*
X011736Y009933D01*
X011736Y009854D02*
X010505Y009854D01*
X010504Y009776D02*
X011736Y009776D01*
X011699Y009697D02*
X010504Y009697D01*
X010504Y009619D02*
X011621Y009619D01*
X011542Y009540D02*
X010504Y009540D01*
X010504Y009462D02*
X011464Y009462D01*
X011501Y009499D02*
X011501Y009499D01*
X011400Y009383D02*
X010504Y009383D01*
X010504Y009305D02*
X011400Y009305D01*
X011572Y009327D02*
X012006Y009760D01*
X012478Y009741D01*
X012261Y009957D01*
X012017Y009937D01*
X011324Y010630D01*
X011661Y010954D02*
X011671Y010954D01*
X011671Y011033D02*
X011573Y011033D01*
X011671Y011111D02*
X009869Y011111D01*
X009876Y011190D02*
X010169Y011190D01*
X010027Y011268D02*
X009859Y011268D01*
X009811Y011347D02*
X009948Y011347D01*
X009904Y011425D02*
X009684Y011425D01*
X009563Y011425D02*
X008832Y011425D01*
X008910Y011347D02*
X009436Y011347D01*
X009388Y011268D02*
X008989Y011268D01*
X009067Y011190D02*
X009372Y011190D01*
X009378Y011111D02*
X009269Y011111D01*
X009152Y011111D02*
X009146Y011111D01*
X009151Y010863D02*
X008285Y011729D01*
X007970Y011729D01*
X007931Y011689D01*
X008101Y011504D02*
X008267Y011504D01*
X008345Y011425D02*
X007275Y011425D01*
X007275Y011347D02*
X008424Y011347D01*
X008502Y011268D02*
X007275Y011268D01*
X007275Y011190D02*
X008581Y011190D01*
X008660Y011111D02*
X007275Y011111D01*
X007275Y011033D02*
X008738Y011033D01*
X008817Y010954D02*
X007275Y010954D01*
X007275Y010875D02*
X008453Y010875D01*
X008393Y010797D02*
X007275Y010797D01*
X007275Y010718D02*
X008368Y010718D01*
X008368Y010640D02*
X007314Y010640D01*
X007393Y010561D02*
X008398Y010561D01*
X008466Y010483D02*
X007471Y010483D01*
X007183Y010528D02*
X007655Y010056D01*
X007911Y010056D01*
X008836Y009130D01*
X009191Y009130D01*
X009309Y009367D02*
X008836Y009367D01*
X008580Y009623D01*
X008580Y009997D01*
X008346Y010090D02*
X008120Y010090D01*
X008198Y010011D02*
X008328Y010011D01*
X008334Y009933D02*
X008277Y009933D01*
X008355Y009854D02*
X008366Y009854D01*
X008396Y010169D02*
X008041Y010169D01*
X007707Y010247D02*
X008527Y010247D01*
X008634Y010247D02*
X009028Y010247D01*
X009274Y010247D02*
X009524Y010247D01*
X009452Y010326D02*
X009364Y010326D01*
X009397Y010404D02*
X009452Y010404D01*
X009452Y010483D02*
X009403Y010483D01*
X009386Y010561D02*
X009452Y010561D01*
X009452Y010640D02*
X009337Y010640D01*
X009422Y010718D02*
X009452Y010718D01*
X009445Y010954D02*
X009452Y010954D01*
X009412Y011033D02*
X009397Y011033D01*
X009210Y010863D02*
X009151Y010863D01*
X008895Y010875D02*
X008786Y010875D01*
X008935Y010686D02*
X008620Y010686D01*
X008935Y010686D02*
X009151Y010469D01*
X009624Y010390D02*
X010175Y009839D01*
X010175Y009327D01*
X010116Y009268D01*
X010096Y009268D01*
X009871Y009383D02*
X009535Y009383D01*
X009457Y009462D02*
X009933Y009462D01*
X010003Y009540D02*
X008906Y009540D01*
X008827Y009619D02*
X010003Y009619D01*
X010003Y009697D02*
X008752Y009697D01*
X008752Y009776D02*
X009995Y009776D01*
X009916Y009854D02*
X008794Y009854D01*
X008827Y009933D02*
X009838Y009933D01*
X009759Y010011D02*
X008832Y010011D01*
X008814Y010090D02*
X009681Y010090D01*
X009602Y010169D02*
X008765Y010169D01*
X009624Y010390D02*
X009624Y011178D01*
X009835Y011033D02*
X010076Y011033D01*
X009988Y010954D02*
X009796Y010954D01*
X009796Y010875D02*
X009921Y010875D01*
X009888Y010797D02*
X009796Y010797D01*
X009796Y010718D02*
X009858Y010718D01*
X009858Y010640D02*
X009796Y010640D01*
X009796Y010561D02*
X009858Y010561D01*
X009880Y010483D02*
X009796Y010483D01*
X009853Y010404D02*
X009913Y010404D01*
X009931Y010326D02*
X009969Y010326D01*
X010010Y010247D02*
X010048Y010247D01*
X010088Y010169D02*
X010157Y010169D01*
X010332Y009898D02*
X010324Y010630D01*
X010332Y009898D02*
X010332Y008579D01*
X010214Y008402D01*
X009866Y008441D02*
X009855Y008441D01*
X009855Y008519D02*
X009866Y008519D01*
X009855Y008598D02*
X009866Y008598D01*
X009855Y008676D02*
X009888Y008676D01*
X009874Y008755D02*
X010160Y008755D01*
X010160Y008833D02*
X009874Y008833D01*
X009874Y008912D02*
X010160Y008912D01*
X010160Y008990D02*
X009874Y008990D01*
X009874Y009069D02*
X009939Y009069D01*
X009873Y009148D02*
X009850Y009148D01*
X009844Y009226D02*
X009771Y009226D01*
X009844Y009305D02*
X009693Y009305D01*
X009545Y009209D02*
X009702Y009052D01*
X009702Y008776D01*
X009683Y008756D01*
X009683Y008422D01*
X009565Y008304D01*
X009446Y008304D01*
X009626Y008126D02*
X009890Y008126D01*
X009902Y008048D02*
X009639Y008048D01*
X009639Y007969D02*
X009816Y007969D01*
X009866Y008205D02*
X009709Y008205D01*
X009788Y008284D02*
X009866Y008284D01*
X009855Y008362D02*
X009866Y008362D01*
X009446Y008619D02*
X008757Y008619D01*
X007793Y009583D01*
X007675Y009583D01*
X007380Y009878D01*
X007380Y009977D01*
X007340Y009977D01*
X007317Y009697D02*
X007275Y009697D01*
X007275Y009619D02*
X007396Y009619D01*
X007474Y009540D02*
X007275Y009540D01*
X007248Y009462D02*
X007553Y009462D01*
X007750Y009383D02*
X004781Y009383D01*
X004781Y009305D02*
X006284Y009305D01*
X006301Y009321D02*
X006224Y009244D01*
X006224Y008308D01*
X006301Y008231D01*
X007198Y008231D01*
X007275Y008308D01*
X007275Y009244D01*
X007198Y009321D01*
X006301Y009321D01*
X006224Y009226D02*
X004781Y009226D01*
X004781Y009148D02*
X005142Y009148D01*
X005000Y009069D02*
X004781Y009069D01*
X004781Y008990D02*
X004922Y008990D01*
X004872Y008912D02*
X004781Y008912D01*
X004797Y008833D02*
X004840Y008833D01*
X004841Y008519D02*
X004796Y008519D01*
X004781Y008441D02*
X004873Y008441D01*
X004924Y008362D02*
X004781Y008362D01*
X004781Y008284D02*
X005002Y008284D01*
X005147Y008205D02*
X004781Y008205D01*
X004781Y008126D02*
X008750Y008126D01*
X008672Y008205D02*
X005490Y008205D01*
X005635Y008284D02*
X006248Y008284D01*
X006224Y008362D02*
X005713Y008362D01*
X005764Y008441D02*
X006224Y008441D01*
X006224Y008519D02*
X005796Y008519D01*
X005820Y008598D02*
X006224Y008598D01*
X006224Y008676D02*
X005820Y008676D01*
X005820Y008755D02*
X006224Y008755D01*
X006224Y008833D02*
X005797Y008833D01*
X005764Y008912D02*
X006224Y008912D01*
X006224Y008990D02*
X005715Y008990D01*
X005636Y009069D02*
X006224Y009069D01*
X006224Y009148D02*
X005495Y009148D01*
X005510Y009462D02*
X006251Y009462D01*
X006224Y009540D02*
X005643Y009540D01*
X005721Y009619D02*
X006224Y009619D01*
X006224Y009697D02*
X005767Y009697D01*
X005800Y009776D02*
X006224Y009776D01*
X006224Y009854D02*
X005820Y009854D01*
X005820Y009933D02*
X006224Y009933D01*
X006224Y010011D02*
X005820Y010011D01*
X005794Y010090D02*
X006224Y010090D01*
X006224Y010169D02*
X005761Y010169D01*
X005707Y010247D02*
X006224Y010247D01*
X006224Y010326D02*
X005628Y010326D01*
X005475Y010404D02*
X006118Y010404D01*
X006238Y010528D02*
X006080Y010686D01*
X006238Y010528D02*
X007183Y010528D01*
X007832Y009819D02*
X008718Y008934D01*
X009013Y008934D01*
X009072Y008874D01*
X009328Y008874D01*
X009387Y008934D01*
X009466Y008934D01*
X009466Y009209D02*
X009545Y009209D01*
X009466Y009209D02*
X009309Y009367D01*
X008358Y008519D02*
X007275Y008519D01*
X007275Y008441D02*
X008436Y008441D01*
X008515Y008362D02*
X007275Y008362D01*
X007251Y008284D02*
X008593Y008284D01*
X008829Y008048D02*
X006008Y008048D01*
X006087Y007969D02*
X008908Y007969D01*
X008986Y007891D02*
X006165Y007891D01*
X006244Y007812D02*
X008960Y007812D01*
X008960Y007734D02*
X006322Y007734D01*
X006401Y007655D02*
X008960Y007655D01*
X008960Y007577D02*
X006480Y007577D01*
X006558Y007498D02*
X008960Y007498D01*
X008960Y007420D02*
X006637Y007420D01*
X006868Y007341D02*
X008960Y007341D01*
X008960Y007262D02*
X006933Y007262D01*
X006962Y007184D02*
X008960Y007184D01*
X008960Y007105D02*
X006962Y007105D01*
X006935Y007027D02*
X008960Y007027D01*
X008962Y006948D02*
X006873Y006948D01*
X006458Y007105D02*
X006151Y007105D01*
X006307Y007262D02*
X005793Y007262D01*
X005820Y007341D02*
X006229Y007341D01*
X006150Y007420D02*
X005820Y007420D01*
X005820Y007498D02*
X006072Y007498D01*
X005993Y007577D02*
X005800Y007577D01*
X005768Y007655D02*
X005915Y007655D01*
X005836Y007734D02*
X005723Y007734D01*
X005760Y007184D02*
X006386Y007184D01*
X006340Y006870D02*
X009503Y006870D01*
X009839Y006556D02*
X011489Y006556D01*
X011567Y006634D02*
X009944Y006634D01*
X009983Y006713D02*
X011645Y006713D01*
X011724Y006791D02*
X009994Y006791D01*
X009981Y006870D02*
X011802Y006870D01*
X011880Y006948D02*
X010049Y006948D01*
X010051Y007027D02*
X011932Y007027D01*
X011932Y007105D02*
X010051Y007105D01*
X010051Y007184D02*
X011932Y007184D01*
X011942Y007262D02*
X010051Y007262D01*
X010051Y007341D02*
X012020Y007341D01*
X012099Y007420D02*
X010051Y007420D01*
X010051Y007498D02*
X012177Y007498D01*
X012194Y007577D02*
X010051Y007577D01*
X010101Y007655D02*
X012115Y007655D01*
X012037Y007734D02*
X010187Y007734D01*
X010273Y007812D02*
X011958Y007812D01*
X011880Y007891D02*
X010359Y007891D01*
X010404Y007969D02*
X011801Y007969D01*
X011723Y008048D02*
X010408Y008048D01*
X010539Y008126D02*
X011644Y008126D01*
X011566Y008205D02*
X010563Y008205D01*
X010563Y008284D02*
X011558Y008284D01*
X011558Y008362D02*
X010563Y008362D01*
X010563Y008441D02*
X011558Y008441D01*
X011558Y008519D02*
X010563Y008519D01*
X010563Y008598D02*
X011558Y008598D01*
X011558Y008676D02*
X010540Y008676D01*
X010504Y008755D02*
X011558Y008755D01*
X011558Y008833D02*
X011533Y008833D01*
X011376Y009032D02*
X011572Y009229D01*
X011572Y009327D01*
X011730Y009249D02*
X011730Y008284D01*
X012380Y007634D01*
X012380Y007457D01*
X012104Y007182D01*
X012104Y006930D01*
X011277Y006099D01*
X011080Y006099D01*
X011205Y006320D02*
X011255Y006320D01*
X011179Y005725D02*
X012360Y006906D01*
X012360Y007103D01*
X012781Y006713D02*
X013774Y006713D01*
X013852Y006791D02*
X012847Y006791D01*
X012847Y006870D02*
X013931Y006870D01*
X014009Y006948D02*
X012847Y006948D01*
X012847Y007027D02*
X013396Y007027D01*
X013216Y007105D02*
X012847Y007105D01*
X012847Y007184D02*
X013138Y007184D01*
X013069Y007262D02*
X012847Y007262D01*
X012847Y007341D02*
X013036Y007341D01*
X013004Y007420D02*
X012847Y007420D01*
X012847Y007498D02*
X012996Y007498D01*
X012996Y007577D02*
X012847Y007577D01*
X012847Y007655D02*
X012998Y007655D01*
X013031Y007734D02*
X012847Y007734D01*
X012847Y007812D02*
X013064Y007812D01*
X013125Y007891D02*
X012857Y007891D01*
X012936Y007969D02*
X013203Y007969D01*
X013365Y008048D02*
X013014Y008048D01*
X013084Y008126D02*
X013723Y008126D01*
X013723Y008048D02*
X013678Y008048D01*
X013688Y008205D02*
X013084Y008205D01*
X013084Y008284D02*
X013678Y008284D01*
X013678Y008362D02*
X013084Y008362D01*
X013084Y008441D02*
X013678Y008441D01*
X013678Y008519D02*
X013084Y008519D01*
X013084Y008598D02*
X013678Y008598D01*
X013678Y008676D02*
X013111Y008676D01*
X013189Y008755D02*
X013678Y008755D01*
X013686Y008833D02*
X013268Y008833D01*
X013364Y008912D02*
X014117Y008912D01*
X014117Y008990D02*
X013730Y008990D01*
X013815Y009069D02*
X014117Y009069D01*
X014161Y009148D02*
X013847Y009148D01*
X013852Y009226D02*
X014215Y009226D01*
X014210Y009305D02*
X013833Y009305D01*
X013782Y009383D02*
X014215Y009383D01*
X014387Y009347D02*
X014387Y009130D01*
X014289Y009032D01*
X014289Y008520D01*
X013935Y008520D02*
X013895Y008638D01*
X013895Y007918D01*
X013521Y007544D01*
X014011Y007734D02*
X014452Y007734D01*
X014452Y007655D02*
X014044Y007655D01*
X014047Y007577D02*
X014452Y007577D01*
X014452Y007498D02*
X014047Y007498D01*
X014039Y007420D02*
X014452Y007420D01*
X014402Y007341D02*
X014006Y007341D01*
X013974Y007262D02*
X014324Y007262D01*
X014245Y007184D02*
X013905Y007184D01*
X013826Y007105D02*
X014166Y007105D01*
X014088Y007027D02*
X013647Y007027D01*
X013695Y006634D02*
X012703Y006634D01*
X012624Y006556D02*
X013617Y006556D01*
X013538Y006477D02*
X012546Y006477D01*
X012467Y006399D02*
X013401Y006399D01*
X013322Y006320D02*
X012389Y006320D01*
X012310Y006241D02*
X013243Y006241D01*
X013172Y006163D02*
X012231Y006163D01*
X012153Y006084D02*
X013172Y006084D01*
X013172Y006006D02*
X012074Y006006D01*
X011996Y005927D02*
X013172Y005927D01*
X013172Y005849D02*
X011917Y005849D01*
X011839Y005770D02*
X013172Y005770D01*
X013172Y005692D02*
X011760Y005692D01*
X011729Y005613D02*
X013172Y005613D01*
X013172Y005535D02*
X011663Y005535D01*
X011590Y005456D02*
X013171Y005456D01*
X013172Y005377D02*
X011518Y005377D01*
X011446Y005299D02*
X013204Y005299D01*
X013231Y005242D02*
X013231Y005242D01*
X013209Y005220D02*
X010698Y005220D01*
X010696Y005220D02*
X009827Y005220D01*
X009857Y005142D02*
X013131Y005142D01*
X013119Y005142D02*
X008565Y005142D01*
X008591Y005063D02*
X013041Y005063D01*
X012962Y004985D02*
X008669Y004985D01*
X008748Y004906D02*
X012884Y004906D01*
X013270Y004671D02*
X014624Y004671D01*
X014624Y004749D02*
X013349Y004749D01*
X013427Y004828D02*
X014624Y004828D01*
X014604Y004839D02*
X014436Y005119D01*
X015678Y005119D01*
X019225Y005119D01*
X019400Y005119D01*
X019660Y005378D01*
X019668Y005375D01*
X019823Y005375D01*
X019966Y005434D01*
X020076Y005544D01*
X020135Y005687D01*
X020135Y005842D01*
X020076Y005985D01*
X019966Y006094D01*
X019823Y006154D01*
X019668Y006154D01*
X019525Y006094D01*
X019416Y005985D01*
X019356Y005842D01*
X019356Y005687D01*
X019360Y005678D01*
X019225Y005543D01*
X018500Y005543D01*
X018501Y005544D01*
X018560Y005687D01*
X018560Y005842D01*
X018501Y005985D01*
X018391Y006094D01*
X018248Y006154D01*
X018093Y006154D01*
X018045Y006134D01*
X017829Y006350D01*
X017686Y006350D01*
X016919Y006350D01*
X016862Y006406D01*
X016862Y006559D01*
X017040Y006736D01*
X017040Y006811D01*
X017067Y006744D01*
X017138Y006673D01*
X017231Y006634D01*
X017331Y006634D01*
X017424Y006673D01*
X017465Y006714D01*
X017604Y006714D01*
X017702Y006616D01*
X017844Y006616D01*
X019545Y006616D01*
X020073Y006096D01*
X020123Y006045D01*
X020124Y006045D01*
X020124Y006045D01*
X020196Y006045D01*
X020320Y006045D01*
X020729Y005636D01*
X020669Y005490D01*
X020669Y005290D01*
X020745Y005106D01*
X020886Y004965D01*
X021071Y004888D01*
X021271Y004888D01*
X021455Y004965D01*
X021596Y005106D01*
X021671Y005286D01*
X021745Y005106D01*
X021886Y004965D01*
X022071Y004888D01*
X022271Y004888D01*
X022455Y004965D01*
X022596Y005106D01*
X022671Y005286D01*
X022745Y005106D01*
X022886Y004965D01*
X023071Y004888D01*
X023271Y004888D01*
X023455Y004965D01*
X023596Y005106D01*
X023671Y005286D01*
X023745Y005106D01*
X023886Y004965D01*
X024071Y004888D01*
X024271Y004888D01*
X024455Y004965D01*
X024596Y005106D01*
X024671Y005286D01*
X024745Y005106D01*
X024886Y004965D01*
X025071Y004888D01*
X025271Y004888D01*
X025455Y004965D01*
X025596Y005106D01*
X025673Y005290D01*
X025673Y005490D01*
X025596Y005675D01*
X025455Y005816D01*
X025271Y005892D01*
X025071Y005892D01*
X024886Y005816D01*
X024745Y005675D01*
X024671Y005495D01*
X024596Y005675D01*
X024455Y005816D01*
X024271Y005892D01*
X024071Y005892D01*
X023886Y005816D01*
X023745Y005675D01*
X023671Y005495D01*
X023596Y005675D01*
X023455Y005816D01*
X023271Y005892D01*
X023071Y005892D01*
X022886Y005816D01*
X022808Y005737D01*
X022470Y006074D01*
X022328Y006074D01*
X021781Y006074D01*
X021565Y006291D01*
X021422Y006291D01*
X021053Y006291D01*
X020620Y006724D01*
X020478Y006724D01*
X020404Y006724D01*
X019389Y007738D01*
X022092Y007738D01*
X022234Y007738D01*
X023322Y008825D01*
X023345Y008802D01*
X023425Y008802D01*
X023425Y008446D01*
X023502Y008369D01*
X024202Y008369D01*
X024280Y008446D01*
X024280Y008870D01*
X024229Y008921D01*
X024314Y008956D01*
X024384Y009027D01*
X024423Y009120D01*
X024423Y009220D01*
X024384Y009312D01*
X024346Y009351D01*
X024359Y009351D01*
X024431Y009381D01*
X024431Y008470D01*
X023118Y007157D01*
X021676Y007157D01*
X021656Y007170D01*
X021594Y007158D01*
X021503Y007158D01*
X021410Y007120D01*
X021339Y007049D01*
X021301Y006956D01*
X021301Y006856D01*
X021339Y006763D01*
X021396Y006707D01*
X021402Y006693D01*
X021430Y006684D01*
X021439Y006680D01*
X021465Y006655D01*
X021501Y006655D01*
X021503Y006654D01*
X021520Y006654D01*
X021569Y006638D01*
X021602Y006654D01*
X021603Y006654D01*
X021604Y006655D01*
X021641Y006655D01*
X021660Y006674D01*
X021680Y006674D01*
X021718Y006712D01*
X021760Y006733D01*
X023294Y006733D01*
X023418Y006858D01*
X024855Y008295D01*
X024855Y008470D01*
X024855Y009879D01*
X024855Y009966D01*
X024855Y009966D01*
X024855Y009966D01*
X024793Y010029D01*
X024731Y010090D01*
X024731Y010090D01*
X024731Y010090D01*
X024728Y010090D01*
X024699Y010159D01*
X024629Y010230D01*
X024536Y010268D01*
X024464Y010268D01*
X024522Y010326D01*
X024561Y010419D01*
X024561Y010519D01*
X024522Y010612D01*
X024451Y010683D01*
X024359Y010721D01*
X024259Y010721D01*
X024166Y010683D01*
X024163Y010680D01*
X023575Y010680D01*
X023575Y010910D01*
X023633Y010967D01*
X024202Y010967D01*
X024280Y011045D01*
X024280Y011469D01*
X024275Y011473D01*
X024280Y011478D01*
X024280Y011902D01*
X024202Y011979D01*
X023502Y011979D01*
X023425Y011902D01*
X023425Y011478D01*
X023430Y011473D01*
X023425Y011469D01*
X023425Y011449D01*
X023353Y011449D01*
X023260Y011411D01*
X023190Y011340D01*
X023151Y011247D01*
X023151Y011147D01*
X023190Y011055D01*
X023231Y011013D01*
X023231Y010910D01*
X023231Y010521D01*
X023133Y010422D01*
X023133Y010280D01*
X023133Y009851D01*
X021836Y008554D01*
X020504Y008554D01*
X020805Y008855D01*
X020805Y009878D01*
X020667Y009997D01*
X020667Y010226D01*
X020691Y010250D01*
X020718Y010277D01*
X021014Y010277D01*
X021056Y010236D01*
X021148Y010197D01*
X021249Y010197D01*
X021341Y010236D01*
X021412Y010307D01*
X021450Y010399D01*
X021450Y010499D01*
X021412Y010592D01*
X021341Y010663D01*
X021249Y010701D01*
X021148Y010701D01*
X021056Y010663D01*
X021014Y010621D01*
X020718Y010621D01*
X020667Y010621D01*
X020667Y011604D01*
X020771Y011500D01*
X020771Y011441D01*
X020729Y011399D01*
X020691Y011306D01*
X020691Y011206D01*
X020729Y011114D01*
X020800Y011043D01*
X020892Y011004D01*
X020993Y011004D01*
X021085Y011043D01*
X021156Y011114D01*
X021194Y011206D01*
X021194Y011306D01*
X021156Y011399D01*
X021114Y011441D01*
X021114Y011500D01*
X021114Y011643D01*
X020681Y012076D01*
X020681Y012221D01*
X020683Y012219D01*
X020812Y012166D01*
X020951Y012166D01*
X021080Y012219D01*
X021131Y012271D01*
X021183Y012219D01*
X021312Y012166D01*
X021451Y012166D01*
X021580Y012219D01*
X021631Y012271D01*
X021683Y012219D01*
X021812Y012166D01*
X021951Y012166D01*
X022080Y012219D01*
X022131Y012271D01*
X022183Y012219D01*
X022312Y012166D01*
X022451Y012166D01*
X022580Y012219D01*
X022678Y012318D01*
X022732Y012447D01*
X022732Y012586D01*
X022678Y012714D01*
X022580Y012813D01*
X022451Y012866D01*
X022312Y012866D01*
X022183Y012813D01*
X022131Y012761D01*
X022080Y012813D01*
X021951Y012866D01*
X021812Y012866D01*
X021683Y012813D01*
X021631Y012761D01*
X021580Y012813D01*
X021451Y012866D01*
X021312Y012866D01*
X021183Y012813D01*
X021131Y012761D01*
X021080Y012813D01*
X020951Y012866D01*
X020812Y012866D01*
X020683Y012813D01*
X020631Y012761D01*
X020580Y012813D01*
X020479Y012855D01*
X020501Y012855D01*
X020593Y012893D01*
X020664Y012964D01*
X020702Y013057D01*
X020702Y013157D01*
X020664Y013249D01*
X020593Y013320D01*
X020501Y013359D01*
X020400Y013359D01*
X020352Y013339D01*
X020352Y014052D01*
X020718Y014052D01*
X020634Y013968D01*
X020564Y013800D01*
X020564Y013618D01*
X020634Y013450D01*
X020762Y013322D01*
X020930Y013252D01*
X021112Y013252D01*
X021280Y013322D01*
X021409Y013450D01*
X021478Y013618D01*
X021478Y013800D01*
X021409Y013968D01*
X021280Y014096D01*
X021112Y014166D01*
X020930Y014166D01*
X020886Y014148D01*
X020824Y014209D01*
X020352Y014209D01*
X020352Y015880D01*
X022025Y015880D01*
X022025Y014445D01*
X022045Y014426D01*
X022183Y014426D01*
X022183Y015880D01*
X026002Y015880D01*
X026002Y013503D01*
X025983Y013503D01*
X025918Y013437D01*
X025918Y013479D01*
X025918Y014359D01*
X025817Y014460D01*
X025817Y014460D01*
X025662Y014615D01*
X025662Y015299D01*
X025678Y015315D01*
X025737Y015315D01*
X025829Y015354D01*
X025900Y015425D01*
X025939Y015517D01*
X025939Y015618D01*
X025900Y015710D01*
X025829Y015781D01*
X025737Y015819D01*
X025636Y015819D01*
X025544Y015781D01*
X025473Y015710D01*
X025435Y015618D01*
X025435Y015559D01*
X025419Y015542D01*
X025419Y015542D01*
X025318Y015442D01*
X025318Y014473D01*
X025419Y014372D01*
X025574Y014217D01*
X025574Y013550D01*
X025567Y013486D01*
X025518Y013368D01*
X025478Y013318D01*
X025461Y013301D01*
X025427Y013268D01*
X024966Y012806D01*
X023691Y012806D01*
X023548Y012806D01*
X022624Y011882D01*
X022566Y011882D01*
X022473Y011844D01*
X022402Y011773D01*
X022364Y011681D01*
X022364Y011580D01*
X022402Y011488D01*
X022473Y011417D01*
X022566Y011378D01*
X022666Y011378D01*
X022758Y011417D01*
X022829Y011488D01*
X022868Y011580D01*
X022868Y011639D01*
X023691Y012462D01*
X025108Y012462D01*
X025209Y012563D01*
X025209Y012563D01*
X025670Y013025D01*
X025705Y013059D01*
X025771Y013125D01*
X025815Y013169D01*
X025901Y013376D01*
X025901Y013305D01*
X025901Y007340D01*
X025983Y007258D01*
X026002Y007258D01*
X026002Y004881D01*
X025983Y004881D01*
X025941Y004839D01*
X014604Y004839D01*
X014624Y004906D02*
X013506Y004906D01*
X013192Y004592D02*
X014624Y004592D01*
X014624Y004513D02*
X013113Y004513D01*
X013057Y004435D02*
X014624Y004435D01*
X014624Y004356D02*
X013013Y004356D01*
X012897Y004278D02*
X014624Y004278D01*
X014781Y004278D02*
X023403Y004278D01*
X023403Y004356D02*
X014781Y004356D01*
X014781Y004435D02*
X023403Y004435D01*
X023403Y004513D02*
X014781Y004513D01*
X014781Y004592D02*
X023403Y004592D01*
X023403Y004662D02*
X014781Y004662D01*
X014781Y000412D01*
X022814Y000412D01*
X022824Y000412D01*
X022872Y000412D01*
X022979Y000423D01*
X023177Y000505D01*
X023328Y000656D01*
X023403Y000837D01*
X023403Y004662D01*
X023314Y004906D02*
X024028Y004906D01*
X023866Y004985D02*
X023475Y004985D01*
X023554Y005063D02*
X023788Y005063D01*
X023730Y005142D02*
X023611Y005142D01*
X023644Y005220D02*
X023698Y005220D01*
X023687Y005535D02*
X023654Y005535D01*
X023622Y005613D02*
X023720Y005613D01*
X023762Y005692D02*
X023579Y005692D01*
X023501Y005770D02*
X023841Y005770D01*
X023966Y005849D02*
X023376Y005849D01*
X023868Y006045D02*
X023910Y006003D01*
X024003Y005965D01*
X024103Y005965D01*
X024195Y006003D01*
X024266Y006074D01*
X024305Y006167D01*
X024305Y006267D01*
X024266Y006360D01*
X024195Y006431D01*
X024103Y006469D01*
X024003Y006469D01*
X023910Y006431D01*
X023868Y006389D01*
X022687Y006389D01*
X022671Y006405D01*
X022671Y006464D01*
X022632Y006557D01*
X022562Y006627D01*
X022469Y006666D01*
X022369Y006666D01*
X022276Y006627D01*
X022205Y006557D01*
X022167Y006464D01*
X022167Y006364D01*
X022205Y006271D01*
X022276Y006200D01*
X022369Y006162D01*
X022428Y006162D01*
X022544Y006045D01*
X022687Y006045D01*
X023868Y006045D01*
X023908Y006006D02*
X022539Y006006D01*
X022505Y006084D02*
X021771Y006084D01*
X021693Y006163D02*
X022366Y006163D01*
X022235Y006241D02*
X021614Y006241D01*
X021494Y006119D02*
X021710Y005902D01*
X022399Y005902D01*
X022911Y005390D01*
X023171Y005390D01*
X022788Y005063D02*
X022554Y005063D01*
X022611Y005142D02*
X022730Y005142D01*
X022698Y005220D02*
X022644Y005220D01*
X022475Y004985D02*
X022866Y004985D01*
X023028Y004906D02*
X022314Y004906D01*
X022028Y004906D02*
X021314Y004906D01*
X021475Y004985D02*
X021866Y004985D01*
X021788Y005063D02*
X021554Y005063D01*
X021611Y005142D02*
X021730Y005142D01*
X021698Y005220D02*
X021644Y005220D01*
X021966Y005390D02*
X022171Y005390D01*
X021966Y005390D02*
X021415Y005941D01*
X020903Y005941D01*
X020458Y006386D01*
X020458Y006394D01*
X020254Y006394D01*
X018580Y008067D01*
X018324Y008067D01*
X017439Y008953D01*
X017439Y009544D01*
X017544Y009773D02*
X017544Y010115D01*
X017911Y010115D01*
X017911Y010567D01*
X018265Y010567D01*
X018265Y010351D01*
X018507Y010109D01*
X018507Y009832D01*
X018507Y009689D01*
X018625Y009571D01*
X018726Y009470D01*
X018962Y009470D01*
X019117Y009315D01*
X019115Y009312D01*
X019076Y009220D01*
X019076Y009120D01*
X019115Y009027D01*
X019186Y008956D01*
X019278Y008918D01*
X019378Y008918D01*
X019390Y008922D01*
X019390Y008718D01*
X019467Y008640D01*
X019663Y008640D01*
X019663Y008554D01*
X019537Y008554D01*
X018745Y009346D01*
X018735Y009372D01*
X018664Y009442D01*
X018571Y009481D01*
X018471Y009481D01*
X018379Y009442D01*
X018308Y009372D01*
X018269Y009279D01*
X018269Y009239D01*
X018256Y009245D01*
X018221Y009245D01*
X018221Y009261D01*
X018262Y009303D01*
X018301Y009395D01*
X018301Y009495D01*
X018262Y009588D01*
X018192Y009659D01*
X018099Y009697D01*
X017999Y009697D01*
X017968Y009685D01*
X017967Y009686D01*
X017896Y009757D01*
X017804Y009796D01*
X017703Y009796D01*
X017611Y009757D01*
X017596Y009743D01*
X017581Y009757D01*
X017544Y009773D01*
X017544Y009776D02*
X017655Y009776D01*
X017544Y009854D02*
X018507Y009854D01*
X018507Y009776D02*
X017852Y009776D01*
X017956Y009697D02*
X018507Y009697D01*
X018577Y009619D02*
X018232Y009619D01*
X018282Y009540D02*
X018656Y009540D01*
X018580Y009524D02*
X019013Y009091D01*
X019053Y009091D01*
X019387Y008756D01*
X019387Y008697D01*
X019545Y008540D01*
X020917Y008540D01*
X021513Y009130D01*
X021958Y008676D02*
X020626Y008676D01*
X020548Y008598D02*
X021879Y008598D01*
X021907Y008382D02*
X019466Y008382D01*
X018620Y009229D01*
X018521Y009229D01*
X018425Y009462D02*
X018301Y009462D01*
X018296Y009383D02*
X018319Y009383D01*
X018280Y009305D02*
X018263Y009305D01*
X018221Y009261D02*
X018221Y009261D01*
X018049Y009189D02*
X017970Y009111D01*
X017970Y008855D01*
X018462Y008382D01*
X018738Y008382D01*
X019210Y007910D01*
X022163Y007910D01*
X023344Y009091D01*
X023502Y009091D01*
X023423Y009091D01*
X023695Y009091D01*
X024073Y009091D01*
X024131Y009130D01*
X024171Y009170D01*
X024402Y009069D02*
X024431Y009069D01*
X024423Y009148D02*
X024431Y009148D01*
X024420Y009226D02*
X024431Y009226D01*
X024431Y009305D02*
X024388Y009305D01*
X024309Y009603D02*
X023931Y009603D01*
X023852Y009524D01*
X023502Y009505D01*
X022065Y008067D01*
X019289Y008067D01*
X018738Y008619D01*
X018561Y008619D01*
X018620Y008993D02*
X018206Y008993D01*
X018049Y009189D02*
X018049Y009445D01*
X017793Y009406D02*
X017754Y009445D01*
X017754Y009544D01*
X017793Y009406D02*
X017793Y008815D01*
X018383Y008225D01*
X018659Y008225D01*
X020332Y006552D01*
X020549Y006552D01*
X020982Y006119D01*
X021494Y006119D01*
X021024Y006320D02*
X022185Y006320D01*
X022167Y006399D02*
X020945Y006399D01*
X020867Y006477D02*
X022172Y006477D01*
X022205Y006556D02*
X020788Y006556D01*
X020709Y006634D02*
X022292Y006634D01*
X022545Y006634D02*
X026002Y006634D01*
X026002Y006556D02*
X022633Y006556D01*
X022665Y006477D02*
X026002Y006477D01*
X026002Y006399D02*
X024228Y006399D01*
X024283Y006320D02*
X026002Y006320D01*
X026002Y006241D02*
X024305Y006241D01*
X024303Y006163D02*
X026002Y006163D01*
X026002Y006084D02*
X024271Y006084D01*
X024198Y006006D02*
X026002Y006006D01*
X026002Y005927D02*
X022617Y005927D01*
X022696Y005849D02*
X022966Y005849D01*
X022841Y005770D02*
X022774Y005770D01*
X022616Y006217D02*
X022419Y006414D01*
X022677Y006399D02*
X023878Y006399D01*
X024053Y006217D02*
X022616Y006217D01*
X023352Y006791D02*
X026002Y006791D01*
X026002Y006713D02*
X021719Y006713D01*
X021390Y006713D02*
X020631Y006713D01*
X020336Y006791D02*
X021328Y006791D01*
X021301Y006870D02*
X020257Y006870D01*
X020179Y006948D02*
X021301Y006948D01*
X021330Y007027D02*
X020100Y007027D01*
X020022Y007105D02*
X021396Y007105D01*
X022309Y007812D02*
X023773Y007812D01*
X023695Y007734D02*
X019393Y007734D01*
X019472Y007655D02*
X023616Y007655D01*
X023538Y007577D02*
X019550Y007577D01*
X019629Y007498D02*
X023459Y007498D01*
X023381Y007420D02*
X019708Y007420D01*
X019786Y007341D02*
X023302Y007341D01*
X023224Y007262D02*
X019865Y007262D01*
X019943Y007184D02*
X023145Y007184D01*
X023430Y006870D02*
X026002Y006870D01*
X026002Y006948D02*
X023509Y006948D01*
X023588Y007027D02*
X026002Y007027D01*
X026002Y007105D02*
X023666Y007105D01*
X023745Y007184D02*
X026002Y007184D01*
X025979Y007262D02*
X023823Y007262D01*
X023902Y007341D02*
X025901Y007341D01*
X025901Y007420D02*
X023980Y007420D01*
X024059Y007498D02*
X025901Y007498D01*
X025901Y007577D02*
X024137Y007577D01*
X024216Y007655D02*
X025901Y007655D01*
X025901Y007734D02*
X024294Y007734D01*
X024373Y007812D02*
X025901Y007812D01*
X025901Y007891D02*
X024452Y007891D01*
X024530Y007969D02*
X025901Y007969D01*
X025901Y008048D02*
X024609Y008048D01*
X024687Y008126D02*
X025901Y008126D01*
X025901Y008205D02*
X024766Y008205D01*
X024844Y008284D02*
X025901Y008284D01*
X025901Y008362D02*
X024855Y008362D01*
X024855Y008441D02*
X025901Y008441D01*
X025901Y008519D02*
X024855Y008519D01*
X024855Y008598D02*
X025901Y008598D01*
X025901Y008676D02*
X024855Y008676D01*
X024855Y008755D02*
X025901Y008755D01*
X025901Y008833D02*
X024855Y008833D01*
X024855Y008912D02*
X025901Y008912D01*
X025901Y008990D02*
X024855Y008990D01*
X024855Y009069D02*
X025901Y009069D01*
X025901Y009148D02*
X024855Y009148D01*
X024855Y009226D02*
X025901Y009226D01*
X025901Y009305D02*
X024855Y009305D01*
X024855Y009383D02*
X025901Y009383D01*
X025901Y009462D02*
X024855Y009462D01*
X024855Y009540D02*
X025901Y009540D01*
X025901Y009619D02*
X024855Y009619D01*
X024855Y009697D02*
X025901Y009697D01*
X025901Y009776D02*
X024855Y009776D01*
X024855Y009854D02*
X025901Y009854D01*
X025901Y009933D02*
X024855Y009933D01*
X024810Y010011D02*
X025901Y010011D01*
X025901Y010090D02*
X024731Y010090D01*
X024690Y010169D02*
X025901Y010169D01*
X025901Y010247D02*
X024587Y010247D01*
X024522Y010326D02*
X025901Y010326D01*
X025901Y010404D02*
X024555Y010404D01*
X024561Y010483D02*
X025901Y010483D01*
X025901Y010561D02*
X024543Y010561D01*
X024494Y010640D02*
X025901Y010640D01*
X025901Y010718D02*
X024365Y010718D01*
X024252Y010718D02*
X023575Y010718D01*
X023575Y010797D02*
X025901Y010797D01*
X025901Y010875D02*
X023575Y010875D01*
X023620Y010954D02*
X025901Y010954D01*
X025901Y011033D02*
X024268Y011033D01*
X024280Y011111D02*
X025901Y011111D01*
X025901Y011190D02*
X024280Y011190D01*
X024280Y011268D02*
X025901Y011268D01*
X025901Y011347D02*
X024280Y011347D01*
X024280Y011425D02*
X025901Y011425D01*
X025901Y011504D02*
X024280Y011504D01*
X024280Y011582D02*
X025901Y011582D01*
X025901Y011661D02*
X024280Y011661D01*
X024280Y011739D02*
X025901Y011739D01*
X025901Y011818D02*
X024280Y011818D01*
X024280Y011897D02*
X025901Y011897D01*
X025901Y011975D02*
X024206Y011975D01*
X023675Y012446D02*
X025901Y012446D01*
X025901Y012368D02*
X023596Y012368D01*
X023518Y012289D02*
X025901Y012289D01*
X025901Y012211D02*
X023439Y012211D01*
X023361Y012132D02*
X025901Y012132D01*
X025901Y012054D02*
X023282Y012054D01*
X023204Y011975D02*
X023498Y011975D01*
X023425Y011897D02*
X023125Y011897D01*
X023047Y011818D02*
X023425Y011818D01*
X023425Y011739D02*
X022968Y011739D01*
X022889Y011661D02*
X023425Y011661D01*
X023425Y011582D02*
X022868Y011582D01*
X022836Y011504D02*
X023425Y011504D01*
X023295Y011425D02*
X022767Y011425D01*
X022616Y011630D02*
X023620Y012634D01*
X025037Y012634D01*
X025599Y013197D01*
X025470Y013310D02*
X024687Y013310D01*
X024676Y013281D02*
X024756Y013475D01*
X024756Y013684D01*
X024676Y013877D01*
X024528Y014025D01*
X024334Y014105D01*
X024125Y014105D01*
X023932Y014025D01*
X023784Y013877D01*
X023730Y013746D01*
X023676Y013877D01*
X023528Y014025D01*
X023334Y014105D01*
X023125Y014105D01*
X022932Y014025D01*
X022784Y013877D01*
X022704Y013684D01*
X022704Y013475D01*
X022784Y013281D01*
X022932Y013134D01*
X023125Y013054D01*
X023334Y013054D01*
X023528Y013134D01*
X023676Y013281D01*
X023730Y013413D01*
X023784Y013281D01*
X023932Y013134D01*
X024125Y013054D01*
X024334Y013054D01*
X024528Y013134D01*
X024676Y013281D01*
X024626Y013232D02*
X025391Y013232D01*
X025313Y013153D02*
X024547Y013153D01*
X024386Y013075D02*
X025234Y013075D01*
X025156Y012996D02*
X020677Y012996D01*
X020702Y013075D02*
X023074Y013075D01*
X022912Y013153D02*
X020702Y013153D01*
X020671Y013232D02*
X022834Y013232D01*
X022772Y013310D02*
X021253Y013310D01*
X021347Y013389D02*
X022740Y013389D01*
X022707Y013467D02*
X021416Y013467D01*
X021448Y013546D02*
X022704Y013546D01*
X022704Y013624D02*
X021478Y013624D01*
X021478Y013703D02*
X022712Y013703D01*
X022745Y013782D02*
X021478Y013782D01*
X021453Y013860D02*
X022777Y013860D01*
X022846Y013939D02*
X021421Y013939D01*
X021359Y014017D02*
X022925Y014017D01*
X023103Y014096D02*
X021281Y014096D01*
X020859Y014174D02*
X025574Y014174D01*
X025574Y014096D02*
X024356Y014096D01*
X024535Y014017D02*
X025574Y014017D01*
X025574Y013939D02*
X024614Y013939D01*
X024683Y013860D02*
X025574Y013860D01*
X025574Y013782D02*
X024715Y013782D01*
X024748Y013703D02*
X025574Y013703D01*
X025574Y013624D02*
X024756Y013624D01*
X024756Y013546D02*
X025573Y013546D01*
X025560Y013467D02*
X024753Y013467D01*
X024720Y013389D02*
X025527Y013389D01*
X025746Y013550D02*
X025746Y014288D01*
X025490Y014544D01*
X025490Y015371D01*
X025687Y015567D01*
X025918Y015667D02*
X026002Y015667D01*
X026002Y015745D02*
X025865Y015745D01*
X026002Y015824D02*
X022183Y015824D01*
X022183Y015745D02*
X025508Y015745D01*
X025455Y015667D02*
X022183Y015667D01*
X022183Y015588D02*
X025435Y015588D01*
X025386Y015510D02*
X022183Y015510D01*
X022183Y015431D02*
X025318Y015431D01*
X025318Y015352D02*
X022183Y015352D01*
X022183Y015274D02*
X025318Y015274D01*
X025318Y015195D02*
X022183Y015195D01*
X022183Y015117D02*
X025318Y015117D01*
X025318Y015038D02*
X022183Y015038D01*
X022183Y014960D02*
X025318Y014960D01*
X025318Y014881D02*
X022183Y014881D01*
X022183Y014803D02*
X025318Y014803D01*
X025318Y014724D02*
X022183Y014724D01*
X022183Y014646D02*
X025318Y014646D01*
X025318Y014567D02*
X022183Y014567D01*
X022183Y014488D02*
X025318Y014488D01*
X025380Y014410D02*
X020352Y014410D01*
X020352Y014488D02*
X022025Y014488D01*
X022025Y014567D02*
X020352Y014567D01*
X020352Y014646D02*
X022025Y014646D01*
X022025Y014724D02*
X020352Y014724D01*
X020352Y014803D02*
X022025Y014803D01*
X022025Y014881D02*
X020352Y014881D01*
X020352Y014960D02*
X022025Y014960D01*
X022025Y015038D02*
X020352Y015038D01*
X020352Y015117D02*
X022025Y015117D01*
X022025Y015195D02*
X020352Y015195D01*
X020352Y015274D02*
X022025Y015274D01*
X022025Y015352D02*
X020352Y015352D01*
X020352Y015431D02*
X022025Y015431D01*
X022025Y015510D02*
X020352Y015510D01*
X020352Y015588D02*
X022025Y015588D01*
X022025Y015667D02*
X020352Y015667D01*
X020352Y015745D02*
X022025Y015745D01*
X022025Y015824D02*
X020352Y015824D01*
X020194Y015824D02*
X018971Y015824D01*
X018978Y015859D02*
X018958Y015878D01*
X018301Y015878D01*
X017911Y015489D01*
X017517Y015489D01*
X017899Y015421D02*
X017899Y015199D01*
X017835Y015127D01*
X017135Y015127D01*
X016841Y015421D01*
X016741Y015521D01*
X016000Y015521D01*
X016000Y015880D01*
X018364Y015880D01*
X018278Y015793D01*
X018005Y015521D01*
X017998Y015521D01*
X017899Y015421D01*
X017908Y015431D02*
X016831Y015431D01*
X016753Y015510D02*
X017987Y015510D01*
X018072Y015588D02*
X016000Y015588D01*
X016000Y015667D02*
X018151Y015667D01*
X018229Y015745D02*
X016000Y015745D01*
X016000Y015824D02*
X018308Y015824D01*
X018278Y015793D02*
X018278Y015793D01*
X018226Y015311D02*
X018226Y015036D01*
X017990Y014800D01*
X017006Y014800D01*
X016612Y015193D01*
X016139Y015193D01*
X016061Y015115D01*
X016150Y014881D02*
X016684Y014881D01*
X016762Y014803D02*
X011764Y014803D01*
X011764Y014881D02*
X015971Y014881D01*
X015862Y014960D02*
X011764Y014960D01*
X011764Y015038D02*
X015054Y015038D01*
X015019Y015117D02*
X011764Y015117D01*
X011764Y015195D02*
X015019Y015195D01*
X015019Y015274D02*
X011764Y015274D01*
X011764Y015352D02*
X015019Y015352D01*
X015019Y015431D02*
X011764Y015431D01*
X011764Y015510D02*
X015019Y015510D01*
X015019Y015588D02*
X011764Y015588D01*
X011764Y015667D02*
X015019Y015667D01*
X015019Y015745D02*
X011764Y015745D01*
X011764Y015824D02*
X015019Y015824D01*
X015509Y015489D02*
X015647Y015351D01*
X016671Y015351D01*
X017065Y014957D01*
X017911Y014957D01*
X018069Y015134D01*
X018069Y015351D01*
X017899Y015352D02*
X016910Y015352D01*
X016988Y015274D02*
X017899Y015274D01*
X017895Y015195D02*
X017067Y015195D01*
X016605Y014960D02*
X016259Y014960D01*
X016841Y014724D02*
X011764Y014724D01*
X011764Y014646D02*
X016919Y014646D01*
X016983Y014410D02*
X013348Y014410D01*
X013378Y014331D02*
X016892Y014331D01*
X016854Y014239D01*
X016854Y014202D01*
X016187Y014202D01*
X016087Y014102D01*
X015844Y013859D01*
X015844Y013862D01*
X015793Y013985D01*
X015699Y014080D01*
X015576Y014131D01*
X015443Y014131D01*
X015320Y014080D01*
X015226Y013985D01*
X015175Y013862D01*
X015175Y013729D01*
X015226Y013606D01*
X015299Y013533D01*
X015163Y013533D01*
X015131Y013500D01*
X015114Y013493D01*
X014906Y013493D01*
X014864Y013535D01*
X014772Y013573D01*
X014672Y013573D01*
X014580Y013535D01*
X014510Y013465D01*
X014472Y013373D01*
X014472Y013274D01*
X014510Y013182D01*
X014580Y013111D01*
X014672Y013073D01*
X014772Y013073D01*
X014864Y013111D01*
X014906Y013153D01*
X014990Y013153D01*
X014905Y013153D01*
X014990Y013153D02*
X015002Y013123D01*
X015073Y013052D01*
X015164Y013014D01*
X015264Y013014D01*
X015356Y013052D01*
X015426Y013123D01*
X015455Y013193D01*
X015518Y013193D01*
X015659Y013193D01*
X015865Y013400D01*
X015878Y013369D01*
X015949Y013298D01*
X015969Y013290D01*
X015969Y013194D01*
X016069Y013094D01*
X016207Y012956D01*
X016348Y012956D01*
X016561Y012956D01*
X017027Y012490D01*
X017027Y011708D01*
X016758Y011708D01*
X016682Y011631D01*
X016682Y011224D01*
X016758Y011148D01*
X017466Y011148D01*
X017542Y011224D01*
X017542Y011611D01*
X017931Y011611D01*
X018008Y011687D01*
X018008Y012519D01*
X017931Y012595D01*
X017403Y012595D01*
X016801Y013197D01*
X016702Y013296D01*
X016619Y013296D01*
X016626Y013313D01*
X016626Y013412D01*
X016587Y013504D01*
X016546Y013546D01*
X017294Y013546D01*
X017328Y013512D02*
X017451Y013461D01*
X017584Y013461D01*
X017707Y013512D01*
X017801Y013606D01*
X017852Y013729D01*
X017852Y013862D01*
X017801Y013985D01*
X017783Y014003D01*
X017847Y014068D01*
X017885Y014159D01*
X017885Y014259D01*
X017847Y014351D01*
X017777Y014421D01*
X017685Y014459D01*
X017586Y014459D01*
X017494Y014421D01*
X017452Y014379D01*
X017368Y014379D01*
X017317Y014328D01*
X017316Y014331D01*
X017246Y014401D01*
X017154Y014439D01*
X017054Y014439D01*
X016962Y014401D01*
X016892Y014331D01*
X016860Y014253D02*
X013378Y014253D01*
X013351Y014174D02*
X016159Y014174D01*
X016081Y014096D02*
X015660Y014096D01*
X015762Y014017D02*
X016002Y014017D01*
X015924Y013939D02*
X015813Y013939D01*
X015844Y013860D02*
X015845Y013860D01*
X016090Y013510D02*
X016139Y013461D01*
X016139Y013264D01*
X016277Y013126D01*
X016631Y013126D01*
X017399Y012359D01*
X017399Y012221D01*
X017517Y012103D01*
X017027Y012132D02*
X016172Y012132D01*
X016172Y012054D02*
X017027Y012054D01*
X017027Y011975D02*
X016172Y011975D01*
X016172Y011897D02*
X017027Y011897D01*
X017027Y011818D02*
X016172Y011818D01*
X016172Y011740D02*
X016172Y012606D01*
X016072Y012706D01*
X016013Y012765D01*
X015872Y012765D01*
X014970Y012765D01*
X014933Y012802D01*
X014933Y012861D01*
X014895Y012953D01*
X014824Y013023D01*
X014732Y013061D01*
X014633Y013061D01*
X014541Y013023D01*
X014471Y012953D01*
X014433Y012861D01*
X014433Y012762D01*
X014471Y012670D01*
X014541Y012600D01*
X014633Y012561D01*
X014692Y012561D01*
X014729Y012525D01*
X014088Y012525D01*
X014166Y012446D02*
X014807Y012446D01*
X014829Y012425D02*
X015019Y012425D01*
X015019Y011687D01*
X015076Y011630D01*
X015061Y011614D01*
X015023Y011523D01*
X015023Y011423D01*
X015061Y011331D01*
X015103Y011289D01*
X015103Y011252D01*
X015102Y011250D01*
X015043Y011250D01*
X014900Y011191D01*
X014791Y011082D01*
X014732Y010940D01*
X014732Y010786D01*
X014791Y010643D01*
X014900Y010534D01*
X015043Y010475D01*
X015197Y010475D01*
X015339Y010534D01*
X015448Y010643D01*
X015507Y010786D01*
X015507Y010940D01*
X015448Y011082D01*
X015423Y011107D01*
X015443Y011127D01*
X015443Y011143D01*
X015452Y011156D01*
X015443Y011211D01*
X015443Y011289D01*
X015485Y011331D01*
X015523Y011423D01*
X015523Y011523D01*
X015487Y011611D01*
X015505Y011611D01*
X015732Y011384D01*
X015732Y011325D01*
X015770Y011233D01*
X015775Y011227D01*
X015688Y011191D01*
X015579Y011082D01*
X015520Y010940D01*
X015520Y010786D01*
X015579Y010643D01*
X015688Y010534D01*
X015830Y010475D01*
X015984Y010475D01*
X016127Y010534D01*
X016236Y010643D01*
X016295Y010786D01*
X016295Y010909D01*
X016346Y010888D01*
X016445Y010888D01*
X016537Y010926D01*
X016607Y010997D01*
X016645Y011089D01*
X016645Y011188D01*
X016607Y011280D01*
X016565Y011322D01*
X016565Y011346D01*
X016466Y011446D01*
X016172Y011740D01*
X016172Y011739D02*
X017027Y011739D01*
X016711Y011661D02*
X016251Y011661D01*
X016329Y011582D02*
X016682Y011582D01*
X016682Y011504D02*
X016408Y011504D01*
X016486Y011425D02*
X016682Y011425D01*
X016682Y011347D02*
X016565Y011347D01*
X016612Y011268D02*
X016682Y011268D01*
X016716Y011190D02*
X016645Y011190D01*
X016645Y011111D02*
X019198Y011111D01*
X019198Y011033D02*
X019079Y011033D01*
X019151Y010954D02*
X019198Y010954D01*
X019184Y010875D02*
X019213Y010875D01*
X019185Y010797D02*
X019291Y010797D01*
X019370Y010718D02*
X019162Y010718D01*
X019105Y010640D02*
X019449Y010640D01*
X019527Y010561D02*
X019006Y010561D01*
X019006Y010483D02*
X019606Y010483D01*
X019684Y010404D02*
X019006Y010404D01*
X019006Y010326D02*
X019763Y010326D01*
X019841Y010247D02*
X019006Y010247D01*
X018934Y010169D02*
X019920Y010169D01*
X020007Y010321D02*
X019368Y010961D01*
X019368Y011335D01*
X019263Y011428D01*
X019112Y011428D01*
X019392Y011739D02*
X018008Y011739D01*
X018008Y011818D02*
X019431Y011818D01*
X019867Y012289D02*
X018008Y012289D01*
X018008Y012211D02*
X019945Y012211D01*
X020023Y012132D02*
X020023Y012073D01*
X020067Y011975D02*
X018008Y011975D01*
X018008Y011897D02*
X020166Y011897D01*
X020164Y011818D02*
X020440Y011818D01*
X020509Y011739D02*
X020203Y011739D01*
X020203Y011661D02*
X020509Y011661D01*
X020509Y011582D02*
X020203Y011582D01*
X020203Y011504D02*
X020509Y011504D01*
X020509Y011425D02*
X020203Y011425D01*
X020203Y011347D02*
X020509Y011347D01*
X020509Y011268D02*
X020203Y011268D01*
X020203Y011190D02*
X020509Y011190D01*
X020509Y011111D02*
X020203Y011111D01*
X020203Y011033D02*
X020509Y011033D01*
X020509Y010954D02*
X020194Y010954D01*
X020509Y010875D02*
X019694Y010875D01*
X019772Y010797D02*
X020509Y010797D01*
X020509Y010718D02*
X019851Y010718D01*
X019929Y010640D02*
X020509Y010640D01*
X020509Y010561D02*
X020008Y010561D01*
X020007Y010321D02*
X020519Y010321D01*
X020647Y010449D01*
X021198Y010449D01*
X021033Y010640D02*
X020667Y010640D01*
X020667Y010718D02*
X023231Y010718D01*
X023231Y010640D02*
X021364Y010640D01*
X021425Y010561D02*
X023231Y010561D01*
X023193Y010483D02*
X021450Y010483D01*
X021450Y010404D02*
X023133Y010404D01*
X023133Y010326D02*
X021420Y010326D01*
X021353Y010247D02*
X023133Y010247D01*
X023133Y010169D02*
X020667Y010169D01*
X020667Y010090D02*
X023133Y010090D01*
X023133Y010011D02*
X020667Y010011D01*
X020741Y009933D02*
X023133Y009933D01*
X023133Y009854D02*
X020805Y009854D01*
X020805Y009776D02*
X023057Y009776D01*
X022979Y009697D02*
X020805Y009697D01*
X020805Y009619D02*
X022900Y009619D01*
X022822Y009540D02*
X020805Y009540D01*
X020805Y009462D02*
X022743Y009462D01*
X022665Y009383D02*
X020805Y009383D01*
X020805Y009305D02*
X022586Y009305D01*
X022508Y009226D02*
X020805Y009226D01*
X020805Y009148D02*
X022429Y009148D01*
X022351Y009069D02*
X020805Y009069D01*
X020805Y008990D02*
X022272Y008990D01*
X022193Y008912D02*
X020805Y008912D01*
X020783Y008833D02*
X022115Y008833D01*
X022036Y008755D02*
X020705Y008755D01*
X020626Y008912D02*
X020203Y008912D01*
X020203Y008990D02*
X020647Y008990D01*
X020647Y009069D02*
X020203Y009069D01*
X020203Y009148D02*
X020647Y009148D01*
X020647Y009226D02*
X020203Y009226D01*
X020203Y009305D02*
X020647Y009305D01*
X020647Y009383D02*
X020203Y009383D01*
X020203Y009462D02*
X020647Y009462D01*
X020647Y009540D02*
X020198Y009540D01*
X020647Y009619D02*
X019297Y009619D01*
X019218Y009697D02*
X020647Y009697D01*
X020647Y009776D02*
X019140Y009776D01*
X019057Y009854D02*
X020583Y009854D01*
X020509Y009933D02*
X018902Y009933D01*
X018849Y010011D02*
X020509Y010011D01*
X020509Y010090D02*
X018855Y010090D01*
X018679Y010154D02*
X018836Y010311D01*
X018836Y010725D01*
X018935Y010823D01*
X018718Y010954D02*
X016565Y010954D01*
X016622Y011033D02*
X018790Y011033D01*
X018716Y011190D02*
X017508Y011190D01*
X017542Y011268D02*
X018682Y011268D01*
X018682Y011347D02*
X017542Y011347D01*
X017542Y011425D02*
X018682Y011425D01*
X018682Y011504D02*
X017542Y011504D01*
X017542Y011582D02*
X018682Y011582D01*
X018711Y011661D02*
X017982Y011661D01*
X018008Y012368D02*
X019867Y012368D01*
X019867Y012446D02*
X018008Y012446D01*
X018001Y012525D02*
X019867Y012525D01*
X019867Y012603D02*
X018844Y012603D01*
X018840Y012600D02*
X018910Y012670D01*
X018939Y012740D01*
X019025Y012740D01*
X019124Y012839D01*
X019962Y012839D01*
X019883Y012761D02*
X019045Y012761D01*
X019124Y012839D02*
X019361Y013076D01*
X019361Y013130D01*
X019370Y013139D01*
X019370Y013586D01*
X019286Y013670D01*
X019095Y013670D01*
X019092Y013667D01*
X019090Y013670D01*
X018898Y013670D01*
X018814Y013586D01*
X018814Y013237D01*
X018582Y013237D01*
X018582Y013586D01*
X018499Y013670D01*
X018331Y013670D01*
X018289Y013712D01*
X018197Y013750D01*
X018097Y013750D01*
X018006Y013712D01*
X017935Y013642D01*
X017897Y013550D01*
X017897Y013451D01*
X017935Y013359D01*
X018006Y013289D01*
X018056Y013268D01*
X018056Y013197D01*
X018056Y013056D01*
X018115Y012997D01*
X018215Y012897D01*
X018463Y012897D01*
X018448Y012861D01*
X018448Y012762D01*
X018486Y012670D01*
X018557Y012600D01*
X018649Y012561D01*
X018748Y012561D01*
X018840Y012600D01*
X018915Y012682D02*
X019867Y012682D01*
X020037Y012674D02*
X020037Y012359D01*
X020273Y012123D01*
X020509Y012004D02*
X020509Y012359D01*
X020411Y012457D01*
X020411Y012487D01*
X020381Y012516D01*
X020517Y012839D02*
X020746Y012839D01*
X020618Y012918D02*
X025077Y012918D01*
X024999Y012839D02*
X022517Y012839D01*
X022632Y012761D02*
X023503Y012761D01*
X023424Y012682D02*
X022692Y012682D01*
X022724Y012603D02*
X023346Y012603D01*
X023267Y012525D02*
X022732Y012525D01*
X022731Y012446D02*
X023189Y012446D01*
X023110Y012368D02*
X022699Y012368D01*
X022650Y012289D02*
X023031Y012289D01*
X022953Y012211D02*
X022559Y012211D01*
X022717Y011975D02*
X020782Y011975D01*
X020860Y011897D02*
X022639Y011897D01*
X022447Y011818D02*
X020939Y011818D01*
X021018Y011739D02*
X022388Y011739D01*
X022364Y011661D02*
X021096Y011661D01*
X021114Y011582D02*
X022364Y011582D01*
X022395Y011504D02*
X021114Y011504D01*
X021130Y011425D02*
X022464Y011425D01*
X022796Y012054D02*
X020703Y012054D01*
X020681Y012132D02*
X022874Y012132D01*
X022204Y012211D02*
X022059Y012211D01*
X021704Y012211D02*
X021559Y012211D01*
X021204Y012211D02*
X021059Y012211D01*
X020704Y012211D02*
X020681Y012211D01*
X020509Y012004D02*
X020943Y011571D01*
X020943Y011256D01*
X021178Y011347D02*
X023196Y011347D01*
X023160Y011268D02*
X021194Y011268D01*
X021188Y011190D02*
X023151Y011190D01*
X023166Y011111D02*
X021154Y011111D01*
X021061Y011033D02*
X023212Y011033D01*
X023231Y010954D02*
X020667Y010954D01*
X020667Y011033D02*
X020824Y011033D01*
X020731Y011111D02*
X020667Y011111D01*
X020667Y011190D02*
X020697Y011190D01*
X020691Y011268D02*
X020667Y011268D01*
X020667Y011347D02*
X020707Y011347D01*
X020667Y011425D02*
X020755Y011425D01*
X020767Y011504D02*
X020667Y011504D01*
X020667Y011582D02*
X020688Y011582D01*
X020667Y010875D02*
X023231Y010875D01*
X023231Y010797D02*
X020667Y010797D01*
X020691Y010250D02*
X020691Y010250D01*
X020688Y010247D02*
X021044Y010247D01*
X020547Y008833D02*
X020203Y008833D01*
X020203Y008755D02*
X020469Y008755D01*
X019663Y008598D02*
X019494Y008598D01*
X019431Y008676D02*
X019415Y008676D01*
X019390Y008755D02*
X019337Y008755D01*
X019390Y008833D02*
X019258Y008833D01*
X019180Y008912D02*
X019390Y008912D01*
X019151Y008990D02*
X019101Y008990D01*
X019097Y009069D02*
X019023Y009069D01*
X019076Y009148D02*
X018944Y009148D01*
X018866Y009226D02*
X019079Y009226D01*
X019111Y009305D02*
X018787Y009305D01*
X018723Y009383D02*
X019049Y009383D01*
X018970Y009462D02*
X018617Y009462D01*
X018580Y009524D02*
X018502Y009524D01*
X018029Y009819D01*
X018069Y010489D01*
X017911Y010483D02*
X018265Y010483D01*
X018265Y010561D02*
X017911Y010561D01*
X017911Y010404D02*
X018265Y010404D01*
X018291Y010326D02*
X017911Y010326D01*
X017911Y010247D02*
X018369Y010247D01*
X018448Y010169D02*
X017911Y010169D01*
X017754Y010326D02*
X016939Y010326D01*
X016906Y010404D02*
X017754Y010404D01*
X017754Y010483D02*
X016833Y010483D01*
X016691Y010272D02*
X016691Y009741D01*
X016769Y009662D01*
X017084Y009662D01*
X017183Y009563D01*
X017183Y008973D01*
X018265Y007890D01*
X018521Y007890D01*
X018974Y007437D01*
X018974Y007280D01*
X019207Y007184D02*
X019221Y007184D01*
X019211Y007194D02*
X019445Y006960D01*
X017844Y006960D01*
X017746Y007058D01*
X017691Y007058D01*
X017758Y007086D01*
X017829Y007157D01*
X017868Y007250D01*
X017868Y007350D01*
X017829Y007442D01*
X017758Y007513D01*
X017666Y007551D01*
X017617Y007600D01*
X017840Y007600D01*
X018015Y007425D01*
X018027Y007413D01*
X018052Y007354D01*
X018123Y007283D01*
X018215Y007245D01*
X018309Y007245D01*
X018309Y007230D01*
X018347Y007137D01*
X018418Y007066D01*
X018510Y007028D01*
X018611Y007028D01*
X018703Y007066D01*
X018767Y007130D01*
X018831Y007066D01*
X018924Y007028D01*
X019024Y007028D01*
X019117Y007066D01*
X019188Y007137D01*
X019211Y007194D01*
X019156Y007105D02*
X019299Y007105D01*
X019378Y007027D02*
X017777Y007027D01*
X017778Y007105D02*
X018379Y007105D01*
X018328Y007184D02*
X017841Y007184D01*
X017868Y007262D02*
X018172Y007262D01*
X018064Y007341D02*
X017868Y007341D01*
X017839Y007420D02*
X018020Y007420D01*
X017942Y007498D02*
X017774Y007498D01*
X017863Y007577D02*
X017641Y007577D01*
X017616Y007359D02*
X017616Y007300D01*
X017616Y007359D02*
X017261Y007713D01*
X017065Y007713D01*
X016946Y007831D01*
X016789Y007831D01*
X016572Y007615D01*
X016179Y007615D01*
X015667Y007103D01*
X015667Y006886D01*
X015588Y006808D01*
X015588Y005784D01*
X015332Y005528D01*
X014939Y005528D01*
X014811Y005656D01*
X014811Y006227D01*
X014820Y006237D01*
X014850Y006272D01*
X014748Y006276D01*
X014545Y006079D01*
X015037Y005764D02*
X015116Y005843D01*
X015116Y005961D01*
X015155Y006020D01*
X015155Y006886D01*
X015273Y007004D01*
X015273Y007182D01*
X015746Y007654D01*
X015746Y008678D01*
X015844Y008776D01*
X015431Y008540D02*
X015431Y007811D01*
X014939Y007319D01*
X014939Y007201D01*
X013974Y006237D01*
X013974Y005430D01*
X014332Y005063D02*
X014624Y005063D01*
X014624Y004985D02*
X014254Y004985D01*
X014469Y005063D02*
X020788Y005063D01*
X020730Y005142D02*
X019423Y005142D01*
X019502Y005220D02*
X020698Y005220D01*
X020669Y005299D02*
X019580Y005299D01*
X019659Y005377D02*
X019662Y005377D01*
X019829Y005377D02*
X020669Y005377D01*
X020669Y005456D02*
X019988Y005456D01*
X020067Y005535D02*
X020687Y005535D01*
X020720Y005613D02*
X020105Y005613D01*
X020135Y005692D02*
X020674Y005692D01*
X020595Y005770D02*
X020135Y005770D01*
X020132Y005849D02*
X020516Y005849D01*
X020438Y005927D02*
X020100Y005927D01*
X020055Y006006D02*
X020359Y006006D01*
X020391Y006217D02*
X020194Y006217D01*
X019616Y006788D01*
X017773Y006788D01*
X017675Y006886D01*
X017281Y006886D01*
X017048Y006791D02*
X017040Y006791D01*
X017016Y006713D02*
X017098Y006713D01*
X016937Y006634D02*
X017684Y006634D01*
X017605Y006713D02*
X017464Y006713D01*
X017858Y006320D02*
X019845Y006320D01*
X019766Y006399D02*
X016870Y006399D01*
X016862Y006477D02*
X019686Y006477D01*
X019606Y006556D02*
X016862Y006556D01*
X016691Y006630D02*
X016691Y006335D01*
X016848Y006178D01*
X017757Y006178D01*
X018171Y005764D01*
X018480Y006006D02*
X019436Y006006D01*
X019392Y005927D02*
X018525Y005927D01*
X018557Y005849D02*
X019359Y005849D01*
X019356Y005770D02*
X018560Y005770D01*
X018560Y005692D02*
X019356Y005692D01*
X019295Y005613D02*
X018530Y005613D01*
X018401Y006084D02*
X019515Y006084D01*
X019925Y006241D02*
X017937Y006241D01*
X018015Y006163D02*
X020004Y006163D01*
X019976Y006084D02*
X020084Y006084D01*
X020391Y006217D02*
X021159Y005449D01*
X021171Y005390D01*
X021028Y004906D02*
X014564Y004906D01*
X014517Y004985D02*
X020866Y004985D01*
X018792Y007105D02*
X018742Y007105D01*
X018561Y007280D02*
X018561Y007615D01*
X018443Y007733D01*
X018187Y007733D01*
X016710Y009209D01*
X016533Y009209D01*
X015785Y009957D01*
X014171Y009957D01*
X013954Y010174D01*
X013954Y010193D01*
X013727Y010090D02*
X012785Y010090D01*
X012785Y010011D02*
X013079Y010011D01*
X013206Y009898D02*
X013935Y009898D01*
X014072Y009760D01*
X015746Y009760D01*
X016454Y009052D01*
X016651Y009052D01*
X017301Y008402D01*
X017301Y008264D01*
X017065Y008166D02*
X017202Y008028D01*
X017439Y008028D01*
X017458Y008008D01*
X017557Y008008D01*
X017340Y007871D02*
X017439Y007772D01*
X017911Y007772D01*
X018187Y007497D01*
X018265Y007497D01*
X017340Y007871D02*
X017124Y007871D01*
X016907Y008087D01*
X016907Y008363D01*
X016553Y008717D01*
X016277Y008717D01*
X015569Y009426D01*
X014486Y009426D01*
X014387Y009347D01*
X014013Y009583D02*
X015667Y009583D01*
X016376Y008874D01*
X016612Y008874D01*
X017065Y008422D01*
X017065Y008166D01*
X016868Y007575D02*
X016868Y006808D01*
X016691Y006630D01*
X016395Y006237D02*
X016393Y006237D01*
X016350Y006272D01*
X016402Y006190D02*
X016134Y005804D01*
X015765Y005804D01*
X015765Y005331D01*
X015765Y005804D02*
X015765Y006729D01*
X015844Y006808D01*
X015844Y007024D01*
X016041Y007221D01*
X016139Y007221D01*
X016336Y006985D02*
X016612Y006985D01*
X016336Y006985D02*
X015982Y006630D01*
X015982Y006060D01*
X016002Y006040D01*
X015352Y005882D02*
X015352Y006847D01*
X015470Y006965D01*
X015470Y007142D01*
X015982Y007654D01*
X015982Y007871D01*
X015273Y007890D02*
X015273Y008461D01*
X014820Y008914D01*
X014820Y009189D01*
X015194Y008894D02*
X015273Y008835D01*
X015273Y008697D01*
X015431Y008540D01*
X015273Y007890D02*
X014781Y007398D01*
X014781Y007260D01*
X013600Y006079D01*
X013600Y006020D01*
X013580Y005981D01*
X013344Y006099D02*
X013541Y006296D01*
X013600Y006296D01*
X014624Y007319D01*
X014624Y007831D01*
X014466Y007989D01*
X014466Y008048D01*
X014214Y008048D02*
X014067Y008048D01*
X014067Y008126D02*
X014226Y008126D01*
X014226Y007969D02*
X014067Y007969D01*
X014067Y007891D02*
X014267Y007891D01*
X014376Y007812D02*
X014033Y007812D01*
X013469Y008990D02*
X013418Y008990D01*
X013600Y009209D02*
X013600Y009288D01*
X013561Y009327D01*
X013561Y009721D01*
X013876Y009721D01*
X014013Y009583D01*
X013892Y009462D02*
X013733Y009462D01*
X013206Y009898D02*
X012694Y009367D01*
X011848Y009367D01*
X011730Y009249D01*
X011213Y009226D02*
X010504Y009226D01*
X010504Y009148D02*
X011151Y009148D01*
X011124Y009069D02*
X010504Y009069D01*
X010504Y008990D02*
X011124Y008990D01*
X011153Y008912D02*
X010504Y008912D01*
X010504Y008833D02*
X011218Y008833D01*
X012261Y008776D02*
X012480Y008762D01*
X012360Y008744D01*
X012380Y008481D01*
X012261Y008363D01*
X012261Y008107D01*
X012480Y008762D02*
X012557Y008756D01*
X013029Y009367D01*
X012785Y010169D02*
X013704Y010169D01*
X013706Y010247D02*
X012785Y010247D01*
X012785Y010326D02*
X013739Y010326D01*
X013812Y010404D02*
X012785Y010404D01*
X012727Y010483D02*
X013917Y010483D01*
X013838Y010561D02*
X012031Y010561D01*
X011543Y010169D02*
X011429Y010169D01*
X011480Y011190D02*
X011671Y011190D01*
X011671Y011268D02*
X011622Y011268D01*
X012785Y011268D02*
X013803Y011268D01*
X013820Y011347D02*
X012785Y011347D01*
X012785Y011425D02*
X013868Y011425D01*
X013997Y011504D02*
X012785Y011504D01*
X012785Y011582D02*
X015048Y011582D01*
X015045Y011661D02*
X012730Y011661D01*
X012751Y011818D02*
X014248Y011818D01*
X014122Y011897D02*
X012785Y011897D01*
X012785Y011975D02*
X014075Y011975D01*
X014059Y012054D02*
X012785Y012054D01*
X012785Y012132D02*
X014000Y012132D01*
X013921Y012211D02*
X012785Y012211D01*
X012785Y012289D02*
X013842Y012289D01*
X013764Y012368D02*
X012785Y012368D01*
X012785Y012446D02*
X013685Y012446D01*
X013607Y012525D02*
X012785Y012525D01*
X012785Y012603D02*
X013528Y012603D01*
X013450Y012682D02*
X012785Y012682D01*
X012785Y012761D02*
X013371Y012761D01*
X013293Y012839D02*
X012733Y012839D01*
X013302Y013310D02*
X014472Y013310D01*
X014479Y013389D02*
X013298Y013389D01*
X013298Y013467D02*
X014513Y013467D01*
X014606Y013546D02*
X013298Y013546D01*
X013298Y013624D02*
X015218Y013624D01*
X015185Y013703D02*
X013298Y013703D01*
X013298Y013782D02*
X015175Y013782D01*
X015175Y013860D02*
X013298Y013860D01*
X013298Y013939D02*
X015206Y013939D01*
X015257Y014017D02*
X013298Y014017D01*
X013298Y014096D02*
X015359Y014096D01*
X015286Y013546D02*
X014838Y013546D01*
X014722Y013323D02*
X015214Y013323D01*
X015214Y013264D01*
X015194Y013323D01*
X015234Y013363D01*
X015588Y013363D01*
X016257Y014032D01*
X016986Y014032D01*
X017104Y014150D01*
X017104Y014189D01*
X017225Y014410D02*
X017483Y014410D01*
X017320Y014331D02*
X017315Y014331D01*
X017439Y014209D02*
X017635Y014209D01*
X017439Y014209D02*
X017104Y013874D01*
X016336Y013874D01*
X016257Y013796D01*
X016257Y013678D01*
X016376Y013560D01*
X016376Y013363D01*
X016546Y013546D02*
X016546Y013630D01*
X016471Y013704D01*
X017174Y013704D01*
X017187Y013717D01*
X017233Y013606D01*
X017328Y013512D01*
X017435Y013467D02*
X016603Y013467D01*
X016626Y013389D02*
X017923Y013389D01*
X017897Y013467D02*
X017600Y013467D01*
X017741Y013546D02*
X017897Y013546D01*
X017928Y013624D02*
X017809Y013624D01*
X017841Y013703D02*
X017996Y013703D01*
X017852Y013782D02*
X020194Y013782D01*
X020194Y013860D02*
X017852Y013860D01*
X017821Y013939D02*
X020194Y013939D01*
X020194Y014017D02*
X017797Y014017D01*
X017859Y014096D02*
X020194Y014096D01*
X020194Y014174D02*
X017885Y014174D01*
X017885Y014253D02*
X020194Y014253D01*
X020194Y014331D02*
X019342Y014331D01*
X019370Y014410D02*
X020194Y014410D01*
X020194Y014488D02*
X019370Y014488D01*
X019370Y014567D02*
X020194Y014567D01*
X020194Y014646D02*
X019370Y014646D01*
X019370Y014724D02*
X020194Y014724D01*
X020194Y014803D02*
X019370Y014803D01*
X019296Y014881D02*
X020194Y014881D01*
X020194Y014960D02*
X019237Y014960D01*
X019237Y015038D02*
X020194Y015038D01*
X020194Y015117D02*
X019237Y015117D01*
X019237Y015195D02*
X020194Y015195D01*
X020194Y015274D02*
X019237Y015274D01*
X019237Y015352D02*
X020194Y015352D01*
X020194Y015431D02*
X019237Y015431D01*
X019237Y015510D02*
X020194Y015510D01*
X020194Y015588D02*
X019206Y015588D01*
X019128Y015667D02*
X020194Y015667D01*
X020194Y015745D02*
X019049Y015745D01*
X018620Y015371D02*
X018620Y014819D01*
X018600Y014800D01*
X018600Y014583D01*
X018403Y014583D01*
X018224Y014567D02*
X011764Y014567D01*
X011764Y014017D02*
X011947Y014017D01*
X011907Y013939D02*
X011764Y013939D01*
X011764Y013860D02*
X011907Y013860D01*
X011907Y013782D02*
X011764Y013782D01*
X011764Y013757D02*
X011764Y013757D01*
X011709Y013703D02*
X011907Y013703D01*
X011682Y013675D02*
X011682Y013675D01*
X011682Y013675D01*
X011572Y013075D02*
X010471Y013075D01*
X010619Y012996D02*
X011660Y012996D01*
X011690Y012918D02*
X010697Y012918D01*
X010743Y012839D02*
X011689Y012839D01*
X011688Y012761D02*
X010776Y012761D01*
X010791Y012682D02*
X011687Y012682D01*
X011686Y012603D02*
X010791Y012603D01*
X010786Y012525D02*
X011685Y012525D01*
X010324Y011630D02*
X009149Y011630D01*
X008596Y012179D01*
X006904Y012174D01*
X006750Y012319D01*
X006224Y012289D02*
X005806Y012289D01*
X005820Y012368D02*
X006224Y012368D01*
X006224Y012446D02*
X005820Y012446D01*
X005819Y012525D02*
X006224Y012525D01*
X006224Y012603D02*
X005787Y012603D01*
X005754Y012682D02*
X006224Y012682D01*
X006224Y012761D02*
X005690Y012761D01*
X005612Y012839D02*
X006276Y012839D01*
X006818Y012950D02*
X006818Y012950D01*
X006889Y013122D02*
X006571Y013440D01*
X006571Y013500D01*
X006553Y013500D01*
X006889Y013122D02*
X008237Y013120D01*
X008688Y012670D01*
X009293Y012670D01*
X009309Y012654D01*
X009119Y012446D02*
X007275Y012446D01*
X007275Y012368D02*
X009072Y012368D01*
X009057Y012289D02*
X008729Y012289D01*
X008666Y012351D02*
X008666Y012351D01*
X008666Y012351D01*
X008589Y012525D02*
X007275Y012525D01*
X007275Y012603D02*
X008511Y012603D01*
X008432Y012682D02*
X007275Y012682D01*
X007275Y012761D02*
X008354Y012761D01*
X008275Y012839D02*
X007224Y012839D01*
X007275Y011975D02*
X008557Y011975D01*
X008636Y011897D02*
X008360Y011897D01*
X008439Y011818D02*
X008716Y011818D01*
X008795Y011739D02*
X008518Y011739D01*
X008596Y011661D02*
X008874Y011661D01*
X008953Y011582D02*
X008675Y011582D01*
X008753Y011504D02*
X009033Y011504D01*
X009079Y011458D02*
X009079Y011458D01*
X009204Y011818D02*
X009897Y011818D01*
X009931Y011897D02*
X009125Y011897D01*
X009046Y011975D02*
X010009Y011975D01*
X010127Y012054D02*
X009421Y012054D01*
X009197Y012054D02*
X008966Y012054D01*
X008887Y012132D02*
X009100Y012132D01*
X009065Y012211D02*
X008808Y012211D01*
X008197Y012918D02*
X005435Y012918D01*
X005202Y012918D02*
X004781Y012918D01*
X004781Y012839D02*
X005025Y012839D01*
X004946Y012761D02*
X004781Y012761D01*
X004781Y012682D02*
X004883Y012682D01*
X004850Y012603D02*
X004787Y012603D01*
X004806Y012289D02*
X004830Y012289D01*
X004863Y012211D02*
X004781Y012211D01*
X004781Y012132D02*
X004899Y012132D01*
X004978Y012054D02*
X004781Y012054D01*
X004781Y011975D02*
X005087Y011975D01*
X004781Y011897D02*
X006224Y011897D01*
X006224Y011975D02*
X005550Y011975D01*
X005659Y012054D02*
X006224Y012054D01*
X006224Y012132D02*
X005738Y012132D01*
X005774Y012211D02*
X006224Y012211D01*
X006257Y011818D02*
X004781Y011818D01*
X004781Y011739D02*
X007679Y011739D01*
X007679Y011661D02*
X007221Y011661D01*
X007275Y011582D02*
X007702Y011582D01*
X007760Y011504D02*
X007275Y011504D01*
X007242Y011818D02*
X007711Y011818D01*
X007781Y011897D02*
X007275Y011897D01*
X006279Y011661D02*
X005455Y011661D01*
X005620Y011582D02*
X006224Y011582D01*
X006224Y011504D02*
X005699Y011504D01*
X005758Y011425D02*
X006224Y011425D01*
X006224Y011347D02*
X005790Y011347D01*
X005820Y011268D02*
X006224Y011268D01*
X006224Y011190D02*
X005820Y011190D01*
X005820Y011111D02*
X006224Y011111D01*
X006224Y011033D02*
X005803Y011033D01*
X005771Y010954D02*
X006224Y010954D01*
X005914Y010875D02*
X005730Y010875D01*
X005651Y010797D02*
X005854Y010797D01*
X005828Y010718D02*
X005530Y010718D01*
X005828Y010640D02*
X004781Y010640D01*
X004781Y010718D02*
X005107Y010718D01*
X004986Y010797D02*
X004781Y010797D01*
X004781Y010875D02*
X004907Y010875D01*
X004866Y010954D02*
X004781Y010954D01*
X004803Y011033D02*
X004834Y011033D01*
X004781Y010561D02*
X005859Y010561D01*
X005927Y010483D02*
X004781Y010483D01*
X004781Y010404D02*
X005162Y010404D01*
X005009Y010326D02*
X004781Y010326D01*
X004781Y010247D02*
X004930Y010247D01*
X004876Y010169D02*
X004781Y010169D01*
X004794Y010090D02*
X004843Y010090D01*
X004837Y009776D02*
X004800Y009776D01*
X004781Y009697D02*
X004870Y009697D01*
X004915Y009619D02*
X004781Y009619D01*
X004781Y009540D02*
X004994Y009540D01*
X005127Y009462D02*
X004781Y009462D01*
X004790Y011347D02*
X004847Y011347D01*
X004879Y011425D02*
X004781Y011425D01*
X004781Y011504D02*
X004938Y011504D01*
X005017Y011582D02*
X004781Y011582D01*
X004781Y011661D02*
X005182Y011661D01*
X007314Y013675D02*
X007314Y013675D01*
X007314Y013675D01*
X009847Y012898D02*
X009847Y012898D01*
X010476Y013651D02*
X010476Y013651D01*
X013280Y014488D02*
X018224Y014488D01*
X018224Y014410D02*
X017788Y014410D01*
X017855Y014331D02*
X018252Y014331D01*
X018224Y014646D02*
X018076Y014646D01*
X018155Y014724D02*
X018224Y014724D01*
X018779Y014724D02*
X018804Y014724D01*
X018814Y014646D02*
X018779Y014646D01*
X018779Y014567D02*
X018814Y014567D01*
X018814Y014488D02*
X018779Y014488D01*
X018779Y014410D02*
X018814Y014410D01*
X018842Y014331D02*
X018751Y014331D01*
X018298Y013703D02*
X020194Y013703D01*
X020194Y013624D02*
X019332Y013624D01*
X019370Y013546D02*
X020194Y013546D01*
X020194Y013467D02*
X019370Y013467D01*
X019370Y013389D02*
X020194Y013389D01*
X020194Y013310D02*
X019370Y013310D01*
X019370Y013232D02*
X020194Y013232D01*
X020194Y013153D02*
X019370Y013153D01*
X019359Y013075D02*
X020194Y013075D01*
X020119Y012996D02*
X019281Y012996D01*
X019202Y012918D02*
X020041Y012918D01*
X020037Y012674D02*
X020450Y013087D01*
X020450Y013107D01*
X020603Y013310D02*
X020790Y013310D01*
X020695Y013389D02*
X020352Y013389D01*
X020352Y013467D02*
X020627Y013467D01*
X020594Y013546D02*
X020352Y013546D01*
X020352Y013624D02*
X020564Y013624D01*
X020564Y013703D02*
X020352Y013703D01*
X020352Y013782D02*
X020564Y013782D01*
X020589Y013860D02*
X020352Y013860D01*
X020352Y013939D02*
X020622Y013939D01*
X020683Y014017D02*
X020352Y014017D01*
X020352Y014253D02*
X025537Y014253D01*
X025459Y014331D02*
X020352Y014331D01*
X019191Y013363D02*
X019191Y013146D01*
X018954Y012910D01*
X018797Y012910D01*
X018698Y012811D01*
X018448Y012839D02*
X017159Y012839D01*
X017081Y012918D02*
X018194Y012918D01*
X018116Y012996D02*
X017002Y012996D01*
X016924Y013075D02*
X018056Y013075D01*
X018056Y013153D02*
X016845Y013153D01*
X016767Y013232D02*
X018056Y013232D01*
X017984Y013310D02*
X016624Y013310D01*
X016546Y013624D02*
X017226Y013624D01*
X017193Y013703D02*
X016472Y013703D01*
X015937Y013310D02*
X015776Y013310D01*
X015698Y013232D02*
X015969Y013232D01*
X016010Y013153D02*
X015439Y013153D01*
X015378Y013075D02*
X016089Y013075D01*
X016167Y012996D02*
X014851Y012996D01*
X014909Y012918D02*
X016600Y012918D01*
X016678Y012839D02*
X014933Y012839D01*
X014899Y012595D02*
X015943Y012595D01*
X016002Y012536D01*
X016002Y011670D01*
X016395Y011276D01*
X016395Y011138D01*
X016295Y010875D02*
X018686Y010875D01*
X018668Y010797D02*
X016295Y010797D01*
X016267Y010718D02*
X017754Y010718D01*
X017754Y010640D02*
X016232Y010640D01*
X016154Y010561D02*
X017754Y010561D01*
X017544Y010090D02*
X018507Y010090D01*
X018507Y010011D02*
X017544Y010011D01*
X017544Y009933D02*
X018507Y009933D01*
X018679Y009760D02*
X018679Y010154D01*
X018610Y010326D02*
X018523Y010326D01*
X018447Y010404D02*
X018666Y010404D01*
X018666Y010483D02*
X018423Y010483D01*
X018423Y010561D02*
X018666Y010561D01*
X018666Y010640D02*
X018423Y010640D01*
X018423Y010718D02*
X018666Y010718D01*
X018679Y009760D02*
X018797Y009642D01*
X019033Y009642D01*
X019328Y009347D01*
X019328Y009170D01*
X019375Y009540D02*
X019397Y009540D01*
X018620Y008993D02*
X019387Y008225D01*
X021966Y008225D01*
X023462Y009721D01*
X023462Y010252D01*
X023561Y010351D01*
X023852Y010391D01*
X023872Y010410D01*
X024171Y010410D01*
X024230Y010469D01*
X024309Y010469D01*
X024486Y010016D02*
X024486Y009957D01*
X024289Y009957D01*
X024230Y009879D01*
X023695Y009091D02*
X023695Y009091D01*
X023502Y009091D01*
X023425Y008755D02*
X023251Y008755D01*
X023172Y008676D02*
X023425Y008676D01*
X023425Y008598D02*
X023094Y008598D01*
X023015Y008519D02*
X023425Y008519D01*
X023431Y008441D02*
X022937Y008441D01*
X022858Y008362D02*
X024323Y008362D01*
X024274Y008441D02*
X024402Y008441D01*
X024431Y008519D02*
X024280Y008519D01*
X024280Y008598D02*
X024431Y008598D01*
X024431Y008676D02*
X024280Y008676D01*
X024280Y008755D02*
X024431Y008755D01*
X024431Y008833D02*
X024280Y008833D01*
X024238Y008912D02*
X024431Y008912D01*
X024431Y008990D02*
X024348Y008990D01*
X024245Y008284D02*
X022780Y008284D01*
X022701Y008205D02*
X024166Y008205D01*
X024088Y008126D02*
X022623Y008126D01*
X022544Y008048D02*
X024009Y008048D01*
X023931Y007969D02*
X022466Y007969D01*
X022387Y007891D02*
X023852Y007891D01*
X023305Y009780D02*
X021907Y008382D01*
X023305Y009780D02*
X023305Y010351D01*
X023403Y010449D01*
X023403Y010981D01*
X023600Y011178D01*
X023403Y011197D01*
X023600Y011178D02*
X023679Y011257D01*
X023852Y011257D01*
X025171Y012525D02*
X025901Y012525D01*
X025901Y012603D02*
X025249Y012603D01*
X025328Y012682D02*
X025901Y012682D01*
X025901Y012761D02*
X025406Y012761D01*
X025485Y012839D02*
X025901Y012839D01*
X025901Y012918D02*
X025563Y012918D01*
X025642Y012996D02*
X025901Y012996D01*
X025901Y013075D02*
X025721Y013075D01*
X025771Y013125D02*
X025771Y013125D01*
X025799Y013153D02*
X025901Y013153D01*
X025901Y013232D02*
X025841Y013232D01*
X025815Y013169D02*
X025815Y013169D01*
X025874Y013310D02*
X025901Y013310D01*
X025918Y013467D02*
X025948Y013467D01*
X025918Y013546D02*
X026002Y013546D01*
X026002Y013624D02*
X025918Y013624D01*
X025918Y013703D02*
X026002Y013703D01*
X026002Y013782D02*
X025918Y013782D01*
X025918Y013860D02*
X026002Y013860D01*
X026002Y013939D02*
X025918Y013939D01*
X025918Y014017D02*
X026002Y014017D01*
X026002Y014096D02*
X025918Y014096D01*
X025918Y014174D02*
X026002Y014174D01*
X026002Y014253D02*
X025918Y014253D01*
X025918Y014331D02*
X026002Y014331D01*
X026002Y014410D02*
X025867Y014410D01*
X025788Y014488D02*
X026002Y014488D01*
X026002Y014567D02*
X025710Y014567D01*
X025662Y014646D02*
X026002Y014646D01*
X026002Y014724D02*
X025662Y014724D01*
X025662Y014803D02*
X026002Y014803D01*
X026002Y014881D02*
X025662Y014881D01*
X025662Y014960D02*
X026002Y014960D01*
X026002Y015038D02*
X025662Y015038D01*
X025662Y015117D02*
X026002Y015117D01*
X026002Y015195D02*
X025662Y015195D01*
X025662Y015274D02*
X026002Y015274D01*
X026002Y015352D02*
X025826Y015352D01*
X025903Y015431D02*
X026002Y015431D01*
X026002Y015510D02*
X025935Y015510D01*
X025939Y015588D02*
X026002Y015588D01*
X024103Y014096D02*
X023356Y014096D01*
X023535Y014017D02*
X023925Y014017D01*
X023846Y013939D02*
X023614Y013939D01*
X023683Y013860D02*
X023777Y013860D01*
X023745Y013782D02*
X023715Y013782D01*
X023720Y013389D02*
X023740Y013389D01*
X023772Y013310D02*
X023687Y013310D01*
X023626Y013232D02*
X023834Y013232D01*
X023912Y013153D02*
X023547Y013153D01*
X023386Y013075D02*
X024074Y013075D01*
X025600Y013196D02*
X025629Y013229D01*
X025656Y013263D01*
X025679Y013300D01*
X025699Y013339D01*
X025716Y013379D01*
X025729Y013421D01*
X025738Y013463D01*
X025744Y013506D01*
X025746Y013550D01*
X022246Y012839D02*
X022017Y012839D01*
X021746Y012839D02*
X021517Y012839D01*
X021246Y012839D02*
X021017Y012839D01*
X018994Y013166D02*
X018895Y013067D01*
X018285Y013067D01*
X018226Y013126D01*
X018226Y013422D01*
X018147Y013500D01*
X018147Y013520D01*
X018544Y013624D02*
X018852Y013624D01*
X018814Y013546D02*
X018582Y013546D01*
X018582Y013467D02*
X018814Y013467D01*
X018814Y013389D02*
X018582Y013389D01*
X018582Y013310D02*
X018814Y013310D01*
X018994Y013363D02*
X018994Y013166D01*
X018994Y013363D02*
X018994Y013481D01*
X018449Y012761D02*
X017238Y012761D01*
X017316Y012682D02*
X018481Y012682D01*
X018553Y012603D02*
X017395Y012603D01*
X017027Y012446D02*
X016172Y012446D01*
X016172Y012368D02*
X017027Y012368D01*
X017027Y012289D02*
X016172Y012289D01*
X016172Y012211D02*
X017027Y012211D01*
X016993Y012525D02*
X016172Y012525D01*
X016172Y012603D02*
X016914Y012603D01*
X016836Y012682D02*
X016096Y012682D01*
X016017Y012761D02*
X016757Y012761D01*
X015870Y013389D02*
X015855Y013389D01*
X015050Y013075D02*
X014775Y013075D01*
X014669Y013075D02*
X013538Y013075D01*
X013459Y013153D02*
X014539Y013153D01*
X014489Y013232D02*
X013381Y013232D01*
X013616Y012996D02*
X014514Y012996D01*
X014456Y012918D02*
X013695Y012918D01*
X013773Y012839D02*
X014433Y012839D01*
X014433Y012761D02*
X013852Y012761D01*
X013931Y012682D02*
X014466Y012682D01*
X014537Y012603D02*
X014009Y012603D01*
X014245Y012368D02*
X015019Y012368D01*
X015019Y012289D02*
X014417Y012289D01*
X014515Y012211D02*
X015019Y012211D01*
X015019Y012132D02*
X014551Y012132D01*
X014559Y012054D02*
X015019Y012054D01*
X014829Y012425D02*
X014729Y012525D01*
X014899Y012595D02*
X014683Y012811D01*
X015509Y012103D02*
X015509Y011847D01*
X015982Y011374D01*
X015755Y011268D02*
X015443Y011268D01*
X015447Y011190D02*
X015686Y011190D01*
X015608Y011111D02*
X015427Y011111D01*
X015469Y011033D02*
X015558Y011033D01*
X015526Y010954D02*
X015501Y010954D01*
X015507Y010875D02*
X015520Y010875D01*
X015520Y010797D02*
X015507Y010797D01*
X015479Y010718D02*
X015547Y010718D01*
X015582Y010640D02*
X015445Y010640D01*
X015366Y010561D02*
X015660Y010561D01*
X015812Y010483D02*
X015215Y010483D01*
X015024Y010483D02*
X014428Y010483D01*
X014476Y010404D02*
X016475Y010404D01*
X016442Y010326D02*
X014555Y010326D01*
X014525Y010115D02*
X013954Y010686D01*
X013954Y011158D01*
X014053Y011256D01*
X014286Y011347D02*
X015055Y011347D01*
X015023Y011425D02*
X014237Y011425D01*
X014109Y011504D02*
X015023Y011504D01*
X015103Y011268D02*
X014303Y011268D01*
X014553Y011190D02*
X014899Y011190D01*
X014820Y011111D02*
X014632Y011111D01*
X014681Y011033D02*
X014771Y011033D01*
X014738Y010954D02*
X014714Y010954D01*
X014720Y010875D02*
X014732Y010875D01*
X014720Y010797D02*
X014732Y010797D01*
X014760Y010718D02*
X014692Y010718D01*
X014657Y010640D02*
X014795Y010640D01*
X014873Y010561D02*
X014579Y010561D01*
X014525Y010115D02*
X015864Y010115D01*
X016553Y009426D01*
X016927Y009426D01*
X016488Y010011D02*
X016207Y010011D01*
X016129Y010090D02*
X016519Y010090D01*
X016463Y010169D02*
X016050Y010169D01*
X015972Y010247D02*
X016441Y010247D01*
X016548Y010483D02*
X016002Y010483D01*
X015273Y010867D02*
X015120Y010863D01*
X015273Y010867D02*
X015214Y011000D01*
X015175Y011060D01*
X015273Y011197D01*
X015273Y011473D01*
X015498Y011582D02*
X015534Y011582D01*
X015523Y011504D02*
X015612Y011504D01*
X015691Y011425D02*
X015523Y011425D01*
X015491Y011347D02*
X015732Y011347D01*
X013784Y011190D02*
X012785Y011190D01*
X012785Y011111D02*
X013784Y011111D01*
X013784Y011033D02*
X012785Y011033D01*
X012785Y010954D02*
X013784Y010954D01*
X013784Y010875D02*
X012785Y010875D01*
X012785Y010797D02*
X013784Y010797D01*
X013784Y010718D02*
X012785Y010718D01*
X012754Y010640D02*
X013784Y010640D01*
X009387Y008008D02*
X009112Y008008D01*
X008069Y009052D01*
X007714Y009052D01*
X007532Y009226D02*
X007275Y009226D01*
X007275Y009148D02*
X007481Y009148D01*
X007462Y009069D02*
X007275Y009069D01*
X007275Y008990D02*
X007467Y008990D01*
X007499Y008912D02*
X007275Y008912D01*
X007275Y008833D02*
X007583Y008833D01*
X007846Y008833D02*
X008044Y008833D01*
X008122Y008755D02*
X007275Y008755D01*
X007275Y008676D02*
X008201Y008676D01*
X008279Y008598D02*
X007275Y008598D01*
X007896Y009226D02*
X007907Y009226D01*
X007828Y009305D02*
X007215Y009305D01*
X005892Y007105D02*
X005705Y007105D01*
X005626Y007027D02*
X005807Y007027D01*
X005774Y006948D02*
X005470Y006948D01*
X005534Y006634D02*
X006057Y006634D01*
X006026Y006556D02*
X005653Y006556D01*
X005731Y006477D02*
X006026Y006477D01*
X006026Y006399D02*
X005771Y006399D01*
X005804Y006320D02*
X006026Y006320D01*
X006026Y006241D02*
X005820Y006241D01*
X005820Y006163D02*
X006046Y006163D01*
X006046Y006084D02*
X005820Y006084D01*
X005789Y006006D02*
X006046Y006006D01*
X006040Y005927D02*
X005757Y005927D01*
X005697Y005849D02*
X006040Y005849D01*
X006040Y005770D02*
X005720Y005770D01*
X005796Y005692D02*
X006040Y005692D01*
X006040Y005613D02*
X005872Y005613D01*
X005948Y005535D02*
X006040Y005535D01*
X006040Y005456D02*
X006024Y005456D01*
X006297Y005646D02*
X006218Y005764D01*
X006218Y006276D01*
X006198Y006296D01*
X006198Y006532D01*
X006317Y006650D01*
X006651Y005646D02*
X006651Y005252D01*
X005411Y005134D02*
X005411Y004465D01*
X005316Y004223D02*
X005061Y003969D01*
X004689Y003968D01*
X004667Y004022D01*
X004594Y004095D01*
X004498Y004134D01*
X004395Y004134D01*
X004299Y004095D01*
X004226Y004022D01*
X004210Y003984D01*
X003920Y004274D01*
X003920Y004779D01*
X003920Y004842D01*
X003990Y004912D01*
X003990Y005213D01*
X005092Y005213D01*
X005092Y005161D01*
X005132Y005066D01*
X005205Y004993D01*
X005231Y004982D01*
X005231Y004653D01*
X005191Y004612D01*
X005151Y004517D01*
X005151Y004413D01*
X005191Y004318D01*
X005264Y004245D01*
X005316Y004223D01*
X005292Y004199D02*
X003995Y004199D01*
X003920Y004278D02*
X005231Y004278D01*
X005175Y004356D02*
X003920Y004356D01*
X003920Y004435D02*
X005151Y004435D01*
X005151Y004513D02*
X003920Y004513D01*
X003920Y004592D02*
X005182Y004592D01*
X005231Y004671D02*
X003920Y004671D01*
X003920Y004749D02*
X005231Y004749D01*
X005231Y004828D02*
X003920Y004828D01*
X003984Y004906D02*
X005231Y004906D01*
X005224Y004985D02*
X003990Y004985D01*
X003990Y005063D02*
X005134Y005063D01*
X005100Y005142D02*
X003990Y005142D01*
X003659Y004977D02*
X003521Y004977D01*
X003600Y004957D02*
X003600Y005095D01*
X003600Y004859D01*
X004073Y004121D02*
X004362Y004121D01*
X004246Y004042D02*
X004152Y004042D01*
X004531Y004121D02*
X005213Y004121D01*
X005135Y004042D02*
X004646Y004042D01*
X004073Y003658D02*
X004073Y003638D01*
X004073Y003639D02*
X004073Y003658D01*
X004154Y003335D02*
X007479Y003335D01*
X007493Y003414D02*
X005355Y003414D01*
X005433Y003492D02*
X007493Y003492D01*
X007493Y003571D02*
X005512Y003571D01*
X005591Y003649D02*
X007493Y003649D01*
X007493Y003728D02*
X005669Y003728D01*
X005748Y003807D02*
X007493Y003807D01*
X007493Y003885D02*
X005826Y003885D01*
X005905Y003964D02*
X007476Y003964D01*
X007398Y004042D02*
X005983Y004042D01*
X005411Y005134D02*
X005352Y005193D01*
X005352Y005213D01*
X004833Y006320D02*
X004804Y006320D01*
X004781Y006399D02*
X004866Y006399D01*
X004905Y006477D02*
X004781Y006477D01*
X004781Y006556D02*
X004984Y006556D01*
X005103Y006634D02*
X004781Y006634D01*
X004328Y007419D02*
X004318Y007429D01*
X007960Y004749D02*
X008020Y004749D01*
X008098Y004671D02*
X007929Y004671D01*
X007960Y004592D02*
X008317Y004592D01*
X008395Y004513D02*
X007960Y004513D01*
X007960Y004435D02*
X008474Y004435D01*
X008553Y004356D02*
X007960Y004356D01*
X008011Y004278D02*
X008631Y004278D01*
X008710Y004199D02*
X008065Y004199D01*
X008093Y004121D02*
X008755Y004121D01*
X008755Y004042D02*
X008093Y004042D01*
X008093Y003964D02*
X008755Y003964D01*
X008755Y003885D02*
X008093Y003885D01*
X008093Y003807D02*
X008755Y003807D01*
X008755Y003728D02*
X008093Y003728D01*
X008093Y003649D02*
X008755Y003649D01*
X008755Y003571D02*
X008093Y003571D01*
X008561Y003100D02*
X008597Y003100D01*
X008935Y002437D02*
X009033Y002339D01*
X009033Y002300D01*
X009718Y001922D02*
X010781Y001922D01*
X010810Y001843D02*
X009800Y001843D01*
X009841Y001764D02*
X010874Y001764D01*
X009862Y001686D02*
X014043Y001686D01*
X014210Y001886D02*
X014210Y002831D01*
X014250Y002871D01*
X014510Y002864D02*
X014624Y002864D01*
X014624Y002786D02*
X014496Y002786D01*
X014525Y002786D02*
X014899Y002786D01*
X014899Y002864D02*
X014525Y002864D01*
X014525Y002943D02*
X014899Y002943D01*
X014899Y003021D02*
X014525Y003021D01*
X014467Y003021D02*
X014624Y003021D01*
X014624Y002943D02*
X014501Y002943D01*
X014525Y003100D02*
X014899Y003100D01*
X014899Y003178D02*
X014525Y003178D01*
X014525Y003257D02*
X014899Y003257D01*
X014899Y003335D02*
X014525Y003335D01*
X014525Y003414D02*
X014899Y003414D01*
X014899Y003441D02*
X014525Y003441D01*
X014525Y001945D01*
X014899Y001945D01*
X014899Y003441D01*
X014781Y003414D02*
X023403Y003414D01*
X023403Y003492D02*
X014781Y003492D01*
X014781Y003571D02*
X023403Y003571D01*
X023403Y003649D02*
X014781Y003649D01*
X014781Y003728D02*
X023403Y003728D01*
X023403Y003807D02*
X014781Y003807D01*
X014781Y003885D02*
X023403Y003885D01*
X023403Y003964D02*
X014781Y003964D01*
X014781Y004042D02*
X023403Y004042D01*
X023403Y004121D02*
X014781Y004121D01*
X014781Y004199D02*
X023403Y004199D01*
X024314Y004906D02*
X025028Y004906D01*
X024866Y004985D02*
X024475Y004985D01*
X024554Y005063D02*
X024788Y005063D01*
X024730Y005142D02*
X024611Y005142D01*
X024644Y005220D02*
X024698Y005220D01*
X024687Y005535D02*
X024654Y005535D01*
X024622Y005613D02*
X024720Y005613D01*
X024762Y005692D02*
X024579Y005692D01*
X024501Y005770D02*
X024841Y005770D01*
X024966Y005849D02*
X024376Y005849D01*
X025314Y004906D02*
X026002Y004906D01*
X026002Y004985D02*
X025475Y004985D01*
X025554Y005063D02*
X026002Y005063D01*
X026002Y005142D02*
X025611Y005142D01*
X025644Y005220D02*
X026002Y005220D01*
X026002Y005299D02*
X025673Y005299D01*
X025673Y005377D02*
X026002Y005377D01*
X026002Y005456D02*
X025673Y005456D01*
X025654Y005535D02*
X026002Y005535D01*
X026002Y005613D02*
X025622Y005613D01*
X025579Y005692D02*
X026002Y005692D01*
X026002Y005770D02*
X025501Y005770D01*
X025376Y005849D02*
X026002Y005849D01*
X023403Y003335D02*
X014781Y003335D01*
X014781Y003257D02*
X023403Y003257D01*
X023403Y003178D02*
X014781Y003178D01*
X014781Y003100D02*
X023403Y003100D01*
X023403Y003021D02*
X014781Y003021D01*
X014781Y002943D02*
X023403Y002943D01*
X023403Y002864D02*
X014781Y002864D01*
X014781Y002786D02*
X023403Y002786D01*
X023403Y002707D02*
X014781Y002707D01*
X014781Y002628D02*
X023403Y002628D01*
X023403Y002550D02*
X014781Y002550D01*
X014781Y002471D02*
X023403Y002471D01*
X023403Y002393D02*
X014781Y002393D01*
X014781Y002314D02*
X023403Y002314D01*
X023403Y002236D02*
X014781Y002236D01*
X014781Y002157D02*
X023403Y002157D01*
X023403Y002079D02*
X014781Y002079D01*
X014781Y002000D02*
X023403Y002000D01*
X023403Y001922D02*
X014781Y001922D01*
X014781Y001843D02*
X023403Y001843D01*
X023403Y001764D02*
X014781Y001764D01*
X014781Y001686D02*
X023403Y001686D01*
X023403Y001607D02*
X014781Y001607D01*
X014781Y001529D02*
X023403Y001529D01*
X023403Y001450D02*
X014781Y001450D01*
X014781Y001372D02*
X023403Y001372D01*
X023403Y001293D02*
X014781Y001293D01*
X014781Y001215D02*
X023403Y001215D01*
X023403Y001136D02*
X014781Y001136D01*
X014781Y001058D02*
X023403Y001058D01*
X023403Y000979D02*
X014781Y000979D01*
X014781Y000900D02*
X023403Y000900D01*
X023397Y000822D02*
X014781Y000822D01*
X014781Y000743D02*
X023364Y000743D01*
X023332Y000665D02*
X014781Y000665D01*
X014781Y000586D02*
X023258Y000586D01*
X023180Y000508D02*
X014781Y000508D01*
X014781Y000429D02*
X022995Y000429D01*
X014899Y002000D02*
X014525Y002000D01*
X014525Y002079D02*
X014899Y002079D01*
X014899Y002157D02*
X014525Y002157D01*
X014525Y002236D02*
X014899Y002236D01*
X014899Y002314D02*
X014525Y002314D01*
X014525Y002393D02*
X014899Y002393D01*
X014899Y002471D02*
X014525Y002471D01*
X014525Y002550D02*
X014899Y002550D01*
X014899Y002628D02*
X014525Y002628D01*
X014525Y002707D02*
X014899Y002707D01*
X014624Y002707D02*
X014454Y002707D01*
X014390Y002628D02*
X014624Y002628D01*
X014624Y002550D02*
X014390Y002550D01*
X014390Y002471D02*
X014624Y002471D01*
X014624Y002393D02*
X014390Y002393D01*
X014390Y002314D02*
X014624Y002314D01*
X014624Y002236D02*
X014390Y002236D01*
X014390Y002157D02*
X014624Y002157D01*
X014624Y002079D02*
X014390Y002079D01*
X014444Y002000D02*
X014624Y002000D01*
X014624Y001922D02*
X014470Y001922D01*
X014470Y001843D02*
X014624Y001843D01*
X014624Y001764D02*
X014441Y001764D01*
X014378Y001686D02*
X014624Y001686D01*
X014624Y001607D02*
X009862Y001607D01*
X009838Y001529D02*
X014624Y001529D01*
X014624Y001450D02*
X009794Y001450D01*
X009702Y001372D02*
X014624Y001372D01*
X014624Y001293D02*
X002458Y001293D01*
X002458Y001215D02*
X014624Y001215D01*
X014624Y001136D02*
X006477Y001136D01*
X006556Y001058D02*
X014624Y001058D01*
X014624Y000979D02*
X006634Y000979D01*
X006713Y000900D02*
X014624Y000900D01*
X014624Y000822D02*
X006791Y000822D01*
X006870Y000743D02*
X014624Y000743D01*
X014624Y000665D02*
X006949Y000665D01*
X007027Y000586D02*
X014624Y000586D01*
X014624Y000508D02*
X007106Y000508D01*
X007184Y000429D02*
X014624Y000429D01*
X014624Y003100D02*
X014376Y003100D01*
X013423Y005430D02*
X013423Y005508D01*
X013344Y005587D01*
X013344Y006099D01*
X010526Y005299D02*
X009797Y005299D01*
X009766Y005377D02*
X010304Y005377D01*
X010450Y004524D02*
X010411Y004465D01*
X008112Y004657D02*
X008112Y004657D01*
X007401Y003257D02*
X004076Y003257D01*
X002892Y002864D02*
X002551Y002864D01*
X002458Y001136D02*
X004660Y001136D01*
X004581Y001058D02*
X002458Y001058D01*
X002458Y000979D02*
X004503Y000979D01*
X004424Y000900D02*
X002458Y000900D01*
X002458Y000822D02*
X004346Y000822D01*
X004267Y000743D02*
X002458Y000743D01*
X002458Y000665D02*
X004188Y000665D01*
X004110Y000586D02*
X002458Y000586D01*
X002458Y000508D02*
X004031Y000508D01*
X003953Y000429D02*
X002458Y000429D01*
X007591Y002550D02*
X007603Y002550D01*
D41*
X021021Y014504D02*
X021376Y014504D01*
X021809Y014071D01*
X021809Y013717D01*
X022124Y013717D01*
X022655Y014288D01*
X022891Y014445D01*
X023128Y014465D01*
X023305Y014485D01*
X023206Y014524D01*
X024624Y014524D01*
X024998Y014150D01*
X025175Y013713D01*
X025230Y013579D01*
X021021Y014504D02*
X021021Y015103D01*
D42*
X019072Y014898D02*
X019072Y015489D01*
X018836Y015725D01*
X018443Y015725D01*
X018069Y015351D01*
X018226Y015311D02*
X018502Y015587D01*
X018757Y015587D01*
X018935Y015410D01*
X018935Y014839D01*
X018718Y015075D02*
X018620Y015193D01*
X018620Y015371D01*
D43*
X015569Y008943D02*
X015569Y008628D01*
X015598Y008599D01*
X015598Y007743D01*
X015116Y007260D01*
X015116Y007162D01*
X014597Y006642D01*
X014555Y006600D01*
X014555Y006446D01*
X014289Y006180D01*
X014289Y005735D01*
X014230Y005666D01*
X015037Y005764D02*
X015047Y005764D01*
X015057Y005774D01*
D44*
X015765Y005331D02*
X014289Y005331D01*
X014112Y005154D01*
X013521Y005154D01*
X013620Y005233D01*
X013679Y005292D01*
X013698Y005430D01*
X013698Y005863D01*
X013580Y005981D01*
X013521Y005154D02*
X013443Y005154D01*
X012813Y004524D01*
X011513Y005686D02*
X011513Y005745D01*
X012635Y006867D01*
X012635Y007969D01*
X012872Y008205D01*
X012872Y008737D01*
X013206Y009071D01*
X013344Y009347D01*
X013324Y009583D01*
X012293Y008776D02*
X012261Y008776D01*
X010214Y008402D02*
X010194Y008028D01*
X009506Y007398D01*
X009742Y007162D01*
X009742Y006788D01*
X010450Y005587D02*
X010450Y005567D01*
X010706Y005449D01*
X011297Y005449D01*
X011513Y005686D01*
X015765Y005331D02*
X019313Y005331D01*
X019746Y005764D01*
X021553Y006867D02*
X021592Y006886D01*
X021572Y006886D01*
X021612Y006945D01*
X023206Y006945D01*
X024643Y008382D01*
X024643Y009878D01*
X024230Y009879D01*
X023931Y009957D01*
X021553Y006906D02*
X021553Y006867D01*
X016402Y006190D02*
X016336Y006099D01*
X016336Y006079D01*
X016336Y006099D02*
X016395Y006079D01*
X016395Y006237D01*
X016402Y006190D01*
X003738Y005508D02*
X003659Y005430D01*
X003600Y005449D01*
D45*
X003600Y005095D02*
X003521Y004977D01*
D46*
X003600Y004859D02*
X003620Y004839D01*
X003620Y004150D01*
X004103Y003667D01*
X004427Y003667D01*
X005186Y003669D01*
X005923Y004406D01*
X006238Y004406D01*
X006273Y004410D01*
X007380Y004410D01*
X007454Y004410D01*
X007793Y004071D01*
X007793Y003225D01*
X007399Y002831D01*
X007183Y002831D01*
X005186Y003669D02*
X005166Y003649D01*
X004073Y003658D02*
X004033Y003638D01*
X003698Y003304D01*
X003580Y002851D01*
X003462Y002969D01*
X003580Y002851D02*
X003305Y002851D01*
X003088Y002634D01*
X003698Y003304D01*
X003580Y002851D02*
X003423Y002615D01*
X003108Y002615D01*
X003738Y005508D02*
X003738Y005600D01*
X004318Y006180D01*
X004326Y006180D01*
X004407Y006178D01*
X005010Y005567D01*
X005509Y005567D01*
X006147Y004910D01*
X007380Y004910D01*
D47*
X007183Y002870D02*
X007183Y002831D01*
X006572Y002831D01*
D48*
X004446Y003687D02*
X004427Y003667D01*
X004446Y003687D02*
X004446Y003874D01*
X004103Y003667D02*
X004102Y003667D01*
X004073Y003658D01*
D49*
X004318Y006180D02*
X004318Y007429D01*
X004309Y007438D01*
X004309Y008658D01*
X004318Y008668D01*
X004318Y008677D01*
X004328Y008766D01*
X004328Y009898D01*
X004340Y009926D01*
X004318Y009926D01*
X004318Y014920D01*
X004318Y013671D01*
X004318Y012423D01*
X004318Y011174D01*
D50*
X018935Y014819D02*
X018974Y014780D01*
X018994Y014583D01*
X019191Y014583D02*
X019191Y014741D01*
X019072Y014878D01*
X019072Y014898D01*
X018935Y014839D02*
X018935Y014819D01*
M02*
