G75*
G70*
%OFA0B0*%
%FSLAX24Y24*%
%IPPOS*%
%LPD*%
%AMOC8*
5,1,8,0,0,1.08239X$1,22.5*
%
%ADD10R,0.0640X0.0340*%
%ADD11R,0.0340X0.0640*%
%ADD12R,0.1640X0.0640*%
%ADD13R,0.0591X0.0749*%
%ADD14R,0.0788X0.0591*%
%ADD15R,0.0631X0.0355*%
%ADD16R,0.0355X0.0355*%
%ADD17R,0.0473X0.0434*%
%ADD18R,0.0290X0.0540*%
%ADD19C,0.0780*%
%ADD20R,0.0540X0.0290*%
%ADD21R,0.0867X0.0827*%
%ADD22R,0.0827X0.0867*%
%ADD23C,0.0709*%
%ADD24C,0.0555*%
%ADD25C,0.1221*%
%ADD26C,0.0690*%
%ADD27C,0.0827*%
%ADD28C,0.0476*%
%ADD29R,0.0920X0.0340*%
%ADD30R,0.0906X0.1457*%
%ADD31R,0.0760X0.0764*%
%ADD32C,0.0430*%
%ADD33R,0.0977X0.0690*%
%ADD34C,0.0035*%
%ADD35R,0.0276X0.0394*%
%ADD36R,0.1851X0.0434*%
%ADD37R,0.1379X0.0670*%
%ADD38R,0.0316X0.0631*%
%ADD39R,0.0434X0.0355*%
%ADD40C,0.0394*%
%ADD41R,0.0434X0.0473*%
D10*
X017112Y009928D03*
X017112Y011428D03*
X019112Y011428D03*
X019112Y009928D03*
D11*
X016350Y008272D03*
X014850Y008272D03*
X014850Y006272D03*
X016350Y006272D03*
D12*
X022650Y003501D03*
X022650Y001501D03*
D13*
X019797Y009127D03*
X019797Y011371D03*
D14*
X024974Y012001D03*
X025368Y006824D03*
D15*
X023852Y008658D03*
X023695Y009091D03*
X023852Y009524D03*
X023931Y009957D03*
X023852Y010391D03*
X023931Y010824D03*
X023852Y011257D03*
X023852Y011690D03*
D16*
X010450Y005115D03*
X010450Y004524D03*
D17*
X010234Y004091D03*
X009565Y004091D03*
X010214Y008402D03*
X010883Y008402D03*
D18*
X013935Y008520D03*
X014289Y008520D03*
X006651Y005646D03*
X006297Y005646D03*
D19*
X005318Y006180D03*
X004318Y006180D03*
X003318Y006180D03*
X003318Y007429D03*
X004318Y007429D03*
X005318Y007429D03*
X005318Y008677D03*
X004318Y008677D03*
X003318Y008677D03*
X003318Y009926D03*
X004318Y009926D03*
X005318Y009926D03*
X005318Y011174D03*
X004318Y011174D03*
X003318Y011174D03*
X003318Y012423D03*
X004318Y012423D03*
X005318Y012423D03*
X005318Y013671D03*
X004318Y013671D03*
X003318Y013671D03*
X003318Y014920D03*
X004318Y014920D03*
X005318Y014920D03*
X021171Y005390D03*
X022171Y005390D03*
X023171Y005390D03*
X024171Y005390D03*
X025171Y005390D03*
D20*
X003600Y005449D03*
X003600Y005095D03*
D21*
X007635Y007398D03*
X009506Y007398D03*
X011376Y007398D03*
D22*
X012261Y008776D03*
X012261Y009957D03*
X012261Y011138D03*
X012261Y012319D03*
X012431Y013510D03*
X006750Y012319D03*
X006750Y011138D03*
X006750Y009957D03*
X006750Y008776D03*
X006571Y013500D03*
D23*
X010324Y012630D03*
X011324Y012630D03*
X011324Y011630D03*
X010324Y011630D03*
X010324Y010630D03*
X011324Y010630D03*
D24*
X013545Y010863D03*
X014332Y010863D03*
X015120Y010863D03*
X015907Y010863D03*
X017383Y005764D03*
X018171Y005764D03*
X018958Y005764D03*
X019746Y005764D03*
D25*
X001435Y001591D03*
X001435Y014682D03*
X027025Y014701D03*
X027025Y006079D03*
D26*
X021021Y013709D03*
X021021Y015103D03*
D27*
X023230Y013579D03*
X024230Y013579D03*
X025230Y013579D03*
X013521Y007544D03*
X013521Y003544D03*
D28*
X020381Y012516D03*
X020881Y012516D03*
X021381Y012516D03*
X021881Y012516D03*
X022381Y012516D03*
D29*
X007380Y006410D03*
X007380Y005910D03*
X007380Y005410D03*
X007380Y004910D03*
X007380Y004410D03*
D30*
X009820Y005449D03*
D31*
X015509Y012103D03*
X017517Y012103D03*
X017517Y015489D03*
X015509Y015489D03*
D32*
X015509Y013796D03*
X017517Y013796D03*
D33*
X018797Y013973D03*
D34*
X018849Y014403D02*
X018745Y014403D01*
X018745Y014763D01*
X018849Y014763D01*
X018849Y014403D01*
X018849Y014437D02*
X018745Y014437D01*
X018745Y014471D02*
X018849Y014471D01*
X018849Y014505D02*
X018745Y014505D01*
X018745Y014539D02*
X018849Y014539D01*
X018849Y014573D02*
X018745Y014573D01*
X018745Y014607D02*
X018849Y014607D01*
X018849Y014641D02*
X018745Y014641D01*
X018745Y014675D02*
X018849Y014675D01*
X018849Y014709D02*
X018745Y014709D01*
X018745Y014743D02*
X018849Y014743D01*
X018942Y014403D02*
X019046Y014403D01*
X018942Y014403D02*
X018942Y014763D01*
X019046Y014763D01*
X019046Y014403D01*
X019046Y014437D02*
X018942Y014437D01*
X018942Y014471D02*
X019046Y014471D01*
X019046Y014505D02*
X018942Y014505D01*
X018942Y014539D02*
X019046Y014539D01*
X019046Y014573D02*
X018942Y014573D01*
X018942Y014607D02*
X019046Y014607D01*
X019046Y014641D02*
X018942Y014641D01*
X018942Y014675D02*
X019046Y014675D01*
X019046Y014709D02*
X018942Y014709D01*
X018942Y014743D02*
X019046Y014743D01*
X019139Y014403D02*
X019243Y014403D01*
X019139Y014403D02*
X019139Y014763D01*
X019243Y014763D01*
X019243Y014403D01*
X019243Y014437D02*
X019139Y014437D01*
X019139Y014471D02*
X019243Y014471D01*
X019243Y014505D02*
X019139Y014505D01*
X019139Y014539D02*
X019243Y014539D01*
X019243Y014573D02*
X019139Y014573D01*
X019139Y014607D02*
X019243Y014607D01*
X019243Y014641D02*
X019139Y014641D01*
X019139Y014675D02*
X019243Y014675D01*
X019243Y014709D02*
X019139Y014709D01*
X019139Y014743D02*
X019243Y014743D01*
X018652Y014403D02*
X018548Y014403D01*
X018548Y014763D01*
X018652Y014763D01*
X018652Y014403D01*
X018652Y014437D02*
X018548Y014437D01*
X018548Y014471D02*
X018652Y014471D01*
X018652Y014505D02*
X018548Y014505D01*
X018548Y014539D02*
X018652Y014539D01*
X018652Y014573D02*
X018548Y014573D01*
X018548Y014607D02*
X018652Y014607D01*
X018652Y014641D02*
X018548Y014641D01*
X018548Y014675D02*
X018652Y014675D01*
X018652Y014709D02*
X018548Y014709D01*
X018548Y014743D02*
X018652Y014743D01*
X018455Y014403D02*
X018351Y014403D01*
X018351Y014763D01*
X018455Y014763D01*
X018455Y014403D01*
X018455Y014437D02*
X018351Y014437D01*
X018351Y014471D02*
X018455Y014471D01*
X018455Y014505D02*
X018351Y014505D01*
X018351Y014539D02*
X018455Y014539D01*
X018455Y014573D02*
X018351Y014573D01*
X018351Y014607D02*
X018455Y014607D01*
X018455Y014641D02*
X018351Y014641D01*
X018351Y014675D02*
X018455Y014675D01*
X018455Y014709D02*
X018351Y014709D01*
X018351Y014743D02*
X018455Y014743D01*
X018455Y013183D02*
X018351Y013183D01*
X018351Y013543D01*
X018455Y013543D01*
X018455Y013183D01*
X018455Y013217D02*
X018351Y013217D01*
X018351Y013251D02*
X018455Y013251D01*
X018455Y013285D02*
X018351Y013285D01*
X018351Y013319D02*
X018455Y013319D01*
X018455Y013353D02*
X018351Y013353D01*
X018351Y013387D02*
X018455Y013387D01*
X018455Y013421D02*
X018351Y013421D01*
X018351Y013455D02*
X018455Y013455D01*
X018455Y013489D02*
X018351Y013489D01*
X018351Y013523D02*
X018455Y013523D01*
X018548Y013183D02*
X018652Y013183D01*
X018548Y013183D02*
X018548Y013543D01*
X018652Y013543D01*
X018652Y013183D01*
X018652Y013217D02*
X018548Y013217D01*
X018548Y013251D02*
X018652Y013251D01*
X018652Y013285D02*
X018548Y013285D01*
X018548Y013319D02*
X018652Y013319D01*
X018652Y013353D02*
X018548Y013353D01*
X018548Y013387D02*
X018652Y013387D01*
X018652Y013421D02*
X018548Y013421D01*
X018548Y013455D02*
X018652Y013455D01*
X018652Y013489D02*
X018548Y013489D01*
X018548Y013523D02*
X018652Y013523D01*
X018745Y013183D02*
X018849Y013183D01*
X018745Y013183D02*
X018745Y013543D01*
X018849Y013543D01*
X018849Y013183D01*
X018849Y013217D02*
X018745Y013217D01*
X018745Y013251D02*
X018849Y013251D01*
X018849Y013285D02*
X018745Y013285D01*
X018745Y013319D02*
X018849Y013319D01*
X018849Y013353D02*
X018745Y013353D01*
X018745Y013387D02*
X018849Y013387D01*
X018849Y013421D02*
X018745Y013421D01*
X018745Y013455D02*
X018849Y013455D01*
X018849Y013489D02*
X018745Y013489D01*
X018745Y013523D02*
X018849Y013523D01*
X018942Y013183D02*
X019046Y013183D01*
X018942Y013183D02*
X018942Y013543D01*
X019046Y013543D01*
X019046Y013183D01*
X019046Y013217D02*
X018942Y013217D01*
X018942Y013251D02*
X019046Y013251D01*
X019046Y013285D02*
X018942Y013285D01*
X018942Y013319D02*
X019046Y013319D01*
X019046Y013353D02*
X018942Y013353D01*
X018942Y013387D02*
X019046Y013387D01*
X019046Y013421D02*
X018942Y013421D01*
X018942Y013455D02*
X019046Y013455D01*
X019046Y013489D02*
X018942Y013489D01*
X018942Y013523D02*
X019046Y013523D01*
X019139Y013183D02*
X019243Y013183D01*
X019139Y013183D02*
X019139Y013543D01*
X019243Y013543D01*
X019243Y013183D01*
X019243Y013217D02*
X019139Y013217D01*
X019139Y013251D02*
X019243Y013251D01*
X019243Y013285D02*
X019139Y013285D01*
X019139Y013319D02*
X019243Y013319D01*
X019243Y013353D02*
X019139Y013353D01*
X019139Y013387D02*
X019243Y013387D01*
X019243Y013421D02*
X019139Y013421D01*
X019139Y013455D02*
X019243Y013455D01*
X019243Y013489D02*
X019139Y013489D01*
X019139Y013523D02*
X019243Y013523D01*
D35*
X019309Y015075D03*
X018718Y015075D03*
D36*
X006572Y003619D03*
X006572Y002831D03*
D37*
X004525Y001886D03*
X004525Y004563D03*
D38*
X008069Y002339D03*
X008659Y002339D03*
X009840Y002339D03*
D39*
X010391Y002083D03*
X010391Y001217D03*
X007517Y001217D03*
X007517Y002083D03*
D40*
X008364Y001650D03*
X009545Y001650D03*
D41*
X009269Y002752D03*
X009269Y003422D03*
M02*
