G75*
G70*
%OFA0B0*%
%FSLAX24Y24*%
%IPPOS*%
%LPD*%
%AMOC8*
5,1,8,0,0,1.08239X$1,22.5*
%
%ADD10C,0.0010*%
D10*
X001454Y000272D02*
X003994Y000272D01*
X004781Y001060D01*
X006356Y001060D01*
X007143Y000272D01*
X022872Y000272D01*
X022923Y000274D01*
X022975Y000280D01*
X023025Y000289D01*
X023075Y000303D01*
X023124Y000320D01*
X023171Y000340D01*
X023217Y000364D01*
X023260Y000392D01*
X023302Y000422D01*
X023341Y000456D01*
X023377Y000492D01*
X023411Y000531D01*
X023441Y000573D01*
X023469Y000617D01*
X023493Y000662D01*
X023513Y000709D01*
X023530Y000758D01*
X023544Y000808D01*
X023553Y000858D01*
X023559Y000910D01*
X023561Y000961D01*
X023561Y003874D01*
X025135Y003874D01*
X025135Y004071D01*
X026041Y004071D01*
X026041Y004741D01*
X027045Y004741D01*
X027045Y004740D01*
X027117Y004743D01*
X027188Y004750D01*
X027259Y004761D01*
X027330Y004775D01*
X027399Y004794D01*
X027468Y004816D01*
X027535Y004842D01*
X027601Y004871D01*
X027665Y004904D01*
X027727Y004941D01*
X027787Y004980D01*
X027845Y005023D01*
X027900Y005069D01*
X027953Y005118D01*
X028003Y005169D01*
X028051Y005224D01*
X028095Y005280D01*
X028136Y005340D01*
X028174Y005401D01*
X028208Y005464D01*
X028239Y005529D01*
X028267Y005595D01*
X028291Y005663D01*
X028311Y005732D01*
X028327Y005803D01*
X028340Y005873D01*
X028348Y005945D01*
X028353Y006017D01*
X028354Y006089D01*
X028351Y006161D01*
X028344Y006232D01*
X028333Y006303D01*
X028319Y006374D01*
X028300Y006443D01*
X028278Y006512D01*
X028252Y006579D01*
X028223Y006645D01*
X028190Y006709D01*
X028153Y006771D01*
X028114Y006831D01*
X028071Y006889D01*
X028025Y006944D01*
X027976Y006997D01*
X027925Y007047D01*
X027870Y007095D01*
X027814Y007139D01*
X027754Y007180D01*
X027693Y007218D01*
X027630Y007252D01*
X027565Y007283D01*
X027499Y007311D01*
X027431Y007335D01*
X027362Y007355D01*
X027291Y007371D01*
X027221Y007384D01*
X027149Y007392D01*
X027077Y007397D01*
X027005Y007398D01*
X027006Y007398D01*
X026041Y007398D01*
X026041Y013363D01*
X027045Y013363D01*
X027045Y013362D01*
X027117Y013365D01*
X027188Y013372D01*
X027259Y013383D01*
X027330Y013397D01*
X027399Y013416D01*
X027468Y013438D01*
X027535Y013464D01*
X027601Y013493D01*
X027665Y013526D01*
X027727Y013563D01*
X027787Y013602D01*
X027845Y013645D01*
X027900Y013691D01*
X027953Y013740D01*
X028003Y013791D01*
X028051Y013846D01*
X028095Y013902D01*
X028136Y013962D01*
X028174Y014023D01*
X028208Y014086D01*
X028239Y014151D01*
X028267Y014217D01*
X028291Y014285D01*
X028311Y014354D01*
X028327Y014425D01*
X028340Y014495D01*
X028348Y014567D01*
X028353Y014639D01*
X028354Y014711D01*
X028351Y014783D01*
X028344Y014854D01*
X028333Y014925D01*
X028319Y014996D01*
X028300Y015065D01*
X028278Y015134D01*
X028252Y015201D01*
X028223Y015267D01*
X028190Y015331D01*
X028153Y015393D01*
X028114Y015453D01*
X028071Y015511D01*
X028025Y015566D01*
X027976Y015619D01*
X027925Y015669D01*
X027870Y015717D01*
X027814Y015761D01*
X027754Y015802D01*
X027693Y015840D01*
X027630Y015874D01*
X027565Y015905D01*
X027499Y015933D01*
X027431Y015957D01*
X027362Y015977D01*
X027291Y015993D01*
X027221Y016006D01*
X027149Y016014D01*
X027077Y016019D01*
X027005Y016020D01*
X027006Y016020D01*
X011624Y016020D01*
X011624Y015935D01*
X011624Y015934D01*
X011624Y013815D01*
X010335Y013815D01*
X010333Y013764D01*
X010328Y013708D01*
X010318Y013652D01*
X010305Y013597D01*
X010288Y013543D01*
X010267Y013491D01*
X010243Y013440D01*
X010216Y013391D01*
X010185Y013343D01*
X010151Y013298D01*
X010114Y013256D01*
X010074Y013216D01*
X010032Y013179D01*
X009987Y013144D01*
X009940Y013113D01*
X009891Y013086D01*
X009840Y013061D01*
X009788Y013040D01*
X009734Y013023D01*
X009679Y013010D01*
X009624Y013000D01*
X009568Y012994D01*
X009511Y012992D01*
X009455Y012994D01*
X009399Y012999D01*
X009343Y013009D01*
X009288Y013022D01*
X009234Y013039D01*
X009182Y013060D01*
X009131Y013084D01*
X009082Y013111D01*
X009034Y013142D01*
X008989Y013176D01*
X008947Y013213D01*
X008907Y013253D01*
X008870Y013295D01*
X008835Y013340D01*
X008804Y013387D01*
X008777Y013436D01*
X008752Y013487D01*
X008731Y013539D01*
X008714Y013593D01*
X008701Y013648D01*
X008691Y013703D01*
X008685Y013759D01*
X008683Y013815D01*
X007387Y013815D01*
X007372Y013815D01*
X007373Y015961D01*
X007373Y015960D01*
X007373Y016020D01*
X007360Y016020D01*
X001415Y016020D01*
X001343Y016017D01*
X001272Y016010D01*
X001201Y015999D01*
X001130Y015985D01*
X001061Y015966D01*
X000992Y015944D01*
X000925Y015918D01*
X000859Y015889D01*
X000795Y015856D01*
X000733Y015819D01*
X000673Y015780D01*
X000615Y015737D01*
X000560Y015691D01*
X000507Y015642D01*
X000457Y015591D01*
X000409Y015536D01*
X000365Y015480D01*
X000324Y015420D01*
X000286Y015359D01*
X000252Y015296D01*
X000221Y015231D01*
X000193Y015165D01*
X000169Y015097D01*
X000149Y015028D01*
X000133Y014957D01*
X000120Y014887D01*
X000112Y014815D01*
X000107Y014743D01*
X000106Y014671D01*
X000109Y014599D01*
X000116Y014528D01*
X000127Y014457D01*
X000141Y014386D01*
X000160Y014317D01*
X000182Y014248D01*
X000208Y014181D01*
X000237Y014115D01*
X000270Y014051D01*
X000307Y013989D01*
X000346Y013929D01*
X000389Y013871D01*
X000435Y013816D01*
X000484Y013763D01*
X000535Y013713D01*
X000590Y013665D01*
X000646Y013621D01*
X000706Y013580D01*
X000767Y013542D01*
X000830Y013508D01*
X000895Y013477D01*
X000961Y013449D01*
X001029Y013425D01*
X001098Y013405D01*
X001169Y013389D01*
X001239Y013376D01*
X001311Y013368D01*
X001383Y013363D01*
X001455Y013362D01*
X001454Y013363D01*
X002419Y013363D01*
X002419Y002930D01*
X001415Y002930D01*
X001343Y002927D01*
X001272Y002920D01*
X001201Y002909D01*
X001130Y002895D01*
X001061Y002876D01*
X000992Y002854D01*
X000925Y002828D01*
X000859Y002799D01*
X000795Y002766D01*
X000733Y002729D01*
X000673Y002690D01*
X000615Y002647D01*
X000560Y002601D01*
X000507Y002552D01*
X000457Y002501D01*
X000409Y002446D01*
X000365Y002390D01*
X000324Y002330D01*
X000286Y002269D01*
X000252Y002206D01*
X000221Y002141D01*
X000193Y002075D01*
X000169Y002007D01*
X000149Y001938D01*
X000133Y001867D01*
X000120Y001797D01*
X000112Y001725D01*
X000107Y001653D01*
X000106Y001581D01*
X000109Y001509D01*
X000116Y001438D01*
X000127Y001367D01*
X000141Y001296D01*
X000160Y001227D01*
X000182Y001158D01*
X000208Y001091D01*
X000237Y001025D01*
X000270Y000961D01*
X000307Y000899D01*
X000346Y000839D01*
X000389Y000781D01*
X000435Y000726D01*
X000484Y000673D01*
X000535Y000623D01*
X000590Y000575D01*
X000646Y000531D01*
X000706Y000490D01*
X000767Y000452D01*
X000830Y000418D01*
X000895Y000387D01*
X000961Y000359D01*
X001029Y000335D01*
X001098Y000315D01*
X001169Y000299D01*
X001239Y000286D01*
X001311Y000278D01*
X001383Y000273D01*
X001455Y000272D01*
M02*
