G75*
G70*
%OFA0B0*%
%FSLAX24Y24*%
%IPPOS*%
%LPD*%
%AMOC8*
5,1,8,0,0,1.08239X$1,22.5*
%
%ADD10C,0.0295*%
%ADD11R,0.0434X0.0473*%
%ADD12R,0.0473X0.0434*%
%ADD13R,0.0434X0.0434*%
%ADD14R,0.0158X0.0296*%
%ADD15R,0.0296X0.0158*%
%ADD16R,0.0276X0.0394*%
%ADD17R,0.0276X0.0237*%
%ADD18R,0.0237X0.0276*%
%ADD19R,0.1640X0.0640*%
%ADD20R,0.0434X0.1221*%
%ADD21R,0.1221X0.0434*%
%ADD22R,0.0241X0.0355*%
%ADD23R,0.0985X0.0985*%
%ADD24R,0.0434X0.0119*%
%ADD25R,0.0119X0.0434*%
%ADD26R,0.0512X0.0257*%
%ADD27R,0.0257X0.0512*%
%ADD28R,0.0512X0.1024*%
%ADD29R,0.0611X0.0355*%
%ADD30R,0.0367X0.0288*%
%ADD31R,0.0197X0.0670*%
%ADD32C,0.0780*%
%ADD33R,0.0288X0.0367*%
%ADD34R,0.0910X0.0280*%
%ADD35R,0.0158X0.0276*%
%ADD36R,0.0591X0.0512*%
%ADD37R,0.0749X0.0670*%
%ADD38R,0.0512X0.0591*%
%ADD39C,0.0709*%
%ADD40C,0.0555*%
%ADD41C,0.1221*%
%ADD42R,0.0355X0.0394*%
%ADD43R,0.0697X0.0355*%
%ADD44R,0.0355X0.1024*%
%ADD45R,0.0355X0.0697*%
%ADD46R,0.0355X0.0158*%
%ADD47R,0.0158X0.0355*%
%ADD48R,0.0316X0.0178*%
%ADD49R,0.0178X0.0316*%
%ADD50R,0.1694X0.1812*%
%ADD51R,0.0552X0.0316*%
%ADD52C,0.0690*%
%ADD53C,0.0827*%
%ADD54C,0.0476*%
%ADD55C,0.0430*%
%ADD56C,0.0394*%
%ADD57R,0.0316X0.0552*%
%ADD58R,0.0276X0.0158*%
D10*
X015076Y000715D02*
X015076Y001827D01*
X015076Y000715D02*
X021671Y000715D01*
X021671Y001237D01*
X021671Y003756D02*
X021671Y004376D01*
X015076Y004376D01*
X015076Y003658D01*
D11*
X015824Y002221D03*
X015824Y001552D03*
X013797Y001788D03*
X013797Y001119D03*
X013033Y005075D03*
X013033Y005745D03*
X011848Y007595D03*
X011848Y008264D03*
X010293Y008186D03*
X010293Y008855D03*
X008187Y010331D03*
X008187Y011000D03*
X008423Y011650D03*
X008423Y012319D03*
X006159Y014800D03*
X006159Y015469D03*
X006277Y008166D03*
X006277Y007497D03*
X006769Y006355D03*
X006769Y005686D03*
X004958Y004760D03*
X004958Y004091D03*
X008659Y004308D03*
X008659Y004977D03*
X009466Y004977D03*
X009466Y004308D03*
X014742Y011567D03*
X014742Y012237D03*
X015667Y012073D03*
X015687Y012585D03*
X015687Y013254D03*
X017360Y014603D03*
X017360Y015272D03*
X019860Y013146D03*
X019860Y012477D03*
X020864Y010843D03*
X020864Y010174D03*
X019722Y009997D03*
X019722Y010666D03*
X023352Y008260D03*
X023352Y007591D03*
X020391Y005804D03*
X020391Y005134D03*
X025470Y010764D03*
X025470Y011434D03*
X015667Y011404D03*
D12*
X016809Y011040D03*
X017478Y011040D03*
X017990Y011355D03*
X018659Y011355D03*
X019191Y011355D03*
X019860Y011355D03*
X020391Y011808D03*
X021061Y011808D03*
X021612Y011729D03*
X022281Y011729D03*
X022734Y010804D03*
X022222Y010784D03*
X021553Y010784D03*
X023403Y010804D03*
X024141Y010902D03*
X024811Y010902D03*
X024919Y008028D03*
X024250Y008028D03*
X024427Y007004D03*
X025096Y007004D03*
X022694Y007260D03*
X022025Y007260D03*
X021395Y007378D03*
X020726Y007378D03*
X020883Y006473D03*
X020214Y006473D03*
X022025Y008067D03*
X022694Y008067D03*
X019191Y012182D03*
X018521Y012182D03*
X018502Y013126D03*
X019171Y013126D03*
X016710Y013914D03*
X016041Y013914D03*
X016002Y014721D03*
X016671Y014721D03*
X016671Y015528D03*
X016002Y015528D03*
X015293Y014288D03*
X014624Y014288D03*
X012616Y014701D03*
X011946Y014701D03*
X012006Y015508D03*
X012675Y015508D03*
X012852Y011689D03*
X013407Y011650D03*
X014076Y011650D03*
X012891Y010804D03*
X012222Y010804D03*
X012183Y011689D03*
X012813Y009997D03*
X013482Y009997D03*
X014269Y009504D03*
X014939Y009504D03*
X015628Y010233D03*
X015057Y010311D03*
X014387Y010311D03*
X016297Y010233D03*
X015214Y007615D03*
X014545Y007615D03*
X016139Y005666D03*
X016809Y005666D03*
X015254Y005351D03*
X014584Y005351D03*
X013856Y004406D03*
X013187Y004406D03*
X012242Y003441D03*
X011572Y003441D03*
X010844Y001591D03*
X010175Y001591D03*
X010175Y000784D03*
X010844Y000784D03*
X013738Y002457D03*
X014407Y002457D03*
X015431Y003914D03*
X016100Y003914D03*
X012301Y005902D03*
X011631Y005902D03*
X010687Y006237D03*
X010017Y006237D03*
X009368Y003638D03*
X008698Y003638D03*
X006533Y003500D03*
X005864Y003500D03*
X004131Y005548D03*
X003462Y005548D03*
X007576Y009426D03*
X008246Y009426D03*
X006887Y010311D03*
X006218Y010311D03*
X006218Y011296D03*
X006887Y011296D03*
X006887Y012378D03*
X006218Y012378D03*
X006080Y013205D03*
X006750Y013205D03*
X004151Y015548D03*
X003482Y015548D03*
X021789Y015607D03*
X022458Y015607D03*
D13*
X017143Y003126D03*
D14*
X017143Y002378D03*
X016946Y002378D03*
X016750Y002378D03*
X017340Y002378D03*
X017537Y002378D03*
X017537Y003874D03*
X017340Y003874D03*
X017143Y003874D03*
X016946Y003874D03*
X016750Y003874D03*
D15*
X016395Y003520D03*
X016395Y003323D03*
X016395Y003126D03*
X016395Y002930D03*
X016395Y002733D03*
X017891Y002733D03*
X017891Y002930D03*
X017891Y003126D03*
X017891Y003323D03*
X017891Y003520D03*
D16*
X018226Y002575D03*
X018817Y002575D03*
X019446Y002182D03*
X020037Y002182D03*
X018817Y001965D03*
X018226Y001965D03*
X015805Y003205D03*
X015214Y003205D03*
D17*
X018344Y003205D03*
X018344Y003599D03*
X018757Y003599D03*
X018757Y003205D03*
X019368Y001689D03*
X019368Y001296D03*
X019781Y001296D03*
X019781Y001689D03*
X020962Y001886D03*
X020962Y002280D03*
X021572Y002083D03*
X021572Y002477D03*
X021179Y003579D03*
X021179Y003973D03*
X020962Y001473D03*
X020962Y001079D03*
D18*
X020569Y001335D03*
X020175Y001335D03*
X018974Y001434D03*
X018580Y001434D03*
X019624Y002772D03*
X020017Y002772D03*
X020608Y002693D03*
X021002Y002693D03*
X021159Y003186D03*
X021553Y003186D03*
X019545Y003186D03*
X019151Y003186D03*
X019151Y003599D03*
X019545Y003599D03*
D19*
X022650Y003501D03*
X022650Y002501D03*
X022650Y001501D03*
D20*
X003994Y001827D03*
X003206Y001827D03*
D21*
X006139Y001689D03*
X006139Y002477D03*
D22*
X005196Y002536D03*
X004822Y002536D03*
X004448Y002536D03*
X004448Y003560D03*
X004822Y003560D03*
X005196Y003560D03*
D23*
X007596Y003146D03*
X007596Y001414D03*
X023443Y012497D03*
X025175Y012497D03*
D24*
X019975Y009405D03*
X019975Y009208D03*
X019975Y009011D03*
X019975Y008814D03*
X019975Y008617D03*
X019975Y008420D03*
X019975Y008224D03*
X019975Y008027D03*
X019975Y007830D03*
X019975Y007633D03*
X019975Y007436D03*
X019975Y007239D03*
X016432Y007239D03*
X016432Y007436D03*
X016432Y007633D03*
X016432Y007830D03*
X016432Y008027D03*
X016432Y008224D03*
X016432Y008420D03*
X016432Y008617D03*
X016432Y008814D03*
X016432Y009011D03*
X016432Y009208D03*
X016432Y009405D03*
D25*
X017121Y010094D03*
X017318Y010094D03*
X017515Y010094D03*
X017712Y010094D03*
X017909Y010094D03*
X018105Y010094D03*
X018302Y010094D03*
X018499Y010094D03*
X018696Y010094D03*
X018893Y010094D03*
X019090Y010094D03*
X019286Y010094D03*
X019286Y006550D03*
X019090Y006550D03*
X018893Y006550D03*
X018696Y006550D03*
X018499Y006550D03*
X018302Y006550D03*
X018105Y006550D03*
X017909Y006550D03*
X017712Y006550D03*
X017515Y006550D03*
X017318Y006550D03*
X017121Y006550D03*
D26*
X012832Y002831D03*
X012832Y002083D03*
X011809Y002083D03*
X011809Y002457D03*
X011809Y002831D03*
X014446Y014878D03*
X014446Y015252D03*
X014446Y015626D03*
X015470Y015626D03*
X015470Y014878D03*
D27*
X011080Y003934D03*
X010332Y003934D03*
X010332Y002910D03*
X010706Y002910D03*
X011080Y002910D03*
D28*
X011651Y001217D03*
X012950Y001217D03*
X011612Y004780D03*
X010313Y004780D03*
X007734Y004524D03*
X006435Y004524D03*
D29*
X021376Y007871D03*
X021376Y008500D03*
D30*
X011100Y008540D03*
X011100Y007634D03*
X007537Y011000D03*
X007537Y011906D03*
X007537Y012300D03*
X007537Y013205D03*
D31*
X007592Y008514D03*
X007848Y008514D03*
X008104Y008514D03*
X008360Y008514D03*
X008616Y008514D03*
X008871Y008514D03*
X009127Y008514D03*
X007336Y008514D03*
X007336Y006191D03*
X007592Y006191D03*
X007848Y006191D03*
X008104Y006191D03*
X008360Y006191D03*
X008616Y006191D03*
X008871Y006191D03*
X009127Y006191D03*
D32*
X005318Y006180D03*
X004318Y006180D03*
X003318Y006180D03*
X003318Y007429D03*
X004318Y007429D03*
X005318Y007429D03*
X005318Y008677D03*
X004318Y008677D03*
X003318Y008677D03*
X003318Y009926D03*
X004318Y009926D03*
X005318Y009926D03*
X005318Y011174D03*
X004318Y011174D03*
X003318Y011174D03*
X003318Y012423D03*
X004318Y012423D03*
X005318Y012423D03*
X005318Y013671D03*
X004318Y013671D03*
X003318Y013671D03*
X003318Y014920D03*
X004318Y014920D03*
X005318Y014920D03*
X021171Y005390D03*
X022171Y005390D03*
X023171Y005390D03*
X024171Y005390D03*
X025171Y005390D03*
D33*
X007065Y009327D03*
X006159Y009327D03*
X006061Y014229D03*
X006966Y014229D03*
D34*
X023062Y010373D03*
X023062Y009873D03*
X023062Y009373D03*
X023062Y008873D03*
X025122Y008873D03*
X025122Y009373D03*
X025122Y009873D03*
X025122Y010373D03*
D35*
X020608Y003874D03*
X020352Y003874D03*
X020096Y003874D03*
X020096Y003126D03*
X020352Y003126D03*
X020608Y003126D03*
D36*
X017576Y001808D03*
X017576Y001178D03*
X016710Y001178D03*
X016710Y001808D03*
D37*
X003364Y003363D03*
X003364Y004465D03*
D38*
X021513Y009130D03*
X022143Y009130D03*
X022143Y009997D03*
X021513Y009997D03*
D39*
X011324Y010630D03*
X010324Y010630D03*
X010324Y011630D03*
X011324Y011630D03*
X011324Y012630D03*
X010324Y012630D03*
D40*
X013545Y010863D03*
X014332Y010863D03*
X015120Y010863D03*
X015907Y010863D03*
X017383Y005764D03*
X018171Y005764D03*
X018958Y005764D03*
X019746Y005764D03*
D41*
X001435Y001591D03*
X001435Y014682D03*
X027025Y014701D03*
X027025Y006079D03*
D42*
X022360Y014367D03*
X021612Y014367D03*
X021986Y015193D03*
X013954Y015489D03*
X013206Y015489D03*
X013580Y014662D03*
D43*
X018102Y014603D03*
X018102Y015103D03*
X018102Y014103D03*
X019728Y014103D03*
X019728Y014603D03*
X019728Y015103D03*
D44*
X018915Y013953D03*
D45*
X018915Y015416D03*
D46*
X017852Y013008D03*
X017852Y012811D03*
X017852Y012615D03*
X017852Y012418D03*
X017852Y012221D03*
X017852Y012024D03*
X016277Y012024D03*
X016277Y012221D03*
X016277Y012418D03*
X016277Y012615D03*
X016277Y012811D03*
X016277Y013008D03*
D47*
X016572Y013304D03*
X016769Y013304D03*
X016966Y013304D03*
X017163Y013304D03*
X017360Y013304D03*
X017557Y013304D03*
X017557Y011729D03*
X017360Y011729D03*
X017163Y011729D03*
X016966Y011729D03*
X016769Y011729D03*
X016572Y011729D03*
D48*
X014250Y012477D03*
X014250Y012693D03*
X014250Y012910D03*
X014250Y013126D03*
X014250Y013343D03*
X014250Y013560D03*
X014250Y013776D03*
X012439Y013776D03*
X012439Y013560D03*
X012439Y013343D03*
X012439Y013126D03*
X012439Y012910D03*
X012439Y012693D03*
X012439Y012477D03*
D49*
X012694Y012221D03*
X012911Y012221D03*
X013128Y012221D03*
X013344Y012221D03*
X013561Y012221D03*
X013777Y012221D03*
X013994Y012221D03*
X013994Y014032D03*
X013777Y014032D03*
X013561Y014032D03*
X013344Y014032D03*
X013128Y014032D03*
X012911Y014032D03*
X012694Y014032D03*
D50*
X023694Y014957D03*
D51*
X025194Y014707D03*
X025194Y014207D03*
X025194Y015207D03*
X025194Y015707D03*
D52*
X021021Y015103D03*
X021021Y013709D03*
D53*
X023230Y013579D03*
X024230Y013579D03*
X025230Y013579D03*
X013521Y007544D03*
X013521Y003544D03*
D54*
X020381Y012516D03*
X020881Y012516D03*
X021381Y012516D03*
X021881Y012516D03*
X022381Y012516D03*
D55*
X017517Y013796D03*
X015509Y013796D03*
D56*
X009545Y001650D03*
X008364Y001650D03*
D57*
X005244Y001670D03*
X004476Y001670D03*
D58*
X008777Y002339D03*
X008777Y002851D03*
X009525Y002851D03*
X009525Y002595D03*
X009525Y002339D03*
M02*
