G75*
G70*
%OFA0B0*%
%FSLAX24Y24*%
%IPPOS*%
%LPD*%
%AMOC8*
5,1,8,0,0,1.08239X$1,22.5*
%
%ADD10C,0.0080*%
%ADD11C,0.0100*%
%ADD12R,0.0300X0.0180*%
%ADD13R,0.0180X0.0300*%
%ADD14C,0.0120*%
%ADD15C,0.0060*%
D10*
X000766Y001591D02*
X000768Y001642D01*
X000774Y001693D01*
X000784Y001743D01*
X000797Y001793D01*
X000815Y001841D01*
X000835Y001888D01*
X000860Y001933D01*
X000888Y001976D01*
X000919Y002017D01*
X000953Y002055D01*
X000990Y002090D01*
X001029Y002123D01*
X001071Y002153D01*
X001115Y002179D01*
X001161Y002201D01*
X001209Y002221D01*
X001258Y002236D01*
X001308Y002248D01*
X001358Y002256D01*
X001409Y002260D01*
X001461Y002260D01*
X001512Y002256D01*
X001562Y002248D01*
X001612Y002236D01*
X001661Y002221D01*
X001709Y002201D01*
X001755Y002179D01*
X001799Y002153D01*
X001841Y002123D01*
X001880Y002090D01*
X001917Y002055D01*
X001951Y002017D01*
X001982Y001976D01*
X002010Y001933D01*
X002035Y001888D01*
X002055Y001841D01*
X002073Y001793D01*
X002086Y001743D01*
X002096Y001693D01*
X002102Y001642D01*
X002104Y001591D01*
X002102Y001540D01*
X002096Y001489D01*
X002086Y001439D01*
X002073Y001389D01*
X002055Y001341D01*
X002035Y001294D01*
X002010Y001249D01*
X001982Y001206D01*
X001951Y001165D01*
X001917Y001127D01*
X001880Y001092D01*
X001841Y001059D01*
X001799Y001029D01*
X001755Y001003D01*
X001709Y000981D01*
X001661Y000961D01*
X001612Y000946D01*
X001562Y000934D01*
X001512Y000926D01*
X001461Y000922D01*
X001409Y000922D01*
X001358Y000926D01*
X001308Y000934D01*
X001258Y000946D01*
X001209Y000961D01*
X001161Y000981D01*
X001115Y001003D01*
X001071Y001029D01*
X001029Y001059D01*
X000990Y001092D01*
X000953Y001127D01*
X000919Y001165D01*
X000888Y001206D01*
X000860Y001249D01*
X000835Y001294D01*
X000815Y001341D01*
X000797Y001389D01*
X000784Y001439D01*
X000774Y001489D01*
X000768Y001540D01*
X000766Y001591D01*
X000254Y001591D02*
X000256Y001660D01*
X000262Y001728D01*
X000272Y001796D01*
X000286Y001863D01*
X000304Y001930D01*
X000325Y001995D01*
X000351Y002059D01*
X000380Y002121D01*
X000412Y002181D01*
X000448Y002240D01*
X000488Y002296D01*
X000530Y002350D01*
X000576Y002401D01*
X000625Y002450D01*
X000676Y002496D01*
X000730Y002538D01*
X000786Y002578D01*
X000844Y002614D01*
X000905Y002646D01*
X000967Y002675D01*
X001031Y002701D01*
X001096Y002722D01*
X001163Y002740D01*
X001230Y002754D01*
X001298Y002764D01*
X001366Y002770D01*
X001435Y002772D01*
X001504Y002770D01*
X001572Y002764D01*
X001640Y002754D01*
X001707Y002740D01*
X001774Y002722D01*
X001839Y002701D01*
X001903Y002675D01*
X001965Y002646D01*
X002025Y002614D01*
X002084Y002578D01*
X002140Y002538D01*
X002194Y002496D01*
X002245Y002450D01*
X002294Y002401D01*
X002340Y002350D01*
X002382Y002296D01*
X002422Y002240D01*
X002458Y002182D01*
X002490Y002121D01*
X002519Y002059D01*
X002545Y001995D01*
X002566Y001930D01*
X002584Y001863D01*
X002598Y001796D01*
X002608Y001728D01*
X002614Y001660D01*
X002616Y001591D01*
X002614Y001522D01*
X002608Y001454D01*
X002598Y001386D01*
X002584Y001319D01*
X002566Y001252D01*
X002545Y001187D01*
X002519Y001123D01*
X002490Y001061D01*
X002458Y001000D01*
X002422Y000942D01*
X002382Y000886D01*
X002340Y000832D01*
X002294Y000781D01*
X002245Y000732D01*
X002194Y000686D01*
X002140Y000644D01*
X002084Y000604D01*
X002026Y000568D01*
X001965Y000536D01*
X001903Y000507D01*
X001839Y000481D01*
X001774Y000460D01*
X001707Y000442D01*
X001640Y000428D01*
X001572Y000418D01*
X001504Y000412D01*
X001435Y000410D01*
X001366Y000412D01*
X001298Y000418D01*
X001230Y000428D01*
X001163Y000442D01*
X001096Y000460D01*
X001031Y000481D01*
X000967Y000507D01*
X000905Y000536D01*
X000844Y000568D01*
X000786Y000604D01*
X000730Y000644D01*
X000676Y000686D01*
X000625Y000732D01*
X000576Y000781D01*
X000530Y000832D01*
X000488Y000886D01*
X000448Y000942D01*
X000412Y001000D01*
X000380Y001061D01*
X000351Y001123D01*
X000325Y001187D01*
X000304Y001252D01*
X000286Y001319D01*
X000272Y001386D01*
X000262Y001454D01*
X000256Y001522D01*
X000254Y001591D01*
X002634Y003888D02*
X002674Y003848D01*
X002834Y003848D01*
X002874Y003888D01*
X002874Y003968D01*
X002834Y004008D01*
X002754Y004142D02*
X002754Y004302D01*
X002874Y004262D02*
X002634Y004262D01*
X002754Y004142D01*
X002674Y004008D02*
X002634Y003968D01*
X002634Y003888D01*
X002674Y004437D02*
X002714Y004437D01*
X002754Y004477D01*
X002754Y004597D01*
X002834Y004597D02*
X002674Y004597D01*
X002634Y004557D01*
X002634Y004477D01*
X002674Y004437D01*
X002834Y004437D02*
X002874Y004477D01*
X002874Y004557D01*
X002834Y004597D01*
X003185Y004928D02*
X003266Y004928D01*
X003306Y004968D01*
X003185Y004928D02*
X003145Y004968D01*
X003145Y005129D01*
X003185Y005169D01*
X003266Y005169D01*
X003306Y005129D01*
X003440Y005169D02*
X003440Y005048D01*
X003520Y005088D01*
X003560Y005088D01*
X003600Y005048D01*
X003600Y004968D01*
X003560Y004928D01*
X003480Y004928D01*
X003440Y004968D01*
X003440Y005169D02*
X003600Y005169D01*
X003735Y005129D02*
X003775Y005169D01*
X003855Y005169D01*
X003895Y005129D01*
X003895Y005088D01*
X003855Y005048D01*
X003895Y005008D01*
X003895Y004968D01*
X003855Y004928D01*
X003775Y004928D01*
X003735Y004968D01*
X003815Y005048D02*
X003855Y005048D01*
X004299Y004845D02*
X004419Y004725D01*
X004419Y004885D01*
X004299Y004845D02*
X004540Y004845D01*
X004540Y004590D02*
X004540Y004430D01*
X004379Y004590D01*
X004339Y004590D01*
X004299Y004550D01*
X004299Y004470D01*
X004339Y004430D01*
X004339Y004295D02*
X004299Y004255D01*
X004299Y004175D01*
X004339Y004135D01*
X004500Y004135D01*
X004540Y004175D01*
X004540Y004255D01*
X004500Y004295D01*
X004085Y004039D02*
X004045Y004039D01*
X003885Y004199D01*
X003845Y004199D01*
X003845Y004039D01*
X003845Y003904D02*
X003885Y003824D01*
X003965Y003744D01*
X003965Y003864D01*
X004005Y003904D01*
X004045Y003904D01*
X004085Y003864D01*
X004085Y003784D01*
X004045Y003744D01*
X003965Y003744D01*
X003965Y003610D02*
X003965Y003450D01*
X003845Y003570D01*
X004085Y003570D01*
X004190Y003444D02*
X004190Y003326D01*
X004085Y003275D02*
X004085Y003195D01*
X004045Y003155D01*
X003965Y003235D02*
X003965Y003275D01*
X004005Y003315D01*
X004045Y003315D01*
X004085Y003275D01*
X003965Y003275D02*
X003925Y003315D01*
X003885Y003315D01*
X003845Y003275D01*
X003845Y003195D01*
X003885Y003155D01*
X003845Y003020D02*
X003845Y002860D01*
X003845Y002940D02*
X004085Y002940D01*
X004190Y002775D02*
X004190Y002657D01*
X004288Y002657D01*
X004085Y002726D02*
X004085Y002566D01*
X003845Y002566D01*
X003698Y002418D02*
X003502Y002418D01*
X004476Y002280D02*
X004476Y002080D01*
X004516Y002040D01*
X004596Y002040D01*
X004636Y002080D01*
X004636Y002280D01*
X004771Y002200D02*
X004851Y002280D01*
X004851Y002040D01*
X004771Y002040D02*
X004931Y002040D01*
X005066Y002040D02*
X005226Y002200D01*
X005226Y002240D01*
X005186Y002280D01*
X005106Y002280D01*
X005066Y002240D01*
X005066Y002040D02*
X005226Y002040D01*
X005549Y001985D02*
X005549Y002182D01*
X005450Y002657D02*
X005351Y002657D01*
X005450Y002657D02*
X005450Y002775D01*
X005906Y002807D02*
X005906Y003047D01*
X005906Y002807D02*
X006066Y002807D01*
X006200Y002807D02*
X006360Y002807D01*
X006280Y002807D02*
X006280Y003047D01*
X006200Y002967D01*
X006495Y003007D02*
X006535Y003047D01*
X006615Y003047D01*
X006655Y003007D01*
X006495Y002847D01*
X006535Y002807D01*
X006615Y002807D01*
X006655Y002847D01*
X006655Y003007D01*
X006495Y003007D02*
X006495Y002847D01*
X006846Y003170D02*
X006846Y001390D01*
X006730Y001985D02*
X006730Y002182D01*
X007202Y002027D02*
X007990Y002027D01*
X007596Y002567D01*
X007202Y002027D01*
X007202Y002567D02*
X007990Y002567D01*
X008539Y002117D02*
X008539Y001917D01*
X008579Y001877D01*
X008659Y001877D01*
X008699Y001917D01*
X008699Y002117D01*
X008834Y002037D02*
X008914Y002117D01*
X008914Y001877D01*
X008834Y001877D02*
X008994Y001877D01*
X008934Y001778D02*
X009067Y001644D01*
X009101Y001678D01*
X009101Y001744D01*
X009067Y001778D01*
X008934Y001778D01*
X008900Y001744D01*
X008900Y001678D01*
X008934Y001644D01*
X009067Y001644D01*
X009067Y001520D02*
X009101Y001487D01*
X009101Y001420D01*
X009067Y001387D01*
X009001Y001453D02*
X009001Y001487D01*
X009034Y001520D01*
X009067Y001520D01*
X009001Y001487D02*
X008967Y001520D01*
X008934Y001520D01*
X008900Y001487D01*
X008900Y001420D01*
X008934Y001387D01*
X008900Y001262D02*
X008900Y001129D01*
X009001Y001129D01*
X008967Y001195D01*
X008967Y001229D01*
X009001Y001262D01*
X009067Y001262D01*
X009101Y001229D01*
X009101Y001162D01*
X009067Y001129D01*
X009101Y001004D02*
X009101Y000871D01*
X009101Y000938D02*
X008900Y000938D01*
X008967Y000871D01*
X008934Y000747D02*
X009067Y000613D01*
X009101Y000613D01*
X008900Y000613D02*
X008900Y000747D01*
X008934Y000747D01*
X008687Y000732D02*
X008647Y000772D01*
X008487Y000772D01*
X008446Y000732D01*
X008446Y000612D01*
X008687Y000612D01*
X008687Y000732D01*
X008687Y000907D02*
X008687Y001067D01*
X008687Y000987D02*
X008446Y000987D01*
X008527Y000907D01*
X008605Y001109D02*
X008605Y001243D01*
X008605Y001176D02*
X008805Y001176D01*
X008805Y001367D02*
X008605Y001367D01*
X008605Y001467D01*
X008639Y001500D01*
X008705Y001500D01*
X008739Y001467D01*
X008739Y001367D01*
X008772Y001625D02*
X008805Y001658D01*
X008805Y001725D01*
X008772Y001758D01*
X008739Y001758D01*
X008705Y001725D01*
X008705Y001658D01*
X008672Y001625D01*
X008639Y001625D01*
X008605Y001658D01*
X008605Y001725D01*
X008639Y001758D01*
X008346Y001390D02*
X008346Y003170D01*
X008697Y003197D02*
X008817Y003197D01*
X008857Y003237D01*
X008857Y003317D01*
X008817Y003358D01*
X008697Y003358D01*
X008697Y003117D01*
X008777Y003197D02*
X008857Y003117D01*
X008991Y003117D02*
X009151Y003117D01*
X009071Y003117D02*
X009071Y003358D01*
X008991Y003277D01*
X008935Y002989D02*
X009387Y002989D01*
X009387Y002969D01*
X009286Y003117D02*
X009286Y003157D01*
X009446Y003317D01*
X009446Y003358D01*
X009286Y003358D01*
X009773Y003447D02*
X010013Y003447D01*
X010013Y003367D02*
X010013Y003527D01*
X009973Y003662D02*
X010013Y003702D01*
X010013Y003782D01*
X009973Y003822D01*
X009893Y003822D01*
X009853Y003782D01*
X009853Y003742D01*
X009893Y003662D01*
X009773Y003662D01*
X009773Y003822D01*
X009773Y003447D02*
X009853Y003367D01*
X009773Y003232D02*
X009973Y003232D01*
X010013Y003192D01*
X010013Y003112D01*
X009973Y003072D01*
X009773Y003072D01*
X010146Y003253D02*
X010146Y003591D01*
X010601Y003741D02*
X010812Y003741D01*
X011266Y003591D02*
X011266Y003253D01*
X011519Y003821D02*
X011599Y003821D01*
X011639Y003861D01*
X011519Y003821D02*
X011479Y003861D01*
X011479Y004021D01*
X011519Y004061D01*
X011599Y004061D01*
X011639Y004021D01*
X011774Y004021D02*
X011814Y004061D01*
X011894Y004061D01*
X011934Y004021D01*
X011934Y003981D01*
X011894Y003941D01*
X011934Y003901D01*
X011934Y003861D01*
X011894Y003821D01*
X011814Y003821D01*
X011774Y003861D01*
X011854Y003941D02*
X011894Y003941D01*
X012068Y003941D02*
X012228Y003941D01*
X012188Y004061D02*
X012068Y003941D01*
X012188Y003821D02*
X012188Y004061D01*
X011986Y004170D02*
X011317Y004170D01*
X010722Y004264D02*
X010722Y005286D01*
X010569Y005390D02*
X010096Y005390D01*
X009939Y005252D01*
X009939Y004288D01*
X010096Y004170D01*
X010569Y004170D01*
X011907Y003453D02*
X011907Y003429D01*
X012151Y003017D02*
X012490Y003017D01*
X012608Y003072D02*
X012808Y003072D01*
X012848Y003112D01*
X012848Y003192D01*
X012808Y003232D01*
X012608Y003232D01*
X012688Y003367D02*
X012608Y003447D01*
X012848Y003447D01*
X012848Y003367D02*
X012848Y003527D01*
X012808Y003662D02*
X012848Y003702D01*
X012848Y003782D01*
X012808Y003822D01*
X012768Y003822D01*
X012728Y003782D01*
X012728Y003742D01*
X012728Y003782D02*
X012688Y003822D01*
X012648Y003822D01*
X012608Y003782D01*
X012608Y003702D01*
X012648Y003662D01*
X012293Y004318D02*
X012133Y004318D01*
X012093Y004358D01*
X012093Y004438D01*
X012133Y004478D01*
X012133Y004613D02*
X012093Y004653D01*
X012093Y004733D01*
X012133Y004773D01*
X012173Y004773D01*
X012213Y004733D01*
X012253Y004773D01*
X012293Y004773D01*
X012333Y004733D01*
X012333Y004653D01*
X012293Y004613D01*
X012213Y004693D02*
X012213Y004733D01*
X012213Y004907D02*
X012173Y004987D01*
X012173Y005027D01*
X012213Y005067D01*
X012293Y005067D01*
X012333Y005027D01*
X012333Y004947D01*
X012293Y004907D01*
X012213Y004907D02*
X012093Y004907D01*
X012093Y005067D01*
X012473Y005021D02*
X012473Y005141D01*
X012513Y005181D01*
X012593Y005181D01*
X012633Y005141D01*
X012633Y005021D01*
X012713Y005021D02*
X012473Y005021D01*
X012633Y005101D02*
X012713Y005181D01*
X012713Y005316D02*
X012713Y005476D01*
X012713Y005396D02*
X012473Y005396D01*
X012553Y005316D01*
X011986Y005410D02*
X011986Y004170D01*
X012293Y004318D02*
X012333Y004358D01*
X012333Y004438D01*
X012293Y004478D01*
X013349Y004746D02*
X013349Y004986D01*
X013469Y004986D01*
X013509Y004946D01*
X013509Y004866D01*
X013469Y004826D01*
X013349Y004826D01*
X013429Y004826D02*
X013509Y004746D01*
X013644Y004786D02*
X013684Y004746D01*
X013764Y004746D01*
X013804Y004786D01*
X013804Y004826D01*
X013764Y004866D01*
X013724Y004866D01*
X013764Y004866D02*
X013804Y004906D01*
X013804Y004946D01*
X013764Y004986D01*
X013684Y004986D01*
X013644Y004946D01*
X013938Y004866D02*
X014098Y004866D01*
X014058Y004746D02*
X014058Y004986D01*
X013938Y004866D01*
X014386Y004851D02*
X014506Y004851D01*
X014546Y004891D01*
X014546Y004971D01*
X014506Y005011D01*
X014386Y005011D01*
X014386Y004771D01*
X014466Y004851D02*
X014546Y004771D01*
X014680Y004771D02*
X014840Y004931D01*
X014840Y004971D01*
X014800Y005011D01*
X014720Y005011D01*
X014680Y004971D01*
X014680Y004771D02*
X014840Y004771D01*
X014975Y004811D02*
X015015Y004771D01*
X015095Y004771D01*
X015135Y004811D01*
X015135Y004971D01*
X015095Y005011D01*
X015015Y005011D01*
X014975Y004971D01*
X014975Y004931D01*
X015015Y004891D01*
X015135Y004891D01*
X015724Y005046D02*
X015724Y005287D01*
X015844Y005287D01*
X015884Y005247D01*
X015884Y005167D01*
X015844Y005126D01*
X015724Y005126D01*
X015804Y005126D02*
X015884Y005046D01*
X016019Y005046D02*
X016179Y005207D01*
X016179Y005247D01*
X016139Y005287D01*
X016059Y005287D01*
X016019Y005247D01*
X016019Y005046D02*
X016179Y005046D01*
X016313Y005086D02*
X016313Y005126D01*
X016353Y005167D01*
X016434Y005167D01*
X016474Y005126D01*
X016474Y005086D01*
X016434Y005046D01*
X016353Y005046D01*
X016313Y005086D01*
X016353Y005167D02*
X016313Y005207D01*
X016313Y005247D01*
X016353Y005287D01*
X016434Y005287D01*
X016474Y005247D01*
X016474Y005207D01*
X016434Y005167D01*
X016871Y005024D02*
X016871Y004703D01*
X016871Y004810D02*
X017031Y004810D01*
X017084Y004863D01*
X017084Y004970D01*
X017031Y005024D01*
X016871Y005024D01*
X016977Y004810D02*
X017084Y004703D01*
X017239Y004703D02*
X017239Y005024D01*
X017452Y005024D01*
X017346Y004863D02*
X017239Y004863D01*
X017975Y004917D02*
X018029Y004863D01*
X018136Y004863D01*
X018189Y004810D01*
X018189Y004757D01*
X018136Y004703D01*
X018029Y004703D01*
X017975Y004757D01*
X017975Y004917D02*
X017975Y004970D01*
X018029Y005024D01*
X018136Y005024D01*
X018189Y004970D01*
X018344Y005024D02*
X018344Y004703D01*
X018344Y004863D02*
X018557Y004863D01*
X018712Y004863D02*
X018819Y004863D01*
X018712Y004703D02*
X018926Y004703D01*
X019080Y004703D02*
X019187Y004703D01*
X019134Y004703D02*
X019134Y005024D01*
X019187Y005024D02*
X019080Y005024D01*
X018926Y005024D02*
X018712Y005024D01*
X018712Y004703D01*
X018557Y004703D02*
X018557Y005024D01*
X019326Y005024D02*
X019326Y004703D01*
X019539Y004703D01*
X019694Y004703D02*
X019694Y005024D01*
X019854Y005024D01*
X019908Y004970D01*
X019908Y004757D01*
X019854Y004703D01*
X019694Y004703D01*
X019775Y004178D02*
X019775Y004044D01*
X019675Y004144D01*
X019875Y004144D01*
X019842Y003920D02*
X019675Y003920D01*
X019555Y003874D02*
X019555Y003840D01*
X019521Y003807D01*
X019454Y003807D01*
X019421Y003840D01*
X019421Y003907D01*
X019521Y003907D01*
X019555Y003874D01*
X019488Y003974D02*
X019421Y003907D01*
X019488Y003974D02*
X019555Y004007D01*
X019675Y003786D02*
X019842Y003786D01*
X019875Y003820D01*
X019875Y003886D01*
X019842Y003920D01*
X019959Y003734D02*
X019979Y003734D01*
X019959Y003734D02*
X019959Y003636D01*
X019907Y003590D02*
X019907Y003523D01*
X019873Y003490D01*
X019806Y003523D02*
X019806Y003590D01*
X019840Y003623D01*
X019873Y003623D01*
X019907Y003590D01*
X019806Y003523D02*
X019773Y003490D01*
X019740Y003490D01*
X019706Y003523D01*
X019706Y003590D01*
X019740Y003623D01*
X019773Y003365D02*
X019907Y003365D01*
X019959Y003281D02*
X019959Y003262D01*
X019979Y003262D01*
X019907Y003232D02*
X019773Y003232D01*
X019706Y003298D01*
X019773Y003365D01*
X019806Y003365D02*
X019806Y003232D01*
X019802Y003084D02*
X019804Y003099D01*
X019809Y003112D01*
X019818Y003124D01*
X019829Y003134D01*
X019843Y003140D01*
X019857Y003143D01*
X019872Y003142D01*
X019886Y003137D01*
X019899Y003129D01*
X019909Y003119D01*
X019916Y003106D01*
X019920Y003091D01*
X019920Y003077D01*
X019916Y003062D01*
X019909Y003049D01*
X019899Y003039D01*
X019886Y003031D01*
X019872Y003026D01*
X019857Y003025D01*
X019843Y003028D01*
X019829Y003034D01*
X019818Y003044D01*
X019809Y003056D01*
X019804Y003069D01*
X019802Y003084D01*
X019820Y002784D02*
X019820Y002760D01*
X019476Y002856D02*
X019442Y002823D01*
X019376Y002823D01*
X019342Y002856D01*
X019342Y002889D01*
X019376Y002923D01*
X019442Y002923D01*
X019476Y002889D01*
X019476Y002856D01*
X019442Y002923D02*
X019476Y002956D01*
X019476Y002989D01*
X019442Y003023D01*
X019376Y003023D01*
X019342Y002989D01*
X019342Y002956D01*
X019376Y002923D01*
X019218Y002823D02*
X019085Y002823D01*
X019151Y002823D02*
X019151Y003023D01*
X019085Y002956D01*
X018960Y002989D02*
X018927Y003023D01*
X018860Y003023D01*
X018827Y002989D01*
X018827Y002856D01*
X018860Y002823D01*
X018927Y002823D01*
X018960Y002856D01*
X018742Y002837D02*
X018609Y002837D01*
X018742Y002970D01*
X018742Y003003D01*
X018709Y003037D01*
X018642Y003037D01*
X018609Y003003D01*
X018484Y003037D02*
X018351Y003037D01*
X018351Y002937D01*
X018418Y002970D01*
X018451Y002970D01*
X018484Y002937D01*
X018484Y002870D01*
X018451Y002837D01*
X018384Y002837D01*
X018351Y002870D01*
X018227Y002870D02*
X018193Y002837D01*
X018126Y002837D01*
X018093Y002870D01*
X018093Y003003D01*
X018126Y003037D01*
X018193Y003037D01*
X018227Y003003D01*
X017931Y002595D02*
X017931Y002536D01*
X017734Y002339D01*
X017675Y002339D01*
X017183Y002044D02*
X017104Y002044D01*
X016602Y002339D02*
X016356Y002339D01*
X016356Y002585D01*
X016316Y002420D02*
X016316Y002286D01*
X016183Y002420D01*
X016149Y002420D01*
X016116Y002387D01*
X016116Y002320D01*
X016149Y002286D01*
X016149Y002162D02*
X016183Y002162D01*
X016216Y002129D01*
X016249Y002162D01*
X016283Y002162D01*
X016316Y002129D01*
X016316Y002062D01*
X016283Y002029D01*
X016216Y002095D02*
X016216Y002129D01*
X016149Y002162D02*
X016116Y002129D01*
X016116Y002062D01*
X016149Y002029D01*
X016216Y001904D02*
X016216Y001771D01*
X016116Y001871D01*
X016316Y001871D01*
X016216Y001647D02*
X016216Y001513D01*
X016116Y001613D01*
X016316Y001613D01*
X016316Y001408D02*
X016316Y001341D01*
X016316Y001375D02*
X016116Y001375D01*
X016116Y001408D02*
X016116Y001341D01*
X016149Y001217D02*
X016116Y001184D01*
X016116Y001117D01*
X016149Y001083D01*
X016183Y001083D01*
X016216Y001117D01*
X016216Y001184D01*
X016249Y001217D01*
X016283Y001217D01*
X016316Y001184D01*
X016316Y001117D01*
X016283Y001083D01*
X015942Y001095D02*
X015942Y001135D01*
X015902Y001175D01*
X015822Y001175D01*
X015782Y001135D01*
X015648Y001175D02*
X015488Y000935D01*
X015648Y000935D02*
X015488Y001175D01*
X015498Y001471D02*
X015338Y001471D01*
X015298Y001511D01*
X015298Y001591D01*
X015338Y001631D01*
X015378Y001766D02*
X015298Y001846D01*
X015538Y001846D01*
X015538Y001766D02*
X015538Y001926D01*
X015418Y002060D02*
X015298Y002180D01*
X015538Y002180D01*
X015418Y002221D02*
X015418Y002060D01*
X015411Y002333D02*
X015371Y002373D01*
X015531Y002533D01*
X015531Y002373D01*
X015491Y002333D01*
X015411Y002333D01*
X015371Y002373D02*
X015371Y002533D01*
X015411Y002573D01*
X015491Y002573D01*
X015531Y002533D01*
X015528Y002724D02*
X015528Y002964D01*
X015448Y002884D01*
X015313Y002924D02*
X015273Y002964D01*
X015193Y002964D01*
X015153Y002924D01*
X015153Y002764D01*
X015193Y002724D01*
X015273Y002724D01*
X015313Y002764D01*
X015448Y002724D02*
X015608Y002724D01*
X015743Y002764D02*
X015783Y002724D01*
X015863Y002724D01*
X015903Y002764D01*
X015903Y002804D01*
X015863Y002844D01*
X015823Y002844D01*
X015863Y002844D02*
X015903Y002884D01*
X015903Y002924D01*
X015863Y002964D01*
X015783Y002964D01*
X015743Y002924D01*
X015509Y003193D02*
X015509Y003217D01*
X015514Y003453D02*
X015580Y003453D01*
X015614Y003486D01*
X015514Y003453D02*
X015480Y003486D01*
X015480Y003619D01*
X015514Y003653D01*
X015580Y003653D01*
X015614Y003619D01*
X015738Y003586D02*
X015805Y003653D01*
X015805Y003453D01*
X015738Y003453D02*
X015872Y003453D01*
X015996Y003486D02*
X016029Y003453D01*
X016096Y003453D01*
X016129Y003486D01*
X016129Y003553D01*
X016096Y003586D01*
X016063Y003586D01*
X015996Y003553D01*
X015996Y003653D01*
X016129Y003653D01*
X016395Y003924D02*
X016602Y003924D01*
X015765Y003902D02*
X015765Y003926D01*
X014979Y003063D02*
X015012Y003030D01*
X015012Y002996D01*
X014979Y002963D01*
X015012Y002930D01*
X015012Y002896D01*
X014979Y002863D01*
X014912Y002863D01*
X014879Y002896D01*
X014946Y002963D02*
X014979Y002963D01*
X014979Y003063D02*
X014912Y003063D01*
X014879Y003030D01*
X014755Y003030D02*
X014755Y002996D01*
X014721Y002963D01*
X014755Y002930D01*
X014755Y002896D01*
X014721Y002863D01*
X014655Y002863D01*
X014621Y002896D01*
X014688Y002963D02*
X014721Y002963D01*
X014755Y003030D02*
X014721Y003063D01*
X014655Y003063D01*
X014621Y003030D01*
X014497Y003030D02*
X014464Y003063D01*
X014397Y003063D01*
X014363Y003030D01*
X014239Y003030D02*
X014239Y002996D01*
X014206Y002963D01*
X014239Y002930D01*
X014239Y002896D01*
X014206Y002863D01*
X014139Y002863D01*
X014106Y002896D01*
X014172Y002963D02*
X014206Y002963D01*
X014239Y003030D02*
X014206Y003063D01*
X014139Y003063D01*
X014106Y003030D01*
X013981Y003030D02*
X013848Y002896D01*
X013848Y002863D01*
X013724Y002896D02*
X013690Y002863D01*
X013623Y002863D01*
X013590Y002896D01*
X013623Y002963D02*
X013690Y002963D01*
X013724Y002930D01*
X013724Y002896D01*
X013623Y002963D02*
X013590Y002996D01*
X013590Y003030D01*
X013623Y003063D01*
X013690Y003063D01*
X013724Y003030D01*
X013848Y003063D02*
X013981Y003063D01*
X013981Y003030D01*
X014363Y002863D02*
X014497Y002996D01*
X014497Y003030D01*
X014497Y002863D02*
X014363Y002863D01*
X014782Y002573D02*
X014782Y002373D01*
X014822Y002333D01*
X014902Y002333D01*
X014942Y002373D01*
X014942Y002573D01*
X015076Y002493D02*
X015156Y002573D01*
X015156Y002333D01*
X015076Y002333D02*
X015236Y002333D01*
X014847Y002132D02*
X014847Y002092D01*
X014687Y001932D01*
X014687Y001892D01*
X014552Y001892D02*
X014392Y001892D01*
X014392Y002132D01*
X014687Y002132D02*
X014847Y002132D01*
X014357Y001688D02*
X014357Y001608D01*
X014317Y001568D01*
X014277Y001568D01*
X014237Y001608D01*
X014237Y001688D01*
X014277Y001728D01*
X014317Y001728D01*
X014357Y001688D01*
X014237Y001688D02*
X014197Y001728D01*
X014157Y001728D01*
X014117Y001688D01*
X014117Y001608D01*
X014157Y001568D01*
X014197Y001568D01*
X014237Y001608D01*
X014237Y001434D02*
X014237Y001274D01*
X014117Y001394D01*
X014357Y001394D01*
X014317Y001139D02*
X014357Y001099D01*
X014357Y001019D01*
X014317Y000979D01*
X014157Y000979D01*
X014117Y001019D01*
X014117Y001099D01*
X014157Y001139D01*
X013809Y001453D02*
X013785Y001453D01*
X013324Y001709D02*
X013167Y001827D01*
X012694Y001827D01*
X012541Y001733D02*
X012541Y000711D01*
X012694Y000607D02*
X013167Y000607D01*
X013324Y000745D01*
X013324Y001709D01*
X012490Y001897D02*
X012151Y001897D01*
X011946Y001827D02*
X011277Y001827D01*
X011277Y000587D01*
X011946Y000587D01*
X010811Y001105D02*
X010771Y001065D01*
X010691Y001065D01*
X010651Y001105D01*
X010811Y001265D01*
X010811Y001105D01*
X010811Y001265D02*
X010771Y001305D01*
X010691Y001305D01*
X010651Y001265D01*
X010651Y001105D01*
X010516Y001105D02*
X010476Y001065D01*
X010396Y001065D01*
X010356Y001105D01*
X010436Y001185D02*
X010476Y001185D01*
X010516Y001145D01*
X010516Y001105D01*
X010476Y001185D02*
X010516Y001225D01*
X010516Y001265D01*
X010476Y001305D01*
X010396Y001305D01*
X010356Y001265D01*
X010222Y001265D02*
X010182Y001305D01*
X010102Y001305D01*
X010062Y001265D01*
X010062Y001105D01*
X010102Y001065D01*
X010182Y001065D01*
X010222Y001105D01*
X010509Y000796D02*
X010509Y000772D01*
X010514Y001990D02*
X010474Y002030D01*
X010514Y001990D02*
X010594Y001990D01*
X010634Y002030D01*
X010634Y002070D01*
X010594Y002110D01*
X010554Y002110D01*
X010594Y002110D02*
X010634Y002150D01*
X010634Y002190D01*
X010594Y002230D01*
X010514Y002230D01*
X010474Y002190D01*
X010339Y002190D02*
X010339Y002150D01*
X010299Y002110D01*
X010339Y002070D01*
X010339Y002030D01*
X010299Y001990D01*
X010219Y001990D01*
X010179Y002030D01*
X010259Y002110D02*
X010299Y002110D01*
X010339Y002190D02*
X010299Y002230D01*
X010219Y002230D01*
X010179Y002190D01*
X010045Y002190D02*
X010045Y002110D01*
X010005Y002070D01*
X009884Y002070D01*
X009884Y001990D02*
X009884Y002230D01*
X010005Y002230D01*
X010045Y002190D01*
X009965Y002070D02*
X010045Y001990D01*
X010094Y002371D02*
X010094Y002571D01*
X010027Y002571D02*
X010161Y002571D01*
X010285Y002538D02*
X010285Y002404D01*
X010318Y002371D01*
X010385Y002371D01*
X010418Y002404D01*
X010543Y002371D02*
X010676Y002371D01*
X010609Y002371D02*
X010609Y002571D01*
X010543Y002504D01*
X010418Y002538D02*
X010385Y002571D01*
X010318Y002571D01*
X010285Y002538D01*
X010801Y002538D02*
X010801Y002504D01*
X010834Y002471D01*
X010901Y002471D01*
X010934Y002438D01*
X010934Y002404D01*
X010901Y002371D01*
X010834Y002371D01*
X010801Y002404D01*
X010801Y002438D01*
X010834Y002471D01*
X010901Y002471D02*
X010934Y002504D01*
X010934Y002538D01*
X010901Y002571D01*
X010834Y002571D01*
X010801Y002538D01*
X011058Y002471D02*
X011192Y002471D01*
X011158Y002571D02*
X011058Y002471D01*
X011158Y002371D02*
X011158Y002571D01*
X011316Y002471D02*
X011450Y002471D01*
X011416Y002571D02*
X011316Y002471D01*
X011416Y002371D02*
X011416Y002571D01*
X012640Y002563D02*
X012640Y002351D01*
X013141Y002863D02*
X013141Y003063D01*
X013074Y003063D02*
X013208Y003063D01*
X013332Y003063D02*
X013432Y003063D01*
X013466Y003030D01*
X013466Y002963D01*
X013432Y002930D01*
X013332Y002930D01*
X013332Y002863D02*
X013332Y003063D01*
X015498Y001631D02*
X015538Y001591D01*
X015538Y001511D01*
X015498Y001471D01*
X015812Y001886D02*
X015836Y001886D01*
X015942Y001095D02*
X015782Y000935D01*
X015942Y000935D01*
X017104Y000941D02*
X017183Y000941D01*
X017928Y001464D02*
X018088Y001464D01*
X018223Y001464D02*
X018383Y001464D01*
X018303Y001464D02*
X018303Y001704D01*
X018223Y001624D01*
X018777Y001446D02*
X018777Y001422D01*
X018724Y001167D02*
X018644Y001127D01*
X018564Y001047D01*
X018684Y001047D01*
X018724Y001007D01*
X018724Y000967D01*
X018684Y000927D01*
X018604Y000927D01*
X018564Y000967D01*
X018564Y001047D01*
X018430Y000927D02*
X018270Y000927D01*
X018350Y000927D02*
X018350Y001167D01*
X018270Y001087D01*
X018135Y001127D02*
X018095Y001167D01*
X018015Y001167D01*
X017975Y001127D01*
X017975Y000967D01*
X018015Y000927D01*
X018095Y000927D01*
X018135Y000967D01*
X017928Y001464D02*
X017928Y001704D01*
X018521Y002563D02*
X018521Y002587D01*
X019019Y002593D02*
X019259Y002593D01*
X019259Y002513D02*
X019259Y002673D01*
X019099Y002513D02*
X019019Y002593D01*
X019059Y002379D02*
X019099Y002379D01*
X019139Y002339D01*
X019179Y002379D01*
X019219Y002379D01*
X019259Y002339D01*
X019259Y002259D01*
X019219Y002219D01*
X019139Y002299D02*
X019139Y002339D01*
X019059Y002379D02*
X019019Y002339D01*
X019019Y002259D01*
X019059Y002219D01*
X019059Y002084D02*
X019139Y002084D01*
X019179Y002044D01*
X019179Y001924D01*
X019259Y001924D02*
X019019Y001924D01*
X019019Y002044D01*
X019059Y002084D01*
X019179Y002004D02*
X019259Y002084D01*
X019769Y001493D02*
X019793Y001493D01*
X020035Y001543D02*
X020035Y001783D01*
X020035Y001543D02*
X020195Y001543D01*
X020329Y001543D02*
X020489Y001703D01*
X020489Y001743D01*
X020449Y001783D01*
X020369Y001783D01*
X020329Y001743D01*
X020251Y001897D02*
X020411Y001897D01*
X020546Y001937D02*
X020586Y001897D01*
X020666Y001897D01*
X020706Y001937D01*
X020706Y001977D01*
X020666Y002017D01*
X020626Y002017D01*
X020666Y002017D02*
X020706Y002057D01*
X020706Y002097D01*
X020666Y002137D01*
X020586Y002137D01*
X020546Y002097D01*
X020408Y002246D02*
X020445Y002282D01*
X020445Y002356D01*
X020408Y002392D01*
X020408Y002522D02*
X020445Y002559D01*
X020445Y002632D01*
X020408Y002669D01*
X020335Y002669D01*
X020298Y002632D01*
X020298Y002595D01*
X020335Y002522D01*
X020225Y002522D01*
X020225Y002669D01*
X020225Y002798D02*
X020225Y002945D01*
X020262Y002945D01*
X020408Y002798D01*
X020445Y002798D01*
X020262Y002392D02*
X020225Y002356D01*
X020225Y002282D01*
X020262Y002246D01*
X020408Y002246D01*
X020251Y002137D02*
X020251Y001897D01*
X020329Y001543D02*
X020489Y001543D01*
X020332Y001153D02*
X020212Y001033D01*
X020372Y001033D01*
X020332Y000913D02*
X020332Y001153D01*
X020506Y001033D02*
X020506Y000953D01*
X020546Y000913D01*
X020626Y000913D01*
X020666Y000953D01*
X020666Y000993D01*
X020626Y001033D01*
X020506Y001033D01*
X020586Y001113D01*
X020666Y001153D01*
X020950Y001276D02*
X020974Y001276D01*
X021204Y001276D02*
X021244Y001316D01*
X021204Y001276D02*
X021204Y001196D01*
X021244Y001156D01*
X021404Y001156D01*
X021444Y001196D01*
X021444Y001276D01*
X021404Y001316D01*
X021324Y001451D02*
X021324Y001611D01*
X021444Y001571D02*
X021204Y001571D01*
X021324Y001451D01*
X021404Y001745D02*
X021444Y001745D01*
X021404Y001745D02*
X021244Y001906D01*
X021204Y001906D01*
X021204Y001745D01*
X021206Y001990D02*
X021353Y001990D01*
X021390Y002026D01*
X021390Y002100D01*
X021353Y002136D01*
X021390Y002266D02*
X021243Y002413D01*
X021206Y002413D01*
X021170Y002376D01*
X021170Y002303D01*
X021206Y002266D01*
X021206Y002136D02*
X021170Y002100D01*
X021170Y002026D01*
X021206Y001990D01*
X021390Y002266D02*
X021390Y002413D01*
X021353Y002542D02*
X021206Y002689D01*
X021353Y002689D01*
X021390Y002652D01*
X021390Y002579D01*
X021353Y002542D01*
X021206Y002542D01*
X021170Y002579D01*
X021170Y002652D01*
X021206Y002689D01*
X021174Y002783D02*
X021321Y002783D01*
X021174Y002783D02*
X021174Y003003D01*
X020990Y002981D02*
X020957Y003014D01*
X020990Y002981D02*
X020990Y002914D01*
X020957Y002881D01*
X020824Y002881D01*
X020790Y002914D01*
X020790Y002981D01*
X020824Y003014D01*
X020790Y003139D02*
X020890Y003139D01*
X020857Y003205D01*
X020857Y003239D01*
X020890Y003272D01*
X020957Y003272D01*
X020990Y003239D01*
X020990Y003172D01*
X020957Y003139D01*
X020790Y003139D02*
X020790Y003272D01*
X020746Y003262D02*
X020746Y003340D01*
X020790Y003396D02*
X020890Y003396D01*
X020857Y003463D01*
X020857Y003496D01*
X020890Y003530D01*
X020957Y003530D01*
X020990Y003496D01*
X020990Y003430D01*
X020957Y003396D01*
X020790Y003396D02*
X020790Y003530D01*
X020691Y003534D02*
X020558Y003534D01*
X020658Y003634D01*
X020658Y003434D01*
X020727Y003262D02*
X020746Y003262D01*
X020433Y003434D02*
X020300Y003434D01*
X020366Y003434D02*
X020366Y003634D01*
X020300Y003568D01*
X020175Y003568D02*
X020175Y003601D01*
X020142Y003634D01*
X020075Y003634D01*
X020042Y003601D01*
X020175Y003568D02*
X020042Y003434D01*
X020175Y003434D01*
X020746Y003636D02*
X020746Y003734D01*
X020727Y003734D01*
X021167Y003776D02*
X021191Y003776D01*
X021395Y003481D02*
X021454Y003422D01*
X021671Y003422D01*
X021750Y003343D01*
X021750Y003225D01*
X021768Y003121D02*
X021728Y003081D01*
X021728Y002921D01*
X021768Y002881D01*
X021848Y002881D01*
X021888Y002921D01*
X022023Y002881D02*
X022183Y002881D01*
X022103Y002881D02*
X022103Y003121D01*
X022023Y003041D01*
X021888Y003081D02*
X021848Y003121D01*
X021768Y003121D01*
X021560Y003003D02*
X021450Y002893D01*
X021597Y002893D01*
X021560Y002783D02*
X021560Y003003D01*
X020805Y002705D02*
X020805Y002681D01*
X021560Y002280D02*
X021584Y002280D01*
X022317Y002921D02*
X022357Y002881D01*
X022437Y002881D01*
X022478Y002921D01*
X022478Y003081D01*
X022437Y003121D01*
X022357Y003121D01*
X022317Y003081D01*
X022317Y003041D01*
X022357Y003001D01*
X022478Y003001D01*
X020077Y001113D02*
X020037Y001153D01*
X019957Y001153D01*
X019917Y001113D01*
X019917Y000953D01*
X019957Y000913D01*
X020037Y000913D01*
X020077Y000953D01*
X019591Y000907D02*
X019430Y000907D01*
X019511Y000907D02*
X019511Y001148D01*
X019430Y001068D01*
X019296Y000907D02*
X019136Y000907D01*
X019216Y000907D02*
X019216Y001148D01*
X019136Y001068D01*
X019001Y000907D02*
X018841Y000907D01*
X018841Y001148D01*
X019348Y003174D02*
X019348Y003198D01*
X019297Y003807D02*
X019163Y003807D01*
X019163Y004007D01*
X019079Y004021D02*
X018919Y003861D01*
X018919Y003821D01*
X018784Y003821D02*
X018624Y003821D01*
X018704Y003821D02*
X018704Y004061D01*
X018624Y003981D01*
X018489Y004021D02*
X018449Y004061D01*
X018369Y004061D01*
X018329Y004021D01*
X018329Y003861D01*
X018369Y003821D01*
X018449Y003821D01*
X018489Y003861D01*
X018234Y003902D02*
X018234Y003769D01*
X018034Y003769D01*
X017931Y003668D02*
X017931Y003914D01*
X017685Y003914D01*
X018034Y004026D02*
X018034Y004160D01*
X018101Y004126D02*
X018134Y004160D01*
X018201Y004160D01*
X018234Y004126D01*
X018234Y004060D01*
X018201Y004026D01*
X018134Y004026D02*
X018101Y004093D01*
X018101Y004126D01*
X018134Y004026D02*
X018034Y004026D01*
X018745Y003402D02*
X018769Y003402D01*
X018919Y004061D02*
X019079Y004061D01*
X019079Y004021D01*
X020379Y005469D02*
X020403Y005469D01*
X020829Y005908D02*
X020829Y006068D01*
X020869Y006108D01*
X020949Y006108D01*
X020989Y006068D01*
X021124Y006108D02*
X021124Y005988D01*
X021204Y006028D01*
X021244Y006028D01*
X021284Y005988D01*
X021284Y005908D01*
X021244Y005868D01*
X021164Y005868D01*
X021124Y005908D01*
X020989Y005908D02*
X020949Y005868D01*
X020869Y005868D01*
X020829Y005908D01*
X021124Y006108D02*
X021284Y006108D01*
X021419Y006068D02*
X021419Y006028D01*
X021459Y005988D01*
X021539Y005988D01*
X021579Y005948D01*
X021579Y005908D01*
X021539Y005868D01*
X021459Y005868D01*
X021419Y005908D01*
X021419Y005948D01*
X021459Y005988D01*
X021539Y005988D02*
X021579Y006028D01*
X021579Y006068D01*
X021539Y006108D01*
X021459Y006108D01*
X021419Y006068D01*
X021422Y006340D02*
X021342Y006340D01*
X021302Y006380D01*
X021302Y006541D01*
X021342Y006581D01*
X021422Y006581D01*
X021462Y006541D01*
X021596Y006541D02*
X021636Y006581D01*
X021717Y006581D01*
X021757Y006541D01*
X021757Y006501D01*
X021717Y006461D01*
X021757Y006421D01*
X021757Y006380D01*
X021717Y006340D01*
X021636Y006340D01*
X021596Y006380D01*
X021676Y006461D02*
X021717Y006461D01*
X021891Y006380D02*
X021891Y006340D01*
X021891Y006380D02*
X022051Y006541D01*
X022051Y006581D01*
X021891Y006581D01*
X021462Y006380D02*
X021422Y006340D01*
X021263Y006813D02*
X021303Y006853D01*
X021303Y007013D01*
X021263Y007053D01*
X021183Y007053D01*
X021143Y007013D01*
X021143Y006973D01*
X021183Y006933D01*
X021303Y006933D01*
X021263Y006813D02*
X021183Y006813D01*
X021143Y006853D01*
X021009Y006853D02*
X020969Y006813D01*
X020888Y006813D01*
X020848Y006853D01*
X020928Y006933D02*
X020969Y006933D01*
X021009Y006893D01*
X021009Y006853D01*
X020969Y006933D02*
X021009Y006973D01*
X021009Y007013D01*
X020969Y007053D01*
X020888Y007053D01*
X020848Y007013D01*
X020714Y007013D02*
X020674Y007053D01*
X020594Y007053D01*
X020554Y007013D01*
X020554Y006853D01*
X020594Y006813D01*
X020674Y006813D01*
X020714Y006853D01*
X020549Y006485D02*
X020549Y006461D01*
X021061Y007366D02*
X021061Y007390D01*
X020952Y007886D02*
X020711Y008046D01*
X020751Y008181D02*
X020711Y008221D01*
X020711Y008301D01*
X020751Y008341D01*
X020791Y008341D01*
X020831Y008301D01*
X020871Y008341D01*
X020912Y008341D01*
X020952Y008301D01*
X020952Y008221D01*
X020912Y008181D01*
X020831Y008261D02*
X020831Y008301D01*
X021080Y008264D02*
X021080Y008107D01*
X020952Y008046D02*
X020711Y007886D01*
X021671Y008107D02*
X021671Y008264D01*
X022089Y008447D02*
X022089Y008608D01*
X022129Y008648D01*
X022209Y008648D01*
X022249Y008608D01*
X022384Y008527D02*
X022544Y008527D01*
X022504Y008407D02*
X022504Y008648D01*
X022384Y008527D01*
X022249Y008447D02*
X022209Y008407D01*
X022129Y008407D01*
X022089Y008447D01*
X022360Y008079D02*
X022360Y008055D01*
X022386Y007781D02*
X022266Y007661D01*
X022426Y007661D01*
X022386Y007541D02*
X022386Y007781D01*
X022560Y007701D02*
X022640Y007781D01*
X022640Y007541D01*
X022560Y007541D02*
X022721Y007541D01*
X022360Y007272D02*
X022360Y007248D01*
X022091Y007541D02*
X022131Y007581D01*
X022091Y007541D02*
X022011Y007541D01*
X021971Y007581D01*
X021971Y007741D01*
X022011Y007781D01*
X022091Y007781D01*
X022131Y007741D01*
X022719Y008407D02*
X022679Y008447D01*
X022839Y008608D01*
X022839Y008447D01*
X022799Y008407D01*
X022719Y008407D01*
X022679Y008447D02*
X022679Y008608D01*
X022719Y008648D01*
X022799Y008648D01*
X022839Y008608D01*
X023382Y008693D02*
X024802Y008693D01*
X024362Y008544D02*
X024322Y008584D01*
X024242Y008584D01*
X024202Y008544D01*
X024068Y008584D02*
X024068Y008384D01*
X024028Y008344D01*
X023948Y008344D01*
X023908Y008384D01*
X023908Y008584D01*
X023929Y008791D02*
X023862Y008858D01*
X023929Y008924D01*
X024062Y008924D01*
X023962Y008924D02*
X023962Y008791D01*
X023929Y008791D02*
X024062Y008791D01*
X024062Y009049D02*
X023862Y009049D01*
X023862Y009149D01*
X023896Y009182D01*
X024029Y009182D01*
X024062Y009149D01*
X024062Y009049D01*
X024062Y009306D02*
X023862Y009306D01*
X023929Y009373D01*
X023862Y009440D01*
X024062Y009440D01*
X024029Y009564D02*
X024062Y009598D01*
X024062Y009664D01*
X024029Y009698D01*
X023996Y009698D01*
X023962Y009664D01*
X023962Y009631D01*
X023962Y009664D02*
X023929Y009698D01*
X023896Y009698D01*
X023862Y009664D01*
X023862Y009598D01*
X023896Y009564D01*
X023962Y009822D02*
X023862Y009922D01*
X024062Y009922D01*
X023962Y009955D02*
X023962Y009822D01*
X023929Y010080D02*
X023896Y010080D01*
X023862Y010113D01*
X023862Y010180D01*
X023896Y010213D01*
X024029Y010213D01*
X024062Y010180D01*
X024062Y010113D01*
X024029Y010080D01*
X023962Y010113D02*
X023962Y010213D01*
X023962Y010113D02*
X023929Y010080D01*
X023896Y010338D02*
X023862Y010371D01*
X023862Y010438D01*
X023896Y010471D01*
X023929Y010471D01*
X023962Y010438D01*
X023996Y010471D01*
X024029Y010471D01*
X024062Y010438D01*
X024062Y010371D01*
X024029Y010338D01*
X023962Y010404D02*
X023962Y010438D01*
X023645Y010333D02*
X023647Y010348D01*
X023653Y010361D01*
X023662Y010373D01*
X023673Y010382D01*
X023687Y010388D01*
X023702Y010390D01*
X023717Y010388D01*
X023730Y010382D01*
X023742Y010373D01*
X023751Y010362D01*
X023757Y010348D01*
X023759Y010333D01*
X023757Y010318D01*
X023751Y010305D01*
X023742Y010293D01*
X023731Y010284D01*
X023717Y010278D01*
X023702Y010276D01*
X023687Y010278D01*
X023674Y010284D01*
X023662Y010293D01*
X023653Y010304D01*
X023647Y010318D01*
X023645Y010333D01*
X023647Y010348D01*
X023653Y010361D01*
X023662Y010373D01*
X023673Y010382D01*
X023687Y010388D01*
X023702Y010390D01*
X023717Y010388D01*
X023730Y010382D01*
X023742Y010373D01*
X023751Y010362D01*
X023757Y010348D01*
X023759Y010333D01*
X023757Y010318D01*
X023751Y010305D01*
X023742Y010293D01*
X023731Y010284D01*
X023717Y010278D01*
X023702Y010276D01*
X023687Y010278D01*
X023674Y010284D01*
X023662Y010293D01*
X023653Y010304D01*
X023647Y010318D01*
X023645Y010333D01*
X023382Y010552D02*
X024802Y010552D01*
X024476Y010890D02*
X024476Y010914D01*
X024239Y011267D02*
X024239Y011507D01*
X024119Y011387D01*
X024279Y011387D01*
X023984Y011387D02*
X023824Y011387D01*
X023944Y011507D01*
X023944Y011267D01*
X023689Y011307D02*
X023649Y011267D01*
X023569Y011267D01*
X023529Y011307D01*
X023529Y011467D01*
X023569Y011507D01*
X023649Y011507D01*
X023689Y011467D01*
X023304Y011290D02*
X023264Y011330D01*
X023184Y011330D01*
X023144Y011290D01*
X023010Y011290D02*
X022970Y011330D01*
X022850Y011330D01*
X022850Y011090D01*
X022850Y011170D02*
X022970Y011170D01*
X023010Y011210D01*
X023010Y011290D01*
X022930Y011170D02*
X023010Y011090D01*
X023144Y011090D02*
X023304Y011250D01*
X023304Y011290D01*
X023304Y011090D02*
X023144Y011090D01*
X023419Y011904D02*
X025199Y011904D01*
X025156Y011812D02*
X025022Y011812D01*
X024989Y011779D01*
X024989Y011712D01*
X025022Y011679D01*
X025056Y011679D01*
X025089Y011712D01*
X025089Y011812D01*
X025156Y011812D02*
X025189Y011779D01*
X025189Y011712D01*
X025156Y011679D01*
X025189Y011554D02*
X025189Y011421D01*
X025056Y011554D01*
X025022Y011554D01*
X024989Y011521D01*
X024989Y011454D01*
X025022Y011421D01*
X025022Y011296D02*
X024989Y011263D01*
X024989Y011196D01*
X025022Y011163D01*
X025156Y011163D01*
X025189Y011196D01*
X025189Y011263D01*
X025156Y011296D01*
X025458Y011099D02*
X025482Y011099D01*
X024562Y012103D02*
X024562Y012890D01*
X024021Y012497D01*
X024021Y012890D01*
X024021Y012497D02*
X024562Y012103D01*
X024021Y012103D02*
X024021Y012497D01*
X023419Y013089D02*
X025199Y013089D01*
X025527Y013931D02*
X025527Y014051D01*
X025567Y014091D01*
X025647Y014091D01*
X025687Y014051D01*
X025687Y013931D01*
X025767Y013931D02*
X025527Y013931D01*
X025567Y014225D02*
X025607Y014225D01*
X025647Y014265D01*
X025647Y014345D01*
X025687Y014385D01*
X025727Y014385D01*
X025767Y014345D01*
X025767Y014265D01*
X025727Y014225D01*
X025567Y014225D02*
X025527Y014265D01*
X025527Y014345D01*
X025567Y014385D01*
X025527Y014520D02*
X025607Y014600D01*
X025527Y014680D01*
X025767Y014680D01*
X025767Y014815D02*
X025527Y014815D01*
X025767Y014975D01*
X025527Y014975D01*
X025567Y015109D02*
X025527Y015149D01*
X025527Y015229D01*
X025567Y015269D01*
X025607Y015269D01*
X025767Y015109D01*
X025767Y015269D01*
X025767Y015404D02*
X025527Y015404D01*
X025527Y015524D01*
X025567Y015564D01*
X025647Y015564D01*
X025687Y015524D01*
X025687Y015404D01*
X025687Y015484D02*
X025767Y015564D01*
X025727Y015699D02*
X025767Y015739D01*
X025767Y015819D01*
X025727Y015859D01*
X025647Y015859D01*
X025607Y015819D01*
X025607Y015779D01*
X025647Y015699D01*
X025527Y015699D01*
X025527Y015859D01*
X025527Y014520D02*
X025767Y014520D01*
X026356Y014701D02*
X026358Y014752D01*
X026364Y014803D01*
X026374Y014853D01*
X026387Y014903D01*
X026405Y014951D01*
X026425Y014998D01*
X026450Y015043D01*
X026478Y015086D01*
X026509Y015127D01*
X026543Y015165D01*
X026580Y015200D01*
X026619Y015233D01*
X026661Y015263D01*
X026705Y015289D01*
X026751Y015311D01*
X026799Y015331D01*
X026848Y015346D01*
X026898Y015358D01*
X026948Y015366D01*
X026999Y015370D01*
X027051Y015370D01*
X027102Y015366D01*
X027152Y015358D01*
X027202Y015346D01*
X027251Y015331D01*
X027299Y015311D01*
X027345Y015289D01*
X027389Y015263D01*
X027431Y015233D01*
X027470Y015200D01*
X027507Y015165D01*
X027541Y015127D01*
X027572Y015086D01*
X027600Y015043D01*
X027625Y014998D01*
X027645Y014951D01*
X027663Y014903D01*
X027676Y014853D01*
X027686Y014803D01*
X027692Y014752D01*
X027694Y014701D01*
X027692Y014650D01*
X027686Y014599D01*
X027676Y014549D01*
X027663Y014499D01*
X027645Y014451D01*
X027625Y014404D01*
X027600Y014359D01*
X027572Y014316D01*
X027541Y014275D01*
X027507Y014237D01*
X027470Y014202D01*
X027431Y014169D01*
X027389Y014139D01*
X027345Y014113D01*
X027299Y014091D01*
X027251Y014071D01*
X027202Y014056D01*
X027152Y014044D01*
X027102Y014036D01*
X027051Y014032D01*
X026999Y014032D01*
X026948Y014036D01*
X026898Y014044D01*
X026848Y014056D01*
X026799Y014071D01*
X026751Y014091D01*
X026705Y014113D01*
X026661Y014139D01*
X026619Y014169D01*
X026580Y014202D01*
X026543Y014237D01*
X026509Y014275D01*
X026478Y014316D01*
X026450Y014359D01*
X026425Y014404D01*
X026405Y014451D01*
X026387Y014499D01*
X026374Y014549D01*
X026364Y014599D01*
X026358Y014650D01*
X026356Y014701D01*
X025844Y014701D02*
X025846Y014770D01*
X025852Y014838D01*
X025862Y014906D01*
X025876Y014973D01*
X025894Y015040D01*
X025915Y015105D01*
X025941Y015169D01*
X025970Y015231D01*
X026002Y015291D01*
X026038Y015350D01*
X026078Y015406D01*
X026120Y015460D01*
X026166Y015511D01*
X026215Y015560D01*
X026266Y015606D01*
X026320Y015648D01*
X026376Y015688D01*
X026434Y015724D01*
X026495Y015756D01*
X026557Y015785D01*
X026621Y015811D01*
X026686Y015832D01*
X026753Y015850D01*
X026820Y015864D01*
X026888Y015874D01*
X026956Y015880D01*
X027025Y015882D01*
X027094Y015880D01*
X027162Y015874D01*
X027230Y015864D01*
X027297Y015850D01*
X027364Y015832D01*
X027429Y015811D01*
X027493Y015785D01*
X027555Y015756D01*
X027615Y015724D01*
X027674Y015688D01*
X027730Y015648D01*
X027784Y015606D01*
X027835Y015560D01*
X027884Y015511D01*
X027930Y015460D01*
X027972Y015406D01*
X028012Y015350D01*
X028048Y015292D01*
X028080Y015231D01*
X028109Y015169D01*
X028135Y015105D01*
X028156Y015040D01*
X028174Y014973D01*
X028188Y014906D01*
X028198Y014838D01*
X028204Y014770D01*
X028206Y014701D01*
X028204Y014632D01*
X028198Y014564D01*
X028188Y014496D01*
X028174Y014429D01*
X028156Y014362D01*
X028135Y014297D01*
X028109Y014233D01*
X028080Y014171D01*
X028048Y014110D01*
X028012Y014052D01*
X027972Y013996D01*
X027930Y013942D01*
X027884Y013891D01*
X027835Y013842D01*
X027784Y013796D01*
X027730Y013754D01*
X027674Y013714D01*
X027616Y013678D01*
X027555Y013646D01*
X027493Y013617D01*
X027429Y013591D01*
X027364Y013570D01*
X027297Y013552D01*
X027230Y013538D01*
X027162Y013528D01*
X027094Y013522D01*
X027025Y013520D01*
X026956Y013522D01*
X026888Y013528D01*
X026820Y013538D01*
X026753Y013552D01*
X026686Y013570D01*
X026621Y013591D01*
X026557Y013617D01*
X026495Y013646D01*
X026434Y013678D01*
X026376Y013714D01*
X026320Y013754D01*
X026266Y013796D01*
X026215Y013842D01*
X026166Y013891D01*
X026120Y013942D01*
X026078Y013996D01*
X026038Y014052D01*
X026002Y014110D01*
X025970Y014171D01*
X025941Y014233D01*
X025915Y014297D01*
X025894Y014362D01*
X025876Y014429D01*
X025862Y014496D01*
X025852Y014564D01*
X025846Y014632D01*
X025844Y014701D01*
X022867Y013202D02*
X022827Y013202D01*
X022667Y013362D01*
X022627Y013362D01*
X022627Y013202D01*
X022667Y013067D02*
X022627Y013027D01*
X022627Y012907D01*
X022867Y012907D01*
X022867Y013027D01*
X022827Y013067D01*
X022667Y013067D01*
X022534Y013602D02*
X022374Y013602D01*
X022334Y013642D01*
X022334Y013722D01*
X022374Y013762D01*
X022534Y013762D01*
X022574Y013722D01*
X022574Y013642D01*
X022534Y013602D01*
X022494Y013682D02*
X022574Y013762D01*
X022454Y013897D02*
X022454Y014057D01*
X022334Y014017D02*
X022454Y013897D01*
X022574Y014017D02*
X022334Y014017D01*
X022100Y014007D02*
X022060Y014047D01*
X021899Y014047D01*
X021859Y014007D01*
X021859Y013927D01*
X021899Y013887D01*
X022060Y013887D01*
X022100Y013927D01*
X022100Y014007D01*
X022060Y014182D02*
X022100Y014222D01*
X022100Y014302D01*
X022060Y014342D01*
X022020Y014342D01*
X021979Y014302D01*
X021979Y014222D01*
X021939Y014182D01*
X021899Y014182D01*
X021859Y014222D01*
X021859Y014302D01*
X021899Y014342D01*
X021329Y014458D02*
X021289Y014418D01*
X021209Y014418D01*
X021169Y014458D01*
X021169Y014538D02*
X021249Y014578D01*
X021289Y014578D01*
X021329Y014538D01*
X021329Y014458D01*
X021169Y014538D02*
X021169Y014658D01*
X021329Y014658D01*
X021435Y014721D02*
X021435Y015036D01*
X021671Y015036D01*
X022301Y015036D02*
X022537Y015036D01*
X022537Y014721D01*
X022100Y013753D02*
X021859Y013753D01*
X021939Y013673D01*
X021859Y013593D01*
X022100Y013593D01*
X022100Y013458D02*
X021859Y013458D01*
X021859Y013298D02*
X022100Y013458D01*
X022100Y013298D02*
X021859Y013298D01*
X021776Y012250D02*
X021816Y012210D01*
X021816Y012130D01*
X021776Y012090D01*
X021656Y012090D01*
X021736Y012090D02*
X021816Y012010D01*
X021951Y012050D02*
X021991Y012010D01*
X022071Y012010D01*
X022111Y012050D01*
X022111Y012210D01*
X022071Y012250D01*
X021991Y012250D01*
X021951Y012210D01*
X021951Y012170D01*
X021991Y012130D01*
X022111Y012130D01*
X021776Y012250D02*
X021656Y012250D01*
X021656Y012010D01*
X021649Y011350D02*
X021609Y011310D01*
X021609Y011149D01*
X021649Y011109D01*
X021729Y011109D01*
X021769Y011149D01*
X021904Y011230D02*
X022064Y011230D01*
X022024Y011350D02*
X022024Y011109D01*
X021904Y011230D02*
X022024Y011350D01*
X021769Y011310D02*
X021729Y011350D01*
X021649Y011350D01*
X021887Y010796D02*
X021887Y010772D01*
X020876Y010508D02*
X020852Y010508D01*
X020543Y010711D02*
X020543Y010791D01*
X020503Y010831D01*
X020543Y010711D02*
X020503Y010671D01*
X020343Y010671D01*
X020303Y010711D01*
X020303Y010791D01*
X020343Y010831D01*
X020303Y010965D02*
X020423Y010965D01*
X020383Y011045D01*
X020383Y011086D01*
X020423Y011126D01*
X020503Y011126D01*
X020543Y011086D01*
X020543Y011005D01*
X020503Y010965D01*
X020303Y010965D02*
X020303Y011126D01*
X020290Y011287D02*
X020290Y011527D01*
X020411Y011527D01*
X020451Y011487D01*
X020451Y011407D01*
X020411Y011367D01*
X020290Y011367D01*
X020371Y011367D02*
X020451Y011287D01*
X020585Y011327D02*
X020585Y011367D01*
X020625Y011407D01*
X020705Y011407D01*
X020745Y011367D01*
X020745Y011327D01*
X020705Y011287D01*
X020625Y011287D01*
X020585Y011327D01*
X020625Y011407D02*
X020585Y011447D01*
X020585Y011487D01*
X020625Y011527D01*
X020705Y011527D01*
X020745Y011487D01*
X020745Y011447D01*
X020705Y011407D01*
X019886Y011655D02*
X019726Y011655D01*
X019806Y011655D02*
X019806Y011896D01*
X019726Y011816D01*
X019591Y011816D02*
X019591Y011856D01*
X019551Y011896D01*
X019471Y011896D01*
X019431Y011856D01*
X019297Y011856D02*
X019257Y011896D01*
X019176Y011896D01*
X019136Y011856D01*
X019136Y011695D01*
X019176Y011655D01*
X019257Y011655D01*
X019297Y011695D01*
X019431Y011655D02*
X019591Y011816D01*
X019591Y011655D02*
X019431Y011655D01*
X019525Y011367D02*
X019525Y011343D01*
X018764Y011676D02*
X018724Y011636D01*
X018644Y011636D01*
X018604Y011676D01*
X018684Y011756D02*
X018724Y011756D01*
X018764Y011716D01*
X018764Y011676D01*
X018724Y011756D02*
X018764Y011796D01*
X018764Y011836D01*
X018724Y011876D01*
X018644Y011876D01*
X018604Y011836D01*
X018469Y011756D02*
X018309Y011756D01*
X018429Y011876D01*
X018429Y011636D01*
X018175Y011676D02*
X018134Y011636D01*
X018054Y011636D01*
X018014Y011676D01*
X018014Y011836D01*
X018054Y011876D01*
X018134Y011876D01*
X018175Y011836D01*
X017852Y011886D02*
X017852Y011749D01*
X017714Y011749D01*
X018324Y011367D02*
X018324Y011343D01*
X018272Y011029D02*
X018112Y011029D01*
X017978Y010989D02*
X017938Y011029D01*
X017858Y011029D01*
X017818Y010989D01*
X017818Y010829D01*
X017858Y010789D01*
X017938Y010789D01*
X017978Y010829D01*
X018112Y010829D02*
X018112Y010789D01*
X018112Y010829D02*
X018272Y010989D01*
X018272Y011029D01*
X018239Y010679D02*
X018159Y010679D01*
X018119Y010639D01*
X018239Y010679D02*
X018280Y010639D01*
X018280Y010599D01*
X018119Y010439D01*
X018280Y010439D01*
X018414Y010479D02*
X018574Y010639D01*
X018574Y010479D01*
X018534Y010439D01*
X018454Y010439D01*
X018414Y010479D01*
X018414Y010639D01*
X018454Y010679D01*
X018534Y010679D01*
X018574Y010639D01*
X018709Y010639D02*
X018749Y010679D01*
X018829Y010679D01*
X018869Y010639D01*
X018709Y010479D01*
X018749Y010439D01*
X018829Y010439D01*
X018869Y010479D01*
X018869Y010639D01*
X018709Y010639D02*
X018709Y010479D01*
X017985Y010479D02*
X017945Y010439D01*
X017865Y010439D01*
X017825Y010479D01*
X017905Y010559D02*
X017945Y010559D01*
X017985Y010519D01*
X017985Y010479D01*
X017945Y010559D02*
X017985Y010599D01*
X017985Y010639D01*
X017945Y010679D01*
X017865Y010679D01*
X017825Y010639D01*
X017690Y010559D02*
X017530Y010559D01*
X017396Y010559D02*
X017316Y010559D01*
X017396Y010559D02*
X017396Y010479D01*
X017356Y010439D01*
X017275Y010439D01*
X017235Y010479D01*
X017235Y010639D01*
X017275Y010679D01*
X017356Y010679D01*
X017396Y010639D01*
X017101Y010679D02*
X016941Y010679D01*
X017021Y010679D02*
X017021Y010439D01*
X016824Y010439D02*
X016744Y010439D01*
X016784Y010439D02*
X016784Y010679D01*
X016744Y010679D02*
X016824Y010679D01*
X016691Y010567D02*
X016612Y010567D01*
X016612Y010666D01*
X016179Y011099D01*
X016179Y011414D01*
X016336Y011571D01*
X016277Y011749D02*
X016277Y011886D01*
X016277Y011749D02*
X016415Y011749D01*
X017143Y011052D02*
X017143Y011028D01*
X016218Y009893D02*
X016138Y009853D01*
X016058Y009773D01*
X016178Y009773D01*
X016218Y009733D01*
X016218Y009693D01*
X016178Y009653D01*
X016098Y009653D01*
X016058Y009693D01*
X016058Y009773D01*
X015923Y009813D02*
X015883Y009773D01*
X015923Y009733D01*
X015923Y009693D01*
X015883Y009653D01*
X015803Y009653D01*
X015763Y009693D01*
X015843Y009773D02*
X015883Y009773D01*
X015923Y009813D02*
X015923Y009853D01*
X015883Y009893D01*
X015803Y009893D01*
X015763Y009853D01*
X015628Y009853D02*
X015628Y009773D01*
X015588Y009733D01*
X015468Y009733D01*
X015468Y009653D02*
X015468Y009893D01*
X015588Y009893D01*
X015628Y009853D01*
X015548Y009733D02*
X015628Y009653D01*
X015606Y009460D02*
X015566Y009420D01*
X015606Y009460D02*
X015686Y009460D01*
X015726Y009420D01*
X015726Y009380D01*
X015566Y009220D01*
X015726Y009220D01*
X015861Y009220D02*
X015861Y009260D01*
X016021Y009420D01*
X016021Y009460D01*
X015861Y009460D01*
X015432Y009420D02*
X015391Y009460D01*
X015311Y009460D01*
X015271Y009420D01*
X015271Y009260D01*
X015311Y009220D01*
X015391Y009220D01*
X015432Y009260D01*
X015458Y008990D02*
X015298Y008990D01*
X015244Y008937D01*
X015298Y008883D01*
X015404Y008883D01*
X015458Y008830D01*
X015404Y008777D01*
X015244Y008777D01*
X015089Y008883D02*
X014876Y008883D01*
X014876Y008830D02*
X014876Y008937D01*
X014929Y008990D01*
X015036Y008990D01*
X015089Y008937D01*
X015089Y008883D01*
X015036Y008777D02*
X014929Y008777D01*
X014876Y008830D01*
X014721Y008777D02*
X014508Y008990D01*
X014353Y008937D02*
X014353Y008777D01*
X014193Y008777D01*
X014139Y008830D01*
X014193Y008883D01*
X014353Y008883D01*
X014353Y008937D02*
X014299Y008990D01*
X014193Y008990D01*
X014508Y008777D02*
X014721Y008990D01*
X014742Y008599D02*
X014742Y008166D01*
X014958Y008382D02*
X014525Y008382D01*
X013837Y008264D02*
X013839Y008276D01*
X013844Y008287D01*
X013853Y008296D01*
X013864Y008301D01*
X013876Y008303D01*
X013888Y008301D01*
X013899Y008296D01*
X013908Y008287D01*
X013913Y008276D01*
X013915Y008264D01*
X013913Y008252D01*
X013908Y008241D01*
X013899Y008232D01*
X013888Y008227D01*
X013876Y008225D01*
X013864Y008227D01*
X013853Y008232D01*
X013844Y008241D01*
X013839Y008252D01*
X013837Y008264D01*
X013501Y008225D02*
X013499Y008263D01*
X013501Y008301D01*
X013507Y008338D01*
X013516Y008375D01*
X013529Y008411D01*
X013546Y008445D01*
X013567Y008477D01*
X013590Y008507D01*
X013617Y008535D01*
X013646Y008559D01*
X013677Y008580D01*
X013711Y008598D01*
X013746Y008613D01*
X013783Y008624D01*
X013820Y008631D01*
X013858Y008634D01*
X013896Y008633D01*
X013934Y008628D01*
X013971Y008620D01*
X014007Y008607D01*
X014041Y008591D01*
X014074Y008572D01*
X014105Y008549D01*
X014133Y008523D01*
X014158Y008495D01*
X014180Y008464D01*
X014199Y008431D01*
X014215Y008396D01*
X014226Y008360D01*
X014234Y008323D01*
X014238Y008285D01*
X014239Y008247D01*
X014235Y008209D01*
X014227Y008171D01*
X014216Y008135D01*
X014201Y008100D01*
X014182Y008067D01*
X014160Y008036D01*
X014135Y008007D01*
X014107Y007981D01*
X014077Y007958D01*
X014044Y007938D01*
X014010Y007922D01*
X013974Y007909D01*
X013679Y008264D02*
X013681Y008291D01*
X013687Y008318D01*
X013696Y008344D01*
X013709Y008368D01*
X013725Y008391D01*
X013744Y008410D01*
X013766Y008427D01*
X013790Y008441D01*
X013815Y008451D01*
X013842Y008458D01*
X013869Y008461D01*
X013897Y008460D01*
X013924Y008455D01*
X013950Y008447D01*
X013974Y008435D01*
X013997Y008419D01*
X014018Y008401D01*
X014035Y008380D01*
X014050Y008356D01*
X014061Y008331D01*
X014069Y008305D01*
X014073Y008278D01*
X014073Y008250D01*
X014069Y008223D01*
X014061Y008197D01*
X014050Y008172D01*
X014035Y008148D01*
X014018Y008127D01*
X013997Y008109D01*
X013975Y008093D01*
X013950Y008081D01*
X013924Y008073D01*
X013897Y008068D01*
X013869Y008067D01*
X013842Y008070D01*
X013815Y008077D01*
X013790Y008087D01*
X013766Y008101D01*
X013744Y008118D01*
X013725Y008137D01*
X013709Y008160D01*
X013696Y008184D01*
X013687Y008210D01*
X013681Y008237D01*
X013679Y008264D01*
X013600Y008323D02*
X013502Y008225D01*
X013403Y008323D01*
X013387Y008777D02*
X013280Y008777D01*
X013333Y008777D02*
X013333Y009097D01*
X013280Y009097D01*
X013125Y008937D02*
X013072Y008990D01*
X012965Y008990D01*
X012965Y008883D02*
X013125Y008883D01*
X013125Y008937D02*
X013125Y008777D01*
X012965Y008777D01*
X012912Y008830D01*
X012965Y008883D01*
X013525Y008777D02*
X013632Y008777D01*
X013579Y008777D02*
X013579Y009097D01*
X013525Y009097D01*
X014117Y009785D02*
X014117Y010026D01*
X014237Y010026D01*
X014277Y009986D01*
X014277Y009905D01*
X014237Y009865D01*
X014117Y009865D01*
X014197Y009865D02*
X014277Y009785D01*
X014411Y009825D02*
X014451Y009785D01*
X014531Y009785D01*
X014572Y009825D01*
X014572Y009865D01*
X014531Y009905D01*
X014491Y009905D01*
X014531Y009905D02*
X014572Y009945D01*
X014572Y009986D01*
X014531Y010026D01*
X014451Y010026D01*
X014411Y009986D01*
X014706Y010026D02*
X014706Y009905D01*
X014786Y009945D01*
X014826Y009945D01*
X014866Y009905D01*
X014866Y009825D01*
X014826Y009785D01*
X014746Y009785D01*
X014706Y009825D01*
X014706Y010026D02*
X014866Y010026D01*
X014604Y009516D02*
X014604Y009492D01*
X013744Y010317D02*
X013704Y010277D01*
X013624Y010277D01*
X013584Y010317D01*
X013744Y010478D01*
X013744Y010317D01*
X013584Y010317D02*
X013584Y010478D01*
X013624Y010518D01*
X013704Y010518D01*
X013744Y010478D01*
X013449Y010518D02*
X013289Y010518D01*
X013289Y010398D01*
X013369Y010438D01*
X013409Y010438D01*
X013449Y010398D01*
X013449Y010317D01*
X013409Y010277D01*
X013329Y010277D01*
X013289Y010317D01*
X013155Y010317D02*
X013115Y010277D01*
X013035Y010277D01*
X012995Y010317D01*
X012995Y010478D01*
X013035Y010518D01*
X013115Y010518D01*
X013155Y010478D01*
X013147Y010009D02*
X013147Y009985D01*
X012359Y010283D02*
X012319Y010243D01*
X012239Y010243D01*
X012199Y010283D01*
X012199Y010323D01*
X012239Y010363D01*
X012319Y010363D01*
X012359Y010323D01*
X012359Y010283D01*
X012319Y010363D02*
X012359Y010403D01*
X012359Y010443D01*
X012319Y010484D01*
X012239Y010484D01*
X012199Y010443D01*
X012199Y010403D01*
X012239Y010363D01*
X012065Y010243D02*
X011905Y010243D01*
X011905Y010484D01*
X011927Y011109D02*
X011967Y011149D01*
X011927Y011109D02*
X011847Y011109D01*
X011807Y011149D01*
X011807Y011310D01*
X011847Y011350D01*
X011927Y011350D01*
X011967Y011310D01*
X012101Y011350D02*
X012101Y011230D01*
X012182Y011270D01*
X012222Y011270D01*
X012262Y011230D01*
X012262Y011149D01*
X012222Y011109D01*
X012141Y011109D01*
X012101Y011149D01*
X012101Y011350D02*
X012262Y011350D01*
X012396Y011270D02*
X012476Y011350D01*
X012476Y011109D01*
X012396Y011109D02*
X012556Y011109D01*
X012517Y011677D02*
X012517Y011701D01*
X012127Y012023D02*
X012127Y012170D01*
X012090Y012299D02*
X012127Y012336D01*
X012127Y012409D01*
X012090Y012446D01*
X012054Y012446D01*
X012017Y012409D01*
X012017Y012336D01*
X011980Y012299D01*
X011943Y012299D01*
X011907Y012336D01*
X011907Y012409D01*
X011943Y012446D01*
X011907Y012575D02*
X011980Y012649D01*
X011907Y012722D01*
X012127Y012722D01*
X012090Y012851D02*
X012127Y012888D01*
X012127Y012961D01*
X012090Y012998D01*
X012054Y012998D01*
X012017Y012961D01*
X012017Y012925D01*
X012017Y012961D02*
X011980Y012998D01*
X011943Y012998D01*
X011907Y012961D01*
X011907Y012888D01*
X011943Y012851D01*
X011907Y012575D02*
X012127Y012575D01*
X012360Y012339D02*
X012360Y012142D01*
X012557Y012142D01*
X012127Y012023D02*
X011907Y012023D01*
X011943Y013128D02*
X011907Y013164D01*
X011907Y013238D01*
X011943Y013274D01*
X012090Y013128D01*
X012127Y013164D01*
X012127Y013238D01*
X012090Y013274D01*
X011943Y013274D01*
X011943Y013404D02*
X011907Y013441D01*
X011907Y013514D01*
X011943Y013551D01*
X011980Y013551D01*
X012017Y013514D01*
X012054Y013551D01*
X012090Y013551D01*
X012127Y013514D01*
X012127Y013441D01*
X012090Y013404D01*
X012017Y013477D02*
X012017Y013514D01*
X011907Y013680D02*
X012127Y013680D01*
X012127Y013790D01*
X012090Y013827D01*
X011943Y013827D01*
X011907Y013790D01*
X011907Y013680D01*
X011693Y013756D02*
X011693Y015934D01*
X012302Y015957D02*
X012428Y015957D01*
X012365Y015957D02*
X012365Y015767D01*
X012550Y015767D02*
X012550Y015957D01*
X012645Y015957D01*
X012677Y015925D01*
X012677Y015862D01*
X012645Y015830D01*
X012550Y015830D01*
X012799Y015798D02*
X012831Y015767D01*
X012894Y015767D01*
X012926Y015798D01*
X012926Y015830D01*
X012894Y015862D01*
X012831Y015862D01*
X012799Y015894D01*
X012799Y015925D01*
X012831Y015957D01*
X012894Y015957D01*
X012926Y015925D01*
X013047Y015957D02*
X013174Y015957D01*
X013174Y015925D01*
X013047Y015798D01*
X013047Y015767D01*
X013296Y015798D02*
X013328Y015767D01*
X013391Y015767D01*
X013423Y015798D01*
X013423Y015830D01*
X013391Y015862D01*
X013359Y015862D01*
X013391Y015862D02*
X013423Y015894D01*
X013423Y015925D01*
X013391Y015957D01*
X013328Y015957D01*
X013296Y015925D01*
X013545Y015894D02*
X013608Y015957D01*
X013608Y015767D01*
X013545Y015767D02*
X013671Y015767D01*
X013793Y015798D02*
X013825Y015767D01*
X013888Y015767D01*
X013920Y015798D01*
X013920Y015830D01*
X013888Y015862D01*
X013857Y015862D01*
X013888Y015862D02*
X013920Y015894D01*
X013920Y015925D01*
X013888Y015957D01*
X013825Y015957D01*
X013793Y015925D01*
X014042Y015925D02*
X014073Y015957D01*
X014137Y015957D01*
X014169Y015925D01*
X014169Y015894D01*
X014137Y015862D01*
X014169Y015830D01*
X014169Y015798D01*
X014137Y015767D01*
X014073Y015767D01*
X014042Y015798D01*
X014105Y015862D02*
X014137Y015862D01*
X014789Y015812D02*
X015127Y015812D01*
X015277Y015358D02*
X015277Y015147D01*
X015495Y015139D02*
X015495Y015339D01*
X015655Y015339D02*
X015655Y015139D01*
X015615Y015099D01*
X015535Y015099D01*
X015495Y015139D01*
X015790Y015181D02*
X015870Y015261D01*
X015870Y015020D01*
X015790Y015020D02*
X015950Y015020D01*
X016085Y015140D02*
X016245Y015140D01*
X016331Y015194D02*
X016331Y015034D01*
X016371Y014994D01*
X016451Y014994D01*
X016491Y015034D01*
X016626Y015034D02*
X016666Y014994D01*
X016746Y014994D01*
X016786Y015034D01*
X016786Y015074D01*
X016746Y015114D01*
X016706Y015114D01*
X016746Y015114D02*
X016786Y015154D01*
X016786Y015194D01*
X016746Y015234D01*
X016666Y015234D01*
X016626Y015194D01*
X016491Y015194D02*
X016451Y015234D01*
X016371Y015234D01*
X016331Y015194D01*
X016205Y015261D02*
X016085Y015140D01*
X016205Y015020D02*
X016205Y015261D01*
X016336Y015536D02*
X016336Y015560D01*
X016991Y015672D02*
X017031Y015632D01*
X017111Y015632D01*
X017151Y015672D01*
X017285Y015752D02*
X017446Y015752D01*
X017406Y015872D02*
X017285Y015752D01*
X017151Y015832D02*
X017111Y015872D01*
X017031Y015872D01*
X016991Y015832D01*
X016991Y015672D01*
X016961Y015234D02*
X017041Y015234D01*
X017081Y015194D01*
X017081Y015154D01*
X017041Y015114D01*
X017081Y015074D01*
X017081Y015034D01*
X017041Y014994D01*
X016961Y014994D01*
X016921Y015034D01*
X017001Y015114D02*
X017041Y015114D01*
X016921Y015194D02*
X016961Y015234D01*
X017348Y014937D02*
X017372Y014937D01*
X017931Y015311D02*
X017931Y015508D01*
X018639Y015508D01*
X018505Y015622D02*
X018545Y015662D01*
X018545Y015702D01*
X018505Y015742D01*
X018385Y015742D01*
X018385Y015662D01*
X018425Y015622D01*
X018505Y015622D01*
X018385Y015742D02*
X018465Y015822D01*
X018545Y015862D01*
X018250Y015862D02*
X018250Y015662D01*
X018210Y015622D01*
X018130Y015622D01*
X018090Y015662D01*
X018090Y015862D01*
X017740Y015832D02*
X017700Y015872D01*
X017620Y015872D01*
X017580Y015832D01*
X017740Y015832D02*
X017740Y015792D01*
X017580Y015632D01*
X017740Y015632D01*
X017406Y015632D02*
X017406Y015872D01*
X016338Y014733D02*
X016338Y014709D01*
X016324Y014435D02*
X016243Y014395D01*
X016163Y014315D01*
X016283Y014315D01*
X016324Y014275D01*
X016324Y014235D01*
X016283Y014195D01*
X016203Y014195D01*
X016163Y014235D01*
X016163Y014315D01*
X016029Y014395D02*
X015989Y014435D01*
X015909Y014435D01*
X015869Y014395D01*
X015869Y014235D01*
X015909Y014195D01*
X015989Y014195D01*
X016029Y014235D01*
X016380Y013926D02*
X016380Y013902D01*
X016459Y013652D02*
X016298Y013652D01*
X016298Y013532D01*
X016378Y013572D01*
X016419Y013572D01*
X016459Y013532D01*
X016459Y013452D01*
X016419Y013412D01*
X016338Y013412D01*
X016298Y013452D01*
X016277Y013323D02*
X016277Y013186D01*
X016277Y013323D02*
X016415Y013323D01*
X016164Y013452D02*
X016164Y013652D01*
X016004Y013652D02*
X016004Y013452D01*
X016044Y013412D01*
X016124Y013412D01*
X016164Y013452D01*
X017016Y013683D02*
X017056Y013643D01*
X017216Y013643D01*
X017256Y013683D01*
X017256Y013763D01*
X017216Y013803D01*
X017216Y013938D02*
X017176Y013938D01*
X017136Y013978D01*
X017136Y014058D01*
X017176Y014098D01*
X017216Y014098D01*
X017256Y014058D01*
X017256Y013978D01*
X017216Y013938D01*
X017136Y013978D02*
X017096Y013938D01*
X017056Y013938D01*
X017016Y013978D01*
X017016Y014058D01*
X017056Y014098D01*
X017096Y014098D01*
X017136Y014058D01*
X017056Y013803D02*
X017016Y013763D01*
X017016Y013683D01*
X017714Y013323D02*
X017852Y013323D01*
X017852Y013186D01*
X017931Y013540D02*
X017931Y013737D01*
X017931Y013540D02*
X018639Y013540D01*
X019191Y013540D02*
X019899Y013540D01*
X019899Y013737D01*
X019645Y013678D02*
X019647Y013693D01*
X019653Y013706D01*
X019662Y013718D01*
X019673Y013727D01*
X019687Y013733D01*
X019702Y013735D01*
X019717Y013733D01*
X019730Y013727D01*
X019742Y013718D01*
X019751Y013707D01*
X019757Y013693D01*
X019759Y013678D01*
X019757Y013663D01*
X019751Y013650D01*
X019742Y013638D01*
X019731Y013629D01*
X019717Y013623D01*
X019702Y013621D01*
X019687Y013623D01*
X019674Y013629D01*
X019662Y013638D01*
X019653Y013649D01*
X019647Y013663D01*
X019645Y013678D01*
X020160Y013538D02*
X020400Y013538D01*
X020400Y013458D02*
X020400Y013618D01*
X020240Y013458D02*
X020160Y013538D01*
X020200Y013324D02*
X020240Y013324D01*
X020280Y013283D01*
X020320Y013324D01*
X020360Y013324D01*
X020400Y013283D01*
X020400Y013203D01*
X020360Y013163D01*
X020280Y013243D02*
X020280Y013283D01*
X020200Y013324D02*
X020160Y013283D01*
X020160Y013203D01*
X020200Y013163D01*
X020200Y013029D02*
X020160Y012989D01*
X020160Y012909D01*
X020200Y012869D01*
X020360Y012869D01*
X020400Y012909D01*
X020400Y012989D01*
X020360Y013029D01*
X019872Y012811D02*
X019848Y012811D01*
X019532Y012781D02*
X019532Y012741D01*
X019492Y012701D01*
X019532Y012661D01*
X019532Y012621D01*
X019492Y012581D01*
X019412Y012581D01*
X019372Y012621D01*
X019452Y012701D02*
X019492Y012701D01*
X019532Y012781D02*
X019492Y012821D01*
X019412Y012821D01*
X019372Y012781D01*
X019238Y012781D02*
X019238Y012701D01*
X019197Y012661D01*
X019077Y012661D01*
X019077Y012581D02*
X019077Y012821D01*
X019197Y012821D01*
X019238Y012781D01*
X019157Y012661D02*
X019238Y012581D01*
X018883Y012542D02*
X018883Y012702D01*
X018843Y012742D01*
X018762Y012742D01*
X018722Y012702D01*
X018722Y012662D01*
X018762Y012622D01*
X018883Y012622D01*
X018883Y012542D02*
X018843Y012502D01*
X018762Y012502D01*
X018722Y012542D01*
X018588Y012542D02*
X018548Y012502D01*
X018468Y012502D01*
X018428Y012542D01*
X018428Y012702D01*
X018468Y012742D01*
X018548Y012742D01*
X018588Y012702D01*
X018856Y012194D02*
X018856Y012170D01*
X020082Y010528D02*
X020242Y010367D01*
X020282Y010407D01*
X020282Y010488D01*
X020242Y010528D01*
X020082Y010528D01*
X020042Y010488D01*
X020042Y010407D01*
X020082Y010367D01*
X020242Y010367D01*
X020282Y010233D02*
X020282Y010073D01*
X020282Y010153D02*
X020042Y010153D01*
X020122Y010073D01*
X020082Y009938D02*
X020162Y009938D01*
X020202Y009898D01*
X020202Y009778D01*
X020202Y009858D02*
X020282Y009938D01*
X020282Y009778D02*
X020042Y009778D01*
X020042Y009898D01*
X020082Y009938D01*
X019533Y009543D02*
X019533Y007102D01*
X019424Y006993D01*
X016983Y006993D01*
X016875Y007102D01*
X016875Y009543D01*
X016983Y009651D01*
X019424Y009651D01*
X019533Y009543D01*
X019408Y008820D02*
X019328Y008820D01*
X019288Y008780D01*
X019368Y008700D02*
X019408Y008700D01*
X019448Y008660D01*
X019448Y008620D01*
X019408Y008580D01*
X019328Y008580D01*
X019288Y008620D01*
X019153Y008620D02*
X019113Y008580D01*
X019033Y008580D01*
X018993Y008620D01*
X019153Y008780D01*
X019153Y008620D01*
X018993Y008620D02*
X018993Y008780D01*
X019033Y008820D01*
X019113Y008820D01*
X019153Y008780D01*
X019408Y008820D02*
X019448Y008780D01*
X019448Y008740D01*
X019408Y008700D01*
X018858Y008580D02*
X018698Y008580D01*
X018778Y008580D02*
X018778Y008820D01*
X018698Y008740D01*
X018564Y008820D02*
X018404Y008820D01*
X018404Y008580D01*
X018404Y008700D02*
X018484Y008700D01*
X018269Y008740D02*
X018269Y008780D01*
X018229Y008820D01*
X018149Y008820D01*
X018109Y008780D01*
X017974Y008780D02*
X017974Y008740D01*
X017934Y008700D01*
X017974Y008660D01*
X017974Y008620D01*
X017934Y008580D01*
X017854Y008580D01*
X017814Y008620D01*
X017894Y008700D02*
X017934Y008700D01*
X017974Y008780D02*
X017934Y008820D01*
X017854Y008820D01*
X017814Y008780D01*
X017680Y008820D02*
X017680Y008580D01*
X017520Y008580D02*
X017520Y008820D01*
X017600Y008740D01*
X017680Y008820D01*
X017385Y008820D02*
X017225Y008820D01*
X017305Y008820D02*
X017305Y008580D01*
X017090Y008620D02*
X017050Y008580D01*
X016970Y008580D01*
X016930Y008620D01*
X016970Y008700D02*
X017050Y008700D01*
X017090Y008660D01*
X017090Y008620D01*
X016970Y008700D02*
X016930Y008740D01*
X016930Y008780D01*
X016970Y008820D01*
X017050Y008820D01*
X017090Y008780D01*
X017716Y008250D02*
X018136Y008250D01*
X018136Y008110D02*
X018136Y008390D01*
X018109Y008580D02*
X018269Y008740D01*
X018269Y008580D02*
X018109Y008580D01*
X017716Y008250D02*
X017856Y008110D01*
X017786Y007929D02*
X017716Y007859D01*
X017716Y007719D01*
X017786Y007649D01*
X018066Y007649D01*
X018136Y007719D01*
X018136Y007859D01*
X018066Y007929D01*
X018136Y007482D02*
X018136Y007342D01*
X018136Y007412D02*
X017716Y007412D01*
X017716Y007342D02*
X017716Y007482D01*
X015096Y007255D02*
X015016Y007215D01*
X014936Y007135D01*
X015056Y007135D01*
X015096Y007095D01*
X015096Y007055D01*
X015056Y007015D01*
X014976Y007015D01*
X014936Y007055D01*
X014936Y007135D01*
X014801Y007095D02*
X014801Y007055D01*
X014761Y007015D01*
X014681Y007015D01*
X014641Y007055D01*
X014721Y007135D02*
X014761Y007135D01*
X014801Y007095D01*
X014761Y007135D02*
X014801Y007175D01*
X014801Y007215D01*
X014761Y007255D01*
X014681Y007255D01*
X014641Y007215D01*
X014506Y007215D02*
X014466Y007255D01*
X014386Y007255D01*
X014346Y007215D01*
X014346Y007055D01*
X014386Y007015D01*
X014466Y007015D01*
X014506Y007055D01*
X014880Y007603D02*
X014880Y007627D01*
X012261Y006408D02*
X012261Y006368D01*
X012221Y006328D01*
X012261Y006288D01*
X012261Y006248D01*
X012221Y006208D01*
X012141Y006208D01*
X012101Y006248D01*
X012181Y006328D02*
X012221Y006328D01*
X012261Y006408D02*
X012221Y006448D01*
X012141Y006448D01*
X012101Y006408D01*
X011886Y006448D02*
X011886Y006208D01*
X011806Y006208D02*
X011966Y006208D01*
X011806Y006368D02*
X011886Y006448D01*
X011672Y006408D02*
X011672Y006328D01*
X011632Y006288D01*
X011512Y006288D01*
X011592Y006288D02*
X011672Y006208D01*
X011512Y006208D02*
X011512Y006448D01*
X011632Y006448D01*
X011672Y006408D01*
X011986Y005410D02*
X011317Y005410D01*
X010364Y005657D02*
X010204Y005657D01*
X010364Y005817D01*
X010364Y005857D01*
X010324Y005897D01*
X010244Y005897D01*
X010204Y005857D01*
X009989Y005897D02*
X009989Y005657D01*
X009909Y005657D02*
X010069Y005657D01*
X009909Y005817D02*
X009989Y005897D01*
X009775Y005857D02*
X009775Y005777D01*
X009735Y005737D01*
X009615Y005737D01*
X009695Y005737D02*
X009775Y005657D01*
X009615Y005657D02*
X009615Y005897D01*
X009735Y005897D01*
X009775Y005857D01*
X009432Y006368D02*
X009354Y006368D01*
X009432Y006368D02*
X009432Y007195D01*
X009405Y007197D01*
X009379Y007202D01*
X009354Y007211D01*
X009330Y007224D01*
X009308Y007239D01*
X009288Y007258D01*
X009271Y007278D01*
X009257Y007301D01*
X009246Y007326D01*
X009239Y007352D01*
X009235Y007379D01*
X009235Y007405D01*
X009239Y007432D01*
X009246Y007458D01*
X009257Y007483D01*
X009271Y007506D01*
X009288Y007526D01*
X009308Y007545D01*
X009330Y007560D01*
X009354Y007573D01*
X009379Y007582D01*
X009405Y007587D01*
X009432Y007589D01*
X009432Y008337D01*
X009354Y008337D01*
X009732Y008311D02*
X009732Y008190D01*
X009973Y008190D01*
X009893Y008190D02*
X009893Y008311D01*
X009853Y008351D01*
X009772Y008351D01*
X009732Y008311D01*
X009893Y008271D02*
X009973Y008351D01*
X009973Y008485D02*
X009973Y008645D01*
X009973Y008565D02*
X009732Y008565D01*
X009812Y008485D01*
X009853Y008780D02*
X009812Y008860D01*
X009812Y008900D01*
X009853Y008940D01*
X009933Y008940D01*
X009973Y008900D01*
X009973Y008820D01*
X009933Y008780D01*
X009853Y008780D02*
X009732Y008780D01*
X009732Y008940D01*
X009686Y009269D02*
X009526Y009509D01*
X009686Y009509D02*
X009526Y009269D01*
X009860Y009386D02*
X010687Y009386D01*
X010569Y009268D01*
X010687Y009386D02*
X010569Y009504D01*
X010637Y009019D02*
X010597Y008979D01*
X010597Y008899D01*
X010637Y008859D01*
X010637Y008725D02*
X010597Y008685D01*
X010597Y008564D01*
X010837Y008564D01*
X010837Y008685D01*
X010797Y008725D01*
X010637Y008725D01*
X010837Y008859D02*
X010677Y009019D01*
X010637Y009019D01*
X010837Y009019D02*
X010837Y008859D01*
X010844Y008441D02*
X010844Y007890D01*
X011356Y007890D01*
X011356Y008441D01*
X011465Y008584D02*
X011465Y008704D01*
X011505Y008744D01*
X011585Y008744D01*
X011625Y008704D01*
X011625Y008584D01*
X011705Y008584D02*
X011465Y008584D01*
X011625Y008664D02*
X011705Y008744D01*
X011705Y008879D02*
X011705Y009039D01*
X011705Y008959D02*
X011465Y008959D01*
X011545Y008879D01*
X011545Y009173D02*
X011465Y009254D01*
X011705Y009254D01*
X011705Y009334D02*
X011705Y009173D01*
X011356Y007890D02*
X011356Y007733D01*
X010844Y007733D02*
X010844Y007890D01*
X009902Y007791D02*
X009902Y007631D01*
X009902Y007711D02*
X009662Y007711D01*
X009742Y007631D01*
X009902Y007496D02*
X009902Y007336D01*
X009902Y007416D02*
X009662Y007416D01*
X009742Y007336D01*
X009662Y007202D02*
X009862Y007202D01*
X009902Y007162D01*
X009902Y007082D01*
X009862Y007042D01*
X009662Y007042D01*
X009111Y007569D02*
X009071Y007529D01*
X008951Y007529D01*
X008951Y007770D01*
X009071Y007770D01*
X009111Y007730D01*
X009111Y007689D01*
X009071Y007649D01*
X008951Y007649D01*
X009071Y007649D02*
X009111Y007609D01*
X009111Y007569D01*
X008816Y007649D02*
X008656Y007649D01*
X008776Y007770D01*
X008776Y007529D01*
X008522Y007569D02*
X008522Y007730D01*
X008362Y007569D01*
X008402Y007529D01*
X008482Y007529D01*
X008522Y007569D01*
X008362Y007569D02*
X008362Y007730D01*
X008402Y007770D01*
X008482Y007770D01*
X008522Y007730D01*
X008227Y007770D02*
X008067Y007770D01*
X008067Y007649D01*
X008147Y007689D01*
X008187Y007689D01*
X008227Y007649D01*
X008227Y007569D01*
X008187Y007529D01*
X008107Y007529D01*
X008067Y007569D01*
X007933Y007649D02*
X007772Y007649D01*
X007892Y007770D01*
X007892Y007529D01*
X007638Y007569D02*
X007638Y007730D01*
X007598Y007770D01*
X007478Y007770D01*
X007478Y007529D01*
X007598Y007529D01*
X007638Y007569D01*
X007343Y007569D02*
X007303Y007529D01*
X007223Y007529D01*
X007183Y007569D01*
X007183Y007730D01*
X007223Y007770D01*
X007303Y007770D01*
X007343Y007730D01*
X006867Y007793D02*
X006787Y007713D01*
X006787Y007753D02*
X006787Y007633D01*
X006867Y007633D02*
X006627Y007633D01*
X006627Y007753D01*
X006667Y007793D01*
X006747Y007793D01*
X006787Y007753D01*
X006827Y007927D02*
X006867Y007967D01*
X006867Y008047D01*
X006827Y008087D01*
X006787Y008087D01*
X006747Y008047D01*
X006747Y008007D01*
X006747Y008047D02*
X006707Y008087D01*
X006667Y008087D01*
X006627Y008047D01*
X006627Y007967D01*
X006667Y007927D01*
X006667Y008222D02*
X006627Y008262D01*
X006627Y008342D01*
X006667Y008382D01*
X006707Y008382D01*
X006867Y008222D01*
X006867Y008382D01*
X007031Y008337D02*
X007031Y006368D01*
X007110Y006368D01*
X006781Y006020D02*
X006757Y006020D01*
X006404Y006056D02*
X006404Y006217D01*
X006244Y006217D02*
X006404Y006056D01*
X006404Y005922D02*
X006404Y005762D01*
X006404Y005842D02*
X006164Y005842D01*
X006244Y005762D01*
X006204Y005627D02*
X006164Y005587D01*
X006164Y005507D01*
X006204Y005467D01*
X006364Y005467D01*
X006404Y005507D01*
X006404Y005587D01*
X006364Y005627D01*
X006204Y006056D02*
X006164Y006096D01*
X006164Y006177D01*
X006204Y006217D01*
X006244Y006217D01*
X006061Y005134D02*
X006730Y005134D01*
X007324Y005040D02*
X007324Y004018D01*
X007478Y003914D02*
X007950Y003914D01*
X008108Y004052D01*
X008108Y005016D01*
X007950Y005134D01*
X007478Y005134D01*
X008264Y005362D02*
X008304Y005322D01*
X008384Y005322D01*
X008424Y005362D01*
X008558Y005322D02*
X008718Y005482D01*
X008718Y005522D01*
X008678Y005562D01*
X008598Y005562D01*
X008558Y005522D01*
X008424Y005522D02*
X008384Y005562D01*
X008304Y005562D01*
X008264Y005522D01*
X008264Y005362D01*
X008558Y005322D02*
X008718Y005322D01*
X008853Y005362D02*
X008893Y005322D01*
X008973Y005322D01*
X009013Y005362D01*
X009013Y005402D01*
X008973Y005442D01*
X008933Y005442D01*
X008973Y005442D02*
X009013Y005482D01*
X009013Y005522D01*
X008973Y005562D01*
X008893Y005562D01*
X008853Y005522D01*
X008940Y004976D02*
X008980Y004896D01*
X009060Y004816D01*
X009060Y004936D01*
X009100Y004976D01*
X009140Y004976D01*
X009180Y004936D01*
X009180Y004856D01*
X009140Y004816D01*
X009060Y004816D01*
X009180Y004682D02*
X009180Y004522D01*
X009180Y004602D02*
X008940Y004602D01*
X009020Y004522D01*
X009060Y004387D02*
X009100Y004347D01*
X009100Y004227D01*
X009180Y004227D02*
X008940Y004227D01*
X008940Y004347D01*
X008980Y004387D01*
X009060Y004387D01*
X009100Y004307D02*
X009180Y004387D01*
X008671Y004642D02*
X008647Y004642D01*
X008935Y002989D02*
X008935Y002949D01*
X008915Y002949D01*
X008915Y002733D02*
X008915Y002457D01*
X008915Y002221D02*
X008915Y002201D01*
X009387Y002201D01*
X009387Y002221D01*
X009289Y002117D02*
X009208Y002077D01*
X009128Y001997D01*
X009249Y001997D01*
X009289Y001957D01*
X009289Y001917D01*
X009249Y001877D01*
X009168Y001877D01*
X009128Y001917D01*
X009128Y001997D01*
X009387Y002457D02*
X009387Y002477D01*
X009387Y002713D02*
X009387Y002733D01*
X009769Y002571D02*
X009769Y002371D01*
X009903Y002371D01*
X006730Y003894D02*
X006061Y003894D01*
X006061Y005134D01*
X005875Y004951D02*
X005875Y004871D01*
X005835Y004831D01*
X005795Y004831D01*
X005755Y004871D01*
X005755Y004951D01*
X005795Y004991D01*
X005835Y004991D01*
X005875Y004951D01*
X005755Y004951D02*
X005715Y004991D01*
X005675Y004991D01*
X005635Y004951D01*
X005635Y004871D01*
X005675Y004831D01*
X005715Y004831D01*
X005755Y004871D01*
X005715Y004696D02*
X005675Y004696D01*
X005635Y004656D01*
X005635Y004576D01*
X005675Y004536D01*
X005675Y004401D02*
X005635Y004361D01*
X005635Y004281D01*
X005675Y004241D01*
X005835Y004241D01*
X005875Y004281D01*
X005875Y004361D01*
X005835Y004401D01*
X005875Y004536D02*
X005715Y004696D01*
X005875Y004696D02*
X005875Y004536D01*
X005828Y004041D02*
X005828Y003921D01*
X005908Y003961D01*
X005948Y003961D01*
X005988Y003921D01*
X005988Y003841D01*
X005948Y003801D01*
X005868Y003801D01*
X005828Y003841D01*
X005694Y003801D02*
X005533Y003801D01*
X005694Y003961D01*
X005694Y004001D01*
X005654Y004041D01*
X005573Y004041D01*
X005533Y004001D01*
X005399Y004001D02*
X005359Y004041D01*
X005279Y004041D01*
X005239Y004001D01*
X005239Y003841D01*
X005279Y003801D01*
X005359Y003801D01*
X005399Y003841D01*
X005351Y003444D02*
X005450Y003444D01*
X005450Y003326D01*
X006198Y003488D02*
X006198Y003512D01*
X005988Y004041D02*
X005828Y004041D01*
X004970Y004426D02*
X004946Y004426D01*
X004288Y003444D02*
X004190Y003444D01*
X004338Y002854D02*
X004340Y002872D01*
X004346Y002890D01*
X004355Y002906D01*
X004367Y002919D01*
X004382Y002930D01*
X004399Y002938D01*
X004417Y002942D01*
X004435Y002942D01*
X004453Y002938D01*
X004470Y002930D01*
X004485Y002919D01*
X004497Y002906D01*
X004506Y002890D01*
X004512Y002872D01*
X004514Y002854D01*
X004512Y002836D01*
X004506Y002818D01*
X004497Y002802D01*
X004485Y002789D01*
X004470Y002778D01*
X004453Y002770D01*
X004435Y002766D01*
X004417Y002766D01*
X004399Y002770D01*
X004382Y002778D01*
X004367Y002789D01*
X004355Y002802D01*
X004346Y002818D01*
X004340Y002836D01*
X004338Y002854D01*
X003376Y003914D02*
X003352Y003914D01*
X003797Y005536D02*
X003797Y005560D01*
X007031Y008337D02*
X007110Y008337D01*
X006966Y009071D02*
X006415Y009071D01*
X006415Y009583D01*
X006966Y009583D01*
X006991Y009748D02*
X007071Y009748D01*
X007111Y009788D01*
X007111Y009828D01*
X007071Y009868D01*
X006951Y009868D01*
X006951Y009788D01*
X006991Y009748D01*
X006951Y009868D02*
X007031Y009948D01*
X007111Y009988D01*
X006816Y009948D02*
X006776Y009988D01*
X006656Y009988D01*
X006656Y009748D01*
X006776Y009748D01*
X006816Y009788D01*
X006816Y009948D01*
X006415Y009583D02*
X006257Y009583D01*
X006257Y009071D02*
X006415Y009071D01*
X007594Y009712D02*
X007594Y009952D01*
X007714Y009952D01*
X007754Y009912D01*
X007754Y009832D01*
X007714Y009792D01*
X007594Y009792D01*
X007674Y009792D02*
X007754Y009712D01*
X007889Y009712D02*
X008049Y009872D01*
X008049Y009912D01*
X008009Y009952D01*
X007929Y009952D01*
X007889Y009912D01*
X007889Y009712D02*
X008049Y009712D01*
X008184Y009752D02*
X008224Y009712D01*
X008304Y009712D01*
X008344Y009752D01*
X008344Y009792D01*
X008304Y009832D01*
X008184Y009832D01*
X008184Y009752D01*
X008184Y009832D02*
X008264Y009912D01*
X008344Y009952D01*
X008526Y010408D02*
X008526Y010528D01*
X008566Y010568D01*
X008647Y010568D01*
X008687Y010528D01*
X008687Y010408D01*
X008767Y010408D02*
X008526Y010408D01*
X008687Y010488D02*
X008767Y010568D01*
X008767Y010703D02*
X008606Y010863D01*
X008566Y010863D01*
X008526Y010823D01*
X008526Y010743D01*
X008566Y010703D01*
X008767Y010703D02*
X008767Y010863D01*
X008727Y010997D02*
X008767Y011037D01*
X008767Y011117D01*
X008727Y011158D01*
X008647Y011158D01*
X008606Y011117D01*
X008606Y011077D01*
X008647Y010997D01*
X008526Y010997D01*
X008526Y011158D01*
X008763Y011491D02*
X008763Y011611D01*
X008803Y011651D01*
X008883Y011651D01*
X008923Y011611D01*
X008923Y011491D01*
X008923Y011571D02*
X009003Y011651D01*
X009003Y011785D02*
X008843Y011946D01*
X008803Y011946D01*
X008763Y011906D01*
X008763Y011825D01*
X008803Y011785D01*
X009003Y011785D02*
X009003Y011946D01*
X008883Y012080D02*
X008883Y012240D01*
X009003Y012200D02*
X008763Y012200D01*
X008883Y012080D01*
X009003Y011491D02*
X008763Y011491D01*
X007793Y011256D02*
X007281Y011256D01*
X007281Y011808D01*
X007156Y011736D02*
X007116Y011776D01*
X006956Y011776D01*
X006916Y011736D01*
X006916Y011616D01*
X007156Y011616D01*
X007156Y011736D01*
X007116Y011910D02*
X007156Y011950D01*
X007156Y012030D01*
X007116Y012070D01*
X007036Y012070D01*
X006996Y012030D01*
X006996Y011990D01*
X007036Y011910D01*
X006916Y011910D01*
X006916Y012070D01*
X006638Y011915D02*
X006638Y011875D01*
X006598Y011835D01*
X006638Y011795D01*
X006638Y011754D01*
X006598Y011714D01*
X006518Y011714D01*
X006478Y011754D01*
X006558Y011835D02*
X006598Y011835D01*
X006638Y011915D02*
X006598Y011955D01*
X006518Y011955D01*
X006478Y011915D01*
X006343Y011915D02*
X006303Y011955D01*
X006223Y011955D01*
X006183Y011915D01*
X006049Y011915D02*
X006049Y011835D01*
X006009Y011795D01*
X005888Y011795D01*
X005968Y011795D02*
X006049Y011714D01*
X006183Y011714D02*
X006343Y011875D01*
X006343Y011915D01*
X006343Y011714D02*
X006183Y011714D01*
X006049Y011915D02*
X006009Y011955D01*
X005888Y011955D01*
X005888Y011714D01*
X006197Y010917D02*
X006317Y010917D01*
X006357Y010877D01*
X006357Y010796D01*
X006317Y010756D01*
X006197Y010756D01*
X006197Y010676D02*
X006197Y010917D01*
X006277Y010756D02*
X006357Y010676D01*
X006491Y010676D02*
X006651Y010836D01*
X006651Y010877D01*
X006611Y010917D01*
X006531Y010917D01*
X006491Y010877D01*
X006491Y010676D02*
X006651Y010676D01*
X006786Y010676D02*
X006786Y010716D01*
X006946Y010877D01*
X006946Y010917D01*
X006786Y010917D01*
X007281Y011099D02*
X007281Y011256D01*
X007793Y011256D02*
X007793Y011808D01*
X007793Y011256D02*
X007793Y011099D01*
X007793Y012398D02*
X007793Y012556D01*
X007281Y012556D01*
X007281Y013107D01*
X006972Y012879D02*
X006972Y012839D01*
X006812Y012679D01*
X006972Y012679D01*
X006972Y012879D02*
X006932Y012919D01*
X006852Y012919D01*
X006812Y012879D01*
X006678Y012879D02*
X006638Y012919D01*
X006558Y012919D01*
X006518Y012879D01*
X006383Y012879D02*
X006383Y012799D01*
X006343Y012759D01*
X006223Y012759D01*
X006223Y012679D02*
X006223Y012919D01*
X006343Y012919D01*
X006383Y012879D01*
X006303Y012759D02*
X006383Y012679D01*
X006518Y012679D02*
X006678Y012839D01*
X006678Y012879D01*
X006678Y012679D02*
X006518Y012679D01*
X007281Y012556D02*
X007281Y012398D01*
X007793Y012556D02*
X007793Y013107D01*
X007959Y013093D02*
X008079Y012973D01*
X008079Y013133D01*
X008199Y013093D02*
X007959Y013093D01*
X007999Y012839D02*
X007959Y012799D01*
X007959Y012679D01*
X008199Y012679D01*
X008199Y012799D01*
X008159Y012839D01*
X007999Y012839D01*
X008615Y013757D02*
X007303Y013756D01*
X007303Y013815D01*
X007304Y015961D01*
X006798Y015743D02*
X006798Y015663D01*
X006758Y015623D01*
X006598Y015784D01*
X006758Y015784D01*
X006798Y015743D01*
X006758Y015623D02*
X006598Y015623D01*
X006558Y015663D01*
X006558Y015743D01*
X006598Y015784D01*
X006598Y015489D02*
X006558Y015449D01*
X006558Y015369D01*
X006598Y015329D01*
X006598Y015194D02*
X006678Y015194D01*
X006718Y015154D01*
X006718Y015034D01*
X006718Y015114D02*
X006798Y015194D01*
X006798Y015329D02*
X006638Y015489D01*
X006598Y015489D01*
X006798Y015489D02*
X006798Y015329D01*
X006598Y015194D02*
X006558Y015154D01*
X006558Y015034D01*
X006798Y015034D01*
X006717Y014889D02*
X006597Y014889D01*
X006597Y014649D01*
X006717Y014649D01*
X006757Y014689D01*
X006757Y014849D01*
X006717Y014889D01*
X006892Y014849D02*
X006932Y014889D01*
X007012Y014889D01*
X007052Y014849D01*
X007052Y014809D01*
X007012Y014769D01*
X007052Y014729D01*
X007052Y014689D01*
X007012Y014649D01*
X006932Y014649D01*
X006892Y014689D01*
X006972Y014769D02*
X007012Y014769D01*
X006868Y014485D02*
X006317Y014485D01*
X006317Y013973D01*
X006868Y013973D01*
X006774Y013785D02*
X006774Y013545D01*
X006694Y013545D02*
X006854Y013545D01*
X006694Y013705D02*
X006774Y013785D01*
X006560Y013745D02*
X006520Y013785D01*
X006440Y013785D01*
X006400Y013745D01*
X006265Y013745D02*
X006265Y013665D01*
X006225Y013625D01*
X006105Y013625D01*
X006105Y013545D02*
X006105Y013785D01*
X006225Y013785D01*
X006265Y013745D01*
X006185Y013625D02*
X006265Y013545D01*
X006400Y013545D02*
X006560Y013705D01*
X006560Y013745D01*
X006560Y013545D02*
X006400Y013545D01*
X006317Y013973D02*
X006159Y013973D01*
X006159Y014485D02*
X006317Y014485D01*
X005253Y015500D02*
X005213Y015460D01*
X005133Y015460D01*
X005093Y015500D01*
X005173Y015580D02*
X005213Y015580D01*
X005253Y015540D01*
X005253Y015500D01*
X005213Y015580D02*
X005253Y015620D01*
X005253Y015660D01*
X005213Y015700D01*
X005133Y015700D01*
X005093Y015660D01*
X004958Y015700D02*
X004798Y015700D01*
X004798Y015580D01*
X004878Y015620D01*
X004918Y015620D01*
X004958Y015580D01*
X004958Y015500D01*
X004918Y015460D01*
X004838Y015460D01*
X004798Y015500D01*
X004664Y015500D02*
X004624Y015460D01*
X004544Y015460D01*
X004504Y015500D01*
X004504Y015660D01*
X004544Y015700D01*
X004624Y015700D01*
X004664Y015660D01*
X003817Y015560D02*
X003817Y015536D01*
X000766Y014682D02*
X000768Y014733D01*
X000774Y014784D01*
X000784Y014834D01*
X000797Y014884D01*
X000815Y014932D01*
X000835Y014979D01*
X000860Y015024D01*
X000888Y015067D01*
X000919Y015108D01*
X000953Y015146D01*
X000990Y015181D01*
X001029Y015214D01*
X001071Y015244D01*
X001115Y015270D01*
X001161Y015292D01*
X001209Y015312D01*
X001258Y015327D01*
X001308Y015339D01*
X001358Y015347D01*
X001409Y015351D01*
X001461Y015351D01*
X001512Y015347D01*
X001562Y015339D01*
X001612Y015327D01*
X001661Y015312D01*
X001709Y015292D01*
X001755Y015270D01*
X001799Y015244D01*
X001841Y015214D01*
X001880Y015181D01*
X001917Y015146D01*
X001951Y015108D01*
X001982Y015067D01*
X002010Y015024D01*
X002035Y014979D01*
X002055Y014932D01*
X002073Y014884D01*
X002086Y014834D01*
X002096Y014784D01*
X002102Y014733D01*
X002104Y014682D01*
X002102Y014631D01*
X002096Y014580D01*
X002086Y014530D01*
X002073Y014480D01*
X002055Y014432D01*
X002035Y014385D01*
X002010Y014340D01*
X001982Y014297D01*
X001951Y014256D01*
X001917Y014218D01*
X001880Y014183D01*
X001841Y014150D01*
X001799Y014120D01*
X001755Y014094D01*
X001709Y014072D01*
X001661Y014052D01*
X001612Y014037D01*
X001562Y014025D01*
X001512Y014017D01*
X001461Y014013D01*
X001409Y014013D01*
X001358Y014017D01*
X001308Y014025D01*
X001258Y014037D01*
X001209Y014052D01*
X001161Y014072D01*
X001115Y014094D01*
X001071Y014120D01*
X001029Y014150D01*
X000990Y014183D01*
X000953Y014218D01*
X000919Y014256D01*
X000888Y014297D01*
X000860Y014340D01*
X000835Y014385D01*
X000815Y014432D01*
X000797Y014480D01*
X000784Y014530D01*
X000774Y014580D01*
X000768Y014631D01*
X000766Y014682D01*
X000254Y014682D02*
X000256Y014751D01*
X000262Y014819D01*
X000272Y014887D01*
X000286Y014954D01*
X000304Y015021D01*
X000325Y015086D01*
X000351Y015150D01*
X000380Y015212D01*
X000412Y015272D01*
X000448Y015331D01*
X000488Y015387D01*
X000530Y015441D01*
X000576Y015492D01*
X000625Y015541D01*
X000676Y015587D01*
X000730Y015629D01*
X000786Y015669D01*
X000844Y015705D01*
X000905Y015737D01*
X000967Y015766D01*
X001031Y015792D01*
X001096Y015813D01*
X001163Y015831D01*
X001230Y015845D01*
X001298Y015855D01*
X001366Y015861D01*
X001435Y015863D01*
X001504Y015861D01*
X001572Y015855D01*
X001640Y015845D01*
X001707Y015831D01*
X001774Y015813D01*
X001839Y015792D01*
X001903Y015766D01*
X001965Y015737D01*
X002025Y015705D01*
X002084Y015669D01*
X002140Y015629D01*
X002194Y015587D01*
X002245Y015541D01*
X002294Y015492D01*
X002340Y015441D01*
X002382Y015387D01*
X002422Y015331D01*
X002458Y015273D01*
X002490Y015212D01*
X002519Y015150D01*
X002545Y015086D01*
X002566Y015021D01*
X002584Y014954D01*
X002598Y014887D01*
X002608Y014819D01*
X002614Y014751D01*
X002616Y014682D01*
X002614Y014613D01*
X002608Y014545D01*
X002598Y014477D01*
X002584Y014410D01*
X002566Y014343D01*
X002545Y014278D01*
X002519Y014214D01*
X002490Y014152D01*
X002458Y014091D01*
X002422Y014033D01*
X002382Y013977D01*
X002340Y013923D01*
X002294Y013872D01*
X002245Y013823D01*
X002194Y013777D01*
X002140Y013735D01*
X002084Y013695D01*
X002026Y013659D01*
X001965Y013627D01*
X001903Y013598D01*
X001839Y013572D01*
X001774Y013551D01*
X001707Y013533D01*
X001640Y013519D01*
X001572Y013509D01*
X001504Y013503D01*
X001435Y013501D01*
X001366Y013503D01*
X001298Y013509D01*
X001230Y013519D01*
X001163Y013533D01*
X001096Y013551D01*
X001031Y013572D01*
X000967Y013598D01*
X000905Y013627D01*
X000844Y013659D01*
X000786Y013695D01*
X000730Y013735D01*
X000676Y013777D01*
X000625Y013823D01*
X000576Y013872D01*
X000530Y013923D01*
X000488Y013977D01*
X000448Y014033D01*
X000412Y014091D01*
X000380Y014152D01*
X000351Y014214D01*
X000325Y014278D01*
X000304Y014343D01*
X000286Y014410D01*
X000272Y014477D01*
X000262Y014545D01*
X000256Y014613D01*
X000254Y014682D01*
X008758Y009509D02*
X008758Y009469D01*
X008838Y009389D01*
X008838Y009269D01*
X008838Y009389D02*
X008918Y009469D01*
X008918Y009509D01*
X009112Y009229D02*
X009112Y010115D01*
X008994Y009997D01*
X009112Y010115D02*
X009230Y009997D01*
X009919Y010115D02*
X009921Y010127D01*
X009926Y010138D01*
X009935Y010147D01*
X009946Y010152D01*
X009958Y010154D01*
X009970Y010152D01*
X009981Y010147D01*
X009990Y010138D01*
X009995Y010127D01*
X009997Y010115D01*
X009995Y010103D01*
X009990Y010092D01*
X009981Y010083D01*
X009970Y010078D01*
X009958Y010076D01*
X009946Y010078D01*
X009935Y010083D01*
X009926Y010092D01*
X009921Y010103D01*
X009919Y010115D01*
X009761Y010115D02*
X009763Y010142D01*
X009769Y010169D01*
X009778Y010195D01*
X009791Y010219D01*
X009807Y010242D01*
X009826Y010261D01*
X009848Y010278D01*
X009872Y010292D01*
X009897Y010302D01*
X009924Y010309D01*
X009951Y010312D01*
X009979Y010311D01*
X010006Y010306D01*
X010032Y010298D01*
X010056Y010286D01*
X010079Y010270D01*
X010100Y010252D01*
X010117Y010231D01*
X010132Y010207D01*
X010143Y010182D01*
X010151Y010156D01*
X010155Y010129D01*
X010155Y010101D01*
X010151Y010074D01*
X010143Y010048D01*
X010132Y010023D01*
X010117Y009999D01*
X010100Y009978D01*
X010079Y009960D01*
X010057Y009944D01*
X010032Y009932D01*
X010006Y009924D01*
X009979Y009919D01*
X009951Y009918D01*
X009924Y009921D01*
X009897Y009928D01*
X009872Y009938D01*
X009848Y009952D01*
X009826Y009969D01*
X009807Y009988D01*
X009791Y010011D01*
X009778Y010035D01*
X009769Y010061D01*
X009763Y010088D01*
X009761Y010115D01*
X010274Y010021D02*
X010434Y010021D01*
X010434Y009981D01*
X010274Y009821D01*
X010274Y009781D01*
X010434Y009781D01*
X013700Y011169D02*
X013740Y011129D01*
X013820Y011129D01*
X013860Y011169D01*
X013995Y011129D02*
X014155Y011289D01*
X014155Y011329D01*
X014115Y011369D01*
X014035Y011369D01*
X013995Y011329D01*
X013860Y011329D02*
X013820Y011369D01*
X013740Y011369D01*
X013700Y011329D01*
X013700Y011169D01*
X013995Y011129D02*
X014155Y011129D01*
X013742Y011638D02*
X013742Y011662D01*
X014131Y012142D02*
X014328Y012142D01*
X014328Y012339D01*
X014730Y011902D02*
X014754Y011902D01*
X015062Y011959D02*
X015102Y011919D01*
X015262Y011919D01*
X015302Y011959D01*
X015302Y012039D01*
X015262Y012079D01*
X015302Y012214D02*
X015302Y012374D01*
X015302Y012294D02*
X015062Y012294D01*
X015142Y012214D01*
X015102Y012079D02*
X015062Y012039D01*
X015062Y011959D01*
X015207Y011687D02*
X015207Y011526D01*
X015087Y011647D01*
X015327Y011647D01*
X015327Y011392D02*
X015247Y011312D01*
X015247Y011352D02*
X015247Y011232D01*
X015327Y011232D02*
X015087Y011232D01*
X015087Y011352D01*
X015127Y011392D01*
X015207Y011392D01*
X015247Y011352D01*
X015265Y012567D02*
X015265Y012687D01*
X015225Y012727D01*
X015145Y012727D01*
X015105Y012687D01*
X015105Y012567D01*
X015345Y012567D01*
X015265Y012647D02*
X015345Y012727D01*
X015305Y012862D02*
X015345Y012902D01*
X015345Y012982D01*
X015305Y013022D01*
X015225Y013022D01*
X015185Y012982D01*
X015185Y012942D01*
X015225Y012862D01*
X015105Y012862D01*
X015105Y013022D01*
X014939Y012960D02*
X014779Y012960D01*
X014859Y012960D02*
X014859Y013200D01*
X014779Y013120D01*
X014645Y013200D02*
X014645Y013000D01*
X014605Y012960D01*
X014524Y012960D01*
X014484Y013000D01*
X014484Y013200D01*
X014531Y013742D02*
X014491Y013782D01*
X014491Y013942D01*
X014531Y013982D01*
X014611Y013982D01*
X014651Y013942D01*
X014785Y013942D02*
X014825Y013982D01*
X014906Y013982D01*
X014946Y013942D01*
X014946Y013902D01*
X014906Y013862D01*
X014946Y013822D01*
X014946Y013782D01*
X014906Y013742D01*
X014825Y013742D01*
X014785Y013782D01*
X014865Y013862D02*
X014906Y013862D01*
X015080Y013942D02*
X015120Y013982D01*
X015200Y013982D01*
X015240Y013942D01*
X015240Y013902D01*
X015080Y013742D01*
X015240Y013742D01*
X014651Y013782D02*
X014611Y013742D01*
X014531Y013742D01*
X014328Y013914D02*
X014328Y014111D01*
X014131Y014111D01*
X014104Y014241D02*
X014064Y014281D01*
X014064Y014361D01*
X014104Y014401D01*
X014264Y014401D01*
X014304Y014361D01*
X014304Y014281D01*
X014264Y014241D01*
X014104Y014241D01*
X014224Y014321D02*
X014304Y014401D01*
X014264Y014535D02*
X014304Y014575D01*
X014304Y014655D01*
X014264Y014696D01*
X014224Y014696D01*
X014184Y014655D01*
X014184Y014615D01*
X014184Y014655D02*
X014144Y014696D01*
X014104Y014696D01*
X014064Y014655D01*
X014064Y014575D01*
X014104Y014535D01*
X014131Y014819D02*
X013895Y014819D01*
X014131Y014819D02*
X014131Y015134D01*
X014789Y014692D02*
X015127Y014692D01*
X014958Y014300D02*
X014958Y014276D01*
X013344Y014299D02*
X013344Y014339D01*
X013304Y014379D01*
X013184Y014379D01*
X013184Y014299D01*
X013224Y014259D01*
X013304Y014259D01*
X013344Y014299D01*
X013264Y014459D02*
X013184Y014379D01*
X013264Y014459D02*
X013344Y014499D01*
X013049Y014459D02*
X013049Y014379D01*
X013009Y014339D01*
X012889Y014339D01*
X012969Y014339D02*
X013049Y014259D01*
X012889Y014259D02*
X012889Y014499D01*
X013009Y014499D01*
X013049Y014459D01*
X013029Y014819D02*
X013029Y015134D01*
X013029Y014819D02*
X013265Y014819D01*
X012655Y015027D02*
X012655Y015188D01*
X012495Y015027D01*
X012535Y014987D01*
X012615Y014987D01*
X012655Y015027D01*
X012495Y015027D02*
X012495Y015188D01*
X012535Y015228D01*
X012615Y015228D01*
X012655Y015188D01*
X012360Y014987D02*
X012200Y014987D01*
X012280Y014987D02*
X012280Y015228D01*
X012200Y015148D01*
X012065Y015188D02*
X012025Y015228D01*
X011945Y015228D01*
X011905Y015188D01*
X011905Y015027D01*
X011945Y014987D01*
X012025Y014987D01*
X012065Y015027D01*
X012340Y015496D02*
X012340Y015520D01*
X012127Y014379D02*
X011907Y014379D01*
X012017Y014379D02*
X012017Y014233D01*
X012127Y014233D02*
X011907Y014233D01*
X012127Y014103D02*
X012127Y013956D01*
X011907Y013956D01*
X011693Y013756D02*
X010381Y013756D01*
X010382Y013756D02*
X010376Y013698D01*
X010366Y013640D01*
X010353Y013583D01*
X010335Y013527D01*
X010314Y013473D01*
X010289Y013419D01*
X010261Y013368D01*
X010230Y013319D01*
X010195Y013271D01*
X010157Y013227D01*
X010116Y013185D01*
X010073Y013145D01*
X010026Y013109D01*
X009978Y013076D01*
X009928Y013046D01*
X009875Y013019D01*
X009821Y012997D01*
X009766Y012977D01*
X009709Y012962D01*
X009652Y012950D01*
X009594Y012942D01*
X009535Y012938D01*
X009477Y012938D01*
X009418Y012942D01*
X009360Y012950D01*
X009303Y012962D01*
X009246Y012977D01*
X009191Y012997D01*
X009137Y013019D01*
X009084Y013046D01*
X009034Y013076D01*
X008986Y013109D01*
X008939Y013145D01*
X008896Y013185D01*
X008855Y013227D01*
X008817Y013271D01*
X008782Y013319D01*
X008751Y013368D01*
X008723Y013419D01*
X008698Y013473D01*
X008677Y013527D01*
X008659Y013583D01*
X008646Y013640D01*
X008636Y013698D01*
X008630Y013756D01*
X011943Y013128D02*
X012090Y013128D01*
X012754Y013678D02*
X012756Y013690D01*
X012761Y013701D01*
X012770Y013710D01*
X012781Y013715D01*
X012793Y013717D01*
X012805Y013715D01*
X012816Y013710D01*
X012825Y013701D01*
X012830Y013690D01*
X012832Y013678D01*
X012830Y013666D01*
X012825Y013655D01*
X012816Y013646D01*
X012805Y013641D01*
X012793Y013639D01*
X012781Y013641D01*
X012770Y013646D01*
X012761Y013655D01*
X012756Y013666D01*
X012754Y013678D01*
X012360Y013914D02*
X012360Y014111D01*
X012557Y014111D01*
X019191Y015508D02*
X019899Y015508D01*
X019899Y015311D01*
X020175Y015391D02*
X020175Y015552D01*
X020255Y015512D02*
X020295Y015552D01*
X020375Y015552D01*
X020415Y015512D01*
X020415Y015431D01*
X020375Y015391D01*
X020295Y015391D02*
X020255Y015472D01*
X020255Y015512D01*
X020295Y015391D02*
X020175Y015391D01*
X020215Y015257D02*
X020175Y015217D01*
X020175Y015137D01*
X020215Y015097D01*
X020255Y015097D01*
X020295Y015137D01*
X020295Y015217D01*
X020335Y015257D01*
X020375Y015257D01*
X020415Y015217D01*
X020415Y015137D01*
X020375Y015097D01*
X020335Y015097D01*
X020295Y015137D01*
X020295Y015217D02*
X020255Y015257D01*
X020215Y015257D01*
X020215Y014962D02*
X020175Y014922D01*
X020175Y014842D01*
X020215Y014802D01*
X020375Y014802D01*
X020215Y014962D01*
X020375Y014962D01*
X020415Y014922D01*
X020415Y014842D01*
X020375Y014802D01*
X020295Y014668D02*
X020335Y014628D01*
X020335Y014508D01*
X020415Y014508D02*
X020175Y014508D01*
X020175Y014628D01*
X020215Y014668D01*
X020295Y014668D01*
X020175Y014373D02*
X020415Y014373D01*
X020415Y014213D02*
X020175Y014213D01*
X020255Y014293D01*
X020175Y014373D01*
X020215Y014078D02*
X020175Y014038D01*
X020175Y013918D01*
X020415Y013918D01*
X020415Y014038D01*
X020375Y014078D01*
X020335Y014078D01*
X020295Y014038D01*
X020295Y013918D01*
X020295Y014038D02*
X020255Y014078D01*
X020215Y014078D01*
X020874Y014458D02*
X020914Y014418D01*
X020994Y014418D01*
X021034Y014458D01*
X021034Y014618D01*
X020994Y014658D01*
X020914Y014658D01*
X020874Y014618D01*
X020874Y014458D01*
X020954Y014498D02*
X021034Y014418D01*
X020987Y015573D02*
X020987Y015813D01*
X021107Y015813D01*
X021147Y015773D01*
X021147Y015693D01*
X021107Y015653D01*
X020987Y015653D01*
X021067Y015653D02*
X021147Y015573D01*
X021281Y015573D02*
X021281Y015613D01*
X021442Y015773D01*
X021442Y015813D01*
X021281Y015813D01*
X021078Y009787D02*
X021078Y009626D01*
X021078Y009706D02*
X020838Y009706D01*
X020918Y009626D01*
X020838Y009492D02*
X021078Y009332D01*
X021078Y009492D02*
X020838Y009332D01*
X021277Y009524D02*
X021277Y009603D01*
X022380Y009603D02*
X022380Y009524D01*
X023638Y008247D02*
X023678Y008287D01*
X023718Y008287D01*
X023758Y008247D01*
X023798Y008287D01*
X023838Y008287D01*
X023878Y008247D01*
X023878Y008167D01*
X023838Y008127D01*
X023758Y008207D02*
X023758Y008247D01*
X023638Y008247D02*
X023638Y008167D01*
X023678Y008127D01*
X023678Y007992D02*
X023638Y007952D01*
X023638Y007872D01*
X023678Y007832D01*
X023838Y007832D01*
X023878Y007872D01*
X023878Y007952D01*
X023838Y007992D01*
X023364Y007926D02*
X023340Y007926D01*
X023349Y007211D02*
X023469Y007211D01*
X023509Y007171D01*
X023509Y007090D01*
X023469Y007050D01*
X023349Y007050D01*
X023349Y006970D02*
X023349Y007211D01*
X023429Y007050D02*
X023509Y006970D01*
X023644Y007010D02*
X023684Y006970D01*
X023764Y006970D01*
X023804Y007010D01*
X023804Y007050D01*
X023764Y007090D01*
X023724Y007090D01*
X023764Y007090D02*
X023804Y007131D01*
X023804Y007171D01*
X023764Y007211D01*
X023684Y007211D01*
X023644Y007171D01*
X023938Y007171D02*
X023978Y007211D01*
X024058Y007211D01*
X024098Y007171D01*
X023938Y007010D01*
X023978Y006970D01*
X024058Y006970D01*
X024098Y007010D01*
X024098Y007171D01*
X023938Y007171D02*
X023938Y007010D01*
X024051Y007409D02*
X024051Y007649D01*
X024171Y007649D01*
X024211Y007609D01*
X024211Y007529D01*
X024171Y007489D01*
X024051Y007489D01*
X024131Y007489D02*
X024211Y007409D01*
X024346Y007409D02*
X024506Y007409D01*
X024426Y007409D02*
X024426Y007649D01*
X024346Y007569D01*
X024640Y007569D02*
X024680Y007529D01*
X024800Y007529D01*
X024800Y007609D02*
X024760Y007649D01*
X024680Y007649D01*
X024640Y007609D01*
X024640Y007569D01*
X024640Y007449D02*
X024680Y007409D01*
X024760Y007409D01*
X024800Y007449D01*
X024800Y007609D01*
X024362Y008344D02*
X024202Y008344D01*
X024362Y008504D01*
X024362Y008544D01*
X026356Y006079D02*
X026358Y006130D01*
X026364Y006181D01*
X026374Y006231D01*
X026387Y006281D01*
X026405Y006329D01*
X026425Y006376D01*
X026450Y006421D01*
X026478Y006464D01*
X026509Y006505D01*
X026543Y006543D01*
X026580Y006578D01*
X026619Y006611D01*
X026661Y006641D01*
X026705Y006667D01*
X026751Y006689D01*
X026799Y006709D01*
X026848Y006724D01*
X026898Y006736D01*
X026948Y006744D01*
X026999Y006748D01*
X027051Y006748D01*
X027102Y006744D01*
X027152Y006736D01*
X027202Y006724D01*
X027251Y006709D01*
X027299Y006689D01*
X027345Y006667D01*
X027389Y006641D01*
X027431Y006611D01*
X027470Y006578D01*
X027507Y006543D01*
X027541Y006505D01*
X027572Y006464D01*
X027600Y006421D01*
X027625Y006376D01*
X027645Y006329D01*
X027663Y006281D01*
X027676Y006231D01*
X027686Y006181D01*
X027692Y006130D01*
X027694Y006079D01*
X027692Y006028D01*
X027686Y005977D01*
X027676Y005927D01*
X027663Y005877D01*
X027645Y005829D01*
X027625Y005782D01*
X027600Y005737D01*
X027572Y005694D01*
X027541Y005653D01*
X027507Y005615D01*
X027470Y005580D01*
X027431Y005547D01*
X027389Y005517D01*
X027345Y005491D01*
X027299Y005469D01*
X027251Y005449D01*
X027202Y005434D01*
X027152Y005422D01*
X027102Y005414D01*
X027051Y005410D01*
X026999Y005410D01*
X026948Y005414D01*
X026898Y005422D01*
X026848Y005434D01*
X026799Y005449D01*
X026751Y005469D01*
X026705Y005491D01*
X026661Y005517D01*
X026619Y005547D01*
X026580Y005580D01*
X026543Y005615D01*
X026509Y005653D01*
X026478Y005694D01*
X026450Y005737D01*
X026425Y005782D01*
X026405Y005829D01*
X026387Y005877D01*
X026374Y005927D01*
X026364Y005977D01*
X026358Y006028D01*
X026356Y006079D01*
X025844Y006079D02*
X025846Y006148D01*
X025852Y006216D01*
X025862Y006284D01*
X025876Y006351D01*
X025894Y006418D01*
X025915Y006483D01*
X025941Y006547D01*
X025970Y006609D01*
X026002Y006669D01*
X026038Y006728D01*
X026078Y006784D01*
X026120Y006838D01*
X026166Y006889D01*
X026215Y006938D01*
X026266Y006984D01*
X026320Y007026D01*
X026376Y007066D01*
X026434Y007102D01*
X026495Y007134D01*
X026557Y007163D01*
X026621Y007189D01*
X026686Y007210D01*
X026753Y007228D01*
X026820Y007242D01*
X026888Y007252D01*
X026956Y007258D01*
X027025Y007260D01*
X027094Y007258D01*
X027162Y007252D01*
X027230Y007242D01*
X027297Y007228D01*
X027364Y007210D01*
X027429Y007189D01*
X027493Y007163D01*
X027555Y007134D01*
X027615Y007102D01*
X027674Y007066D01*
X027730Y007026D01*
X027784Y006984D01*
X027835Y006938D01*
X027884Y006889D01*
X027930Y006838D01*
X027972Y006784D01*
X028012Y006728D01*
X028048Y006670D01*
X028080Y006609D01*
X028109Y006547D01*
X028135Y006483D01*
X028156Y006418D01*
X028174Y006351D01*
X028188Y006284D01*
X028198Y006216D01*
X028204Y006148D01*
X028206Y006079D01*
X028204Y006010D01*
X028198Y005942D01*
X028188Y005874D01*
X028174Y005807D01*
X028156Y005740D01*
X028135Y005675D01*
X028109Y005611D01*
X028080Y005549D01*
X028048Y005488D01*
X028012Y005430D01*
X027972Y005374D01*
X027930Y005320D01*
X027884Y005269D01*
X027835Y005220D01*
X027784Y005174D01*
X027730Y005132D01*
X027674Y005092D01*
X027616Y005056D01*
X027555Y005024D01*
X027493Y004995D01*
X027429Y004969D01*
X027364Y004948D01*
X027297Y004930D01*
X027230Y004916D01*
X027162Y004906D01*
X027094Y004900D01*
X027025Y004898D01*
X026956Y004900D01*
X026888Y004906D01*
X026820Y004916D01*
X026753Y004930D01*
X026686Y004948D01*
X026621Y004969D01*
X026557Y004995D01*
X026495Y005024D01*
X026434Y005056D01*
X026376Y005092D01*
X026320Y005132D01*
X026266Y005174D01*
X026215Y005220D01*
X026166Y005269D01*
X026120Y005320D01*
X026078Y005374D01*
X026038Y005430D01*
X026002Y005488D01*
X025970Y005549D01*
X025941Y005611D01*
X025915Y005675D01*
X025894Y005740D01*
X025876Y005807D01*
X025862Y005874D01*
X025852Y005942D01*
X025846Y006010D01*
X025844Y006079D01*
X014163Y000697D02*
X014083Y000657D01*
X014003Y000577D01*
X014123Y000577D01*
X014163Y000537D01*
X014163Y000497D01*
X014123Y000457D01*
X014043Y000457D01*
X014003Y000497D01*
X014003Y000577D01*
X013868Y000617D02*
X013708Y000457D01*
X013868Y000457D01*
X013868Y000617D02*
X013868Y000657D01*
X013828Y000697D01*
X013748Y000697D01*
X013708Y000657D01*
X013574Y000657D02*
X013534Y000697D01*
X013454Y000697D01*
X013414Y000657D01*
X013414Y000497D01*
X013454Y000457D01*
X013534Y000457D01*
X013574Y000497D01*
X006205Y001163D02*
X006045Y001163D01*
X006205Y001323D01*
X006205Y001363D01*
X006165Y001404D01*
X006085Y001404D01*
X006045Y001363D01*
X005910Y001363D02*
X005870Y001404D01*
X005790Y001404D01*
X005750Y001363D01*
X005615Y001363D02*
X005575Y001404D01*
X005495Y001404D01*
X005455Y001363D01*
X005455Y001203D01*
X005495Y001163D01*
X005575Y001163D01*
X005615Y001203D01*
X005750Y001163D02*
X005910Y001323D01*
X005910Y001363D01*
X005910Y001163D02*
X005750Y001163D01*
X004880Y001658D02*
X004880Y001682D01*
X003698Y001237D02*
X003502Y001237D01*
X003542Y001064D02*
X003502Y001024D01*
X003502Y000984D01*
X003542Y000944D01*
X003662Y000944D01*
X003662Y001024D02*
X003622Y001064D01*
X003542Y001064D01*
X003662Y001024D02*
X003662Y000864D01*
X003622Y000824D01*
X003542Y000824D01*
X003502Y000864D01*
X003367Y000824D02*
X003207Y000824D01*
X003207Y001064D01*
D11*
X018755Y007535D02*
X018757Y007565D01*
X018763Y007595D01*
X018772Y007624D01*
X018785Y007651D01*
X018802Y007676D01*
X018821Y007699D01*
X018844Y007720D01*
X018869Y007737D01*
X018895Y007751D01*
X018924Y007761D01*
X018953Y007768D01*
X018983Y007771D01*
X019014Y007770D01*
X019044Y007765D01*
X019073Y007756D01*
X019100Y007744D01*
X019126Y007729D01*
X019150Y007710D01*
X019171Y007688D01*
X019189Y007664D01*
X019204Y007637D01*
X019215Y007609D01*
X019223Y007580D01*
X019227Y007550D01*
X019227Y007520D01*
X019223Y007490D01*
X019215Y007461D01*
X019204Y007433D01*
X019189Y007406D01*
X019171Y007382D01*
X019150Y007360D01*
X019126Y007341D01*
X019100Y007326D01*
X019073Y007314D01*
X019044Y007305D01*
X019014Y007300D01*
X018983Y007299D01*
X018953Y007302D01*
X018924Y007309D01*
X018895Y007319D01*
X018869Y007333D01*
X018844Y007350D01*
X018821Y007371D01*
X018802Y007394D01*
X018785Y007419D01*
X018772Y007446D01*
X018763Y007475D01*
X018757Y007505D01*
X018755Y007535D01*
D12*
X019722Y010331D03*
X015667Y011739D03*
X015687Y012920D03*
X010293Y008520D03*
X011848Y007930D03*
X013033Y005410D03*
X013033Y005410D03*
X009466Y004662D03*
X006277Y007831D03*
X008187Y010666D03*
X008423Y011985D03*
X006159Y015134D03*
D13*
X006415Y013205D03*
X006553Y012378D03*
X006553Y011296D03*
X006553Y010311D03*
X007911Y009426D03*
X010355Y006237D03*
X011966Y005902D03*
X013521Y004406D03*
X013521Y004406D03*
X014919Y005351D03*
X016474Y005666D03*
X019742Y002182D03*
X024761Y007004D03*
X024584Y008028D03*
X023069Y010804D03*
X021946Y011729D03*
X021946Y011729D03*
X020726Y011808D03*
X020726Y011808D03*
X018836Y013126D03*
X022124Y015607D03*
X015962Y010233D03*
X014722Y010311D03*
X012281Y014701D03*
X009033Y003638D03*
X010509Y001591D03*
D14*
X016615Y012930D02*
X016617Y012944D01*
X016623Y012958D01*
X016631Y012970D01*
X016643Y012978D01*
X016657Y012984D01*
X016671Y012986D01*
X016685Y012984D01*
X016699Y012978D01*
X016711Y012970D01*
X016719Y012958D01*
X016725Y012944D01*
X016727Y012930D01*
X016725Y012916D01*
X016719Y012902D01*
X016711Y012890D01*
X016699Y012882D01*
X016685Y012876D01*
X016671Y012874D01*
X016657Y012876D01*
X016643Y012882D01*
X016631Y012890D01*
X016623Y012902D01*
X016617Y012916D01*
X016615Y012930D01*
D15*
X022734Y013953D02*
X022734Y015961D01*
X024820Y015961D01*
X024820Y013953D01*
X022734Y013953D01*
M02*
