%
M48
M72
T01C0.0120
T02C0.0236
T03C0.0276
T04C0.0315
T05C0.0394
T06C0.0400
T07C0.0433
%
T01
X16513Y4111
X15569Y3540
X21474Y1827
X17793Y2260
X19112Y2752
X19112Y2477
X20332Y2004
X18777Y2930
X14860Y3343
X14407Y1217
X15726Y1217
X16218Y981
X21691Y1670
X21494Y1493
X22320Y1020
X22025Y3973
X22025Y4288
X18915Y4937
X15293Y961
X17360Y4583
X17655Y4583
X17950Y4583
X18226Y4583
X18521Y4583
X18817Y4583
X19131Y4583
X19427Y4583
X19722Y4583
X17084Y4583
X16789Y4583
X16474Y4583
X16139Y4583
X15844Y4583
X14899Y4583
X14860Y4288
X14860Y3973
X14860Y1138
X14860Y843
X14860Y508
X14860Y3658
X15214Y4583
X15529Y4583
X21750Y4583
X21454Y4583
X20017Y4583
X20293Y4583
X20588Y4583
X20883Y4583
X21159Y4583
X7084Y3993
X5411Y3067
X6061Y3973
X13187Y8264
X22025Y4583
X22320Y4583
X22616Y4583
X23206Y3973
X23206Y4268
X22911Y4583
X23206Y4583
X16946Y3481
X14860Y1749
X20057Y3540
X17360Y4937
X22911Y3973
X20726Y4937
X22320Y3973
X22616Y3973
X22694Y11158
X21297Y11217
X25765Y8874
X22773Y7693
X7380Y8993
X8482Y6670
X9702Y3245
X17340Y508
X17635Y508
X17931Y508
X18206Y508
X18502Y508
X18797Y508
X19112Y508
X19407Y508
X19702Y508
X17065Y508
X16769Y508
X16454Y508
X16120Y508
X15824Y508
X15194Y508
X15509Y508
X21730Y508
X21435Y508
X19998Y508
X20273Y508
X20569Y508
X20864Y508
X21139Y508
X22006Y508
X22301Y508
X22596Y508
X22891Y508
X23108Y725
X20332Y2339
X23206Y1020
X22911Y1020
X21356Y1256
X21356Y981
X22025Y1020
X22616Y1020
X18069Y1000
X18069Y1296
X24978Y7536
X20234Y7024
X12517Y5489
X20372Y8796
X14131Y9209
X8600Y7201
X6927Y7398
X9269Y9682
X5883Y8225
X10647Y7733
X9604Y6315
X18069Y10489
X10569Y3363
X14407Y508
X14053Y804
X10746Y2142
X12104Y5489
X12399Y4898
X12360Y4150
X12360Y4504
X11651Y3973
X21533Y6453
X9663Y528
X11277Y843
X9112Y1119
X9663Y1119
X9112Y528
X8482Y528
X7832Y528
X7202Y528
X11750Y548
X12301Y2477
X6631Y1119
X4683Y5115
X8482Y1119
X4860Y1296
X6809Y3973
X3915Y567
X3915Y1000
X2773Y1414
X2773Y567
X3344Y1000
X3344Y567
X2773Y2241
X4131Y5075
X2754Y4819
X2754Y3678
X4525Y3126
X8521Y3186
X11277Y548
X12242Y567
X13541Y804
X14407Y863
X15322Y4937
X15943Y4937
X16612Y4937
X18069Y4937
X19781Y4937
X21651Y4937
X22655Y4937
X23659Y4937
X24663Y4937
X25549Y4937
X13817Y9445
X24348Y11315
X25805Y11178
X21868Y8658
X25805Y11670
X25785Y10390
X25785Y9642
X25864Y7201
X25667Y6355
X25667Y5823
X24722Y6237
X25746Y8146
X11297Y13520
X10667Y13520
X5569Y15705
X2773Y15686
X2754Y5567
X5864Y7595
X5785Y9308
X2734Y6788
X2754Y8048
X2754Y9327
X2754Y10548
X2734Y11788
X2734Y13008
X2734Y14288
X8541Y13343
X8836Y12949
X6966Y15154
X4880Y10686
X8620Y7871
X5923Y5745
X14860Y1453
X21887Y11178
X20431Y10016
X14407Y1571
X17202Y3481
X22714Y6611
X23777Y6630
X18226Y12595
X20057Y13619
X12222Y14130
X17616Y11374
X16612Y14308
X14446Y11315
X12911Y11374
X18915Y11847
X19899Y11926
X20785Y12103
X18029Y15764
X19663Y15733
X14880Y15213
X13561Y15567
X25746Y15134
X20431Y10548
X15687Y14288
X13954Y14406
X19230Y7083
X17813Y7536
X19545Y7674
X14131Y8008
X17498Y3402
X17498Y3146
X17498Y2890
X20529Y15745
X25746Y14701
X22124Y13008
X21159Y12989
X8246Y4347
X8246Y3993
X4939Y2930
X9525Y2063
X9702Y3638
X12320Y15134
X10943Y8973
X19328Y9170
X18620Y15371
X18935Y10823
X15982Y11374
X17635Y14209
X18147Y13500
X16376Y13363
X15214Y13264
X17104Y14189
X14722Y13323
X15273Y11473
X18698Y12811
X17616Y7300
X14545Y6079
X21198Y10449
X18206Y8993
X15194Y8894
X13974Y5430
X24309Y10469
X18561Y8619
X15844Y8776
X24309Y9603
X15057Y5774
X18521Y9229
X23403Y11197
X15569Y8943
X14230Y5666
X14466Y8048
X13423Y5430
X17301Y8264
X11080Y6099
X18049Y9445
X24171Y9170
X10450Y5587
X13324Y9583
X8305Y5095
X4446Y3874
X3108Y2615
X3580Y2851
X3423Y2615
X3265Y2851
X8482Y2851
X9742Y6788
X24486Y10016
X21553Y6906
X14820Y9189
X12813Y4524
X13580Y5981
X16139Y7221
X11179Y5725
X12360Y7103
X11041Y1965
X10952Y3412
X9210Y10863
X7931Y11689
X9466Y8934
X7832Y9819
X9446Y8619
X7340Y9977
X16002Y6040
X16612Y6985
X16868Y7575
X17754Y9544
X17439Y9544
X17281Y6886
X24053Y6217
X22419Y6414
X9151Y10469
X8620Y10686
X9446Y8304
X8580Y9997
X9387Y8008
X7714Y9052
X9191Y9130
X6080Y10686
X18265Y7497
X13029Y9367
X12261Y8107
X6710Y7142
X11376Y9032
X9309Y12280
X9624Y11178
X10096Y9268
X13600Y9209
X17557Y8008
X8049Y5292
X5352Y5213
X5411Y4465
X6651Y5252
X18974Y7280
X16691Y10272
X18561Y7280
X13954Y10193
X14683Y12811
X16395Y11138
X15982Y7871
X15352Y5882
X14250Y2871
X14210Y1886
X16927Y9426
X13128Y14288
X14309Y12063
X14053Y11256
X25687Y15567
X22616Y11630
X20943Y11256
X20273Y12123
X20450Y13107
X6435Y6414
X6021Y6886
X16061Y15115
X16090Y13510
X9033Y2300
T02
X20881Y12516
X20381Y12516
X21381Y12516
X21881Y12516
X22381Y12516
T03
X21021Y15103
X21021Y13709
T04
X13545Y10863
X14332Y10863
X15120Y10863
X15907Y10863
X17383Y5764
X18171Y5764
X18958Y5764
X19746Y5764
T05
X13521Y7544
X13521Y3544
T06
X3318Y14920
X4318Y14920
X5318Y14920
X3318Y13671
X4318Y13671
X5318Y13671
X3318Y12423
X4318Y12423
X5318Y12423
X3318Y11174
X4318Y11174
X5318Y11174
X3318Y9926
X4318Y9926
X5318Y9926
X3318Y8677
X4318Y8677
X5318Y8677
X3318Y7429
X4318Y7429
X5318Y7429
X3318Y6180
X4318Y6180
X5318Y6180
X10324Y12630
X11324Y12630
X10324Y11630
X11324Y11630
X10324Y10630
X11324Y10630
X21171Y5390
X22171Y5390
X23171Y5390
X24171Y5390
X25171Y5390
T07
X25230Y13579
X24230Y13579
X23230Y13579
M30
