G75*
G70*
%OFA0B0*%
%FSLAX24Y24*%
%IPPOS*%
%LPD*%
%AMOC8*
5,1,8,0,0,1.08239X$1,22.5*
%
%ADD10R,0.0394X0.0433*%
%ADD11R,0.0433X0.0394*%
%ADD12R,0.0394X0.0394*%
%ADD13R,0.0118X0.0256*%
%ADD14R,0.0256X0.0118*%
%ADD15R,0.0236X0.0354*%
%ADD16R,0.0236X0.0197*%
%ADD17R,0.0197X0.0236*%
%ADD18R,0.1600X0.0600*%
%ADD19R,0.0394X0.1181*%
%ADD20R,0.1181X0.0394*%
%ADD21R,0.0201X0.0315*%
%ADD22R,0.0945X0.0945*%
%ADD23R,0.0394X0.0079*%
%ADD24R,0.0079X0.0394*%
%ADD25R,0.0472X0.0217*%
%ADD26R,0.0217X0.0472*%
%ADD27R,0.0472X0.0984*%
%ADD28R,0.0571X0.0315*%
%ADD29R,0.0327X0.0248*%
%ADD30R,0.0157X0.0630*%
%ADD31C,0.0740*%
%ADD32R,0.0248X0.0327*%
%ADD33R,0.0870X0.0240*%
%ADD34R,0.0118X0.0236*%
%ADD35R,0.0551X0.0472*%
%ADD36R,0.0709X0.0630*%
%ADD37R,0.0472X0.0551*%
%ADD38C,0.0669*%
%ADD39C,0.0515*%
%ADD40R,0.0315X0.0354*%
%ADD41R,0.0657X0.0315*%
%ADD42R,0.0315X0.0984*%
%ADD43R,0.0315X0.0657*%
%ADD44R,0.0315X0.0118*%
%ADD45R,0.0118X0.0315*%
%ADD46R,0.0276X0.0138*%
%ADD47R,0.0138X0.0276*%
%ADD48R,0.1654X0.1772*%
%ADD49R,0.0512X0.0276*%
%ADD50C,0.0650*%
%ADD51C,0.0787*%
%ADD52C,0.0436*%
%ADD53R,0.0276X0.0512*%
%ADD54R,0.0236X0.0118*%
%ADD55C,0.0080*%
%ADD56C,0.0240*%
%ADD57C,0.0787*%
%ADD58C,0.0160*%
%ADD59C,0.0060*%
%ADD60C,0.0070*%
%ADD61C,0.0080*%
%ADD62C,0.0500*%
%ADD63C,0.0320*%
%ADD64C,0.0240*%
%ADD65C,0.0120*%
%ADD66C,0.0100*%
%ADD67C,0.0400*%
%ADD68C,0.0065*%
D10*
X004958Y004091D03*
X004958Y004760D03*
X006769Y005686D03*
X006769Y006355D03*
X006277Y007497D03*
X006277Y008166D03*
X008187Y010331D03*
X008187Y011000D03*
X008423Y011650D03*
X008423Y012319D03*
X006159Y014800D03*
X006159Y015469D03*
X010293Y008855D03*
X010293Y008186D03*
X011848Y008264D03*
X011848Y007595D03*
X013033Y005745D03*
X013033Y005075D03*
X015824Y002221D03*
X015824Y001552D03*
X013797Y001788D03*
X013797Y001119D03*
X009466Y004308D03*
X009466Y004977D03*
X008659Y004977D03*
X008659Y004308D03*
X014742Y011567D03*
X014742Y012237D03*
X015667Y012073D03*
X015687Y012585D03*
X015687Y013254D03*
X017360Y014603D03*
X017360Y015272D03*
X019860Y013146D03*
X019860Y012477D03*
X020864Y010843D03*
X020864Y010174D03*
X019722Y009997D03*
X019722Y010666D03*
X023352Y008260D03*
X023352Y007591D03*
X020391Y005804D03*
X020391Y005134D03*
X025470Y010764D03*
X025470Y011434D03*
X015667Y011404D03*
D11*
X016809Y011040D03*
X017478Y011040D03*
X017990Y011355D03*
X018659Y011355D03*
X019191Y011355D03*
X019860Y011355D03*
X020391Y011808D03*
X021061Y011808D03*
X021612Y011729D03*
X022281Y011729D03*
X022734Y010804D03*
X022222Y010784D03*
X021553Y010784D03*
X023403Y010804D03*
X024141Y010902D03*
X024811Y010902D03*
X024919Y008028D03*
X024250Y008028D03*
X024427Y007004D03*
X025096Y007004D03*
X022694Y007260D03*
X022025Y007260D03*
X021395Y007378D03*
X020726Y007378D03*
X020883Y006473D03*
X020214Y006473D03*
X022025Y008067D03*
X022694Y008067D03*
X019191Y012182D03*
X018521Y012182D03*
X018502Y013126D03*
X019171Y013126D03*
X016710Y013914D03*
X016041Y013914D03*
X016002Y014721D03*
X016671Y014721D03*
X016671Y015528D03*
X016002Y015528D03*
X015293Y014288D03*
X014624Y014288D03*
X012616Y014701D03*
X011946Y014701D03*
X012006Y015508D03*
X012675Y015508D03*
X012852Y011689D03*
X013407Y011650D03*
X014076Y011650D03*
X012891Y010804D03*
X012222Y010804D03*
X012183Y011689D03*
X012813Y009997D03*
X013482Y009997D03*
X014269Y009504D03*
X014939Y009504D03*
X015628Y010233D03*
X015057Y010311D03*
X014387Y010311D03*
X016297Y010233D03*
X015214Y007615D03*
X014545Y007615D03*
X016139Y005666D03*
X016809Y005666D03*
X015254Y005351D03*
X014584Y005351D03*
X013856Y004406D03*
X013187Y004406D03*
X012242Y003441D03*
X011572Y003441D03*
X010844Y001591D03*
X010175Y001591D03*
X010175Y000784D03*
X010844Y000784D03*
X013738Y002457D03*
X014407Y002457D03*
X015431Y003914D03*
X016100Y003914D03*
X012301Y005902D03*
X011631Y005902D03*
X010687Y006237D03*
X010017Y006237D03*
X009368Y003638D03*
X008698Y003638D03*
X006533Y003500D03*
X005864Y003500D03*
X004131Y005548D03*
X003462Y005548D03*
X007576Y009426D03*
X008246Y009426D03*
X006887Y010311D03*
X006218Y010311D03*
X006218Y011296D03*
X006887Y011296D03*
X006887Y012378D03*
X006218Y012378D03*
X006080Y013205D03*
X006750Y013205D03*
X004151Y015548D03*
X003482Y015548D03*
X021789Y015607D03*
X022458Y015607D03*
D12*
X017143Y003126D03*
D13*
X017143Y002378D03*
X016946Y002378D03*
X016750Y002378D03*
X017340Y002378D03*
X017537Y002378D03*
X017537Y003874D03*
X017340Y003874D03*
X017143Y003874D03*
X016946Y003874D03*
X016750Y003874D03*
D14*
X016395Y003520D03*
X016395Y003323D03*
X016395Y003126D03*
X016395Y002930D03*
X016395Y002733D03*
X017891Y002733D03*
X017891Y002930D03*
X017891Y003126D03*
X017891Y003323D03*
X017891Y003520D03*
D15*
X018226Y002575D03*
X018817Y002575D03*
X019446Y002182D03*
X020037Y002182D03*
X018817Y001965D03*
X018226Y001965D03*
X015805Y003205D03*
X015214Y003205D03*
D16*
X018344Y003205D03*
X018344Y003599D03*
X018757Y003599D03*
X018757Y003205D03*
X019368Y001689D03*
X019368Y001296D03*
X019781Y001296D03*
X019781Y001689D03*
X020962Y001886D03*
X020962Y002280D03*
X021572Y002083D03*
X021572Y002477D03*
X021179Y003579D03*
X021179Y003973D03*
X020962Y001473D03*
X020962Y001079D03*
D17*
X020569Y001335D03*
X020175Y001335D03*
X018974Y001434D03*
X018580Y001434D03*
X019624Y002772D03*
X020017Y002772D03*
X020608Y002693D03*
X021002Y002693D03*
X021159Y003186D03*
X021553Y003186D03*
X019545Y003186D03*
X019151Y003186D03*
X019151Y003599D03*
X019545Y003599D03*
D18*
X022650Y003501D03*
X022650Y002501D03*
X022650Y001501D03*
D19*
X003994Y001827D03*
X003206Y001827D03*
D20*
X006139Y001689D03*
X006139Y002477D03*
D21*
X005196Y002536D03*
X004822Y002536D03*
X004448Y002536D03*
X004448Y003560D03*
X004822Y003560D03*
X005196Y003560D03*
D22*
X007596Y003146D03*
X007596Y001414D03*
X023443Y012497D03*
X025175Y012497D03*
D23*
X019975Y009405D03*
X019975Y009208D03*
X019975Y009011D03*
X019975Y008814D03*
X019975Y008617D03*
X019975Y008420D03*
X019975Y008224D03*
X019975Y008027D03*
X019975Y007830D03*
X019975Y007633D03*
X019975Y007436D03*
X019975Y007239D03*
X016432Y007239D03*
X016432Y007436D03*
X016432Y007633D03*
X016432Y007830D03*
X016432Y008027D03*
X016432Y008224D03*
X016432Y008420D03*
X016432Y008617D03*
X016432Y008814D03*
X016432Y009011D03*
X016432Y009208D03*
X016432Y009405D03*
D24*
X017121Y010094D03*
X017318Y010094D03*
X017515Y010094D03*
X017712Y010094D03*
X017909Y010094D03*
X018105Y010094D03*
X018302Y010094D03*
X018499Y010094D03*
X018696Y010094D03*
X018893Y010094D03*
X019090Y010094D03*
X019286Y010094D03*
X019286Y006550D03*
X019090Y006550D03*
X018893Y006550D03*
X018696Y006550D03*
X018499Y006550D03*
X018302Y006550D03*
X018105Y006550D03*
X017909Y006550D03*
X017712Y006550D03*
X017515Y006550D03*
X017318Y006550D03*
X017121Y006550D03*
D25*
X012832Y002831D03*
X012832Y002083D03*
X011809Y002083D03*
X011809Y002457D03*
X011809Y002831D03*
X014446Y014878D03*
X014446Y015252D03*
X014446Y015626D03*
X015470Y015626D03*
X015470Y014878D03*
D26*
X011080Y003934D03*
X010332Y003934D03*
X010332Y002910D03*
X010706Y002910D03*
X011080Y002910D03*
D27*
X011651Y001217D03*
X012950Y001217D03*
X011612Y004780D03*
X010313Y004780D03*
X007734Y004524D03*
X006435Y004524D03*
D28*
X021376Y007871D03*
X021376Y008500D03*
D29*
X011100Y008540D03*
X011100Y007634D03*
X007537Y011000D03*
X007537Y011906D03*
X007537Y012300D03*
X007537Y013205D03*
D30*
X007592Y008514D03*
X007848Y008514D03*
X008104Y008514D03*
X008360Y008514D03*
X008616Y008514D03*
X008871Y008514D03*
X009127Y008514D03*
X007336Y008514D03*
X007336Y006191D03*
X007592Y006191D03*
X007848Y006191D03*
X008104Y006191D03*
X008360Y006191D03*
X008616Y006191D03*
X008871Y006191D03*
X009127Y006191D03*
D31*
X005318Y006180D03*
X004318Y006180D03*
X003318Y006180D03*
X003318Y007429D03*
X004318Y007429D03*
X005318Y007429D03*
X005318Y008677D03*
X004318Y008677D03*
X003318Y008677D03*
X003318Y009926D03*
X004318Y009926D03*
X005318Y009926D03*
X005318Y011174D03*
X004318Y011174D03*
X003318Y011174D03*
X003318Y012423D03*
X004318Y012423D03*
X005318Y012423D03*
X005318Y013671D03*
X004318Y013671D03*
X003318Y013671D03*
X003318Y014920D03*
X004318Y014920D03*
X005318Y014920D03*
X021171Y005390D03*
X022171Y005390D03*
X023171Y005390D03*
X024171Y005390D03*
X025171Y005390D03*
D32*
X007065Y009327D03*
X006159Y009327D03*
X006061Y014229D03*
X006966Y014229D03*
D33*
X023062Y010373D03*
X023062Y009873D03*
X023062Y009373D03*
X023062Y008873D03*
X025122Y008873D03*
X025122Y009373D03*
X025122Y009873D03*
X025122Y010373D03*
D34*
X020608Y003874D03*
X020352Y003874D03*
X020096Y003874D03*
X020096Y003126D03*
X020352Y003126D03*
X020608Y003126D03*
D35*
X017576Y001808D03*
X017576Y001178D03*
X016710Y001178D03*
X016710Y001808D03*
D36*
X003364Y003363D03*
X003364Y004465D03*
D37*
X021513Y009130D03*
X022143Y009130D03*
X022143Y009997D03*
X021513Y009997D03*
D38*
X011324Y010630D03*
X010324Y010630D03*
X010324Y011630D03*
X011324Y011630D03*
X011324Y012630D03*
X010324Y012630D03*
D39*
X013545Y010863D03*
X014332Y010863D03*
X015120Y010863D03*
X015907Y010863D03*
X017383Y005764D03*
X018171Y005764D03*
X018958Y005764D03*
X019746Y005764D03*
D40*
X021612Y014367D03*
X022360Y014367D03*
X021986Y015193D03*
X013954Y015489D03*
X013206Y015489D03*
X013580Y014662D03*
D41*
X018102Y014603D03*
X018102Y015103D03*
X018102Y014103D03*
X019728Y014103D03*
X019728Y014603D03*
X019728Y015103D03*
D42*
X018915Y013953D03*
D43*
X018915Y015416D03*
D44*
X017852Y013008D03*
X017852Y012811D03*
X017852Y012615D03*
X017852Y012418D03*
X017852Y012221D03*
X017852Y012024D03*
X016277Y012024D03*
X016277Y012221D03*
X016277Y012418D03*
X016277Y012615D03*
X016277Y012811D03*
X016277Y013008D03*
D45*
X016572Y013304D03*
X016769Y013304D03*
X016966Y013304D03*
X017163Y013304D03*
X017360Y013304D03*
X017557Y013304D03*
X017557Y011729D03*
X017360Y011729D03*
X017163Y011729D03*
X016966Y011729D03*
X016769Y011729D03*
X016572Y011729D03*
D46*
X014250Y012477D03*
X014250Y012693D03*
X014250Y012910D03*
X014250Y013126D03*
X014250Y013343D03*
X014250Y013560D03*
X014250Y013776D03*
X012439Y013776D03*
X012439Y013560D03*
X012439Y013343D03*
X012439Y013126D03*
X012439Y012910D03*
X012439Y012693D03*
X012439Y012477D03*
D47*
X012694Y012221D03*
X012911Y012221D03*
X013128Y012221D03*
X013344Y012221D03*
X013561Y012221D03*
X013777Y012221D03*
X013994Y012221D03*
X013994Y014032D03*
X013777Y014032D03*
X013561Y014032D03*
X013344Y014032D03*
X013128Y014032D03*
X012911Y014032D03*
X012694Y014032D03*
D48*
X023694Y014957D03*
D49*
X025194Y014707D03*
X025194Y014207D03*
X025194Y015207D03*
X025194Y015707D03*
D50*
X021021Y015103D03*
X021021Y013709D03*
D51*
X023230Y013579D03*
X024230Y013579D03*
X025230Y013579D03*
X013521Y007544D03*
X013521Y003544D03*
D52*
X020381Y012516D03*
X020881Y012516D03*
X021381Y012516D03*
X021881Y012516D03*
X022381Y012516D03*
D53*
X005244Y001670D03*
X004476Y001670D03*
D54*
X008777Y002339D03*
X008777Y002851D03*
X009525Y002851D03*
X009525Y002595D03*
X009525Y002339D03*
D55*
X002458Y002790D02*
X002458Y000412D01*
X003936Y000412D01*
X004641Y001118D01*
X004723Y001199D01*
X006298Y001199D01*
X006414Y001199D01*
X007201Y000412D01*
X009801Y000412D01*
X009801Y001457D01*
X009725Y001381D01*
X009608Y001333D01*
X009482Y001333D01*
X009365Y001381D01*
X009276Y001470D01*
X009228Y001587D01*
X009228Y001713D01*
X009276Y001830D01*
X009365Y001919D01*
X009482Y001967D01*
X009608Y001967D01*
X009725Y001919D01*
X009801Y001843D01*
X009800Y001843D01*
X009801Y001843D02*
X009801Y003159D01*
X009778Y003181D01*
X009778Y004008D01*
X009764Y004022D01*
X009713Y003971D01*
X009220Y003971D01*
X009149Y004041D01*
X009149Y004138D01*
X008976Y004138D01*
X008976Y004041D01*
X008906Y003971D01*
X008868Y003971D01*
X008868Y003955D01*
X008965Y003955D01*
X009035Y003885D01*
X009035Y003392D01*
X008965Y003321D01*
X008498Y003321D01*
X008406Y003229D01*
X008406Y003079D01*
X008434Y003091D01*
X008530Y003091D01*
X008618Y003054D01*
X008642Y003030D01*
X008945Y003030D01*
X009015Y002960D01*
X009015Y002742D01*
X008945Y002672D01*
X008642Y002672D01*
X008618Y002647D01*
X008530Y002611D01*
X008434Y002611D01*
X008406Y002623D01*
X008406Y002540D01*
X008301Y002435D01*
X008222Y002356D01*
X008073Y002356D01*
X007375Y002356D01*
X007039Y002020D01*
X007178Y002020D01*
X007211Y002006D01*
X008118Y002006D01*
X008188Y001936D01*
X008188Y001921D01*
X008301Y001967D01*
X008427Y001967D01*
X008543Y001919D01*
X008633Y001830D01*
X008681Y001713D01*
X008681Y001587D01*
X008633Y001470D01*
X008543Y001381D01*
X008427Y001333D01*
X008301Y001333D01*
X008188Y001379D01*
X008188Y000892D01*
X008118Y000821D01*
X007074Y000821D01*
X007004Y000892D01*
X007004Y001280D01*
X005396Y001280D01*
X005368Y001292D01*
X005363Y001292D01*
X005285Y001292D01*
X005280Y001294D01*
X005056Y001294D01*
X004986Y001364D01*
X004986Y001975D01*
X005056Y002046D01*
X005115Y002046D01*
X005034Y002127D01*
X005034Y002271D01*
X004976Y002329D01*
X004976Y002552D01*
X004958Y002600D01*
X004976Y002641D01*
X004976Y002743D01*
X005046Y002813D01*
X005347Y002813D01*
X005417Y002743D01*
X005417Y002329D01*
X005394Y002306D01*
X005394Y002276D01*
X005427Y002243D01*
X006753Y002243D01*
X007069Y002559D01*
X007004Y002624D01*
X007004Y003220D01*
X006836Y003220D01*
X006799Y003184D01*
X006267Y003184D01*
X006197Y003254D01*
X006197Y003747D01*
X006267Y003817D01*
X006799Y003817D01*
X006836Y003780D01*
X007217Y003780D01*
X007217Y004076D01*
X007266Y004194D01*
X007304Y004231D01*
X007319Y004269D01*
X007359Y004309D01*
X007378Y004337D01*
X007378Y005066D01*
X007424Y005112D01*
X006850Y005112D01*
X006787Y005049D01*
X006699Y005012D01*
X006603Y005012D01*
X006515Y005049D01*
X006448Y005116D01*
X006441Y005132D01*
X005578Y005132D01*
X005555Y005077D01*
X005488Y005010D01*
X005400Y004973D01*
X005304Y004973D01*
X005216Y005010D01*
X005149Y005077D01*
X005112Y005165D01*
X005112Y005213D01*
X002559Y005213D01*
X002559Y002988D01*
X002559Y002872D01*
X002477Y002790D01*
X002458Y002790D01*
X002458Y002786D02*
X002825Y002786D01*
X002806Y002721D02*
X002788Y002678D01*
X002788Y002661D01*
X002783Y002644D01*
X002788Y002597D01*
X002788Y002551D01*
X002795Y002535D01*
X002796Y002517D01*
X002819Y002476D01*
X002837Y002433D01*
X002849Y002421D01*
X002857Y002406D01*
X002886Y002382D01*
X002886Y001764D01*
X002458Y001764D01*
X002458Y001686D02*
X002889Y001686D01*
X002889Y001756D02*
X002889Y001187D01*
X002960Y001117D01*
X003453Y001117D01*
X003523Y001187D01*
X003523Y001756D01*
X003526Y001764D01*
X003677Y001764D01*
X003677Y001686D02*
X003523Y001686D01*
X003526Y001764D02*
X003526Y002350D01*
X003532Y002351D01*
X003625Y002413D01*
X003798Y002673D01*
X003818Y002692D01*
X003824Y002707D01*
X003977Y002707D01*
X003913Y002691D02*
X003864Y002681D01*
X003859Y002678D01*
X003852Y002676D01*
X003813Y002647D01*
X003772Y002619D01*
X003768Y002614D01*
X003763Y002610D01*
X003737Y002568D01*
X003710Y002527D01*
X003709Y002520D01*
X003705Y002514D01*
X003702Y002493D01*
X003677Y002467D01*
X003677Y001187D01*
X003747Y001117D01*
X004240Y001117D01*
X004311Y001187D01*
X004311Y001292D01*
X004474Y001292D01*
X004479Y001294D01*
X004663Y001294D01*
X004734Y001364D01*
X004734Y001975D01*
X004726Y001983D01*
X004726Y002283D01*
X004726Y002502D01*
X004734Y002549D01*
X004726Y002578D01*
X004726Y002592D01*
X004718Y002612D01*
X004707Y002658D01*
X004689Y002681D01*
X004684Y002694D01*
X004669Y002709D01*
X004669Y002743D01*
X004599Y002813D01*
X004508Y002813D01*
X004502Y002816D01*
X004469Y002816D01*
X004435Y002821D01*
X004414Y002816D01*
X004391Y002816D01*
X004385Y002813D01*
X004298Y002813D01*
X004263Y002778D01*
X003913Y002691D01*
X003834Y002719D02*
X003837Y002731D01*
X003844Y002742D01*
X003850Y002769D01*
X003860Y002795D01*
X003860Y002811D01*
X003865Y002826D01*
X003863Y002839D01*
X003866Y002851D01*
X003860Y002879D01*
X003860Y002907D01*
X003854Y002921D01*
X003841Y003043D01*
X003841Y003084D01*
X003838Y003090D01*
X003838Y003727D01*
X003768Y003798D01*
X002960Y003798D01*
X002889Y003727D01*
X002889Y003021D01*
X002559Y003021D01*
X002559Y002943D02*
X002871Y002943D01*
X002886Y002995D02*
X002806Y002721D01*
X002800Y002707D02*
X002458Y002707D01*
X002458Y002628D02*
X002785Y002628D01*
X002788Y002550D02*
X002458Y002550D01*
X002458Y002471D02*
X002821Y002471D01*
X002873Y002393D02*
X002458Y002393D01*
X002458Y002314D02*
X002886Y002314D01*
X002886Y002236D02*
X002458Y002236D01*
X002458Y002157D02*
X002886Y002157D01*
X002886Y002079D02*
X002458Y002079D01*
X002458Y002000D02*
X002886Y002000D01*
X002886Y001922D02*
X002458Y001922D01*
X002458Y001843D02*
X002886Y001843D01*
X002886Y001764D02*
X002889Y001756D01*
X002889Y001607D02*
X002458Y001607D01*
X002458Y001529D02*
X002889Y001529D01*
X002889Y001450D02*
X002458Y001450D01*
X002458Y001372D02*
X002889Y001372D01*
X002889Y001293D02*
X002458Y001293D01*
X002458Y001215D02*
X002889Y001215D01*
X002940Y001136D02*
X002458Y001136D01*
X002458Y001058D02*
X004581Y001058D01*
X004660Y001136D02*
X004260Y001136D01*
X004311Y001215D02*
X007004Y001215D01*
X007004Y001136D02*
X006477Y001136D01*
X006556Y001058D02*
X007004Y001058D01*
X007004Y000979D02*
X006634Y000979D01*
X006713Y000900D02*
X007004Y000900D01*
X007073Y000822D02*
X006791Y000822D01*
X006870Y000743D02*
X009801Y000743D01*
X009801Y000665D02*
X006949Y000665D01*
X007027Y000586D02*
X009801Y000586D01*
X009801Y000508D02*
X007106Y000508D01*
X007184Y000429D02*
X009801Y000429D01*
X009958Y000429D02*
X014624Y000429D01*
X014624Y000412D02*
X009958Y000412D01*
X009958Y003001D01*
X010104Y002855D01*
X010104Y002624D01*
X010174Y002554D01*
X010175Y002554D01*
X010176Y002542D01*
X010184Y002535D01*
X010185Y002524D01*
X010244Y002480D01*
X010450Y002293D01*
X010505Y002237D01*
X010511Y002237D01*
X010515Y002234D01*
X010593Y002237D01*
X011294Y002237D01*
X011294Y002228D01*
X011294Y002096D01*
X011373Y002017D01*
X011383Y002007D01*
X011383Y002007D01*
X011281Y002007D01*
X011281Y002013D01*
X011244Y002101D01*
X011177Y002168D01*
X011089Y002205D01*
X010993Y002205D01*
X010905Y002168D01*
X010837Y002101D01*
X010801Y002013D01*
X010801Y001951D01*
X010757Y001908D01*
X010578Y001908D01*
X010508Y001838D01*
X010508Y001344D01*
X010578Y001274D01*
X011019Y001274D01*
X011019Y001185D01*
X010935Y001101D01*
X010578Y001101D01*
X010508Y001030D01*
X010508Y000537D01*
X010578Y000467D01*
X011110Y000467D01*
X011181Y000537D01*
X011181Y000894D01*
X011339Y001052D01*
X011339Y001185D01*
X011339Y001643D01*
X011383Y001687D01*
X012210Y001687D01*
X012303Y001781D01*
X012446Y001923D01*
X012478Y001923D01*
X012546Y001855D01*
X013118Y001855D01*
X013124Y001861D01*
X013124Y001829D01*
X012664Y001829D01*
X012594Y001759D01*
X012594Y000675D01*
X012664Y000605D01*
X013236Y000605D01*
X013307Y000675D01*
X013307Y001290D01*
X013509Y001493D01*
X013550Y001451D01*
X014043Y001451D01*
X014114Y001522D01*
X014114Y001667D01*
X014162Y001646D01*
X014258Y001646D01*
X014346Y001683D01*
X014414Y001750D01*
X014438Y001809D01*
X014449Y001820D01*
X014449Y001834D01*
X014450Y001835D01*
X014624Y001835D01*
X014624Y000412D01*
X014624Y000508D02*
X011151Y000508D01*
X011181Y000586D02*
X014624Y000586D01*
X014624Y000665D02*
X013296Y000665D01*
X013307Y000743D02*
X014624Y000743D01*
X014624Y000822D02*
X013307Y000822D01*
X013307Y000900D02*
X014624Y000900D01*
X014624Y000979D02*
X013307Y000979D01*
X013307Y001058D02*
X014624Y001058D01*
X014624Y001136D02*
X013307Y001136D01*
X013307Y001215D02*
X014624Y001215D01*
X014624Y001293D02*
X013309Y001293D01*
X013388Y001372D02*
X014624Y001372D01*
X014624Y001450D02*
X013466Y001450D01*
X013124Y001843D02*
X012366Y001843D01*
X012444Y001922D02*
X012480Y001922D01*
X012380Y002083D02*
X012143Y001847D01*
X011317Y001847D01*
X011179Y001709D01*
X011179Y001119D01*
X010844Y000784D01*
X011181Y000822D02*
X012594Y000822D01*
X012594Y000900D02*
X011187Y000900D01*
X011265Y000979D02*
X012594Y000979D01*
X012594Y001058D02*
X011339Y001058D01*
X011339Y001136D02*
X012594Y001136D01*
X012594Y001215D02*
X011339Y001215D01*
X011339Y001293D02*
X012594Y001293D01*
X012594Y001372D02*
X011339Y001372D01*
X011339Y001450D02*
X012594Y001450D01*
X012594Y001529D02*
X011339Y001529D01*
X011339Y001607D02*
X012594Y001607D01*
X012594Y001686D02*
X011382Y001686D01*
X011041Y001965D02*
X010844Y001768D01*
X010844Y001591D01*
X010771Y001922D02*
X009958Y001922D01*
X009958Y002000D02*
X010801Y002000D01*
X010828Y002079D02*
X009958Y002079D01*
X009958Y002157D02*
X010894Y002157D01*
X011188Y002157D02*
X011294Y002157D01*
X011294Y002236D02*
X010555Y002236D01*
X010513Y002236D02*
X009958Y002236D01*
X009958Y002314D02*
X010426Y002314D01*
X010340Y002393D02*
X009958Y002393D01*
X009958Y002471D02*
X010254Y002471D01*
X010175Y002550D02*
X009958Y002550D01*
X009958Y002628D02*
X010104Y002628D01*
X010104Y002707D02*
X009958Y002707D01*
X009958Y002786D02*
X010104Y002786D01*
X010095Y002864D02*
X009958Y002864D01*
X009958Y002943D02*
X010017Y002943D01*
X009801Y002943D02*
X009763Y002943D01*
X009763Y002960D02*
X009693Y003030D01*
X009357Y003030D01*
X009287Y002960D01*
X009287Y002742D01*
X009357Y002672D01*
X009693Y002672D01*
X009763Y002742D01*
X009763Y002960D01*
X009801Y003021D02*
X009702Y003021D01*
X009801Y003100D02*
X008406Y003100D01*
X008406Y003178D02*
X009781Y003178D01*
X009778Y003257D02*
X008434Y003257D01*
X008188Y003521D02*
X008188Y003668D01*
X008118Y003739D01*
X007857Y003739D01*
X007857Y003912D01*
X008020Y003912D01*
X008090Y003982D01*
X008090Y004521D01*
X008266Y004697D01*
X008355Y004697D01*
X008411Y004642D01*
X008342Y004574D01*
X008342Y004041D01*
X008412Y003971D01*
X008528Y003971D01*
X008528Y003955D01*
X008432Y003955D01*
X008362Y003885D01*
X007857Y003885D01*
X007857Y003807D02*
X008362Y003807D01*
X008362Y003885D02*
X008362Y003694D01*
X008188Y003521D01*
X008188Y003571D02*
X008239Y003571D01*
X008188Y003649D02*
X008317Y003649D01*
X008362Y003728D02*
X008129Y003728D01*
X008071Y003964D02*
X008528Y003964D01*
X008342Y004042D02*
X008090Y004042D01*
X008090Y004121D02*
X008342Y004121D01*
X008342Y004199D02*
X008090Y004199D01*
X008090Y004278D02*
X008342Y004278D01*
X008342Y004356D02*
X008090Y004356D01*
X008090Y004435D02*
X008342Y004435D01*
X008342Y004513D02*
X008090Y004513D01*
X008161Y004592D02*
X008360Y004592D01*
X008382Y004671D02*
X008239Y004671D01*
X008462Y004937D02*
X008305Y005095D01*
X008088Y005331D02*
X008049Y005292D01*
X008029Y005272D01*
X006671Y005272D01*
X006651Y005252D01*
X006651Y005272D01*
X006631Y005292D01*
X005431Y005292D01*
X005352Y005213D01*
X005190Y005390D02*
X004781Y005390D01*
X004781Y006017D01*
X004808Y006083D01*
X004808Y006278D01*
X004781Y006343D01*
X004781Y006739D01*
X004897Y006623D01*
X004983Y006537D01*
X004903Y006458D01*
X004828Y006278D01*
X004828Y006083D01*
X004903Y005903D01*
X005041Y005765D01*
X005221Y005690D01*
X005416Y005690D01*
X005596Y005765D01*
X005734Y005903D01*
X005808Y006083D01*
X005808Y006116D01*
X006171Y006116D01*
X006334Y005954D01*
X006427Y005860D01*
X006939Y005860D01*
X006944Y005855D01*
X006944Y005757D01*
X007042Y005659D01*
X007136Y005565D01*
X009203Y005565D01*
X009336Y005565D01*
X009434Y005663D01*
X009528Y005757D01*
X009528Y006678D01*
X009538Y006652D01*
X009606Y006584D01*
X009694Y006548D01*
X009719Y006548D01*
X009732Y006534D01*
X009681Y006483D01*
X009681Y005990D01*
X009751Y005920D01*
X009868Y005920D01*
X009439Y005491D01*
X008189Y005491D01*
X008185Y005495D01*
X008097Y005532D01*
X008001Y005532D01*
X007913Y005495D01*
X007850Y005432D01*
X006811Y005432D01*
X006787Y005456D01*
X007874Y005456D01*
X008088Y005331D02*
X009506Y005331D01*
X010096Y005922D01*
X010096Y006119D01*
X010155Y006119D01*
X010155Y006217D01*
X010017Y006237D01*
X009681Y006241D02*
X009528Y006241D01*
X009528Y006163D02*
X009681Y006163D01*
X009681Y006084D02*
X009528Y006084D01*
X009528Y006006D02*
X009681Y006006D01*
X009744Y005927D02*
X009528Y005927D01*
X009528Y005849D02*
X009797Y005849D01*
X009718Y005770D02*
X009528Y005770D01*
X009462Y005692D02*
X009640Y005692D01*
X009561Y005613D02*
X009384Y005613D01*
X009483Y005535D02*
X004781Y005535D01*
X004781Y005613D02*
X007088Y005613D01*
X007009Y005692D02*
X005419Y005692D01*
X005601Y005770D02*
X006944Y005770D01*
X006944Y005849D02*
X005680Y005849D01*
X005744Y005927D02*
X006360Y005927D01*
X006282Y006006D02*
X005777Y006006D01*
X005808Y006084D02*
X006203Y006084D01*
X006238Y006276D02*
X006494Y006020D01*
X007006Y006020D01*
X007104Y005922D01*
X007104Y005823D01*
X007202Y005725D01*
X009269Y005725D01*
X009368Y005823D01*
X009368Y007300D01*
X008915Y007752D01*
X008915Y008372D01*
X008871Y008514D01*
X008616Y008514D02*
X008620Y008419D01*
X008620Y008835D01*
X008757Y008973D01*
X008757Y009800D01*
X008817Y009859D01*
X008817Y010154D01*
X008757Y010213D01*
X008757Y010548D01*
X008620Y010686D01*
X008580Y010725D01*
X008580Y011512D01*
X008462Y011650D01*
X008423Y011650D01*
X008757Y011985D02*
X008088Y011985D01*
X008088Y013166D01*
X007793Y013461D01*
X007163Y013461D01*
X006887Y013737D01*
X006553Y013737D01*
X006061Y014229D01*
X005817Y014253D02*
X004781Y014253D01*
X004781Y014331D02*
X005817Y014331D01*
X005817Y014410D02*
X004781Y014410D01*
X004781Y014488D02*
X005079Y014488D01*
X005041Y014504D02*
X005221Y014430D01*
X005416Y014430D01*
X005596Y014504D01*
X005734Y014642D01*
X005808Y014822D01*
X005808Y014912D01*
X005842Y014946D01*
X005842Y014533D01*
X005875Y014500D01*
X005817Y014442D01*
X005817Y014016D01*
X005887Y013945D01*
X006118Y013945D01*
X006326Y013737D01*
X006255Y013665D01*
X006255Y013533D01*
X006255Y013522D01*
X005860Y013522D01*
X005801Y013557D01*
X005808Y013574D01*
X005808Y013769D01*
X005734Y013949D01*
X005596Y014087D01*
X005416Y014161D01*
X005221Y014161D01*
X005041Y014087D01*
X004903Y013949D01*
X004828Y013769D01*
X004828Y013574D01*
X004903Y013394D01*
X005041Y013256D01*
X005221Y013181D01*
X005416Y013181D01*
X005596Y013256D01*
X005628Y013288D01*
X005744Y013219D01*
X005744Y012959D01*
X005814Y012888D01*
X006255Y012888D01*
X006255Y012745D01*
X006305Y012695D01*
X005952Y012695D01*
X005882Y012625D01*
X005882Y012538D01*
X005801Y012538D01*
X005734Y012700D01*
X005596Y012838D01*
X005416Y012913D01*
X005221Y012913D01*
X005041Y012838D01*
X004903Y012700D01*
X004828Y012520D01*
X004828Y012325D01*
X004903Y012145D01*
X005041Y012007D01*
X005221Y011933D01*
X005416Y011933D01*
X005596Y012007D01*
X005734Y012145D01*
X005764Y012218D01*
X005882Y012218D01*
X005882Y012132D01*
X005721Y012132D01*
X005761Y012211D02*
X005882Y012211D01*
X005882Y012132D02*
X005952Y012062D01*
X006393Y012062D01*
X006393Y011716D01*
X006393Y011613D01*
X005952Y011613D01*
X005882Y011542D01*
X005882Y011456D01*
X005730Y011456D01*
X005596Y011590D01*
X005416Y011664D01*
X005221Y011664D01*
X005041Y011590D01*
X004903Y011452D01*
X004828Y011272D01*
X004828Y011077D01*
X004903Y010897D01*
X005041Y010759D01*
X005221Y010684D01*
X005416Y010684D01*
X005596Y010759D01*
X005734Y010897D01*
X005808Y011077D01*
X005808Y011136D01*
X005882Y011136D01*
X005882Y011049D01*
X005952Y010979D01*
X006393Y010979D01*
X006393Y010628D01*
X006316Y010628D01*
X006320Y010638D01*
X006320Y010733D01*
X006284Y010821D01*
X006216Y010889D01*
X006128Y010925D01*
X006033Y010925D01*
X005944Y010889D01*
X005877Y010821D01*
X005840Y010733D01*
X005840Y010672D01*
X005837Y010668D01*
X005123Y010668D01*
X004990Y010668D01*
X004781Y010459D01*
X004781Y011011D01*
X004808Y011077D01*
X004808Y011272D01*
X004781Y011337D01*
X004781Y012259D01*
X004808Y012325D01*
X004808Y012520D01*
X004781Y012586D01*
X004781Y013508D01*
X004808Y013574D01*
X004808Y013769D01*
X004781Y013835D01*
X004781Y014756D01*
X004808Y014822D01*
X004808Y015017D01*
X004781Y015083D01*
X004781Y015880D01*
X007233Y015880D01*
X007232Y013894D01*
X007160Y013966D01*
X007210Y014016D01*
X007210Y014442D01*
X007140Y014512D01*
X006792Y014512D01*
X006733Y014452D01*
X006476Y014709D01*
X006476Y015066D01*
X006407Y015134D01*
X006476Y015203D01*
X006476Y015735D01*
X006406Y015805D01*
X005912Y015805D01*
X005842Y015735D01*
X005842Y015398D01*
X005812Y015368D01*
X005766Y015326D01*
X005766Y015322D01*
X005688Y015243D01*
X005596Y015335D01*
X005416Y015410D01*
X005221Y015410D01*
X005041Y015335D01*
X004903Y015197D01*
X004828Y015017D01*
X004828Y014822D01*
X004903Y014642D01*
X005041Y014504D01*
X004978Y014567D02*
X004781Y014567D01*
X004781Y014646D02*
X004902Y014646D01*
X004869Y014724D02*
X004781Y014724D01*
X004800Y014803D02*
X004836Y014803D01*
X004828Y014881D02*
X004808Y014881D01*
X004808Y014960D02*
X004828Y014960D01*
X004837Y015038D02*
X004800Y015038D01*
X004781Y015117D02*
X004870Y015117D01*
X004902Y015195D02*
X004781Y015195D01*
X004781Y015274D02*
X004980Y015274D01*
X005083Y015352D02*
X004781Y015352D01*
X004781Y015431D02*
X005842Y015431D01*
X005842Y015510D02*
X004781Y015510D01*
X004781Y015588D02*
X005842Y015588D01*
X005842Y015667D02*
X004781Y015667D01*
X004781Y015745D02*
X005852Y015745D01*
X006159Y015469D02*
X005923Y015252D01*
X005509Y014839D01*
X005318Y014839D01*
X005318Y014920D01*
X005657Y015274D02*
X005718Y015274D01*
X005795Y015352D02*
X005554Y015352D01*
X005808Y014881D02*
X005842Y014881D01*
X005842Y014803D02*
X005800Y014803D01*
X005768Y014724D02*
X005842Y014724D01*
X005842Y014646D02*
X005735Y014646D01*
X005659Y014567D02*
X005842Y014567D01*
X005863Y014488D02*
X005558Y014488D01*
X005817Y014174D02*
X004781Y014174D01*
X004781Y014096D02*
X005063Y014096D01*
X004971Y014017D02*
X004781Y014017D01*
X004781Y013939D02*
X004899Y013939D01*
X004866Y013860D02*
X004781Y013860D01*
X004803Y013782D02*
X004834Y013782D01*
X004828Y013703D02*
X004808Y013703D01*
X004808Y013624D02*
X004828Y013624D01*
X004840Y013546D02*
X004797Y013546D01*
X004781Y013467D02*
X004872Y013467D01*
X004908Y013389D02*
X004781Y013389D01*
X004781Y013310D02*
X004986Y013310D01*
X005099Y013232D02*
X004781Y013232D01*
X004781Y013153D02*
X005744Y013153D01*
X005744Y013075D02*
X004781Y013075D01*
X004781Y012996D02*
X005744Y012996D01*
X005785Y012918D02*
X004781Y012918D01*
X004781Y012839D02*
X005043Y012839D01*
X004963Y012761D02*
X004781Y012761D01*
X004781Y012682D02*
X004895Y012682D01*
X004863Y012603D02*
X004781Y012603D01*
X004806Y012525D02*
X004830Y012525D01*
X004828Y012446D02*
X004808Y012446D01*
X004808Y012368D02*
X004828Y012368D01*
X004843Y012289D02*
X004794Y012289D01*
X004781Y012211D02*
X004876Y012211D01*
X004916Y012132D02*
X004781Y012132D01*
X004781Y012054D02*
X004994Y012054D01*
X005119Y011975D02*
X004781Y011975D01*
X004781Y011897D02*
X006393Y011897D01*
X006393Y011975D02*
X005518Y011975D01*
X005642Y012054D02*
X006393Y012054D01*
X006393Y011818D02*
X004781Y011818D01*
X004781Y011739D02*
X006393Y011739D01*
X006393Y011661D02*
X005424Y011661D01*
X005603Y011582D02*
X005922Y011582D01*
X005882Y011504D02*
X005682Y011504D01*
X005808Y011111D02*
X005882Y011111D01*
X005898Y011033D02*
X005790Y011033D01*
X005758Y010954D02*
X006393Y010954D01*
X006393Y010875D02*
X006230Y010875D01*
X006294Y010797D02*
X006393Y010797D01*
X006393Y010718D02*
X006320Y010718D01*
X006320Y010640D02*
X006393Y010640D01*
X006080Y010686D02*
X005903Y010508D01*
X005057Y010508D01*
X004820Y010272D01*
X004820Y009524D01*
X004506Y009209D01*
X004092Y009209D01*
X003817Y008934D01*
X003817Y007221D01*
X004112Y006926D01*
X004820Y006926D01*
X005057Y006689D01*
X005667Y006689D01*
X005864Y006493D01*
X006179Y006493D01*
X006395Y006709D01*
X007006Y006709D01*
X007340Y006374D01*
X007340Y006097D01*
X007336Y006191D01*
X007592Y006191D02*
X007596Y006136D01*
X007596Y006473D01*
X007202Y006867D01*
X006336Y006867D01*
X006120Y006650D01*
X005923Y006650D01*
X005706Y006867D01*
X005135Y006867D01*
X004820Y007182D01*
X004820Y009229D01*
X005318Y009727D01*
X005318Y009926D01*
X005690Y010247D02*
X005881Y010247D01*
X005881Y010245D02*
X005882Y010245D01*
X005882Y010065D01*
X005952Y009995D01*
X006393Y009995D01*
X006393Y009787D01*
X006216Y009611D01*
X005985Y009611D01*
X005915Y009540D01*
X005626Y009540D01*
X005596Y009510D02*
X005734Y009648D01*
X005808Y009828D01*
X005808Y010023D01*
X005734Y010203D01*
X005596Y010341D01*
X005578Y010348D01*
X005837Y010348D01*
X005881Y010348D01*
X005881Y010245D01*
X005882Y010169D02*
X005748Y010169D01*
X005781Y010090D02*
X005882Y010090D01*
X005935Y010011D02*
X005808Y010011D01*
X005808Y009933D02*
X006393Y009933D01*
X006393Y009854D02*
X005808Y009854D01*
X005787Y009776D02*
X006381Y009776D01*
X006303Y009697D02*
X005754Y009697D01*
X005704Y009619D02*
X006224Y009619D01*
X006159Y009327D02*
X006553Y009721D01*
X006553Y011650D01*
X006553Y012811D01*
X007537Y012811D01*
X007537Y012300D01*
X007537Y011906D02*
X007360Y011906D01*
X006887Y012378D01*
X006553Y012811D02*
X006415Y012811D01*
X006415Y013599D01*
X006553Y013737D01*
X006293Y013703D02*
X005808Y013703D01*
X005808Y013624D02*
X006255Y013624D01*
X006255Y013546D02*
X005820Y013546D01*
X005803Y013782D02*
X006282Y013782D01*
X006203Y013860D02*
X005771Y013860D01*
X005738Y013939D02*
X006124Y013939D01*
X005817Y014017D02*
X005665Y014017D01*
X005574Y014096D02*
X005817Y014096D01*
X005318Y013671D02*
X005318Y013658D01*
X006080Y013205D01*
X005722Y013232D02*
X005538Y013232D01*
X005594Y012839D02*
X006255Y012839D01*
X006255Y012761D02*
X005674Y012761D01*
X005741Y012682D02*
X005939Y012682D01*
X005882Y012603D02*
X005774Y012603D01*
X006218Y012378D02*
X005318Y012378D01*
X005318Y012423D01*
X004624Y012839D02*
X004607Y012855D01*
X004420Y012933D01*
X004217Y012933D01*
X004030Y012855D01*
X003886Y012712D01*
X003808Y012524D01*
X003808Y012321D01*
X003886Y012134D01*
X004030Y011990D01*
X004217Y011913D01*
X004420Y011913D01*
X004607Y011990D01*
X004624Y012007D01*
X004624Y011590D01*
X004607Y011606D01*
X004420Y011684D01*
X004217Y011684D01*
X004030Y011606D01*
X003886Y011463D01*
X003808Y011276D01*
X003808Y011073D01*
X003886Y010885D01*
X004030Y010742D01*
X004217Y010664D01*
X004420Y010664D01*
X004607Y010742D01*
X004624Y010758D01*
X004624Y010342D01*
X004607Y010358D01*
X004420Y010436D01*
X004217Y010436D01*
X004030Y010358D01*
X003886Y010215D01*
X003808Y010027D01*
X003808Y009824D01*
X003886Y009637D01*
X004030Y009493D01*
X004217Y009416D01*
X004420Y009416D01*
X004484Y009442D01*
X004431Y009389D01*
X004018Y009389D01*
X003912Y009284D01*
X003637Y009008D01*
X003637Y008859D01*
X003637Y007295D01*
X003637Y007146D01*
X003932Y006851D01*
X004037Y006746D01*
X004624Y006746D01*
X004624Y006596D01*
X004607Y006612D01*
X004420Y006690D01*
X004217Y006690D01*
X004030Y006612D01*
X003886Y006469D01*
X003808Y006282D01*
X003808Y006079D01*
X003831Y006023D01*
X003831Y005934D01*
X003831Y005859D01*
X003775Y005803D01*
X003775Y005293D01*
X003856Y005212D01*
X003856Y005115D01*
X002559Y005096D01*
X002559Y013421D01*
X002477Y013503D01*
X002458Y013503D01*
X002458Y015880D01*
X003872Y015880D01*
X003795Y015803D01*
X003795Y015293D01*
X003877Y015211D01*
X003888Y015211D01*
X003886Y015209D01*
X003808Y015021D01*
X003808Y014818D01*
X003886Y014631D01*
X004030Y014487D01*
X004217Y014410D01*
X004420Y014410D01*
X004607Y014487D01*
X004624Y014504D01*
X004624Y014087D01*
X004607Y014104D01*
X004420Y014181D01*
X004217Y014181D01*
X004030Y014104D01*
X003886Y013960D01*
X003808Y013773D01*
X003808Y013570D01*
X003886Y013382D01*
X004030Y013239D01*
X004217Y013161D01*
X004420Y013161D01*
X004607Y013239D01*
X004624Y013255D01*
X004624Y012839D01*
X004623Y012839D01*
X004624Y012918D02*
X004456Y012918D01*
X004624Y012996D02*
X002559Y012996D01*
X002559Y012918D02*
X004181Y012918D01*
X004014Y012839D02*
X002559Y012839D01*
X002559Y012761D02*
X003935Y012761D01*
X003874Y012682D02*
X002559Y012682D01*
X002559Y012603D02*
X003841Y012603D01*
X003809Y012525D02*
X002559Y012525D01*
X002559Y012446D02*
X003808Y012446D01*
X003808Y012368D02*
X002559Y012368D01*
X002559Y012289D02*
X003822Y012289D01*
X003854Y012211D02*
X002559Y012211D01*
X002559Y012132D02*
X003888Y012132D01*
X003966Y012054D02*
X002559Y012054D01*
X002559Y011975D02*
X004066Y011975D01*
X004161Y011661D02*
X002559Y011661D01*
X002559Y011739D02*
X004624Y011739D01*
X004624Y011661D02*
X004476Y011661D01*
X004624Y011818D02*
X002559Y011818D01*
X002559Y011897D02*
X004624Y011897D01*
X004624Y011975D02*
X004570Y011975D01*
X004781Y011661D02*
X005213Y011661D01*
X005034Y011582D02*
X004781Y011582D01*
X004781Y011504D02*
X004955Y011504D01*
X004892Y011425D02*
X004781Y011425D01*
X004781Y011347D02*
X004860Y011347D01*
X004828Y011268D02*
X004808Y011268D01*
X004808Y011190D02*
X004828Y011190D01*
X004828Y011111D02*
X004808Y011111D01*
X004790Y011033D02*
X004847Y011033D01*
X004879Y010954D02*
X004781Y010954D01*
X004781Y010875D02*
X004924Y010875D01*
X005003Y010797D02*
X004781Y010797D01*
X004781Y010718D02*
X005138Y010718D01*
X004962Y010640D02*
X004781Y010640D01*
X004781Y010561D02*
X004883Y010561D01*
X004805Y010483D02*
X004781Y010483D01*
X004624Y010483D02*
X002559Y010483D01*
X002559Y010561D02*
X004624Y010561D01*
X004624Y010640D02*
X002559Y010640D01*
X002559Y010718D02*
X004086Y010718D01*
X003974Y010797D02*
X002559Y010797D01*
X002559Y010875D02*
X003896Y010875D01*
X003858Y010954D02*
X002559Y010954D01*
X002559Y011033D02*
X003825Y011033D01*
X003808Y011111D02*
X002559Y011111D01*
X002559Y011190D02*
X003808Y011190D01*
X003808Y011268D02*
X002559Y011268D01*
X002559Y011347D02*
X003838Y011347D01*
X003870Y011425D02*
X002559Y011425D01*
X002559Y011504D02*
X003927Y011504D01*
X004005Y011582D02*
X002559Y011582D01*
X002559Y010404D02*
X004141Y010404D01*
X003997Y010326D02*
X002559Y010326D01*
X002559Y010247D02*
X003919Y010247D01*
X003867Y010169D02*
X002559Y010169D01*
X002559Y010090D02*
X003835Y010090D01*
X003808Y010011D02*
X002559Y010011D01*
X002559Y009933D02*
X003808Y009933D01*
X003808Y009854D02*
X002559Y009854D01*
X002559Y009776D02*
X003828Y009776D01*
X003861Y009697D02*
X002559Y009697D01*
X002559Y009619D02*
X003904Y009619D01*
X003983Y009540D02*
X002559Y009540D01*
X002559Y009462D02*
X004106Y009462D01*
X004012Y009383D02*
X002559Y009383D01*
X002559Y009305D02*
X003933Y009305D01*
X003855Y009226D02*
X002559Y009226D01*
X002559Y009148D02*
X003776Y009148D01*
X003697Y009069D02*
X002559Y009069D01*
X002559Y008990D02*
X003637Y008990D01*
X003637Y008912D02*
X002559Y008912D01*
X002559Y008833D02*
X003637Y008833D01*
X003637Y008755D02*
X002559Y008755D01*
X002559Y008676D02*
X003637Y008676D01*
X003637Y008598D02*
X002559Y008598D01*
X002559Y008519D02*
X003637Y008519D01*
X003637Y008441D02*
X002559Y008441D01*
X002559Y008362D02*
X003637Y008362D01*
X003637Y008284D02*
X002559Y008284D01*
X002559Y008205D02*
X003637Y008205D01*
X003637Y008126D02*
X002559Y008126D01*
X002559Y008048D02*
X003637Y008048D01*
X003637Y007969D02*
X002559Y007969D01*
X002559Y007891D02*
X003637Y007891D01*
X003637Y007812D02*
X002559Y007812D01*
X002559Y007734D02*
X003637Y007734D01*
X003637Y007655D02*
X002559Y007655D01*
X002559Y007577D02*
X003637Y007577D01*
X003637Y007498D02*
X002559Y007498D01*
X002559Y007420D02*
X003637Y007420D01*
X003637Y007341D02*
X002559Y007341D01*
X002559Y007262D02*
X003637Y007262D01*
X003637Y007184D02*
X002559Y007184D01*
X002559Y007105D02*
X003678Y007105D01*
X003756Y007027D02*
X002559Y007027D01*
X002559Y006948D02*
X003835Y006948D01*
X003913Y006870D02*
X002559Y006870D01*
X002559Y006791D02*
X003992Y006791D01*
X004082Y006634D02*
X002559Y006634D01*
X002559Y006556D02*
X003973Y006556D01*
X003894Y006477D02*
X002559Y006477D01*
X002559Y006399D02*
X003857Y006399D01*
X003824Y006320D02*
X002559Y006320D01*
X002559Y006241D02*
X003808Y006241D01*
X003808Y006163D02*
X002559Y006163D01*
X002559Y006084D02*
X003808Y006084D01*
X003831Y006006D02*
X002559Y006006D01*
X002559Y005927D02*
X003831Y005927D01*
X003821Y005849D02*
X002559Y005849D01*
X002559Y005770D02*
X003775Y005770D01*
X003775Y005692D02*
X002559Y005692D01*
X002559Y005613D02*
X003775Y005613D01*
X003775Y005535D02*
X002559Y005535D01*
X002559Y005456D02*
X003775Y005456D01*
X003775Y005377D02*
X002559Y005377D01*
X002559Y005299D02*
X003775Y005299D01*
X003847Y005220D02*
X002559Y005220D01*
X002559Y005142D02*
X003856Y005142D01*
X004781Y005456D02*
X006516Y005456D01*
X006515Y005456D02*
X006511Y005452D01*
X005497Y005452D01*
X005403Y005452D01*
X005400Y005453D01*
X005304Y005453D01*
X005216Y005416D01*
X005190Y005390D01*
X005122Y005142D02*
X002559Y005142D01*
X002559Y005063D02*
X005162Y005063D01*
X005276Y004985D02*
X002559Y004985D01*
X002559Y004906D02*
X007378Y004906D01*
X007378Y004828D02*
X002559Y004828D01*
X002559Y004749D02*
X007378Y004749D01*
X007378Y004671D02*
X005542Y004671D01*
X005547Y004668D02*
X005459Y004705D01*
X005363Y004705D01*
X005275Y004668D01*
X005208Y004601D01*
X005171Y004513D01*
X005171Y004428D01*
X004712Y004428D01*
X004641Y004357D01*
X004641Y004019D01*
X004582Y004078D01*
X004494Y004114D01*
X004399Y004114D01*
X004310Y004078D01*
X004243Y004010D01*
X004206Y003922D01*
X004206Y003827D01*
X004230Y003769D01*
X004228Y003767D01*
X004228Y003352D01*
X004298Y003282D01*
X004599Y003282D01*
X004635Y003319D01*
X004672Y003282D01*
X004973Y003282D01*
X005009Y003319D01*
X005046Y003282D01*
X005347Y003282D01*
X005417Y003352D01*
X005417Y003555D01*
X005523Y003663D01*
X005570Y003709D01*
X005570Y003710D01*
X005571Y003711D01*
X005570Y003777D01*
X005571Y004004D01*
X005571Y004067D01*
X005571Y004136D01*
X005571Y004136D01*
X005571Y004286D01*
X005614Y004329D01*
X005651Y004417D01*
X005651Y004513D01*
X005614Y004601D01*
X005547Y004668D01*
X005618Y004592D02*
X007378Y004592D01*
X007378Y004513D02*
X005651Y004513D01*
X005651Y004435D02*
X007378Y004435D01*
X007378Y004356D02*
X005626Y004356D01*
X005571Y004278D02*
X007328Y004278D01*
X007271Y004199D02*
X005571Y004199D01*
X005571Y004121D02*
X007236Y004121D01*
X007217Y004042D02*
X005571Y004042D01*
X005571Y004004D02*
X005571Y004004D01*
X005571Y003964D02*
X007217Y003964D01*
X007217Y003885D02*
X005570Y003885D01*
X005570Y003807D02*
X006256Y003807D01*
X006197Y003728D02*
X005571Y003728D01*
X005510Y003649D02*
X006197Y003649D01*
X006197Y003571D02*
X005433Y003571D01*
X005417Y003492D02*
X006197Y003492D01*
X006197Y003414D02*
X005417Y003414D01*
X005400Y003335D02*
X006197Y003335D01*
X006197Y003257D02*
X003838Y003257D01*
X003838Y003335D02*
X004245Y003335D01*
X004228Y003414D02*
X003838Y003414D01*
X003838Y003492D02*
X004228Y003492D01*
X004228Y003571D02*
X003838Y003571D01*
X003838Y003649D02*
X004228Y003649D01*
X004228Y003728D02*
X003837Y003728D01*
X004215Y003807D02*
X002559Y003807D01*
X002559Y003885D02*
X004206Y003885D01*
X004224Y003964D02*
X002559Y003964D01*
X002559Y004042D02*
X004275Y004042D01*
X004618Y004042D02*
X004641Y004042D01*
X004641Y004121D02*
X002559Y004121D01*
X002559Y004199D02*
X004641Y004199D01*
X004641Y004278D02*
X002559Y004278D01*
X002559Y004356D02*
X004641Y004356D01*
X005171Y004435D02*
X002559Y004435D01*
X002559Y004513D02*
X005171Y004513D01*
X005204Y004592D02*
X002559Y004592D01*
X002559Y004671D02*
X005280Y004671D01*
X005411Y004465D02*
X005411Y004070D01*
X005410Y003776D01*
X005196Y003560D01*
X005019Y002786D02*
X004626Y002786D01*
X004671Y002707D02*
X004976Y002707D01*
X004970Y002628D02*
X004714Y002628D01*
X004733Y002550D02*
X004976Y002550D01*
X004976Y002471D02*
X004726Y002471D01*
X004726Y002393D02*
X004976Y002393D01*
X004991Y002314D02*
X004726Y002314D01*
X004726Y002236D02*
X005034Y002236D01*
X005034Y002157D02*
X004726Y002157D01*
X004726Y002079D02*
X005082Y002079D01*
X005011Y002000D02*
X004726Y002000D01*
X004734Y001922D02*
X004986Y001922D01*
X004986Y001843D02*
X004734Y001843D01*
X004734Y001764D02*
X004986Y001764D01*
X004986Y001686D02*
X004734Y001686D01*
X004734Y001607D02*
X004986Y001607D01*
X004986Y001529D02*
X004734Y001529D01*
X004734Y001450D02*
X004986Y001450D01*
X004986Y001372D02*
X004734Y001372D01*
X004477Y001293D02*
X005282Y001293D01*
X005313Y002083D02*
X006848Y002083D01*
X006825Y002314D02*
X005402Y002314D01*
X005417Y002393D02*
X006903Y002393D01*
X006982Y002471D02*
X005417Y002471D01*
X005417Y002550D02*
X007060Y002550D01*
X007004Y002628D02*
X005417Y002628D01*
X005417Y002707D02*
X007004Y002707D01*
X007004Y002786D02*
X005374Y002786D01*
X005313Y002103D02*
X005313Y002083D01*
X004270Y002786D02*
X003856Y002786D01*
X003834Y002719D02*
X003824Y002707D01*
X003785Y002628D02*
X003769Y002628D01*
X003726Y002550D02*
X003716Y002550D01*
X003681Y002471D02*
X003664Y002471D01*
X003677Y002393D02*
X003595Y002393D01*
X003526Y002314D02*
X003677Y002314D01*
X003677Y002236D02*
X003526Y002236D01*
X003526Y002157D02*
X003677Y002157D01*
X003677Y002079D02*
X003526Y002079D01*
X003526Y002000D02*
X003677Y002000D01*
X003677Y001922D02*
X003526Y001922D01*
X003526Y001843D02*
X003677Y001843D01*
X003677Y001607D02*
X003523Y001607D01*
X003523Y001529D02*
X003677Y001529D01*
X003677Y001450D02*
X003523Y001450D01*
X003523Y001372D02*
X003677Y001372D01*
X003677Y001293D02*
X003523Y001293D01*
X003523Y001215D02*
X003677Y001215D01*
X003728Y001136D02*
X003472Y001136D01*
X004110Y000586D02*
X002458Y000586D01*
X002458Y000508D02*
X004031Y000508D01*
X003953Y000429D02*
X002458Y000429D01*
X002458Y000665D02*
X004188Y000665D01*
X004267Y000743D02*
X002458Y000743D01*
X002458Y000822D02*
X004346Y000822D01*
X004424Y000900D02*
X002458Y000900D01*
X002458Y000979D02*
X004503Y000979D01*
X003863Y002864D02*
X007004Y002864D01*
X007004Y002943D02*
X003852Y002943D01*
X003843Y003021D02*
X007004Y003021D01*
X007004Y003100D02*
X003838Y003100D01*
X003838Y003178D02*
X007004Y003178D01*
X006810Y003807D02*
X007217Y003807D01*
X008482Y002851D02*
X008777Y002851D01*
X009015Y002864D02*
X009287Y002864D01*
X009287Y002786D02*
X009015Y002786D01*
X008980Y002707D02*
X009322Y002707D01*
X009357Y002518D02*
X009287Y002448D01*
X009287Y002230D01*
X009357Y002160D01*
X009693Y002160D01*
X009763Y002230D01*
X009763Y002448D01*
X009693Y002518D01*
X009357Y002518D01*
X009311Y002471D02*
X009201Y002471D01*
X009169Y002503D02*
X009081Y002540D01*
X008985Y002540D01*
X008933Y002518D01*
X008609Y002518D01*
X008539Y002448D01*
X008539Y002230D01*
X008609Y002160D01*
X008833Y002160D01*
X008897Y002096D01*
X008985Y002060D01*
X009081Y002060D01*
X009169Y002096D01*
X009236Y002164D01*
X009273Y002252D01*
X009273Y002347D01*
X009236Y002436D01*
X009169Y002503D01*
X009254Y002393D02*
X009287Y002393D01*
X009287Y002314D02*
X009273Y002314D01*
X009266Y002236D02*
X009287Y002236D01*
X009230Y002157D02*
X009801Y002157D01*
X009801Y002079D02*
X009126Y002079D01*
X008940Y002079D02*
X007098Y002079D01*
X007177Y002157D02*
X008836Y002157D01*
X008777Y002339D02*
X008994Y002339D01*
X008994Y002319D01*
X009033Y002300D01*
X008539Y002314D02*
X007334Y002314D01*
X007255Y002236D02*
X008539Y002236D01*
X008539Y002393D02*
X008259Y002393D01*
X008337Y002471D02*
X008563Y002471D01*
X008572Y002628D02*
X009801Y002628D01*
X009801Y002550D02*
X008406Y002550D01*
X008124Y002000D02*
X009801Y002000D01*
X009801Y001922D02*
X009718Y001922D01*
X009958Y001843D02*
X010513Y001843D01*
X010508Y001764D02*
X009958Y001764D01*
X009958Y001686D02*
X010508Y001686D01*
X010508Y001607D02*
X009958Y001607D01*
X009958Y001529D02*
X010508Y001529D01*
X010508Y001450D02*
X009958Y001450D01*
X009958Y001372D02*
X010508Y001372D01*
X010559Y001293D02*
X009958Y001293D01*
X009958Y001215D02*
X011019Y001215D01*
X010970Y001136D02*
X009958Y001136D01*
X009958Y001058D02*
X010535Y001058D01*
X010508Y000979D02*
X009958Y000979D01*
X009958Y000900D02*
X010508Y000900D01*
X010508Y000822D02*
X009958Y000822D01*
X009958Y000743D02*
X010508Y000743D01*
X010508Y000665D02*
X009958Y000665D01*
X009958Y000586D02*
X010508Y000586D01*
X010537Y000508D02*
X009958Y000508D01*
X009801Y000822D02*
X008119Y000822D01*
X008188Y000900D02*
X009801Y000900D01*
X009801Y000979D02*
X008188Y000979D01*
X008188Y001058D02*
X009801Y001058D01*
X009801Y001136D02*
X008188Y001136D01*
X008188Y001215D02*
X009801Y001215D01*
X009801Y001293D02*
X008188Y001293D01*
X008188Y001372D02*
X008207Y001372D01*
X008521Y001372D02*
X009388Y001372D01*
X009296Y001450D02*
X008613Y001450D01*
X008657Y001529D02*
X009252Y001529D01*
X009228Y001607D02*
X008681Y001607D01*
X008681Y001686D02*
X009228Y001686D01*
X009249Y001764D02*
X008660Y001764D01*
X008619Y001843D02*
X009289Y001843D01*
X009371Y001922D02*
X008537Y001922D01*
X008190Y001922D02*
X008188Y001922D01*
X009015Y002943D02*
X009287Y002943D01*
X009349Y003021D02*
X008954Y003021D01*
X008979Y003335D02*
X009778Y003335D01*
X009778Y003414D02*
X009035Y003414D01*
X009035Y003492D02*
X009778Y003492D01*
X009778Y003571D02*
X009035Y003571D01*
X009035Y003649D02*
X009778Y003649D01*
X009778Y003728D02*
X009035Y003728D01*
X009035Y003807D02*
X009778Y003807D01*
X009778Y003885D02*
X009035Y003885D01*
X008976Y004042D02*
X009149Y004042D01*
X009149Y004121D02*
X008976Y004121D01*
X008868Y003964D02*
X009778Y003964D01*
X010178Y003577D02*
X010490Y003577D01*
X010561Y003648D01*
X010561Y004168D01*
X010566Y004168D01*
X010566Y003572D01*
X010660Y003478D01*
X010712Y003426D01*
X010712Y003364D01*
X010749Y003276D01*
X010816Y003208D01*
X010852Y003194D01*
X010852Y002637D01*
X010665Y002637D01*
X010561Y002733D01*
X010561Y003196D01*
X010490Y003266D01*
X010259Y003266D01*
X010178Y003347D01*
X010178Y003577D01*
X010178Y003571D02*
X010567Y003571D01*
X010561Y003649D02*
X010566Y003649D01*
X010561Y003728D02*
X010566Y003728D01*
X010561Y003807D02*
X010566Y003807D01*
X010561Y003885D02*
X010566Y003885D01*
X010561Y003964D02*
X010566Y003964D01*
X010561Y004042D02*
X010566Y004042D01*
X010561Y004121D02*
X010566Y004121D01*
X010886Y004253D02*
X010886Y005009D01*
X011090Y005213D01*
X013319Y005213D01*
X013375Y005190D01*
X013381Y005190D01*
X013381Y004832D01*
X013475Y004738D01*
X013540Y004673D01*
X013521Y004654D01*
X013453Y004723D01*
X012953Y004723D01*
X012949Y004728D01*
X012860Y004764D01*
X012765Y004764D01*
X012677Y004728D01*
X012609Y004660D01*
X012573Y004572D01*
X012573Y004476D01*
X012609Y004388D01*
X012613Y004385D01*
X012613Y004225D01*
X012613Y003059D01*
X012546Y003059D01*
X012476Y002989D01*
X012476Y002673D01*
X012546Y002603D01*
X012758Y002603D01*
X013050Y002311D01*
X012546Y002311D01*
X012478Y002243D01*
X012446Y002243D01*
X012313Y002243D01*
X012165Y002095D01*
X012165Y002241D01*
X012095Y002311D01*
X011614Y002311D01*
X011614Y002354D01*
X011615Y002355D01*
X011615Y002603D01*
X012095Y002603D01*
X012165Y002673D01*
X012165Y002989D01*
X012095Y003059D01*
X011523Y003059D01*
X011494Y003031D01*
X011470Y003031D01*
X011332Y002893D01*
X011309Y002870D01*
X011309Y003125D01*
X011839Y003125D01*
X011909Y003195D01*
X011909Y003688D01*
X011839Y003758D01*
X011546Y003758D01*
X011324Y003990D01*
X011319Y004015D01*
X011309Y004022D01*
X011309Y004219D01*
X011238Y004290D01*
X010922Y004290D01*
X010886Y004253D01*
X010886Y004278D02*
X010910Y004278D01*
X010886Y004356D02*
X012613Y004356D01*
X012613Y004278D02*
X011250Y004278D01*
X011309Y004199D02*
X012613Y004199D01*
X012613Y004121D02*
X011309Y004121D01*
X011309Y004042D02*
X012613Y004042D01*
X012613Y003964D02*
X011350Y003964D01*
X011425Y003885D02*
X012613Y003885D01*
X012613Y003807D02*
X011500Y003807D01*
X011869Y003728D02*
X012613Y003728D01*
X012613Y003649D02*
X011909Y003649D01*
X011909Y003571D02*
X012613Y003571D01*
X012613Y003492D02*
X011909Y003492D01*
X011909Y003414D02*
X012613Y003414D01*
X012613Y003335D02*
X011909Y003335D01*
X011909Y003257D02*
X012613Y003257D01*
X012613Y003178D02*
X011892Y003178D01*
X012133Y003021D02*
X012508Y003021D01*
X012476Y002943D02*
X012165Y002943D01*
X012165Y002864D02*
X012476Y002864D01*
X012476Y002786D02*
X012165Y002786D01*
X012165Y002707D02*
X012476Y002707D01*
X012521Y002628D02*
X012120Y002628D01*
X012165Y002236D02*
X012306Y002236D01*
X012227Y002157D02*
X012165Y002157D01*
X012380Y002083D02*
X012832Y002083D01*
X013047Y002314D02*
X011614Y002314D01*
X011615Y002393D02*
X012968Y002393D01*
X012890Y002471D02*
X011615Y002471D01*
X011615Y002550D02*
X012811Y002550D01*
X013189Y002738D02*
X013189Y002989D01*
X013118Y003059D01*
X013013Y003059D01*
X013013Y004089D01*
X013453Y004089D01*
X013521Y004158D01*
X013590Y004089D01*
X013883Y004089D01*
X013883Y003011D01*
X013863Y002992D01*
X013863Y002867D01*
X013863Y002834D01*
X013863Y002774D01*
X013472Y002774D01*
X013401Y002704D01*
X013401Y002525D01*
X013189Y002738D01*
X013220Y002707D02*
X013405Y002707D01*
X013401Y002628D02*
X013298Y002628D01*
X013377Y002550D02*
X013401Y002550D01*
X013189Y002786D02*
X013863Y002786D01*
X013863Y002864D02*
X013189Y002864D01*
X013189Y002943D02*
X013863Y002943D01*
X013883Y003021D02*
X013156Y003021D01*
X013013Y003100D02*
X013883Y003100D01*
X013883Y003178D02*
X013013Y003178D01*
X013013Y003257D02*
X013883Y003257D01*
X013883Y003335D02*
X013013Y003335D01*
X013013Y003414D02*
X013883Y003414D01*
X013883Y003492D02*
X013013Y003492D01*
X013013Y003571D02*
X013883Y003571D01*
X013883Y003649D02*
X013013Y003649D01*
X013013Y003728D02*
X013883Y003728D01*
X013883Y003807D02*
X013013Y003807D01*
X013013Y003885D02*
X013883Y003885D01*
X013883Y003964D02*
X013013Y003964D01*
X013013Y004042D02*
X013883Y004042D01*
X013558Y004121D02*
X013484Y004121D01*
X013505Y004671D02*
X013537Y004671D01*
X013464Y004749D02*
X012896Y004749D01*
X012729Y004749D02*
X010886Y004749D01*
X010886Y004671D02*
X012620Y004671D01*
X012581Y004592D02*
X010886Y004592D01*
X010886Y004513D02*
X012573Y004513D01*
X012590Y004435D02*
X010886Y004435D01*
X010886Y004828D02*
X013385Y004828D01*
X013381Y004906D02*
X010886Y004906D01*
X010886Y004985D02*
X013381Y004985D01*
X013381Y005063D02*
X010940Y005063D01*
X011019Y005142D02*
X013381Y005142D01*
X013541Y005311D02*
X013541Y004898D01*
X013964Y004475D01*
X014033Y004386D01*
X014171Y004691D02*
X013757Y005115D01*
X013738Y005548D01*
X014082Y005892D01*
X014171Y005932D01*
X014338Y005932D01*
X014427Y005843D01*
X014683Y005843D01*
X014860Y006020D01*
X015155Y006020D01*
X015254Y005922D01*
X015352Y005882D01*
X015450Y006099D02*
X015214Y006335D01*
X014151Y006335D01*
X013974Y006237D01*
X012832Y006237D01*
X012911Y006394D02*
X012754Y006552D01*
X011513Y006552D01*
X011002Y007063D01*
X010569Y007063D01*
X010509Y007123D01*
X010273Y007123D01*
X009624Y007772D01*
X009624Y008166D01*
X009486Y008304D01*
X009446Y008304D01*
X009387Y008008D02*
X009387Y007949D01*
X009427Y007910D01*
X009427Y007733D01*
X010194Y006965D01*
X010450Y006965D01*
X010509Y006906D01*
X010923Y006906D01*
X011435Y006394D01*
X011336Y006237D02*
X010824Y006749D01*
X010450Y006749D01*
X010391Y006808D01*
X010116Y006808D01*
X009127Y007796D01*
X009127Y008514D01*
X009127Y008761D01*
X009131Y008855D01*
X008915Y009071D01*
X008915Y009721D01*
X008994Y009800D01*
X008994Y010252D01*
X008915Y010331D01*
X008915Y010725D01*
X008876Y010764D01*
X008876Y010804D01*
X008757Y010922D01*
X008757Y011985D01*
X008856Y012142D02*
X008561Y012142D01*
X008423Y012319D01*
X008403Y012575D01*
X008265Y012713D01*
X008265Y013225D01*
X007872Y013619D01*
X007281Y013619D01*
X006907Y013993D01*
X006907Y014111D01*
X006966Y014229D01*
X006730Y014229D01*
X006159Y014800D01*
X006476Y014803D02*
X007232Y014803D01*
X007232Y014881D02*
X006476Y014881D01*
X006476Y014960D02*
X007233Y014960D01*
X007233Y015038D02*
X006476Y015038D01*
X006425Y015117D02*
X007233Y015117D01*
X007233Y015195D02*
X006468Y015195D01*
X006476Y015274D02*
X007233Y015274D01*
X007233Y015352D02*
X006476Y015352D01*
X006476Y015431D02*
X007233Y015431D01*
X007233Y015510D02*
X006476Y015510D01*
X006476Y015588D02*
X007233Y015588D01*
X007233Y015667D02*
X006476Y015667D01*
X006466Y015745D02*
X007233Y015745D01*
X007233Y015824D02*
X004781Y015824D01*
X003816Y015824D02*
X002458Y015824D01*
X002458Y015745D02*
X003795Y015745D01*
X003795Y015667D02*
X002458Y015667D01*
X002458Y015588D02*
X003795Y015588D01*
X003795Y015510D02*
X002458Y015510D01*
X002458Y015431D02*
X003795Y015431D01*
X003795Y015352D02*
X002458Y015352D01*
X002458Y015274D02*
X003814Y015274D01*
X003881Y015195D02*
X002458Y015195D01*
X002458Y015117D02*
X003848Y015117D01*
X003816Y015038D02*
X002458Y015038D01*
X002458Y014960D02*
X003808Y014960D01*
X003808Y014881D02*
X002458Y014881D01*
X002458Y014803D02*
X003815Y014803D01*
X003847Y014724D02*
X002458Y014724D01*
X002458Y014646D02*
X003880Y014646D01*
X003950Y014567D02*
X002458Y014567D01*
X002458Y014488D02*
X004028Y014488D01*
X004216Y014410D02*
X002458Y014410D01*
X002458Y014331D02*
X004624Y014331D01*
X004624Y014253D02*
X002458Y014253D01*
X002458Y014174D02*
X004200Y014174D01*
X004022Y014096D02*
X002458Y014096D01*
X002458Y014017D02*
X003943Y014017D01*
X003877Y013939D02*
X002458Y013939D01*
X002458Y013860D02*
X003845Y013860D01*
X003812Y013782D02*
X002458Y013782D01*
X002458Y013703D02*
X003808Y013703D01*
X003808Y013624D02*
X002458Y013624D01*
X002458Y013546D02*
X003818Y013546D01*
X003851Y013467D02*
X002512Y013467D01*
X002559Y013389D02*
X003883Y013389D01*
X003958Y013310D02*
X002559Y013310D01*
X002559Y013232D02*
X004047Y013232D01*
X004590Y013232D02*
X004624Y013232D01*
X004624Y013153D02*
X002559Y013153D01*
X002559Y013075D02*
X004624Y013075D01*
X004615Y014096D02*
X004624Y014096D01*
X004624Y014174D02*
X004436Y014174D01*
X004420Y014410D02*
X004624Y014410D01*
X004624Y014488D02*
X004608Y014488D01*
X006476Y014724D02*
X007232Y014724D01*
X007232Y014646D02*
X006539Y014646D01*
X006618Y014567D02*
X007232Y014567D01*
X007232Y014488D02*
X007164Y014488D01*
X007210Y014410D02*
X007232Y014410D01*
X007232Y014331D02*
X007210Y014331D01*
X007210Y014253D02*
X007232Y014253D01*
X007232Y014174D02*
X007210Y014174D01*
X007210Y014096D02*
X007232Y014096D01*
X007232Y014017D02*
X007210Y014017D01*
X007187Y013939D02*
X007232Y013939D01*
X006769Y014488D02*
X006696Y014488D01*
X006750Y013205D02*
X006907Y013146D01*
X007478Y013146D01*
X007537Y013205D01*
X007596Y013225D01*
X007596Y013166D01*
X007891Y012871D01*
X007891Y011886D01*
X007931Y011847D01*
X007931Y011689D01*
X007931Y011493D01*
X008324Y011099D01*
X008187Y011000D01*
X007832Y011296D02*
X007832Y009819D01*
X007832Y009780D01*
X007931Y009780D01*
X008226Y009485D01*
X008246Y009426D01*
X008265Y009012D02*
X008128Y008874D01*
X008128Y008439D01*
X008104Y008514D01*
X008360Y008514D02*
X008364Y008411D01*
X008364Y008107D01*
X008285Y008028D01*
X007931Y008028D01*
X007734Y007831D01*
X006946Y007831D01*
X006936Y007822D01*
X005717Y007822D01*
X005318Y007429D01*
X005688Y007105D02*
X005923Y007105D01*
X005885Y007090D02*
X005818Y007022D01*
X005806Y006993D01*
X005773Y007027D01*
X005640Y007027D01*
X005609Y007027D01*
X005734Y007151D01*
X005808Y007331D01*
X005808Y007526D01*
X005761Y007641D01*
X005783Y007662D01*
X005960Y007662D01*
X005960Y007230D01*
X006031Y007160D01*
X006069Y007160D01*
X006035Y007126D01*
X005974Y007126D01*
X005885Y007090D01*
X005822Y007027D02*
X005610Y007027D01*
X005747Y007184D02*
X006007Y007184D01*
X005960Y007262D02*
X005780Y007262D01*
X005808Y007341D02*
X005960Y007341D01*
X005960Y007420D02*
X005808Y007420D01*
X005808Y007498D02*
X005960Y007498D01*
X005960Y007577D02*
X005787Y007577D01*
X005776Y007655D02*
X005960Y007655D01*
X005638Y007969D02*
X004980Y007969D01*
X004980Y007891D02*
X005154Y007891D01*
X005221Y007919D02*
X005041Y007844D01*
X004980Y007784D01*
X004980Y008322D01*
X005041Y008262D01*
X005221Y008187D01*
X005416Y008187D01*
X005596Y008262D01*
X005734Y008400D01*
X005781Y008515D01*
X006295Y008512D01*
X006825Y007982D01*
X005718Y007982D01*
X005652Y007983D01*
X005651Y007982D01*
X005605Y007936D01*
X005536Y007869D01*
X005416Y007919D01*
X005221Y007919D01*
X005009Y007812D02*
X004980Y007812D01*
X004980Y008048D02*
X006759Y008048D01*
X006681Y008126D02*
X004980Y008126D01*
X004980Y008205D02*
X005178Y008205D01*
X005019Y008284D02*
X004980Y008284D01*
X005318Y008677D02*
X006362Y008672D01*
X007025Y008008D01*
X007675Y008008D01*
X007832Y008166D01*
X007832Y008400D01*
X007848Y008514D01*
X007616Y008538D02*
X007616Y008953D01*
X007714Y009052D01*
X007714Y009308D01*
X007576Y009426D01*
X007596Y009465D01*
X007478Y009109D02*
X007310Y009109D01*
X007307Y009112D01*
X007238Y009044D01*
X006891Y009044D01*
X006821Y009114D01*
X006821Y009540D01*
X006598Y009540D01*
X006520Y009462D02*
X006821Y009462D01*
X006821Y009540D02*
X006885Y009605D01*
X006885Y009768D01*
X006885Y009995D01*
X006713Y009995D01*
X006713Y009787D01*
X006713Y009655D01*
X006403Y009345D01*
X006403Y009114D01*
X006333Y009044D01*
X005985Y009044D01*
X005915Y009114D01*
X005915Y009540D01*
X005915Y009462D02*
X005479Y009462D01*
X005416Y009436D02*
X005596Y009510D01*
X005416Y009436D02*
X005254Y009436D01*
X004980Y009163D01*
X004980Y009032D01*
X005041Y009093D01*
X005221Y009167D01*
X005416Y009167D01*
X005596Y009093D01*
X005734Y008955D01*
X005783Y008835D01*
X006360Y008832D01*
X006428Y008832D01*
X006428Y008831D01*
X006429Y008831D01*
X006475Y008784D01*
X007091Y008168D01*
X007393Y008168D01*
X007393Y008878D01*
X007456Y008941D01*
X007456Y009019D01*
X007474Y009038D01*
X007474Y009099D01*
X007478Y009109D01*
X007474Y009069D02*
X007263Y009069D01*
X007456Y008990D02*
X005698Y008990D01*
X005752Y008912D02*
X007427Y008912D01*
X007393Y008833D02*
X006053Y008833D01*
X005960Y009069D02*
X005620Y009069D01*
X005463Y009148D02*
X005915Y009148D01*
X005915Y009226D02*
X005044Y009226D01*
X004980Y009148D02*
X005174Y009148D01*
X005123Y009305D02*
X005915Y009305D01*
X005915Y009383D02*
X005201Y009383D01*
X005017Y009069D02*
X004980Y009069D01*
X005751Y008441D02*
X006367Y008441D01*
X006445Y008362D02*
X005696Y008362D01*
X005618Y008284D02*
X006524Y008284D01*
X006602Y008205D02*
X005459Y008205D01*
X005651Y007982D02*
X005651Y007982D01*
X005559Y007891D02*
X005483Y007891D01*
X006277Y007497D02*
X006277Y007142D01*
X006021Y006886D01*
X006435Y006414D02*
X006494Y006355D01*
X006769Y006355D01*
X006238Y006276D02*
X005411Y006276D01*
X005321Y006178D01*
X005318Y006180D01*
X004860Y006006D02*
X004781Y006006D01*
X004781Y005927D02*
X004893Y005927D01*
X004957Y005849D02*
X004781Y005849D01*
X004781Y005770D02*
X005035Y005770D01*
X005217Y005692D02*
X004781Y005692D01*
X004808Y006084D02*
X004828Y006084D01*
X004828Y006163D02*
X004808Y006163D01*
X004808Y006241D02*
X004828Y006241D01*
X004846Y006320D02*
X004791Y006320D01*
X004781Y006399D02*
X004879Y006399D01*
X004922Y006477D02*
X004781Y006477D01*
X004781Y006556D02*
X004964Y006556D01*
X004886Y006634D02*
X004781Y006634D01*
X004781Y006713D02*
X004807Y006713D01*
X004624Y006713D02*
X002559Y006713D01*
X004555Y006634D02*
X004624Y006634D01*
X005542Y005063D02*
X006501Y005063D01*
X006801Y005063D02*
X007378Y005063D01*
X007378Y004985D02*
X005428Y004985D01*
X006515Y005456D02*
X006603Y005492D01*
X006699Y005492D01*
X006787Y005456D01*
X007791Y005885D02*
X007791Y006556D01*
X007905Y006556D01*
X007905Y005885D01*
X007791Y005885D01*
X007791Y005927D02*
X007905Y005927D01*
X007905Y006006D02*
X007791Y006006D01*
X007791Y006084D02*
X007905Y006084D01*
X007905Y006163D02*
X007791Y006163D01*
X007791Y006241D02*
X007905Y006241D01*
X007905Y006320D02*
X007791Y006320D01*
X007791Y006399D02*
X007905Y006399D01*
X007905Y006477D02*
X007791Y006477D01*
X007791Y006556D02*
X007720Y006626D01*
X007669Y006626D01*
X007662Y006633D01*
X007529Y006766D01*
X008691Y006766D01*
X008831Y006626D01*
X008743Y006626D01*
X008673Y006556D01*
X008302Y006556D01*
X008232Y006626D01*
X007975Y006626D01*
X007905Y006556D01*
X007661Y006634D02*
X008823Y006634D01*
X008744Y006713D02*
X007583Y006713D01*
X007419Y006926D02*
X007301Y007044D01*
X006809Y007044D01*
X006710Y007142D01*
X006594Y007354D02*
X006594Y007662D01*
X006927Y007662D01*
X006985Y007656D01*
X006992Y007662D01*
X007002Y007662D01*
X007011Y007671D01*
X007668Y007671D01*
X007800Y007671D01*
X007997Y007868D01*
X008219Y007868D01*
X008351Y007868D01*
X008430Y007947D01*
X008524Y008040D01*
X008524Y008079D01*
X008744Y008079D01*
X008755Y008079D01*
X008755Y007686D01*
X008849Y007592D01*
X009208Y007233D01*
X009208Y006702D01*
X008917Y006992D01*
X008824Y007086D01*
X007485Y007086D01*
X007461Y007110D01*
X007367Y007204D01*
X006944Y007204D01*
X006914Y007278D01*
X006846Y007346D01*
X006758Y007382D01*
X006662Y007382D01*
X006594Y007354D01*
X006594Y007420D02*
X009022Y007420D01*
X009100Y007341D02*
X006851Y007341D01*
X006920Y007262D02*
X009179Y007262D01*
X009208Y007184D02*
X007387Y007184D01*
X007465Y007105D02*
X009208Y007105D01*
X009208Y007027D02*
X008883Y007027D01*
X008961Y006948D02*
X009208Y006948D01*
X009208Y006870D02*
X009040Y006870D01*
X009118Y006791D02*
X009208Y006791D01*
X009197Y006713D02*
X009208Y006713D01*
X009127Y006556D02*
X008757Y006926D01*
X007419Y006926D01*
X008302Y006556D02*
X008302Y005885D01*
X008673Y005885D01*
X008673Y006556D01*
X008673Y006477D02*
X008302Y006477D01*
X008302Y006399D02*
X008673Y006399D01*
X008673Y006320D02*
X008302Y006320D01*
X008302Y006241D02*
X008673Y006241D01*
X008616Y006191D02*
X008616Y005957D01*
X008620Y005882D01*
X008673Y005927D02*
X008302Y005927D01*
X008302Y006006D02*
X008673Y006006D01*
X008673Y006084D02*
X008302Y006084D01*
X008302Y006163D02*
X008673Y006163D01*
X009127Y006191D02*
X009127Y006556D01*
X009528Y006556D02*
X009675Y006556D01*
X009681Y006477D02*
X009528Y006477D01*
X009528Y006399D02*
X009681Y006399D01*
X009681Y006320D02*
X009528Y006320D01*
X009528Y006634D02*
X009556Y006634D01*
X010352Y006552D02*
X010352Y005902D01*
X010391Y005863D01*
X010785Y006099D02*
X011080Y006099D01*
X011159Y006020D01*
X011533Y006020D01*
X011631Y005902D01*
X011378Y005585D02*
X011898Y005585D01*
X011968Y005655D01*
X011968Y006077D01*
X012530Y006077D01*
X012594Y006013D01*
X012687Y005919D01*
X012716Y005919D01*
X012716Y005478D01*
X012786Y005408D01*
X013183Y005408D01*
X013183Y005390D01*
X011267Y005390D01*
X011339Y005462D01*
X011339Y005545D01*
X011378Y005585D01*
X011339Y005535D02*
X012716Y005535D01*
X012716Y005613D02*
X011926Y005613D01*
X011968Y005692D02*
X012716Y005692D01*
X012716Y005770D02*
X011968Y005770D01*
X011968Y005849D02*
X012716Y005849D01*
X012679Y005927D02*
X011968Y005927D01*
X011968Y006006D02*
X012601Y006006D01*
X012754Y006079D02*
X013521Y006079D01*
X013580Y005981D01*
X013679Y005745D02*
X013147Y005745D01*
X013084Y005741D01*
X013033Y005745D01*
X012739Y005456D02*
X011333Y005456D01*
X011179Y005528D02*
X011179Y005725D01*
X011179Y005528D02*
X010726Y005075D01*
X010726Y003638D01*
X010952Y003412D01*
X011080Y003284D01*
X011080Y002910D01*
X010852Y002943D02*
X010561Y002943D01*
X010561Y003021D02*
X010852Y003021D01*
X010852Y003100D02*
X010561Y003100D01*
X010561Y003178D02*
X010852Y003178D01*
X010768Y003257D02*
X010500Y003257D01*
X010724Y003335D02*
X010190Y003335D01*
X010178Y003414D02*
X010712Y003414D01*
X010646Y003492D02*
X010178Y003492D01*
X009801Y002864D02*
X009763Y002864D01*
X009763Y002786D02*
X009801Y002786D01*
X009801Y002707D02*
X009728Y002707D01*
X009740Y002471D02*
X009801Y002471D01*
X009801Y002393D02*
X009763Y002393D01*
X009763Y002314D02*
X009801Y002314D01*
X009801Y002236D02*
X009763Y002236D01*
X009794Y001450D02*
X009801Y001450D01*
X009801Y001372D02*
X009702Y001372D01*
X010589Y002707D02*
X010852Y002707D01*
X010852Y002786D02*
X010561Y002786D01*
X010561Y002864D02*
X010852Y002864D01*
X011309Y002943D02*
X011381Y002943D01*
X011309Y003021D02*
X011460Y003021D01*
X011309Y003100D02*
X012613Y003100D01*
X011809Y002083D02*
X011533Y002083D01*
X011454Y002162D01*
X011454Y002398D01*
X011415Y002437D01*
X011311Y002079D02*
X011254Y002079D01*
X012287Y001764D02*
X012600Y001764D01*
X012594Y000743D02*
X011181Y000743D01*
X011181Y000665D02*
X012604Y000665D01*
X014114Y001529D02*
X014624Y001529D01*
X014624Y001607D02*
X014114Y001607D01*
X014349Y001686D02*
X014624Y001686D01*
X014624Y001764D02*
X014419Y001764D01*
X014289Y001886D02*
X014210Y001886D01*
X014072Y002123D02*
X014072Y002713D01*
X014250Y002871D02*
X014191Y002930D01*
X014407Y002457D02*
X014466Y002398D01*
X015588Y002398D01*
X015824Y002221D01*
X015883Y002241D02*
X015883Y002378D01*
X015903Y002398D01*
X016238Y002398D01*
X016376Y002536D01*
X016553Y002536D01*
X016671Y002654D01*
X016691Y002654D01*
X016809Y002654D01*
X016850Y002814D02*
X016850Y003232D01*
X016757Y003326D01*
X016599Y003483D01*
X016592Y003483D01*
X016573Y003502D01*
X016218Y003502D01*
X016199Y003483D01*
X016127Y003483D01*
X015994Y003483D01*
X015993Y003482D01*
X015973Y003502D01*
X015637Y003502D01*
X015567Y003432D01*
X015567Y002984D01*
X015101Y002984D01*
X014781Y003304D01*
X014781Y004662D01*
X023403Y004662D01*
X023403Y003560D01*
X021986Y003540D01*
X021612Y003540D01*
X021612Y003697D01*
X021415Y003894D01*
X021002Y003953D01*
X020787Y003957D01*
X020787Y004042D01*
X023403Y004042D01*
X023403Y003964D02*
X020787Y003964D01*
X020787Y004042D02*
X020717Y004113D01*
X020700Y004113D01*
X020670Y004143D01*
X020532Y004280D01*
X020408Y004280D01*
X019719Y004280D01*
X019699Y004261D01*
X016904Y004261D01*
X016816Y004173D01*
X016816Y004122D01*
X016641Y004122D01*
X016571Y004052D01*
X016571Y004034D01*
X016436Y004034D01*
X016436Y004160D01*
X016366Y004231D01*
X015834Y004231D01*
X015763Y004160D01*
X015763Y003667D01*
X015834Y003597D01*
X016366Y003597D01*
X016436Y003667D01*
X016436Y003714D01*
X016571Y003714D01*
X016571Y003697D01*
X016641Y003627D01*
X016838Y003627D01*
X017035Y003627D01*
X017210Y003627D01*
X017210Y003615D01*
X017337Y003488D01*
X017461Y003488D01*
X017643Y003488D01*
X017643Y003432D01*
X017643Y003215D01*
X017643Y003038D01*
X017643Y002841D01*
X017643Y002814D01*
X016875Y002814D01*
X016850Y002814D01*
X016875Y002814D02*
X016875Y002814D01*
X016850Y002864D02*
X017643Y002864D01*
X017643Y002943D02*
X016850Y002943D01*
X016850Y003021D02*
X017643Y003021D01*
X017643Y003100D02*
X016850Y003100D01*
X016850Y003178D02*
X017643Y003178D01*
X017643Y003257D02*
X016826Y003257D01*
X016747Y003335D02*
X017643Y003335D01*
X017643Y003414D02*
X016668Y003414D01*
X016583Y003492D02*
X017333Y003492D01*
X017254Y003571D02*
X014781Y003571D01*
X014781Y003649D02*
X015781Y003649D01*
X015763Y003728D02*
X014781Y003728D01*
X014781Y003807D02*
X015763Y003807D01*
X015763Y003885D02*
X014781Y003885D01*
X014781Y003964D02*
X015763Y003964D01*
X015763Y004042D02*
X014781Y004042D01*
X014781Y004121D02*
X015763Y004121D01*
X015802Y004199D02*
X014781Y004199D01*
X014781Y004278D02*
X019716Y004278D01*
X020535Y004278D02*
X023403Y004278D01*
X023403Y004356D02*
X014781Y004356D01*
X014781Y004435D02*
X023403Y004435D01*
X023403Y004513D02*
X014781Y004513D01*
X014781Y004592D02*
X023403Y004592D01*
X023403Y004199D02*
X020613Y004199D01*
X020692Y004121D02*
X023403Y004121D01*
X023403Y003885D02*
X021424Y003885D01*
X021503Y003807D02*
X023403Y003807D01*
X023403Y003728D02*
X021581Y003728D01*
X021612Y003649D02*
X023403Y003649D01*
X023403Y003571D02*
X021612Y003571D01*
X020372Y003126D02*
X020372Y002516D01*
X020490Y002398D01*
X020569Y002398D01*
X020647Y002319D01*
X020647Y002063D01*
X020470Y001886D01*
X020076Y001886D01*
X019880Y002103D01*
X019880Y002201D01*
X019604Y002477D01*
X019230Y002477D01*
X019131Y002378D01*
X018738Y002378D01*
X018738Y002772D01*
X018659Y002851D01*
X018659Y003205D01*
X018856Y003225D01*
X018856Y002989D01*
X018954Y002890D01*
X019269Y002890D01*
X019348Y002811D01*
X019348Y002595D01*
X019446Y002497D01*
X019761Y002497D01*
X019820Y002437D01*
X020135Y002437D01*
X020254Y002556D01*
X020254Y002910D01*
X020332Y002989D01*
X020332Y003126D01*
X020372Y003126D01*
X020372Y003100D02*
X020332Y003100D01*
X020332Y003021D02*
X020372Y003021D01*
X020372Y002943D02*
X020286Y002943D01*
X020254Y002864D02*
X020372Y002864D01*
X020372Y002786D02*
X020254Y002786D01*
X020254Y002707D02*
X020372Y002707D01*
X020372Y002628D02*
X020254Y002628D01*
X020248Y002550D02*
X020372Y002550D01*
X020417Y002471D02*
X020169Y002471D01*
X019787Y002471D02*
X019609Y002471D01*
X019688Y002393D02*
X020574Y002393D01*
X020647Y002314D02*
X019767Y002314D01*
X019845Y002236D02*
X020647Y002236D01*
X020647Y002157D02*
X019880Y002157D01*
X019902Y002079D02*
X020647Y002079D01*
X020584Y002000D02*
X019973Y002000D01*
X020044Y001922D02*
X020505Y001922D01*
X021275Y001293D02*
X023403Y001293D01*
X023403Y001335D02*
X023403Y000837D01*
X023328Y000656D01*
X023177Y000505D01*
X022979Y000423D01*
X022872Y000412D01*
X022824Y000412D01*
X022814Y000412D01*
X014781Y000412D01*
X014781Y001835D01*
X014863Y001835D01*
X014961Y001933D01*
X015152Y001933D01*
X015202Y001883D01*
X015202Y001175D01*
X015290Y001087D01*
X015526Y000850D01*
X015650Y000850D01*
X015821Y000850D01*
X015946Y000850D01*
X016289Y001194D01*
X016289Y001319D01*
X016289Y001608D01*
X016339Y001658D01*
X016427Y001745D01*
X016427Y001962D01*
X016457Y001992D01*
X016930Y001992D01*
X016983Y002046D01*
X016983Y001539D01*
X016978Y001534D01*
X016385Y001534D01*
X016315Y001464D01*
X016315Y000892D01*
X016385Y000821D01*
X017036Y000821D01*
X017106Y000892D01*
X017106Y001209D01*
X017303Y001407D01*
X017303Y001451D01*
X017902Y001451D01*
X017972Y001522D01*
X017972Y002093D01*
X017902Y002164D01*
X017604Y002164D01*
X017519Y002248D01*
X017519Y002494D01*
X017825Y002494D01*
X017852Y002494D01*
X017852Y002437D01*
X018029Y002260D01*
X018029Y002233D01*
X017988Y002192D01*
X017988Y001738D01*
X018029Y001697D01*
X018029Y001650D01*
X018226Y001453D01*
X018226Y001178D01*
X018383Y001020D01*
X020706Y001020D01*
X020824Y001138D01*
X021120Y001138D01*
X021376Y001394D01*
X021376Y002063D01*
X021454Y002142D01*
X021612Y002142D01*
X021651Y002103D01*
X021651Y001985D01*
X021750Y001886D01*
X021750Y001788D01*
X021789Y001749D01*
X021927Y001749D01*
X023383Y001591D01*
X023403Y001335D01*
X023400Y001372D02*
X021353Y001372D01*
X021376Y001450D02*
X023394Y001450D01*
X023388Y001529D02*
X021376Y001529D01*
X021376Y001607D02*
X023232Y001607D01*
X023403Y001215D02*
X021196Y001215D01*
X020822Y001136D02*
X023403Y001136D01*
X023403Y001058D02*
X020744Y001058D01*
X021376Y001686D02*
X022506Y001686D01*
X021773Y001764D02*
X021376Y001764D01*
X021376Y001843D02*
X021750Y001843D01*
X021714Y001922D02*
X021376Y001922D01*
X021376Y002000D02*
X021651Y002000D01*
X021651Y002079D02*
X021391Y002079D01*
X023258Y000586D02*
X014781Y000586D01*
X014781Y000508D02*
X023180Y000508D01*
X022995Y000429D02*
X014781Y000429D01*
X014781Y000665D02*
X023332Y000665D01*
X023364Y000743D02*
X014781Y000743D01*
X014781Y000822D02*
X016384Y000822D01*
X016315Y000900D02*
X015996Y000900D01*
X016074Y000979D02*
X016315Y000979D01*
X016315Y001058D02*
X016153Y001058D01*
X016231Y001136D02*
X016315Y001136D01*
X016315Y001215D02*
X016289Y001215D01*
X016289Y001293D02*
X016315Y001293D01*
X016315Y001372D02*
X016289Y001372D01*
X016289Y001450D02*
X016315Y001450D01*
X016289Y001529D02*
X016380Y001529D01*
X016289Y001607D02*
X016983Y001607D01*
X016983Y001686D02*
X016368Y001686D01*
X016427Y001764D02*
X016983Y001764D01*
X016983Y001843D02*
X016427Y001843D01*
X016427Y001922D02*
X016983Y001922D01*
X016983Y002000D02*
X016938Y002000D01*
X017340Y002201D02*
X017616Y001926D01*
X017576Y001808D01*
X017532Y002236D02*
X018029Y002236D01*
X017988Y002157D02*
X017908Y002157D01*
X017972Y002079D02*
X017988Y002079D01*
X017988Y002000D02*
X017972Y002000D01*
X017972Y001922D02*
X017988Y001922D01*
X017988Y001843D02*
X017972Y001843D01*
X017972Y001764D02*
X017988Y001764D01*
X017972Y001686D02*
X018029Y001686D01*
X018072Y001607D02*
X017972Y001607D01*
X017972Y001529D02*
X018150Y001529D01*
X018226Y001450D02*
X017303Y001450D01*
X017268Y001372D02*
X018226Y001372D01*
X018226Y001293D02*
X017190Y001293D01*
X017111Y001215D02*
X018226Y001215D01*
X018268Y001136D02*
X017106Y001136D01*
X017106Y001058D02*
X018346Y001058D01*
X017106Y000979D02*
X023403Y000979D01*
X023403Y000900D02*
X017106Y000900D01*
X017036Y000822D02*
X023397Y000822D01*
X019393Y002550D02*
X018738Y002550D01*
X018738Y002628D02*
X019348Y002628D01*
X019348Y002707D02*
X018738Y002707D01*
X018724Y002786D02*
X019348Y002786D01*
X019295Y002864D02*
X018659Y002864D01*
X018659Y002943D02*
X018902Y002943D01*
X018856Y003021D02*
X018659Y003021D01*
X018659Y003100D02*
X018856Y003100D01*
X018856Y003178D02*
X018659Y003178D01*
X018226Y002575D02*
X018128Y002654D01*
X017891Y002654D01*
X017825Y002494D02*
X017825Y002494D01*
X017852Y002471D02*
X017519Y002471D01*
X017519Y002393D02*
X017897Y002393D01*
X017975Y002314D02*
X017519Y002314D01*
X017340Y002378D02*
X017340Y002201D01*
X017143Y002378D02*
X017143Y001473D01*
X016848Y001178D01*
X016710Y001178D01*
X015989Y001319D02*
X015989Y001732D01*
X015994Y001736D01*
X015502Y001736D01*
X015502Y001299D01*
X015650Y001150D01*
X015821Y001150D01*
X015989Y001319D01*
X015964Y001293D02*
X015508Y001293D01*
X015502Y001372D02*
X015989Y001372D01*
X015989Y001450D02*
X015502Y001450D01*
X015502Y001529D02*
X015989Y001529D01*
X015989Y001607D02*
X015502Y001607D01*
X015502Y001686D02*
X015989Y001686D01*
X015883Y002142D02*
X015883Y002241D01*
X015509Y002004D02*
X015509Y001906D01*
X015509Y002004D02*
X015273Y002241D01*
X014820Y002241D01*
X014702Y002123D01*
X014072Y002123D01*
X014781Y001764D02*
X015202Y001764D01*
X015202Y001686D02*
X014781Y001686D01*
X014781Y001607D02*
X015202Y001607D01*
X015202Y001529D02*
X014781Y001529D01*
X014781Y001450D02*
X015202Y001450D01*
X015202Y001372D02*
X014781Y001372D01*
X014781Y001293D02*
X015202Y001293D01*
X015202Y001215D02*
X014781Y001215D01*
X014781Y001136D02*
X015240Y001136D01*
X015319Y001058D02*
X014781Y001058D01*
X014781Y000979D02*
X015397Y000979D01*
X015476Y000900D02*
X014781Y000900D01*
X015586Y001215D02*
X015886Y001215D01*
X015202Y001843D02*
X014871Y001843D01*
X014950Y001922D02*
X015164Y001922D01*
X015064Y003021D02*
X015567Y003021D01*
X015567Y003100D02*
X014985Y003100D01*
X014906Y003178D02*
X015567Y003178D01*
X015567Y003257D02*
X014828Y003257D01*
X014781Y003335D02*
X015567Y003335D01*
X015567Y003414D02*
X014781Y003414D01*
X014781Y003492D02*
X015627Y003492D01*
X015805Y003205D02*
X015864Y003087D01*
X015864Y003126D01*
X016061Y003323D01*
X016395Y003323D01*
X016208Y003492D02*
X015982Y003492D01*
X016419Y003649D02*
X016618Y003649D01*
X016730Y003855D02*
X016750Y003874D01*
X016730Y003855D02*
X016710Y003874D01*
X015962Y003874D01*
X016100Y003914D01*
X016436Y004042D02*
X016571Y004042D01*
X016639Y004121D02*
X016436Y004121D01*
X016398Y004199D02*
X016843Y004199D01*
X017249Y005033D02*
X017288Y005073D01*
X017741Y005073D01*
X017835Y005166D01*
X017879Y005211D01*
X018450Y005211D01*
X018543Y005304D01*
X018721Y005481D01*
X018721Y005614D01*
X018721Y005988D01*
X018627Y006082D01*
X018475Y006234D01*
X018588Y006234D01*
X018597Y006243D01*
X018607Y006234D01*
X018785Y006234D01*
X018794Y006243D01*
X018804Y006234D01*
X018982Y006234D01*
X019052Y006304D01*
X019052Y006483D01*
X019053Y006484D01*
X019053Y007053D01*
X019110Y007077D01*
X019177Y007144D01*
X019214Y007232D01*
X019214Y007326D01*
X019365Y007174D01*
X019459Y007081D01*
X019728Y007081D01*
X019729Y007080D01*
X019909Y007080D01*
X019909Y007079D01*
X020042Y007079D01*
X020042Y007080D01*
X020202Y007080D01*
X020252Y007077D01*
X020256Y007081D01*
X020261Y007081D01*
X020305Y007125D01*
X020389Y007200D01*
X020389Y007194D01*
X020389Y007193D01*
X020389Y007132D01*
X020460Y007062D01*
X020992Y007062D01*
X021062Y007132D01*
X021062Y007593D01*
X021584Y007593D01*
X021689Y007489D01*
X021689Y007109D01*
X021600Y007146D01*
X021505Y007146D01*
X021417Y007109D01*
X021349Y007042D01*
X021343Y007027D01*
X020486Y007027D01*
X020369Y006910D01*
X020248Y006790D01*
X019948Y006790D01*
X019878Y006719D01*
X019878Y006673D01*
X019757Y006673D01*
X019738Y006673D01*
X019527Y006673D01*
X019525Y006673D01*
X019522Y006676D01*
X019476Y006674D01*
X019447Y006675D01*
X019446Y006674D01*
X019446Y006797D01*
X019376Y006867D01*
X019197Y006867D01*
X019127Y006797D01*
X019127Y006617D01*
X019127Y006617D01*
X019127Y006484D01*
X019127Y006304D01*
X019197Y006234D01*
X019376Y006234D01*
X019411Y006269D01*
X019446Y006269D01*
X019502Y006213D01*
X019502Y006055D01*
X019426Y005978D01*
X019368Y005839D01*
X019368Y005689D01*
X019426Y005550D01*
X019532Y005444D01*
X019671Y005387D01*
X019821Y005387D01*
X019959Y005444D01*
X020039Y005524D01*
X020088Y005524D01*
X020145Y005467D01*
X020638Y005467D01*
X020697Y005526D01*
X020681Y005488D01*
X020681Y005293D01*
X020755Y005113D01*
X020893Y004975D01*
X021073Y004900D01*
X021268Y004900D01*
X021448Y004975D01*
X021586Y005113D01*
X021661Y005293D01*
X021661Y005488D01*
X021586Y005668D01*
X021467Y005787D01*
X021934Y006254D01*
X022239Y006254D01*
X022283Y006210D01*
X022371Y006174D01*
X022467Y006174D01*
X022555Y006210D01*
X022622Y006278D01*
X022659Y006366D01*
X022659Y006462D01*
X022622Y006550D01*
X022555Y006617D01*
X022467Y006654D01*
X022371Y006654D01*
X022283Y006617D01*
X022239Y006574D01*
X021801Y006574D01*
X021708Y006480D01*
X021108Y005880D01*
X021073Y005880D01*
X020893Y005806D01*
X020755Y005668D01*
X020708Y005553D01*
X020708Y006070D01*
X020638Y006140D01*
X020145Y006140D01*
X020088Y006084D01*
X019960Y006084D01*
X019959Y006084D01*
X020089Y006084D01*
X019959Y006084D02*
X019902Y006108D01*
X019902Y006202D01*
X019948Y006156D01*
X020480Y006156D01*
X020551Y006226D01*
X020551Y006527D01*
X020651Y006627D01*
X021391Y006627D01*
X021557Y006627D01*
X021596Y006666D01*
X021600Y006666D01*
X021689Y006703D01*
X021756Y006770D01*
X021793Y006858D01*
X021793Y006943D01*
X022291Y006943D01*
X022362Y007014D01*
X022362Y007507D01*
X022291Y007577D01*
X022053Y007577D01*
X021879Y007751D01*
X022291Y007751D01*
X022362Y007821D01*
X022362Y008314D01*
X022291Y008384D01*
X021836Y008384D01*
X021781Y008439D01*
X021781Y008708D01*
X021711Y008778D01*
X021249Y008778D01*
X021260Y008789D01*
X021260Y008921D01*
X021260Y009399D01*
X021265Y009403D01*
X021782Y009403D01*
X021787Y009398D01*
X021787Y008805D01*
X021857Y008735D01*
X021975Y008735D01*
X021982Y008729D01*
X021996Y008699D01*
X022029Y008686D01*
X022407Y008345D01*
X022451Y008301D01*
X022456Y008301D01*
X022459Y008298D01*
X022521Y008301D01*
X022968Y008301D01*
X023035Y008300D01*
X023035Y007994D01*
X023105Y007924D01*
X023558Y007924D01*
X023558Y007277D01*
X023260Y006979D01*
X023258Y006979D01*
X023164Y006886D01*
X023164Y006884D01*
X023164Y006618D01*
X022380Y005834D01*
X022268Y005880D01*
X022073Y005880D01*
X021893Y005806D01*
X021755Y005668D01*
X021681Y005488D01*
X021681Y005293D01*
X021755Y005113D01*
X021893Y004975D01*
X022073Y004900D01*
X022268Y004900D01*
X022448Y004975D01*
X022586Y005113D01*
X022661Y005293D01*
X022661Y005488D01*
X022610Y005611D01*
X023083Y006084D01*
X023084Y005880D01*
X023073Y005880D01*
X022893Y005806D01*
X022755Y005668D01*
X022681Y005488D01*
X022681Y005293D01*
X022755Y005113D01*
X022893Y004975D01*
X023073Y004900D01*
X023268Y004900D01*
X023448Y004975D01*
X023586Y005113D01*
X023661Y005293D01*
X023661Y005488D01*
X023586Y005668D01*
X023448Y005806D01*
X023404Y005824D01*
X023402Y006170D01*
X023612Y006396D01*
X023656Y006439D01*
X023657Y006444D01*
X023660Y006448D01*
X023658Y006510D01*
X023660Y006681D01*
X023893Y006911D01*
X023893Y006396D01*
X023849Y006353D01*
X023813Y006265D01*
X023813Y006169D01*
X023849Y006081D01*
X023917Y006014D01*
X024005Y005977D01*
X024100Y005977D01*
X024168Y006005D01*
X024168Y005880D01*
X024073Y005880D01*
X023893Y005806D01*
X023755Y005668D01*
X023681Y005488D01*
X023681Y005293D01*
X023755Y005113D01*
X023893Y004975D01*
X024073Y004900D01*
X024268Y004900D01*
X024448Y004975D01*
X024586Y005113D01*
X024661Y005293D01*
X024661Y005488D01*
X024586Y005668D01*
X024488Y005766D01*
X024488Y006688D01*
X024693Y006688D01*
X024761Y006756D01*
X024830Y006688D01*
X024995Y006688D01*
X024995Y005848D01*
X024893Y005806D01*
X024755Y005668D01*
X024681Y005488D01*
X024681Y005293D01*
X024755Y005113D01*
X024893Y004975D01*
X025073Y004900D01*
X025268Y004900D01*
X025448Y004975D01*
X025586Y005113D01*
X025661Y005293D01*
X025661Y005488D01*
X025586Y005668D01*
X025448Y005806D01*
X025315Y005861D01*
X025315Y006688D01*
X025362Y006688D01*
X025433Y006758D01*
X025433Y007115D01*
X025497Y007179D01*
X025591Y007273D01*
X025591Y008488D01*
X025497Y008582D01*
X025359Y008719D01*
X025227Y008719D01*
X024788Y008719D01*
X024705Y008803D01*
X024705Y008946D01*
X024788Y009029D01*
X024882Y009123D01*
X024882Y009133D01*
X025607Y009133D01*
X025677Y009203D01*
X025677Y009542D01*
X025607Y009612D01*
X024820Y009612D01*
X024828Y009620D01*
X024963Y009620D01*
X025096Y009620D01*
X025108Y009633D01*
X025607Y009633D01*
X025677Y009703D01*
X025677Y010042D01*
X025607Y010112D01*
X024807Y010112D01*
X024827Y010133D01*
X025607Y010133D01*
X025677Y010203D01*
X025677Y010428D01*
X025717Y010428D01*
X025787Y010498D01*
X025787Y011030D01*
X025717Y011101D01*
X025224Y011101D01*
X025153Y011030D01*
X025153Y010612D01*
X025104Y010612D01*
X025147Y010655D01*
X025147Y011149D01*
X025077Y011219D01*
X024744Y011219D01*
X024744Y011579D01*
X024651Y011672D01*
X024513Y011810D01*
X024380Y011810D01*
X023253Y011810D01*
X023159Y011904D01*
X023965Y011904D01*
X024035Y011974D01*
X024035Y012792D01*
X024444Y012383D01*
X024582Y012244D01*
X024582Y011974D01*
X024653Y011904D01*
X025697Y011904D01*
X025767Y011974D01*
X025767Y013019D01*
X025697Y013089D01*
X025309Y013089D01*
X025289Y013109D01*
X025100Y013187D01*
X025092Y013187D01*
X024744Y013536D01*
X024744Y014320D01*
X024744Y014524D01*
X024665Y014713D01*
X024641Y014737D01*
X024641Y015880D01*
X024819Y015880D01*
X024819Y015520D01*
X024889Y015449D01*
X025412Y015449D01*
X025474Y015387D01*
X025527Y015387D01*
X025551Y015364D01*
X025639Y015327D01*
X025734Y015327D01*
X025823Y015364D01*
X025890Y015431D01*
X026002Y015431D01*
X026002Y015352D02*
X025795Y015352D01*
X025890Y015431D02*
X025927Y015520D01*
X025927Y015615D01*
X025890Y015703D01*
X025823Y015771D01*
X025734Y015807D01*
X025639Y015807D01*
X025585Y015785D01*
X025570Y015800D01*
X025570Y015880D01*
X026002Y015880D01*
X026002Y013503D01*
X025983Y013503D01*
X025901Y013421D01*
X025901Y013305D01*
X025901Y007340D01*
X025983Y007258D01*
X026002Y007258D01*
X026002Y004881D01*
X025983Y004881D01*
X025941Y004839D01*
X015106Y004839D01*
X015301Y005034D01*
X015520Y005034D01*
X015590Y005104D01*
X015590Y005142D01*
X015591Y005142D01*
X015590Y005142D02*
X015699Y005033D01*
X015832Y005033D01*
X017249Y005033D01*
X017279Y005063D02*
X020805Y005063D01*
X020743Y005142D02*
X017810Y005142D01*
X017675Y005233D02*
X017222Y005233D01*
X017183Y005193D01*
X015765Y005193D01*
X015608Y005351D01*
X015608Y006099D01*
X015450Y006099D01*
X015509Y006256D02*
X015273Y006493D01*
X014092Y006493D01*
X013915Y006394D01*
X012911Y006394D01*
X012990Y006552D02*
X013856Y006552D01*
X014033Y006650D01*
X015332Y006650D01*
X015569Y006414D01*
X015746Y006414D01*
X015883Y006276D01*
X016120Y006276D01*
X016297Y006099D01*
X017133Y006099D01*
X017173Y006119D01*
X017006Y006256D02*
X016356Y006256D01*
X016179Y006434D01*
X015943Y006434D01*
X015805Y006571D01*
X015628Y006571D01*
X015391Y006808D01*
X013954Y006808D01*
X013777Y006709D01*
X013069Y006709D01*
X012911Y006867D01*
X011671Y006867D01*
X011159Y007378D01*
X010726Y007378D01*
X010667Y007437D01*
X010431Y007437D01*
X009939Y007930D01*
X009939Y008363D01*
X009801Y008500D01*
X009801Y008697D01*
X009565Y008934D01*
X009466Y008934D01*
X009446Y008619D02*
X009781Y008284D01*
X009781Y007851D01*
X010352Y007280D01*
X010588Y007280D01*
X010647Y007221D01*
X011080Y007221D01*
X011592Y006709D01*
X012832Y006709D01*
X012990Y006552D01*
X013147Y006867D02*
X013698Y006867D01*
X013895Y006965D01*
X015450Y006965D01*
X015687Y006729D01*
X015864Y006729D01*
X016002Y006591D01*
X016238Y006591D01*
X016395Y006434D01*
X017120Y006434D01*
X017121Y006550D01*
X017318Y006550D02*
X017318Y006810D01*
X017281Y006886D01*
X017045Y006867D02*
X017045Y006985D01*
X017183Y007123D01*
X017380Y007123D01*
X017517Y006985D01*
X017517Y006553D01*
X017515Y006550D01*
X017712Y006550D02*
X017714Y006528D01*
X017714Y006315D01*
X017675Y006276D01*
X017763Y006128D02*
X017911Y006276D01*
X017911Y006528D01*
X017909Y006550D01*
X018105Y006550D02*
X018105Y006234D01*
X017773Y005902D01*
X017773Y005567D01*
X017596Y005390D01*
X017163Y005390D01*
X017124Y005351D01*
X015844Y005351D01*
X015765Y005430D01*
X015765Y006178D01*
X015687Y006256D01*
X015509Y006256D01*
X016002Y006040D02*
X016002Y005725D01*
X016139Y005666D01*
X016809Y005666D02*
X017285Y005666D01*
X017383Y005764D01*
X017813Y005371D02*
X017675Y005233D01*
X017813Y005371D02*
X018383Y005371D01*
X018561Y005548D01*
X018561Y005922D01*
X018302Y006180D01*
X018302Y006550D01*
X018499Y006550D02*
X018502Y006553D01*
X018502Y006768D01*
X018364Y006906D01*
X017872Y006906D01*
X017616Y007162D01*
X017616Y007300D01*
X017609Y007540D02*
X017662Y007592D01*
X017741Y007592D01*
X017958Y007809D01*
X018843Y007809D01*
X018937Y007903D01*
X019311Y008277D01*
X019311Y008409D01*
X019311Y008537D01*
X019525Y008323D01*
X019631Y008323D01*
X019606Y008299D01*
X019603Y008166D01*
X019659Y008108D01*
X019659Y007938D01*
X019668Y007928D01*
X019659Y007919D01*
X019659Y007741D01*
X019668Y007731D01*
X019659Y007722D01*
X019659Y007544D01*
X019668Y007535D01*
X019659Y007525D01*
X019659Y007401D01*
X019591Y007401D01*
X019316Y007676D01*
X019183Y007676D01*
X018425Y007676D01*
X018401Y007700D01*
X018313Y007736D01*
X018218Y007736D01*
X018129Y007700D01*
X018062Y007632D01*
X018025Y007544D01*
X018025Y007449D01*
X018062Y007361D01*
X018129Y007293D01*
X018218Y007257D01*
X018313Y007257D01*
X018321Y007260D01*
X018321Y007232D01*
X018357Y007144D01*
X018401Y007101D01*
X018401Y007066D01*
X018297Y007066D01*
X017938Y007066D01*
X017825Y007179D01*
X017856Y007252D01*
X017856Y007347D01*
X017819Y007436D01*
X017752Y007503D01*
X017663Y007540D01*
X017609Y007540D01*
X017646Y007577D02*
X018039Y007577D01*
X018025Y007498D02*
X017757Y007498D01*
X017826Y007420D02*
X018037Y007420D01*
X018081Y007341D02*
X017856Y007341D01*
X017856Y007262D02*
X018203Y007262D01*
X018341Y007184D02*
X017827Y007184D01*
X017898Y007105D02*
X018396Y007105D01*
X018561Y007063D02*
X018698Y006926D01*
X018698Y006568D01*
X018696Y006550D01*
X018893Y006550D02*
X018893Y007199D01*
X018974Y007280D01*
X019194Y007184D02*
X019356Y007184D01*
X019434Y007105D02*
X019139Y007105D01*
X019053Y007027D02*
X020485Y007027D01*
X020416Y007105D02*
X020285Y007105D01*
X020371Y007184D02*
X020389Y007184D01*
X020549Y007260D02*
X020726Y007378D01*
X020549Y007418D02*
X020549Y007260D01*
X020549Y007418D02*
X020391Y007418D01*
X020194Y007241D01*
X019977Y007241D01*
X019975Y007239D01*
X019974Y007241D01*
X019525Y007241D01*
X019250Y007516D01*
X018285Y007516D01*
X018265Y007497D01*
X018085Y007655D02*
X017804Y007655D01*
X017882Y007734D02*
X018211Y007734D01*
X018320Y007734D02*
X019666Y007734D01*
X019659Y007812D02*
X018847Y007812D01*
X018925Y007891D02*
X019659Y007891D01*
X019659Y007969D02*
X019004Y007969D01*
X019082Y008048D02*
X019659Y008048D01*
X019641Y008126D02*
X019161Y008126D01*
X019239Y008205D02*
X019604Y008205D01*
X019605Y008284D02*
X019311Y008284D01*
X019311Y008362D02*
X019486Y008362D01*
X019408Y008441D02*
X019311Y008441D01*
X019311Y008519D02*
X019329Y008519D01*
X019151Y008343D02*
X018777Y007969D01*
X017891Y007969D01*
X017675Y007752D01*
X017596Y007752D01*
X016887Y007044D01*
X016887Y006926D01*
X016710Y006749D01*
X016513Y006749D01*
X016356Y006906D01*
X016120Y006906D01*
X015982Y007044D01*
X015805Y007044D01*
X015569Y007280D01*
X014230Y007280D01*
X014053Y007457D01*
X014053Y007752D01*
X013738Y008067D01*
X013324Y008067D01*
X013285Y008028D01*
X013088Y008028D01*
X013049Y008067D01*
X012655Y008067D01*
X011454Y009288D01*
X010765Y009288D01*
X010450Y008973D01*
X010411Y008973D01*
X010293Y008855D01*
X010610Y008833D02*
X011235Y008833D01*
X011240Y008829D02*
X011328Y008792D01*
X011423Y008792D01*
X011441Y008799D01*
X011640Y008601D01*
X011601Y008601D01*
X011531Y008530D01*
X011531Y007998D01*
X011600Y007930D01*
X011531Y007861D01*
X011531Y007469D01*
X011383Y007617D01*
X011383Y007808D01*
X011313Y007878D01*
X010887Y007878D01*
X010817Y007808D01*
X010817Y007538D01*
X010792Y007538D01*
X010733Y007597D01*
X010601Y007597D01*
X010497Y007597D01*
X010245Y007849D01*
X010539Y007849D01*
X010610Y007919D01*
X010610Y008163D01*
X010817Y008163D01*
X010950Y008163D01*
X011082Y008296D01*
X011313Y008296D01*
X011383Y008366D01*
X011383Y008714D01*
X011313Y008784D01*
X010887Y008784D01*
X010817Y008714D01*
X010817Y008483D01*
X010578Y008483D01*
X010541Y008520D01*
X010610Y008589D01*
X010610Y008906D01*
X010832Y009128D01*
X011156Y009128D01*
X011136Y009080D01*
X011136Y008984D01*
X011172Y008896D01*
X011240Y008829D01*
X011166Y008912D02*
X010616Y008912D01*
X010694Y008990D02*
X011136Y008990D01*
X011136Y009069D02*
X010773Y009069D01*
X010858Y008755D02*
X010610Y008755D01*
X010610Y008676D02*
X010817Y008676D01*
X010817Y008598D02*
X010610Y008598D01*
X010542Y008519D02*
X010817Y008519D01*
X010883Y008323D02*
X011100Y008540D01*
X011070Y008284D02*
X011531Y008284D01*
X011531Y008362D02*
X011379Y008362D01*
X011383Y008441D02*
X011531Y008441D01*
X011531Y008519D02*
X011383Y008519D01*
X011383Y008598D02*
X011598Y008598D01*
X011564Y008676D02*
X011383Y008676D01*
X011342Y008755D02*
X011486Y008755D01*
X011435Y009032D02*
X011376Y009032D01*
X011435Y009032D02*
X011986Y008481D01*
X011848Y008264D01*
X011848Y008126D01*
X011531Y008126D02*
X010610Y008126D01*
X010610Y008048D02*
X011531Y008048D01*
X011560Y007969D02*
X010610Y007969D01*
X010581Y007891D02*
X011561Y007891D01*
X011531Y007812D02*
X011379Y007812D01*
X011383Y007734D02*
X011531Y007734D01*
X011531Y007655D02*
X011383Y007655D01*
X011423Y007577D02*
X011531Y007577D01*
X011531Y007498D02*
X011502Y007498D01*
X011848Y007595D02*
X011986Y007437D01*
X012813Y007437D01*
X013226Y007024D01*
X013639Y007024D01*
X013836Y007123D01*
X015509Y007123D01*
X015746Y006886D01*
X015923Y006886D01*
X016061Y006749D01*
X016297Y006749D01*
X016454Y006591D01*
X016769Y006591D01*
X017045Y006867D01*
X016750Y007123D02*
X016750Y007142D01*
X017163Y007556D01*
X017163Y007752D01*
X016907Y008008D01*
X016907Y008284D01*
X016771Y008420D01*
X016432Y008420D01*
X016432Y008224D02*
X016692Y008224D01*
X016750Y008166D01*
X016750Y007693D01*
X016868Y007575D01*
X016650Y007474D02*
X016664Y007439D01*
X016732Y007372D01*
X016747Y007366D01*
X016729Y007348D01*
X016679Y007399D01*
X016499Y007399D01*
X016497Y007401D01*
X016365Y007401D01*
X016299Y007401D01*
X016275Y007424D01*
X016187Y007461D01*
X016092Y007461D01*
X016003Y007424D01*
X015980Y007401D01*
X015891Y007401D01*
X015788Y007504D01*
X015694Y007597D01*
X015551Y007597D01*
X015551Y007861D01*
X015480Y007931D01*
X014948Y007931D01*
X014878Y007861D01*
X014878Y007440D01*
X014296Y007440D01*
X014213Y007523D01*
X014213Y007686D01*
X014213Y007819D01*
X013898Y008134D01*
X013804Y008227D01*
X013258Y008227D01*
X013219Y008188D01*
X013154Y008188D01*
X013115Y008227D01*
X012983Y008227D01*
X012722Y008227D01*
X012611Y008340D01*
X015575Y008340D01*
X015644Y008272D01*
X015939Y008272D01*
X015970Y008241D01*
X015970Y008169D01*
X015970Y008111D01*
X015934Y008111D01*
X015846Y008074D01*
X015837Y008065D01*
X015595Y008306D01*
X015463Y008306D01*
X014577Y008306D01*
X014545Y008275D01*
X014514Y008288D01*
X014418Y008288D01*
X014330Y008251D01*
X014263Y008184D01*
X014226Y008095D01*
X014226Y008000D01*
X014263Y007912D01*
X014330Y007844D01*
X014418Y007808D01*
X014514Y007808D01*
X014602Y007844D01*
X014670Y007912D01*
X014694Y007970D01*
X014710Y007986D01*
X015463Y007986D01*
X015566Y007883D01*
X015566Y007745D01*
X015660Y007651D01*
X015674Y007651D01*
X015842Y007483D01*
X015967Y007483D01*
X016176Y007483D01*
X016186Y007474D01*
X016650Y007474D01*
X016684Y007420D02*
X016280Y007420D01*
X016238Y007241D02*
X016139Y007221D01*
X016238Y007241D02*
X015824Y007241D01*
X015628Y007437D01*
X015391Y007437D01*
X015214Y007615D01*
X014878Y007577D02*
X014213Y007577D01*
X014213Y007655D02*
X014878Y007655D01*
X014878Y007734D02*
X014213Y007734D01*
X014213Y007812D02*
X014407Y007812D01*
X014525Y007812D02*
X014878Y007812D01*
X014907Y007891D02*
X014649Y007891D01*
X014693Y007969D02*
X015480Y007969D01*
X015521Y007891D02*
X015558Y007891D01*
X015551Y007812D02*
X015566Y007812D01*
X015577Y007734D02*
X015551Y007734D01*
X015551Y007655D02*
X015656Y007655D01*
X015715Y007577D02*
X015749Y007577D01*
X015793Y007498D02*
X015827Y007498D01*
X015872Y007420D02*
X015999Y007420D01*
X016238Y007241D02*
X016431Y007241D01*
X016432Y007239D01*
X016612Y006985D02*
X016750Y007123D01*
X016432Y007830D02*
X015983Y007830D01*
X015982Y007871D01*
X015970Y008126D02*
X015775Y008126D01*
X015696Y008205D02*
X015970Y008205D01*
X016234Y008028D02*
X016432Y008027D01*
X016432Y008617D02*
X016136Y008619D01*
X016096Y008575D01*
X015883Y008815D02*
X016414Y008815D01*
X016432Y008814D01*
X016431Y008815D01*
X016789Y008815D01*
X016887Y008717D01*
X017852Y008717D01*
X017970Y008599D01*
X018541Y008599D01*
X018561Y008619D01*
X018797Y008500D02*
X018600Y008304D01*
X017616Y008304D01*
X017576Y008264D01*
X017301Y008264D01*
X017557Y008008D02*
X017596Y008008D01*
X017734Y008146D01*
X018718Y008146D01*
X018954Y008382D01*
X018954Y008874D01*
X018915Y008914D01*
X018915Y009406D01*
X019072Y009563D01*
X019210Y009563D01*
X019722Y009997D01*
X020037Y009819D02*
X020293Y009563D01*
X020293Y009288D01*
X020214Y009209D01*
X019977Y009209D01*
X019975Y009208D01*
X019758Y009209D01*
X019975Y009405D02*
X019150Y009405D01*
X019072Y009327D01*
X019072Y009012D01*
X019151Y008934D01*
X019151Y008343D01*
X018797Y008500D02*
X018797Y008776D01*
X018757Y008815D01*
X018757Y009524D01*
X018893Y009659D01*
X018893Y010094D01*
X018895Y010096D01*
X018895Y010390D01*
X019191Y010686D01*
X019191Y011355D01*
X019527Y011347D02*
X020034Y011347D01*
X020034Y011425D02*
X019527Y011425D01*
X019527Y011504D02*
X020034Y011504D01*
X020034Y011543D02*
X020034Y011180D01*
X019527Y011180D01*
X019527Y011601D01*
X019457Y011672D01*
X018924Y011672D01*
X018765Y011672D01*
X018725Y011712D01*
X018572Y011865D01*
X018787Y011865D01*
X018858Y011935D01*
X018858Y012351D01*
X018981Y012474D01*
X019360Y012474D01*
X019493Y012474D01*
X019611Y012592D01*
X019705Y012686D01*
X019705Y012765D01*
X019750Y012810D01*
X020106Y012810D01*
X020177Y012880D01*
X020177Y013412D01*
X020106Y013483D01*
X019750Y013483D01*
X019370Y013862D01*
X019370Y014325D01*
X020106Y014325D01*
X020177Y014396D01*
X020177Y014810D01*
X020134Y014853D01*
X020177Y014896D01*
X020177Y015310D01*
X020106Y015380D01*
X019349Y015380D01*
X019279Y015310D01*
X019279Y015278D01*
X019192Y015365D01*
X019192Y015794D01*
X019122Y015865D01*
X018708Y015865D01*
X018637Y015794D01*
X018637Y015611D01*
X018572Y015611D01*
X018484Y015574D01*
X018440Y015531D01*
X017899Y015531D01*
X017756Y015673D01*
X017662Y015767D01*
X017190Y015767D01*
X017057Y015767D01*
X016939Y015649D01*
X016846Y015555D01*
X016846Y015338D01*
X016841Y015334D01*
X016462Y015334D01*
X016338Y015457D01*
X016338Y015775D01*
X016268Y015845D01*
X015766Y015845D01*
X015756Y015855D01*
X015184Y015855D01*
X015114Y015784D01*
X015114Y015496D01*
X015015Y015397D01*
X015015Y015265D01*
X015015Y015181D01*
X014803Y014969D01*
X014803Y015036D01*
X014732Y015107D01*
X014160Y015107D01*
X014092Y015038D01*
X013863Y015038D01*
X013731Y015038D01*
X013730Y015038D02*
X013632Y015038D01*
X013607Y015014D02*
X013701Y015107D01*
X013785Y015191D01*
X014161Y015191D01*
X014232Y015262D01*
X014232Y015398D01*
X014732Y015398D01*
X014803Y015468D01*
X014803Y015784D01*
X014732Y015855D01*
X014346Y015855D01*
X014331Y015870D01*
X014321Y015880D01*
X020194Y015880D01*
X020194Y014258D01*
X020192Y014256D01*
X020192Y014123D01*
X020192Y013218D01*
X020194Y013215D01*
X020194Y012805D01*
X020190Y012803D01*
X020095Y012708D01*
X020043Y012583D01*
X020043Y012449D01*
X020095Y012325D01*
X020115Y012304D01*
X020070Y012258D01*
X020033Y012170D01*
X020033Y012075D01*
X020055Y012023D01*
X020055Y011638D01*
X020034Y011618D01*
X020034Y011608D01*
X020028Y011600D01*
X020034Y011543D01*
X020030Y011582D02*
X019527Y011582D01*
X019467Y011661D02*
X020055Y011661D01*
X020055Y011739D02*
X018697Y011739D01*
X018619Y011818D02*
X020055Y011818D01*
X020055Y011897D02*
X018819Y011897D01*
X018858Y011975D02*
X020055Y011975D01*
X020042Y012054D02*
X018858Y012054D01*
X018858Y012132D02*
X020033Y012132D01*
X020050Y012211D02*
X018858Y012211D01*
X018858Y012289D02*
X020101Y012289D01*
X020077Y012368D02*
X018875Y012368D01*
X018953Y012446D02*
X020044Y012446D01*
X020043Y012525D02*
X019544Y012525D01*
X019622Y012603D02*
X020052Y012603D01*
X020084Y012682D02*
X019701Y012682D01*
X019705Y012761D02*
X020148Y012761D01*
X020136Y012839D02*
X020194Y012839D01*
X020194Y012918D02*
X020177Y012918D01*
X020177Y012996D02*
X020194Y012996D01*
X020194Y013075D02*
X020177Y013075D01*
X020177Y013153D02*
X020194Y013153D01*
X020192Y013232D02*
X020177Y013232D01*
X020177Y013310D02*
X020192Y013310D01*
X020192Y013389D02*
X020177Y013389D01*
X020192Y013467D02*
X020122Y013467D01*
X020192Y013546D02*
X019686Y013546D01*
X019608Y013624D02*
X020192Y013624D01*
X020192Y013703D02*
X019529Y013703D01*
X019451Y013782D02*
X020192Y013782D01*
X020192Y013860D02*
X019372Y013860D01*
X019370Y013939D02*
X020192Y013939D01*
X020192Y014017D02*
X019370Y014017D01*
X019370Y014096D02*
X020192Y014096D01*
X020192Y014174D02*
X019370Y014174D01*
X019370Y014253D02*
X020192Y014253D01*
X020194Y014331D02*
X020112Y014331D01*
X020177Y014410D02*
X020194Y014410D01*
X020194Y014488D02*
X020177Y014488D01*
X020177Y014567D02*
X020194Y014567D01*
X020194Y014646D02*
X020177Y014646D01*
X020177Y014724D02*
X020194Y014724D01*
X020194Y014803D02*
X020177Y014803D01*
X020162Y014881D02*
X020194Y014881D01*
X020194Y014960D02*
X020177Y014960D01*
X020177Y015038D02*
X020194Y015038D01*
X020194Y015117D02*
X020177Y015117D01*
X020177Y015195D02*
X020194Y015195D01*
X020194Y015274D02*
X020177Y015274D01*
X020194Y015352D02*
X020134Y015352D01*
X020194Y015431D02*
X019192Y015431D01*
X019192Y015510D02*
X020194Y015510D01*
X020194Y015588D02*
X019192Y015588D01*
X019192Y015667D02*
X020194Y015667D01*
X020194Y015745D02*
X019192Y015745D01*
X019163Y015824D02*
X020194Y015824D01*
X020352Y015824D02*
X021452Y015824D01*
X021452Y015853D02*
X021452Y015360D01*
X021523Y015290D01*
X021635Y015290D01*
X021708Y015216D01*
X021708Y014966D01*
X021779Y014896D01*
X022193Y014896D01*
X022263Y014966D01*
X022263Y015290D01*
X022724Y015290D01*
X022748Y015313D01*
X022748Y014173D01*
X022637Y014219D01*
X022637Y014593D01*
X022567Y014664D01*
X022396Y014664D01*
X022284Y014776D01*
X022178Y014881D01*
X022179Y014881D02*
X022748Y014881D01*
X022748Y014803D02*
X022257Y014803D01*
X022178Y014881D02*
X021301Y014881D01*
X020352Y014881D01*
X020352Y014803D02*
X021222Y014803D01*
X021196Y014776D02*
X021065Y014645D01*
X020553Y014645D01*
X020448Y014540D01*
X020352Y014444D01*
X020352Y015880D01*
X021479Y015880D01*
X021452Y015853D01*
X021452Y015745D02*
X020352Y015745D01*
X020352Y015667D02*
X021452Y015667D01*
X021452Y015588D02*
X020352Y015588D01*
X020352Y015510D02*
X021452Y015510D01*
X021452Y015431D02*
X020352Y015431D01*
X020352Y015352D02*
X021460Y015352D01*
X021651Y015274D02*
X020352Y015274D01*
X020352Y015195D02*
X021708Y015195D01*
X021708Y015117D02*
X020352Y015117D01*
X020352Y015038D02*
X021708Y015038D01*
X021715Y014960D02*
X020352Y014960D01*
X020352Y014724D02*
X021144Y014724D01*
X021196Y014776D02*
X021301Y014881D01*
X021065Y014646D02*
X020352Y014646D01*
X020352Y014567D02*
X020475Y014567D01*
X020396Y014488D02*
X020352Y014488D01*
X020411Y014249D02*
X020352Y014189D01*
X020352Y013284D01*
X020450Y013186D01*
X020450Y013107D01*
X020706Y013264D02*
X020519Y013451D01*
X020519Y014002D01*
X020765Y014249D01*
X021474Y014249D01*
X021612Y014367D01*
X022336Y014724D02*
X022748Y014724D01*
X022748Y014646D02*
X022585Y014646D01*
X022637Y014567D02*
X022748Y014567D01*
X022748Y014488D02*
X022637Y014488D01*
X022637Y014410D02*
X022748Y014410D01*
X022748Y014331D02*
X022637Y014331D01*
X022637Y014253D02*
X022748Y014253D01*
X022744Y014174D02*
X022748Y014174D01*
X022748Y014960D02*
X022256Y014960D01*
X022263Y015038D02*
X022748Y015038D01*
X022748Y015117D02*
X022263Y015117D01*
X022263Y015195D02*
X022748Y015195D01*
X022748Y015274D02*
X022263Y015274D01*
X022312Y013195D02*
X020919Y013195D01*
X020866Y013217D01*
X020866Y013198D01*
X020866Y012863D01*
X020857Y012854D01*
X020949Y012854D01*
X021073Y012803D01*
X021131Y012744D01*
X021190Y012803D01*
X021314Y012854D01*
X021449Y012854D01*
X021573Y012803D01*
X021631Y012744D01*
X021690Y012803D01*
X021814Y012854D01*
X021949Y012854D01*
X022073Y012803D01*
X022131Y012744D01*
X022190Y012803D01*
X022314Y012854D01*
X022449Y012854D01*
X022573Y012803D01*
X022668Y012708D01*
X022720Y012583D01*
X022720Y012449D01*
X022695Y012389D01*
X022697Y012386D01*
X022736Y012346D01*
X022736Y012335D01*
X022743Y012326D01*
X022743Y012320D01*
X022850Y012213D01*
X022850Y012362D01*
X022794Y012418D01*
X022716Y012607D01*
X022716Y012811D01*
X022716Y013066D01*
X022553Y013066D01*
X022364Y013144D01*
X022312Y013195D01*
X022355Y013153D02*
X020866Y013153D01*
X020866Y013075D02*
X022531Y013075D01*
X022716Y012996D02*
X020866Y012996D01*
X020866Y012918D02*
X022716Y012918D01*
X022716Y012839D02*
X022486Y012839D01*
X022615Y012761D02*
X022716Y012761D01*
X022716Y012682D02*
X022679Y012682D01*
X022711Y012603D02*
X022718Y012603D01*
X022720Y012525D02*
X022750Y012525D01*
X022718Y012446D02*
X022783Y012446D01*
X022845Y012368D02*
X022715Y012368D01*
X022774Y012289D02*
X022850Y012289D01*
X022576Y012280D02*
X022576Y012260D01*
X023187Y011650D01*
X024446Y011650D01*
X024584Y011512D01*
X024584Y011237D01*
X024476Y011128D01*
X024476Y010656D01*
X024545Y010587D01*
X024545Y010371D01*
X024407Y010233D01*
X024250Y010233D01*
X024250Y009721D01*
X024309Y009603D01*
X024545Y009563D02*
X024761Y009780D01*
X025030Y009780D01*
X025122Y009873D01*
X024826Y009619D02*
X025901Y009619D01*
X025901Y009697D02*
X025672Y009697D01*
X025677Y009776D02*
X025901Y009776D01*
X025901Y009854D02*
X025677Y009854D01*
X025677Y009933D02*
X025901Y009933D01*
X025901Y010011D02*
X025677Y010011D01*
X025629Y010090D02*
X025901Y010090D01*
X025901Y010169D02*
X025643Y010169D01*
X025677Y010247D02*
X025901Y010247D01*
X025901Y010326D02*
X025677Y010326D01*
X025677Y010404D02*
X025901Y010404D01*
X025901Y010483D02*
X025772Y010483D01*
X025787Y010561D02*
X025901Y010561D01*
X025901Y010640D02*
X025787Y010640D01*
X025787Y010718D02*
X025901Y010718D01*
X025901Y010797D02*
X025787Y010797D01*
X025787Y010875D02*
X025901Y010875D01*
X025901Y010954D02*
X025787Y010954D01*
X025785Y011033D02*
X025901Y011033D01*
X025901Y011111D02*
X025147Y011111D01*
X025147Y011033D02*
X025155Y011033D01*
X025147Y010954D02*
X025153Y010954D01*
X025147Y010875D02*
X025153Y010875D01*
X025147Y010797D02*
X025153Y010797D01*
X025147Y010718D02*
X025153Y010718D01*
X025153Y010640D02*
X025131Y010640D01*
X025122Y010373D02*
X024801Y010379D01*
X024817Y010427D01*
X024781Y010313D01*
X024486Y010016D01*
X024545Y009563D02*
X024545Y009229D01*
X024368Y009052D01*
X024368Y008993D01*
X024348Y008973D01*
X024348Y008658D01*
X024584Y008422D01*
X024584Y007713D01*
X024624Y007674D01*
X024624Y007319D01*
X024348Y007044D01*
X024328Y007044D01*
X024328Y005607D01*
X024171Y005390D01*
X023681Y005377D02*
X023661Y005377D01*
X023661Y005299D02*
X023681Y005299D01*
X023711Y005220D02*
X023631Y005220D01*
X023598Y005142D02*
X023743Y005142D01*
X023805Y005063D02*
X023537Y005063D01*
X023458Y004985D02*
X023883Y004985D01*
X024059Y004906D02*
X023283Y004906D01*
X023059Y004906D02*
X022283Y004906D01*
X022458Y004985D02*
X022883Y004985D01*
X022805Y005063D02*
X022537Y005063D01*
X022598Y005142D02*
X022743Y005142D01*
X022711Y005220D02*
X022631Y005220D01*
X022661Y005299D02*
X022681Y005299D01*
X022681Y005377D02*
X022661Y005377D01*
X022661Y005456D02*
X022681Y005456D01*
X022700Y005535D02*
X022641Y005535D01*
X022612Y005613D02*
X022733Y005613D01*
X022691Y005692D02*
X022779Y005692D01*
X022769Y005770D02*
X022858Y005770D01*
X022848Y005849D02*
X022997Y005849D01*
X022926Y005927D02*
X023084Y005927D01*
X023083Y006006D02*
X023005Y006006D01*
X022788Y006241D02*
X022586Y006241D01*
X022640Y006320D02*
X022866Y006320D01*
X022945Y006399D02*
X022659Y006399D01*
X022652Y006477D02*
X023024Y006477D01*
X023102Y006556D02*
X022617Y006556D01*
X022514Y006634D02*
X023164Y006634D01*
X023164Y006713D02*
X021699Y006713D01*
X021765Y006791D02*
X023164Y006791D01*
X023164Y006870D02*
X021793Y006870D01*
X021783Y006556D02*
X020580Y006556D01*
X020551Y006477D02*
X021705Y006477D01*
X021626Y006399D02*
X020551Y006399D01*
X020551Y006320D02*
X021548Y006320D01*
X021469Y006241D02*
X020551Y006241D01*
X020487Y006163D02*
X021391Y006163D01*
X021312Y006084D02*
X020694Y006084D01*
X020708Y006006D02*
X021233Y006006D01*
X021155Y005927D02*
X020708Y005927D01*
X020708Y005849D02*
X020997Y005849D01*
X020858Y005770D02*
X020708Y005770D01*
X020708Y005692D02*
X020779Y005692D01*
X020733Y005613D02*
X020708Y005613D01*
X020681Y005456D02*
X019971Y005456D01*
X019520Y005456D02*
X018695Y005456D01*
X018721Y005535D02*
X019442Y005535D01*
X019400Y005613D02*
X018721Y005613D01*
X018721Y005692D02*
X019368Y005692D01*
X019368Y005770D02*
X018721Y005770D01*
X018721Y005849D02*
X019372Y005849D01*
X019405Y005927D02*
X018721Y005927D01*
X018703Y006006D02*
X019453Y006006D01*
X019502Y006084D02*
X018624Y006084D01*
X018546Y006163D02*
X019502Y006163D01*
X019474Y006241D02*
X019383Y006241D01*
X019189Y006241D02*
X018990Y006241D01*
X019052Y006320D02*
X019127Y006320D01*
X019127Y006399D02*
X019052Y006399D01*
X019052Y006477D02*
X019127Y006477D01*
X019127Y006484D02*
X019127Y006484D01*
X019127Y006556D02*
X019053Y006556D01*
X019053Y006634D02*
X019127Y006634D01*
X019127Y006713D02*
X019053Y006713D01*
X019053Y006791D02*
X019127Y006791D01*
X019053Y006870D02*
X020328Y006870D01*
X020369Y006910D02*
X020369Y006910D01*
X020407Y006948D02*
X019053Y006948D01*
X019214Y007262D02*
X019277Y007262D01*
X019494Y007498D02*
X019659Y007498D01*
X019659Y007420D02*
X019572Y007420D01*
X019659Y007577D02*
X019415Y007577D01*
X019337Y007655D02*
X019659Y007655D01*
X019975Y007633D02*
X020411Y007634D01*
X020607Y007830D01*
X021121Y007830D01*
X021376Y007871D01*
X021474Y007792D01*
X021612Y007792D01*
X022025Y007378D01*
X022025Y007260D01*
X021689Y007262D02*
X021062Y007262D01*
X021062Y007184D02*
X021689Y007184D01*
X021689Y007341D02*
X021062Y007341D01*
X021062Y007420D02*
X021689Y007420D01*
X021679Y007498D02*
X021062Y007498D01*
X021062Y007577D02*
X021601Y007577D01*
X021896Y007734D02*
X023558Y007734D01*
X023558Y007812D02*
X022353Y007812D01*
X022362Y007891D02*
X023558Y007891D01*
X023558Y007655D02*
X021975Y007655D01*
X022292Y007577D02*
X023558Y007577D01*
X023558Y007498D02*
X022362Y007498D01*
X022362Y007420D02*
X023558Y007420D01*
X023558Y007341D02*
X022362Y007341D01*
X022362Y007262D02*
X023543Y007262D01*
X023465Y007184D02*
X022362Y007184D01*
X022362Y007105D02*
X023386Y007105D01*
X023308Y007027D02*
X022362Y007027D01*
X022296Y006948D02*
X023227Y006948D01*
X023324Y006819D02*
X023324Y006817D01*
X023324Y006552D01*
X022301Y005528D01*
X022171Y005390D01*
X021681Y005377D02*
X021661Y005377D01*
X021661Y005299D02*
X021681Y005299D01*
X021711Y005220D02*
X021631Y005220D01*
X021598Y005142D02*
X021743Y005142D01*
X021805Y005063D02*
X021537Y005063D01*
X021458Y004985D02*
X021883Y004985D01*
X022059Y004906D02*
X021283Y004906D01*
X021059Y004906D02*
X015173Y004906D01*
X015251Y004985D02*
X020883Y004985D01*
X020711Y005220D02*
X018460Y005220D01*
X018538Y005299D02*
X020681Y005299D01*
X020681Y005377D02*
X018617Y005377D01*
X018596Y006241D02*
X018599Y006241D01*
X018793Y006241D02*
X018796Y006241D01*
X019446Y006713D02*
X019878Y006713D01*
X020250Y006791D02*
X019446Y006791D01*
X019902Y006163D02*
X019941Y006163D01*
X021179Y005725D02*
X021171Y005390D01*
X021609Y005613D02*
X021733Y005613D01*
X021700Y005535D02*
X021641Y005535D01*
X021661Y005456D02*
X021681Y005456D01*
X021779Y005692D02*
X021562Y005692D01*
X021484Y005770D02*
X021858Y005770D01*
X021997Y005849D02*
X021529Y005849D01*
X021607Y005927D02*
X022474Y005927D01*
X022395Y005849D02*
X022344Y005849D01*
X022552Y006006D02*
X021686Y006006D01*
X021764Y006084D02*
X022631Y006084D01*
X022709Y006163D02*
X021843Y006163D01*
X021921Y006241D02*
X022252Y006241D01*
X022419Y006414D02*
X021868Y006414D01*
X021179Y005725D01*
X021564Y006634D02*
X022324Y006634D01*
X023242Y006233D02*
X023498Y006508D01*
X023502Y006749D01*
X023876Y007119D01*
X023876Y007162D01*
X023878Y008636D01*
X023720Y008794D01*
X023128Y008796D01*
X023062Y008873D01*
X022596Y008619D02*
X023620Y008619D01*
X023718Y008520D01*
X023718Y007211D01*
X023324Y006817D01*
X023660Y006634D02*
X023893Y006634D01*
X023893Y006556D02*
X023658Y006556D01*
X023659Y006477D02*
X023893Y006477D01*
X023893Y006399D02*
X023614Y006399D01*
X023541Y006320D02*
X023836Y006320D01*
X023813Y006241D02*
X023468Y006241D01*
X023402Y006163D02*
X023815Y006163D01*
X023848Y006084D02*
X023403Y006084D01*
X023403Y006006D02*
X023935Y006006D01*
X023997Y005849D02*
X023404Y005849D01*
X023404Y005927D02*
X024168Y005927D01*
X024053Y006217D02*
X024053Y008008D01*
X024072Y008028D01*
X024250Y008028D01*
X024053Y008008D02*
X024053Y008934D01*
X023600Y009386D01*
X022931Y009386D01*
X023048Y009367D01*
X023062Y009373D01*
X023062Y009873D01*
X023062Y010373D02*
X022637Y010373D01*
X022498Y010233D01*
X022498Y008717D01*
X022596Y008619D01*
X022517Y008461D02*
X022970Y008461D01*
X023147Y008457D01*
X023352Y008260D01*
X023035Y008284D02*
X022362Y008284D01*
X022362Y008205D02*
X023035Y008205D01*
X023035Y008126D02*
X022362Y008126D01*
X022362Y008048D02*
X023035Y008048D01*
X023060Y007969D02*
X022362Y007969D01*
X022025Y008067D02*
X021868Y008067D01*
X021868Y008126D01*
X021435Y008560D01*
X021376Y008500D01*
X021297Y008500D01*
X021198Y008500D01*
X021179Y008540D01*
X021297Y008500D02*
X020962Y008166D01*
X020962Y008008D01*
X020529Y008008D01*
X020370Y007830D01*
X019975Y007830D01*
X019975Y008027D02*
X019977Y008028D01*
X020313Y008028D01*
X020450Y008166D01*
X020805Y008166D01*
X020805Y008225D01*
X020962Y008382D01*
X020962Y008717D01*
X021100Y008855D01*
X021100Y009465D01*
X021198Y009563D01*
X021848Y009563D01*
X022006Y009406D01*
X022015Y009042D01*
X022114Y008825D01*
X022517Y008461D01*
X022388Y008362D02*
X022314Y008362D01*
X022301Y008441D02*
X021781Y008441D01*
X021781Y008519D02*
X022214Y008519D01*
X022127Y008598D02*
X021781Y008598D01*
X021781Y008676D02*
X022040Y008676D01*
X021837Y008755D02*
X021734Y008755D01*
X021787Y008833D02*
X021260Y008833D01*
X021260Y008912D02*
X021787Y008912D01*
X021787Y008990D02*
X021260Y008990D01*
X021260Y009069D02*
X021787Y009069D01*
X021787Y009148D02*
X021260Y009148D01*
X021260Y009226D02*
X021787Y009226D01*
X021787Y009305D02*
X021260Y009305D01*
X021260Y009383D02*
X021787Y009383D01*
X022019Y009619D02*
X022338Y009619D01*
X022338Y009697D02*
X021940Y009697D01*
X021914Y009723D02*
X022112Y009526D01*
X022338Y009526D01*
X022338Y010299D01*
X022431Y010393D01*
X022507Y010469D01*
X022507Y010542D01*
X022577Y010612D01*
X023067Y010612D01*
X023067Y011037D01*
X022943Y011037D01*
X022746Y011234D01*
X022072Y011234D01*
X021939Y011234D01*
X021880Y011293D01*
X021786Y011387D01*
X021786Y011412D01*
X021521Y011412D01*
X021442Y011333D01*
X021309Y011333D01*
X021171Y011333D01*
X021182Y011304D01*
X021182Y011209D01*
X021146Y011120D01*
X021078Y011053D01*
X020990Y011016D01*
X020895Y011016D01*
X020807Y011053D01*
X020763Y011096D01*
X020714Y011096D01*
X020669Y011052D01*
X020669Y010895D01*
X020667Y010892D01*
X020667Y010510D01*
X020964Y010510D01*
X020995Y010585D01*
X021062Y010653D01*
X021151Y010689D01*
X021216Y010689D01*
X021216Y011030D01*
X021286Y011101D01*
X021819Y011101D01*
X021889Y011030D01*
X021889Y010537D01*
X021819Y010467D01*
X021673Y010467D01*
X021673Y010392D01*
X021799Y010392D01*
X021870Y010322D01*
X021870Y009723D01*
X021914Y009723D01*
X021870Y009776D02*
X022338Y009776D01*
X022338Y009854D02*
X021870Y009854D01*
X021870Y009933D02*
X022338Y009933D01*
X022338Y010011D02*
X021870Y010011D01*
X021870Y010090D02*
X022338Y010090D01*
X022338Y010169D02*
X021870Y010169D01*
X021870Y010247D02*
X022338Y010247D01*
X022364Y010326D02*
X021866Y010326D01*
X021835Y010483D02*
X022507Y010483D01*
X022526Y010561D02*
X021889Y010561D01*
X021889Y010640D02*
X023067Y010640D01*
X023067Y010718D02*
X021889Y010718D01*
X021889Y010797D02*
X023067Y010797D01*
X023067Y010875D02*
X021889Y010875D01*
X021889Y010954D02*
X023067Y010954D01*
X023067Y011033D02*
X021887Y011033D01*
X021905Y011268D02*
X021182Y011268D01*
X021175Y011190D02*
X022791Y011190D01*
X022869Y011111D02*
X021137Y011111D01*
X021218Y011033D02*
X021029Y011033D01*
X020856Y011033D02*
X020669Y011033D01*
X020669Y010954D02*
X021216Y010954D01*
X021216Y010875D02*
X020667Y010875D01*
X020667Y010797D02*
X021216Y010797D01*
X021216Y010718D02*
X020667Y010718D01*
X020667Y010640D02*
X021050Y010640D01*
X020985Y010561D02*
X020667Y010561D01*
X020509Y010561D02*
X020354Y010561D01*
X020354Y010580D02*
X020509Y010735D01*
X020509Y009918D01*
X020625Y009819D01*
X020625Y009079D01*
X020581Y009034D01*
X020487Y008941D01*
X020487Y008774D01*
X020411Y008697D01*
X020264Y008697D01*
X020292Y008725D01*
X020292Y008851D01*
X020319Y008851D01*
X020517Y009049D01*
X020610Y009143D01*
X020610Y009576D01*
X020610Y009708D01*
X020354Y009964D01*
X020354Y010580D01*
X020414Y010640D02*
X020509Y010640D01*
X020509Y010718D02*
X020493Y010718D01*
X020509Y010483D02*
X020354Y010483D01*
X020354Y010404D02*
X020509Y010404D01*
X020509Y010326D02*
X020354Y010326D01*
X020354Y010247D02*
X020509Y010247D01*
X020509Y010169D02*
X020354Y010169D01*
X020354Y010090D02*
X020509Y010090D01*
X020509Y010011D02*
X020354Y010011D01*
X020386Y009933D02*
X020509Y009933D01*
X020464Y009854D02*
X020583Y009854D01*
X020543Y009776D02*
X020625Y009776D01*
X020625Y009697D02*
X020610Y009697D01*
X020610Y009619D02*
X020625Y009619D01*
X020625Y009540D02*
X020610Y009540D01*
X020610Y009462D02*
X020625Y009462D01*
X020625Y009383D02*
X020610Y009383D01*
X020610Y009305D02*
X020625Y009305D01*
X020625Y009226D02*
X020610Y009226D01*
X020610Y009148D02*
X020625Y009148D01*
X020615Y009069D02*
X020536Y009069D01*
X020537Y008990D02*
X020458Y008990D01*
X020487Y008912D02*
X020379Y008912D01*
X020372Y008796D02*
X020193Y008617D01*
X019975Y008617D01*
X019977Y008422D02*
X019975Y008420D01*
X019977Y008422D02*
X020254Y008422D01*
X020332Y008500D01*
X020647Y008500D01*
X020647Y008874D01*
X020785Y009012D01*
X020785Y009957D01*
X020726Y010016D01*
X020750Y010079D01*
X020864Y010174D01*
X020927Y010174D02*
X020710Y009977D01*
X020750Y010079D01*
X020927Y010174D02*
X021198Y010449D01*
X021513Y010595D02*
X021553Y010784D01*
X021513Y010595D02*
X021513Y009997D01*
X021297Y009760D01*
X021179Y009760D01*
X020943Y009524D01*
X020943Y008934D01*
X020805Y008796D01*
X020805Y008441D01*
X020687Y008323D01*
X020391Y008323D01*
X020293Y008225D01*
X019977Y008225D01*
X019975Y008224D01*
X019764Y008229D01*
X019586Y008814D02*
X019328Y009071D01*
X019328Y009170D01*
X019586Y008814D02*
X019975Y008814D01*
X019975Y009011D02*
X020252Y009011D01*
X020450Y009209D01*
X020450Y009642D01*
X020194Y009898D01*
X020194Y010646D01*
X020509Y010961D01*
X020509Y011119D01*
X020647Y011256D01*
X020943Y011256D01*
X020726Y011453D02*
X020765Y011493D01*
X021376Y011493D01*
X021612Y011729D01*
X021533Y011808D01*
X021533Y012063D01*
X021454Y012142D01*
X021218Y012142D01*
X020881Y012479D01*
X020881Y012516D01*
X020631Y012288D02*
X020690Y012230D01*
X020814Y012178D01*
X020949Y012178D01*
X020954Y012180D01*
X021058Y012076D01*
X021152Y011982D01*
X021282Y011982D01*
X021275Y011975D01*
X020728Y011975D01*
X020728Y011897D02*
X021275Y011897D01*
X021275Y011975D02*
X021275Y011653D01*
X020728Y011653D01*
X020728Y012054D01*
X020658Y012124D01*
X020513Y012124D01*
X020513Y012170D01*
X020501Y012200D01*
X020573Y012230D01*
X020631Y012288D01*
X020527Y012211D02*
X020735Y012211D01*
X020728Y012054D02*
X021080Y012054D01*
X021002Y012132D02*
X020513Y012132D01*
X020273Y012123D02*
X020273Y011926D01*
X020391Y011808D01*
X020273Y011650D02*
X020273Y012123D01*
X020381Y012516D02*
X020381Y012605D01*
X020706Y012930D01*
X020706Y013264D01*
X020986Y012839D02*
X021277Y012839D01*
X021148Y012761D02*
X021115Y012761D01*
X021381Y012516D02*
X021815Y012083D01*
X021828Y012083D01*
X021946Y011965D01*
X021946Y011453D01*
X022006Y011394D01*
X022813Y011394D01*
X023009Y011197D01*
X023403Y011197D01*
X023482Y011434D02*
X023167Y011434D01*
X022537Y012063D01*
X022242Y012063D01*
X021881Y012424D01*
X021881Y012516D01*
X021648Y012761D02*
X021615Y012761D01*
X021486Y012839D02*
X021777Y012839D01*
X021986Y012839D02*
X022277Y012839D01*
X022148Y012761D02*
X022115Y012761D01*
X022374Y012542D02*
X022374Y012524D01*
X022381Y012516D01*
X022374Y012542D02*
X022576Y012280D01*
X023166Y011897D02*
X025901Y011897D01*
X025901Y011975D02*
X025767Y011975D01*
X025767Y012054D02*
X025901Y012054D01*
X025901Y012132D02*
X025767Y012132D01*
X025767Y012211D02*
X025901Y012211D01*
X025901Y012289D02*
X025767Y012289D01*
X025767Y012368D02*
X025901Y012368D01*
X025901Y012446D02*
X025767Y012446D01*
X025767Y012525D02*
X025901Y012525D01*
X025901Y012603D02*
X025767Y012603D01*
X025767Y012682D02*
X025901Y012682D01*
X025901Y012761D02*
X025767Y012761D01*
X025767Y012839D02*
X025901Y012839D01*
X025901Y012918D02*
X025767Y012918D01*
X025767Y012996D02*
X025901Y012996D01*
X025901Y013075D02*
X025711Y013075D01*
X025901Y013153D02*
X025182Y013153D01*
X025048Y013232D02*
X025901Y013232D01*
X025901Y013310D02*
X024969Y013310D01*
X024891Y013389D02*
X025901Y013389D01*
X025948Y013467D02*
X024812Y013467D01*
X024744Y013546D02*
X026002Y013546D01*
X026002Y013624D02*
X024744Y013624D01*
X024744Y013703D02*
X026002Y013703D01*
X026002Y013782D02*
X024744Y013782D01*
X024744Y013860D02*
X026002Y013860D01*
X026002Y013939D02*
X024744Y013939D01*
X024744Y014017D02*
X026002Y014017D01*
X026002Y014096D02*
X024744Y014096D01*
X024744Y014174D02*
X026002Y014174D01*
X026002Y014253D02*
X024744Y014253D01*
X024744Y014331D02*
X026002Y014331D01*
X026002Y014410D02*
X024744Y014410D01*
X024744Y014488D02*
X026002Y014488D01*
X026002Y014567D02*
X024726Y014567D01*
X024693Y014646D02*
X026002Y014646D01*
X026002Y014724D02*
X024654Y014724D01*
X024641Y014803D02*
X026002Y014803D01*
X026002Y014881D02*
X024641Y014881D01*
X024641Y014960D02*
X026002Y014960D01*
X026002Y015038D02*
X024641Y015038D01*
X024641Y015117D02*
X026002Y015117D01*
X026002Y015195D02*
X024641Y015195D01*
X024641Y015274D02*
X026002Y015274D01*
X026002Y015510D02*
X025922Y015510D01*
X025927Y015588D02*
X026002Y015588D01*
X026002Y015667D02*
X025905Y015667D01*
X025848Y015745D02*
X026002Y015745D01*
X026002Y015824D02*
X025570Y015824D01*
X025431Y015431D02*
X024641Y015431D01*
X024641Y015352D02*
X025578Y015352D01*
X024829Y015510D02*
X024641Y015510D01*
X024641Y015588D02*
X024819Y015588D01*
X024819Y015667D02*
X024641Y015667D01*
X024641Y015745D02*
X024819Y015745D01*
X024819Y015824D02*
X024641Y015824D01*
X024066Y012761D02*
X024035Y012761D01*
X024035Y012682D02*
X024145Y012682D01*
X024223Y012603D02*
X024035Y012603D01*
X024035Y012525D02*
X024302Y012525D01*
X024380Y012446D02*
X024035Y012446D01*
X024035Y012368D02*
X024459Y012368D01*
X024537Y012289D02*
X024035Y012289D01*
X024035Y012211D02*
X024582Y012211D01*
X024582Y012132D02*
X024035Y012132D01*
X024035Y012054D02*
X024582Y012054D01*
X024582Y011975D02*
X024035Y011975D01*
X024380Y011490D02*
X023652Y011490D01*
X023917Y011224D01*
X023917Y011092D01*
X023917Y010771D01*
X024060Y010629D01*
X024129Y010629D01*
X024173Y010672D01*
X024261Y010709D01*
X024316Y010709D01*
X024316Y011062D01*
X024316Y011195D01*
X024424Y011303D01*
X024424Y011446D01*
X024380Y011490D01*
X024424Y011425D02*
X023716Y011425D01*
X023795Y011347D02*
X024424Y011347D01*
X024390Y011268D02*
X023873Y011268D01*
X023917Y011190D02*
X024316Y011190D01*
X024316Y011111D02*
X023917Y011111D01*
X023917Y011033D02*
X024316Y011033D01*
X024316Y010954D02*
X023917Y010954D01*
X023917Y010875D02*
X024316Y010875D01*
X024316Y010797D02*
X023917Y010797D01*
X023971Y010718D02*
X024316Y010718D01*
X024140Y010640D02*
X024049Y010640D01*
X023994Y010469D02*
X024309Y010469D01*
X023994Y010469D02*
X023757Y010705D01*
X023757Y011158D01*
X023482Y011434D01*
X023245Y011818D02*
X025901Y011818D01*
X025901Y011739D02*
X024583Y011739D01*
X024662Y011661D02*
X025901Y011661D01*
X025901Y011582D02*
X024740Y011582D01*
X024744Y011504D02*
X025901Y011504D01*
X025901Y011425D02*
X024744Y011425D01*
X024744Y011347D02*
X025901Y011347D01*
X025901Y011268D02*
X024744Y011268D01*
X024811Y010902D02*
X024817Y010427D01*
X025122Y010373D02*
X025450Y010425D01*
X025470Y010764D01*
X025106Y011190D02*
X025901Y011190D01*
X025901Y009540D02*
X025677Y009540D01*
X025677Y009462D02*
X025901Y009462D01*
X025901Y009383D02*
X025677Y009383D01*
X025677Y009305D02*
X025901Y009305D01*
X025901Y009226D02*
X025677Y009226D01*
X025622Y009148D02*
X025901Y009148D01*
X025901Y009069D02*
X024828Y009069D01*
X024749Y008990D02*
X025901Y008990D01*
X025901Y008912D02*
X024705Y008912D01*
X024705Y008833D02*
X025901Y008833D01*
X025901Y008755D02*
X024753Y008755D01*
X024722Y008560D02*
X025293Y008560D01*
X025431Y008422D01*
X025431Y007339D01*
X025096Y007004D01*
X025092Y007146D01*
X025092Y007008D01*
X025155Y006945D01*
X025155Y005414D01*
X025171Y005390D01*
X025537Y005063D02*
X026002Y005063D01*
X026002Y004985D02*
X025458Y004985D01*
X025283Y004906D02*
X026002Y004906D01*
X026002Y005142D02*
X025598Y005142D01*
X025631Y005220D02*
X026002Y005220D01*
X026002Y005299D02*
X025661Y005299D01*
X025661Y005377D02*
X026002Y005377D01*
X026002Y005456D02*
X025661Y005456D01*
X025641Y005535D02*
X026002Y005535D01*
X026002Y005613D02*
X025609Y005613D01*
X025562Y005692D02*
X026002Y005692D01*
X026002Y005770D02*
X025484Y005770D01*
X025344Y005849D02*
X026002Y005849D01*
X026002Y005927D02*
X025315Y005927D01*
X025315Y006006D02*
X026002Y006006D01*
X026002Y006084D02*
X025315Y006084D01*
X025315Y006163D02*
X026002Y006163D01*
X026002Y006241D02*
X025315Y006241D01*
X025315Y006320D02*
X026002Y006320D01*
X026002Y006399D02*
X025315Y006399D01*
X025315Y006477D02*
X026002Y006477D01*
X026002Y006556D02*
X025315Y006556D01*
X025315Y006634D02*
X026002Y006634D01*
X026002Y006713D02*
X025387Y006713D01*
X025433Y006791D02*
X026002Y006791D01*
X026002Y006870D02*
X025433Y006870D01*
X025433Y006948D02*
X026002Y006948D01*
X026002Y007027D02*
X025433Y007027D01*
X025433Y007105D02*
X026002Y007105D01*
X026002Y007184D02*
X025502Y007184D01*
X025580Y007262D02*
X025979Y007262D01*
X025901Y007341D02*
X025591Y007341D01*
X025591Y007420D02*
X025901Y007420D01*
X025901Y007498D02*
X025591Y007498D01*
X025591Y007577D02*
X025901Y007577D01*
X025901Y007655D02*
X025591Y007655D01*
X025591Y007734D02*
X025901Y007734D01*
X025901Y007812D02*
X025591Y007812D01*
X025591Y007891D02*
X025901Y007891D01*
X025901Y007969D02*
X025591Y007969D01*
X025591Y008048D02*
X025901Y008048D01*
X025901Y008126D02*
X025591Y008126D01*
X025591Y008205D02*
X025901Y008205D01*
X025901Y008284D02*
X025591Y008284D01*
X025591Y008362D02*
X025901Y008362D01*
X025901Y008441D02*
X025591Y008441D01*
X025559Y008519D02*
X025901Y008519D01*
X025901Y008598D02*
X025481Y008598D01*
X025402Y008676D02*
X025901Y008676D01*
X025271Y008355D02*
X025271Y007405D01*
X025187Y007321D01*
X024830Y007321D01*
X024784Y007275D01*
X024784Y007607D01*
X024784Y007740D01*
X024744Y007779D01*
X024744Y008355D01*
X024744Y008400D01*
X025227Y008400D01*
X025271Y008355D01*
X025264Y008362D02*
X024744Y008362D01*
X024744Y008284D02*
X025271Y008284D01*
X025271Y008205D02*
X024744Y008205D01*
X024744Y008126D02*
X025271Y008126D01*
X025271Y008048D02*
X024744Y008048D01*
X024744Y007969D02*
X025271Y007969D01*
X025271Y007891D02*
X024744Y007891D01*
X024744Y007812D02*
X025271Y007812D01*
X025271Y007734D02*
X024784Y007734D01*
X024784Y007655D02*
X025271Y007655D01*
X025271Y007577D02*
X024784Y007577D01*
X024784Y007498D02*
X025271Y007498D01*
X025271Y007420D02*
X024784Y007420D01*
X024784Y007341D02*
X025206Y007341D01*
X024805Y006713D02*
X024718Y006713D01*
X024488Y006634D02*
X024995Y006634D01*
X024995Y006556D02*
X024488Y006556D01*
X024488Y006477D02*
X024995Y006477D01*
X024995Y006399D02*
X024488Y006399D01*
X024488Y006320D02*
X024995Y006320D01*
X024995Y006241D02*
X024488Y006241D01*
X024488Y006163D02*
X024995Y006163D01*
X024995Y006084D02*
X024488Y006084D01*
X024488Y006006D02*
X024995Y006006D01*
X024995Y005927D02*
X024488Y005927D01*
X024488Y005849D02*
X024995Y005849D01*
X024858Y005770D02*
X024488Y005770D01*
X024562Y005692D02*
X024779Y005692D01*
X024733Y005613D02*
X024609Y005613D01*
X024641Y005535D02*
X024700Y005535D01*
X024681Y005456D02*
X024661Y005456D01*
X024661Y005377D02*
X024681Y005377D01*
X024681Y005299D02*
X024661Y005299D01*
X024631Y005220D02*
X024711Y005220D01*
X024743Y005142D02*
X024598Y005142D01*
X024537Y005063D02*
X024805Y005063D01*
X024883Y004985D02*
X024458Y004985D01*
X024283Y004906D02*
X025059Y004906D01*
X023858Y005770D02*
X023484Y005770D01*
X023562Y005692D02*
X023779Y005692D01*
X023733Y005613D02*
X023609Y005613D01*
X023641Y005535D02*
X023700Y005535D01*
X023681Y005456D02*
X023661Y005456D01*
X023246Y005626D02*
X023242Y006233D01*
X023693Y006713D02*
X023893Y006713D01*
X023893Y006791D02*
X023772Y006791D01*
X023851Y006870D02*
X023893Y006870D01*
X024328Y007044D02*
X024427Y007004D01*
X024722Y008560D02*
X024545Y008737D01*
X024545Y009012D01*
X024722Y009189D01*
X024722Y009347D01*
X024782Y009367D01*
X025122Y009373D01*
X024171Y009386D02*
X024171Y009170D01*
X024171Y009386D02*
X023639Y009918D01*
X023639Y010587D01*
X023443Y010784D01*
X023403Y010804D01*
X022443Y010404D02*
X021673Y010404D01*
X021513Y009997D02*
X021395Y009859D01*
X022097Y009540D02*
X022338Y009540D01*
X022143Y009130D02*
X021966Y009091D01*
X022015Y009042D01*
X020487Y008833D02*
X020292Y008833D01*
X020292Y008755D02*
X020469Y008755D01*
X020037Y009819D02*
X020037Y010725D01*
X020352Y011040D01*
X020352Y011217D01*
X020588Y011453D01*
X020726Y011453D01*
X020728Y011661D02*
X021275Y011661D01*
X021275Y011739D02*
X020728Y011739D01*
X020728Y011818D02*
X021275Y011818D01*
X021456Y011347D02*
X021827Y011347D01*
X020273Y011650D02*
X020194Y011552D01*
X020194Y011099D01*
X020116Y011020D01*
X019486Y011020D01*
X019407Y010941D01*
X019407Y010626D01*
X019092Y010311D01*
X019092Y010096D01*
X019090Y010094D01*
X019286Y010094D02*
X019286Y010250D01*
X019289Y010233D01*
X019722Y010666D01*
X019527Y011190D02*
X020034Y011190D01*
X020034Y011268D02*
X019527Y011268D01*
X018935Y010823D02*
X018659Y011099D01*
X018659Y011355D01*
X018659Y011552D01*
X018383Y011827D01*
X018383Y011985D01*
X018403Y012063D01*
X018383Y012024D01*
X017852Y012024D01*
X017517Y012024D01*
X017340Y012201D01*
X016986Y012201D01*
X016769Y011985D01*
X016769Y011729D01*
X016948Y011739D02*
X016984Y011739D01*
X016966Y011729D02*
X016966Y011945D01*
X017025Y012004D01*
X017261Y012004D01*
X017340Y011926D01*
X017360Y011729D01*
X017377Y011736D02*
X017377Y011696D01*
X017364Y011657D01*
X017377Y011632D01*
X017377Y011603D01*
X017378Y011603D01*
X017378Y011522D01*
X017448Y011451D01*
X017665Y011451D01*
X017724Y011510D01*
X018164Y011510D01*
X018164Y011042D01*
X017825Y011042D01*
X017731Y010949D01*
X017668Y010885D01*
X017145Y010885D01*
X017145Y011274D01*
X017151Y011274D01*
X017244Y011367D01*
X017252Y011375D01*
X017297Y011413D01*
X017298Y011421D01*
X017303Y011426D01*
X017303Y011483D01*
X017342Y011522D01*
X017342Y011936D01*
X017272Y012006D01*
X017054Y012006D01*
X016984Y011936D01*
X016984Y011594D01*
X016948Y011594D01*
X016948Y011936D01*
X016948Y011937D01*
X017052Y012041D01*
X017274Y012041D01*
X017378Y011937D01*
X017378Y011936D01*
X017378Y011737D01*
X017377Y011736D01*
X017378Y011739D02*
X017342Y011739D01*
X017342Y011661D02*
X017365Y011661D01*
X017378Y011582D02*
X017342Y011582D01*
X017324Y011504D02*
X017395Y011504D01*
X017302Y011425D02*
X018164Y011425D01*
X018164Y011347D02*
X017224Y011347D01*
X017145Y011268D02*
X018164Y011268D01*
X018164Y011190D02*
X017145Y011190D01*
X017145Y011111D02*
X018164Y011111D01*
X018324Y011099D02*
X018324Y011611D01*
X018265Y011670D01*
X017537Y011670D01*
X017557Y011729D01*
X017378Y011818D02*
X017342Y011818D01*
X017342Y011897D02*
X017378Y011897D01*
X017340Y011975D02*
X017303Y011975D01*
X017023Y011975D02*
X016986Y011975D01*
X016984Y011897D02*
X016948Y011897D01*
X016966Y011827D02*
X016946Y011808D01*
X016966Y011729D01*
X016948Y011661D02*
X016984Y011661D01*
X016984Y011818D02*
X016948Y011818D01*
X017163Y011729D02*
X017143Y011493D01*
X017084Y011434D01*
X016769Y011434D01*
X016769Y011158D01*
X016651Y011060D01*
X016809Y011040D01*
X017145Y011033D02*
X017815Y011033D01*
X017737Y010954D02*
X017145Y010954D01*
X017163Y010567D02*
X017813Y010567D01*
X017970Y010725D01*
X018226Y010725D01*
X018305Y010646D01*
X018305Y010096D01*
X018302Y010094D01*
X018105Y010094D02*
X018108Y010150D01*
X018108Y009859D01*
X018285Y009682D01*
X018285Y009308D01*
X018108Y009209D01*
X017911Y009209D01*
X017813Y009308D01*
X017281Y009308D01*
X017183Y009406D01*
X017183Y009721D01*
X016828Y009721D01*
X016671Y009563D01*
X015628Y009563D01*
X015450Y009386D01*
X015431Y009386D01*
X015234Y009189D01*
X015135Y009189D01*
X014998Y009032D01*
X014781Y008815D01*
X012675Y008815D01*
X011671Y009819D01*
X009880Y009819D01*
X009407Y010292D01*
X009407Y010666D01*
X009210Y010863D01*
X009604Y010823D02*
X008915Y011512D01*
X008915Y012083D01*
X008856Y012142D01*
X008981Y012243D02*
X008922Y012302D01*
X008740Y012302D01*
X008740Y012586D01*
X008669Y012656D01*
X008555Y012656D01*
X008512Y012693D01*
X008425Y012779D01*
X008425Y013291D01*
X008332Y013385D01*
X008041Y013676D01*
X008544Y013676D01*
X008544Y013646D01*
X008544Y013646D01*
X008661Y013326D01*
X008881Y013065D01*
X009176Y012896D01*
X009176Y012896D01*
X009512Y012838D01*
X009847Y012898D01*
X010142Y013069D01*
X010360Y013330D01*
X010360Y013330D01*
X010476Y013651D01*
X010476Y013675D01*
X011513Y013675D01*
X011513Y013126D01*
X011691Y012969D01*
X011678Y011920D01*
X011582Y012016D01*
X011415Y012085D01*
X011234Y012085D01*
X011067Y012016D01*
X010939Y011888D01*
X010870Y011721D01*
X010870Y011540D01*
X010939Y011373D01*
X011067Y011245D01*
X011234Y011176D01*
X011415Y011176D01*
X011507Y011214D01*
X011680Y011041D01*
X011683Y010914D01*
X011582Y011016D01*
X011415Y011085D01*
X011234Y011085D01*
X011067Y011016D01*
X010939Y010888D01*
X010870Y010721D01*
X010870Y010540D01*
X010939Y010373D01*
X010998Y010314D01*
X010651Y010314D01*
X010710Y010373D01*
X010779Y010540D01*
X010779Y010721D01*
X010710Y010888D01*
X010582Y011016D01*
X010415Y011085D01*
X010234Y011085D01*
X010159Y011054D01*
X010281Y011176D01*
X010415Y011176D01*
X010582Y011245D01*
X010710Y011373D01*
X010779Y011540D01*
X010779Y011721D01*
X010710Y011888D01*
X010582Y012016D01*
X010415Y012085D01*
X010234Y012085D01*
X010067Y012016D01*
X009939Y011888D01*
X009870Y011721D01*
X009870Y011540D01*
X009939Y011373D01*
X009982Y011330D01*
X009864Y011211D01*
X009864Y011225D01*
X009827Y011314D01*
X009760Y011381D01*
X009671Y011418D01*
X009610Y011418D01*
X009469Y011559D01*
X009469Y012101D01*
X009512Y012144D01*
X009549Y012232D01*
X009549Y012328D01*
X009512Y012416D01*
X009445Y012483D01*
X009356Y012520D01*
X009261Y012520D01*
X009173Y012483D01*
X009105Y012416D01*
X009069Y012328D01*
X009069Y012232D01*
X009105Y012144D01*
X009149Y012101D01*
X009149Y011559D01*
X009149Y011505D01*
X009075Y011579D01*
X009075Y012149D01*
X008981Y012243D01*
X009014Y012211D02*
X009078Y012211D01*
X009069Y012289D02*
X008935Y012289D01*
X009085Y012368D02*
X008740Y012368D01*
X008740Y012446D02*
X009136Y012446D01*
X009309Y012280D02*
X009309Y011493D01*
X009624Y011178D01*
X009794Y011347D02*
X009965Y011347D01*
X009921Y011268D02*
X009846Y011268D01*
X009917Y011425D02*
X009602Y011425D01*
X009524Y011504D02*
X009885Y011504D01*
X009870Y011582D02*
X009469Y011582D01*
X009469Y011661D02*
X009870Y011661D01*
X009877Y011739D02*
X009469Y011739D01*
X009469Y011818D02*
X009910Y011818D01*
X009948Y011897D02*
X009469Y011897D01*
X009469Y011975D02*
X010026Y011975D01*
X010158Y012054D02*
X009469Y012054D01*
X009500Y012132D02*
X011680Y012132D01*
X011679Y012054D02*
X011491Y012054D01*
X011623Y011975D02*
X011678Y011975D01*
X011848Y012044D02*
X011927Y012123D01*
X011927Y013067D01*
X011769Y013225D01*
X011769Y014563D01*
X011789Y014563D01*
X011946Y014701D01*
X011966Y014878D01*
X012006Y014918D01*
X012006Y015508D01*
X012320Y015823D01*
X012950Y015823D01*
X012970Y015804D01*
X014171Y015804D01*
X014348Y015626D01*
X014446Y015626D01*
X014232Y015352D02*
X015015Y015352D01*
X015015Y015274D02*
X014232Y015274D01*
X014165Y015195D02*
X015015Y015195D01*
X014951Y015117D02*
X013710Y015117D01*
X013731Y015038D02*
X013651Y014959D01*
X013373Y014959D01*
X013303Y014889D01*
X013303Y014847D01*
X013302Y014846D01*
X013302Y014842D01*
X012952Y014842D01*
X012952Y014948D01*
X012882Y015018D01*
X012349Y015018D01*
X012281Y014950D01*
X012213Y015018D01*
X012165Y015018D01*
X012165Y015191D01*
X012272Y015191D01*
X012340Y015260D01*
X012409Y015191D01*
X012726Y015191D01*
X012786Y015132D01*
X012904Y015014D01*
X013036Y015014D01*
X013607Y015014D01*
X013652Y014960D02*
X012940Y014960D01*
X012952Y014881D02*
X013303Y014881D01*
X013462Y014780D02*
X013580Y014662D01*
X013797Y014878D01*
X014446Y014878D01*
X014357Y014605D02*
X014287Y014534D01*
X014287Y014448D01*
X014203Y014448D01*
X014109Y014354D01*
X014045Y014290D01*
X013903Y014290D01*
X013839Y014354D01*
X013808Y014385D01*
X013858Y014435D01*
X013858Y014713D01*
X013863Y014718D01*
X014092Y014718D01*
X014160Y014650D01*
X014660Y014650D01*
X014660Y014605D01*
X014357Y014605D01*
X014320Y014567D02*
X013858Y014567D01*
X013858Y014646D02*
X014660Y014646D01*
X014820Y014760D02*
X015175Y015115D01*
X015175Y015331D01*
X015470Y015626D01*
X016002Y015626D01*
X016002Y015528D01*
X016002Y015371D01*
X016198Y015371D01*
X016395Y015174D01*
X016907Y015174D01*
X017006Y015272D01*
X017006Y015489D01*
X017124Y015607D01*
X017596Y015607D01*
X017832Y015371D01*
X018620Y015371D01*
X018797Y015371D01*
X018881Y015311D01*
X018915Y015416D01*
X019210Y015121D01*
X019210Y015016D01*
X019210Y013796D01*
X019860Y013146D01*
X019614Y012900D01*
X019387Y013126D01*
X019171Y013126D01*
X019545Y012831D02*
X019614Y012900D01*
X019545Y012831D02*
X019545Y012752D01*
X019427Y012634D01*
X018915Y012634D01*
X018521Y012241D01*
X018521Y012182D01*
X018383Y012182D01*
X018383Y012024D01*
X018185Y012184D02*
X018129Y012184D01*
X018129Y012309D01*
X018129Y012506D01*
X018129Y012703D01*
X018129Y012920D01*
X018059Y012991D01*
X017645Y012991D01*
X017574Y012920D01*
X017574Y012703D01*
X017574Y012506D01*
X017574Y012309D01*
X017574Y012193D01*
X017406Y012361D01*
X017274Y012361D01*
X017052Y012361D01*
X016920Y012361D01*
X016703Y012145D01*
X016609Y012051D01*
X016609Y012006D01*
X016555Y012006D01*
X016555Y012133D01*
X016555Y012330D01*
X016555Y012506D01*
X016555Y012723D01*
X016555Y012920D01*
X016484Y012991D01*
X016162Y012991D01*
X016162Y013045D01*
X016402Y013045D01*
X016445Y013045D01*
X016464Y013026D01*
X016681Y013026D01*
X016878Y013026D01*
X017075Y013026D01*
X017272Y013026D01*
X017469Y013026D01*
X017665Y013026D01*
X017736Y013096D01*
X017736Y013511D01*
X017721Y013526D01*
X017801Y013606D01*
X017852Y013729D01*
X017852Y013825D01*
X017987Y013825D01*
X017987Y013680D01*
X017944Y013636D01*
X017907Y013548D01*
X017907Y013453D01*
X017944Y013364D01*
X018011Y013297D01*
X018099Y013260D01*
X018165Y013260D01*
X018165Y012880D01*
X018235Y012810D01*
X018458Y012810D01*
X018458Y012764D01*
X018495Y012676D01*
X018562Y012608D01*
X018633Y012579D01*
X018553Y012498D01*
X018255Y012498D01*
X018185Y012428D01*
X018185Y012184D01*
X018185Y012211D02*
X018129Y012211D01*
X018129Y012289D02*
X018185Y012289D01*
X018185Y012368D02*
X018129Y012368D01*
X018129Y012446D02*
X018203Y012446D01*
X018129Y012525D02*
X018579Y012525D01*
X018574Y012603D02*
X018129Y012603D01*
X018129Y012682D02*
X018492Y012682D01*
X018460Y012761D02*
X018129Y012761D01*
X018129Y012839D02*
X018206Y012839D01*
X018165Y012918D02*
X018129Y012918D01*
X018165Y012996D02*
X016162Y012996D01*
X016002Y012969D02*
X016002Y013146D01*
X016061Y013205D01*
X016336Y013205D01*
X016376Y013245D01*
X016376Y013363D01*
X016336Y013205D02*
X016572Y013205D01*
X016572Y013304D01*
X016769Y013304D02*
X016769Y013520D01*
X016828Y013579D01*
X016946Y013579D01*
X016890Y013739D02*
X016762Y013739D01*
X016609Y013586D01*
X016609Y013581D01*
X016510Y013581D01*
X016528Y013596D01*
X016529Y013605D01*
X016536Y013611D01*
X016536Y013670D01*
X016541Y013728D01*
X016536Y013735D01*
X016536Y014202D01*
X016536Y014334D01*
X016496Y014374D01*
X016496Y015014D01*
X016973Y015014D01*
X017067Y015107D01*
X017165Y015206D01*
X017165Y015338D01*
X017165Y015422D01*
X017190Y015447D01*
X017530Y015447D01*
X017660Y015317D01*
X017653Y015310D01*
X017653Y015097D01*
X017530Y015097D01*
X017057Y015097D01*
X016964Y015004D01*
X016885Y014925D01*
X016885Y014792D01*
X016885Y014288D01*
X016864Y014237D01*
X016864Y014142D01*
X016890Y014079D01*
X016890Y013739D01*
X016890Y013782D02*
X016536Y013782D01*
X016536Y013860D02*
X016890Y013860D01*
X016890Y013939D02*
X016536Y013939D01*
X016536Y014017D02*
X016890Y014017D01*
X016883Y014096D02*
X016536Y014096D01*
X016536Y014174D02*
X016864Y014174D01*
X016870Y014253D02*
X016536Y014253D01*
X016536Y014331D02*
X016885Y014331D01*
X016885Y014410D02*
X016496Y014410D01*
X016496Y014488D02*
X016885Y014488D01*
X016885Y014567D02*
X016496Y014567D01*
X016496Y014646D02*
X016885Y014646D01*
X016885Y014724D02*
X016496Y014724D01*
X016496Y014803D02*
X016885Y014803D01*
X016885Y014881D02*
X016496Y014881D01*
X016496Y014960D02*
X016920Y014960D01*
X016998Y015038D02*
X016998Y015038D01*
X017076Y015117D02*
X017653Y015117D01*
X017653Y015195D02*
X017155Y015195D01*
X017165Y015274D02*
X017653Y015274D01*
X017624Y015352D02*
X017165Y015352D01*
X017174Y015431D02*
X017546Y015431D01*
X017762Y015667D02*
X018637Y015667D01*
X018637Y015745D02*
X017684Y015745D01*
X017841Y015588D02*
X018518Y015588D01*
X018667Y015824D02*
X016289Y015824D01*
X016338Y015745D02*
X017036Y015745D01*
X016957Y015667D02*
X016338Y015667D01*
X016338Y015588D02*
X016879Y015588D01*
X016846Y015510D02*
X016338Y015510D01*
X016364Y015431D02*
X016846Y015431D01*
X016846Y015352D02*
X016443Y015352D01*
X016238Y015115D02*
X016061Y015115D01*
X016238Y015115D02*
X016336Y015016D01*
X016336Y014308D01*
X016376Y014268D01*
X016376Y013678D01*
X016267Y013589D01*
X016159Y013579D01*
X016090Y013510D01*
X015962Y013737D02*
X016041Y013914D01*
X015962Y013737D02*
X015667Y013441D01*
X015647Y013422D01*
X015687Y013254D01*
X015667Y013441D02*
X015372Y013441D01*
X014939Y013874D01*
X014486Y013874D01*
X014387Y013776D01*
X014250Y013776D01*
X014250Y013560D02*
X014407Y013560D01*
X014565Y013717D01*
X014880Y013717D01*
X015214Y013382D01*
X015214Y013264D01*
X015263Y013038D02*
X015086Y013038D01*
X014978Y013146D01*
X014978Y013402D01*
X014820Y013560D01*
X014643Y013560D01*
X014446Y013363D01*
X014269Y013363D01*
X014250Y013343D01*
X013876Y013343D01*
X013344Y013874D01*
X013344Y014032D01*
X013128Y014032D02*
X013128Y014288D01*
X013029Y014524D02*
X013226Y014524D01*
X013462Y014288D01*
X013679Y014288D01*
X013777Y014189D01*
X013777Y014032D01*
X013994Y014032D01*
X014013Y014032D01*
X014269Y014288D01*
X014624Y014288D01*
X014643Y014288D01*
X014683Y014327D01*
X014683Y014386D01*
X014820Y014524D01*
X014820Y014760D01*
X014980Y014694D02*
X015114Y014828D01*
X015114Y014720D01*
X015184Y014650D01*
X015665Y014650D01*
X015665Y014474D01*
X015735Y014404D01*
X016176Y014404D01*
X016176Y014241D01*
X016187Y014231D01*
X015775Y014231D01*
X015704Y014160D01*
X015704Y014074D01*
X015699Y014080D01*
X015576Y014131D01*
X015443Y014131D01*
X015320Y014080D01*
X015226Y013985D01*
X015175Y013864D01*
X015005Y014034D01*
X014953Y014034D01*
X014960Y014041D01*
X014960Y014437D01*
X014980Y014458D01*
X014980Y014694D01*
X015010Y014724D02*
X015114Y014724D01*
X015114Y014803D02*
X015089Y014803D01*
X014980Y014646D02*
X015665Y014646D01*
X015665Y014567D02*
X014980Y014567D01*
X014980Y014488D02*
X015665Y014488D01*
X015729Y014410D02*
X014960Y014410D01*
X014960Y014331D02*
X016176Y014331D01*
X016176Y014253D02*
X014960Y014253D01*
X014960Y014174D02*
X015718Y014174D01*
X015704Y014096D02*
X015660Y014096D01*
X015359Y014096D02*
X014960Y014096D01*
X015022Y014017D02*
X015257Y014017D01*
X015206Y013939D02*
X015101Y013939D01*
X014722Y013323D02*
X014722Y013166D01*
X014998Y012890D01*
X015175Y012890D01*
X015214Y012851D01*
X015214Y011532D01*
X015273Y011473D01*
X015054Y011571D02*
X015054Y011598D01*
X015054Y011736D01*
X015044Y011726D01*
X014912Y011726D01*
X014532Y011726D01*
X014413Y011607D01*
X014413Y011404D01*
X014343Y011333D01*
X014281Y011333D01*
X014293Y011304D01*
X014293Y011240D01*
X014407Y011240D01*
X014546Y011183D01*
X014612Y011117D01*
X014798Y011303D01*
X014892Y011397D01*
X015045Y011397D01*
X015033Y011425D01*
X015033Y011521D01*
X015054Y011571D01*
X015054Y011582D02*
X014413Y011582D01*
X014413Y011504D02*
X015033Y011504D01*
X015033Y011425D02*
X014413Y011425D01*
X014356Y011347D02*
X014842Y011347D01*
X014764Y011268D02*
X014293Y011268D01*
X014053Y011256D02*
X013994Y011335D01*
X013817Y011335D01*
X013738Y011414D01*
X013738Y011886D01*
X013817Y011965D01*
X014191Y011965D01*
X014250Y012024D01*
X014309Y012063D01*
X014466Y011886D02*
X014978Y011886D01*
X015057Y011965D01*
X015057Y012516D01*
X014998Y012575D01*
X014545Y012575D01*
X014446Y012674D01*
X014269Y012674D01*
X014250Y012693D01*
X014250Y012477D02*
X014368Y012359D01*
X014565Y012359D01*
X014698Y012225D01*
X014698Y012201D01*
X014742Y012237D01*
X014466Y011886D02*
X014222Y011642D01*
X014076Y011650D01*
X014467Y011661D02*
X015054Y011661D01*
X014958Y011237D02*
X015588Y011237D01*
X015667Y011404D01*
X015529Y011266D01*
X015726Y011256D01*
X015844Y011374D01*
X015982Y011374D01*
X016218Y011453D02*
X016218Y011292D01*
X015907Y010863D01*
X015628Y010426D01*
X015628Y010233D01*
X015273Y010449D02*
X015277Y010867D01*
X015293Y010882D01*
X015313Y010878D01*
X015277Y010867D02*
X015120Y010863D01*
X014958Y011237D02*
X014624Y010902D01*
X014372Y010902D01*
X014332Y010863D01*
X014092Y010863D01*
X013757Y011197D01*
X013698Y011197D01*
X013639Y011256D01*
X013344Y011256D01*
X013206Y011119D01*
X012616Y011119D01*
X012222Y011512D01*
X012183Y011689D01*
X012222Y011847D01*
X012183Y011689D02*
X012183Y012221D01*
X012439Y012477D01*
X012439Y012693D01*
X012439Y012910D01*
X012419Y012930D01*
X012222Y012930D01*
X012202Y012949D01*
X012202Y013028D01*
X011927Y013304D01*
X011927Y014209D01*
X012104Y014386D01*
X012891Y014386D01*
X013029Y014524D01*
X012793Y014682D02*
X013462Y014682D01*
X013462Y014780D01*
X013541Y015174D02*
X012970Y015174D01*
X012852Y015292D01*
X012852Y015410D01*
X012675Y015508D01*
X013011Y015510D02*
X013651Y015510D01*
X013677Y015536D02*
X013475Y015334D01*
X013036Y015334D01*
X013012Y015358D01*
X013012Y015368D01*
X013024Y015390D01*
X013012Y015432D01*
X013012Y015476D01*
X013011Y015477D01*
X013011Y015644D01*
X013036Y015644D01*
X013677Y015644D01*
X013677Y015536D01*
X013677Y015588D02*
X013011Y015588D01*
X013012Y015431D02*
X013572Y015431D01*
X013493Y015352D02*
X013018Y015352D01*
X012801Y015117D02*
X012165Y015117D01*
X012165Y015038D02*
X012879Y015038D01*
X012793Y014701D02*
X012793Y014682D01*
X012793Y014701D02*
X012616Y014701D01*
X012291Y014960D02*
X012271Y014960D01*
X012276Y015195D02*
X012405Y015195D01*
X012170Y014226D02*
X012729Y014226D01*
X012722Y014219D01*
X012722Y013844D01*
X012792Y013774D01*
X013030Y013774D01*
X013218Y013774D01*
X013716Y013277D01*
X013809Y013183D01*
X013992Y013183D01*
X013992Y013008D01*
X014062Y012938D01*
X014350Y012938D01*
X014405Y012882D01*
X014062Y012882D01*
X013992Y012812D01*
X013992Y012595D01*
X013992Y012479D01*
X013875Y012479D01*
X013659Y012479D01*
X013442Y012479D01*
X013225Y012479D01*
X013009Y012479D01*
X012813Y012479D01*
X012696Y012479D01*
X012696Y012595D01*
X012696Y012812D01*
X012696Y013029D01*
X012626Y013099D01*
X012358Y013099D01*
X012269Y013188D01*
X012087Y013370D01*
X012087Y014143D01*
X012170Y014226D01*
X012118Y014174D02*
X012722Y014174D01*
X012722Y014096D02*
X012087Y014096D01*
X012087Y014017D02*
X012722Y014017D01*
X012722Y013939D02*
X012087Y013939D01*
X012087Y013860D02*
X012722Y013860D01*
X012785Y013782D02*
X012087Y013782D01*
X012087Y013703D02*
X013289Y013703D01*
X013368Y013624D02*
X012087Y013624D01*
X012087Y013546D02*
X013446Y013546D01*
X013525Y013467D02*
X012087Y013467D01*
X012087Y013389D02*
X013603Y013389D01*
X013682Y013310D02*
X012146Y013310D01*
X012225Y013232D02*
X013761Y013232D01*
X013992Y013153D02*
X012303Y013153D01*
X012650Y013075D02*
X013992Y013075D01*
X014004Y012996D02*
X012696Y012996D01*
X012696Y012918D02*
X014370Y012918D01*
X014387Y013126D02*
X014683Y012831D01*
X014683Y012811D01*
X014387Y013126D02*
X014250Y013126D01*
X014250Y013560D02*
X013895Y013560D01*
X013561Y013894D01*
X013561Y014032D01*
X013861Y014331D02*
X014087Y014331D01*
X014165Y014410D02*
X013833Y014410D01*
X013858Y014488D02*
X014287Y014488D01*
X014801Y015038D02*
X014872Y015038D01*
X014765Y015431D02*
X015048Y015431D01*
X015114Y015510D02*
X014803Y015510D01*
X014803Y015588D02*
X015114Y015588D01*
X015114Y015667D02*
X014803Y015667D01*
X014803Y015745D02*
X015114Y015745D01*
X015153Y015824D02*
X014763Y015824D01*
X013954Y015489D02*
X013856Y015489D01*
X013541Y015174D01*
X015470Y014878D02*
X015864Y014878D01*
X016002Y014721D01*
X017045Y014859D02*
X017045Y014249D01*
X017104Y014189D01*
X017104Y014130D01*
X017360Y014130D02*
X017360Y014603D01*
X017045Y014859D02*
X017124Y014937D01*
X017596Y014937D01*
X017832Y014701D01*
X018004Y014701D01*
X018102Y014603D01*
X018462Y014603D01*
X018580Y014485D01*
X018580Y013205D01*
X018502Y013126D01*
X018698Y012930D01*
X018698Y012811D01*
X018165Y013075D02*
X017714Y013075D01*
X017736Y013153D02*
X018165Y013153D01*
X018165Y013232D02*
X017736Y013232D01*
X017736Y013310D02*
X017998Y013310D01*
X017934Y013389D02*
X017736Y013389D01*
X017736Y013467D02*
X017907Y013467D01*
X017907Y013546D02*
X017741Y013546D01*
X017809Y013624D02*
X017939Y013624D01*
X017987Y013703D02*
X017841Y013703D01*
X017852Y013782D02*
X017987Y013782D01*
X018147Y014058D02*
X018147Y013500D01*
X018147Y014058D02*
X018102Y014103D01*
X018021Y014201D01*
X017635Y014209D01*
X017340Y013500D02*
X017340Y013323D01*
X017360Y013304D01*
X017574Y012918D02*
X016555Y012918D01*
X016555Y012839D02*
X017574Y012839D01*
X017574Y012761D02*
X016555Y012761D01*
X016555Y012682D02*
X017574Y012682D01*
X017574Y012603D02*
X016555Y012603D01*
X016555Y012525D02*
X017574Y012525D01*
X017574Y012446D02*
X016555Y012446D01*
X016555Y012368D02*
X017574Y012368D01*
X017574Y012289D02*
X017478Y012289D01*
X017557Y012211D02*
X017574Y012211D01*
X016848Y012289D02*
X016555Y012289D01*
X016555Y012211D02*
X016769Y012211D01*
X016703Y012145D02*
X016703Y012145D01*
X016690Y012132D02*
X016555Y012132D01*
X016555Y012054D02*
X016612Y012054D01*
X016769Y011434D02*
X016454Y011434D01*
X015982Y011906D01*
X015982Y012359D01*
X015756Y012585D01*
X015687Y012585D01*
X015372Y012772D02*
X015372Y012300D01*
X015509Y012162D01*
X015509Y012004D01*
X015667Y012073D01*
X015667Y012004D01*
X016218Y011453D01*
X016395Y011138D02*
X016454Y011079D01*
X016454Y010823D01*
X016553Y010725D01*
X017734Y010725D01*
X017891Y010882D01*
X018305Y010882D01*
X018502Y010686D01*
X018502Y010313D01*
X018499Y010094D01*
X018696Y010094D02*
X018698Y010313D01*
X018698Y010725D01*
X018324Y011099D01*
X018164Y011504D02*
X017718Y011504D01*
X017163Y010567D02*
X016946Y010351D01*
X016946Y010036D01*
X016691Y010036D01*
X016533Y009878D01*
X014722Y009878D01*
X014604Y009760D01*
X014604Y009268D01*
X014486Y009150D01*
X014407Y009150D01*
X014230Y008973D01*
X012754Y008973D01*
X011730Y009997D01*
X009939Y009997D01*
X009604Y010331D01*
X009604Y010823D01*
X009781Y010902D02*
X009781Y010430D01*
X010057Y010154D01*
X011809Y010154D01*
X012832Y009130D01*
X013541Y009130D01*
X013600Y009209D01*
X013819Y009308D02*
X013803Y009345D01*
X013736Y009413D01*
X013648Y009449D01*
X013552Y009449D01*
X013514Y009433D01*
X013528Y009447D01*
X013564Y009535D01*
X013564Y009631D01*
X013528Y009719D01*
X013460Y009787D01*
X013372Y009823D01*
X013307Y009823D01*
X013307Y010324D01*
X013307Y010456D01*
X013217Y010546D01*
X013228Y010557D01*
X013228Y010959D01*
X013273Y010959D01*
X013410Y011096D01*
X013573Y011096D01*
X013632Y011037D01*
X013691Y011037D01*
X013932Y010796D01*
X013965Y010764D01*
X014012Y010649D01*
X014077Y010584D01*
X014051Y010558D01*
X014051Y010413D01*
X014002Y010433D01*
X013907Y010433D01*
X013818Y010397D01*
X013751Y010329D01*
X013714Y010241D01*
X013714Y010146D01*
X013751Y010057D01*
X013818Y009990D01*
X013907Y009953D01*
X013915Y009953D01*
X013915Y009308D01*
X013819Y009308D01*
X013765Y009383D02*
X013915Y009383D01*
X013915Y009462D02*
X013534Y009462D01*
X013564Y009540D02*
X013915Y009540D01*
X013915Y009619D02*
X013564Y009619D01*
X013537Y009697D02*
X013915Y009697D01*
X013915Y009776D02*
X013471Y009776D01*
X013307Y009854D02*
X013915Y009854D01*
X013915Y009933D02*
X013307Y009933D01*
X013307Y010011D02*
X013797Y010011D01*
X013737Y010090D02*
X013307Y010090D01*
X013307Y010169D02*
X013714Y010169D01*
X013717Y010247D02*
X013307Y010247D01*
X013307Y010326D02*
X013749Y010326D01*
X013836Y010404D02*
X013307Y010404D01*
X013281Y010483D02*
X014051Y010483D01*
X014054Y010561D02*
X013228Y010561D01*
X013228Y010640D02*
X014021Y010640D01*
X013983Y010718D02*
X013228Y010718D01*
X013228Y010797D02*
X013932Y010797D01*
X013853Y010875D02*
X013228Y010875D01*
X013228Y010954D02*
X013774Y010954D01*
X013696Y011033D02*
X013347Y011033D01*
X013140Y011279D02*
X012682Y011279D01*
X012518Y011442D01*
X012519Y011443D01*
X012519Y011936D01*
X012449Y012006D01*
X012343Y012006D01*
X012343Y012155D01*
X012476Y012288D01*
X012506Y012288D01*
X012506Y012033D01*
X012576Y011963D01*
X012813Y011963D01*
X013009Y011963D01*
X013137Y011963D01*
X013071Y011897D01*
X013071Y011404D01*
X013141Y011333D01*
X013195Y011333D01*
X013184Y011323D01*
X013140Y011279D01*
X013127Y011347D02*
X012614Y011347D01*
X012535Y011425D02*
X013071Y011425D01*
X013071Y011504D02*
X012519Y011504D01*
X012519Y011582D02*
X013071Y011582D01*
X013071Y011661D02*
X012519Y011661D01*
X012519Y011739D02*
X013071Y011739D01*
X013071Y011818D02*
X012519Y011818D01*
X012519Y011897D02*
X013071Y011897D01*
X012564Y011975D02*
X012480Y011975D01*
X012506Y012054D02*
X012343Y012054D01*
X012343Y012132D02*
X012506Y012132D01*
X012506Y012211D02*
X012399Y012211D01*
X012696Y012525D02*
X013992Y012525D01*
X013992Y012603D02*
X012696Y012603D01*
X012696Y012682D02*
X013992Y012682D01*
X013992Y012761D02*
X012696Y012761D01*
X012696Y012839D02*
X014019Y012839D01*
X013561Y012221D02*
X013561Y011804D01*
X013407Y011650D01*
X013561Y011642D01*
X012891Y010804D02*
X012891Y010646D01*
X013147Y010390D01*
X013147Y009741D01*
X013305Y009603D01*
X013324Y009583D01*
X013029Y009367D02*
X012832Y009367D01*
X011868Y010331D01*
X011868Y011079D01*
X011324Y011623D01*
X011324Y011630D01*
X010910Y011818D02*
X010739Y011818D01*
X010771Y011739D02*
X010877Y011739D01*
X010870Y011661D02*
X010779Y011661D01*
X010779Y011582D02*
X010870Y011582D01*
X010885Y011504D02*
X010764Y011504D01*
X010731Y011425D02*
X010917Y011425D01*
X010965Y011347D02*
X010684Y011347D01*
X010605Y011268D02*
X011044Y011268D01*
X011200Y011190D02*
X010448Y011190D01*
X010541Y011033D02*
X011107Y011033D01*
X011005Y010954D02*
X010644Y010954D01*
X010715Y010875D02*
X010934Y010875D01*
X010901Y010797D02*
X010748Y010797D01*
X010779Y010718D02*
X010870Y010718D01*
X010870Y010640D02*
X010779Y010640D01*
X010779Y010561D02*
X010870Y010561D01*
X010893Y010483D02*
X010755Y010483D01*
X010723Y010404D02*
X010926Y010404D01*
X010986Y010326D02*
X010663Y010326D01*
X010216Y011111D02*
X011610Y011111D01*
X011541Y011033D02*
X011680Y011033D01*
X011682Y010954D02*
X011644Y010954D01*
X011531Y011190D02*
X011448Y011190D01*
X011848Y011394D02*
X012222Y011020D01*
X012222Y010804D01*
X012222Y010587D01*
X012813Y009997D01*
X013954Y010193D02*
X014250Y010193D01*
X014348Y010292D01*
X014387Y010311D01*
X015057Y010311D02*
X015273Y010449D01*
X015411Y009721D02*
X015352Y009662D01*
X015076Y009662D01*
X014840Y009426D01*
X014840Y009268D01*
X014820Y009189D01*
X014840Y009426D02*
X014939Y009504D01*
X014444Y009540D02*
X014072Y009540D01*
X014072Y009462D02*
X014444Y009462D01*
X014444Y009383D02*
X014072Y009383D01*
X014072Y009305D02*
X014335Y009305D01*
X014341Y009310D02*
X014247Y009216D01*
X014164Y009133D01*
X014072Y009133D01*
X014072Y009682D01*
X014444Y009684D01*
X014444Y009334D01*
X014420Y009310D01*
X014341Y009310D01*
X014257Y009226D02*
X014072Y009226D01*
X014072Y009148D02*
X014178Y009148D01*
X014072Y009619D02*
X014444Y009619D01*
X015194Y008894D02*
X015509Y009209D01*
X016431Y009209D01*
X016432Y009208D01*
X016431Y009209D02*
X016651Y009209D01*
X016671Y009189D01*
X016887Y009189D01*
X017045Y009032D01*
X018049Y009032D01*
X018088Y008993D01*
X018206Y008993D01*
X018324Y008756D02*
X018049Y008756D01*
X017931Y008874D01*
X016966Y008874D01*
X016828Y009012D01*
X016433Y009012D01*
X016432Y009011D01*
X016432Y009405D02*
X016433Y009406D01*
X016907Y009406D01*
X016927Y009426D01*
X016592Y009721D02*
X016750Y009878D01*
X017124Y009878D01*
X017124Y010091D01*
X017121Y010094D01*
X017284Y010090D02*
X017355Y010090D01*
X017318Y010094D02*
X017318Y010329D01*
X017399Y010410D01*
X017990Y010410D01*
X018069Y010489D01*
X017909Y010094D02*
X017909Y009802D01*
X017911Y009780D01*
X018049Y009642D01*
X018049Y009445D01*
X017754Y009544D02*
X017712Y009605D01*
X017712Y010094D01*
X017515Y010094D02*
X017515Y009625D01*
X017439Y009544D01*
X017343Y009764D02*
X017343Y009787D01*
X017284Y009846D01*
X017284Y010025D01*
X017284Y010157D01*
X017280Y010161D01*
X017280Y010213D01*
X017355Y010213D01*
X017355Y010161D01*
X017355Y010160D01*
X017355Y009769D01*
X017343Y009764D01*
X017343Y009776D02*
X017355Y009776D01*
X017355Y009854D02*
X017284Y009854D01*
X017284Y009933D02*
X017355Y009933D01*
X017355Y010011D02*
X017284Y010011D01*
X017280Y010169D02*
X017355Y010169D01*
X016691Y010272D02*
X016336Y010272D01*
X016297Y010233D01*
X016592Y009721D02*
X015411Y009721D01*
X015883Y008815D02*
X015844Y008776D01*
X015549Y008658D02*
X012576Y008658D01*
X011572Y009662D01*
X009781Y009662D01*
X009151Y010292D01*
X009151Y010469D01*
X009154Y010063D02*
X009552Y009664D01*
X009498Y009664D01*
X009405Y009571D01*
X009204Y009370D01*
X009143Y009370D01*
X009075Y009342D01*
X009075Y009655D01*
X009154Y009733D01*
X009154Y009866D01*
X009154Y010063D01*
X009154Y010011D02*
X009205Y010011D01*
X009154Y009933D02*
X009284Y009933D01*
X009362Y009854D02*
X009154Y009854D01*
X009154Y009776D02*
X009441Y009776D01*
X009519Y009697D02*
X009118Y009697D01*
X009075Y009619D02*
X009453Y009619D01*
X009374Y009540D02*
X009075Y009540D01*
X009075Y009462D02*
X009296Y009462D01*
X009217Y009383D02*
X009075Y009383D01*
X009191Y009130D02*
X009565Y009504D01*
X011474Y009504D01*
X012478Y008500D01*
X015509Y008500D01*
X015618Y008284D02*
X015632Y008284D01*
X015529Y008146D02*
X015726Y007949D01*
X015726Y007811D01*
X015529Y008146D02*
X014643Y008146D01*
X014545Y008048D01*
X014466Y008048D01*
X014226Y008048D02*
X013984Y008048D01*
X014062Y007969D02*
X014239Y007969D01*
X014284Y007891D02*
X014141Y007891D01*
X014239Y008126D02*
X013905Y008126D01*
X013898Y008134D02*
X013898Y008134D01*
X013826Y008205D02*
X014284Y008205D01*
X014408Y008284D02*
X012667Y008284D01*
X012380Y008107D02*
X012616Y007871D01*
X012990Y007871D01*
X013009Y007851D01*
X013214Y007851D01*
X013521Y007544D01*
X013236Y008205D02*
X013137Y008205D01*
X012380Y008107D02*
X012261Y008107D01*
X011531Y008205D02*
X010991Y008205D01*
X010883Y008323D02*
X010470Y008323D01*
X010391Y008205D01*
X010332Y008205D01*
X010293Y008186D01*
X010293Y008245D01*
X009958Y008579D01*
X009958Y009130D01*
X010096Y009268D01*
X008600Y009091D02*
X008600Y009997D01*
X008580Y009997D01*
X008580Y010272D01*
X008521Y010351D01*
X008344Y010351D01*
X008187Y010331D01*
X008344Y010272D01*
X008364Y010371D02*
X008187Y010331D01*
X007537Y011000D02*
X007242Y011296D01*
X007242Y011571D01*
X007163Y011650D01*
X006553Y011650D01*
X006887Y011296D02*
X006907Y011296D01*
X006907Y010567D01*
X006887Y010311D01*
X007045Y010154D01*
X007045Y009701D01*
X007380Y010036D01*
X007340Y009977D01*
X007045Y009701D02*
X007045Y009386D01*
X007065Y009327D01*
X007045Y009327D01*
X006821Y009305D02*
X006403Y009305D01*
X006403Y009226D02*
X006821Y009226D01*
X006821Y009148D02*
X006403Y009148D01*
X006358Y009069D02*
X006866Y009069D01*
X006821Y009383D02*
X006441Y009383D01*
X006677Y009619D02*
X006885Y009619D01*
X006885Y009697D02*
X006713Y009697D01*
X006713Y009776D02*
X006885Y009776D01*
X006885Y009854D02*
X006713Y009854D01*
X006713Y009933D02*
X006885Y009933D01*
X006218Y010311D02*
X006041Y010311D01*
X006041Y010567D01*
X006002Y010607D01*
X006080Y010686D01*
X005867Y010797D02*
X005634Y010797D01*
X005713Y010875D02*
X005931Y010875D01*
X005840Y010718D02*
X005498Y010718D01*
X005611Y010326D02*
X005881Y010326D01*
X005318Y011174D02*
X005318Y011296D01*
X006218Y011296D01*
X007655Y011473D02*
X007655Y011768D01*
X007537Y011906D01*
X007655Y011473D02*
X007832Y011296D01*
X009075Y011582D02*
X009149Y011582D01*
X009149Y011661D02*
X009075Y011661D01*
X009075Y011739D02*
X009149Y011739D01*
X009149Y011818D02*
X009075Y011818D01*
X009075Y011897D02*
X009149Y011897D01*
X009149Y011975D02*
X009075Y011975D01*
X009075Y012054D02*
X009149Y012054D01*
X009117Y012132D02*
X009075Y012132D01*
X008740Y012525D02*
X009876Y012525D01*
X009870Y012540D02*
X009939Y012373D01*
X010067Y012245D01*
X010234Y012176D01*
X010415Y012176D01*
X010582Y012245D01*
X010710Y012373D01*
X010779Y012540D01*
X010779Y012721D01*
X010710Y012888D01*
X010582Y013016D01*
X010415Y013085D01*
X010234Y013085D01*
X010067Y013016D01*
X009939Y012888D01*
X009870Y012721D01*
X009870Y012540D01*
X009870Y012603D02*
X008722Y012603D01*
X008524Y012682D02*
X009870Y012682D01*
X009886Y012761D02*
X008444Y012761D01*
X008425Y012839D02*
X009503Y012839D01*
X009512Y012838D02*
X009512Y012838D01*
X009521Y012839D02*
X009919Y012839D01*
X009882Y012918D02*
X009969Y012918D01*
X010017Y012996D02*
X010047Y012996D01*
X010142Y013069D02*
X010142Y013069D01*
X010147Y013075D02*
X010209Y013075D01*
X010212Y013153D02*
X011513Y013153D01*
X011513Y013232D02*
X010278Y013232D01*
X010344Y013310D02*
X011513Y013310D01*
X011513Y013389D02*
X010381Y013389D01*
X010410Y013467D02*
X011513Y013467D01*
X011513Y013546D02*
X010438Y013546D01*
X010466Y013624D02*
X011513Y013624D01*
X011572Y013075D02*
X010440Y013075D01*
X010602Y012996D02*
X011660Y012996D01*
X011690Y012918D02*
X010680Y012918D01*
X010730Y012839D02*
X011689Y012839D01*
X011688Y012761D02*
X010763Y012761D01*
X010779Y012682D02*
X011687Y012682D01*
X011686Y012603D02*
X010779Y012603D01*
X010773Y012525D02*
X011685Y012525D01*
X011684Y012446D02*
X010740Y012446D01*
X010705Y012368D02*
X011683Y012368D01*
X011682Y012289D02*
X010626Y012289D01*
X010499Y012211D02*
X011681Y012211D01*
X011848Y012044D02*
X011848Y011394D01*
X011158Y012054D02*
X010491Y012054D01*
X010623Y011975D02*
X011026Y011975D01*
X010948Y011897D02*
X010701Y011897D01*
X010324Y011630D02*
X010324Y011445D01*
X009781Y010902D01*
X009540Y012211D02*
X010150Y012211D01*
X010023Y012289D02*
X009549Y012289D01*
X009532Y012368D02*
X009944Y012368D01*
X009909Y012446D02*
X009482Y012446D01*
X009847Y012898D02*
X009847Y012898D01*
X009138Y012918D02*
X008425Y012918D01*
X008425Y012996D02*
X009001Y012996D01*
X008881Y013065D02*
X008881Y013065D01*
X008881Y013065D01*
X008873Y013075D02*
X008425Y013075D01*
X008425Y013153D02*
X008807Y013153D01*
X008741Y013232D02*
X008425Y013232D01*
X008406Y013310D02*
X008674Y013310D01*
X008661Y013326D02*
X008661Y013326D01*
X008638Y013389D02*
X008328Y013389D01*
X008249Y013467D02*
X008609Y013467D01*
X008580Y013546D02*
X008171Y013546D01*
X008092Y013624D02*
X008552Y013624D01*
X010476Y013651D02*
X010476Y013651D01*
X014529Y011190D02*
X014685Y011190D01*
X015372Y012772D02*
X015362Y012920D01*
X015952Y012920D01*
X016002Y012969D01*
X016536Y013624D02*
X016647Y013624D01*
X016726Y013703D02*
X016539Y013703D01*
X015362Y012920D02*
X015263Y013038D01*
X019210Y015016D02*
X019592Y015024D01*
X019728Y015103D01*
X019322Y015352D02*
X019205Y015352D01*
X019286Y010094D02*
X019286Y009955D01*
X018521Y009229D02*
X018521Y008953D01*
X018324Y008756D01*
X018561Y007280D02*
X018561Y007063D01*
X021036Y007105D02*
X021413Y007105D01*
X023246Y005626D02*
X023187Y005548D01*
X023167Y005489D01*
X023171Y005390D01*
X019224Y002471D02*
X018738Y002471D01*
X018738Y002393D02*
X019146Y002393D01*
X016750Y002378D02*
X016710Y002359D01*
X016474Y002359D01*
X016317Y002910D02*
X016395Y002930D01*
X014683Y004888D02*
X014633Y004859D01*
X014683Y004888D02*
X014929Y004888D01*
X015254Y005213D01*
X015254Y005351D01*
X015549Y005063D02*
X015669Y005063D01*
X014584Y005036D02*
X014476Y004947D01*
X014476Y004898D01*
X014299Y004819D02*
X013984Y005134D01*
X013974Y005430D01*
X013974Y005508D01*
X013679Y005745D02*
X013974Y006040D01*
X014131Y006119D01*
X014506Y006119D01*
X014545Y006079D01*
X013541Y005311D02*
X013423Y005430D01*
X012754Y006079D02*
X012596Y006237D01*
X011336Y006237D01*
X010785Y006099D02*
X010687Y006237D01*
X011691Y007083D02*
X012340Y007083D01*
X012360Y007103D01*
X012380Y007083D01*
X012931Y007083D01*
X013147Y006867D01*
X014238Y007498D02*
X014878Y007498D01*
X014554Y008284D02*
X014524Y008284D01*
X011691Y007083D02*
X011139Y007634D01*
X011100Y007634D01*
X010817Y007655D02*
X010439Y007655D01*
X010361Y007734D02*
X010817Y007734D01*
X010821Y007812D02*
X010282Y007812D01*
X010754Y007577D02*
X010817Y007577D01*
X008943Y007498D02*
X006594Y007498D01*
X006594Y007577D02*
X008864Y007577D01*
X008786Y007655D02*
X006594Y007655D01*
X007055Y008205D02*
X007393Y008205D01*
X007393Y008284D02*
X006976Y008284D01*
X006898Y008362D02*
X007393Y008362D01*
X007393Y008441D02*
X006819Y008441D01*
X006741Y008519D02*
X007393Y008519D01*
X007393Y008598D02*
X006662Y008598D01*
X006584Y008676D02*
X007393Y008676D01*
X007393Y008755D02*
X006505Y008755D01*
X007592Y008514D02*
X007616Y008538D01*
X007941Y007812D02*
X008755Y007812D01*
X008755Y007734D02*
X007863Y007734D01*
X008374Y007891D02*
X008755Y007891D01*
X008755Y007969D02*
X008453Y007969D01*
X008524Y008048D02*
X008755Y008048D01*
X008521Y009012D02*
X008265Y009012D01*
X008521Y009012D02*
X008600Y009091D01*
X004624Y010404D02*
X004496Y010404D01*
X004551Y010718D02*
X004624Y010718D01*
X002890Y003728D02*
X002559Y003728D01*
X002559Y003649D02*
X002889Y003649D01*
X002889Y003571D02*
X002559Y003571D01*
X002559Y003492D02*
X002889Y003492D01*
X002889Y003414D02*
X002559Y003414D01*
X002559Y003335D02*
X002889Y003335D01*
X002889Y003257D02*
X002559Y003257D01*
X002559Y003178D02*
X002889Y003178D01*
X002889Y003100D02*
X002559Y003100D01*
X002551Y002864D02*
X002848Y002864D01*
X002886Y002995D02*
X002886Y003013D01*
X002889Y003021D01*
D56*
X003265Y002851D03*
X003108Y002615D03*
X003423Y002615D03*
X003580Y002851D03*
X004525Y003126D03*
X004939Y002930D03*
X005411Y003067D03*
X006061Y003973D03*
X006809Y003973D03*
X007084Y003993D03*
X008246Y003993D03*
X008246Y004347D03*
X008305Y005095D03*
X008049Y005292D03*
X006651Y005252D03*
X005923Y005745D03*
X005352Y005213D03*
X004683Y005115D03*
X004131Y005075D03*
X004446Y003874D03*
X005411Y004465D03*
X006435Y006414D03*
X006021Y006886D03*
X006710Y007142D03*
X006927Y007398D03*
X005864Y007595D03*
X005883Y008225D03*
X005785Y009308D03*
X006080Y010686D03*
X004880Y010686D03*
X002754Y010548D03*
X002734Y011788D03*
X002734Y013008D03*
X002734Y014288D03*
X002773Y015686D03*
X005569Y015705D03*
X006966Y015154D03*
X008541Y013343D03*
X008836Y012949D03*
X009309Y012280D03*
X009624Y011178D03*
X009210Y010863D03*
X009151Y010469D03*
X008620Y010686D03*
X008580Y009997D03*
X009269Y009682D03*
X009191Y009130D03*
X009466Y008934D03*
X009446Y008619D03*
X009446Y008304D03*
X009387Y008008D03*
X008620Y007871D03*
X008600Y007201D03*
X008482Y006670D03*
X009604Y006315D03*
X009742Y006788D03*
X010647Y007733D03*
X010943Y008973D03*
X011376Y009032D03*
X012261Y008107D03*
X013187Y008264D03*
X014131Y008008D03*
X014466Y008048D03*
X015194Y008894D03*
X015569Y008943D03*
X015844Y008776D03*
X014820Y009189D03*
X014131Y009209D03*
X013817Y009445D03*
X013600Y009209D03*
X013324Y009583D03*
X013029Y009367D03*
X013954Y010193D03*
X014053Y011256D03*
X014446Y011315D03*
X014309Y012063D03*
X014683Y012811D03*
X014722Y013323D03*
X015214Y013264D03*
X016090Y013510D03*
X016376Y013363D03*
X016612Y014308D03*
X017104Y014189D03*
X017635Y014209D03*
X018147Y013500D03*
X018698Y012811D03*
X018226Y012595D03*
X018915Y011847D03*
X019899Y011926D03*
X020273Y012123D03*
X020785Y012103D03*
X021159Y012989D03*
X020450Y013107D03*
X020057Y013619D03*
X022124Y013008D03*
X022616Y011630D03*
X022694Y011158D03*
X023403Y011197D03*
X024348Y011315D03*
X024309Y010469D03*
X024486Y010016D03*
X024309Y009603D03*
X024171Y009170D03*
X025765Y008874D03*
X025746Y008146D03*
X024978Y007536D03*
X025864Y007201D03*
X025667Y006355D03*
X025667Y005823D03*
X025549Y004937D03*
X024663Y004937D03*
X023659Y004937D03*
X023206Y004583D03*
X022911Y004583D03*
X022616Y004583D03*
X022320Y004583D03*
X022025Y004583D03*
X021750Y004583D03*
X021454Y004583D03*
X021159Y004583D03*
X020883Y004583D03*
X020588Y004583D03*
X020293Y004583D03*
X020017Y004583D03*
X019722Y004583D03*
X019427Y004583D03*
X019131Y004583D03*
X018817Y004583D03*
X018521Y004583D03*
X018226Y004583D03*
X017950Y004583D03*
X017655Y004583D03*
X017360Y004583D03*
X017084Y004583D03*
X016789Y004583D03*
X016474Y004583D03*
X016139Y004583D03*
X015844Y004583D03*
X015529Y004583D03*
X015214Y004583D03*
X014899Y004583D03*
X014860Y004288D03*
X014860Y003973D03*
X014860Y003658D03*
X014860Y003343D03*
X015569Y003540D03*
X016513Y004111D03*
X016946Y003481D03*
X017202Y003481D03*
X017498Y003402D03*
X017498Y003146D03*
X017498Y002890D03*
X017793Y002260D03*
X018069Y001296D03*
X018069Y001000D03*
X018206Y000508D03*
X017931Y000508D03*
X017635Y000508D03*
X017340Y000508D03*
X017065Y000508D03*
X016769Y000508D03*
X016454Y000508D03*
X016120Y000508D03*
X015824Y000508D03*
X015509Y000508D03*
X015194Y000508D03*
X014860Y000508D03*
X014860Y000843D03*
X014860Y001138D03*
X014860Y001453D03*
X014860Y001749D03*
X014407Y001571D03*
X014210Y001886D03*
X014407Y001217D03*
X014407Y000863D03*
X014053Y000804D03*
X014407Y000508D03*
X013541Y000804D03*
X012242Y000567D03*
X011750Y000548D03*
X011277Y000548D03*
X011277Y000843D03*
X011041Y001965D03*
X010746Y002142D03*
X009525Y002063D03*
X009033Y002300D03*
X008482Y002851D03*
X008521Y003186D03*
X009702Y003245D03*
X009702Y003638D03*
X010569Y003363D03*
X010952Y003412D03*
X011651Y003973D03*
X012360Y004150D03*
X012360Y004504D03*
X012399Y004898D03*
X012813Y004524D03*
X012517Y005489D03*
X012104Y005489D03*
X011179Y005725D03*
X011080Y006099D03*
X010450Y005587D03*
X012360Y007103D03*
X013580Y005981D03*
X013423Y005430D03*
X013974Y005430D03*
X014230Y005666D03*
X014545Y006079D03*
X015057Y005774D03*
X015352Y005882D03*
X016002Y006040D03*
X015943Y004937D03*
X016612Y004937D03*
X017360Y004937D03*
X018069Y004937D03*
X018915Y004937D03*
X019781Y004937D03*
X020726Y004937D03*
X021651Y004937D03*
X022025Y004288D03*
X022025Y003973D03*
X022320Y003973D03*
X022616Y003973D03*
X022911Y003973D03*
X023206Y003973D03*
X023206Y004268D03*
X022655Y004937D03*
X022419Y006414D03*
X022714Y006611D03*
X023777Y006630D03*
X024053Y006217D03*
X024722Y006237D03*
X022773Y007693D03*
X021868Y008658D03*
X020372Y008796D03*
X019328Y009170D03*
X018521Y009229D03*
X018206Y008993D03*
X018049Y009445D03*
X017754Y009544D03*
X017439Y009544D03*
X016927Y009426D03*
X016691Y010272D03*
X016395Y011138D03*
X015982Y011374D03*
X015273Y011473D03*
X017616Y011374D03*
X018069Y010489D03*
X018935Y010823D03*
X020431Y010548D03*
X020943Y011256D03*
X021297Y011217D03*
X021887Y011178D03*
X021198Y010449D03*
X020431Y010016D03*
X018561Y008619D03*
X018265Y007497D03*
X018561Y007280D03*
X018974Y007280D03*
X019230Y007083D03*
X019545Y007674D03*
X020234Y007024D03*
X021553Y006906D03*
X021533Y006453D03*
X020057Y003540D03*
X019112Y002752D03*
X019112Y002477D03*
X018777Y002930D03*
X020332Y002339D03*
X020332Y002004D03*
X021474Y001827D03*
X021691Y001670D03*
X021494Y001493D03*
X021356Y001256D03*
X021356Y000981D03*
X021435Y000508D03*
X021730Y000508D03*
X022006Y000508D03*
X022301Y000508D03*
X022596Y000508D03*
X022891Y000508D03*
X023108Y000725D03*
X023206Y001020D03*
X022911Y001020D03*
X022616Y001020D03*
X022320Y001020D03*
X022025Y001020D03*
X021139Y000508D03*
X020864Y000508D03*
X020569Y000508D03*
X020273Y000508D03*
X019998Y000508D03*
X019702Y000508D03*
X019407Y000508D03*
X019112Y000508D03*
X018797Y000508D03*
X018502Y000508D03*
X016218Y000981D03*
X015726Y001217D03*
X015293Y000961D03*
X014250Y002871D03*
X012301Y002477D03*
X009663Y001119D03*
X009112Y001119D03*
X009112Y000528D03*
X009663Y000528D03*
X008482Y000528D03*
X008482Y001119D03*
X007832Y000528D03*
X007202Y000528D03*
X006631Y001119D03*
X004860Y001296D03*
X003915Y001000D03*
X003915Y000567D03*
X003344Y000567D03*
X003344Y001000D03*
X002773Y001414D03*
X002773Y002241D03*
X002754Y003678D03*
X002754Y004819D03*
X002754Y005567D03*
X002734Y006788D03*
X002754Y008048D03*
X002754Y009327D03*
X007340Y009977D03*
X007832Y009819D03*
X007714Y009052D03*
X007380Y008993D03*
X010096Y009268D03*
X007931Y011689D03*
X010667Y013520D03*
X011297Y013520D03*
X012222Y014130D03*
X013128Y014288D03*
X013954Y014406D03*
X014880Y015213D03*
X016061Y015115D03*
X015687Y014288D03*
X013561Y015567D03*
X012320Y015134D03*
X012911Y011374D03*
X015982Y007871D03*
X016139Y007221D03*
X016612Y006985D03*
X016868Y007575D03*
X017616Y007300D03*
X017813Y007536D03*
X017557Y008008D03*
X017301Y008264D03*
X017281Y006886D03*
X015322Y004937D03*
X025785Y009642D03*
X025785Y010390D03*
X025805Y011178D03*
X025805Y011670D03*
X025746Y014701D03*
X025746Y015134D03*
X025687Y015567D03*
X020529Y015745D03*
X019663Y015733D03*
X018620Y015371D03*
X018029Y015764D03*
X002773Y000567D03*
D57*
X021021Y013709D02*
X022525Y013709D01*
X022655Y013579D01*
X023230Y013579D01*
X023230Y012709D01*
X023443Y012497D01*
X024230Y013323D02*
X024880Y012674D01*
X024998Y012674D01*
X025175Y012497D01*
X024230Y013323D02*
X024230Y013579D01*
X024230Y014422D01*
X023694Y014957D01*
X025194Y014707D02*
X025194Y014701D01*
X025194Y014207D01*
X025194Y013615D01*
X025230Y013579D01*
D58*
X025194Y014701D02*
X025372Y014878D01*
X025372Y015115D01*
X025234Y014977D01*
X025017Y014977D01*
X025017Y015134D01*
X025194Y014957D01*
X025194Y014977D01*
X025372Y015154D01*
X025372Y015115D01*
X025372Y015154D02*
X025372Y015174D01*
X025332Y015213D01*
X025200Y015213D01*
X025194Y015207D01*
X021553Y006906D02*
X021474Y006827D01*
X020569Y006827D01*
X020214Y006473D01*
X019840Y006473D01*
X019820Y006473D01*
X019722Y006374D01*
X019722Y006355D01*
X019840Y006473D01*
X019820Y006473D02*
X019525Y006473D01*
X019702Y006296D01*
X019702Y005906D01*
X019746Y005764D01*
X019686Y006469D02*
X019344Y006469D01*
X019446Y006473D01*
X019525Y006473D01*
X019686Y006469D01*
X013964Y004475D02*
X013856Y004406D01*
X013187Y004406D02*
X012931Y004426D01*
X012813Y004308D01*
X012813Y004524D01*
X012813Y004308D02*
X012813Y002851D01*
X012832Y002831D01*
X012832Y002811D01*
X013324Y002319D01*
X013324Y001788D01*
X013797Y001788D01*
X013797Y001886D01*
X013324Y001788D02*
X013324Y001591D01*
X012950Y001217D01*
X011415Y002437D02*
X011415Y002693D01*
X011553Y002831D01*
X011809Y002831D01*
X011415Y002437D02*
X010588Y002437D01*
X010372Y002634D01*
X010332Y002910D01*
X009978Y003264D01*
X009978Y004091D01*
X009899Y004170D01*
X009899Y004682D01*
X009722Y004859D01*
X009663Y004859D01*
X009663Y005154D01*
X010116Y005587D01*
X010450Y005587D01*
X010391Y005863D02*
X010569Y005863D01*
X010726Y005705D01*
X010726Y005449D01*
X010470Y005193D01*
X010470Y004937D01*
X010313Y004780D01*
X010332Y004760D01*
X010332Y003934D01*
X011080Y003934D02*
X011139Y003894D01*
X011572Y003441D01*
X010391Y004780D02*
X010313Y004780D01*
X009663Y004859D02*
X009584Y004859D01*
X009466Y004977D01*
X009939Y006611D02*
X009761Y006788D01*
X009742Y006788D01*
X009939Y006611D02*
X010293Y006611D01*
X010352Y006552D01*
X005174Y002594D02*
X005196Y002536D01*
X005470Y001650D02*
X006139Y001689D01*
X007104Y001650D02*
X007596Y001414D01*
X004822Y003560D02*
X004918Y003913D01*
X004958Y004091D01*
X004053Y002142D02*
X003994Y001827D01*
X004358Y001798D02*
X004426Y001826D01*
D59*
X014013Y002772D02*
X014072Y002713D01*
X014013Y002772D02*
X014013Y002930D01*
X014033Y002949D01*
X014033Y004386D01*
X014191Y004662D02*
X014171Y004682D01*
X014171Y004691D01*
X014191Y004662D02*
X014191Y002930D01*
X014348Y003087D02*
X014348Y004760D01*
X014299Y004819D01*
X014486Y004859D02*
X014476Y004898D01*
X014486Y004859D02*
X014486Y003146D01*
X014958Y002674D01*
X016120Y002674D01*
X016171Y002715D01*
X016171Y002912D01*
X016317Y002910D01*
X016395Y002733D02*
X016415Y002713D01*
X016336Y002693D01*
X016218Y002595D01*
X016139Y002536D01*
X014899Y002536D01*
X014348Y003087D01*
X014899Y002083D02*
X015214Y002083D01*
X015352Y001945D01*
X015352Y001237D01*
X015588Y001000D01*
X015883Y001000D01*
X016139Y001256D01*
X016139Y001670D01*
X016277Y001808D01*
X016277Y002024D01*
X016395Y002142D01*
X016868Y002142D01*
X016946Y002221D01*
X016946Y002378D01*
X016474Y002359D02*
X016415Y002359D01*
X016139Y002083D01*
X016139Y001886D01*
X015509Y001886D01*
X015509Y001906D01*
X015824Y002221D02*
X015864Y002221D01*
X015883Y002241D01*
X016317Y002713D02*
X016395Y002733D01*
X016966Y003815D02*
X016966Y004111D01*
X019761Y004111D01*
X019781Y004130D01*
X020470Y004130D01*
X020608Y003993D01*
X020608Y003874D01*
X020352Y003874D02*
X020352Y003737D01*
X020569Y003520D01*
X021179Y003520D01*
X021179Y003205D01*
X021159Y003186D01*
X021179Y003520D02*
X021179Y003579D01*
X021553Y003186D02*
X021553Y003028D01*
X021592Y002556D01*
X021651Y002516D01*
X021809Y002477D01*
X022626Y002477D01*
X022650Y002501D01*
X021651Y002516D02*
X021572Y002477D01*
X021002Y002693D02*
X020962Y002280D01*
X020962Y001886D02*
X020962Y001473D01*
X020903Y001473D01*
X020569Y001335D01*
X020175Y001335D02*
X019860Y001315D01*
X019781Y001296D01*
X019368Y001296D01*
X019250Y001296D01*
X018974Y001434D01*
X018639Y001493D02*
X018580Y001434D01*
X018639Y001493D02*
X018639Y001532D01*
X018718Y001768D01*
X018817Y001965D01*
X018738Y002063D01*
X018637Y002165D01*
X018521Y002404D02*
X018521Y002595D01*
X018502Y002772D02*
X018495Y002792D01*
X018485Y002811D01*
X018472Y002829D01*
X018458Y002845D01*
X018441Y002859D01*
X018423Y002870D01*
X018226Y002930D02*
X017891Y002930D01*
X017891Y003126D02*
X018324Y003126D01*
X018344Y003205D01*
X018364Y003205D01*
X018379Y003209D01*
X018393Y003216D01*
X018405Y003226D01*
X018414Y003239D01*
X018421Y003253D01*
X018424Y003268D01*
X018423Y003284D01*
X018425Y003299D01*
X018430Y003313D01*
X018438Y003326D01*
X018449Y003336D01*
X018462Y003343D01*
X018659Y003402D02*
X018871Y003402D01*
X018994Y003343D02*
X019053Y003264D01*
X019151Y003186D01*
X018994Y003343D02*
X018978Y003360D01*
X018960Y003375D01*
X018939Y003386D01*
X018917Y003395D01*
X018895Y003400D01*
X018871Y003402D01*
X018757Y003599D02*
X019151Y003599D01*
X019545Y003599D02*
X019545Y003186D01*
X019624Y002772D01*
X020017Y002772D02*
X020096Y003126D01*
X020332Y003141D02*
X020372Y003141D01*
X020372Y003107D02*
X020332Y003107D01*
X020332Y003245D01*
X020313Y003264D01*
X020313Y003363D01*
X020254Y003422D01*
X019919Y003422D01*
X019880Y003461D01*
X019880Y003560D01*
X019958Y003638D01*
X020135Y003638D01*
X020391Y003382D01*
X020391Y003264D01*
X020372Y003245D01*
X020372Y003107D01*
X020372Y003199D02*
X020332Y003199D01*
X020319Y003258D02*
X020385Y003258D01*
X020391Y003316D02*
X020313Y003316D01*
X020300Y003375D02*
X020391Y003375D01*
X020340Y003433D02*
X019907Y003433D01*
X019880Y003492D02*
X020282Y003492D01*
X020223Y003551D02*
X019880Y003551D01*
X019929Y003609D02*
X020165Y003609D01*
X020096Y003874D02*
X019958Y003875D01*
X019860Y003973D01*
X017990Y003973D01*
X017655Y003638D01*
X017399Y003638D01*
X017360Y003678D01*
X017360Y003855D01*
X017340Y003874D01*
X017891Y003323D02*
X018069Y003323D01*
X018344Y003599D01*
X018757Y003599D01*
X018659Y003402D02*
X018629Y003403D01*
X018599Y003400D01*
X018570Y003395D01*
X018541Y003386D01*
X018513Y003374D01*
X018487Y003360D01*
X018462Y003343D01*
X018226Y002575D02*
X018226Y001965D01*
X018423Y002871D02*
X018393Y002889D01*
X018362Y002903D01*
X018329Y002915D01*
X018295Y002923D01*
X018261Y002928D01*
X018226Y002930D01*
X018502Y002772D02*
X018512Y002728D01*
X018518Y002684D01*
X018521Y002639D01*
X018522Y002595D01*
X018521Y002403D02*
X018524Y002369D01*
X018531Y002336D01*
X018541Y002304D01*
X018554Y002272D01*
X018571Y002242D01*
X018590Y002214D01*
X018612Y002188D01*
X018636Y002164D01*
X019446Y002182D02*
X019446Y001689D01*
X019781Y001689D01*
X019860Y001709D01*
X019446Y001689D02*
X019368Y001689D01*
X020608Y002693D02*
X020608Y003126D01*
X017763Y006128D02*
X017183Y006128D01*
X017173Y006119D01*
X017006Y006256D02*
X017655Y006256D01*
X017675Y006276D01*
X016432Y007633D02*
X015904Y007633D01*
X015726Y007811D01*
X016120Y008107D02*
X016198Y008028D01*
X016234Y008028D01*
X016120Y008107D02*
X016120Y008304D01*
X016002Y008422D01*
X015706Y008422D01*
X015628Y008500D01*
X015509Y008500D01*
X015549Y008658D02*
X015647Y008658D01*
X015746Y008560D01*
X016080Y008560D01*
X016096Y008575D01*
X014899Y002083D02*
X014801Y001985D01*
X014387Y001985D01*
X014289Y001886D01*
D60*
X016946Y013579D02*
X017045Y013658D01*
X017045Y014071D01*
X017104Y014130D01*
X017183Y013953D02*
X017360Y014130D01*
X017183Y013953D02*
X017183Y013638D01*
X017242Y013579D01*
X017340Y013500D01*
D61*
X016433Y009012D02*
X015637Y009012D01*
X015569Y008943D01*
X012832Y006237D02*
X012675Y006394D01*
X011435Y006394D01*
X014230Y005666D02*
X014259Y005666D01*
X014584Y005351D01*
X014584Y005036D02*
X014850Y005036D01*
X014929Y005115D01*
X014929Y005617D01*
X014939Y005646D01*
X014988Y005705D01*
X015057Y005774D01*
X016946Y003874D02*
X016966Y003815D01*
X016533Y003323D02*
X016395Y003323D01*
X016533Y003323D02*
X016691Y003166D01*
X016691Y002654D01*
X016809Y002654D02*
X017891Y002654D01*
X017891Y002733D01*
X013876Y001945D02*
X013797Y001788D01*
X013757Y001945D02*
X013738Y001965D01*
X013738Y002457D01*
X013757Y001945D02*
X013876Y001945D01*
X019344Y006469D02*
X019344Y006493D01*
X019286Y006550D01*
D62*
X007104Y001650D02*
X005470Y001650D01*
X004358Y001798D02*
X004053Y002142D01*
D63*
X004092Y002339D02*
X003974Y002418D01*
X004448Y002536D01*
X004446Y002536D02*
X004446Y002339D01*
X004092Y002339D01*
X004446Y002536D02*
X004446Y001945D01*
X004446Y001826D01*
X004426Y001826D01*
X003423Y002615D02*
X003580Y002851D01*
X003502Y002772D01*
X003265Y002772D01*
X003265Y002851D01*
X003206Y002910D01*
X003206Y002949D01*
X003265Y002851D02*
X003268Y002851D01*
X003289Y002851D01*
X003306Y002834D01*
X003296Y002823D02*
X003268Y002851D01*
X003364Y002949D02*
X003482Y002949D01*
X003482Y002890D01*
X003502Y002890D01*
X003502Y002969D01*
X003561Y003028D01*
X003580Y002851D01*
X004131Y005548D02*
X004131Y005993D01*
X004318Y006180D01*
X006533Y003500D02*
X007557Y003500D01*
X007557Y004111D01*
X007576Y004130D01*
X007734Y004367D01*
X007537Y004012D01*
X007734Y004367D02*
X007734Y004524D01*
X008659Y004977D02*
X009466Y004977D01*
X007596Y003146D02*
X007537Y003205D01*
X019746Y005764D02*
X019785Y005804D01*
X020391Y005804D01*
X004318Y014920D02*
X004309Y014929D01*
X004309Y015252D01*
X004151Y015410D01*
X004151Y015548D01*
D64*
X008305Y005095D02*
X008423Y004977D01*
X008659Y004977D01*
X008462Y004937D02*
X008167Y004937D01*
X007754Y004524D01*
X007734Y004524D01*
X005549Y001808D02*
X005313Y001808D01*
X005244Y001739D01*
X005244Y001670D01*
X005332Y001532D02*
X005411Y001532D01*
X005549Y001670D01*
X006100Y001670D01*
X006139Y001689D01*
X005647Y001709D02*
X005549Y001611D01*
X005411Y001611D01*
X005332Y001532D01*
X005549Y001808D02*
X005647Y001709D01*
X004476Y001670D02*
X004476Y001581D01*
X004427Y001532D01*
X004033Y001532D01*
X003994Y001571D01*
X003994Y001827D01*
D65*
X005214Y002201D02*
X005313Y002103D01*
X005214Y002201D02*
X005214Y002378D01*
X005175Y002418D01*
X005174Y002594D01*
X006848Y002083D02*
X007301Y002536D01*
X008147Y002536D01*
X008226Y002615D01*
X008226Y003304D01*
X008561Y003638D01*
X008698Y003638D01*
X020411Y014249D02*
X020628Y014465D01*
X021139Y014465D01*
X021376Y014701D01*
X022104Y014701D01*
X022360Y014445D01*
X022360Y014367D01*
X021986Y015193D02*
X021789Y015390D01*
X021789Y015607D01*
X022458Y015607D02*
X023045Y015607D01*
X023694Y014957D01*
X025194Y015707D02*
X025196Y015707D01*
X025411Y015705D01*
X025549Y015567D01*
X025687Y015567D01*
X022616Y011630D02*
X022399Y011709D01*
X022281Y011729D01*
D66*
X009466Y004308D02*
X008659Y004308D01*
X008698Y004268D01*
X008698Y003638D01*
X004448Y003560D02*
X004448Y003873D01*
X004446Y003874D01*
D67*
X003364Y003363D02*
X003364Y002949D01*
X003206Y002949D01*
X003108Y002615D01*
X003206Y002615D01*
X003206Y001827D01*
X007537Y003205D02*
X007537Y004012D01*
D68*
X014624Y003235D02*
X015027Y002831D01*
X015982Y002831D01*
X016021Y002871D01*
X016021Y002989D01*
X016139Y003107D01*
X016376Y003107D01*
X016395Y003126D01*
X014624Y003235D02*
X014624Y004859D01*
X014633Y004869D01*
X014633Y004859D01*
M02*
